<?xml version="1.0" encoding="utf-8"?>
<!-- Generator: Adobe Illustrator 16.0.0, SVG Export Plug-In . SVG Version: 6.00 Build 0)  -->
<!DOCTYPE svg PUBLIC "-//W3C//DTD SVG 1.1//EN" "http://www.w3.org/Graphics/SVG/1.1/DTD/svg11.dtd">
<svg version="1.1" id="Layer_1" xmlns="http://www.w3.org/2000/svg" xmlns:xlink="http://www.w3.org/1999/xlink" x="0px" y="0px"
	 width="540px" height="540px" viewBox="0 0 540 540" enable-background="new 0 0 540 540" xml:space="preserve">
<g>
	<g>
		<g>
			<g>
				<g>
					<g>
						<rect x="112.594" y="203.523" fill="#E72D24" width="97.168" height="256.632"/>
						<g>
							<rect x="121.202" y="233.26" fill="#FFFFFF" width="12.247" height="12.247"/>
							<rect x="142.974" y="233.26" fill="#FFFFFF" width="12.247" height="12.247"/>
							<rect x="166.106" y="233.26" fill="#FFFFFF" width="10.886" height="12.247"/>
							<rect x="121.202" y="250.949" fill="#FFFFFF" width="12.247" height="12.247"/>
							<rect x="142.974" y="250.949" fill="#FFFFFF" width="12.247" height="12.247"/>
							<rect x="166.106" y="250.949" fill="#FFFFFF" width="10.886" height="12.247"/>
							<rect x="121.202" y="270" fill="#FFFFFF" width="12.247" height="12.247"/>
							<rect x="166.106" y="270" fill="#FFFFFF" width="10.886" height="12.247"/>
							<rect x="121.202" y="289.051" fill="#FFFFFF" width="12.247" height="12.246"/>
							<rect x="142.974" y="289.051" fill="#FFFFFF" width="12.247" height="12.246"/>
							<rect x="166.106" y="289.051" fill="#FFFFFF" width="10.886" height="12.246"/>
							<rect x="121.202" y="308.101" fill="#FFFFFF" width="12.247" height="10.886"/>
							<rect x="166.106" y="308.101" fill="#FFFFFF" width="10.886" height="10.886"/>
							<rect x="121.202" y="327.151" fill="#FFFFFF" width="12.247" height="10.886"/>
							<rect x="142.974" y="327.151" fill="#FFFFFF" width="12.247" height="10.886"/>
							<rect x="166.106" y="327.151" fill="#FFFFFF" width="10.886" height="10.886"/>
							<rect x="142.974" y="344.841" fill="#FFFFFF" width="12.247" height="10.886"/>
							<rect x="121.202" y="363.891" fill="#FFFFFF" width="12.247" height="10.887"/>
							<rect x="142.974" y="363.891" fill="#FFFFFF" width="12.247" height="10.887"/>
							<rect x="166.106" y="363.891" fill="#FFFFFF" width="10.886" height="10.887"/>
							<rect x="142.974" y="382.941" fill="#FFFFFF" width="12.247" height="10.886"/>
							<rect x="166.106" y="382.941" fill="#FFFFFF" width="10.886" height="10.886"/>
							<rect x="121.202" y="400.631" fill="#FFFFFF" width="12.247" height="12.247"/>
							<rect x="166.106" y="400.631" fill="#FFFFFF" width="10.886" height="12.247"/>
							<rect x="121.202" y="419.682" fill="#FFFFFF" width="12.247" height="12.246"/>
							<rect x="142.974" y="419.682" fill="#FFFFFF" width="12.247" height="12.246"/>
						</g>
					</g>
					<g>
						<path fill="#A44099" d="M304.901,276.804v-78.086v-60.71h-16.328v-36.739h-28.575V52.281h-21.772v48.987H211.01v36.739
							h-16.329v60.71v78.086h-14.968v183.7h140.156v-183.7H304.901z M254.554,154.337v50.348h-12.247v-50.348H254.554z
							 M277.686,204.685H265.44v-50.348h12.246V204.685z M277.686,223.734v50.348H265.44v-50.348H277.686z M242.308,223.734h12.247
							v50.348h-12.247V223.734z M230.061,204.685h-12.247v-50.348h12.247V204.685z M217.814,223.734h12.247v50.348h-12.247V223.734z
							 M194.682,372.056v-50.09v-13.865h12.247v63.955H194.682z M219.175,372.056v-63.955h10.886v63.955H219.175z M242.308,372.056
							v-63.955h12.247v63.955H242.308z M265.44,372.056v-63.955h12.246v63.955H265.44z M291.293,372.056v-63.955h12.247v63.955
							H291.293z"/>
						<polygon fill="#FFFFFF" points="206.928,308.101 194.682,308.101 194.682,321.966 194.682,372.056 206.928,372.056 						"/>
						<rect x="219.175" y="308.101" fill="#FFFFFF" width="10.886" height="63.955"/>
						<rect x="242.308" y="308.101" fill="#FFFFFF" width="12.247" height="63.955"/>
						<rect x="265.44" y="308.101" fill="#FFFFFF" width="12.246" height="63.955"/>
						<rect x="291.293" y="308.101" fill="#FFFFFF" width="12.247" height="63.955"/>
						<rect x="217.814" y="223.734" fill="#FFFFFF" width="12.247" height="50.348"/>
						<rect x="242.308" y="223.734" fill="#FFFFFF" width="12.247" height="50.348"/>
						<rect x="265.44" y="223.734" fill="#FFFFFF" width="12.246" height="50.348"/>
						<rect x="217.814" y="154.337" fill="#FFFFFF" width="12.247" height="50.348"/>
						<rect x="242.308" y="154.337" fill="#FFFFFF" width="12.247" height="50.348"/>
						<rect x="265.44" y="154.337" fill="#FFFFFF" width="12.246" height="50.348"/>
					</g>
					<g>
						<path fill="#FF4959" d="M432.487,460.155c0,0,0-112.029,0-200.531c0-88.5-120.149-146.943-120.149-146.943v347.475H432.487z"
							/>
						<rect x="328.033" y="331.233" fill="#FFFFFF" width="13.607" height="48.986"/>
						<rect x="351.166" y="331.233" fill="#FFFFFF" width="13.607" height="48.986"/>
						<rect x="398.792" y="331.233" fill="#FFFFFF" width="10.886" height="48.986"/>
						<rect x="328.033" y="263.196" fill="#FFFFFF" width="13.607" height="51.708"/>
						<rect x="375.659" y="263.196" fill="#FFFFFF" width="10.886" height="51.708"/>
						<rect x="398.792" y="263.196" fill="#FFFFFF" width="10.886" height="51.708"/>
						<rect x="328.033" y="196.52" fill="#FFFFFF" width="13.607" height="50.348"/>
						<rect x="351.166" y="196.52" fill="#FFFFFF" width="13.607" height="50.348"/>
					</g>
					<g>
						<rect x="45.903" y="253.372" fill="#CD6329" width="98.239" height="206.783"/>
						<g>
							<rect x="93.987" y="278.164" fill="#FFFFFF" width="10.886" height="10.887"/>
						</g>
						<g>
							<rect x="72.215" y="278.164" fill="#FFFFFF" width="12.247" height="10.887"/>
						</g>
						<g>
							<rect x="93.987" y="295.854" fill="#FFFFFF" width="10.886" height="12.246"/>
						</g>
						<g>
							<rect x="72.215" y="295.854" fill="#FFFFFF" width="12.247" height="12.246"/>
						</g>
						<g>
							<rect x="93.987" y="314.904" fill="#FFFFFF" width="10.886" height="12.247"/>
						</g>
						<g>
							<rect x="72.215" y="314.904" fill="#FFFFFF" width="12.247" height="12.247"/>
						</g>
						<g>
							<rect x="93.987" y="332.594" fill="#FFFFFF" width="10.886" height="12.247"/>
						</g>
						<g>
							<rect x="72.215" y="332.594" fill="#FFFFFF" width="12.247" height="12.247"/>
						</g>
						<g>
							<rect x="93.987" y="351.645" fill="#FFFFFF" width="10.886" height="12.246"/>
						</g>
						<g>
							<rect x="72.215" y="351.645" fill="#FFFFFF" width="12.247" height="12.246"/>
						</g>
						<g>
							<rect x="93.987" y="370.694" fill="#FFFFFF" width="10.886" height="12.247"/>
						</g>
						<g>
							<rect x="72.215" y="370.694" fill="#FFFFFF" width="12.247" height="12.247"/>
						</g>
						<g>
							<rect x="93.987" y="388.385" fill="#FFFFFF" width="10.886" height="12.246"/>
						</g>
						<g>
							<rect x="72.215" y="388.385" fill="#FFFFFF" width="12.247" height="12.246"/>
						</g>
						<g>
							<rect x="93.987" y="407.435" fill="#FFFFFF" width="10.886" height="12.247"/>
						</g>
						<g>
							<rect x="72.215" y="407.435" fill="#FFFFFF" width="12.247" height="12.247"/>
						</g>
						<g>
							<rect x="93.987" y="425.124" fill="#FFFFFF" width="10.886" height="12.247"/>
						</g>
						<g>
							<rect x="72.215" y="425.124" fill="#FFFFFF" width="12.247" height="12.247"/>
						</g>
					</g>
					<g>
						<rect x="401.298" y="272.748" fill="#FBEE51" width="93.702" height="187.41"/>
						<rect x="411.708" y="285.763" fill="#FFFFFF" width="31.236" height="7.807"/>
						<rect x="455.305" y="285.763" fill="#FFFFFF" width="29.285" height="7.807"/>
						<rect x="411.708" y="306.586" fill="#FFFFFF" width="31.236" height="7.809"/>
						<rect x="455.305" y="306.586" fill="#FFFFFF" width="29.285" height="7.809"/>
						<rect x="411.708" y="327.406" fill="#FFFFFF" width="31.236" height="7.81"/>
						<rect x="455.305" y="327.406" fill="#FFFFFF" width="29.285" height="7.81"/>
						<rect x="411.708" y="348.23" fill="#FFFFFF" width="31.236" height="7.807"/>
						<rect x="455.305" y="348.23" fill="#FFFFFF" width="29.285" height="7.807"/>
						<rect x="455.305" y="369.055" fill="#FFFFFF" width="29.285" height="7.809"/>
						<rect x="411.708" y="369.055" fill="#FFFFFF" width="31.236" height="7.809"/>
						<rect x="411.708" y="389.878" fill="#FFFFFF" width="31.236" height="7.809"/>
						<rect x="455.305" y="389.878" fill="#FFFFFF" width="29.285" height="7.809"/>
						<rect x="411.708" y="410.698" fill="#FFFFFF" width="31.236" height="7.809"/>
						<rect x="455.305" y="410.698" fill="#FFFFFF" width="29.285" height="7.809"/>
					</g>
				</g>
				<rect x="45" y="475.472" fill="#FABD80" width="447.683" height="12.247"/>
				<rect x="398.792" y="331.233" fill="#FFFFFF" width="10.886" height="48.986"/>
				<rect x="398.792" y="263.196" fill="#FFFFFF" width="10.886" height="51.708"/>
			</g>
		</g>
	</g>
</g>
</svg>
