<?xml version="1.0" encoding="utf-8"?>
<!-- Generator: Adobe Illustrator 15.0.0, SVG Export Plug-In . SVG Version: 6.00 Build 0)  -->
<!DOCTYPE svg PUBLIC "-//W3C//DTD SVG 1.1//EN" "http://www.w3.org/Graphics/SVG/1.1/DTD/svg11.dtd">
<svg version="1.1" id="Layer_1" xmlns="http://www.w3.org/2000/svg" xmlns:xlink="http://www.w3.org/1999/xlink" x="0px" y="0px"
	 width="411.067px" height="274.304px" viewBox="0 0 411.067 274.304" enable-background="new 0 0 411.067 274.304"
	 xml:space="preserve">
<g>
	<g>
		<path fill="#FF808C" d="M242.381,155.559c3.729,21.75,20.511,40.938,37.563,53.883c0.195,0.148,0.388,0.248,0.58,0.326
			c0.302,1.021,1.149,1.859,2.564,1.881c5.807,0.088,11.495-1.094,17.23-1.809c6.111-0.762,12.226-1.521,18.365-2.029
			c12.22-1.011,24.592-1.082,36.546,2.021c12.159,3.156,22.495,9.303,33.623,14.893c3.583,1.801,7.09,3.784,10.804,5.311
			c2.549,1.047,5.183,2.484,8.013,2.006c0.438-0.074,0.725-0.307,0.884-0.604c2.354-0.336,2.991-4.298,0.206-5.289
			c-0.931-0.33-1.851-0.677-2.767-1.031c-3.979-3.154-8.135-6.12-11.887-9.621c-4.212-3.93-8.204-8.073-12.482-11.932
			c-1.092-0.985-3.138-0.697-3.481,0.92c-0.271,1.267-0.598,2.515-0.854,3.775c-6.761-1.72-12.908-5.467-18.501-9.555
			c-6.512-4.762-12.563-10.209-18.05-16.123c-11.931-12.863-21.483-26.564-27.646-43.089c-0.84-2.252-4.241-1.993-4.29,0.581
			c-0.208,10.822,7.331,21.662,12.415,30.76c4.188,7.498,8.553,16.064,14.313,23.007c-3.196-1.051-6.509-2.094-9.683-3.34
			c-1.845-1.021-3.622-2.125-5.309-3.203c-5.299-3.39-10.091-7.312-15.024-11.183c-1.788-1.401-4.104,0.289-3.126,2.412
			c0.53,1.152,1.128,2.264,1.779,3.34c0.004,0.436,0.163,0.855,0.549,1.16c0.131,0.104,0.265,0.203,0.396,0.307
			c4.715,6.984,11.837,12.378,19.155,16.949c-9.282-1.869-18.771-6.506-24.009-13.543c-1.668-2.242-4.995-0.375-3.77,2.201
			c1.92,4.029,4.381,7.929,7.527,11.125c-4.442-0.703-8.766-2.711-12.612-4.813c-5.4-2.947-10.594-6.318-15.739-9.691
			c-12.113-7.938-23.427-18.183-29.277-31.691C245.326,151.424,241.991,153.302,242.381,155.559 M330.402,177.401
			c-0.093,0.045-0.181,0.099-0.265,0.158c-0.306-0.531-0.605-1.062-0.904-1.592C329.615,176.448,330.012,176.923,330.402,177.401
			 M354.675,201.94c0.113-0.082,0.215-0.181,0.283-0.299c0.349,0.26,0.688,0.53,1.037,0.786
			C355.555,202.27,355.114,202.106,354.675,201.94 M331.871,199.502c0.796,0.363,1.594,0.707,2.392,1.049
			c-0.074,0.055-0.146,0.112-0.213,0.176C333.323,200.319,332.597,199.915,331.871,199.502 M267.334,191.425
			c-0.277-0.304-0.545-0.618-0.817-0.924c0.046-0.075,0.085-0.153,0.113-0.237c0.268,0.358,0.529,0.719,0.784,1.082
			C267.39,191.374,267.36,191.397,267.334,191.425"/>
		<path fill="#FF808C" d="M107.648,57.2c1.672,5.832,4.4,11.525,9.008,15.637c3.687,3.289,9.131,6.628,14.223,4.521
			c2.223-0.92,4.896-3.04,7.384-2.855c3.005,0.223,4.654,3.671,5.971,5.981c3.495,6.136,8.047,11.651,12.262,17.301
			c9.199,12.332,18.791,24.435,29.512,35.493c5.359,5.53,10.958,10.759,16.921,15.635c2.677,2.188,5.437,4.557,8.503,6.19
			c0.327,0.174,0.665,0.338,1.009,0.497c0.071,0.056,0.142,0.11,0.212,0.164c2.896,2.179,7.341,6.261,11.325,5.609
			c1.396-0.229,1.17-2.088,0.086-2.55c0.042-2.004-2.86-3.992-4.179-4.979c-0.758-0.566-1.542-1.123-2.338-1.674
			c-5.479-6.297-13.104-10.902-19.18-16.464c-9.285-8.5-16.496-18.476-23.549-28.83c-7.147-10.495-13.902-21.257-20.548-32.074
			c-2.879-4.685-5.545-9.491-7.495-14.64c-0.724-1.906-1.402-3.927-2.425-5.7c-0.862-1.496-1.854-2.634-2.419-4.297
			c-0.521-1.524-3.245-1.94-3.517,0c-0.922,6.621-3.719,16.246-11.073,18.354c-9.566,2.742-12.949-5.785-16.715-12.577
			C109.724,54.323,107.141,55.428,107.648,57.2 M195.326,137.139c2.244,2.029,4.589,3.953,6.955,5.854
			c-0.114,0.016-0.229,0.041-0.34,0.078C199.701,141.131,197.488,139.166,195.326,137.139 M186.668,128.475
			c0.183,0.122,0.367,0.241,0.553,0.36c1.084,1.237,2.185,2.46,3.325,3.65c-0.623-0.628-1.256-1.242-1.869-1.88
			C188.001,129.902,187.337,129.186,186.668,128.475 M149.296,73.945c-0.617-0.946-1.246-1.885-1.87-2.827
			c0.004-0.007,0.007-0.014,0.01-0.021c0.063-0.073,0.111-0.158,0.146-0.249c0.628,1.141,1.271,2.275,1.94,3.388
			C149.448,74.138,149.371,74.042,149.296,73.945"/>
		<path fill="#FF808C" d="M132.389,138.755c5.31,10.212,16.931,12.858,26.157,18.353c-1.986,3.541-2.603,7.515-2.336,11.625
			c0.145,2.238,2.998,2.525,3.774,0.513c6.121-15.858,28.364,8.543,33.955,14.274c6.938,7.113,14.278,14.598,22.814,19.771
			c3.229,1.957,6.732,3.512,10.121,5.171c1.731,0.85,3.474,1.686,5.198,2.551c0.781,0.395,2.915,2.044,1.937,0.748
			c1.46,1.934,4.699,0.153,3.499-1.8c0.176-0.443,0.079-0.979-0.476-1.306c-17.078-10.08-32.114-22.971-44.106-38.801
			c-11.475-15.147-20.46-31.93-28.735-48.985c-0.777-1.601-3.143-0.736-3.183,0.862c-0.274,10.787,1.345,22.729,5.873,32.907
			c-10.454-6.211-22.799-9.31-31.46-18.223C133.845,134.792,131.4,136.85,132.389,138.755 M202.287,186.125
			c0.094-0.021,0.18-0.059,0.259-0.11c2.502,2.579,5.09,5.071,7.79,7.443C207.557,191.104,204.9,188.641,202.287,186.125
			 M182.663,161.561c0.12-0.008,0.237-0.027,0.353-0.058c0.308,0.46,0.606,0.926,0.918,1.384
			C183.516,162.44,183.086,162.004,182.663,161.561"/>
		<path fill="#FF808C" d="M51.134,206.499c11.719-0.278,21.875-4.9,30.784-12.369c5.023-4.213,9.638-8.811,15.482-11.922
			c5.228-2.78,10.789-4.521,16.525-5.907c1.84-0.444,1.697-2.884,0.262-3.56c-0.115-0.168-0.279-0.305-0.506-0.367
			c-12.197-3.402-25.775,0.406-36.712,6.105c-11.19,5.834-21.185,14.147-27.431,25.243
			C48.869,204.915,49.708,206.534,51.134,206.499 M58.387,197.122c1.099-1.336,2.261-2.633,3.49-3.873
			C60.699,194.53,59.508,195.8,58.387,197.122"/>
		<path fill="#FF808C" d="M96.99,201.108c11.983-0.088,24.501,2.232,36.188,4.715c11.639,2.472,23.121,5.593,34.25,9.834
			c10.041,3.826,18.021,10.9,27.744,15.275c9.397,4.23,18.149,2.397,27.331-1.334c2.34-0.951,1.524-4.64-0.813-4.109
			c-0.193-0.028-0.405-0.008-0.627,0.09c-8.205,3.582-18.679-3.702-25.272-7.887c-8.778-5.57-17.412-11.127-26.797-15.688
			c-11.438-5.563-23.358-9.647-36.186-10.015c-12.148-0.344-24.742,1.383-36.4,4.826C94.06,197.509,94.488,201.125,96.99,201.108
			 M111.187,198.233c0.4-0.07,0.802-0.14,1.203-0.209c-0.008,0.109-0.01,0.217-0.002,0.326
			C111.987,198.311,111.586,198.272,111.187,198.233"/>
		<path fill="#FF808C" d="M72.171,220.481c0.114,0.465,0.394,0.896,0.875,1.197c4.309,2.689,9.193,4.545,13.819,6.612
			c4.623,2.065,9.269,4.188,14.04,5.89c9.18,3.271,18.792,4.773,28.495,5.434c10.328,0.703,20.611,0.486,30.943,0.103
			c5.095-0.19,10.18-0.356,15.237-1.033c3.402-0.454,6.68-0.991,9.423-3.022c0.214,0.035,0.426,0.072,0.641,0.102
			c1.091,0.146,1.145-1.471,0.244-1.802c-7.241-2.659-13.733-7.489-21.303-9.235c-8.073-1.861-16.257-3.467-24.521-4.193
			c-10.125-0.893-19.851-0.1-29.094,3.017c4.862-2.94,10.458-4.974,15.43-7.396c1.645-0.801,1.388-3.844-0.537-4.108
			c-9.805-1.349-19.515-3.384-29.458-3.425c-8.326-0.034-20.55,0.586-24.926,9.117C70.871,218.919,71.347,219.965,72.171,220.481
			 M99.58,222.051c-0.122,0.141-0.237,0.283-0.354,0.428c-0.305-0.125-0.609-0.246-0.916-0.361c0.041-0.014,0.083-0.026,0.125-0.041
			C98.817,222.069,99.198,222.061,99.58,222.051"/>
	</g>
	<path fill="#F93A43" d="M14.171,165.149c3.313,9.619,8.799,18.599,15.522,26.213c3.311,3.746,6.916,7.312,11.033,10.175
		c2.519,1.75,6.797,5.013,10.066,4.78c0.86,0.062,1.264-0.608,1.225-1.28c0-0.015-0.005-0.029-0.004-0.046
		c1.403-1.135,1.956-3.225,2.773-4.789c1.151-2.206,2.368-4.399,3.761-6.467c2.556-3.795,5.515-7.287,8.845-10.428
		c3.405-3.212,7.061-6.138,10.866-8.861c6.564-3.75,13.487-6.801,19.886-10.834c6.004-3.782,9.153-8.807,9.743-15.918
		c0.462-5.563-0.37-11.688,2.244-16.853c2.169-4.286,5.931-7.435,7.785-11.876c0.4-0.959-0.856-1.636-1.61-1.238
		c-0.004,0.003-0.007,0.004-0.011,0.006c-0.155-0.019-0.323-0.006-0.501,0.047c-0.323-0.151-0.718-0.145-1.128,0.139
		c-0.271,0.207-0.553,0.395-0.828,0.591c-0.626,0.268-1.237,0.566-1.858,0.917c-0.244,0.137-0.426,0.362-0.539,0.617
		c-1.551,0.884-3.182,1.623-4.861,2.251c-4.821,1.268-9.693,2.192-14.729,2.56c-1.336,0.098-2.68,0.191-4.025,0.253
		c18.902-12.422,50.354-27.556,40.086-53.601c10.271-2.66,10.957-12.902,11.173-22.245c2.633,4.207,5.116,8.481,7.165,13.08
		c2.759,6.195,5.185,12.654,8.844,18.395c8.904,13.973,18.269,27.717,28.778,40.542c10.434,12.728,21.67,24.792,34.435,35.217
		c11.767,9.609,25.648,16.469,36.729,26.916c1.255,1.182,2.855-0.553,1.843-1.844c-5.734-7.293-11.432-17.06-12.492-26.711
		c7.651,11.666,15.454,23.865,26.595,32.402c10.688,8.19,24.041,15.657,37.712,16.721c1.335,0.104,1.543-1.666,0.625-2.308
		c-5.402-3.778-9.422-9.435-12.638-15.344c10.431,9.655,24.211,18.312,38.38,16.565c1.113-0.137,1.981-1.824,0.655-2.422
		c-10.184-4.592-19.094-11.563-27.003-19.384c-3.975-3.931-7.772-8.039-11.381-12.31c-0.926-1.096-9.517-11.112-9.384-11.293
		c4.642-6.326,10.628-13.455,17.683-17.127c1.369-0.715,4.538-2.418,5.936-0.877c1.278,1.407,1.616,3.438,1.994,5.239
		c0.472,2.245,0.97,4.451,1.976,6.454c3.97,13.211,14.977,23.477,24.012,33.321c10.496,11.437,23.865,21.048,38.163,27.176
		c0.876,0.375,1.706-0.226,1.545-1.188c-0.485-2.898-1.086-7.847,3.088-5.106c2.51,1.646,4.696,3.75,6.821,5.856
		c6.356,6.306,13.245,12.011,19.615,18.287c0.554,0.545,1.28-0.25,0.829-0.83c-0.23-0.295-0.48-0.569-0.719-0.856
		c0.025-0.004,0.049-0.017,0.074-0.021c0.188,0.197,0.383,0.385,0.593,0.549c0.404,0.318,0.91,0.113,0.968-0.4
		c0.323-2.84-2.296-6.359-3.726-8.65c-2.035-3.266-4.222-6.433-6.456-9.563c-3.755-5.258-7.271-10.539-10.68-16.021
		c-2.667-4.289-5.688-9.317-10.521-11.414c-3.994-1.733-7.82,0.265-10.721,3.021c-4.642-2.998-8.357-7.318-11.819-11.566
		c-4.062-4.983-7.726-10.258-11.266-15.619c-3.647-5.523-6.767-11.012-9.131-17.226c-2.237-5.883-4.163-11.998-7.169-17.553
		c-1.524-2.816-4.136-8.809-8.317-7.267c-2.364,0.872-4.283,3.448-6.234,4.916c-3.017,2.269-6.077,4.477-9.173,6.636
		c-9.537,6.654-21.816,13.876-26.171,25.284c-21.043-11.567-30.111-33.423-40.753-53.769c-1.688-3.226-3.752-7.32-7.188-9.002
		c-2.963-1.451-5.517,1.088-6.611,3.668c-1.513,3.562-1.57,7.482-1.11,11.294c-7.102,3.938-14.73,7.73-20.84,13.16
		c1.831-3.973,4.493-7.446,7.21-11.079c1.848-2.471,3.451-4.985,4.913-7.698c0.567-1.052,2.125-2.698,1.784-4.054
		c-0.967-3.84-5.404-7.139-8.413-9.338c-6.543-4.781-12.722-9.944-18.882-15.198c-6.009-5.122-12.55-10.095-17.944-15.874
		c-5.291-5.667-9.75-11.977-14.429-18.139c-2.124-2.798-4.229-5.662-6.571-8.28c-1.033-1.154-2.046-2.27-3.539-2.785
		c-2.754-0.948-5.221,3.63-6.57,5.86c-4.944-4.467-9.256-9.363-13.739-14.3c-2.448-2.696-5.196-4.722-8.655-2.48
		c-2.184,1.416-3.679,4.193-5.077,6.3c-1.933,2.911-3.81,5.859-5.697,8.8c-3.949,6.157-7.963,12.345-12.854,17.811
		c-9.39,10.494-17.667,21.937-25.258,33.785c-7.714,12.038-14.433,24.239-24.314,34.722c-0.391,0.414-0.388,0.902-0.182,1.285
		c-4.986,3.687-9.109,8.142-13.113,12.958c-3.337,4.013-6.937,7.667-10.484,11.485c-3.028,3.258-6.516,6.99-7.819,11.359
		C11.824,157.386,12.861,161.344,14.171,165.149 M211.013,92.727c0.026-0.137,0.045-0.276,0.053-0.418
		c0.272,0.264,0.537,0.534,0.788,0.816c-0.096-0.024-0.191-0.045-0.291-0.058c-0.045-0.028-0.083-0.06-0.13-0.087
		C211.291,92.899,211.155,92.808,211.013,92.727 M375.532,208.024c0.157,0.037,0.309,0.084,0.469,0.115
		c0.271,0.055,0.562,0.021,0.817-0.082c0.02,0.245,0.045,0.489,0.073,0.729C376.441,208.53,375.988,208.278,375.532,208.024
		 M336.468,177.905c0.668,0.584,1.363,1.135,2.077,1.668c-0.092,0.053-0.175,0.121-0.239,0.207
		C337.696,179.159,337.082,178.54,336.468,177.905 M330.257,142.628c0.356,0.676,0.728,1.345,1.117,2.004
		c-0.053,0.017-0.105,0.032-0.154,0.06C330.901,144.002,330.581,143.315,330.257,142.628 M325.57,132.404
		c0.251,0.405,0.486,0.819,0.732,1.227c0.561,1.447,1.134,2.888,1.741,4.313C327.186,136.112,326.351,134.27,325.57,132.404
		 M319.005,193.893c0.056-0.063,0.102-0.137,0.142-0.213c0.706,0.52,1.419,1.027,2.139,1.525
		C320.523,194.776,319.764,194.334,319.005,193.893 M201.848,113.974c0.183-0.581,0.396-1.162,0.632-1.74
		c0.193-0.033,0.387-0.09,0.578-0.183C202.639,112.684,202.238,113.325,201.848,113.974 M182.269,68.592
		c2.672,2.284,5.366,4.543,8.027,6.825C187.521,73.259,184.824,71.006,182.269,68.592 M170.228,99.074
		c1.834,2.434,3.672,4.874,5.4,7.381C173.8,104.017,171.993,101.561,170.228,99.074 M128.904,68.282
		c1.009-0.651,1.955-1.322,2.781-1.926c0.422-0.308,0.813-0.638,1.18-0.985C131.857,66.579,130.564,67.573,128.904,68.282
		 M107.986,94.705c0.145-0.251,0.287-0.502,0.431-0.753c0,0.002-0.002,0.004-0.002,0.005c-0.042,0.256-0.031,0.508,0,0.755
		C108.271,94.707,108.128,94.705,107.986,94.705 M95.669,49.918c0.464-0.546,0.927-1.095,1.387-1.645
		c-0.398,0.579-0.798,1.158-1.195,1.736C95.798,49.977,95.734,49.948,95.669,49.918 M84.529,119.929
		c0.373-0.363,0.742-0.731,1.105-1.105c0.065,0.07,0.135,0.136,0.208,0.198C85.406,119.331,84.968,119.63,84.529,119.929
		 M82.298,66.534c-0.637,0.968-1.25,1.948-1.844,2.941c-0.099,0.008-0.198,0.025-0.302,0.048
		C80.865,68.525,81.572,67.522,82.298,66.534 M79.478,131.296c0.711,0.046,1.416,0.058,2.079,0.071
		c-0.61,0.158-1.22,0.309-1.829,0.456C79.664,131.639,79.58,131.464,79.478,131.296 M26.361,146.635
		c-0.271,0.295-0.459,0.605-0.576,0.922c-0.426,0.215-0.836,0.46-1.236,0.723c2.224-2.873,4.826-5.528,7.521-8.041
		C30.174,142.399,28.281,144.547,26.361,146.635"/>
	<g>
		<path fill="#CE2A2C" d="M2.894,162.696c0.248,0.826,1.09,1.43,1.955,0.768c6.813-5.201,11.492-12.525,17.502-18.545
			c6.234-6.248,12.391-12.593,19.191-18.219c-0.535,1.498-0.992,3.018-1.258,4.61c-0.196,1.19,1.276,2.431,2.244,1.306
			c4.042-4.697,8.813-8.753,12.271-13.876c10.674-9.137,20.864-19.005,33.473-25.14c2.383-0.894,4.73-1.875,7.025-2.939
			c1.227-0.57,0.354-2.61-0.918-2.178c-2.658,0.905-5.203,1.98-7.656,3.189c-2.638,0.961-5.318,1.801-8.004,2.512
			c-1.854,0.491-13.414,3.685-12.125-1.211c2.303-8.765,12.168-14.671,19.674-18.425c8.543-4.273,17.529-7.711,25.08-13.694
			c0.08-0.063,0.162-0.123,0.24-0.186c1.124-0.903-0.306-2.412-1.443-1.872c-0.073,0.035-0.146,0.072-0.221,0.107
			c-0.218-0.204-0.521-0.308-0.843-0.194c-4.591,1.628-8.845,4.163-13.431,5.844c-2.597,0.951-5.396,2.01-8.183,2.177
			c-0.457,0.027-0.979,0.066-1.5,0.05c-0.229-0.53-0.218-1.106-0.035-1.702c3.196-2.642,6.91-4.824,10.074-6.74
			c4.539-2.751,9.064-5.521,13.914-7.693c5.229-2.342,10.598-4.58,15.504-7.559c2.34-1.42,6.603-3.67,6.424-6.953
			c-0.037-0.685-0.533-1.214-1.232-1.232c-5.917-0.16-11.49,2.754-17.385,2.085c0.654-6.746,2.918-13.806,6.541-19.562
			c7.021,6.401,12.814,14.007,19.842,20.41c0.596,0.542,1.685,0.53,2.081-0.268c1.583-3.167,2.563-6.595,4.741-9.404
			c5.656,4.937,8.229,12.15,12.656,18.078c5.258,7.037,11.194,13.484,17.226,19.858c10.745,11.358,25.696,17.813,35.018,30.644
			c-2.287,3.041-4.095,6.424-5.675,9.884c-0.438,0.956,0.527,2.299,1.584,1.584c4.533-3.064,8.596-9.615,13.997-11.362
			c1.123,15.752,6.648,30.534,19.403,40.576c0.912,0.718,2.547-0.225,1.754-1.353c-4.602-6.548-8.406-13.927-11.134-21.443
			c-2.452-6.755-5.411-16.092-1.704-22.93c4.624,3.628,6.495,10.477,8.99,15.514c3.739,7.543,8.306,14.802,13,21.781
			c8.056,11.977,17.705,24.557,32.089,29.045c0.607,0.189,1.073-0.441,0.991-0.956c0.082-0.261,0.046-0.55-0.203-0.771
			c-1.008-0.894-1.988-1.812-2.96-2.74c6.855-7.681,13.228-16.771,22.135-22.206c3.567-2.177,8.087-3.385,11.355-5.919
			c2.584-2.003,4.739-5.363,7.896-6.489c9.792,27.313,23.896,57.557,49.522,73.197c0.782,0.479,1.697-0.303,1.489-1.146
			c-0.423-1.715-1.626-7.508,1.903-7.348c2.748,0.126,5.19,1.69,6.924,3.756c2.813,3.354,4.609,7.312,6.877,11.019
			c6.168,10.084,12.637,20.061,19.688,29.555c0.021,0.027,0.044,0.049,0.064,0.072c0.127,0.219,0.258,0.435,0.383,0.653
			c0.473,0.821,1.708,0.093,1.268-0.739c-0.059-0.107-0.118-0.211-0.178-0.32c0.015-0.148-0.024-0.313-0.14-0.482
			c-0.225-0.332-0.449-0.662-0.673-0.994c-5.1-9.279-11.166-18.002-16.534-27.127c-5.616-9.547-10.46-19.578-17.104-28.482
			c-0.364-0.489-0.941-0.592-1.421-0.184c-2.373,2.026-4.541,4.219-6.451,6.676c-0.853-2.322-2.736-4.412-4.188-6.295
			c-2.156-2.797-4.51-5.463-6.476-8.402c-4.142-6.19-7.835-12.746-11.406-19.278c-3.646-6.668-7.324-13.428-10.376-20.393
			c-1.958-4.466-3.082-10.842-6.753-14.285c-0.042-0.039-0.085-0.07-0.129-0.1c-0.216-0.298-0.606-0.467-0.959-0.214
			c-3.725,2.669-7.394,5.181-11.629,6.979c-0.323,0.137-0.55,0.59-0.531,0.925c0.162,3.21-5.778,5.346-8.106,6.434
			c-2.901,1.357-6,2.557-8.605,4.452c-4.021,2.921-7.443,7.327-10.749,11.009c-3.6,4.004-7.135,8.065-10.701,12.098
			c-8.699-9.03-16.097-19.371-23.056-29.759c-9.032-13.483-16.036-28.205-25.282-41.552c-0.379-0.547-1.104-0.834-1.716-0.45
			c-4.78,2.997-9.032,7.099-12.428,11.721c-3.19-2.809-6.794-4.956-10.275-7.381c-3.822-2.664-7.432-5.633-10.853-8.795
			c-6.302-5.825-12.356-11.969-18.296-18.161c-6.18-6.44-12.16-13.09-17.628-20.151c-4.477-5.783-7.951-12.91-13.458-17.792
			c-0.646-0.571-1.471-0.419-1.96,0.253c-1.608,2.208-3.29,4.361-4.923,6.552C130.349,19,126.275,9.915,120.646,2.62
			c-0.59-0.767-1.653-0.883-2.225,0C82.935,57.465,49.845,114.823,2.408,160.518C1.607,161.293,2.103,162.352,2.894,162.696
			 M383.411,185.481c0.06-0.08,0.109-0.166,0.149-0.258c0.206,0.363,0.415,0.727,0.622,1.092
			C383.938,186.034,383.678,185.756,383.411,185.481 M360.901,177.284c0.074-0.006,0.146-0.002,0.222-0.012
			c0.373,0.438,0.753,0.864,1.116,1.311C361.781,178.161,361.344,177.719,360.901,177.284 M324.855,117.536
			c0.266,0.615,0.53,1.23,0.797,1.846c-0.027,0.058-0.047,0.12-0.062,0.187C325.346,118.89,325.093,118.21,324.855,117.536
			 M292.687,137.336c0.572-0.649,1.152-1.287,1.749-1.907c0.016,0.048,0.03,0.096,0.053,0.142
			C293.878,136.15,293.278,136.735,292.687,137.336 M268.174,142.44c0.531,0.672,1.069,1.34,1.611,2.008
			c-0.521-0.521-1.043-1.041-1.563-1.563C268.239,142.745,268.223,142.596,268.174,142.44 M200.713,82.031
			c0.554,0.405,1.105,0.81,1.673,1.194c-0.301-0.134-0.595-0.294-0.887-0.459C201.237,82.523,200.974,82.277,200.713,82.031
			 M102.515,42.122c0.448-0.977,0.914-1.947,1.373-2.918c-0.007,0.12,0.002,0.234,0.03,0.335
			C103.452,40.401,102.988,41.263,102.515,42.122"/>
		<path fill="#CE2A2C" d="M30.76,197.504c7.753,8.156,16.552,15.203,25.421,22.09c11.59,8.999,23.422,17.322,37.145,22.799
			c15.976,6.371,32.971,8.674,50.11,8.285c21.58-0.49,43.712-3.82,64.408-9.99c19.686-5.871,38.866-14.115,59.198-17.602
			c10.511-1.803,21.426-2.422,31.958-0.403c9.823,1.884,19.285,5.606,28.064,10.369c14.836,8.048,28.628,19.44,37.927,33.721
			c0.656,1.139,1.362,2.253,2.052,3.359c0.021,0.036,0.048,0.064,0.074,0.096c0.573,0.989,1.131,1.987,1.66,2.999
			c0.109,0.209,0.318,0.205,0.464,0.1c0.035,0.119,0.078,0.232,0.114,0.352c0.332,1.098,2.04,0.635,1.721-0.475
			c-4.454-15.444-14.849-29.138-27.175-39.239c-10.508-8.61-23.063-15.524-36.661-17.118c13.011-4.663,26.242-7.748,40.273-6.775
			c11.275,0.781,25.313,3.086,32.476,12.863c0.146,0.2,0.346,0.274,0.539,0.272c0.343,0.211,0.831,0.207,1.021-0.222
			c2.162-4.91-9.792-9.414-12.623-10.701c-7.321-3.332-14.878-6.258-22.537-8.719c-13.407-4.311-28.696-4.199-42.5-2.313
			c-15.909,2.177-31.303,6.854-46.474,11.988c-20.532,6.947-40.839,14.25-62.178,18.396c-22.401,4.354-46.323,7.532-68.975,3.29
			c-20.642-3.866-41.779-11.121-59.986-21.664c-1.055-0.61-2.097-1.237-3.131-1.873c-2.481-1.819-5.02-3.555-7.688-5.083
			c-4.896-3.443-9.604-7.142-14.223-11.019c-7.229-6.073-15.268-12.687-18.515-21.867c-0.063-0.179-0.161-0.312-0.276-0.422
			c-0.057-0.39-0.129-0.777-0.215-1.162c-0.007-0.073-0.016-0.147-0.021-0.224c0.001-0.067,0.002-0.137,0.002-0.207
			c0.003-0.25-0.088-0.437-0.218-0.575c-0.067-0.267-0.135-0.532-0.204-0.804c-0.197-0.772-1.132-0.795-1.546-0.266
			c-0.324-0.061-0.661,0.046-0.834,0.432c-0.031,0.071-0.049,0.146-0.076,0.218l-0.014-0.005c-0.014,0.052-0.027,0.104-0.041,0.156
			c-0.105,0.299-0.187,0.599-0.237,0.9c-0.123,0.464-0.243,0.941-0.33,1.422c-0.013,0.043-0.035,0.072-0.044,0.121
			C16.966,182.323,24.85,191.288,30.76,197.504 M359.62,257.241c0.224,0.201,0.443,0.404,0.669,0.604
			c0.715,0.824,1.396,1.678,2.038,2.557c0.049,0.226,0.104,0.447,0.162,0.668C361.571,259.765,360.613,258.487,359.62,257.241
			 M349.115,241.934c1.121,1.113,2.227,2.245,3.3,3.413c-0.123-0.077-0.248-0.125-0.372-0.146c-0.978-1.045-1.941-2.104-2.904-3.162
			C349.136,242.004,349.123,241.969,349.115,241.934 M346.332,243.833c0.049-0.037,0.098-0.078,0.142-0.123
			c0.769,0.666,1.504,1.375,2.218,2.107C347.921,245.14,347.124,244.489,346.332,243.833 M334.941,230.213
			c0.574,0.385,1.145,0.771,1.707,1.171c-0.05,0.046-0.093,0.099-0.135,0.153c-0.184-0.129-0.366-0.258-0.547-0.389
			c-0.084-0.117-0.198-0.225-0.351-0.313c-0.026-0.017-0.053-0.032-0.078-0.05C335.338,230.597,335.142,230.405,334.941,230.213
			 M221.916,228.518c0.682-0.257,1.362-0.514,2.047-0.77c0.272-0.057,0.549-0.112,0.823-0.168c-0.008,0.021-0.018,0.045-0.022,0.066
			c-0.896,0.32-1.792,0.639-2.69,0.949C222.023,228.567,221.972,228.54,221.916,228.518 M118.459,235.649
			c0.568,0.131,1.14,0.258,1.712,0.383c-0.084-0.008-0.169-0.016-0.253-0.022c-0.212-0.021-0.387,0.015-0.535,0.08
			C119.076,235.934,118.768,235.792,118.459,235.649 M99.251,241.79c0.034-0.033,0.063-0.071,0.091-0.108
			c0.896,0.33,1.796,0.647,2.704,0.942c0.011,0.025,0.021,0.054,0.035,0.08C101.135,242.413,100.193,242.106,99.251,241.79
			 M87.607,236.206c1.643,0.73,3.252,1.527,4.834,2.379C90.777,237.958,89.16,237.134,87.607,236.206 M33.13,191.599
			c-0.063,0.005-0.125,0.017-0.188,0.03c-0.106-0.094-0.219-0.186-0.328-0.277c-0.178-0.26-0.354-0.521-0.545-0.77
			C32.419,190.924,32.773,191.263,33.13,191.599"/>
	</g>
</g>
</svg>
