<?xml version="1.0" encoding="utf-8"?>
<!-- Generator: Adobe Illustrator 16.0.0, SVG Export Plug-In . SVG Version: 6.00 Build 0)  -->
<!DOCTYPE svg PUBLIC "-//W3C//DTD SVG 1.1//EN" "http://www.w3.org/Graphics/SVG/1.1/DTD/svg11.dtd">
<svg version="1.1" id="Layer_1" xmlns="http://www.w3.org/2000/svg" xmlns:xlink="http://www.w3.org/1999/xlink" x="0px" y="0px"
	 width="540px" height="540px" viewBox="0 0 540 540" enable-background="new 0 0 540 540" xml:space="preserve">
<g>
	<polygon fill="#FF00FF" points="479.75,225.67 317.026,103.637 145.844,229.91 132.277,229.91 132.277,219.749 314.492,80.751 
		488.221,210.422 	"/>
	<path fill="#CF66FF" d="M495,215.507v16.952c0,0-61.855,106.774-337.312,112.72l34.758-27.119
		C192.451,318.059,443.307,320.601,495,215.507z"/>
	<path fill="#CF66FF" d="M494.895,251.952v19.162c0,0-71.025,120.738-387.212,127.445l39.872-30.66
		C147.553,367.898,435.559,370.76,494.895,251.952z"/>
	<path fill="#CF66FF" d="M494.545,287.525v22.461c0,0-82.473,141.412-449.545,149.262l46.295-35.922
		C91.295,423.326,425.639,426.693,494.545,287.525z"/>
	<g>
		<rect x="297.951" y="146.709" fill="#F56B97" width="16.953" height="16.952"/>
		<rect x="321.549" y="146.709" fill="#F56B97" width="16.934" height="16.952"/>
		<rect x="297.951" y="168.492" fill="#F56B97" width="16.953" height="16.934"/>
		<rect x="321.549" y="168.492" fill="#F56B97" width="16.934" height="16.934"/>
	</g>
</g>
</svg>
