<?xml version="1.0" encoding="utf-8"?>
<!-- Generator: Adobe Illustrator 16.0.0, SVG Export Plug-In . SVG Version: 6.00 Build 0)  -->
<!DOCTYPE svg PUBLIC "-//W3C//DTD SVG 1.1//EN" "http://www.w3.org/Graphics/SVG/1.1/DTD/svg11.dtd">
<svg version="1.1" id="Layer_1" xmlns="http://www.w3.org/2000/svg" xmlns:xlink="http://www.w3.org/1999/xlink" x="0px" y="0px"
	 width="540px" height="540px" viewBox="0 0 540 540" enable-background="new 0 0 540 540" xml:space="preserve">
<g>
	<path fill="#CD4FA0" d="M221.567,435.606c-0.95,0.771-1.886,1.733-2.723,2.968c-0.635,0.966-1.222,2.048-1.707,3.235
		c-0.51,1.134-0.797,2.627-1.036,3.679l-0.041,0.701l-0.021,0.354l-0.012,0.173c-0.015-0.024,0.019,0.309-0.032-0.008l-0.12,1.099
		c-0.049,0.734-0.069,1.494-0.004,2.238c0.09,1.519,0.323,3.086,0.912,4.613c1.07,3.097,3.329,6.147,6.738,8.692
		c0.081,0.059,0.172,0.117,0.256,0.175l-0.819-27.143C222.479,436.14,222.017,435.884,221.567,435.606z"/>
	<path fill="#CD4FA0" d="M203.362,460.341c-3.33-4.238-5.527-9.093-6.648-13.292c-0.566-2.616-0.772-4.693-0.879-6.992
		c-0.074-2.239,0.082-4.438,0.443-6.565c1.288-8.52,6.392-16.543,12.852-22.174c4.145-3.612,8.469-5.897,12.848-7.249l-0.944-31.38
		l-2.615-0.892l-1.841-0.61l-1.886-0.746l-3.415-1.353c-2.362-1.137-5.002-2.237-7.194-3.548l-3.423-1.92l-3.278-2.134
		c-8.586-5.846-15.99-13.409-20.85-22.158c-2.439-4.351-4.535-8.912-5.855-13.653c-0.797-2.35-1.195-4.753-1.74-7.164
		c-0.326-2.412-0.777-4.851-0.877-7.285c-0.761-9.779,0.504-19.657,3.314-29.224c2.762-9.592,7.059-18.87,12.586-27.621
		c5.47-8.782,12.034-17.109,19.527-24.812c3.735-3.857,7.716-7.551,11.835-11.129c0.347-0.305,0.687-0.596,1.034-0.896
		l-3.725-123.622l-77.497-10.901l7.653,387.114L224.717,495l-0.632-20.981c-2.512-0.764-4.924-1.722-7.177-2.865
		C211.369,468.446,206.729,464.626,203.362,460.341z"/>
	<path fill="#CD4FA0" d="M213.409,305.721c-0.553-6.792,0.609-14.832,4.915-23.041l-0.839-27.86
		c-3.485,3.588-6.781,7.271-9.807,11.082c-10.953,13.876-18.906,29.398-20.367,45.323c-0.274,1.992-0.177,3.957-0.258,5.945
		c0.152,1.953,0.13,3.957,0.481,5.886c0.471,3.911,1.476,7.749,3,11.421c1.452,3.711,3.565,7.181,5.998,10.475
		c2.39,3.333,5.441,6.3,8.772,9.012c3.31,2.772,7.187,5.013,10.947,7.02l3.309,1.523l1.181,0.538l-1.224-40.61
		C216.448,318.348,214.032,312.646,213.409,305.721z"/>
	<path fill="#CDDC35" d="M270.927,345.774c-3.103-15.052-6.276-30.637-9.187-46.711c-1.385-7.457-2.692-15.024-3.927-22.68
		c-0.123,0.039-0.255,0.074-0.375,0.118c-8.836,2.927-15.866,7.6-20.95,12.977c-5.04,5.402-8.199,11.379-9.66,16.872
		c-0.361,1.294-0.624,2.547-0.814,3.778l0.122,9.439c0.083,0.423,0.168,0.837,0.271,1.233c0.969,3.965,2.898,6.863,4.448,8.669
		c0.763,0.891,1.495,1.567,1.997,1.999c0.486,0.436,0.734,0.659,0.734,0.659s-0.342-0.099-1.02-0.299
		c-0.336-0.098-0.757-0.221-1.263-0.371c-0.486-0.204-1.059-0.446-1.704-0.729c-0.966-0.438-2.112-1.039-3.337-1.836l0.477,36.446
		l2.471,0.81c4.417,1.41,8.936,2.572,13.525,3.302c4.572,0.81,9.199,1.241,13.792,1.364c6.541,0.196,13.013-0.38,19.2-1.609
		c-0.084-0.425-0.16-0.829-0.239-1.255C273.993,360.693,272.475,353.301,270.927,345.774z"/>
	<path fill="#CDDC35" d="M247.336,190.968c-1.351-15.649-2.377-31.546-2.806-47.691c-0.548-18.371-0.418-36.987,2.321-56.1
		c0.76-4.783,1.728-9.595,3.245-14.498c1.226-3.694,2.53-7.439,4.993-11.297l-32.261,4.2l1.892,144.871
		c0.782-0.658,1.564-1.318,2.347-1.987C233.826,202.667,240.683,196.842,247.336,190.968z"/>
	<path fill="#CDDC35" d="M234.493,402.394c11.966,0.188,21.472,8.615,21.472,18.604c0,9.986-9.705,18.079-21.671,18.079
		c-2.307,0-4.518-0.307-6.599-0.87l0.348,26.608l28.53,2.649c4.485-1.371,8.775-3.537,12.555-6.436
		c4.617-3.631,8.403-8.347,10.71-13.759c0.627-1.362,1.04-2.699,1.504-4.076l0.565-2.286c0.163-0.604,0.266-1.456,0.4-2.18
		c0.519-3.011,0.789-6.115,0.908-9.283c0.257-6.325-0.204-12.872-0.886-19.576c-0.716-6.697-1.618-13.561-2.875-20.545
		c-0.674-3.9-1.397-7.858-2.148-11.854c-6.905,1.018-13.968,1.473-21.063,1.284c-9.858-0.248-19.793-1.729-29.381-4.349l0.372,28.46
		C229.656,402.496,232.083,402.357,234.493,402.394z"/>
	<path fill="#CDDC35" d="M285.074,275.532c-4.8-1.277-9.526-1.895-14.129-1.646c-1.158,0.004-2.282,0.182-3.423,0.277
		c-0.056,0.008-0.103,0.017-0.16,0.021c1.024,8.064,2.083,16.031,3.167,23.891c3.422,24.364,7.244,47.682,10.823,69.802
		c8.013-2.179,15.382-5.485,21.579-9.688v-73.786C297.295,280.282,291.142,277.251,285.074,275.532z"/>
	<path fill="#ED1E79" d="M272.637,64.568c0.119-0.011,0.238-0.032,0.176-0.022C272.867,64.498,272.775,64.518,272.637,64.568z"/>
	<path fill="#CDDC35" d="M284.699,388.74c2.082,14.087,4.062,27.657,3.867,40.81c-0.041,3.282-0.226,6.541-0.688,9.766
		c-0.139,0.834-0.185,1.55-0.389,2.472l-0.474,2.299c-0.452,1.619-0.903,3.286-1.535,4.792c-2.354,6.188-6.448,11.718-11.59,16.209
		c-1.521,1.279-3.142,2.451-4.828,3.532l33.872,3.144V370.589c-6.408,2.593-13.192,4.568-20.181,5.931
		C283.409,380.636,284.063,384.716,284.699,388.74z"/>
	<path fill="#CDDC35" d="M298.668,64.927c1.557,1.873,2.952,3.792,4.26,5.731V55.154l-12.792,1.667
		c0.72,0.531,1.408,1.071,2.069,1.62C294.683,60.494,296.782,62.681,298.668,64.927z"/>
	<path fill="#CDDC35" d="M275.057,65.42c-0.663-0.364-1.241-0.56-1.684-0.694c-0.219-0.06-0.404-0.111-0.539-0.119
		c0.104-0.011-0.385-0.023,0.195-0.04l-0.407,0.012c-0.32,0.122-0.999,0.494-1.752,1.289c-2.282,2.321-4.292,6.329-5.77,10.343
		c-1.505,4.083-2.629,8.43-3.562,12.826c-1.863,8.816-2.877,17.886-3.477,26.939c-0.617,9.063-0.872,18.137-0.9,27.175
		c0.036,12.683,0.521,25.274,1.249,37.745c4.235-3.99,8.317-8.007,12.104-12.072c6.22-6.826,11.479-13.787,14.862-21.223
		c1.749-3.711,3.013-7.594,4.008-11.634c0.461-1.995,0.84-4.192,1.183-6.121l0.484-3.518l0.342-3.151
		c0.803-8.664,0.995-17.448-0.142-25.986c-1.175-8.488-3.645-16.968-8.218-23.93C280.789,69.866,277.785,66.783,275.057,65.42z"/>
	<path fill="#CDDC35" d="M245.998,257.383c1.563-0.75,3.204-1.38,4.842-2.082l2.628-0.937c0.354-0.124,0.666-0.242,0.992-0.359
		c-1.271-9.111-2.445-18.333-3.53-27.672c-0.508,0.414-1.012,0.831-1.521,1.243c-4.034,3.168-8.058,6.326-12.075,9.485
		c-3.777,2.912-7.376,5.956-10.846,9.072c-0.438,0.396-0.859,0.808-1.293,1.207l0.327,25.006
		C230.662,266.656,237.567,261.408,245.998,257.383z"/>
	<path fill="#CDDC35" d="M261.197,217.875c1.027,11.351,2.183,22.56,3.438,33.601c1.075-0.187,2.166-0.346,3.273-0.454
		c4.096-0.541,8.344-0.602,12.633-0.438c4.278,0.25,8.58,0.88,12.795,1.864c3.278,0.759,6.48,1.737,9.595,2.908v-81.421
		c-2.282,3.418-4.737,6.701-7.256,9.845C285.206,196.648,273.411,207.581,261.197,217.875z"/>
	<path fill="#A3206A" d="M329.514,50.501l-10.77,213.014c6.356,4.282,11.987,9.456,16.598,15.311
		c2.593,3.182,4.748,6.653,6.642,10.264c1.929,3.595,3.396,7.429,4.465,11.385c1.131,3.946,1.752,8.054,1.819,12.236
		c0.1,2.082-0.033,4.201-0.259,6.307l-0.486,3.465l-0.632,2.607c-0.161,0.776-0.512,1.953-0.839,3.032
		c-0.347,1.067-0.628,2.239-1.052,3.197c-0.775,1.998-1.604,3.974-2.637,5.897c-1.996,3.853-4.42,7.561-7.352,10.973
		c-5.755,6.87-13.159,12.682-21.427,17.325l-3.845,76.01l74.012,2.014L404.866,45L329.514,50.501z"/>
	<path fill="#A3206A" d="M324.609,320.367l-0.021-0.263l-0.044-0.528l-0.085-1.047c-0.18-1.392-0.292-2.772-0.637-4.135
		c-0.569-2.725-1.476-5.382-2.621-7.948c-1.18-2.643-2.619-5.178-4.25-7.585l-2.475,49.028c6.535-7.825,9.926-16.789,10.091-24.906
		l0.085-2.658C324.669,320.138,324.588,320.751,324.609,320.367z"/>
</g>
</svg>
