<?xml version="1.0" encoding="utf-8"?>
<!-- Generator: Adobe Illustrator 15.0.0, SVG Export Plug-In . SVG Version: 6.00 Build 0)  -->
<!DOCTYPE svg PUBLIC "-//W3C//DTD SVG 1.1//EN" "http://www.w3.org/Graphics/SVG/1.1/DTD/svg11.dtd">
<svg version="1.1" id="Layer_1" xmlns="http://www.w3.org/2000/svg" xmlns:xlink="http://www.w3.org/1999/xlink" x="0px" y="0px"
	 width="295.455px" height="288.531px" viewBox="0 0 295.455 288.531" enable-background="new 0 0 295.455 288.531"
	 xml:space="preserve">
<g>
	<path fill="#1393B0" d="M248.443,236.71c-34.934,42.321-93.172,61.749-148.864,44.604C25.892,258.619-15.469,180.457,7.225,106.762
		c2.565-8.307,5.827-16.215,9.714-23.655c-5.422,53.648,17.828,101.568,59.076,114.273c42.592,13.117,75.364-13.563,101.144-43.088
		c13.431-15.377,35.286-22.795,55.888-15.902C282.108,154.802,274.03,205.693,248.443,236.71z"/>
	<path fill="#45BFDD" d="M46.676,242.865c47.559,14.65,101.606-21.865,125.075-82.547c-24.92,26.973-56.071,49.276-95.735,37.063
		C34.768,184.676,11.518,136.756,16.94,83.108c-3.887,7.439-7.147,15.348-9.714,23.655c-14.425,46.84-2.971,95.486,26.221,130.553
		C37.624,239.574,42.037,241.443,46.676,242.865z"/>
	<path fill="#1393B0" d="M47.017,51.82C81.942,9.499,140.179-9.929,195.868,7.218c73.694,22.695,115.058,100.858,92.36,174.552
		c-2.559,8.307-5.818,16.215-9.715,23.653c5.422-53.647-17.82-101.576-59.076-114.273c-42.592-13.117-75.354,13.565-101.143,43.089
		c-13.43,15.376-35.287,22.794-55.887,15.901C13.344,133.727,21.423,82.837,47.017,51.82z"/>
	<path fill="#45BFDD" d="M248.783,45.667c-47.563-14.652-101.61,21.864-125.08,82.547c24.92-26.973,56.063-49.278,95.734-37.063
		c41.256,12.698,64.498,60.625,59.076,114.274c3.896-7.438,7.156-15.35,9.715-23.653c14.424-46.842,2.971-95.496-26.221-130.555
		C257.831,48.956,253.418,47.088,248.783,45.667z"/>
</g>
</svg>
