<?xml version="1.0" encoding="utf-8"?>
<!-- Generator: Adobe Illustrator 16.0.0, SVG Export Plug-In . SVG Version: 6.00 Build 0)  -->
<!DOCTYPE svg PUBLIC "-//W3C//DTD SVG 1.1//EN" "http://www.w3.org/Graphics/SVG/1.1/DTD/svg11.dtd">
<svg version="1.1" id="Layer_1" xmlns="http://www.w3.org/2000/svg" xmlns:xlink="http://www.w3.org/1999/xlink" x="0px" y="0px"
	 width="540px" height="540px" viewBox="0 0 540 540" enable-background="new 0 0 540 540" xml:space="preserve">
<g>
	<path fill="#CDCC2D" d="M391.02,335.961c0-87.834-71.203-159.041-159.036-159.041c-87.84,0-159.042,71.207-159.042,159.041
		C72.942,423.795,144.144,495,231.984,495C319.817,495.002,391.02,423.795,391.02,335.961z"/>
	<g>
		<path fill="#FFFFFF" d="M96.674,457.877c0,0-52.088-101.911,85.75-183.787C320.265,192.218,447.585,109.855,399.039,45
			c0,0,94.934,73.422-6.536,169.88C291.037,311.345,74.9,317.971,96.674,457.877z"/>
		<path fill="#FFFFFF" d="M98.814,460.846c0,0-12.806-95.156,119.073-121.512c131.881-26.361,255.574-56.035,235.24-120.886
			c0,0,54.646,84.554-52.522,132.589C293.439,399.078,120.58,344.076,98.814,460.846z"/>
		<path fill="#FFFFFF" d="M103.114,460.793c0,0,12.747-69.244,110.677-57.568c97.923,11.672,190.9,19.176,191.5-30.656
			c0,0,18.823,71.385-66.815,80.451C252.837,462.078,144.885,384.365,103.114,460.793z"/>
	</g>
	<g>
		<path fill="#F5EE2C" d="M96.674,472.613c0,0-52.088-101.91,85.75-183.785c137.84-81.873,265.16-164.235,216.613-229.09
			c0,0,94.934,73.422-6.535,169.88C291.037,326.08,74.9,332.707,96.674,472.613z"/>
		<path fill="#F5EE2C" d="M98.814,475.58c0,0-12.806-95.152,119.073-121.512c131.881-26.363,255.575-56.035,235.241-120.887
			c0,0,54.646,84.555-52.522,132.592C293.439,413.818,120.58,358.814,98.814,475.58z"/>
		<path fill="#F5EE2C" d="M103.114,475.527c0,0,12.747-69.244,110.677-57.563c97.923,11.668,190.9,19.172,191.5-30.662
			c0,0,18.823,71.383-66.815,80.453C252.837,476.818,144.885,399.105,103.114,475.527z"/>
	</g>
</g>
</svg>
