<?xml version="1.0" encoding="utf-8"?>
<!-- Generator: Adobe Illustrator 15.0.0, SVG Export Plug-In . SVG Version: 6.00 Build 0)  -->
<!DOCTYPE svg PUBLIC "-//W3C//DTD SVG 1.1//EN" "http://www.w3.org/Graphics/SVG/1.1/DTD/svg11.dtd">
<svg version="1.1" id="Layer_1" xmlns="http://www.w3.org/2000/svg" xmlns:xlink="http://www.w3.org/1999/xlink" x="0px" y="0px"
	 width="412.409px" height="275.104px" viewBox="0 0 412.409 275.104" enable-background="new 0 0 412.409 275.104"
	 xml:space="preserve">
<g>
	<g>
		<path fill="#9DD0EA" d="M243.724,156.359c3.729,21.75,20.511,40.938,37.563,53.883c0.195,0.148,0.389,0.248,0.58,0.326
			c0.303,1.021,1.15,1.859,2.565,1.881c5.806,0.088,11.495-1.094,17.229-1.809c6.111-0.762,12.227-1.521,18.365-2.029
			c12.22-1.011,24.592-1.082,36.546,2.021c12.159,3.156,22.495,9.303,33.623,14.893c3.583,1.801,7.09,3.784,10.804,5.311
			c2.55,1.047,5.184,2.484,8.014,2.006c0.438-0.074,0.724-0.307,0.883-0.604c2.354-0.336,2.992-4.298,0.207-5.289
			c-0.931-0.33-1.851-0.677-2.767-1.031c-3.979-3.154-8.136-6.12-11.888-9.621c-4.212-3.93-8.204-8.073-12.481-11.932
			c-1.093-0.985-3.139-0.697-3.482,0.92c-0.271,1.267-0.597,2.515-0.853,3.775c-6.762-1.72-12.908-5.467-18.501-9.555
			c-6.513-4.762-12.564-10.209-18.051-16.123c-11.931-12.863-21.482-26.564-27.646-43.089c-0.84-2.252-4.242-1.993-4.291,0.581
			c-0.208,10.822,7.332,21.662,12.415,30.76c4.188,7.498,8.553,16.064,14.313,23.007c-3.195-1.051-6.509-2.094-9.683-3.34
			c-1.844-1.021-3.622-2.125-5.308-3.203c-5.3-3.39-10.092-7.312-15.025-11.183c-1.788-1.401-4.104,0.289-3.126,2.412
			c0.531,1.152,1.128,2.264,1.78,3.34c0.004,0.436,0.163,0.855,0.549,1.16c0.13,0.104,0.264,0.203,0.395,0.307
			c4.716,6.984,11.837,12.378,19.155,16.949c-9.282-1.869-18.77-6.506-24.008-13.543c-1.668-2.242-4.996-0.375-3.771,2.201
			c1.921,4.029,4.382,7.929,7.527,11.125c-4.441-0.703-8.765-2.711-12.612-4.813c-5.399-2.947-10.594-6.318-15.738-9.691
			c-12.113-7.938-23.428-18.183-29.278-31.691C246.67,152.225,243.335,154.103,243.724,156.359 M331.743,178.201
			c-0.093,0.045-0.181,0.099-0.265,0.158c-0.305-0.531-0.605-1.062-0.904-1.592C330.959,177.248,331.354,177.724,331.743,178.201
			 M356.019,202.74c0.113-0.082,0.214-0.181,0.283-0.299c0.348,0.26,0.688,0.53,1.037,0.786
			C356.897,203.07,356.456,202.906,356.019,202.74 M333.215,200.303c0.796,0.363,1.594,0.707,2.391,1.049
			c-0.074,0.055-0.146,0.112-0.212,0.176C334.666,201.119,333.939,200.715,333.215,200.303 M268.678,192.226
			c-0.278-0.304-0.545-0.618-0.818-0.924c0.046-0.075,0.085-0.153,0.114-0.237c0.267,0.358,0.529,0.719,0.784,1.082
			C268.732,192.174,268.701,192.197,268.678,192.226"/>
		<path fill="#9DD0EA" d="M108.99,58c1.672,5.832,4.399,11.525,9.008,15.637c3.686,3.289,9.131,6.628,14.222,4.521
			c2.223-0.92,4.897-3.04,7.384-2.855c3.005,0.223,4.654,3.671,5.972,5.981c3.494,6.136,8.047,11.651,12.262,17.301
			c9.199,12.332,18.791,24.435,29.511,35.493c5.36,5.53,10.958,10.759,16.921,15.635c2.677,2.188,5.438,4.557,8.503,6.19
			c0.327,0.174,0.665,0.338,1.009,0.497c0.071,0.056,0.143,0.11,0.213,0.164c2.895,2.179,7.341,6.261,11.324,5.609
			c1.396-0.229,1.17-2.088,0.086-2.55c0.042-2.004-2.859-3.992-4.179-4.979c-0.758-0.566-1.542-1.123-2.338-1.674
			c-5.478-6.297-13.104-10.902-19.179-16.464c-9.285-8.5-16.496-18.476-23.549-28.83c-7.148-10.495-13.902-21.257-20.549-32.074
			c-2.879-4.685-5.545-9.491-7.494-14.64c-0.725-1.906-1.402-3.927-2.426-5.7c-0.861-1.496-1.853-2.634-2.419-4.297
			c-0.52-1.524-3.245-1.94-3.516,0c-0.922,6.621-3.719,16.246-11.074,18.354c-9.565,2.742-12.949-5.785-16.715-12.577
			C111.066,55.124,108.483,56.229,108.99,58 M196.67,137.939c2.244,2.029,4.589,3.953,6.955,5.854
			c-0.115,0.016-0.229,0.041-0.34,0.078C201.045,141.932,198.83,139.966,196.67,137.939 M188.011,129.275
			c0.183,0.122,0.368,0.241,0.553,0.36c1.084,1.237,2.186,2.46,3.325,3.65c-0.623-0.628-1.255-1.242-1.869-1.88
			C189.344,130.703,188.68,129.986,188.011,129.275 M150.639,74.746c-0.617-0.946-1.246-1.885-1.87-2.827
			c0.004-0.007,0.007-0.014,0.01-0.021c0.063-0.073,0.111-0.158,0.146-0.249c0.627,1.141,1.27,2.275,1.94,3.388
			C150.791,74.938,150.715,74.843,150.639,74.746"/>
		<path fill="#9DD0EA" d="M133.731,139.556c5.311,10.212,16.932,12.858,26.157,18.353c-1.986,3.541-2.602,7.515-2.336,11.625
			c0.145,2.238,2.998,2.525,3.775,0.513c6.12-15.858,28.363,8.543,33.954,14.274c6.938,7.113,14.278,14.598,22.814,19.771
			c3.229,1.957,6.733,3.512,10.121,5.171c1.731,0.85,3.474,1.686,5.199,2.551c0.78,0.395,2.915,2.044,1.936,0.748
			c1.46,1.934,4.699,0.153,3.499-1.8c0.176-0.443,0.079-0.979-0.475-1.306c-17.078-10.08-32.115-22.971-44.107-38.801
			c-11.474-15.147-20.46-31.93-28.734-48.985c-0.777-1.601-3.144-0.736-3.184,0.862c-0.273,10.787,1.345,22.729,5.873,32.907
			c-10.454-6.211-22.799-9.31-31.46-18.223C135.188,135.592,132.742,137.65,133.731,139.556 M203.631,186.926
			c0.093-0.021,0.179-0.059,0.258-0.11c2.502,2.579,5.09,5.071,7.79,7.443C208.899,191.904,206.242,189.441,203.631,186.926
			 M184.007,162.361c0.12-0.008,0.237-0.027,0.352-0.058c0.309,0.46,0.607,0.926,0.918,1.384
			C184.858,163.24,184.429,162.805,184.007,162.361"/>
		<path fill="#9DD0EA" d="M52.477,207.299c11.719-0.278,21.875-4.9,30.784-12.369c5.024-4.213,9.638-8.811,15.483-11.922
			c5.227-2.78,10.789-4.521,16.524-5.907c1.84-0.444,1.698-2.884,0.262-3.56c-0.114-0.168-0.278-0.305-0.506-0.367
			c-12.196-3.402-25.774,0.406-36.712,6.105c-11.189,5.834-21.184,14.147-27.43,25.243
			C50.213,205.715,51.051,207.334,52.477,207.299 M59.729,197.922c1.1-1.336,2.262-2.633,3.49-3.873
			C62.043,195.33,60.851,196.601,59.729,197.922"/>
		<path fill="#9DD0EA" d="M98.333,201.908c11.982-0.088,24.501,2.232,36.188,4.715c11.64,2.472,23.121,5.593,34.25,9.834
			c10.041,3.826,18.022,10.9,27.744,15.275c9.398,4.23,18.15,2.397,27.331-1.334c2.34-0.951,1.525-4.64-0.813-4.109
			c-0.193-0.028-0.405-0.008-0.628,0.09c-8.204,3.582-18.679-3.702-25.271-7.887c-8.779-5.57-17.413-11.127-26.797-15.688
			c-11.439-5.563-23.359-9.647-36.187-10.015c-12.147-0.344-24.741,1.383-36.399,4.826C95.402,198.31,95.831,201.926,98.333,201.908
			 M112.529,199.033c0.4-0.07,0.803-0.14,1.203-0.209c-0.008,0.109-0.01,0.217-0.002,0.326
			C113.329,199.111,112.929,199.072,112.529,199.033"/>
		<path fill="#9DD0EA" d="M73.514,221.281c0.115,0.465,0.395,0.896,0.875,1.197c4.31,2.689,9.194,4.545,13.82,6.612
			c4.623,2.065,9.268,4.188,14.04,5.89c9.179,3.271,18.792,4.773,28.495,5.434c10.327,0.703,20.61,0.486,30.942,0.103
			c5.096-0.19,10.181-0.356,15.238-1.033c3.402-0.454,6.679-0.991,9.422-3.022c0.214,0.035,0.426,0.072,0.641,0.102
			c1.092,0.146,1.146-1.471,0.244-1.802c-7.24-2.659-13.732-7.489-21.303-9.235c-8.073-1.861-16.256-3.467-24.521-4.193
			c-10.125-0.893-19.852-0.1-29.095,3.017c4.862-2.94,10.458-4.974,15.431-7.396c1.644-0.801,1.388-3.844-0.537-4.108
			c-9.806-1.349-19.516-3.384-29.458-3.425c-8.326-0.034-20.55,0.586-24.926,9.117C72.215,219.72,72.689,220.766,73.514,221.281
			 M100.924,222.852c-0.123,0.141-0.238,0.283-0.355,0.428c-0.305-0.125-0.608-0.246-0.916-0.361
			c0.041-0.014,0.083-0.026,0.125-0.041C100.159,222.869,100.541,222.861,100.924,222.852"/>
	</g>
	<path fill="#46BDD6" d="M15.514,165.949c3.313,9.619,8.799,18.599,15.523,26.213c3.31,3.746,6.916,7.312,11.032,10.175
		c2.52,1.75,6.798,5.013,10.066,4.78c0.861,0.062,1.264-0.608,1.225-1.28c0-0.015-0.005-0.029-0.004-0.046
		c1.403-1.135,1.956-3.225,2.774-4.789c1.151-2.206,2.368-4.399,3.76-6.467c2.556-3.795,5.515-7.287,8.845-10.428
		c3.405-3.212,7.062-6.138,10.866-8.861c6.565-3.75,13.488-6.801,19.886-10.834c6.005-3.782,9.153-8.807,9.743-15.918
		c0.462-5.563-0.37-11.688,2.244-16.853c2.169-4.286,5.931-7.435,7.785-11.876c0.401-0.959-0.856-1.636-1.61-1.238
		c-0.004,0.003-0.007,0.004-0.011,0.006c-0.155-0.019-0.323-0.006-0.501,0.047c-0.323-0.151-0.717-0.145-1.128,0.139
		c-0.271,0.207-0.552,0.395-0.828,0.591c-0.626,0.268-1.237,0.566-1.857,0.917c-0.244,0.137-0.427,0.362-0.539,0.617
		c-1.552,0.884-3.183,1.623-4.861,2.251c-4.822,1.268-9.694,2.192-14.729,2.56c-1.336,0.098-2.68,0.191-4.024,0.253
		c18.901-12.422,50.354-27.556,40.086-53.601c10.271-2.66,10.957-12.902,11.172-22.245c2.633,4.207,5.117,8.481,7.165,13.08
		c2.759,6.195,5.185,12.654,8.844,18.395c8.905,13.973,18.27,27.717,28.779,40.542c10.433,12.728,21.669,24.792,34.434,35.217
		c11.768,9.609,25.649,16.469,36.73,26.916c1.255,1.182,2.854-0.553,1.843-1.844c-5.735-7.293-11.433-17.06-12.493-26.711
		c7.652,11.666,15.455,23.865,26.595,32.402c10.688,8.19,24.041,15.657,37.712,16.721c1.335,0.104,1.543-1.666,0.625-2.308
		c-5.401-3.778-9.422-9.435-12.638-15.344c10.431,9.655,24.211,18.312,38.38,16.565c1.114-0.137,1.982-1.824,0.656-2.422
		c-10.185-4.592-19.094-11.563-27.003-19.384c-3.976-3.931-7.773-8.039-11.381-12.31c-0.927-1.096-9.518-11.112-9.385-11.293
		c4.643-6.326,10.629-13.455,17.684-17.127c1.369-0.715,4.538-2.418,5.935-0.877c1.278,1.407,1.616,3.438,1.994,5.239
		c0.472,2.245,0.97,4.451,1.977,6.454c3.97,13.211,14.976,23.477,24.012,33.321c10.496,11.437,23.865,21.048,38.163,27.176
		c0.876,0.375,1.706-0.226,1.545-1.188c-0.486-2.898-1.086-7.847,3.087-5.106c2.51,1.646,4.697,3.75,6.822,5.856
		c6.355,6.306,13.245,12.011,19.614,18.287c0.555,0.545,1.28-0.25,0.829-0.83c-0.229-0.295-0.479-0.569-0.719-0.856
		c0.026-0.004,0.049-0.017,0.075-0.021c0.187,0.197,0.382,0.385,0.592,0.549c0.405,0.318,0.91,0.113,0.968-0.4
		c0.323-2.84-2.296-6.359-3.725-8.65c-2.036-3.266-4.222-6.433-6.457-9.563c-3.754-5.258-7.271-10.539-10.679-16.021
		c-2.667-4.289-5.689-9.317-10.521-11.414c-3.994-1.733-7.82,0.265-10.72,3.021c-4.642-2.998-8.358-7.318-11.82-11.566
		c-4.061-4.983-7.725-10.258-11.265-15.619c-3.648-5.523-6.768-11.012-9.131-17.226c-2.238-5.883-4.163-11.998-7.169-17.553
		c-1.525-2.816-4.137-8.809-8.318-7.267c-2.364,0.872-4.283,3.448-6.234,4.916c-3.017,2.269-6.076,4.477-9.173,6.636
		c-9.537,6.654-21.815,13.876-26.171,25.284c-21.043-11.567-30.111-33.423-40.753-53.769c-1.688-3.226-3.752-7.32-7.187-9.002
		c-2.963-1.451-5.518,1.088-6.612,3.668c-1.512,3.562-1.57,7.482-1.11,11.294c-7.102,3.938-14.73,7.73-20.84,13.16
		c1.831-3.973,4.493-7.446,7.21-11.079c1.849-2.471,3.451-4.985,4.913-7.698c0.568-1.052,2.125-2.698,1.784-4.054
		c-0.966-3.84-5.404-7.139-8.413-9.338c-6.543-4.781-12.721-9.944-18.882-15.198c-6.008-5.122-12.549-10.095-17.944-15.874
		c-5.291-5.667-9.75-11.977-14.429-18.139c-2.124-2.798-4.228-5.662-6.571-8.28c-1.032-1.154-2.046-2.27-3.539-2.785
		c-2.754-0.948-5.221,3.63-6.569,5.86c-4.945-4.467-9.256-9.363-13.74-14.3c-2.448-2.696-5.196-4.722-8.655-2.48
		c-2.183,1.416-3.679,4.193-5.077,6.3c-1.933,2.911-3.81,5.859-5.696,8.8c-3.949,6.157-7.963,12.345-12.854,17.811
		c-9.389,10.494-17.667,21.937-25.258,33.785c-7.713,12.038-14.432,24.239-24.314,34.722c-0.391,0.414-0.388,0.902-0.182,1.285
		c-4.986,3.687-9.109,8.142-13.113,12.958c-3.337,4.013-6.936,7.667-10.483,11.485c-3.029,3.258-6.517,6.99-7.82,11.359
		C13.168,158.187,14.203,162.145,15.514,165.949 M212.355,93.527c0.027-0.137,0.045-0.276,0.054-0.418
		c0.271,0.264,0.536,0.534,0.787,0.816c-0.096-0.024-0.19-0.045-0.291-0.058c-0.045-0.028-0.083-0.06-0.13-0.087
		C212.634,93.7,212.497,93.608,212.355,93.527 M376.876,208.824c0.156,0.037,0.309,0.084,0.469,0.115
		c0.271,0.055,0.561,0.021,0.816-0.082c0.021,0.245,0.045,0.489,0.073,0.729C377.782,209.33,377.329,209.078,376.876,208.824
		 M337.811,178.705c0.668,0.584,1.364,1.135,2.078,1.668c-0.092,0.053-0.175,0.121-0.24,0.207
		C339.037,179.959,338.426,179.34,337.811,178.705 M331.601,143.429c0.355,0.676,0.727,1.345,1.117,2.004
		c-0.054,0.017-0.106,0.032-0.155,0.06C332.242,144.803,331.925,144.115,331.601,143.429 M326.911,133.205
		c0.251,0.405,0.486,0.819,0.732,1.227c0.561,1.447,1.134,2.888,1.742,4.313C328.528,136.913,327.693,135.07,326.911,133.205
		 M320.349,194.693c0.055-0.063,0.101-0.137,0.141-0.213c0.706,0.52,1.419,1.027,2.14,1.525
		C321.865,195.576,321.106,195.135,320.349,194.693 M203.19,114.774c0.184-0.581,0.396-1.162,0.632-1.74
		c0.193-0.033,0.388-0.09,0.578-0.183C203.981,113.484,203.58,114.125,203.19,114.774 M183.611,69.393
		c2.673,2.284,5.366,4.543,8.027,6.825C188.863,74.06,186.168,71.807,183.611,69.393 M171.57,99.875
		c1.834,2.434,3.673,4.874,5.4,7.381C175.143,104.817,173.337,102.361,171.57,99.875 M130.246,69.083
		c1.009-0.651,1.955-1.322,2.78-1.926c0.423-0.308,0.813-0.638,1.181-0.985C133.199,67.379,131.906,68.374,130.246,69.083
		 M109.328,95.505c0.144-0.251,0.287-0.502,0.43-0.753c0,0.002-0.001,0.004-0.001,0.005c-0.042,0.256-0.032,0.508,0,0.755
		C109.613,95.507,109.471,95.505,109.328,95.505 M97.012,50.719c0.464-0.546,0.927-1.095,1.387-1.645
		c-0.397,0.579-0.798,1.158-1.194,1.736C97.141,50.777,97.076,50.749,97.012,50.719 M85.871,120.729
		c0.373-0.363,0.741-0.731,1.104-1.105c0.066,0.07,0.135,0.136,0.208,0.198C86.75,120.131,86.311,120.431,85.871,120.729
		 M83.641,67.334c-0.636,0.968-1.25,1.948-1.843,2.941c-0.099,0.008-0.199,0.025-0.302,0.048
		C82.209,69.326,82.914,68.323,83.641,67.334 M80.82,132.097c0.711,0.046,1.416,0.058,2.079,0.071
		c-0.609,0.158-1.22,0.309-1.829,0.456C81.008,132.439,80.924,132.265,80.82,132.097 M27.703,147.436
		c-0.271,0.295-0.459,0.605-0.576,0.922c-0.426,0.215-0.836,0.46-1.237,0.723c2.224-2.873,4.826-5.528,7.522-8.041
		C31.517,143.199,29.625,145.348,27.703,147.436"/>
	<g>
		<path fill="#09849E" d="M4.236,163.496c0.248,0.826,1.091,1.43,1.955,0.768c6.813-5.201,11.492-12.525,17.502-18.545
			c6.234-6.248,12.392-12.593,19.191-18.219c-0.535,1.498-0.992,3.018-1.257,4.61c-0.197,1.19,1.275,2.431,2.244,1.306
			c4.042-4.697,8.812-8.753,12.271-13.876c10.674-9.137,20.865-19.005,33.473-25.14c2.384-0.894,4.73-1.875,7.025-2.939
			c1.228-0.57,0.354-2.61-0.918-2.178c-2.658,0.905-5.203,1.98-7.656,3.189c-2.638,0.961-5.317,1.801-8.004,2.512
			c-1.854,0.491-13.414,3.685-12.125-1.211c2.303-8.765,12.168-14.671,19.674-18.425c8.543-4.273,17.529-7.711,25.08-13.694
			c0.08-0.063,0.162-0.123,0.24-0.186c1.124-0.903-0.305-2.412-1.443-1.872c-0.072,0.035-0.146,0.072-0.221,0.107
			c-0.218-0.204-0.521-0.308-0.843-0.194c-4.59,1.628-8.844,4.163-13.43,5.844c-2.598,0.951-5.396,2.01-8.184,2.177
			c-0.457,0.027-0.979,0.066-1.5,0.05c-0.229-0.53-0.218-1.106-0.035-1.702c3.196-2.642,6.91-4.824,10.074-6.74
			c4.539-2.751,9.065-5.521,13.914-7.693c5.229-2.342,10.598-4.58,15.504-7.559c2.34-1.42,6.604-3.67,6.424-6.953
			c-0.037-0.685-0.532-1.214-1.231-1.232c-5.917-0.16-11.491,2.754-17.385,2.085c0.653-6.746,2.918-13.806,6.541-19.562
			c7.021,6.401,12.813,14.007,19.842,20.41c0.595,0.542,1.684,0.53,2.081-0.268c1.583-3.167,2.563-6.595,4.74-9.404
			c5.656,4.937,8.229,12.15,12.656,18.078c5.258,7.037,11.195,13.484,17.227,19.858c10.744,11.358,25.695,17.813,35.017,30.644
			c-2.287,3.041-4.094,6.424-5.674,9.884c-0.438,0.956,0.526,2.299,1.584,1.584c4.533-3.064,8.595-9.615,13.997-11.362
			c1.123,15.752,6.647,30.534,19.402,40.576c0.912,0.718,2.547-0.225,1.755-1.353c-4.603-6.548-8.406-13.927-11.135-21.443
			c-2.451-6.755-5.411-16.092-1.704-22.93c4.624,3.628,6.495,10.477,8.99,15.514c3.739,7.543,8.306,14.802,13,21.781
			c8.056,11.977,17.706,24.557,32.089,29.045c0.608,0.189,1.074-0.441,0.992-0.956c0.082-0.261,0.045-0.55-0.204-0.771
			c-1.007-0.894-1.988-1.812-2.96-2.74c6.856-7.681,13.228-16.771,22.135-22.206c3.568-2.177,8.087-3.385,11.356-5.919
			c2.584-2.003,4.738-5.363,7.895-6.489c9.792,27.313,23.897,57.557,49.523,73.197c0.782,0.479,1.697-0.303,1.489-1.146
			c-0.424-1.715-1.626-7.508,1.902-7.348c2.748,0.126,5.191,1.69,6.924,3.756c2.813,3.354,4.609,7.312,6.877,11.019
			c6.169,10.084,12.638,20.061,19.688,29.555c0.021,0.027,0.044,0.049,0.065,0.072c0.127,0.219,0.258,0.435,0.383,0.653
			c0.472,0.821,1.708,0.093,1.267-0.739c-0.058-0.107-0.118-0.211-0.177-0.32c0.014-0.148-0.025-0.313-0.141-0.482
			c-0.225-0.332-0.448-0.662-0.673-0.994c-5.1-9.279-11.166-18.002-16.533-27.127c-5.616-9.547-10.46-19.578-17.104-28.482
			c-0.364-0.489-0.941-0.592-1.42-0.184c-2.374,2.026-4.542,4.219-6.452,6.676c-0.852-2.322-2.736-4.412-4.188-6.295
			c-2.156-2.797-4.511-5.463-6.477-8.402c-4.141-6.19-7.835-12.746-11.406-19.278c-3.646-6.668-7.323-13.428-10.376-20.393
			c-1.958-4.466-3.082-10.842-6.753-14.285c-0.042-0.039-0.085-0.07-0.129-0.1c-0.216-0.298-0.605-0.467-0.959-0.214
			c-3.724,2.669-7.393,5.181-11.629,6.979c-0.323,0.137-0.549,0.59-0.531,0.925c0.162,3.21-5.777,5.346-8.105,6.434
			c-2.902,1.357-6,2.557-8.606,4.452c-4.021,2.921-7.442,7.327-10.749,11.009c-3.599,4.004-7.135,8.065-10.7,12.098
			c-8.699-9.03-16.098-19.371-23.057-29.759c-9.032-13.483-16.035-28.205-25.281-41.552c-0.379-0.547-1.104-0.834-1.717-0.45
			c-4.779,2.997-9.031,7.099-12.428,11.721c-3.189-2.809-6.794-4.956-10.274-7.381c-3.822-2.664-7.433-5.633-10.854-8.795
			c-6.301-5.825-12.355-11.969-18.296-18.161c-6.179-6.44-12.16-13.09-17.627-20.151c-4.478-5.783-7.952-12.91-13.458-17.792
			c-0.646-0.571-1.471-0.419-1.96,0.253c-1.609,2.208-3.29,4.361-4.923,6.552c-7.643-5.477-11.716-14.563-17.346-21.858
			c-0.59-0.767-1.652-0.883-2.225,0C84.277,58.266,51.187,115.624,3.751,161.318C2.949,162.094,3.445,163.152,4.236,163.496
			 M384.755,186.281c0.059-0.08,0.108-0.166,0.148-0.258c0.206,0.363,0.415,0.727,0.622,1.092
			C385.28,186.834,385.021,186.557,384.755,186.281 M362.242,178.084c0.074-0.006,0.146-0.002,0.223-0.012
			c0.373,0.438,0.753,0.864,1.115,1.311C363.125,178.961,362.687,178.52,362.242,178.084 M326.197,118.336
			c0.267,0.615,0.53,1.23,0.797,1.846c-0.026,0.058-0.047,0.12-0.061,0.187C326.688,119.69,326.436,119.011,326.197,118.336
			 M294.029,138.137c0.572-0.649,1.153-1.287,1.749-1.907c0.017,0.048,0.031,0.096,0.053,0.142
			C295.222,136.951,294.619,137.536,294.029,138.137 M269.518,143.24c0.531,0.672,1.069,1.34,1.611,2.008
			c-0.521-0.521-1.043-1.041-1.563-1.563C269.581,143.545,269.565,143.396,269.518,143.24 M202.056,82.832
			c0.554,0.405,1.106,0.81,1.673,1.194c-0.301-0.134-0.595-0.294-0.887-0.459C202.579,83.324,202.316,83.078,202.056,82.832
			 M103.857,42.922c0.448-0.977,0.914-1.947,1.373-2.918c-0.007,0.12,0.002,0.234,0.03,0.335
			C104.796,41.202,104.33,42.063,103.857,42.922"/>
		<path fill="#09849E" d="M32.103,198.305c7.753,8.156,16.552,15.203,25.421,22.09c11.59,8.999,23.422,17.322,37.146,22.799
			c15.975,6.371,32.97,8.674,50.109,8.285c21.58-0.49,43.713-3.82,64.408-9.99c19.687-5.871,38.867-14.115,59.199-17.602
			c10.51-1.803,21.425-2.422,31.958-0.403c9.822,1.884,19.285,5.606,28.063,10.369c14.836,8.048,28.628,19.44,37.928,33.721
			c0.655,1.139,1.361,2.253,2.052,3.359c0.021,0.036,0.048,0.064,0.074,0.096c0.572,0.988,1.131,1.986,1.659,2.999
			c0.109,0.209,0.318,0.205,0.465,0.1c0.034,0.118,0.077,0.232,0.113,0.351c0.332,1.098,2.04,0.635,1.722-0.475
			c-4.454-15.443-14.85-29.138-27.176-39.238c-10.508-8.61-23.063-15.524-36.66-17.118c13.011-4.663,26.241-7.748,40.272-6.775
			c11.276,0.781,25.313,3.086,32.477,12.863c0.146,0.2,0.346,0.274,0.538,0.272c0.344,0.211,0.831,0.207,1.021-0.222
			c2.163-4.91-9.792-9.414-12.623-10.701c-7.321-3.332-14.878-6.258-22.537-8.719c-13.407-4.311-28.696-4.199-42.5-2.313
			c-15.909,2.177-31.302,6.854-46.473,11.988c-20.533,6.947-40.839,14.25-62.178,18.396c-22.402,4.354-46.324,7.532-68.976,3.29
			c-20.642-3.866-41.778-11.121-59.985-21.664c-1.056-0.61-2.098-1.237-3.131-1.873c-2.482-1.819-5.021-3.555-7.688-5.083
			c-4.896-3.443-9.604-7.142-14.222-11.019c-7.23-6.073-15.269-12.687-18.516-21.867c-0.063-0.179-0.16-0.312-0.275-0.422
			c-0.058-0.39-0.129-0.777-0.215-1.162c-0.008-0.073-0.017-0.147-0.021-0.224c0.001-0.067,0.002-0.137,0.002-0.207
			c0.003-0.25-0.088-0.437-0.217-0.575c-0.068-0.267-0.135-0.532-0.205-0.804c-0.197-0.772-1.131-0.795-1.545-0.266
			c-0.325-0.061-0.662,0.046-0.834,0.432c-0.032,0.071-0.049,0.146-0.077,0.218l-0.013-0.005c-0.015,0.052-0.028,0.104-0.041,0.156
			c-0.106,0.299-0.188,0.599-0.238,0.9c-0.123,0.464-0.243,0.941-0.33,1.422c-0.012,0.043-0.035,0.072-0.044,0.121
			C18.309,183.123,26.192,192.088,32.103,198.305 M360.964,258.041c0.223,0.201,0.442,0.404,0.669,0.604
			c0.715,0.824,1.396,1.678,2.038,2.557c0.049,0.226,0.103,0.447,0.161,0.668C362.912,260.565,361.955,259.287,360.964,258.041
			 M350.457,242.734c1.121,1.113,2.228,2.245,3.301,3.413c-0.123-0.077-0.248-0.125-0.372-0.146
			c-0.979-1.045-1.942-2.104-2.905-3.162C350.479,242.805,350.467,242.77,350.457,242.734 M347.676,244.633
			c0.049-0.037,0.097-0.078,0.141-0.123c0.77,0.666,1.504,1.375,2.218,2.107C349.265,245.94,348.468,245.289,347.676,244.633
			 M336.282,231.014c0.574,0.385,1.146,0.771,1.707,1.171c-0.05,0.046-0.093,0.099-0.135,0.153
			c-0.183-0.129-0.366-0.258-0.546-0.389c-0.084-0.117-0.199-0.225-0.352-0.313c-0.025-0.017-0.053-0.032-0.077-0.05
			C336.682,231.397,336.484,231.205,336.282,231.014 M223.259,229.318c0.682-0.257,1.363-0.514,2.047-0.77
			c0.273-0.057,0.549-0.112,0.824-0.168c-0.008,0.021-0.019,0.045-0.023,0.066c-0.896,0.32-1.792,0.639-2.689,0.949
			C223.365,229.367,223.314,229.34,223.259,229.318 M119.802,236.449c0.569,0.131,1.14,0.258,1.712,0.383
			c-0.084-0.008-0.169-0.016-0.253-0.022c-0.211-0.021-0.386,0.015-0.535,0.08C120.42,236.734,120.11,236.592,119.802,236.449
			 M100.594,242.59c0.035-0.033,0.063-0.071,0.091-0.108c0.896,0.33,1.796,0.647,2.704,0.942c0.011,0.025,0.021,0.054,0.036,0.08
			C102.478,243.213,101.535,242.906,100.594,242.59 M88.949,237.006c1.642,0.73,3.252,1.527,4.834,2.379
			C92.119,238.758,90.504,237.935,88.949,237.006 M34.473,192.399c-0.063,0.005-0.125,0.017-0.188,0.03
			c-0.107-0.094-0.22-0.186-0.328-0.277c-0.179-0.26-0.354-0.521-0.545-0.77C33.762,191.725,34.115,192.063,34.473,192.399"/>
	</g>
</g>
</svg>
