<?xml version="1.0" encoding="utf-8"?>
<!-- Generator: Adobe Illustrator 16.0.0, SVG Export Plug-In . SVG Version: 6.00 Build 0)  -->
<!DOCTYPE svg PUBLIC "-//W3C//DTD SVG 1.1//EN" "http://www.w3.org/Graphics/SVG/1.1/DTD/svg11.dtd">
<svg version="1.1" id="Layer_1" xmlns="http://www.w3.org/2000/svg" xmlns:xlink="http://www.w3.org/1999/xlink" x="0px" y="0px"
	 width="540px" height="540px" viewBox="0 0 540 540" enable-background="new 0 0 540 540" xml:space="preserve">
<g>
	<g>
		<g>
			<path fill="#CD772B" d="M468.764,132.42l-19.443,62.535l-310.817-4.104l19.552-62.863L468.764,132.42"/>
		</g>
		<g>
			<path fill="#CD772B" d="M495,233.975l-24.25,77.982l-425.75-6.497l24.063-77.382L495,233.975"/>
		</g>
		<g>
			<path fill="#CD772B" d="M401.778,349.262l-19.527,62.796l-311.338-4.494l18.673-68.254l311.333,4.52"/>
		</g>
	</g>
	<g>
		<g>
			<path fill="#FFA22B" d="M399.645,48.764l67.254,77.524l-76.998-1.073l-32.156-35.572l33.012-6.277l0.979-0.186l0.225-0.978
				L399.645,48.764"/>
		</g>
		<g>
			<path fill="#FFA22B" d="M477.651,228.042l-234.166-3.406l-88.087-27.376l234.28,3.443L477.651,228.042"/>
		</g>
		<g>
			<path fill="#FFA22B" d="M384.141,342.578l-233.922-3.07l-88.226-27.431l234.976,3.394L384.141,342.578"/>
		</g>
		<g>
			<path fill="#FFA22B" d="M149.949,414.958l32.146,35.514l-33.042,6.364l-0.985,0.183l-0.221,0.979l-7.637,33.238l-67.197-77.433
				L149.949,414.958"/>
		</g>
	</g>
</g>
</svg>
