<?xml version="1.0" encoding="utf-8"?>
<!-- Generator: Adobe Illustrator 15.0.0, SVG Export Plug-In . SVG Version: 6.00 Build 0)  -->
<!DOCTYPE svg PUBLIC "-//W3C//DTD SVG 1.1//EN" "http://www.w3.org/Graphics/SVG/1.1/DTD/svg11.dtd">
<svg version="1.1" id="Layer_1" xmlns="http://www.w3.org/2000/svg" xmlns:xlink="http://www.w3.org/1999/xlink" x="0px" y="0px"
	 width="314.275px" height="333.214px" viewBox="0 0 314.275 333.214" enable-background="new 0 0 314.275 333.214"
	 xml:space="preserve">
<g>
	<path fill="#E89B68" d="M97.385,111.441c7.319,10.455,11.082,25.018,9.672,41.737c-1.207,17.001-7.646,33.343-17.177,46.251
		c11.503-10.777,26.177-17.672,42.323-18.615c16.664-0.951,32.046,4.652,44.169,14.887c-9.703-12.742-15.018-28.877-14.143-46.396
		c1.021-17.235,8.043-33.231,18.787-45.899c-12.807,10.517-28.614,17.602-44.865,18.932
		C120.379,123.791,106.966,119.484,97.385,111.441z"/>
	<g>
		<path fill="#D26C35" d="M92.968,107.478c-1.055-1.496-2.246-2.75-3.246-4.225c-8.718-7.258-20.108-10.2-32.764-7.637
			c-26.52,6.225-50.925,38.051-56.376,71.636c-4.101,35.575,13.832,63.19,42.146,61.536c13.41-0.674,26.532-7.323,37.442-18.014
			c1.388-2.008,2.791-3.723,4.355-5.646c-10.192-12.406-15.575-29.305-13.942-48.313C72.589,138.037,80.874,120.814,92.968,107.478z
			"/>
		<path fill="#D26C35" d="M187.208,97.891c12.068,11.827,19.264,29.173,18.375,49.277c-0.787,20.55-9.67,39.704-23.453,54.026
			c1.701,1.668,3.238,3.59,4.754,5.471c12.709,10.513,29.291,16.859,47.775,16.611c43.537-0.408,79.375-35.881,79.615-78.369
			c0.24-40.738-33.641-71.627-75.061-70.188c-17.637,0.938-33.881,7.498-47.023,17.885C190.648,94.41,188.863,96.264,187.208,97.891
			z"/>
	</g>
	<g>
		<path fill="#ECBF9B" d="M93.553,106.83c12.481-13.088,28.887-22.239,46.674-24.473c18.324-1.951,34.617,3.922,46.382,15.135
			c1.854-1.758,3.775-3.433,5.582-4.887c10.842-12.33,17.945-27.306,19.229-42.702c3.102-33.323-23.549-54.438-58.27-49.071
			C120.917,7.304,90.296,36.07,83.464,66.691c-2.633,14.129-0.172,26.797,6.258,36.563C91.108,104.287,92.335,105.555,93.553,106.83
			z"/>
		<path fill="#ECBF9B" d="M181.618,201.676c-13.658,14.106-31.818,23.033-51.123,23.646c-18.65,0.578-34.633-7.153-45.563-19.539
			c-1.512,1.668-3.104,3.336-4.765,4.99c-9.077,12.998-14.639,29.133-15.045,46.658c-0.056,40.818,28.456,74.521,65.343,75.77
			c39.365,0.801,72.468-33.818,72.517-77.555c0.199-18.828-5.898-35.857-16.102-48.98
			C185.017,205.142,183.253,203.482,181.618,201.676z"/>
	</g>
</g>
</svg>
