<?xml version="1.0" encoding="utf-8"?>
<!-- Generator: Adobe Illustrator 16.0.0, SVG Export Plug-In . SVG Version: 6.00 Build 0)  -->
<!DOCTYPE svg PUBLIC "-//W3C//DTD SVG 1.1//EN" "http://www.w3.org/Graphics/SVG/1.1/DTD/svg11.dtd">
<svg version="1.1" id="Layer_1" xmlns="http://www.w3.org/2000/svg" xmlns:xlink="http://www.w3.org/1999/xlink" x="0px" y="0px"
	 width="540px" height="540px" viewBox="0 0 540 540" enable-background="new 0 0 540 540" xml:space="preserve">
<g>
	<path fill="#7F7F7F" d="M495,431.699L366.537,311.964l-30.188,28.139l-9.272,40.216L495,431.699L495,431.699z M309.465,213.116
		L270,42l-14.263,124.109L270,225.19L309.465,213.116z"/>
	<path fill="#4C4C4C" d="M270,42v183.19l-39.464-12.074l39.463-171.124L270,42L270,42z M173.465,311.964L45,431.699l167.927-51.385
		l-9.272-40.212L173.465,311.964z"/>
	<polygon fill="#57BC44" points="270,498.008 309.933,324.852 439.925,203.694 270,255.689 252.884,329.938 	"/>
	<polygon fill="#118B40" points="270,255.689 100.078,203.694 230.067,324.852 270,498.008 	"/>
</g>
</svg>
