<?xml version="1.0" encoding="utf-8"?>
<!-- Generator: Adobe Illustrator 16.0.0, SVG Export Plug-In . SVG Version: 6.00 Build 0)  -->
<!DOCTYPE svg PUBLIC "-//W3C//DTD SVG 1.1//EN" "http://www.w3.org/Graphics/SVG/1.1/DTD/svg11.dtd">
<svg version="1.1" id="Layer_1" xmlns="http://www.w3.org/2000/svg" xmlns:xlink="http://www.w3.org/1999/xlink" x="0px" y="0px"
	 width="540px" height="540px" viewBox="0 0 540 540" enable-background="new 0 0 540 540" xml:space="preserve">
<g>
	<polygon fill="#00ADEE" points="74.322,54.229 83.378,72.596 103.631,75.541 88.98,89.833 92.433,110.01 74.322,100.483 
		56.197,110.01 59.653,89.833 45,75.541 65.25,72.596 	"/>
	<polygon fill="#00ADEE" points="465.687,54.229 474.745,72.596 495,75.541 480.343,89.833 483.801,110.01 465.687,100.483 
		447.561,110.01 451.022,89.833 436.363,75.541 456.613,72.596 	"/>
	<g>
		<polygon fill="#EC1C24" points="262.876,127.33 485.272,127.33 381.048,368.253 166.488,350.161 		"/>
		<polygon fill="#E6E7E8" points="461.526,117.213 476.094,117.213 362.604,380.152 348.04,380.152 		"/>
		<polygon fill="#E6E7E8" points="431.483,117.213 446.049,117.213 332.566,380.152 318.005,380.152 		"/>
		<polygon fill="#E6E7E8" points="401.445,117.213 416.011,117.213 302.526,380.152 287.962,380.152 		"/>
		<polygon fill="#E6E7E8" points="371.405,117.213 385.973,117.213 272.488,380.152 257.925,380.152 		"/>
		<polygon fill="#E6E7E8" points="341.369,117.213 355.935,117.213 242.449,380.152 227.885,380.152 		"/>
		<polygon fill="#E6E7E8" points="311.332,117.213 325.896,117.213 212.41,380.152 197.838,380.152 		"/>
		<polygon fill="#E6E7E8" points="281.294,117.213 295.852,117.213 182.372,380.152 167.807,380.152 		"/>
	</g>
	<g>
		<polygon fill="#00ADEE" points="285.635,127.33 63.241,127.33 167.468,368.253 374.795,331.987 		"/>
		<polygon fill="#E6E7E8" points="86.99,117.213 72.424,117.213 185.911,380.152 200.474,380.152 		"/>
		<polygon fill="#E6E7E8" points="117.028,117.213 102.458,117.213 215.946,380.152 230.512,380.152 		"/>
		<polygon fill="#E6E7E8" points="147.068,117.213 132.499,117.213 245.986,380.152 260.55,380.152 		"/>
		<polygon fill="#E6E7E8" points="177.106,117.213 162.54,117.213 276.025,380.152 290.589,380.152 		"/>
		<polygon fill="#E6E7E8" points="207.148,117.213 192.58,117.213 306.063,380.152 320.629,380.152 		"/>
		<polygon fill="#E6E7E8" points="237.182,117.213 222.622,117.213 336.102,380.152 350.672,380.152 		"/>
		<polygon fill="#E6E7E8" points="267.226,117.213 252.66,117.213 366.143,380.152 380.708,380.152 		"/>
	</g>
	<circle fill="#E6E7E8" cx="273.014" cy="368.254" r="117.518"/>
	<path fill="#005AA9" d="M179.553,408.285c-16.083-35.674-10.04-90.037,35.685-121.435c19.836-13.628,41.881-19.968,65.63-20.376
		c13.054-0.226,25.24,4.089,36.668,10.263c19.484,10.494,34.942,25.356,45.245,44.896c22.988,43.63,13.044,98.25-30.174,129.039
		c-5.774,4.119-11.879,8.062-18.351,10.886c-24.068,10.455-48.758,11.148-73.534,2.657c-23.563-8.054-41.995-22.796-55.075-44.045
		C183.315,416.392,181.574,412.253,179.553,408.285z M337.972,362.547c-3.653-6.604-8.302-11.057-13.068-15.481
		c-5.504-5.13-11.815-6.488-18.898-4.727c-8.475,2.129-16.888,4.455-25.334,6.707c-2.619,0.712-4.575,2.368-5.285,4.926
		c-2.162,7.711-4.306,15.438-6.043,23.257c-1.016,4.521,0.66,8.542,3.879,11.988c6.74,7.21,14.619,13.015,22.64,18.643
		c3.144,2.207,6.645,2.656,10.435,1.611c4.282-1.179,8.624-2.137,12.975-3.047c4.957-1.032,9.335-2.928,11.722-7.724
		c4.608-9.238,7.751-18.899,7.707-29.355C338.688,366.808,338.172,364.252,337.972,362.547z M256.269,288.497
		c0.039,0.148,0.086,0.306,0.119,0.447c-0.665,0.289-1.347,0.58-2.014,0.867c-3.439,1.463-5.665,3.755-6.083,7.726
		c-0.696,6.61-1.634,13.188-2.493,19.782c-1.169,8.941,2.572,15.428,10.144,19.857c4.258,2.496,8.708,4.678,13.021,7.105
		c2.585,1.443,5.333,2.116,8.195,1.522c4.512-0.937,8.972-2.103,13.443-3.215c6.595-1.657,13.127-3.59,19.779-4.914
		c2.334-0.452,3.441-1.255,3.866-3.392c0.321-1.589,0.846-3.151,0.969-4.757c0.376-5.165,0.449-10.365,0.946-15.512
		c0.643-6.656-2.118-11.527-7.561-14.925c-7.286-4.563-14.669-8.981-22.119-13.268c-3.242-1.873-6.824-3.256-10.696-2.33
		C269.254,285.064,262.768,286.81,256.269,288.497z M279.063,441.646c1.482-1.346,3.721-2.676,4.945-4.63
		c3.897-6.283,6.963-12.986,8.716-20.243c0.894-3.738-0.063-6.637-3.095-8.999c-6.317-4.927-12.672-9.84-18.851-14.932
		c-4.801-3.945-9.72-5.517-16.122-4.079c-5.526,1.235-11.42,0.872-17.146,1.184c-3.555,0.194-6.76,1.284-8.984,4.161
		c-5.567,7.234-10.058,15.123-12.684,23.905c-0.482,1.643-0.518,4.054,0.357,5.346c7.352,10.83,16.974,18.75,30.447,19.9
		c8.43,0.71,16.976,0.082,25.463-0.131C274.242,443.052,276.37,442.238,279.063,441.646z M219.071,288.239
		c-7.631,4.809-14.321,10.022-19.768,16.654c-9.377,11.427-15.137,24.465-17.219,39.137c-0.499,3.524,0.095,5.182,3.56,5.962
		c6.076,1.392,12.281,2.218,18.353,3.605c4.381,1.001,8.024-0.144,11.272-2.896c7.047-5.95,13.966-12.055,21.038-17.96
		c2.71-2.256,4.324-4.942,4.827-8.406c0.432-2.958,1.122-5.897,1.532-8.86c1.01-7.291,2.265-14.576,1.39-22.001
		c-0.177-1.615-0.767-2.571-2.375-2.836c-5.899-0.959-11.796-2.012-17.724-2.819C222.269,287.583,220.47,288.113,219.071,288.239z
		 M223.57,386.981c-2.509-4.801-4.653-8.885-6.791-12.992c-2.573-4.951-5.104-9.935-7.75-14.85
		c-0.375-0.688-1.228-1.381-1.978-1.566c-4.615-1.198-9.255-2.473-13.953-3.306c-11.051-1.974-16.317,1.865-17.102,13.012
		c-0.965,13.529,1.228,26.641,6.671,39.133c1.996,4.59,5.133,8.053,9.923,9.799c3.269,1.184,6.548,2.424,9.915,3.254
		c6.535,1.616,8.529,0.596,11.688-5.405c0.185-0.354,0.367-0.72,0.538-1.093c2.782-5.855,5.519-11.717,8.347-17.564
		C224.558,392.353,224.602,389.326,223.57,386.981z M361.244,349.922c-0.036,0.012-0.397,0.026-0.634,0.191
		c-5.342,3.934-10.696,7.833-15.945,11.868c-0.642,0.496-1.011,1.683-1.064,2.567c-0.62,12.438-3.516,24.348-8.063,35.911
		c-0.439,1.121-0.439,2.841,0.126,3.864c2.839,5.248,6.577,9.811,11.192,13.613c0.552,0.45,1.575,0.886,2.128,0.676
		c5.71-2.157,11.263-4.32,14.071-10.622c4.52-10.158,6.585-20.824,7.699-31.766C371.798,365.994,369.789,356.871,361.244,349.922z
		 M306.913,460.159c1.488-0.838,3.331-1.714,4.973-2.866c0.906-0.642,2.238-2.003,2.041-2.557c-0.384-1.095-1.569-2.233-2.693-2.64
		c-4.112-1.484-8.516-2.26-12.473-4.06c-7.037-3.197-14.2-3.518-21.608-2.119c-0.643,0.111-1.276,0.173-1.925,0.236
		c-10.059,1.073-20.139,2.554-30.223,0.723c-2.956-0.541-4.423,0.081-5.985,2.581c-4.06,6.456-4.094,6.848,2.624,10.61
		c1.341,0.759,2.71,1.586,4.173,1.947c5.414,1.336,10.811,3.011,16.31,3.609C277.32,467.286,292.192,465.521,306.913,460.159z
		 M343.617,302.427c0.132-0.126,0.274-0.239,0.416-0.349c-2.32-2.681-4.371-5.646-6.992-7.973
		c-12.624-11.192-27.36-18.413-43.715-22.253c-3.854-0.903-8.007-0.615-12.022-0.761c-2.063-0.069-2.515,1.135-2.209,3.04
		c0.593,3.799,3.241,5.793,6.212,7.606c5.871,3.598,11.801,7.102,17.563,10.855c11.347,7.407,23.107,13.737,36.717,15.931
		c4.793,0.774,5.949-0.469,4.407-5.206C343.892,303.016,343.742,302.721,343.617,302.427z M351.075,310.016
		c1.161,15.615,7.307,29.111,17.511,40.882C368.274,334.916,360.281,322.209,351.075,310.016z M317.87,454.386
		c17.334-6.252,28.273-19.495,37.771-34.369c-1.322,0.202-2.55,0.545-3.381,1.319c-3.711,3.451-7.682,6.721-10.879,10.631
		c-6.355,7.778-14.094,13.754-22.64,18.796C317.076,451.742,316.693,452.629,317.87,454.386z"/>
</g>
</svg>
