<?xml version="1.0" encoding="utf-8"?>
<!-- Generator: Adobe Illustrator 16.0.0, SVG Export Plug-In . SVG Version: 6.00 Build 0)  -->
<!DOCTYPE svg PUBLIC "-//W3C//DTD SVG 1.1//EN" "http://www.w3.org/Graphics/SVG/1.1/DTD/svg11.dtd">
<svg version="1.1" id="Layer_1" xmlns="http://www.w3.org/2000/svg" xmlns:xlink="http://www.w3.org/1999/xlink" x="0px" y="0px"
	 width="540px" height="540px" viewBox="0 0 540 540" enable-background="new 0 0 540 540" xml:space="preserve">
<g>
	<circle fill="#F57458" cx="108.848" cy="358.267" r="16.288"/>
	<path fill="#ED3232" d="M495,314.891c-143.387-68.671-156.866,40.625-215.429,100.519
		c-22.566-117.308,153.276-264.913-73.64-371.078c37.068,53.485,35.81,110.316,25.415,164.588
		C208.752,157.413,160.91,120.303,45,118.34c153.383,92.796,55.849,249.045,202.359,321.063c-0.031,0.015-0.063,0.029-0.095,0.046
		c0.11,0.021,0.215,0.036,0.325,0.06c0.019,0.011,0.036,0.018,0.048,0.028c-0.145,0.021-0.285,0.054-0.437,0.079
		c16.899,9.334,31.662,14.544,44.917,16.747c2.21,0.638,4.396,1.287,6.677,1.9c-0.272-0.363-0.515-0.736-0.779-1.104
		c73.226,7.528,99.796-78.56,192.968-57.399c-33.104-30.871-59.767-42.723-82.882-43.447
		C428.274,335.479,453.569,318.234,495,314.891z"/>
	<path fill="#F57458" d="M321.073,495.065c-2.033,3.393-55.539-7.196-109.777-39.771c-54.239-32.585-88.672-74.825-86.641-78.212
		c2.035-3.389,43.962,33.223,98.203,65.796C277.096,475.456,323.11,491.676,321.073,495.065z"/>
</g>
</svg>
