<?xml version="1.0" encoding="utf-8"?>
<!-- Generator: Adobe Illustrator 16.0.0, SVG Export Plug-In . SVG Version: 6.00 Build 0)  -->
<!DOCTYPE svg PUBLIC "-//W3C//DTD SVG 1.1//EN" "http://www.w3.org/Graphics/SVG/1.1/DTD/svg11.dtd">
<svg version="1.1" id="Layer_1" xmlns="http://www.w3.org/2000/svg" xmlns:xlink="http://www.w3.org/1999/xlink" x="0px" y="0px"
	 width="540px" height="540px" viewBox="0 0 540 540" enable-background="new 0 0 540 540" xml:space="preserve">
<line fill="none" x1="1130.482" y1="247.688" x2="1130.868" y2="248.407"/>
<polygon fill="#BA7DA7" points="1102.344,248.985 1102.306,249.074 1102.886,249.212 "/>
<polygon fill="#BA7DA7" points="1009.902,245.96 1009.963,246.04 1010.195,246.158 "/>
<polygon fill="#BA7DA7" points="980.135,243.511 980.521,243.573 980.438,243.328 "/>
<line fill="none" x1="1011.448" y1="247.329" x2="1011.648" y2="246.965"/>
<g>
	<polygon fill="#BA7DA7" points="269.805,257.521 270.21,257.54 270.078,257.167 	"/>
	<polygon fill="#BA7DA7" points="269.89,257.298 269.918,257.408 270.124,257.306 	"/>
	<polygon fill="#BA7DA7" points="269.901,257.402 269.965,257.416 270.115,257.289 	"/>
	<polygon fill="#BA7DA7" points="270.21,257.184 269.805,257.339 270.135,257.521 	"/>
	<line fill="none" x1="269.513" y1="257.653" x2="270.5" y2="257.052"/>
	<path fill="#BA7DA7" d="M353.337,120.562c0.063,0.112-0.08,0.106-0.106,0.174l0.611-0.077L353.337,120.562z"/>
	<line fill="none" x1="362.291" y1="96.115" x2="362.683" y2="96.836"/>
	<path fill="#BA7DA7" d="M333.836,136.714l3.281,1.39l0.086,0.255c0.194,0.099,0.41,0.02,0.631,0.041l0.992,0.42l1.335-1.047
		c0.28-0.183,0.518-0.372,0.761-0.6l3.306-2.599l0.432-1.195c0.251-0.657,0.576-1.36,0.84-2.031l0.128,0.418l0.558-0.431
		l-0.034-0.557l0.394,0.18l0.841-2.143l-0.523,0.148l0.48-1.406l0.557,0.283l-0.024-0.428l0.587,0.489
		c-0.809-0.572,0.229-1.4,0.179-1.671l0.087,0.125c0.589-0.581-0.426-0.04-0.241-0.514l1.24-0.1l1.158-2.701l0.155-2.18l0.624-0.353
		c0.485,0.382,1.411,0.021,1.284,0.903c-0.368-0.484,0.127-0.487,0.29-0.691l-0.615,0.057c-0.733,0.104,0.415-1.094-0.523-0.882
		l1.183-2.576l0.643,0.438l0.236-2.09l-0.955-0.208l-0.035-0.57l1.49-0.208c0.637,0.484-0.565,1.074,0.287,1.092l-0.508,1.862
		c0.372,0.866,0.271-0.434,0.828-0.043l0.229-1.81l-0.552-0.371c-0.332-1.016,0.836-0.726,0.948-0.881l0.021,0.428l0.303-1.238
		c0.888,0.208-0.233,0.855,0.173,1.276l0.76-0.129l-0.029-1.222l0.262,0.223l0.025-0.593l-0.939,0.24
		c-0.682-0.619,0.071-0.449,0.181-1.208l-0.531,0.137l-0.189-0.968l1.021-0.185l-0.331,0.446c0.183,0.9,1.065,0.099,1.196,0.717
		l-0.046-1.227l-0.688,0.029c-0.826-1.439,1.15-0.214,1.317-1.198c-0.854-0.143-0.604-1.644-1.757-1.363l0.063-0.797l0.93,0.409
		l0.14-0.324l0.44,0.749l1.461-0.749l-0.483-0.661l0.67-0.182c-0.415,0.39-0.761-0.292-0.774-0.663l0.966-0.54l0.277,0.646
		l0.24-0.499l-0.941-0.892l0.447-0.558l0.128,0.613l0.95-0.552l-0.354-0.33l0.439,0.091l-0.077-0.771l0.292,0.063
		c-0.07-0.342-0.55-0.929,0.137-1.045l-0.636,0.682l-0.304-0.77c0.711,0.312,0.359-0.682,0.518-1.001l0.716-0.28l-0.417-0.318
		c0.977,0.229,0.101-0.713,0.476-1.019l0.837,0.183l-1.202-0.984c0.434-0.637,0.846,0.486,1.388,0.439l-0.063-1.16l-0.704-0.453
		l0.648-0.162l-0.785-0.486l0.229-1.255l-0.518-0.959l-0.992-0.659c0.008-0.068,0.038-0.12,0.043-0.185
		c0.084,0.165,0.179,0.484,0.585,0.373l0.016-0.381c0.907-0.292,0.983,1.463,1.755,1.16l-0.151-0.478l0.822,0.296l-0.025-1.108
		l-0.278,0.213l-0.255-1.45l0.873,0.251l-0.129-0.636l0.249,0.12c0.541-1.712,1.057-3.9,0.31-5.591l1.282-1.521l-0.484-0.303
		l0.637-0.317l-0.078-1.705l0.444-0.063l-0.278-0.697l0.471-0.231l-0.379-0.111c-0.101-0.484-0.123-1.11,0.513-0.97l-0.413-0.18
		l-0.007-2.606l-0.7,0.351l-0.288-0.529l0.677,0.048c0.786-1.11,0.002-2.734,0.087-4.157l-0.415-0.309l0.055-2.998l-1.106-0.472
		c-0.585-0.499,0.734-0.351,1.032-0.928l-0.354-0.921l0.094-0.011l-0.297-1.169l0.064,0.063l0.268-1.093l-0.745-0.98l0.174-0.124
		l-0.415,0.088l0.194-0.724l0.471,0.231c0.239-0.782-0.396-0.127-0.638-0.42c-3.107-2.688-1.156-0.963-1.972-1.821
		c0.985,0.46-1.395-1.354,2.215,1.538c2.207,1.49-2.366-2.142-2.011-1.879l-0.506,0.367l-0.88-0.434l-0.737,0.369l0.684,0.55
		l-0.667-0.06l-0.354,0.271l-0.42-0.624l-1.033,0.36l-0.349-1.146l-0.615,0.45l-0.331-0.373l-1.999,0.789l-0.127-0.394l-0.37,0.229
		c-0.688-1.283-2.482-0.45-3.653-1.09l-0.827,0.399c0.11-0.709-0.688,0.091-0.993-0.361l0.122,0.713
		c-0.719-0.455-1.273,0.995-1.688,0.126l0.373-0.608c-0.542-1.273-4.675,3.488-3.463,2.311l0.808,0.7l-1.146,0.771l-0.18,0.784
		l-0.167-0.408l-0.163,1.595l-1.238,1.655c0.486,0.592-0.622,0.911,0.173,1.27l-0.283,0.002l0.532,1.014l-0.485-0.294l-0.803,0.739
		l0.247,0.502l0.07,0.416l0.062,0.866l-0.554-0.208l-0.303,1.001c-0.054,0.022-0.101,0.071-0.121,0.24l-0.418,0.479l-0.383-0.253
		l0.32,1.114c-0.797,0.903-1.046,2.846-0.999,3.38l-0.084-0.255l-0.11,0.776l-0.59,0.651l0.377,0.071
		c-0.954,0.592-0.302,2.045-1.105,2.88l-0.251-0.556l0.076,2.545l-0.382-0.408l-0.021,1.274c0.378-0.012,0.503,0.546,0.315,0.827
		l-0.1-0.025l-0.159,1.146l-0.314-0.284l-0.976,1.108l0.319,0.438l-0.524,0.332l0.767,1.486l-0.038,0.106l-0.715-0.303l0.327,1.32
		l-0.838,2.252l-0.734-0.521l-0.946,2.146c0.839-0.161,0.297,0.758,0.66,1.116l-0.083,0.207l-0.812,0.376l-0.739,2.402l-0.127-0.074
		l-0.276,2.56l-0.05,0.123l-0.295-0.25l0.063,0.844l-0.074,0.19l-0.163-0.196l-0.387,1.686v0.018l-0.273-0.326l-0.063,1.195
		l-0.18,0.5l-0.332-0.28l-0.019,1.196l-0.021,0.045l-0.433,0.186l-0.045,1.114l-0.146,0.395l-0.606,0.309l-2.264,7.377l-0.383,1.043
		c-0.646,0.057-0.189-0.753-0.716-0.642l-0.126,1.422l-0.104-0.004l-0.414,0.915l0.152,0.033c0.248,0.541-1.065,0.62-0.405,1.116
		l-0.534,0.153l-0.083,1.247l-0.094-0.101c-0.529,0.556,0.209,1.637-0.394,1.7l0.143,1.027l-0.159,0.461l-0.398-0.173
		c-0.458,1.506-0.995,3.541-1.365,4.885l-0.564,1.511l10.262,4.335C332.777,136.354,333.288,136.486,333.836,136.714z
		 M345.074,131.917l-0.956-0.113L345.074,131.917z"/>
	<line fill="none" x1="344.118" y1="131.807" x2="345.074" y2="131.917"/>
	<polygon fill="#BA7DA7" points="352.464,121.179 352.223,121.306 352.409,121.624 	"/>
	<line fill="none" x1="353.683" y1="118.404" x2="353.723" y2="119.686"/>
	<line fill="none" x1="356.201" y1="116.345" x2="355.963" y2="116.049"/>
	<line fill="none" x1="355.943" y1="115.257" x2="355.437" y2="115.586"/>
	<line fill="none" x1="359.122" y1="109.137" x2="358.832" y2="109.729"/>
	<polygon fill="#BA7DA7" points="359.993,106.734 359.736,106.446 359.625,106.694 	"/>
	<polygon fill="#BA7DA7" points="334.018,97.415 333.985,97.504 334.561,97.645 	"/>
	<polygon fill="#BA7DA7" points="209.35,434.597 209.348,434.612 209.731,435.315 	"/>
	<polygon fill="#BA7DA7" points="207.564,401.469 207.593,401.471 207.74,401.352 	"/>
	<polygon fill="#BA7DA7" points="202.365,400.69 202.389,400.793 202.555,400.698 	"/>
	<polygon fill="#BA7DA7" points="202.031,400.679 202.365,400.69 202.247,400.388 	"/>
	<path fill="#BA7DA7" d="M200.401,459.047c0.045,0.119-0.082,0.104-0.117,0.178l0.62-0.077L200.401,459.047z"/>
	<path fill="#BA7DA7" d="M213.34,419.471l-0.004-2.604l-0.718,0.357l-0.292-0.539l0.669,0.051c0.805-1.098,0.001-2.72,0.088-4.146
		l-0.395-0.309l0.025-2.998l-1.081-0.482c-0.581-0.48,0.734-0.33,1.018-0.921l-0.354-0.921l0.091,0.005l-0.278-1.187l0.03,0.049
		l0.263-1.068l-0.719-0.988l0.191-0.119l-0.408,0.076l0.182-0.699l0.48,0.217c0.255-0.774-0.385-0.116-0.638-0.414
		c-3.127-2.655-1.172-0.952-1.976-1.809c1,0.446-1.414-1.343,2.221,1.516c2.222,1.486-2.369-2.113-2.031-1.862l-0.49,0.38
		l-0.881-0.434l-0.759,0.371l0.705,0.543l-0.688-0.063l-0.358,0.275l-0.398-0.637l-1.026,0.366l-0.341-1.161l-0.621,0.455
		l-0.327-0.365l-1.985,0.789l-0.145-0.394L202,401.03c-0.687-1.276-2.468-0.451-3.675-1.106l-0.806,0.41
		c0.129-0.706-0.688,0.088-1-0.367l0.138,0.72c-0.704-0.457-1.25,0.995-1.675,0.129l0.376-0.609
		c-0.563-1.271-4.664,3.521-3.465,2.314l0.81,0.697l-1.149,0.786l-0.153,0.772l-0.161-0.388l-0.189,1.593l-1.238,1.666
		c0.499,0.569-0.612,0.897,0.185,1.248l-0.278,0.021l0.521,0.998l-0.485-0.287l-0.815,0.738l0.269,0.502l0.037,0.416l0.062,0.865
		l-0.546-0.213l-0.307,1.014c-0.032,0.021-0.1,0.064-0.118,0.23l-0.398,0.482l-0.384-0.244l0.303,1.104
		c-0.776,0.891-1.047,2.846-0.988,3.373l-0.074-0.257l-0.11,0.785l-0.61,0.656l0.392,0.062c-0.971,0.596-0.298,2.04-1.128,2.877
		l-0.243-0.555l0.088,2.55l-0.391-0.392l-0.025,1.248c0.396-0.022,0.519,0.556,0.33,0.841l-0.094-0.033l-0.177,1.162l-0.304-0.304
		l-0.976,1.117l0.313,0.44l-0.527,0.33l0.75,1.479l-0.028,0.111l-0.723-0.306l0.339,1.323l-0.847,2.248l-0.732-0.521l-0.941,2.147
		c0.823-0.164,0.282,0.748,0.643,1.107l-0.072,0.205l-0.819,0.383l-0.729,2.404l-0.125-0.074l-0.297,2.559l-0.048,0.125
		l-0.291-0.267l0.077,0.858l-0.075,0.191l-0.178-0.22l-0.388,1.708v0.002l-0.271-0.322l-0.048,1.197l-0.2,0.501l-0.316-0.282
		l-0.03,1.201l-0.02,0.025l-0.434,0.203l-0.044,1.101l-0.145,0.398l-0.606,0.305l-2.265,7.384l-0.389,1.043
		c-0.649,0.063-0.169-0.75-0.715-0.637l-0.125,1.419l-0.098,0.005l-0.416,0.911l0.159,0.026c0.226,0.545-1.082,0.632-0.426,1.107
		l-0.546,0.166l-0.083,1.237l-0.09-0.101c-0.535,0.567,0.217,1.642-0.398,1.705l0.157,1.02l-0.175,0.454l-0.397-0.175
		c-0.439,1.478-0.96,3.438-1.318,4.803l-0.606,1.604l10.271,4.332c0.559,0.314,1.054,0.435,1.614,0.674l3.284,1.381l0.085,0.255
		c0.193,0.104,0.411,0.008,0.629,0.055l0.992,0.408l1.354-1.05c0.254-0.184,0.489-0.364,0.729-0.582l3.306-2.604l0.443-1.214
		c0.241-0.655,0.564-1.356,0.838-2.016l0.112,0.421l0.569-0.436l-0.056-0.557l0.401,0.178l0.84-2.131l-0.52,0.162l0.503-1.404
		l0.536,0.28l0.008-0.437l0.578,0.509c-0.809-0.585,0.229-1.416,0.179-1.679l0.092,0.117c0.591-0.582-0.439-0.027-0.245-0.521
		l1.248-0.089l1.147-2.703l0.148-2.166l0.636-0.365c0.484,0.386,1.385,0.028,1.287,0.911c-0.372-0.482,0.114-0.482,0.28-0.688
		l-0.609,0.065c-0.737,0.093,0.42-1.097-0.525-0.88l1.184-2.581l0.62,0.438l0.266-2.082l-0.951-0.221l-0.041-0.568l1.497-0.204
		c0.636,0.487-0.569,1.065,0.281,1.094l-0.499,1.854c0.37,0.871,0.271-0.43,0.818-0.049l0.231-1.807l-0.56-0.366
		c-0.334-1.017,0.837-0.726,0.95-0.883l0.015,0.427l0.305-1.238c0.873,0.211-0.234,0.871,0.187,1.26l0.742-0.114l-0.03-1.228
		l0.261,0.226l0.025-0.588l-0.94,0.229c-0.669-0.617,0.063-0.447,0.188-1.199l-0.545,0.127l-0.176-0.978l1.02-0.18l-0.34,0.442
		c0.168,0.916,1.071,0.103,1.187,0.722l-0.025-1.231l-0.701,0.032c-0.839-1.45,1.167-0.228,1.325-1.196
		c-0.858-0.139-0.605-1.648-1.75-1.361l0.063-0.801l0.925,0.412l0.146-0.324l0.422,0.744l1.485-0.746l-0.48-0.662l0.669-0.18
		c-0.407,0.387-0.755-0.306-0.774-0.672l0.969-0.54l0.271,0.653l0.244-0.499l-0.938-0.892l0.443-0.558l0.136,0.606l0.949-0.534
		l-0.353-0.339l0.438,0.086l-0.073-0.771l0.297,0.067c-0.083-0.343-0.563-0.921,0.136-1.044l-0.644,0.669l-0.298-0.765
		c0.714,0.307,0.355-0.688,0.519-1.004l0.719-0.279l-0.431-0.303c0.985,0.217,0.125-0.719,0.483-1.039l0.83,0.197l-1.201-0.994
		c0.432-0.633,0.83,0.478,1.38,0.444l-0.063-1.159l-0.723-0.449l0.669-0.164l-0.798-0.489l0.243-1.248l-0.515-0.944l-1-0.67
		c0.002-0.066,0.037-0.129,0.055-0.199c0.078,0.176,0.173,0.492,0.567,0.381l0.02-0.381c0.905-0.283,0.983,1.449,1.75,1.148
		l-0.172-0.479l0.822,0.308l-0.006-1.106l-0.275,0.213l-0.271-1.451l0.871,0.261l-0.134-0.64l0.263,0.125
		c0.527-1.701,1.063-3.898,0.313-5.593l1.266-1.528l-0.495-0.291l0.657-0.319l-0.103-1.698l0.439-0.076l-0.273-0.691l0.467-0.233
		l-0.355-0.122c-0.108-0.468-0.143-1.085,0.496-0.973L213.34,419.471z M191.181,470.292l0.952,0.124L191.181,470.292z"/>
	<path fill="#BA7DA7" d="M184.747,425.149l-0.001-0.281c-0.025,0.012-0.024-0.077-0.088-0.049L184.747,425.149z"/>
	<line fill="none" x1="192.141" y1="470.403" x2="191.181" y2="470.292"/>
	<polygon fill="#BA7DA7" points="199.478,460.112 199.527,459.672 199.287,459.794 	"/>
	<line fill="none" x1="200.738" y1="456.896" x2="200.782" y2="458.177"/>
	<line fill="none" x1="203.27" y1="454.837" x2="203.009" y2="454.539"/>
	<line fill="none" x1="203.002" y1="453.737" x2="202.499" y2="454.075"/>
	<line fill="none" x1="206.176" y1="447.628" x2="205.869" y2="448.218"/>
	<polygon fill="#BA7DA7" points="207.052,445.227 206.781,444.938 206.692,445.184 	"/>
	<polygon fill="#BA7DA7" points="195.977,400.133 196.248,400.282 196.311,400.009 	"/>
	<line fill="none" x1="183.96" y1="423.28" x2="184.366" y2="423.123"/>
	<polygon fill="#BA7DA7" points="181.043,436.012 181.604,436.153 181.064,435.923 	"/>
	<path fill="#BA7DA7" d="M381.745,174.212l2.469,2.589l-0.026,0.277c0.146,0.173,0.381,0.18,0.548,0.295l0.738,0.783l1.646-0.402
		c0.312-0.077,0.609-0.134,0.948-0.243l4.076-1.034l0.86-0.923c0.484-0.506,1.061-1.014,1.593-1.505l-0.07,0.43l0.688-0.179
		l0.179-0.521l0.298,0.32l1.649-1.604l-0.568-0.082l1.043-1.095l0.372,0.483l0.179-0.396l0.346,0.69
		c-0.535-0.857,0.75-1.198,0.814-1.464l0.024,0.146c0.774-0.287-0.365-0.208,0.012-0.564l1.159,0.426l2.166-2.011l0.99-1.929
		l0.737-0.082l0.788,1.36l0.586-0.52l-0.613-0.2c-0.723-0.208,0.82-0.832-0.122-1.014l2.122-1.862l0.395,0.644l1.077-1.818
		l-0.789-0.579l0.197-0.534l1.444,0.412c0.383,0.719-0.948,0.755-0.179,1.113c0.179,0.674-0.737,1.587-1.194,1.508
		c-0.025,0.937,0.404-0.293,0.748,0.282l0.939-1.563l-0.358-0.571c0.108-1.051,1.056-0.308,1.217-0.43l-0.146,0.405l0.79-1.009
		c0.714,0.561-0.58,0.688-0.345,1.229l0.721,0.192l0.483-1.139l0.142,0.315l0.235-0.535l-0.942-0.157
		c-0.358-0.84,0.242-0.389,0.681-1.023l-0.543-0.097l0.21-0.969l1.013,0.256l-0.485,0.271c-0.198,0.888,0.95,0.52,0.802,1.126
		l0.484-1.129c-0.288,0.594-0.391-0.21-0.67-0.258c-0.178-1.659,1.146,0.269,1.697-0.564c-0.738-0.482,0.121-1.751-1.05-1.95
		l0.393-0.701l0.657,0.738l0.278-0.229l0.092,0.868l1.654-0.109l-0.188-0.799l0.688,0.103c-0.543,0.197-0.574-0.577-0.438-0.903
		l1.105-0.104l-0.025,0.689l0.433-0.352l-0.511-1.214l0.64-0.313l-0.135,0.612l1.095-0.125l-0.175-0.451l0.364,0.262l0.235-0.726
		l0.241,0.17c0.077-0.333-0.127-1.062,0.563-0.898l-0.889,0.367l0.057-0.825c0.523,0.555,0.604-0.481,0.885-0.714l0.77,0.028
		l-0.269-0.445c0.818,0.585,0.383-0.619,0.852-0.738l0.676,0.502l-0.703-1.395c0.65-0.408,0.589,0.781,1.102,0.959l0.408-1.086
		l-0.465-0.689l0.651,0.11l-0.495-0.763l0.702-1.041l-0.08-1.1l-0.642-1.002c0.031-0.058,0.084-0.098,0.132-0.148
		c-0.005,0.178-0.058,0.508,0.374,0.578l0.145-0.352c0.976,0.105,0.331,1.737,1.146,1.771l0.063-0.5l0.619,0.597l0.443-1.001
		l-0.361,0.055l0.355-1.415l0.717,0.59l0.124-0.652l0.195,0.225c1.179-1.34,2.535-3.142,2.538-4.992l1.767-0.887l-0.331-0.471
		l0.733-0.025l0.593-1.593l0.438,0.113l0.025-0.74l0.522-0.034l-0.28-0.258l0.846-0.678l-0.294-0.331l1.043-2.388l-0.791,0.053
		l-0.053-0.614l0.604,0.319c1.159-0.704,1.094-2.493,1.74-3.764l-0.25-0.456l1.268-2.715l-0.818-0.876
		c-0.325-0.687,0.813-0.028,1.306-0.438l0.061-0.99l0.078,0.044l0.2-1.188l0.025,0.065l0.688-0.896l-0.267-1.176l0.228-0.038
		l-0.414-0.086l0.453-0.584l0.348,0.407c0.54-0.618-0.303-0.271-0.419-0.637c0.177-0.087-1.844-3.548-1.062-2.468
		c0.722,0.816-0.735-1.813,1.4,2.293c1.421,2.26-1.299-2.907-1.077-2.542l-0.621,0.147l-0.618-0.747l-0.839,0.028l0.41,0.781
		l-0.604-0.323l-0.43,0.111l-0.132-0.755l-1.063-0.077l0.136-1.196l-0.746,0.172l-0.142-0.474c-0.84-0.726-1.601,0.682-2.153-0.077
		l0.038-0.425l-0.464,0.055c-0.076-1.44-2.071-1.411-2.888-2.474l-0.916,0.049l-0.776-0.744l-0.128,0.717
		c-0.475-0.697-1.584,0.401-1.604-0.568l0.568-0.415c0.025-1.38-5.687,1.238-4.114,0.675l0.463,0.972l-1.36,0.25l-0.475,0.636
		l0.015-0.425l-0.796,1.384l-1.801,1.02c0.229,0.744-0.941,0.59-0.362,1.225l-0.245-0.098l0.061,1.132l-0.329-0.462l-1.043,0.355
		l0.021,0.567l-0.107,0.388l-0.303,0.816l-0.428-0.402l-0.685,0.81c-0.05,0.002-0.108,0.015-0.214,0.15l-0.573,0.271l-0.242-0.381
		l-0.157,1.146l-2.264,2.695l0.024-0.28l-0.403,0.672l-0.822,0.35l0.318,0.213l-2.162,2.199l-0.007-0.605l-0.959,2.363l-0.181-0.531
		l-0.604,1.305l0.032,0.726l-0.077-0.063l-0.614,0.993l-0.177-0.382l-1.348,0.606l0.118,0.534l-0.618,0.094l0.084,1.658
		l-0.076,0.085l-0.518-0.561l-0.246,1.336l-1.677,1.728l-0.455-0.759l-1.737,1.569c0.845,0.189-0.05,0.802,0.152,1.286l-0.229,0.243
		c-0.319,0.178-0.539-0.167-0.837-0.073l-1.625,1.911l-0.074-0.124l-1.314,2.229l-0.102,0.093l-0.146-0.354
		c-0.484,0.246-0.276,0.486-0.205,0.719l-0.23,0.235l-0.075-0.279l-1.04,1.412l-0.105-0.396l-0.52,1.057l-0.393,0.391l-0.178-0.388
		l-0.504,1.068l-0.048,0.049l-0.477,0.002l-0.515,1.016l-0.269,0.272l-0.688,0.045l-5.229,6.046l-0.578,0.587l-0.403-0.874
		c0.472,0.416-0.2,0.479-0.682,1.247l-0.097-0.035l-0.731,0.66l0.117,0.103c-0.011,0.588-1.245,0.13-0.835,0.847l-0.548-0.068
		l-0.578,1.108l-0.047-0.127l-1.052,1.389l-0.298,0.999l-0.319,0.353l-0.304-0.33c-1.063,1.236-2.421,2.949-3.304,4.046
		l-1.044,1.067l7.612,8.077C380.919,173.461,381.324,173.771,381.745,174.212z M393.982,174.384l-0.841-0.49L393.982,174.384z"/>
	<polygon fill="#BA7DA7" points="424.184,148.577 424.182,148.592 424.246,149.386 	"/>
	<polygon fill="#BA7DA7" points="431.499,114.724 431.494,114.824 431.653,114.799 	"/>
	<polygon fill="#BA7DA7" points="406.114,167.319 405.973,167.438 406.545,167.618 	"/>
	<polygon fill="#BA7DA7" points="431.208,114.586 431.499,114.724 431.523,114.409 	"/>
	<polygon fill="#BA7DA7" points="405.527,129.96 405.56,129.85 405.553,129.6 	"/>
	<line fill="none" x1="393.142" y1="173.892" x2="393.982" y2="174.384"/>
	<polygon fill="#BA7DA7" points="405.083,167.548 404.791,167.56 404.859,167.931 	"/>
	<line fill="none" x1="407.299" y1="165.489" x2="406.817" y2="166.68"/>
	<line fill="none" x1="410.462" y1="164.632" x2="410.338" y2="164.258"/>
	<line fill="none" x1="410.649" y1="163.52" x2="410.04" y2="163.622"/>
	<line fill="none" x1="416.024" y1="159.215" x2="415.507" y2="159.625"/>
	<polygon fill="#BA7DA7" points="417.806,157.371 417.672,157.006 417.483,157.187 	"/>
	<polygon fill="#BA7DA7" points="426.24,111.665 425.897,111.633 426.069,111.885 	"/>
	<line fill="none" x1="405.564" y1="127.923" x2="405.967" y2="127.925"/>
	<polygon fill="#BA7DA7" points="397.807,138.322 397.746,138.406 398.197,138.743 	"/>
	<polygon fill="#BA7DA7" points="129.015,378.024 129.066,377.93 129.046,377.667 	"/>
	<polygon fill="#BA7DA7" points="154.698,362.627 154.991,362.763 155.02,362.452 	"/>
	<polygon fill="#BA7DA7" points="147.701,396.604 147.701,396.614 147.75,397.403 	"/>
	<polygon fill="#BA7DA7" points="129.635,415.362 129.504,415.473 130.067,415.646 	"/>
	<polygon fill="#BA7DA7" points="154.991,362.763 154.983,362.875 155.144,362.837 	"/>
	<path fill="#BA7DA7" d="M161.415,365.955c0.732,0.817-0.778-1.804,1.449,2.276c0.405,0.482-0.688-1.654-1.153-2.521l-0.585,0.144
		l-0.613-0.742l-0.837,0.024l0.392,0.782l-0.566-0.319l-0.449,0.095l-0.125-0.736l-1.085-0.077l0.144-1.198l-0.733,0.167
		l-0.151-0.473c-0.834-0.733-1.588,0.68-2.138-0.079l0.03-0.424l-0.46,0.057c-0.103-1.443-2.067-1.406-2.875-2.484l-0.936,0.041
		l-0.777-0.737l-0.137,0.718c-0.475-0.696-1.559,0.398-1.598-0.57l0.585-0.419c0.012-1.391-5.69,1.309-4.109,0.707l0.45,0.979
		l-1.352,0.253l-0.482,0.636l-0.001-0.433l-0.798,1.397l-1.792,1.019c0.223,0.731-0.939,0.587-0.347,1.207l-0.267-0.096l0.063,1.143
		l-0.331-0.48l-1.043,0.365l0.042,0.566l-0.126,0.398l-0.299,0.819l-0.43-0.427l-0.679,0.816c-0.046,0.012-0.115,0.028-0.199,0.17
		l-0.575,0.272l-0.235-0.386l-0.177,1.146l-2.251,2.687l0.014-0.281l-0.408,0.677l-0.839,0.347l0.345,0.227l-2.174,2.199
		l-0.004-0.625l-0.979,2.367l-0.174-0.533l-0.581,1.33l0.021,0.705l-0.078-0.055l-0.617,0.993l-0.179-0.396l-1.326,0.615
		l0.133,0.534l-0.637,0.079l0.088,1.661l-0.087,0.079l-0.512-0.557l-0.224,1.328l-1.7,1.736l-0.452-0.775l-1.734,1.579
		c0.824,0.188-0.021,0.813,0.168,1.289L121.658,387c-0.322,0.167-0.528-0.168-0.817-0.078l-1.617,1.91l-0.092-0.128l-1.288,2.213
		l-0.096,0.111l-0.179-0.354c-0.453,0.253-0.272,0.471-0.188,0.711l-0.229,0.25l-0.066-0.26l-1.018,1.389l-0.032,0.021l-0.111-0.41
		l-0.534,1.065l-0.39,0.392l-0.164-0.392l-0.515,1.071l-0.032,0.056l-0.479,0.002l-0.476,0.979l-0.298,0.318l-0.688,0.035
		l-5.226,6.013l-0.598,0.623l-0.388-0.868c0.438,0.41-0.229,0.475-0.699,1.245l-0.078-0.03l-0.747,0.663l0.124,0.104
		c-0.012,0.584-1.247,0.112-0.827,0.84l-0.565-0.072l-0.563,1.105l-0.062-0.127l-1.06,1.391l-0.272,1.012l-0.331,0.344l-0.297-0.328
		c-1.026,1.196-2.339,2.826-3.234,3.928l-1.136,1.175l7.667,8.084c0.372,0.511,0.785,0.825,1.193,1.267l2.466,2.579l-0.025,0.278
		c0.147,0.165,0.375,0.172,0.542,0.289l0.754,0.787l1.652-0.424c0.3-0.063,0.605-0.127,0.924-0.229l4.097-1.04l0.873-0.914
		c0.479-0.513,1.046-1.02,1.575-1.523l-0.05,0.433l0.669-0.17l0.185-0.527l0.303,0.332l1.643-1.604l-0.551-0.1l1.023-1.094
		l0.389,0.486l0.155-0.394l0.353,0.691c-0.534-0.854,0.761-1.202,0.818-1.478l0.025,0.148c0.781-0.289-0.371-0.203,0.004-0.564
		l1.163,0.422l2.164-2.011l0.991-1.948l0.729-0.069l0.792,1.354l0.589-0.521l-0.618-0.188c-0.72-0.22,0.819-0.842-0.121-1.027
		l2.125-1.875l0.398,0.654l1.063-1.808l-0.778-0.58l0.193-0.544l1.452,0.419c0.397,0.713-0.959,0.759-0.188,1.108
		c0.179,0.681-0.738,1.6-1.195,1.502c-0.009,0.941,0.406-0.281,0.762,0.289l0.929-1.561l-0.354-0.57
		c0.107-1.045,1.053-0.321,1.211-0.427l-0.15,0.398l0.791-1c0.719,0.534-0.581,0.685-0.351,1.227l0.734,0.197l0.459-1.147
		l0.16,0.322l0.24-0.533l-0.941-0.162c-0.359-0.843,0.234-0.395,0.656-1.039l-0.535-0.082l0.221-0.965l1.012,0.248l-0.483,0.269
		c-0.211,0.89,0.941,0.524,0.79,1.14l0.475-1.146c-0.275,0.611-0.372-0.188-0.654-0.233c-0.186-1.653,1.14,0.258,1.696-0.571
		c-0.737-0.483,0.117-1.758-1.059-1.951l0.394-0.711l0.667,0.739l0.261-0.233l0.087,0.863l1.676-0.084l-0.174-0.8l0.675,0.097
		c-0.541,0.205-0.575-0.582-0.433-0.903l1.104-0.12l-0.028,0.699l0.437-0.35l-0.5-1.195l0.63-0.33l-0.137,0.607l1.11-0.115
		l-0.202-0.444l0.384,0.28l0.23-0.738l0.245,0.169c0.075-0.341-0.128-1.063,0.558-0.892l-0.879,0.365l0.032-0.84
		c0.542,0.569,0.613-0.479,0.882-0.709l0.789,0.044l-0.265-0.458c0.796,0.586,0.387-0.617,0.851-0.74l0.673,0.504l-0.697-1.398
		c0.662-0.395,0.566,0.777,1.094,0.969c-0.19-0.688,0.792-0.4,0.41-1.088l-0.477-0.691l0.656,0.104l-0.522-0.758l0.72-1.048
		l-0.076-1.082l-0.65-0.995c0.035-0.063,0.081-0.121,0.112-0.164c0.025,0.186-0.021,0.511,0.389,0.577l0.168-0.355
		c0.957,0.119,0.31,1.741,1.108,1.777l0.064-0.501l0.624,0.601l0.448-0.999l-0.352,0.064l0.343-1.433l0.703,0.594l0.135-0.644
		l0.182,0.218c1.192-1.344,2.554-3.132,2.536-4.996l1.783-0.881l-0.324-0.469l0.704-0.029l0.619-1.582l0.422,0.104l0.044-0.74
		l0.522-0.025l-0.291-0.254l0.853-0.688l-0.303-0.33l1.045-2.373l-0.803,0.027l-0.042-0.601l0.604,0.315
		c1.163-0.688,1.111-2.486,1.746-3.75l-0.233-0.461l1.261-2.724l-0.815-0.865c-0.33-0.688,0.808-0.026,1.313-0.438l0.039-0.985
		l0.077,0.027l0.229-1.191l0.011,0.065l0.688-0.884l-0.276-1.191l0.226-0.026l-0.419-0.101l0.464-0.57l0.36,0.395
		c0.532-0.602-0.317-0.27-0.433-0.642C160.673,364.714,161.814,367.055,161.415,365.955z M116.673,421.94l0.829,0.487
		L116.673,421.94z"/>
	<polygon fill="#BA7DA7" points="159.447,365.569 159.491,365.595 159.664,365.554 	"/>
	<path fill="#BA7DA7" d="M161.708,365.711l0.029,0.005C161.404,365.112,161.507,365.321,161.708,365.711z"/>
	<line fill="none" x1="116.673" y1="421.94" x2="117.501" y2="422.432"/>
	<polygon fill="#BA7DA7" points="128.388,415.974 128.606,415.577 128.318,415.602 	"/>
	<line fill="none" x1="130.832" y1="413.528" x2="130.363" y2="414.705"/>
	<line fill="none" x1="133.987" y1="412.68" x2="133.843" y2="412.286"/>
	<line fill="none" x1="134.173" y1="411.554" x2="133.573" y2="411.653"/>
	<line fill="none" x1="139.548" y1="407.251" x2="139.03" y2="407.657"/>
	<polygon fill="#BA7DA7" points="141.314,405.409 141.184,405.028 141.02,405.216 	"/>
	<polygon fill="#BA7DA7" points="149.38,359.667 149.566,359.929 149.73,359.699 	"/>
	<line fill="none" x1="129.035" y1="375.976" x2="129.459" y2="375.983"/>
	<polygon fill="#BA7DA7" points="121.68,386.806 121.295,386.388 121.231,386.472 	"/>
	<path fill="#BA7DA7" d="M434.491,204.359l-0.022-0.382c-0.511,0.039-0.426,0.332-0.466,0.57l-0.284,0.131l0.024-0.271l-1.537,0.864
		l0.07-0.413l-0.929,0.756l-0.498,0.198l0.023-0.416l-0.914,0.781l-0.053,0.025l-0.435-0.189l-0.861,0.713l-0.383,0.149
		l-0.636-0.247l-7.214,3.407l-0.799,0.329c-0.519-0.438,0.451-0.628-0.018-0.964c0.266,0.579-0.37,0.352-1.121,0.879l-0.055-0.077
		l-0.942,0.311l0.062,0.142c-0.245,0.543-1.19-0.379-1.106,0.427l-0.479-0.28l-0.953,0.789l0.005-0.132
		c-0.775-0.029-1.076,1.253-1.551,0.832l-0.647,0.811l-0.444,0.182l-0.143-0.413c-1.383,0.667-3.204,1.609-4.438,2.265l-1.574,0.632
		l3.737,10.517c0.126,0.618,0.394,1.081,0.588,1.654l1.188,3.338l-0.127,0.234c0.063,0.221,0.267,0.298,0.383,0.48l0.371,1.021
		l1.705,0.28c0.292,0.064,0.593,0.127,0.898,0.146l4.163,0.697l1.195-0.495c0.649-0.271,1.399-0.49,2.067-0.754l-0.228,0.382
		l0.67,0.111l0.377-0.401l0.148,0.414l2.144-0.808l-0.458-0.288l1.371-0.59l0.157,0.605l0.307-0.302l0.027,0.772
		c-0.116-0.993,1.19-0.789,1.353-1.004l-0.026,0.15c0.819,0.042-0.271-0.338,0.211-0.528l0.905,0.865l2.778-0.97l1.699-1.374
		c0.588-0.189,0.229,0.747,0.703,0.228c0.025,0.625,0.907,1.052,0.186,1.567l0.737-0.245l-0.488-0.436
		c-0.578-0.477,1.093-0.428,0.315-0.968l2.7-0.857l0.11,0.764l1.687-1.247l-0.472-0.841l0.389-0.399
		c0.27,0.429,0.481,1.167,1.159,0.951c0.077,0.801-1.175,0.313-0.636,0.94l-1.692,0.894c-0.382,0.858,0.507-0.083,0.586,0.583
		l1.481-1.066l-0.083-0.658c0.517-0.921,1.08,0.136,1.288,0.104l-0.305,0.302l1.102-0.606c0.453,0.803-0.786,0.393-0.789,0.992
		l0.572,0.473c0.841-0.208-0.007-0.772,0.903-0.848v0.345l0.439-0.381l-0.8-0.535l1.042-0.67l-0.48-0.303l0.585-0.787l0.828,0.625
		l-0.535,0.061l0.259,1.361l0.889-0.856c-0.49,0.438-0.258-0.335-0.479-0.484c0.484-1.604,0.942,0.699,1.771,0.149
		c-0.47-0.724,0.805-1.55-0.178-2.197l0.639-0.492l0.322,0.94l0.332-0.104l-0.277,0.824l1.552,0.586l0.178-0.803l0.595,0.373
		l-0.056-1.011l1.053,0.338l-0.289,0.635l0.536-0.149l0.008-1.308l0.729-0.033l-0.382,0.496c0.608-0.354,0.465,0.789,1.057,0.333
		v-0.483l0.242,0.393l0.506-0.584l0.146,0.258l0.869-0.591l-0.94-0.02c-0.482-0.388,0.292-0.633,0.378-0.74
		c0.255,0.73,0.745-0.197,1.079-0.308l0.698,0.351l-0.04-0.501c0.481,0.842,0.575-0.415,1.062-0.349l0.415,0.726l-0.083-1.551
		c0.764-0.11,0.23,0.944,0.602,1.312l0.818-0.83l-0.132-0.824l0.565,0.379l-0.173-0.896l1.081-0.676l-0.28,0.749
		c0.871-0.391-0.045-1.25,0.64-1.782l-0.187-1.18c0.051-0.039,0.115-0.064,0.178-0.086c-0.064,0.162-0.255,0.435,0.111,0.673
		l0.281-0.253l0.322,2.073l0.259-0.438l0.329,0.799l0.816-0.737l-0.345-0.077l0.886-1.171l0.41,0.809l0.388-0.533l0.078,0.286
		c1.627-0.761,3.597-1.856,4.339-3.552l1.988-0.082l-0.128-0.567l0.688,0.267l1.195-1.208l0.345,0.283l0.337-0.674l0.475,0.188
		l-0.146-0.332c0.272-0.426,0.711-0.861,1.043-0.301l-0.135-0.429l1.932-1.756l-0.766-0.281l0.21-0.577l0.428,0.539l3.123-2.747
		l-0.066-0.51l2.268-1.982l-0.388-1.127c-0.034-0.756,0.738,0.314,1.361,0.127l0.445-0.878l0.063,0.067l0.676-1l-0.003,0.07
		l0.986-0.537l0.23-1.191l0.222,0.065l-0.332-0.243l0.636-0.336l0.174,0.501c0.739-0.354-0.188-0.383-0.127-0.771
		c-0.194-4.096-0.104-1.501-0.025-2.668c0.353,1.042,0.023-1.96,0.396,2.666c0.195,0.636,0.039-1.792-0.026-2.773l-0.597-0.093
		l-0.263-0.942l-0.788-0.315l0.074,0.877l-0.434-0.535l-0.438-0.08l0.188-0.73l-0.942-0.515c0.355-0.313,0.95-0.415,0.619-1.029
		l-0.77-0.147l0.056-0.489c-0.481-1-1.714-0.019-1.911-0.943l0.183-0.363l-0.416-0.137c0.479-1.349-1.349-2.129-1.66-3.435
		c-0.49,0.483-0.506-0.305-0.849-0.334c0.599-0.4-0.539-0.452-0.421-0.993l-0.435,0.6c-0.146-0.84-1.57-0.271-1.201-1.159
		l0.688-0.155c0.567-1.258-5.738-1.043-4.047-0.966l0.025,1.071l-1.348-0.329l-0.688,0.396l0.18-0.382l-1.295,0.942l-2.06,0.211
		c-0.116,0.751-1.093,0.153-0.827,0.967l-0.185-0.188l-0.389,1.062l-0.123-0.566c-0.204-0.681-0.891,0.205-1.095-0.09l-0.193,0.535
		l-0.28,0.305l-0.61,0.641l-0.21-0.549l-0.948,0.456c-0.037-0.018-0.09-0.021-0.236,0.072l-0.629,0.026l-0.076-0.456l-0.628,0.976
		l-3.129,1.551l0.114-0.232l-0.628,0.448l-0.919-0.017l0.208,0.331l-2.867,1.138l0.239-0.577l-1.837,1.78l0.026-0.557l-1.046,0.979
		l-0.279,0.655l-0.048-0.098l-0.943,0.636l-0.016-0.426l-1.464,0.026l-0.105,0.537l-0.613-0.174l-0.573,1.553l-0.128,0.041
		l-0.238-0.713l-0.727,1.12l-2.26,0.896l-0.103-0.878l-2.237,0.738c0.702,0.519-0.341,0.728-0.363,1.236l-0.325,0.127
		c-0.377,0.026-0.425-0.381-0.722-0.391l-2.265,1.078l-0.025-0.147l-2.11,1.523L434.491,204.359z M421.067,232.196l0.557,0.764
		L421.067,232.196z"/>
	<line fill="none" x1="421.067" y1="232.196" x2="421.623" y2="232.958"/>
	<path fill="#BA7DA7" d="M99.496,341.932l0.021-0.483l0.235,0.391l0.501-0.584l0.162,0.267l0.873-0.596l-0.941-0.024
		c-0.487-0.381,0.275-0.627,0.375-0.735c0.241,0.729,0.731-0.188,1.083-0.305l0.698,0.355l-0.073-0.528
		c0.505,0.864,0.604-0.407,1.083-0.33l0.413,0.737l-0.073-1.556c0.761-0.104,0.215,0.943,0.623,1.318l0.804-0.84l-0.152-0.818
		l0.565,0.367l-0.17-0.9l1.085-0.679l-0.272,0.76c0.852-0.383-0.073-1.247,0.645-1.781l-0.22-1.185
		c0.083-0.022,0.126-0.058,0.194-0.084c-0.063,0.178-0.256,0.449,0.112,0.687l0.295-0.261l0.309,2.069l0.255-0.436l0.331,0.804
		l0.817-0.737l-0.345-0.096l0.89-1.159l0.404,0.82l0.385-0.534l0.085,0.277c1.617-0.749,3.589-1.847,4.333-3.539l1.988-0.078
		l-0.129-0.564l0.68,0.266l1.197-1.201l0.356,0.271l0.323-0.655l0.496,0.179l-0.16-0.334c0.279-0.398,0.712-0.849,1.047-0.28
		l-0.154-0.437l1.929-1.751l-0.741-0.28l0.194-0.58l0.44,0.53l3.103-2.74l-0.062-0.508l2.27-1.978l-0.395-1.138
		c-0.032-0.753,0.741,0.318,1.357,0.134l0.448-0.889l0.057,0.072l0.673-1.011l-0.003,0.079l0.985-0.543l0.236-1.188l0.221,0.068
		l-0.372-0.265l0.681-0.335l0.152,0.508c0.724-0.354-0.179-0.383-0.144-0.771c0.2,0.01-0.216-3.98,0.046-2.671
		c0.318,1.027,0.078-1.959,0.352,2.649c0.379,2.646-0.018-3.168,0.052-2.739l-0.634-0.122l-0.257-0.944l-0.79-0.315l0.062,0.888
		l-0.403-0.536l-0.437-0.076l0.188-0.737l-0.954-0.496c0.359-0.324,0.966-0.437,0.627-1.041l-0.763-0.146l0.053-0.485
		c-0.462-0.994-1.713-0.022-1.933-0.94l0.206-0.357l-0.424-0.135c0.483-1.36-1.349-2.121-1.653-3.44
		c-0.498,0.499-0.498-0.28-0.853-0.32c0.597-0.396-0.533-0.461-0.421-0.994l-0.416,0.591c-0.153-0.84-1.604-0.274-1.23-1.163
		l0.684-0.141c0.571-1.251-5.717-1.146-4.021-1.044l0.032,1.095l-1.357-0.339l-0.68,0.405l0.171-0.383l-1.28,0.94l-2.076,0.213
		c-0.077,0.763-1.09,0.147-0.809,0.966l-0.193-0.188l-0.389,1.043l-0.117-0.559c-0.185-0.695-0.89,0.205-1.099-0.1l-0.18,0.529
		l-0.278,0.316l-0.609,0.637l-0.221-0.536l-0.957,0.44c-0.05-0.012-0.097-0.005-0.24,0.078l-0.631,0.018l-0.076-0.445l-0.611,0.969
		l-3.149,1.556l0.132-0.229l-0.649,0.433l-0.898-0.005l0.206,0.325l-2.867,1.132l0.243-0.563l-1.825,1.775l0.021-0.555l-1.076,0.96
		l-0.267,0.651l-0.043-0.076l-0.96,0.652v-0.433l-1.478,0.028l-0.102,0.535l-0.589-0.166l-0.584,1.552l-0.126,0.051l-0.24-0.728
		l-0.755,1.122l-2.239,0.897l-0.104-0.876l-2.198,0.737c0.656,0.518-0.376,0.729-0.397,1.234l-0.32,0.128
		c-0.367,0.025-0.427-0.376-0.711-0.396l-2.267,1.09l-0.021-0.134l-2.129,1.507l-0.1,0.046l0.001-0.387
		c-0.556,0.038-0.433,0.337-0.48,0.587l-0.305,0.104l0.061-0.24l-1.535,0.847l0.063-0.408l-0.914,0.738l-0.513,0.229l-0.015-0.437
		l-0.887,0.792l-0.05,0.01l-0.434-0.179l-0.896,0.728l-0.324,0.144l-0.653-0.245l-7.088,3.354l-0.934,0.376
		c-0.483-0.433,0.451-0.636,0.007-0.959c0.247,0.575-0.391,0.344-1.137,0.866l-0.075-0.064l-0.944,0.293l0.071,0.147
		c-0.238,0.539-1.195-0.395-1.104,0.438l-0.458-0.279l-0.977,0.777l0.005-0.131c-0.774-0.026-1.072,1.244-1.553,0.837l-0.632,0.81
		l-0.459,0.181l-0.144-0.425c-1.49,0.711-3.475,1.769-4.715,2.384l-1.329,0.526l3.729,10.489c0.119,0.604,0.366,1.054,0.584,1.614
		l1.183,3.376l-0.119,0.248c0.061,0.229,0.28,0.328,0.403,0.52l0.354,1.007l1.644,0.279c0.314,0.058,0.607,0.115,0.953,0.151
		l4.146,0.68l1.187-0.475c0.661-0.265,1.405-0.481,2.062-0.747l-0.217,0.384l0.673,0.106l0.396-0.396l0.125,0.402l2.141-0.809
		l-0.458-0.302l1.376-0.586l0.168,0.605l0.293-0.299l0.032,0.78c-0.138-1.001,1.196-0.801,1.362-1.015l-0.034,0.152
		c0.817,0.036-0.255-0.342,0.215-0.527l0.905,0.856l2.784-0.98l1.693-1.35c0.58-0.2,0.22,0.738,0.699,0.229
		c0.054,0.611,0.917,1.042,0.185,1.563l0.752-0.255l-0.483-0.435c-0.583-0.478,1.069-0.433,0.288-0.961l2.7-0.862l0.109,0.746
		l1.691-1.236l-0.486-0.837l0.414-0.413c0.267,0.438,0.475,1.179,1.153,0.961c0.063,0.805-1.177,0.313-0.618,0.942l-1.725,0.892
		c-0.377,0.848,0.512-0.099,0.61,0.574l1.475-1.048l-0.083-0.672c0.514-0.927,1.085,0.141,1.271,0.105l-0.313,0.298l1.15-0.601
		c0.42,0.806-0.817,0.387-0.835,0.986l0.583,0.473c0.859-0.197-0.021-0.774,0.901-0.842l0.003,0.344l0.466-0.37l-0.812-0.534
		l1.025-0.687l-0.463-0.302l0.594-0.788l0.796,0.633l-0.556,0.05l0.291,1.369l0.89-0.858c-0.509,0.446-0.256-0.324-0.5-0.482
		c0.511-1.604,0.942,0.706,1.792,0.154c-0.491-0.736,0.805-1.552-0.193-2.198l0.633-0.495l0.324,0.951l0.352-0.112l-0.273,0.841
		l1.553,0.575l0.155-0.796l0.583,0.379l-0.02-1.028l1.043,0.342l-0.294,0.637l0.542-0.135l0.011-1.32l0.72-0.025l-0.362,0.496
		L99.496,341.932z M68.024,347.66l0.551,0.764L68.024,347.66z"/>
	<polygon fill="#BA7DA7" points="126.958,308.968 126.906,309.061 127.089,309.122 	"/>
	<polygon fill="#BA7DA7" points="129.892,313.338 129.926,313.359 130.096,313.395 	"/>
	<polygon fill="#BA7DA7" points="126.749,308.729 126.958,308.968 127.112,308.684 	"/>
	<polygon fill="#BA7DA7" points="97.056,312.436 97.122,312.354 97.244,312.111 	"/>
	<polygon fill="#BA7DA7" points="82.514,346.848 82.356,346.908 82.794,347.296 	"/>
	<line fill="none" x1="68.024" y1="347.66" x2="68.574" y2="348.424"/>
	<polygon fill="#BA7DA7" points="81.127,346.908 81.486,346.645 81.208,346.545 	"/>
	<line fill="none" x1="84.345" y1="345.652" x2="83.427" y2="346.545"/>
	<line fill="none" x1="87.602" y1="345.739" x2="87.552" y2="346.142"/>
	<line fill="none" x1="87.614" y1="345.063" x2="88.195" y2="345.194"/>
	<line fill="none" x1="94.85" y1="343.434" x2="94.198" y2="343.601"/>
	<polygon fill="#BA7DA7" points="97.207,342.448 97.242,342.064 97,342.163 	"/>
	<polygon fill="#BA7DA7" points="123.153,304.194 123.411,304.063 123.073,303.875 	"/>
	<line fill="none" x1="97.902" y1="310.582" x2="98.274" y2="310.762"/>
	<polygon fill="#BA7DA7" points="86.791,317.523 86.612,316.971 86.518,317.021 	"/>
	<path fill="#BA7DA7" d="M495.001,292.124l-0.521-0.35l0.13-0.973l-0.604-0.597l-0.285,0.84l-0.163-0.658l-0.37-0.256l0.463-0.584
		l-0.663-0.856l0.992-0.69l-0.637-0.437l0.229-0.433c-0.023-1.109-1.552-0.725-1.364-1.651l0.319-0.248l-0.33-0.293
		c0.997-1.052-0.358-2.493-0.128-3.813c-0.629,0.26-0.325-0.474-0.637-0.639c0.711-0.123-0.308-0.636,0.022-1.07l-0.637,0.359
		c0.196-0.812-1.351-0.882-0.645-1.552l0.705,0.147c1.033-0.919-4.783-3.348-3.294-2.563l-0.407,0.989l-1.087-0.841l-0.806,0.088
		l0.303-0.279l-1.536,0.331l-1.976-0.636l-1.146,0.561l-0.094-0.253l-0.788,0.818l0.12-0.577c0.096-0.696-0.873-0.157-0.952-0.519
		l-0.398,0.402l-0.382,0.17l-0.798,0.331l0.024-0.575l-1.054,0.033c-0.05-0.026-0.088-0.055-0.271-0.033l-0.576-0.243l0.128-0.433
		l-0.967,0.635c-1.09-0.447-3.026-0.072-3.509,0.15l0.215-0.154l-0.786,0.157l-0.803-0.386l0.066,0.388
		c-0.865-0.706-2.042,0.378-3.098-0.126l0.46-0.41l-2.4,0.875l0.272-0.484l-1.207,0.396c0.127,0.348-0.376,0.648-0.688,0.539
		l-0.021-0.094l-1.124,0.228l0.178-0.382c-0.109-0.73-1.253-0.496-1.357-0.582l-0.32,0.439l-0.474-0.382l-1.167,1.189l-0.125-0.004
		l0.059-0.765l-1.143,0.733l-2.413-0.077l0.253-0.85l-2.343-0.226c0.435,0.743-0.58,0.533-0.82,0.97h-0.229l-0.607-0.646
		l-2.521,0.07l0.033-0.127l-2.521,0.535l-0.128-0.008l0.146-0.362c-0.497-0.19-0.529,0.14-0.647,0.34l-0.33-0.009l0.13-0.22
		l-1.721,0.177h-0.018l0.214-0.355l-1.13,0.319l-0.547-0.021l0.157-0.383l-1.188,0.346v0.011l-0.321-0.355l-1.075,0.303
		l-0.391-0.019l-0.519-0.484l-7.81,0.227l-1.013-0.029c-0.28-0.605,0.649-0.401,0.382-0.875c0.011,0.61-0.488,0.143-1.399,0.33
		l-0.025-0.086l-0.972-0.116l-0.013,0.171c-0.439,0.382-0.941-0.837-1.193-0.045l-0.318-0.456l-1.195,0.332l0.059-0.134
		c-0.688-0.329-1.484,0.728-1.742,0.16l-0.916,0.477l-0.485-0.017l0.033-0.435c-1.638,0.038-3.841,0.188-5.225,0.267l-1.478-0.038
		l-0.815,11.069c-0.135,0.636-0.078,1.147-0.14,1.766l-0.238,3.536l-0.229,0.164c-0.038,0.232,0.129,0.434,0.175,0.639l-0.093,1.068
		l1.399,0.916c0.274,0.187,0.501,0.354,0.813,0.517l3.523,2.315l1.281,0.035c0.688,0.023,1.456,0.109,2.163,0.146l-0.353,0.243
		l0.584,0.391l0.517-0.225l-0.041,0.431l2.304,0.128l-0.317-0.472l1.5,0.022l-0.092,0.612l0.396-0.146l-0.278,0.722
		c0.29-0.959,1.398-0.236,1.624-0.383l-0.076,0.124c0.738,0.383-0.104-0.42,0.394-0.389l0.5,1.15l2.926,0.23l2.112-0.559
		l0.551,0.483c-0.218,0.586,0.415,1.331-0.48,1.502c0.333-0.496,0.511-0.031,0.759,0.03l-0.267-0.541
		c-0.32-0.68,1.194,0.051,0.688-0.783l2.815,0.31l-0.205,0.738l2.034-0.443l-0.093-0.969l0.534-0.207l0.669,1.339
		c-0.264,0.78-1.208-0.184-0.94,0.628l-1.931,0.126c-0.705,0.613,0.479,0.117,0.314,0.762l1.766-0.362l0.179-0.656
		c0.844-0.635,0.952,0.573,1.146,0.618l-0.397,0.146l1.256-0.088c0.085,0.901-0.887,0.043-1.146,0.57l0.351,0.676
		c0.86,0.145,0.312-0.723,1.169-0.433l-0.125,0.331l0.543-0.172l-0.506-0.81c0.383-0.841,0.433-0.083,1.193-0.21l-0.278-0.47
		l0.858-0.482l0.484,0.897l-0.534-0.169c-0.788,0.448,0.258,1.032-0.291,1.353l1.152-0.428l-0.263-0.653
		c1.116-1.246,0.574,1.033,1.574,0.882c-0.163-0.879,1.363-1.104,0.731-2.094l0.789-0.212l-0.097,1.001l0.347,0.035l-0.582,0.647
		l1.195,1.151l0.471-0.652l0.37,0.566l0.391-0.938l0.814,0.733l-0.523,0.469l0.546,0.076l0.549-1.191l0.671,0.26l-0.534,0.315
		l0.815,0.729l0.218-0.437l0.046,0.445l0.7-0.323l0.039,0.297c0.302-0.172,0.697-0.802,1.027-0.193l-0.845-0.396
		c-0.291-0.544,0.535-0.453,0.64-0.528c-0.051,0.771,0.763,0.128,1.123,0.158l0.494,0.604l0.161-0.501
		c0.104,0.988,0.696-0.128,1.104,0.127l0.093,0.841l0.551-1.451l0.021,1.45l1.067-0.434l0.212-0.818l0.37,0.581l0.195-0.896
		l1.29-0.187l-0.567,0.587c0.933-0.025,0.443-1.169,1.298-1.388l0.306-1.146c0.062,0,0.127-0.005,0.2,0
		c-0.125,0.126-0.418,0.309-0.179,0.655l0.383-0.093c0.549,0.759-1.083,1.381-0.56,2.004l0.405-0.298l-0.024,0.873l1.041-0.348
		l-0.274-0.214l1.272-0.698l0.063,0.91l0.558-0.344l-0.038,0.286c1.777-0.04,4.021-0.24,5.382-1.5l1.857,0.718l0.12-0.551
		l0.494,0.508l1.59-0.63l0.217,0.396l0.569-0.466l0.383,0.355l-0.017-0.376c0.423-0.273,0.997-0.483,1.081,0.157l0.03-0.46
		l2.477-0.818l-0.576-0.563l0.426-0.438l0.146,0.646c1.33,0.383,2.605-0.859,3.976-1.247l0.16-0.483l2.853-0.902l0.097-1.196
		c0.298-0.69,0.564,0.594,1.217,0.686l0.768-0.636l0.027,0.089l1.016-0.646l-0.045,0.069l1.121-0.103l0.706-0.99l0.178,0.143
		l-0.225-0.356l0.73-0.054l-0.076,0.522c0.833-0.02,0.006-0.42,0.185-0.758c1.545-3.798,0.542-1.4,1.109-2.424
		c-0.113,1.08,0.835-1.779-0.737,2.57C493.155,297.222,495.107,291.721,495.001,292.124z M423.066,296.775l0.216,0.942
		L423.066,296.775z"/>
	<line fill="none" x1="423.066" y1="296.775" x2="423.279" y2="297.711"/>
	<path fill="#BA7DA7" d="M57.314,262.156l-0.311-0.47l1.5,0.024l-0.093,0.612l0.395-0.152l-0.278,0.73
		c0.291-0.961,1.396-0.252,1.639-0.387l-0.08,0.129c0.741,0.383-0.104-0.426,0.409-0.4l0.482,1.15l2.924,0.231l2.111-0.555
		l0.547,0.484c-0.212,0.585,0.421,1.339-0.456,1.501c0.351-0.493,0.505-0.026,0.758,0.043l-0.262-0.554
		c-0.326-0.672,1.178,0.048,0.682-0.777l2.804,0.31l-0.204,0.738l2.048-0.45l-0.081-0.95l0.513-0.229l0.671,1.334
		c-0.252,0.788-1.189-0.178-0.941,0.626l-1.925,0.129c-0.689,0.626,0.48,0.115,0.312,0.764l1.779-0.36l0.168-0.647
		c0.863-0.646,0.95,0.566,1.142,0.604l-0.396,0.153l1.266-0.09c0.089,0.908-0.864,0.036-1.145,0.565l0.362,0.682
		c0.845,0.148,0.281-0.716,1.151-0.422l-0.125,0.329l0.56-0.178l-0.521-0.81c0.383-0.835,0.447-0.084,1.207-0.208l-0.297-0.46
		l0.857-0.484l0.482,0.899l-0.515-0.178c-0.785,0.456,0.255,1.052-0.305,1.359l1.162-0.427l-0.255-0.652
		c1.104-1.244,0.559,1.021,1.572,0.863c-0.166-0.857,1.355-1.094,0.712-2.071l0.78-0.209l-0.087,1.002l0.342,0.033l-0.567,0.64
		l1.192,1.174l0.471-0.677l0.402,0.585l0.354-0.942l0.834,0.751l-0.519,0.453l0.546,0.075l0.547-1.176l0.67,0.24l-0.548,0.319
		l0.823,0.727l0.205-0.446l0.063,0.458l0.69-0.325l0.052,0.3c0.291-0.181,0.694-0.813,1.032-0.21l-0.848-0.382
		c-0.291-0.556,0.524-0.468,0.624-0.542c-0.047,0.783,0.778,0.127,1.126,0.17l0.485,0.613l0.172-0.505
		c0.119,0.98,0.717-0.134,1.114,0.127l0.093,0.84l0.546-1.451l0.022,1.451l1.104-0.432l0.193-0.816l0.356,0.565l0.21-0.896
		l1.268-0.182l-0.561,0.587c0.942-0.021,0.439-1.189,1.301-1.389l0.305-1.167c0.06,0.002,0.132,0,0.199,0.005
		c-0.134,0.135-0.406,0.308-0.177,0.657l0.371-0.104c0.556,0.761-1.089,1.383-0.539,2.016l0.394-0.297l-0.005,0.861l1.022-0.341
		l-0.278-0.213l1.293-0.701l0.037,0.905l0.568-0.338l-0.042,0.281c1.798-0.035,4.04-0.235,5.399-1.492l1.85,0.722l0.121-0.565
		l0.515,0.521l1.566-0.637l0.236,0.389l0.566-0.464l0.382,0.355l-0.035-0.383c0.422-0.264,1.017-0.493,1.081,0.17l0.035-0.446
		l2.479-0.841l-0.56-0.553l0.412-0.451l0.158,0.668c1.313,0.372,2.594-0.871,3.961-1.261l0.176-0.483l2.844-0.904l0.105-1.187
		c0.286-0.698,0.559,0.585,1.203,0.66l0.751-0.628l0.041,0.087l1.02-0.643l-0.03,0.048l1.106-0.1l0.688-0.987l0.185,0.139
		l-0.222-0.365l0.741-0.038l-0.07,0.521c0.823-0.026-0.018-0.425,0.188-0.752c1.51-3.819,0.529-1.404,1.095-2.44
		c-0.107,1.083,0.781-1.79-0.727,2.589c-0.089,0.654,0.743-1.62,1.096-2.533l-0.519-0.363l0.143-0.951l-0.604-0.598l-0.283,0.838
		l-0.165-0.66l-0.365-0.253l0.449-0.593l-0.643-0.837l0.957-0.701l-0.626-0.449l0.271-0.415c-0.037-1.109-1.579-0.721-1.388-1.642
		l0.327-0.25l-0.335-0.296c0.99-1.051-0.368-2.482-0.122-3.815c-0.661,0.255-0.35-0.475-0.669-0.649
		c0.732-0.107-0.302-0.626,0.027-1.054l-0.627,0.361c0.205-0.83-1.336-0.89-0.647-1.552l0.703,0.147
		c1.015-0.939-4.843-3.288-3.313-2.541l-0.408,1.001l-1.095-0.84l-0.794,0.086l0.314-0.288l-1.56,0.343l-1.959-0.633l-1.146,0.546
		l-0.112-0.25l-0.789,0.813l0.118-0.563c0.094-0.704-0.875-0.161-0.957-0.521l-0.404,0.398l-0.381,0.167l-0.802,0.337l0.022-0.587
		l-1.054,0.042c-0.026-0.03-0.095-0.068-0.266-0.042l-0.576-0.241l0.127-0.427l-0.976,0.636c-1.084-0.44-3.024-0.078-3.5,0.151
		l0.212-0.166l-0.773,0.145l-0.804-0.367l0.063,0.387c-0.866-0.713-2.031,0.375-3.078-0.127l0.438-0.417l-2.387,0.891l0.256-0.495
		l-1.206,0.393c0.142,0.342-0.378,0.648-0.688,0.541l-0.017-0.098l-1.125,0.227l0.173-0.384c-0.111-0.714-1.236-0.492-1.358-0.573
		l-0.303,0.453l-0.483-0.394l-1.151,1.192l-0.145-0.005l0.065-0.771l-1.134,0.737l-2.408-0.079l0.254-0.853l-2.342-0.228
		c0.433,0.749-0.612,0.522-0.841,0.982l-0.248-0.012l-0.604-0.649l-2.523,0.077l0.052-0.14l-2.54,0.534l-0.122-0.005l0.137-0.355
		c-0.494-0.185-0.529,0.146-0.662,0.33l-0.312,0.01l0.129-0.231l-1.695,0.178l-0.027-0.002l0.203-0.355l-1.133,0.324l-0.548-0.016
		l0.176-0.395l-1.164,0.365l-0.021-0.002l-0.33-0.346l-1.082,0.308l-0.393-0.018l-0.502-0.483l-7.887,0.222l-0.94-0.044
		c-0.291-0.602,0.66-0.398,0.383-0.872c0.007,0.622-0.495,0.164-1.387,0.331l-0.025-0.085l-0.994-0.11l-0.006,0.171
		c-0.44,0.392-0.942-0.837-1.195-0.055l-0.315-0.439l-1.188,0.331l0.046-0.127c-0.69-0.331-1.474,0.716-1.739,0.146l-0.914,0.483
		l-0.487-0.025l0.05-0.428c-1.563,0.043-3.634,0.177-5.041,0.263l-1.654-0.039l-0.804,11.124c-0.134,0.615-0.095,1.122-0.134,1.728
		l-0.275,3.54l-0.21,0.177c-0.038,0.225,0.128,0.411,0.169,0.62l-0.078,1.063l1.424,0.94c0.265,0.188,0.509,0.358,0.805,0.519
		l3.497,2.307l1.301,0.044c0.691,0.022,1.46,0.104,2.167,0.139l-0.354,0.241l0.596,0.393l0.514-0.215l-0.05,0.409L57.314,262.156z
		 M53.447,260.034l0.213,0.935L53.447,260.034z"/>
	<path fill="#BA7DA7" d="M67.05,265.148c-0.079,0.086-0.126-0.025-0.184-0.043l0.273,0.556L67.05,265.148z"/>
	<polygon fill="#BA7DA7" points="122.961,248.369 122.897,248.436 123.014,248.541 	"/>
	<polygon fill="#BA7DA7" points="122.879,248.056 122.961,248.369 123.216,248.18 	"/>
	<polygon fill="#BA7DA7" points="123.91,253.558 123.91,253.585 124.052,253.681 	"/>
	<path fill="#BA7DA7" d="M94.162,239.509l0.277-0.089c-0.021-0.04,0.063-0.077,0.019-0.119L94.162,239.509z"/>
	<path fill="#BA7DA7" d="M125.337,255.323l0.013,0.007C125.567,254.688,125.497,254.897,125.337,255.323z"/>
	<line fill="none" x1="53.447" y1="260.034" x2="53.657" y2="260.962"/>
	<polygon fill="#BA7DA7" points="65.764,264.635 66.178,264.543 65.997,264.342 	"/>
	<line fill="none" x1="69.208" y1="264.805" x2="68.008" y2="265.243"/>
	<line fill="none" x1="72.177" y1="266.197" x2="71.976" y2="266.536"/>
	<line fill="none" x1="72.925" y1="265.929" x2="72.435" y2="265.57"/>
	<line fill="none" x1="79.717" y1="266.991" x2="79.081" y2="266.895"/>
	<polygon fill="#BA7DA7" points="82.286,267.062 82.456,266.713 82.205,266.701 	"/>
	<polygon fill="#BA7DA7" points="121.695,242.425 121.456,242.136 121.411,242.448 	"/>
	<line fill="none" x1="95.683" y1="238.153" x2="95.99" y2="238.474"/>
	<polygon fill="#BA7DA7" points="82.738,240.032 82.793,239.452 82.685,239.456 	"/>
	<path fill="#BA7DA7" d="M409.25,366.885c-0.127,0.036-0.127-0.093-0.188-0.144l0.027,0.638L409.25,366.885z"/>
	<polygon fill="#BA7DA7" points="432.772,378.016 432.754,378.003 432.029,378.311 	"/>
	<path fill="#BA7DA7" d="M467.714,368.467c0.5-0.678-0.881-1.351,0.021-1.683l0.581,0.4c1.314-0.433-3.006-4.994-1.96-3.671
		l-0.771,0.75l-0.67-1.231l-0.762-0.225l0.417-0.15l-1.582-0.313l-1.534-1.369c-0.637,0.438-0.855-0.7-1.259,0.051l-0.003-0.28
		l-1.045,0.433l0.332-0.463l-0.681-0.877l-0.529,0.227l-0.41,0.002l-0.862-0.021l0.269-0.522l-0.997-0.387
		c0.004-0.052-0.055-0.1-0.217-0.138l-0.436-0.461l0.279-0.355l-1.124,0.205c-0.828-0.859-2.743-1.295-3.289-1.275l0.28-0.063
		l-0.777-0.178l-0.585-0.683l-0.108,0.387c-0.489-1.002-2.01-0.479-2.776-1.353l0.585-0.205l-2.54-0.162l0.438-0.346l-1.269-0.128
		c-0.02,0.383-0.601,0.451-0.844,0.223l0.032-0.086l-1.119-0.248l0.295-0.298l-0.998-1.068l-0.484,0.286l-0.278-0.554l-1.554,0.618
		l-0.104-0.053l0.353-0.686l-1.337,0.215l-2.17-1.045l0.576-0.675l-2.028-1.136c0.078,0.841-0.764,0.229-1.148,0.564l-0.226-0.104
		l-0.292-0.854l-2.343-0.94l0.102-0.124l-2.546-0.535l-0.113-0.045l0.285-0.274c-0.378-0.372-0.545-0.091-0.743,0.056l-0.279-0.142
		l0.22-0.146l-1.653-0.538h-0.017l0.352-0.238l-1.185-0.158l-0.48-0.229l0.313-0.296l-1.209-0.137l-0.025-0.025l-0.157-0.44
		l-1.108-0.163l-0.356-0.172l-0.259-0.642l-7.292-2.979l-0.853-0.41l0.69-0.644l-1.409-0.256l0.005-0.09l-0.863-0.493l-0.065,0.144
		c-0.56,0.186-0.528-1.146-1.045-0.521l-0.128-0.534l-1.233-0.187l0.112-0.091c-0.492-0.577-1.654,0.051-1.664-0.572l-1.025,0.066
		l-0.448-0.208l0.202-0.383c-1.449-0.598-3.435-1.316-4.774-1.807l-1.423-0.688l-5.242,9.825c-0.369,0.511-0.533,0.994-0.817,1.532
		l-1.68,3.139l-0.271,0.07c-0.124,0.199-0.056,0.432-0.096,0.639l-0.513,0.938l0.923,1.43c0.146,0.271,0.299,0.534,0.536,0.82
		l2.27,3.522l1.146,0.549c0.636,0.313,1.307,0.69,1.951,1.02l-0.415,0.076l0.362,0.584l0.56,0.025l-0.215,0.37l2.043,1.032
		l-0.086-0.547l1.36,0.63l-0.333,0.53l0.432,0.025l-0.548,0.545c0.654-0.777,1.377,0.336,1.654,0.302l-0.127,0.087l0.53-0.2
		l-0.024,1.248l2.574,1.399l2.16,0.347l0.308,0.653c-0.428,0.453-0.162,1.375-1.025,1.197c0.504-0.32,0.484,0.144,0.658,0.329
		l-0.011-0.6c-0.032-0.746,1.075,0.511,0.919-0.441l2.463,1.412l-0.493,0.588l2.08,0.427l0.288-0.916l0.564,0.015l0.078,1.502
		l-1.108,0.178l-1.824-0.653c-0.89,0.291,0.405,0.301-0.026,0.828l1.789,0.381l0.432-0.526c1.043-0.233,0.636,0.899,0.793,1.032
		l-0.434-0.039l1.2,0.436c-0.289,0.866-0.841-0.33-1.284,0.064l0.054,0.756l1.234,0.078l-0.248,0.236l0.586,0.077l-0.145-0.942
		c0.678-0.637,0.438,0.101,1.195,0.298l-0.095-0.543l0.971-0.089l0.104,1.017l-0.416-0.377c-0.919,0.099-0.205,1.067-0.817,1.118
		l1.233,0.099l0.024-0.692c1.502-0.713,0.112,1.152,1.092,1.428c0.207-0.861,1.682-0.469,1.5-1.61l0.79,0.125l-0.49,0.888
		l0.307,0.172l-0.792,0.363l0.626,1.545l0.699-0.428l0.115,0.688c-0.35-0.446,0.382-0.732,0.724-0.711l0.461,1.004l-0.679,0.227
		l0.48,0.28l0.983-0.854l0.502,0.502l-0.606,0.064l0.439,0.995l0.36-0.326l-0.127,0.448l0.789-0.014l-0.108,0.28
		c0.344-0.041,0.984-0.467,1.033,0.237l-0.62-0.717l0.809-0.229c-0.372,0.685,0.637,0.435,0.941,0.603l0.205,0.746l0.366-0.387
		c-0.318,0.94,0.684,0.15,0.948,0.559l-0.257,0.8l1.102-1.093c0.576,0.48-0.553,0.787-0.563,1.336l1.148,0.033l0.521-0.666
		l0.112,0.672l0.541-0.743l1.223,0.342l1.019-0.435l0.737-0.938c0.041,0.025,0.104,0.044,0.179,0.076
		c-0.168,0.074-0.484,0.126-0.431,0.547l0.388,0.048c0.205,0.929-1.551,0.841-1.324,1.634l0.514-0.113l-0.384,0.781l1.096,0.107
		l-0.177-0.316l1.451-0.129l-0.318,0.859l0.647-0.094l-0.146,0.264c1.642,0.675,3.791,1.398,5.546,0.796l1.404,1.417l0.332-0.463
		l0.256,0.67l1.697,0.063l0.026,0.434l0.733-0.188l0.205,0.482l0.127-0.333l0.935,0.585l0.193-0.408l2.606,0.238l-0.283-0.741
		l0.582-0.266l-0.126,0.666c1.044,0.888,2.724,0.255,4.133,0.458l0.348-0.377l2.979,0.322l0.56-1.045
		c0.544-0.539,0.28,0.748,0.838,1.088l0.939-0.262l-0.003,0.088l1.2-0.181l-0.064,0.052l1.059,0.348l1.043-0.633l0.085,0.209
		l-0.04-0.429l0.688,0.251l-0.264,0.467c0.749,0.308,0.146-0.39,0.474-0.621c0.125,0.136,2.78-2.85,2.005-1.777
		c-0.544,0.941,1.483-1.273-1.728,2.068c-1.696,2.06,2.324-2.162,2.063-1.828l-0.34-0.551l0.525-0.83l-0.317-0.789l-0.585,0.642
		l0.084-0.679l-0.208-0.371l0.672-0.354l-0.271-1.05l1.174-0.235l-0.399-0.67l0.405-0.295c0.397-1.025-1.157-1.275-0.604-2.051
		l0.396-0.1l-0.182-0.406c1.321-0.563,0.66-2.418,1.398-3.539l-0.33-0.852c0.693,0.178-0.026-0.69,0.442-0.959L467.714,368.467z
		 M398.655,357.646l0.184-0.941L398.655,357.646z"/>
	<line fill="none" x1="398.655" y1="357.646" x2="398.841" y2="356.709"/>
	<polygon fill="#BA7DA7" points="408.571,365.711 408.249,365.876 408.693,365.974 	"/>
	<line fill="none" x1="411.34" y1="367.427" x2="410.059" y2="367.358"/>
	<line fill="none" x1="413.47" y1="369.903" x2="413.169" y2="370.124"/>
	<line fill="none" x1="414.27" y1="369.952" x2="413.99" y2="369.438"/>
	<line fill="none" x1="420.069" y1="373.684" x2="419.535" y2="373.319"/>
	<polygon fill="#BA7DA7" points="422.47,374.411 422.388,374.764 422.7,374.524 	"/>
	<path fill="#BA7DA7" d="M143.139,198.69l0.015,0.013C143.615,198.209,143.453,198.359,143.139,198.69z"/>
	<polygon fill="#BA7DA7" points="109.373,195.292 109.357,195.282 108.64,195.603 	"/>
	<path fill="#BA7DA7" d="M85.856,184.161c-0.132,0.046-0.106-0.081-0.185-0.138l0.023,0.633L85.856,184.161z"/>
	<polygon fill="#BA7DA7" points="143.781,191.378 143.703,191.396 143.759,191.553 	"/>
	<polygon fill="#BA7DA7" points="142.534,196.481 142.534,196.504 142.639,196.676 	"/>
	<path fill="#BA7DA7" d="M121.013,171.639l0.279,0.026c0.001-0.039,0.1-0.042,0.07-0.104L121.013,171.639z"/>
	<polygon fill="#BA7DA7" points="143.812,191.045 143.781,191.378 144.09,191.297 	"/>
	<path fill="#BA7DA7" d="M70.42,170.298l2.3,3.536l1.14,0.546c0.617,0.308,1.299,0.686,1.93,1.007l-0.415,0.093l0.369,0.585
		l0.572,0.021l-0.225,0.365l2.037,1.043l-0.092-0.547l1.357,0.635l-0.332,0.522l0.427,0.021l-0.544,0.541
		c0.656-0.758,1.392,0.341,1.653,0.313l-0.127,0.088L81,178.867l-0.025,1.25l2.591,1.393l2.159,0.338l0.313,0.662
		c-0.433,0.458-0.153,1.382-1.031,1.195c0.502-0.309,0.501,0.153,0.666,0.325l-0.006-0.592c-0.021-0.745,1.064,0.513,0.938-0.436
		l2.446,1.408l-0.486,0.59l2.068,0.433l0.309-0.926l0.548,0.015l0.077,1.512l-1.109,0.165l-1.814-0.646
		c-0.884,0.293,0.396,0.311-0.022,0.818l1.777,0.387l0.433-0.519c1.016-0.239,0.625,0.896,0.791,1.026l-0.438-0.032l1.195,0.432
		c-0.29,0.865-0.84-0.32-1.277,0.052l0.047,0.766l1.228,0.081l-0.234,0.222l0.578,0.079l-0.166-0.958
		c0.706-0.625,0.472,0.104,1.199,0.297l-0.086-0.536l0.984-0.097l0.077,1.034l-0.413-0.382c-0.897,0.091-0.18,1.051-0.816,1.119
		l1.243,0.09l0.015-0.691c1.508-0.705,0.106,1.162,1.093,1.417c0.211-0.85,1.688-0.463,1.5-1.604l0.791,0.12l-0.482,0.89
		l0.309,0.159l-0.79,0.371l0.613,1.539l0.705-0.42l0.132,0.69c-0.379-0.462,0.356-0.736,0.706-0.712l0.46,0.998l-0.653,0.213
		l0.463,0.304l0.985-0.878l0.509,0.508l-0.631,0.063l0.461,0.995l0.377-0.318l-0.126,0.447l0.76-0.02l-0.077,0.289
		c0.347-0.035,0.966-0.459,1.032,0.236l-0.637-0.695l0.795-0.241c-0.355,0.683,0.659,0.433,0.947,0.605l0.227,0.754l0.347-0.388
		c-0.31,0.938,0.708,0.151,0.969,0.563l-0.253,0.797l1.088-1.108c0.582,0.495-0.555,0.796-0.56,1.349l1.165,0.031l0.502-0.66
		l0.111,0.668l0.548-0.737l1.217,0.34l1.025-0.426l0.73-0.939c0.065,0.026,0.125,0.045,0.188,0.077
		c-0.177,0.065-0.493,0.115-0.432,0.535l0.409,0.04c0.19,0.94-1.563,0.848-1.327,1.632l0.484-0.107l-0.365,0.789l1.084,0.101
		l-0.16-0.307l1.454-0.129l-0.319,0.855l0.637-0.08l-0.133,0.246c1.643,0.687,3.79,1.405,5.543,0.8l1.391,1.409l0.333-0.477
		l0.271,0.68l1.686,0.07l0.044,0.437l0.698-0.199l0.198,0.484l0.161-0.352l0.904,0.589l0.222-0.405l2.607,0.237l-0.305-0.748
		l0.544-0.229l-0.085,0.674c1.016,0.869,2.702,0.233,4.104,0.44l0.362-0.381l2.979,0.33l0.577-1.053
		c0.54-0.522,0.27,0.76,0.822,1.094l0.951-0.261l-0.017,0.089l1.203-0.171l-0.064,0.033l1.073,0.358l1.037-0.62l0.104,0.2
		l-0.046-0.427l0.698,0.248l-0.284,0.47c0.761,0.305,0.177-0.395,0.483-0.617c2.905-2.898,1.069-1.081,1.98-1.807
		c-0.537,0.955,1.443-1.298-1.689,2.083c-0.339,0.573,1.338-1.17,2.01-1.873l-0.328-0.518l0.523-0.84l-0.314-0.788l-0.597,0.642
		l0.111-0.688l-0.225-0.355l0.66-0.357l-0.267-1.052l1.17-0.229l-0.38-0.657l0.384-0.297c0.422-1.021-1.157-1.283-0.602-2.057
		l0.428-0.103l-0.204-0.4c1.317-0.564,0.668-2.432,1.42-3.542l-0.33-0.854c0.687,0.178-0.031-0.693,0.452-0.958l-0.726,0.065
		c0.53-0.666-0.88-1.361,0.035-1.683l0.564,0.408c1.325-0.431-3.07-4.962-1.988-3.646l-0.789,0.736l-0.657-1.211l-0.749-0.232
		l0.401-0.134l-1.565-0.315l-1.552-1.372c-0.636,0.444-0.854-0.703-1.261,0.048l0.012-0.28l-1.042,0.435l0.332-0.468l-0.686-0.878
		l-0.534,0.22l-0.391,0.017l-0.88-0.024l0.241-0.525l-0.958-0.383c-0.013-0.045-0.062-0.099-0.229-0.144l-0.44-0.456l0.283-0.354
		l-1.129,0.194c-0.814-0.851-2.748-1.291-3.273-1.264l0.276-0.063l-0.789-0.179l-0.584-0.673l-0.105,0.375
		c-0.514-0.995-2-0.466-2.767-1.348l0.576-0.196l-2.545-0.15l0.438-0.356l-1.271-0.128c-0.018,0.382-0.603,0.456-0.846,0.229
		l0.034-0.084l-1.138-0.253l0.309-0.292l-1.025-1.078l-0.45,0.289l-0.287-0.561l-1.545,0.622l-0.105-0.054l0.355-0.683l-1.333,0.216
		l-2.174-1.043l0.583-0.673l-2.052-1.141c0.093,0.842-0.781,0.215-1.171,0.539l-0.197-0.093l-0.298-0.85l-2.321-0.949l0.102-0.103
		l-2.568-0.548l-0.088-0.041l0.279-0.275c-0.396-0.373-0.55-0.092-0.761,0.057l-0.278-0.144l0.229-0.149l-1.658-0.542h-0.025
		l0.356-0.231l-1.177-0.168l-0.494-0.23l0.296-0.295l-1.174-0.127l-0.045-0.024l-0.143-0.452l-1.125-0.166l-0.339-0.168
		l-0.273-0.637l-7.279-2.982l-0.853-0.41l0.69-0.646l-1.411-0.247l0.005-0.101l-0.855-0.491l-0.07,0.145
		c-0.562,0.179-0.525-1.146-1.069-0.526l-0.113-0.535l-1.227-0.189l0.112-0.084c-0.497-0.585-1.654,0.055-1.664-0.568l-1.04,0.069
		l-0.437-0.191l0.203-0.393c-1.471-0.604-3.435-1.315-4.776-1.803l-1.325-0.637l-0.107-0.055l-5.209,9.825
		c-0.388,0.521-0.544,1.01-0.821,1.552l-1.67,3.127l-0.271,0.08c-0.121,0.189-0.048,0.413-0.088,0.627l-0.516,0.943l0.934,1.422
		C70.049,169.763,70.211,170.018,70.42,170.298z M75.45,173.989l-0.168,0.94L75.45,173.989z"/>
	<line fill="none" x1="75.283" y1="174.928" x2="75.45" y2="173.989"/>
	<polygon fill="#BA7DA7" points="85.195,182.996 84.856,183.159 85.291,183.256 	"/>
	<line fill="none" x1="87.957" y1="184.701" x2="86.671" y2="184.629"/>
	<line fill="none" x1="90.094" y1="187.174" x2="89.765" y2="187.414"/>
	<line fill="none" x1="90.897" y1="187.238" x2="90.602" y2="186.715"/>
	<line fill="none" x1="96.684" y1="190.955" x2="96.143" y2="190.616"/>
	<polygon fill="#BA7DA7" points="99.015,192.054 99.306,191.8 99.094,191.688 	"/>
	<polygon fill="#BA7DA7" points="144.742,185.332 145.026,185.415 144.942,185.065 	"/>
	<line fill="none" x1="122.962" y1="171.011" x2="123.09" y2="171.418"/>
	<polygon fill="#BA7DA7" points="110.539,166.959 110.347,167.505 110.621,166.99 	"/>
	<path fill="#BA7DA7" d="M411.507,435.198l-0.992,0.367l-0.133-1.39l-0.593-0.526l0.426,0.039l-1.301-0.912l-0.852-1.883
		c-0.761,0.141-0.501-0.986-1.195-0.465l0.128-0.24l-1.141-0.049l0.484-0.279l-0.268-1.066l-0.557-0.012l-0.383-0.155l-0.804-0.384
		l0.439-0.375l-0.721-0.747c0.003-0.056-0.013-0.108-0.15-0.224l-0.218-0.586l0.408-0.223l-1.13-0.271l-2.473-2.483l0.271,0.042
		l-0.639-0.465l-0.272-0.859l-0.244,0.314l-2.001-2.368l0.627,0.058l-2.264-1.169l0.534-0.138l-1.275-0.696l-0.688-0.055
		l0.072-0.068l-0.935-0.687l0.396-0.15l-0.518-1.398l-0.533,0.076l-0.043-0.63l-1.643-0.055l-0.077-0.099l0.586-0.465l-1.299-0.342
		l-1.55-1.832l0.791-0.386l-1.415-1.86c-0.28,0.807-0.8-0.098-1.28,0.043l-0.267-0.279c-0.104-0.33,0.229-0.534,0.164-0.812
		l-1.758-1.794l0.148-0.078l-2.131-1.514l-0.063-0.081l0.354-0.136c-0.187-0.482-0.438-0.295-0.681-0.256l-0.229-0.234l0.271-0.05
		l-1.297-1.162l-0.02-0.009l0.408-0.077l-1.007-0.615l-0.365-0.428l0.425-0.128l-1.048-0.615l-0.025-0.023l0.044-0.478l-0.948-0.589
		l-0.28-0.301l0.028-0.689l-5.462-5.643l-0.639-0.736c0.256-0.632,0.741,0.21,0.919-0.303c-0.47,0.397-0.468-0.284-1.194-0.813
		l0.027-0.096l-0.579-0.788l-0.123,0.124c-0.593-0.076-0.015-1.245-0.771-0.897l0.124-0.545l-1.062-0.664l0.124-0.041l-1.274-1.182
		l-0.958-0.348l-0.33-0.383l0.337-0.277c-1.066-1.094-2.561-2.52-3.57-3.486l-1.102-1.283l-8.755,6.916
		c-0.551,0.319-0.893,0.691-1.353,1.055l-2.818,2.214l-0.277-0.048c-0.178,0.128-0.186,0.359-0.33,0.521l-0.834,0.665l0.28,1.688
		c0.017,0.313,0.048,0.623,0.127,0.937l0.688,4.134l0.856,0.98c0.45,0.542,0.916,1.154,1.379,1.718l-0.434-0.096l0.113,0.688
		l0.501,0.232l-0.354,0.251l1.455,1.789l0.146-0.538l0.992,1.118l-0.531,0.336l0.398,0.202l-0.738,0.263
		c0.9-0.433,1.132,0.875,1.392,0.951l-0.142,0.028c0.214,0.801,0.244-0.35,0.569,0.037l-0.526,1.147l1.808,2.312l1.842,1.174
		l0.002,0.728l-1.408,0.687l0.442,0.623l0.266-0.586c0.268-0.699,0.75,0.89,1.028-0.025l1.664,2.27l-0.688,0.342l1.706,1.199
		l0.647-0.705l0.532,0.242l-0.536,1.398c-0.752,0.332-0.683-1.012-1.103-0.28c-0.688,0.128-1.523-0.879-1.397-1.325
		c-0.929-0.099,0.25,0.436-0.354,0.736l1.456,1.074l0.613-0.305c1.043,0.188,0.229,1.078,0.313,1.246l-0.384-0.187l0.941,0.876
		c-0.61,0.684-0.638-0.637-1.217-0.46l-0.249,0.713l1.096,0.567l-0.332,0.106l0.53,0.315l0.229-0.928
		c0.883-0.3,0.37,0.267,0.964,0.744l0.128-0.533l0.94,0.306l-0.328,0.987l-0.229-0.522c-0.852-0.28-0.587,0.896-1.194,0.692
		c0.154,0.789,0.801,0.043,1.093,0.578c-0.585-0.33,0.224-0.354,0.296-0.631c1.667-0.024-0.383,1.109,0.417,1.733
		c0.551-0.69,1.737,0.272,2.04-0.86l0.666,0.434l-0.792,0.613l0.213,0.28l-0.868,0.021l-0.056,1.658l0.813-0.105l-0.174,0.674
		l0.96-0.352l-0.022,1.095l-0.688-0.076l0.332,0.476l1.246-0.41l0.258,0.682l-0.592-0.193l0.021,1.101l0.466-0.147l-0.291,0.334
		l0.702,0.314l-0.193,0.238c0.347,0.107,1.067-0.043,0.841,0.623l-0.278-0.891l0.839,0.119c-0.617,0.463,0.412,0.646,0.626,0.926
		l-0.11,0.788l0.469-0.229c-0.654,0.738,0.579,0.434,0.688,0.901l-0.565,0.638l1.432-0.57c0.352,0.683-0.812,0.49-1.05,0.988
		l1.066,0.523l0.718-0.408l-0.178,0.656l0.809-0.441l0.992,0.787l1.093,0.026l1.068-0.562c0.056,0.043,0.096,0.097,0.14,0.146
		c-0.194-0.025-0.519-0.102-0.605,0.314l0.318,0.195c-0.181,0.939-1.733,0.162-1.861,0.954l0.518,0.116l-0.688,0.557l0.973,0.539
		l-0.04-0.349l1.403,0.478l-0.647,0.645l0.63,0.182l-0.229,0.17c1.216,1.295,2.893,2.818,4.732,2.969l0.729,1.854l0.484-0.282
		l-0.026,0.733l1.532,0.737l-0.151,0.429l0.742,0.106l-0.026,0.504l0.273-0.267l0.626,0.902l0.351-0.278l2.27,1.257l0.026-0.788
		l0.617-0.004l-0.369,0.568c0.584,1.224,2.384,1.337,3.604,2.076l0.48-0.196l2.586,1.502l0.942-0.728
		c0.69-0.271-0.047,0.802,0.308,1.318l0.98,0.148l-0.078,0.088l1.167,0.314l-0.064,0.013l0.82,0.756l1.198-0.157l0.024,0.232
		l0.13-0.408l0.526,0.504l-0.433,0.323l0.688-0.369c3.807-1.501,1.4-0.583,2.508-0.884c-0.855,0.65,1.875-0.613-2.374,1.232
		c-0.523,0.393,1.704-0.537,2.607-0.906l-0.082-0.613l0.799-0.557l0.047-0.84l-0.818,0.35l0.383-0.576l-0.064-0.434l0.763-0.065
		l0.162-1.071l1.181,0.266l-0.11-0.772l0.485-0.097c0.804-0.772-0.536-1.641,0.274-2.117l0.433,0.076l-0.018-0.465
		c1.424,0.023,1.572-1.941,2.723-2.664l0.036-0.904l0.803-0.709l-0.692-0.21c0.737-0.423-0.25-1.599,0.711-1.526l0.368,0.604
		C413.253,439.479,411.076,433.567,411.507,435.198z M352.015,402.559l0.528-0.79L352.015,402.559z"/>
	<polygon fill="#BA7DA7" points="395.156,418.007 395.224,418.052 395.515,418.062 	"/>
	<polygon fill="#BA7DA7" points="408.204,444.938 408.038,445.235 408.351,445.286 	"/>
	<polygon fill="#BA7DA7" points="408.038,445.235 407.944,445.222 407.941,445.381 	"/>
	<polygon fill="#BA7DA7" points="357.955,415.264 357.823,415.13 357.609,415.666 	"/>
	<path fill="#BA7DA7" d="M404.492,451.659v0.024C405.125,451.403,404.916,451.487,404.492,451.659z"/>
	<polygon fill="#BA7DA7" points="404.84,449.399 404.826,449.437 404.847,449.618 	"/>
	<polygon fill="#BA7DA7" points="374.988,434.952 374.988,434.94 374.18,434.937 	"/>
	<line fill="none" x1="352.015" y1="402.559" x2="352.542" y2="401.767"/>
	<polygon fill="#BA7DA7" points="357.456,413.963 357.814,414.228 357.814,413.935 	"/>
	<line fill="none" x1="359.656" y1="416.63" x2="358.525" y2="416.046"/>
	<line fill="none" x1="360.612" y1="419.755" x2="360.237" y2="419.843"/>
	<line fill="none" x1="361.321" y1="420.137" x2="361.273" y2="419.538"/>
	<line fill="none" x1="365.121" y1="425.864" x2="364.765" y2="425.321"/>
	<polygon fill="#BA7DA7" points="366.802,427.801 367.171,427.702 367.021,427.498 	"/>
	<polygon fill="#BA7DA7" points="411.551,440.272 411.61,439.911 411.335,440.083 	"/>
	<line fill="none" x1="397.178" y1="418.202" x2="397.128" y2="418.629"/>
	<polygon fill="#BA7DA7" points="387.517,409.558 387.434,409.474 387.059,409.913 	"/>
	<polygon fill="#BA7DA7" points="182.638,151.783 182.604,151.822 182.649,151.999 	"/>
	<polygon fill="#BA7DA7" points="172.956,120.365 173.065,120.417 173.315,120.438 	"/>
	<polygon fill="#BA7DA7" points="185.836,147.608 185.74,147.596 185.736,147.759 	"/>
	<polygon fill="#BA7DA7" points="135.717,117.617 135.608,117.496 135.398,118.024 	"/>
	<polygon fill="#BA7DA7" points="186.007,147.322 185.836,147.608 186.15,147.669 	"/>
	<line fill="none" x1="151.967" y1="137.288" x2="152.767" y2="137.307"/>
	<path fill="#BA7DA7" d="M127.181,98.737l0.681,4.134l0.843,0.959c0.462,0.548,0.913,1.161,1.361,1.719l-0.423-0.096l0.095,0.69
		l0.512,0.229l-0.357,0.255l1.474,1.783l0.132-0.546l1.005,1.114l-0.547,0.333l0.402,0.209l-0.738,0.278
		c0.918-0.436,1.132,0.866,1.409,0.953l-0.176,0.024c0.23,0.794,0.246-0.367,0.58,0.027l-0.518,1.146l1.798,2.312l1.838,1.189
		l0.025,0.724l-1.428,0.688l0.463,0.636l0.245-0.607c0.281-0.706,0.768,0.89,1.043-0.025l1.652,2.275l-0.682,0.353l1.714,1.217
		l0.644-0.729l0.528,0.244l-0.542,1.403c-0.759,0.326-0.671-1.021-1.094-0.292c-0.686,0.135-1.544-0.868-1.399-1.319
		c-0.94-0.104,0.238,0.434-0.345,0.744l1.468,1.065l0.599-0.305c1.042,0.197,0.202,1.068,0.305,1.256l-0.383-0.208l0.925,0.878
		c-0.607,0.676-0.62-0.634-1.175-0.46l-0.271,0.708l1.08,0.57l-0.302,0.121l0.488,0.313l0.256-0.932
		c0.866-0.288,0.353,0.258,0.961,0.748l0.136-0.531l0.932,0.308l-0.322,0.97l-0.23-0.508c-0.869-0.277-0.606,0.894-1.206,0.696
		c0.169,0.774,0.797,0.045,1.094,0.57c-0.556-0.325,0.234-0.359,0.31-0.618c1.669-0.025-0.361,1.113,0.432,1.736
		c0.527-0.688,1.721,0.269,2.02-0.877l0.68,0.445l-0.813,0.604l0.222,0.287l-0.863,0.011l-0.067,1.656l0.809-0.1l-0.149,0.681
		l0.941-0.355l0.021,1.103l-0.689-0.077l0.314,0.463l1.248-0.396l0.256,0.666l-0.596-0.189l0.019,1.098l0.463-0.137l-0.296,0.339
		l0.716,0.297l-0.197,0.228c0.318,0.108,1.07-0.028,0.85,0.643l-0.294-0.898l0.815,0.111c-0.604,0.47,0.432,0.64,0.637,0.933
		l-0.107,0.778l0.483-0.229c-0.66,0.738,0.58,0.438,0.649,0.918l-0.561,0.628l1.452-0.573c0.336,0.69-0.841,0.505-1.062,1.002
		l1.051,0.5l0.737-0.394l-0.187,0.655l0.824-0.456l0.977,0.809l1.103,0.021l1.044-0.577c0.049,0.052,0.092,0.104,0.136,0.158
		c-0.19-0.012-0.499-0.093-0.593,0.323l0.318,0.194c-0.193,0.941-1.755,0.146-1.863,0.95l0.503,0.103l-0.659,0.564l0.952,0.551
		l-0.018-0.362l1.37,0.463l-0.641,0.668l0.643,0.188l-0.246,0.164c1.244,1.292,2.91,2.819,4.761,2.978l0.714,1.85l0.501-0.28
		l-0.065,0.711l1.532,0.748l-0.126,0.432l0.724,0.09l-0.007,0.521l0.274-0.259l0.611,0.906l0.342-0.282l2.315,1.271l0.006-0.795
		l0.625,0.002l-0.385,0.566c0.598,1.229,2.391,1.334,3.598,2.076l0.471-0.2l2.603,1.502l0.926-0.732
		c0.736-0.264-0.046,0.795,0.34,1.336l0.964,0.144l-0.042,0.082l1.188,0.316l-0.083,0.008l0.835,0.771l1.186-0.167l0.021,0.237
		l0.115-0.42l0.532,0.506l-0.42,0.322l0.688-0.365c3.824-1.456,1.399-0.564,2.521-0.853c-0.862,0.65,1.867-0.597-2.394,1.2
		c-2.368,1.237,3-1.047,2.613-0.856l-0.104-0.64l0.81-0.546l0.054-0.842l-0.817,0.351l0.371-0.564l-0.063-0.441l0.744-0.062
		l0.2-1.065l1.177,0.259l-0.114-0.77l0.49-0.104c0.801-0.767-0.535-1.632,0.278-2.123l0.417,0.081l-0.026-0.458
		c1.435,0.026,1.592-1.942,2.741-2.676l0.037-0.902l0.801-0.696l-0.702-0.229c0.739-0.413-0.252-1.579,0.71-1.516l0.369,0.595
		c1.379,0.14-0.788-5.783-0.331-4.143l-1.028,0.37l-0.114-1.382l-0.599-0.524l0.431,0.015l-1.31-0.911l-0.866-1.887
		c-0.747,0.152-0.495-0.993-1.181-0.47l0.107-0.258l-1.115-0.02l0.501-0.293l-0.273-1.056l-0.58-0.025l-0.372-0.157l-0.79-0.37
		l0.439-0.382l-0.736-0.756c0.003-0.055-0.013-0.103-0.146-0.203l-0.215-0.597l0.4-0.204l-1.123-0.276l-2.478-2.49l0.275,0.053
		l-0.646-0.473l-0.278-0.847l-0.231,0.309l-1.988-2.366l0.599,0.038l-2.266-1.164l0.541-0.142l-1.248-0.703l-0.728-0.044
		l0.067-0.076l-0.936-0.696l0.398-0.131l-0.495-1.396l-0.561,0.076l-0.019-0.625l-1.654-0.048l-0.089-0.1l0.604-0.471l-1.312-0.346
		l-1.547-1.827l0.79-0.389l-1.423-1.867c-0.253,0.807-0.801-0.103-1.276,0.042l-0.227-0.271c-0.139-0.333,0.214-0.535,0.146-0.808
		l-1.75-1.801l0.126-0.077l-2.097-1.484l-0.092-0.102l0.385-0.128c-0.217-0.498-0.479-0.304-0.716-0.268l-0.208-0.243l0.254-0.053
		l-1.294-1.153l-0.016-0.008l0.407-0.071l-0.995-0.617l-0.364-0.422l0.398-0.143l-1.047-0.615l-0.015-0.021l0.032-0.47l-0.944-0.601
		l-0.272-0.3l0.031-0.717l-5.443-5.625l-0.646-0.748c0.245-0.62,0.731,0.209,0.908-0.314c-0.475,0.403-0.465-0.271-1.196-0.805
		l0.056-0.083l-0.6-0.8l-0.111,0.121c-0.583-0.064-0.016-1.248-0.771-0.905l0.116-0.541l-1.043-0.666L148,91.749l-1.276-1.187
		l-0.96-0.346l-0.325-0.386l0.343-0.271c-1.113-1.179-2.726-2.68-3.708-3.662l-0.98-1.141l-8.727,6.895
		c-0.535,0.326-0.896,0.704-1.354,1.075l-2.802,2.214l-0.254-0.038c-0.198,0.127-0.223,0.372-0.355,0.531l-0.844,0.679l0.262,1.629
		C127.066,98.085,127.096,98.397,127.181,98.737z M130.327,104.126l-0.554,0.781L130.327,104.126z"/>
	<line fill="none" x1="129.776" y1="104.904" x2="130.327" y2="104.126"/>
	<polygon fill="#BA7DA7" points="135.228,116.317 135.593,116.574 135.594,116.292 	"/>
	<line fill="none" x1="137.436" y1="118.974" x2="136.296" y2="118.396"/>
	<line fill="none" x1="138.399" y1="122.103" x2="137.998" y2="122.188"/>
	<line fill="none" x1="139.103" y1="122.481" x2="139.033" y2="121.888"/>
	<line fill="none" x1="142.913" y1="128.223" x2="142.549" y2="127.67"/>
	<polygon fill="#BA7DA7" points="144.586,130.157 144.966,130.055 144.802,129.857 	"/>
	<polygon fill="#BA7DA7" points="189.354,142.647 189.416,142.298 189.139,142.455 	"/>
	<line fill="none" x1="174.924" y1="121.003" x2="174.994" y2="120.581"/>
	<polygon fill="#BA7DA7" points="165.252,111.856 164.875,112.282 165.307,111.924 	"/>
	<path fill="#BA7DA7" d="M331.404,478.655l0.45-1.319l-0.329-0.708l0.375,0.207l-0.813-1.359l-0.042-2.066
		c-0.749-0.17-0.053-1.106-0.89-0.906l0.217-0.172l-1.021-0.498l0.553-0.063c0.706-0.139-0.126-0.892,0.199-1.092l-0.507-0.24
		l-0.285-0.298l-0.588-0.661l0.581-0.175l-0.387-0.991c0.023-0.052,0.023-0.105-0.05-0.24l0.073-0.637l0.44-0.022l-0.921-0.701
		c0.068-1.187-0.911-2.897-1.278-3.284l0.242,0.16l-0.395-0.688l0.076-0.892l-0.33,0.179l-0.873-2.959l0.534,0.28l-1.603-1.987
		l0.541,0.092l-0.858-1.146l-0.638-0.336l0.101-0.024l-0.59-1l0.421,0.021c0.644-0.322,0.077-1.336,0.109-1.467l-0.513-0.148
		l0.218-0.589l-1.498-0.713l-0.044-0.127l0.738-0.182l-1.029-0.84l-0.705-2.315l0.89-0.027l-0.566-2.292
		c-0.563,0.646-0.68-0.383-1.181-0.472l-0.1-0.341c0.021-0.356,0.407-0.385,0.455-0.664l-0.886-2.363l0.164-0.007l-1.333-2.24
		l-0.025-0.112l0.378,0.024c0.024-0.534-0.288-0.461-0.521-0.517l-0.108-0.297l0.275,0.062l-0.736-1.604l0.4,0.101l-0.646-0.966
		l-0.177-0.535l0.433,0.029l-0.69-0.977l-0.027-0.029l0.253-0.418l-0.652-0.941l-0.109-0.36l0.31-0.633l-2.715-7.405l-0.291-0.896
		c0.486-0.471,0.606,0.5,0.97,0.084c-0.585,0.193-0.325-0.42-0.771-1.215l0.074-0.061l-0.219-0.977l-0.16,0.063
		c-0.487-0.299,0.508-1.147-0.332-1.131l0.332-0.467l-0.689-1.032l0.135,0.021c0.094-0.754-1.161-1.184-0.705-1.605l-0.736-0.714
		l-0.139-0.472l0.433-0.1c-0.551-1.518-1.399-3.544-1.928-4.837l-0.432-1.446l-10.769,2.774c-0.637,0.075-1.119,0.278-1.695,0.437
		l-3.452,0.893l-0.233-0.145c-0.225,0.047-0.322,0.24-0.513,0.338l-1.056,0.271l-0.416,1.629c-0.108,0.309-0.192,0.616-0.258,0.941
		l-1.084,4.057l0.393,1.239c0.199,0.67,0.371,1.424,0.563,2.124l-0.347-0.274l-0.185,0.671l0.379,0.426l-0.416,0.097l0.603,2.2
		l0.341-0.434l0.447,1.428l-0.623,0.098l0.28,0.34l-0.788-0.029c1.02-0.048,0.688,1.246,0.903,1.43l-0.158-0.037
		c-0.11,0.814,0.374-0.231,0.511,0.26l-0.932,0.825l0.722,2.854l1.176,1.813c0.155,0.6-0.718,0.163-0.255,0.675
		c-0.637-0.018-1.146,0.814-1.599,0.043l0.188,0.754l0.466-0.451c0.535-0.523,0.342,1.146,0.955,0.393l0.604,2.77l-0.747,0.045
		l1.048,1.797l0.898-0.392l0.353,0.429l-1.046,1.069c-0.821-0.015-0.201-1.196-0.884-0.706l-0.739-1.782
		c-0.808-0.452,0.036,0.501-0.624,0.537l0.91,1.569l0.674-0.031c0.855,0.592-0.242,1.068-0.221,1.277l-0.274-0.342l0.495,1.196
		c-0.843,0.353-0.305-0.841-0.899-0.901l-0.527,0.547c0.138,0.856,0.769,0.043,0.78,0.971l-0.357-0.027l0.339,0.48l0.601-0.754
		l0.586,1.089l0.343-0.435l0.732,0.664l-0.692,0.76l-0.005-0.564l-1.399,0.156l0.785,0.958c-0.388-0.533,0.354-0.229,0.522-0.44
		c1.553,0.637-0.773,0.863-0.288,1.762c0.759-0.433,1.469,0.941,2.203,0.012l0.433,0.68l-0.992,0.23l0.08,0.353l-0.789-0.323
		l-0.726,1.48l0.783,0.232l-0.423,0.563l1.021,0.057l-0.444,1.01l-0.603-0.351l0.081,0.541l1.318,0.142l-0.024,0.715l-0.471-0.418
		l-0.438,1.029l0.482,0.04l-0.4,0.216l0.535,0.547l-0.28,0.138l0.513,0.918l0.105-0.942c0.438-0.453,0.604,0.352,0.688,0.444
		c-0.735,0.181,0.138,0.756,0.229,1.101l-0.403,0.662l0.5-0.025c-0.885,0.429,0.375,0.639,0.236,1.102l-0.756,0.355l1.553,0.072
		c0.031,0.756-0.943,0.108-1.369,0.48l0.746,0.891l0.844-0.074l-0.418,0.537l0.914-0.089l0.577,1.146l-0.726-0.351
		c0.305,0.888,1.237,0.048,1.705,0.788l1.204-0.076c0.025,0.055,0.037,0.127,0.077,0.184c-0.173-0.075-0.431-0.284-0.688,0.063
		l0.229,0.304c-0.575,0.787-1.678-0.57-2.108,0.129l0.434,0.283l-0.841,0.26l0.668,0.886l0.109-0.33l1.079,0.993l-0.842,0.324
		l0.484,0.434l-0.289,0.063c0.629,1.689,1.533,3.742,3.165,4.644l-0.107,1.987l0.574-0.063l-0.325,0.636l1.097,1.293l-0.297,0.33
		l0.626,0.387l-0.23,0.469l0.352-0.128c0.396,0.306,0.795,0.788,0.217,1.082l0.428-0.118l1.583,2.075l0.347-0.72l0.556,0.25
		l-0.563,0.379l2.44,3.338l0.522,0.009l1.756,2.433l1.164-0.298c0.773,0.054-0.362,0.726-0.229,1.359l0.835,0.522l-0.076,0.046
		l0.94,0.762l-0.084-0.018l0.463,1.026l1.156,0.344l-0.075,0.214l0.278-0.316l0.271,0.681l-0.501,0.118
		c0.278,0.75,0.383-0.153,0.775-0.066c4.091,0.183,1.49,0.038,2.65,0.231c-1.064,0.251,1.948,0.177-2.667,0.152
		c-0.652,0.139,1.775,0.205,2.746,0.228l0.168-0.593l0.953-0.179l0.374-0.754l-0.891-0.021l0.579-0.354l0.126-0.434l0.711,0.262
		l0.586-0.908c0.278,0.395,0.332,1.012,0.961,0.708l0.232-0.735l0.476,0.098c1.053-0.383,0.178-1.716,1.109-1.827l0.355,0.229
		l0.175-0.41c1.295,0.608,2.239-1.152,3.574-1.347c-0.452-0.524,0.328-0.471,0.407-0.814c0.331,0.635,0.492-0.494,1.024-0.318
		l-0.544-0.482c0.82-0.077,0.41-1.559,1.26-1.114l0.077,0.688c1.2,0.688,1.653-5.596,1.396-3.92L331.404,478.655z M291.13,424.812
		l0.813-0.486L291.13,424.812z"/>
	<polygon fill="#BA7DA7" points="324.447,456.378 324.512,456.466 324.738,456.583 	"/>
	<path fill="#BA7DA7" d="M319.387,490.944l-0.022,0.024C320.058,490.962,319.841,490.969,319.387,490.944z"/>
	<polygon fill="#BA7DA7" points="291.471,438.846 291.419,438.669 290.99,439.079 	"/>
	<polygon fill="#BA7DA7" points="320.617,489.02 320.567,489.049 320.527,489.218 	"/>
	<polygon fill="#BA7DA7" points="325.206,486.491 325.138,486.434 325.057,486.592 	"/>
	<polygon fill="#BA7DA7" points="325.492,486.296 325.206,486.491 325.489,486.67 	"/>
	<line fill="none" x1="291.13" y1="424.812" x2="291.945" y2="424.323"/>
	<polygon fill="#BA7DA7" points="291.545,437.45 291.762,437.841 291.886,437.586 	"/>
	<line fill="none" x1="292.473" y1="440.776" x2="291.686" y2="439.78"/>
	<line fill="none" x1="292.096" y1="444.026" x2="291.716" y2="443.955"/>
	<line fill="none" x1="292.774" y1="444.081" x2="292.583" y2="444.661"/>
	<line fill="none" x1="293.761" y1="451.454" x2="293.654" y2="450.794"/>
	<polygon fill="#BA7DA7" points="294.502,453.883 294.898,453.959 294.854,453.698 	"/>
	<polygon fill="#BA7DA7" points="330.445,483.376 330.639,483.075 330.325,483.125 	"/>
	<line fill="none" x1="325.998" y1="457.754" x2="326.215" y2="457.387"/>
	<polygon fill="#BA7DA7" points="320.817,445.475 320.307,445.7 320.863,445.577 	"/>
	<path fill="#BA7DA7" d="M207.869,63.549l-0.352-0.264l-0.166,0.672l0.377,0.418l-0.433,0.092l0.621,2.214l0.331-0.432l0.461,1.421
		l-0.62,0.103l0.271,0.322l-0.767-0.026c1.008-0.036,0.689,1.25,0.896,1.436l-0.147-0.037c-0.13,0.813,0.354-0.235,0.492,0.263
		l-0.935,0.836l0.723,2.84l1.196,1.821c0.148,0.585-0.757,0.151-0.28,0.666c-0.611-0.012-1.134,0.816-1.569,0.045l0.174,0.761
		l0.472-0.456c0.526-0.533,0.321,1.124,0.942,0.396l0.611,2.754l-0.76,0.042l1.072,1.812l0.871-0.4l0.379,0.432l-1.063,1.074
		c-0.805,0.007-0.201-1.196-0.889-0.704l-0.732-1.782c-0.816-0.468,0.049,0.504-0.637,0.536l0.93,1.568l0.665-0.029
		c0.875,0.603-0.23,1.073-0.229,1.266l-0.271-0.334l0.5,1.183c-0.836,0.369-0.332-0.838-0.89-0.896l-0.528,0.536
		c0.119,0.858,0.766,0.056,0.743,0.974l-0.34-0.027l0.319,0.487l0.637-0.751l0.564,1.085l0.343-0.434l0.736,0.651l-0.694,0.762
		l-0.008-0.566l-1.374,0.158l0.765,0.964c-0.384-0.527,0.356-0.23,0.519-0.454c1.568,0.653-0.76,0.886-0.308,1.761
		c0.776-0.422,1.472,0.938,2.211,0.019l0.43,0.684l-0.954,0.228l0.082,0.347l-0.806-0.339l-0.725,1.498l0.793,0.233l-0.417,0.558
		l1.01,0.046l-0.453,1.016l-0.598-0.354l0.105,0.559l1.3,0.134l-0.026,0.712l-0.475-0.402l-0.422,1.017l0.472,0.05l-0.398,0.194
		l0.532,0.561l-0.278,0.129l0.519,0.916l0.104-0.928c0.44-0.46,0.618,0.346,0.709,0.433c-0.748,0.187,0.128,0.752,0.199,1.107
		l-0.42,0.655h0.535c-0.896,0.409,0.355,0.623,0.234,1.094l-0.773,0.353l1.573,0.064c0.026,0.76-0.979,0.12-1.377,0.491l0.755,0.878
		l0.82-0.075l-0.416,0.542l0.903-0.102l0.596,1.146l-0.743-0.351c0.33,0.888,1.257,0.057,1.735,0.796l1.195-0.085
		c0.016,0.063,0.041,0.127,0.038,0.182c-0.149-0.076-0.413-0.29-0.658,0.05l0.235,0.329c-0.569,0.778-1.677-0.574-2.098,0.12
		l0.411,0.3l-0.83,0.249l0.654,0.88l0.107-0.338l1.095,0.999l-0.862,0.331l0.503,0.422l-0.282,0.063
		c0.604,1.679,1.515,3.747,3.146,4.641l-0.095,1.978l0.584-0.055l-0.325,0.648l1.082,1.283l-0.296,0.327l0.629,0.4l-0.222,0.462
		l0.354-0.127c0.394,0.31,0.803,0.791,0.186,1.072l0.447-0.112l1.583,2.08l0.351-0.725l0.557,0.251l-0.564,0.373l2.442,3.344
		l0.503,0.015l1.788,2.415l1.145-0.291c0.775,0.055-0.358,0.729-0.244,1.361l0.841,0.532l-0.077,0.04l0.942,0.765l-0.079-0.008
		l0.466,1.025l1.147,0.341l-0.07,0.216l0.269-0.327l0.272,0.674l-0.525,0.116c0.283,0.766,0.386-0.154,0.763-0.064
		c4.121,0.187,1.528,0.05,2.682,0.229c-1.063,0.25,1.954,0.188-2.667,0.16c-0.673,0.136,1.767,0.195,2.731,0.224l0.169-0.596
		l0.967-0.18l0.378-0.749l-0.896-0.013l0.583-0.377l0.126-0.423l0.722,0.25l0.567-0.897c0.288,0.383,0.354,0.995,0.982,0.701
		l0.224-0.738l0.483,0.107c1.038-0.384,0.178-1.724,1.117-1.845l0.354,0.242l0.157-0.428c1.317,0.605,2.239-1.146,3.572-1.335
		c-0.454-0.533,0.367-0.47,0.413-0.82c0.336,0.628,0.49-0.486,1.022-0.321l-0.562-0.48c0.854-0.075,0.412-1.56,1.258-1.113
		l0.101,0.696c1.217,0.688,1.584-5.612,1.354-3.931l-1.072-0.073l0.451-1.316l-0.332-0.713l0.357,0.202l-0.81-1.368l-0.044-2.066
		c-0.733-0.153-0.05-1.104-0.876-0.899l0.212-0.169l-1.037-0.484l0.569-0.073c0.692-0.136-0.122-0.895,0.185-1.092l-0.511-0.239
		l-0.28-0.293l-0.555-0.663l0.542-0.167l-0.375-0.993c0.026-0.041,0.036-0.095-0.055-0.245l0.058-0.636l0.445-0.024l-0.921-0.705
		c0.079-1.167-0.889-2.877-1.266-3.276l0.229,0.162l-0.382-0.675l0.083-0.896l-0.339,0.178l-0.868-2.963l0.541,0.282l-1.605-1.977
		l0.545,0.084l-0.86-1.152l-0.638-0.331l0.086-0.032l-0.563-1.011l0.404,0.029c0.646-0.329,0.071-1.333,0.124-1.467l-0.533-0.146
		l0.217-0.598l-1.487-0.716l-0.051-0.128l0.749-0.188l-1.042-0.831l-0.705-2.315l0.899-0.025l-0.551-2.292
		c-0.565,0.639-0.681-0.396-1.185-0.483l-0.106-0.341c0.013-0.346,0.407-0.382,0.45-0.668l-0.863-2.36l0.144-0.013l-1.333-2.225
		l-0.024-0.121l0.378,0.025c0.024-0.529-0.279-0.455-0.531-0.502l-0.093-0.323l0.264,0.07l-0.719-1.604l0.404,0.103l-0.673-0.976
		l-0.146-0.533l0.407,0.028l-0.7-0.967l-0.012-0.045l0.229-0.405l-0.65-0.941l-0.112-0.366l0.313-0.634l-2.708-7.345l-0.292-0.963
		c0.482-0.456,0.594,0.505,0.961,0.085c-0.593,0.194-0.316-0.411-0.755-1.21l0.065-0.054l-0.211-0.981l-0.146,0.066
		c-0.518-0.304,0.472-1.149-0.347-1.141l0.339-0.442l-0.717-1.043l0.143,0.012c0.092-0.754-1.164-1.178-0.688-1.598l-0.741-0.727
		l-0.142-0.464l0.432-0.105c-0.538-1.417-1.299-3.284-1.84-4.579l-0.5-1.664l-10.845,2.776c-0.621,0.076-1.068,0.28-1.632,0.418
		l-3.501,0.891l-0.229-0.137c-0.202,0.045-0.322,0.243-0.496,0.322l-1.035,0.286l-0.433,1.646c-0.104,0.314-0.198,0.591-0.241,0.942
		l-1.067,4.052l0.381,1.247C207.497,62.096,207.696,62.854,207.869,63.549z M208.679,62.341l-0.816,0.496L208.679,62.341z"/>
	<path fill="#BA7DA7" d="M236.099,128.964l-0.001,0.014C236.791,128.973,236.576,128.973,236.099,128.964z"/>
	<polygon fill="#BA7DA7" points="241.944,124.493 241.866,124.447 241.792,124.611 	"/>
	<polygon fill="#BA7DA7" points="242.201,124.298 241.944,124.493 242.199,124.675 	"/>
	<polygon fill="#BA7DA7" points="237.312,127.041 237.3,127.045 237.263,127.232 	"/>
	<polygon fill="#BA7DA7" points="241.151,94.374 241.211,94.456 241.441,94.572 	"/>
	<line fill="none" x1="210.474" y1="89.47" x2="210.356" y2="88.815"/>
	<polygon fill="#BA7DA7" points="211.24,91.915 211.632,91.977 211.545,91.73 	"/>
	<polygon fill="#BA7DA7" points="247.158,121.382 247.363,121.077 247.04,121.125 	"/>
	<line fill="none" x1="242.702" y1="95.749" x2="242.905" y2="95.385"/>
	<path fill="#BA7DA7" d="M369.76,210.014c0.162,0.107,0.328,0.201,0.484,0.313C370.906,209.785,370.464,209.836,369.76,210.014z"/>
	<path fill="#BA7DA7" d="M222.766,145.097c-1.253-0.78-0.178-3.635-2.175-3.13c-0.618,3.101,3.61,5.731,6.884,5.696
		c0.262,0.216,0.301,0.382,0.452,0.581c-0.662-1.146-0.992-2.275-0.682-3.445C225.751,144.692,223.547,142.426,222.766,145.097z"/>
	<path fill="#BA7DA7" d="M228.349,148.914c-0.15-0.227-0.298-0.451-0.429-0.683"/>
	<path fill="#BA7DA7" d="M350.661,315.096c0.089-0.448,0.196-0.863,0.152-1.398"/>
	<path fill="#BA7DA7" d="M139.461,292.546c0.395-0.276,1.015-0.197,1.543-0.283C140.607,291.552,140.12,291.413,139.461,292.546z"/>
	<path fill="#BA7DA7" d="M166.823,184.696c-0.291,0.199-0.562,0.635-0.804,1.588"/>
	<path fill="#BA7DA7" d="M228.706,142.564c-0.867,0.779-1.252,1.506-1.463,2.227C227.978,144.835,228.565,144.413,228.706,142.564z"
		/>
	<path fill="#BA7DA7" d="M295.072,158.357c-0.232,0.316-0.501,0.355-0.749,0.589"/>
	<path fill="#BA7DA7" d="M227.419,342.306c-0.164,0.082-0.284,0.33-0.444,0.473c0.449,0.205,0.818,0.382,1.326,0.622
		L227.419,342.306z"/>
	<path fill="#783E67" d="M342.159,367.573c8.932,5.367,13.995-6.742,22.642-8.228c-3.715-3.587,1.619-3.484,1.553-5.985
		c3.257,4.305,2.563-3.651,6.387-2.724l-4.544-2.988c5.669-1.094-0.717-10.99,5.961-8.765c2.984-0.924,2.321,3.182,2.2,4.635
		c7.099,1.006,2.838-10.465,9.542-9.288c-1.559-1.485-4.999-2.619-4.789-6.298c3.464-0.636,8.556-3.819,9.058-3.044
		c0.12-2.55-1.148-3.807,1.649-5.152c1.146,0.792,0.83,1.85,1.014,2.845c2.928-3.037,2.673-6.767,1.752-10.805
		c4.396-0.68,4.807-8.109,7.912-12.218c-4.57-3.454,2.896-7.447-3.479-8.512l1.972-0.573c-1.68-1.907-5.671-3.445-5.796-5.448
		l4.154,0.767c5.628,0.638,0.903-6.121,3.454-6.806c-3.457,2.063-0.15-2.489-3.404-2.418l-1.568-2.363
		c-1.461-3.759-2.111-0.21-3.165-4.843c-0.767-2.527,4.746-1.834,4.295-0.737c1.721-2.73-0.182-4.76-1.775-6.843
		c-0.025-0.114-0.023-0.208-0.078-0.341c0.199-0.703-0.016-1.599-0.244-2.543c0.145-0.152,0.083-0.348-0.126-0.585
		c-0.179-0.816-0.221-1.618,0.247-2.284l3.371-0.33c-0.372-1.807-5.316-5.162-6.581-4.453c0.038-6.766-6.845-15.591-10.136-17.878
		c1.097,0.44,2.126,0.051,0.671-0.22c-1.738-1.812-5.456-2.567-3.745-3.772c-2.31-1.026,0.892-2.825-0.683-5.732
		c0.575-0.439-3.021,1.442-2.158,1.945c1.262-7.785-10.146-8.039-11.664-15.207c-0.33,0.946,2.358-0.039,3.722-0.382
		c-4.381-2.892-8.782-5.428-15-5.219l3.695-1.777c-2.675-2.262-6.339-4.275-9.441-2.89c0.78,2.698,1.247-1.313,2.34-0.154
		c-0.064,3.818-5.222,3.384-6.332,1.387l0.373-0.605c-2.511-2.143-3.666-0.754-6.607-2.188c-0.687-2.522,2.014,0.034,2.479-2.059
		c2.242-4.806-5.238-6.643-5.521-7.492c-1.287,0.625-2.741,0.846-3.233,2.198c-2.964,0.021,0.257-3.357-1.519-4.021
		c-3.845,2.058-7.141,3.541-10.639,6.43c1.96-0.537-0.615-4.94,2.55-6.414c-5.763-0.506-10.251,4.917-13.623,7.627
		c-1.296-1.144-6.097,0.051-7.578-0.028c-0.587-2.913,1.29,0.437,1.789-1.694l-2.236-3.737c3.362,0.192-0.234-5.07,1.768-6.747
		c-2.984,0.643-9.797,0.783-14.423,0.272c3.694,5.557-5.427,3.799-4.165,9.045c-4.438,1.712-3.331-3.875-5.5-4.716l-13.315,6.424
		l-0.255-1.105c-3.127,3.469-10.149,5.342-11.375,11.48l-0.736-2.984c-5.066,0.495,2.899,6.305-3.371,5.93l-0.421-2.796
		c-1.451,3.117-7.446,2.064-6.488,7.688c-1.211-0.828-1.063-1.767-1.308-2.672c-1.231,3.391-3.971,6.154-2.772,10.542
		c-1.669-0.682-2.618-1.909-2.776-3.724c-3.706,1.501,1.582,5.645-1.505,7.13c-0.639,0.623-3.405,0.749-3.187,0.208
		c1.168,2.627-1.299,6.49-1.356,8.392c-1.741-0.546-2.86,0.188-5.482,0.904c-7.871,14.172-16.047,33.576-6.806,49.157
		c-4.406,4.07-4.517-3.229-7.643-0.775c4.545-0.959,2.214,2.834,5.383,7.711l-0.55,0.465c1.625,1.837-0.626,4.428,1.507,6.243
		l1.018-0.687c2.999,0.976-1,7.805,4.515,5.472l-1.043,3.537c5.882-1.71,2.03,4.188,7.538,3.258l-0.915,0.453
		c2.036,4.963,10.039,1.396,8.929,5.979c3.587,0.812,7.958,1.051,10.302-2.38c-0.003,1.654-1.525,3.751-2.62,4.812
		c12.621,1.336,27.731,11.973,37.135,0.482l0.213,2.553c4.996-6.166,15.801-0.485,15.934-10.89l-0.863-4.252
		c1.836,0.396,3.37,2.675,5.088,2.995c-0.693-2.804,4.356-4.072,2.03-6.997l2.242,2.332c2.167-2.199-1.234-7.518,1.042-8.523
		l1.181,1.233c12.575-9.602,4.016-38.218-9.814-42.353c-3.381-1.499,2.857-4.372,1.382-5.277
		c-11.087-10.528-32.956-5.763-28.512,12.869c-1.729,9.875,8.641,16.329,8.664,16.305c0.176-2.659,0.823-4.825,1.671-6.708
		c0.143,0.789,0.236,1.412,0.395,2.333c4.002,4.436,8.135,13.511,7.126,14.398c1.699,1.326,0.306-1.344-9.109,2.36
		c0.121,0.224-2.497,0.553-5.146,0.851c-4.588-2.037-9.228-3.535-14.477-4.199c0.467,1.74-1.717,3.486-3.209,3.764l0.31-1.288
		l-3.166,2.149c-1.895-0.274,0.728-3.448,2.332-3.483c-5.814-3.826-11.623-5.386-11.197-9.442c-4.176,1.313-0.656-1.563-5.437-0.636
		l2.037-0.317c-4.603-1.841-2.824-4.404,3.162-7.313c10.169-19.871,15.125-40.562,38.681-46.477
		c18.266-7.889,38.11-5.925,57.6,15.378c8.526-1.488,9.08,5.492,17.166,6.467l-2.033,0.878c4.556,1.387,2.662,6.392,2.162,11.629
		c2.317-1.043,1.554,1.578,5.014-0.883c4.104,0.375-3.864,5.515-1.046,7.135c-1.302,0.587,2.338-0.936,1.244,0.054
		c6.579,4.717-2.503-0.138-4.272,8.474c4.126,9.279,8.05,20.889,1.501,29.688c0.115-0.637,3.413,0.344,2.939,1.349
		c-6.742-1.84-0.01,4.014-3.332,4.64l-1.485-2.506c-4.163,2.826-3.579,8.41-8.709,10.454c-0.854,5.279-8.732,5.294-8.78,9.818
		c-1.298-2.54-2.94-0.066-4.549-0.396c2.417,8.544-8.949,3.771-9.607,10.518l-0.664-1.258c-11.966,8.83-23.791,12.67-36.599,19.415
		c-7.655,2.428-16.665-3.118-23.993-0.23c-1.465,1.044-0.4,2.851-1.648,3.563c-2.024-0.21,0.181-2.52-0.544-3.481
		c-4.289,3.708-8.576-2.13-13.071-2.465c-0.875,1.264-2.227,1.105-2.335,3.109c-3.197-6.859-12.733-2.563-15.771-9.245
		c-1.797,7.011-4.986,1.841-7.47,1.732c-0.793-0.991,0.275-2.514,1.354-3.399c-3.996-1.813-6.263-2.915-8.709-8.118
		c-2.277-1.06-5.557,1.357-6.91-1.635c2.258-4.771-4.117-4.86-4.78-8.292c-2.735,3.33-7.798,2.202-8.271-1.429l5.317-2.781
		c-9.104-5.553-10.601-21.127-21.49-28.41l2.889-2.033c-2.376-0.043-0.785-21.096-4.932-30.489c2.277-2.978,4.11-7.739,4.506-10.821
		c-2.56-4.91-1.271-6.032-5.119-10.118c0.181-1.664,3.132-1.84,4.463-2.06c2.686-4.85,7.86-8.013,5.132-13.646l2.756,1.088
		c-0.789-4.604-1.379-12.337,4.059-14.376c-1.396-2.42,0.816-6.87-3.299-7.162c0.731-1.959,4.738,2.031,3.486-1.451l2.239,4.046
		c6.938-7.779,11.997-15.104,19.565-22.925c5.297,2.716,8.067-6.175,15.112-5.814c2.119-4.057,9.063-2.888,9.695-9.399l1.115,2.723
		c4.685-1.149,10.893-3.175,17.463-2.807c3.741,0.077,2.918-4.301,5.628-6.276l0.654,2.875c2.928-2.189,3.192-6.824,4.078-9.933
		c2.838,1.667,2.9-0.451,5.698,1.195c-2.343,1.925-4.081,5.369-5.131,9.524c3.967,0.794,7.257-7.279,10.147-2.761
		c3.49,0.906,6.058-0.468,6.157-4.406c-0.671,1.312,2.29,2.163,0.482,4.031c2.381-0.279,3.897-0.703,5.346-2.167
		c-0.449-0.106-1.032-0.454-1.511-0.352c1.194-2.981,3.753-2.816,3.222-7.278c-1.339,1.146-1.4,1.857-3.098,1.51
		c0.625-3.111,5.188-3.984,6.248-1.204c1.211,3.179-3.027,5.162-1.043,7.06l7.577-7.659c-1.65,2.533-4.174,0.39-3.373-2.688
		l-2.967,1.868l0.229-3.213c-4.937,1.178-8.438-2.241-13.425,0.715l2.037,3.182c-2.966,0.321-5.534,4.91-8.48,1.247
		c1.202-1.262,0.127-2.853-0.048-4.654c-0.644,0.637-1.299,1.922-2.161,1.54l0.897-5.664c-0.692,7.424-7.842,3.674-9.096,5.015
		l0.301-1.071c-4.783-1.768,1.197,2.967-1.757,3.441c-2.674-0.565-1.853-5.835-4.61-7.798c-4.684,1.235-11.478,6.654-17.597,4.037
		c-3.788,2.199-7.627,5.502-10.243,8.979c-3.466,1.164-1.876-5.6-4.452-1.747c-0.294-2.01-1.582-3.692-2.617-5.296
		c0.445,2.24-6.819,2.714-1.981,5.993c-5.456,1.271-11.576,3.313-15.894,7.671c1.462-1.337,0.166-4.7-2.209-5.28
		c-0.67,4.526-3.587,8.658-8.297,10.661c2.215,2.793,3.54,1.95,5.212,5.066c-0.285,0.802-0.132,2.861-1.178,3.397
		c-2.831-2.515-6.21-7.192-9.745-4.269c-2.868-5.359,6.36-4.589,1.17-7.787c-1.429-5.269,6.145-10.088,9.273-8.737
		c0.96-6.577-3.176,1.298-5.174-3.268c-3.077,2.672-3.479,5.237-7.607,9.912c1.523,2.011,3.25,0.993,2.486,4.383
		c-0.528,7.426-7.313,1.51-8.558,2.3l1.109-2.789c-3.894,1.115-2.52,4.497-5.479,6.825c-5.584-4.065,3.986-4.658,2.263-8.632
		l-5.432-1.617c-5.108,3.771,2.549,5.059-3.284,8.148l-1.232-2.224l-1.461,4.084c1.884,1.76,5.118,3.54,6.917,0.804
		c3.271,5.983-1.22,2.888-3.499,7.717c1.834,3.642,1.07-1.92,3.905,0.408c2.829,1.817,0.858,4.484-0.135,6.75
		c-2.412,3.075-4.42-0.844-7.408-1.023c0.007-0.97,1.594-3.819,3.055-2.227c0.216-6.466-7.458-2.943-7.235-7.479
		c-4.357,2.008-0.771,4.54-1.098,6.997c1.138-0.738,2.649,2.629,4.271,2.677c4.254,11.129-9.037-0.911-10.81,6.128
		c6.033,2.214,3.774,12.056,12.035,11.434c0.317,1.844,0.825,4.08-0.443,5.063c-3.169-3.428-4.274,0.866-6.658-3.571l-1.095,1.987
		l-3.034-5.45c-3.864,0.908-8.598,3.719-11.17,4.239c0.151,3.958,4.337,0.688,3.496,4.758c-1.523-2.167-4.325-0.622-4.726,1.137
		c2.686-2.755,5.755,2.262,6.127,4.657c-0.946,3.222-5.669,4.532-6.485,3.741l-2.499-4.46c2.213,3.556-1.947,0.55-1.455,3.571
		c2.053,1.491,5.124,4.184,7.842,5.878c0.389,2.345-3.11,2.938-2.804,3.828l-1.522-4.053c-0.394,4.683-6.725-0.891-6.49,4.249
		l2.927,2.037c-0.789,0.763-2.413,0.878-3.388-0.316c2.197,1.298,0.726,3.826,1.567,5.119l-2.229-0.147
		c1.139,2.253,5.693,5.523,1.036,7.061c5.574-0.858,0.379-2.321,3.25-5.106c4.195-1.179,3.195,3.895,3.696,4.711
		c-5.67-1.244-1.222,4.729-1.572,6.9l-4.665,2.707l3.69,1.362c-7.5-0.008,1.082,4.693-1.528,6.975
		c-2.112-1.503-5.086-1.597-6.403,0.173c5.881-1.989,6.322,4.521,10.261,3.973c-1.938,4.314-7.026-1.446-10.898-0.382
		c4.264,2.485-2.774,5.004,2.747,6.719c1.695-3.212,3.521,0.648,5.959,1.354c-0.417,4.044-2.443-0.736-4.417,2.105
		c0.779,1.751,5.066,3.972,6.624,1.391c-1.167,2.36,4.147,4.925,0.756,7.563c-3.448,1.145-1.621-4.893-4.082-3.354
		c-0.31,5.642,8.572,2.71,9.766,7.697c1.857-2.215,7.987-0.351,10.068,1.829c-1.467,5.419-2.085-2.228-6.492,0.019l0.698,2.153
		c-6.039,3.492-10.022-6.112-14.914-2.92l2.063,2.396c-1.295-0.345-3.275-0.586-4.917-0.284c1.358,2.49,1.359,13.57,2.634,13.165
		c3.587-0.535-1.917-2.217,0.885-2.673c2.228,3.112,7.967,1.646,7.676,6.46c-3.23-1.124-4.083,2.783-6.313,2.724
		c-0.485,2.564,4.109-1.135,3.57,2.455l-2.078,0.592c4.031,10.457,11.977,22.598,24.504,25.029
		c-1.858,3.469,0.011,6.467,1.494,12.464c-0.567-2.705,2.741-2.388,4.034-1.692l-1.359,4.684c0.471,4.069,6.232,4.723,9.97,5.169
		l-1.485,2.723c0.296,3.984,3.877,0.435,5.317,0.502l-0.569,3.453l2.22-1.818c3.267,0.738,5.596,3.791,2.417,7.178
		c1.511,0.025,2.988,0.004,2.627-1.917c0.712,3.796,7.417,8.987,12.908,10.411c-1.657-2.214-0.636-3.4,0.741-5.964
		c3.229-3.742,0.493,1.438,3.833-0.033c-0.915,1.579,0.244,4.353-2.72,4.29c3.119,9.236,14.851,9.355,23.16,13.111
		c2.006-0.104,1.697-1.073,2.899-2.039c4.243,6.515,12.558,2.367,18.233,5.685c-1.102-2.333,1.477-7.536,4.631-7.694
		c3.749-3.963,0.967,5.72,4.229,8.242c1.78-1.859,4.872-2.307,6.196-2.029l-0.126,0.697c2.049-2.199,5.108-3.168,7.544-1.753
		l-0.354,0.325c1.908,0.117,4.438,2.396,6.443,1.775c0.429-3.915,5.658-2.245,6.257-5.785l0.665,1.449l-0.412-3.2l4.245,1.267
		l-1.484,3.799c4.712,1.521,0.898-3.033,2.64-5.287c2.204-3.076,2.771,0.094,4.464,1.043c-0.79,1.91-2.248-0.154-2.786,0.617
		c-1.035,2.979,1.908,0.537,2.408,2.318c0.637-0.071-0.032-3.967,2.172-3.826c1.88-0.146,5.72-2.33,6.234,1.198
		c0.992-2.238,2.887-2.402,3.535-4.251c-1.65-0.18-4.523-0.284-5.479-2.357c1.165-0.791,3.36-2.438,4.248-1.08l-0.749,1.131
		c0.749-1.131,4.805-1.199,1.835-3.719l4.146,3.486c0.643-3.061,2.979-3.959,4.878-5.48c1.615,3.228,1.552,7.709,5.885,6.569
		l1.765-4.896c1.556-1.215,2.366-0.739,3.088,1.312c6.97-1.399,1.171-11.931,7.104-11.751c0.335,4.796,2.069,4.201,4.71,3.992
		c-0.279-0.661-0.849-1.961-0.101-2.591c-1.598-1.326,0.374,3.241-2.669,1.704C338.953,369.448,341.678,368.844,342.159,367.573z"/>
</g>
</svg>
