<?xml version="1.0" encoding="utf-8"?>
<!-- Generator: Adobe Illustrator 16.0.0, SVG Export Plug-In . SVG Version: 6.00 Build 0)  -->
<!DOCTYPE svg PUBLIC "-//W3C//DTD SVG 1.1//EN" "http://www.w3.org/Graphics/SVG/1.1/DTD/svg11.dtd">
<svg version="1.1" id="Layer_1" xmlns="http://www.w3.org/2000/svg" xmlns:xlink="http://www.w3.org/1999/xlink" x="0px" y="0px"
	 width="540px" height="540px" viewBox="0 0 540 540" enable-background="new 0 0 540 540" xml:space="preserve">
<g>
	<path fill="#E48427" d="M391.021,335.962c0-87.834-71.204-159.041-159.04-159.041c-87.838,0-159.041,71.208-159.041,159.041
		C72.94,423.798,144.144,495,231.981,495C319.817,495.005,391.021,423.797,391.021,335.962z"/>
	<g>
		<path fill="#FFFFFF" d="M96.673,457.879c0,0-52.088-101.912,85.751-183.787C320.266,192.219,447.587,109.857,399.039,45
			c0,0,94.935,73.422-6.535,169.881C291.038,311.348,74.899,317.973,96.673,457.879z"/>
		<path fill="#FFFFFF" d="M98.813,460.849c0,0-12.807-95.156,119.073-121.513c131.883-26.361,255.576-56.035,235.244-120.887
			c0,0,54.646,84.555-52.524,132.591C293.44,399.08,120.581,344.078,98.813,460.849z"/>
		<path fill="#FFFFFF" d="M103.113,460.795c0,0,12.749-69.245,110.678-57.569c97.926,11.67,190.902,19.177,191.503-30.656
			c0,0,18.823,71.385-66.815,80.451C252.837,462.082,144.885,384.367,103.113,460.795z"/>
	</g>
	<g>
		<path fill="#FBB656" d="M96.673,472.615c0,0-52.088-101.909,85.751-183.785c137.842-81.873,265.162-164.237,216.615-229.092
			c0,0,94.934,73.422-6.535,169.881C291.038,326.083,74.899,332.709,96.673,472.615z"/>
		<path fill="#FBB656" d="M98.813,475.581c0,0-12.807-95.15,119.073-121.511c131.883-26.362,255.576-56.035,235.244-120.887
			c0,0,54.646,84.555-52.524,132.592C293.44,413.82,120.581,358.816,98.813,475.581z"/>
		<path fill="#FBB656" d="M103.113,475.53c0,0,12.749-69.246,110.678-57.564c97.926,11.668,190.902,19.172,191.503-30.66
			c0,0,18.823,71.383-66.815,80.451C252.837,476.819,144.885,399.106,103.113,475.53z"/>
	</g>
</g>
</svg>
