<?xml version="1.0" encoding="utf-8"?>
<!-- Generator: Adobe Illustrator 16.0.0, SVG Export Plug-In . SVG Version: 6.00 Build 0)  -->
<!DOCTYPE svg PUBLIC "-//W3C//DTD SVG 1.1//EN" "http://www.w3.org/Graphics/SVG/1.1/DTD/svg11.dtd">
<svg version="1.1" id="Layer_1" xmlns="http://www.w3.org/2000/svg" xmlns:xlink="http://www.w3.org/1999/xlink" x="0px" y="0px"
	 width="540px" height="540px" viewBox="0 0 540 540" enable-background="new 0 0 540 540" xml:space="preserve">
<g>
	<polygon fill="#D69700" points="479.749,225.67 317.027,103.637 145.843,229.91 132.277,229.91 132.277,219.749 314.49,80.751 
		488.221,210.423 	"/>
	<path fill="#949C01" d="M495,215.508v16.952c0,0-61.855,106.774-337.313,112.721l34.758-27.12
		C192.45,318.059,443.308,320.602,495,215.508z"/>
	<path fill="#949C01" d="M494.895,251.952v19.161c0,0-71.024,120.738-387.213,127.445l39.873-30.66
		C147.554,367.898,435.56,370.761,494.895,251.952z"/>
	<path fill="#949C01" d="M494.546,287.525v22.461c0,0-82.475,141.412-449.546,149.263l46.293-35.923
		C91.293,423.326,425.637,426.693,494.546,287.525z"/>
	<g>
		<rect x="297.952" y="146.71" fill="#D0D000" width="16.951" height="16.952"/>
		<rect x="321.55" y="146.71" fill="#D0D000" width="16.93" height="16.952"/>
		<rect x="297.952" y="168.493" fill="#D0D000" width="16.951" height="16.934"/>
		<rect x="321.55" y="168.493" fill="#D0D000" width="16.93" height="16.934"/>
	</g>
</g>
</svg>
