<?xml version="1.0" encoding="utf-8"?>
<!-- Generator: Adobe Illustrator 16.0.0, SVG Export Plug-In . SVG Version: 6.00 Build 0)  -->
<!DOCTYPE svg PUBLIC "-//W3C//DTD SVG 1.1//EN" "http://www.w3.org/Graphics/SVG/1.1/DTD/svg11.dtd">
<svg version="1.1" id="Layer_1" xmlns="http://www.w3.org/2000/svg" xmlns:xlink="http://www.w3.org/1999/xlink" x="0px" y="0px"
	 width="540px" height="540px" viewBox="0 0 540 540" enable-background="new 0 0 540 540" xml:space="preserve">
<g>
	<path fill="#48BDD7" d="M295.568,143.377c-7.012,23.555-46.936,64.067-69.677,87.518
		c-49.932,51.481-101.205,137.416-64.259,210.782c8.521,16.923,43.415,33.394,60.034,40.312
		c8.829-43.271,28.448-69.873,45.727-82.996c17.526-13.297,38.432-9.089,73.841-14.458c35.413-5.374,26.561-32.642,22.022-38.429
		c-4.542-5.776-2.488-8.676,3.706-12.804c6.213-4.135,5.368-10.743,0.418-18.185c18.189-9.507,3.715-16.524,2.898-23.971
		c-0.821-7.428,6.19-12.808,17.342-18.587c11.18-5.791,5.374-19.424,0-25.202c-5.358-5.796-24.364-23.144-36.354-36.371
		c-11.975-13.227-12.394-19.011-13.215-23.962c-0.83-4.961,4.95-13.322-2.763-31.504c-6.453-15.242-21.304-33.677-37.646-49.729
		C298.323,123.148,299.209,131.152,295.568,143.377z"/>
	<path fill="#48BDD7" d="M394.01,163.679c0,0,94.884,58.275,88.142,136.268c-6.742,77.997-75.448,136.215-50.188,92.395
		C457.213,348.524,465.654,253.494,394.01,163.679z"/>
	<path fill="#48BDD7" d="M423.657,305.487c0,0,37.918,38.872,14.342,90.265c-23.586,51.396-107.926,74.558-77.677,56.046
		C390.576,433.283,439.543,358.201,423.657,305.487z"/>
	<path fill="#48BDD7" d="M144.914,163.679c0,0-94.888,58.275-88.145,136.268c6.739,77.997,75.445,136.215,50.194,92.395
		C81.702,348.524,73.264,253.494,144.914,163.679z"/>
	<path fill="#48BDD7" d="M115.258,305.487c0,0-37.907,38.872-14.332,90.265c23.581,51.396,107.923,74.558,77.669,56.046
		C148.345,433.283,99.377,358.201,115.258,305.487z"/>
	<path fill="#48BDD7" d="M258.111,196.865c-31.899,34.332-81.429,124.428-52.547,184.935
		c-24.553-37.319-32.653-103.771-8.744-132.65C220.734,220.27,283.21,169.84,258.111,196.865z"/>
	<path fill="#0D80A4" d="M270,45C145.738,45,45.002,145.734,45.002,269.999C45.002,394.261,145.738,495,270,495
		c124.271,0,224.998-100.739,224.998-225.001C494.998,145.734,394.271,45,270,45z M270,472.967
		c-112.091,0-202.969-90.873-202.969-202.968c0-112.094,90.878-202.967,202.969-202.967c112.096,0,202.97,90.873,202.97,202.967
		C472.97,382.094,382.096,472.967,270,472.967z"/>
</g>
</svg>
