<?xml version="1.0" encoding="utf-8"?>
<!-- Generator: Adobe Illustrator 15.0.0, SVG Export Plug-In . SVG Version: 6.00 Build 0)  -->
<!DOCTYPE svg PUBLIC "-//W3C//DTD SVG 1.1//EN" "http://www.w3.org/Graphics/SVG/1.1/DTD/svg11.dtd">
<svg version="1.1" id="Layer_1" xmlns="http://www.w3.org/2000/svg" xmlns:xlink="http://www.w3.org/1999/xlink" x="0px" y="0px"
	 width="361.998px" height="254.842px" viewBox="0 0 361.998 254.842" enable-background="new 0 0 361.998 254.842"
	 xml:space="preserve">
<g>
	<g>
		<path fill="#FEBF37" d="M341,228.393c0,0-18.364,13.832-74.282-8.376C210.794,197.815,184,221.69,184,226.095v-0.523V16.395
			c0-4.404,27.102-28.281,83.023-6.078C322.942,32.519,341,18.743,341,18.743V228.393z"/>
		<g>
			<path fill="#FEBF37" d="M93.604,10.317C87.69,12.665,84,14.589,76,16.192V160.19l-13.087-9.867L49,160.19V22.329
				c-19,2.565-29-3.585-29-3.585v209.649c0,0,18.362,13.832,74.285-8.376C150.207,197.815,177,221.69,177,226.095v-0.523V16.395
				C177,11.991,149.526-11.886,93.604,10.317z"/>
		</g>
	</g>
	<g>
		<path fill="#D26C35" d="M352,29.05v209H9v-209H1v220c0,0,102.356,0,153.396,0c4.506,0,13.748,6.066,27.754,6.066
			c14.573,0,21.166-6.066,25.646-6.066c51.449,0,154.202,0,154.202,0v-220H352z"/>
	</g>
</g>
</svg>
