<?xml version="1.0" encoding="utf-8"?>
<!-- Generator: Adobe Illustrator 16.0.0, SVG Export Plug-In . SVG Version: 6.00 Build 0)  -->
<!DOCTYPE svg PUBLIC "-//W3C//DTD SVG 1.1//EN" "http://www.w3.org/Graphics/SVG/1.1/DTD/svg11.dtd">
<svg version="1.1" id="Layer_1" xmlns="http://www.w3.org/2000/svg" xmlns:xlink="http://www.w3.org/1999/xlink" x="0px" y="0px"
	 width="540px" height="540px" viewBox="0 0 540 540" enable-background="new 0 0 540 540" xml:space="preserve">
<g>
	<path fill="#FFD96F" d="M311.604,387.434c8.129,27.125,31.344,41.521,42.641,51.801c12.625,10.127,18.855,15.946,17.703,18.335
		c-1.041,2.237-11.275-1.106-27.016-10.19c-14.551-9.563-39.629-23.667-49.139-56.247c-3.477-16.269-1.172-34.563,11.813-48.263
		c13.256-12.857,29.506-15.347,42.459-20.114c13.379-4.107,24.115-11.041,30.023-21.533c5.984-9.899,1.549-22.082-2.014-33.933
		c-3.824-11.8-5.014-24.982-0.043-35.052c4.182-10.559,15.238-15.277,22.793-13.6c15.521,3.113,19.543,12.984,19.936,12.088
		c-0.174,0.867-5.799-8.321-20.135-9.567c-16.211-2.265-25.926,22.429-14.879,43.558c3.928,10.397,11.746,25.594,4.299,41.375
		c-6.498,14.442-21.125,24.463-35.213,29.505c-13.793,5.529-28.244,9.396-36.08,18.102
		C311.03,361.582,309.014,376.136,311.604,387.434z"/>
	<path fill="#FEBF37" d="M289.951,163.746c26.951,8.738,47.623,19.349,58.248,30.931c10.836,11.402,11.877,20.064,9.389,21.67
		c-2.938,2.014-9.098-4.25-20.99-11.15c-12.025-6.971-30.494-14.102-53.35-21.471c-48.202-13.116-95.828-46.307-124.866-76.806
		c-29.606-31.846-35.893-62.487-36.271-61.911c0.29-0.47,11.955,28.152,43.555,54.33
		C197.658,124.88,243.306,151.122,289.951,163.746z"/>
	<path fill="#FEBF37" d="M276.264,194.061c24.068,12.77,40.709,28.247,46.422,42.35c5.766,14.103,2.506,22.011,0.453,22.044
		c-2.883,0.346-4.25-8.05-11.965-18.172c-7.879-10.121-22.926-21.471-42.687-31.938c-41.174-19.22-86.135-48.273-115.026-75.383
		c-14.662-13.652-25.287-27.612-30.111-38.815c-4.9-11.259-3.767-18.628-4.109-18.52c0.323-0.11,0.323,7.312,6.374,17.366
		c5.942,10.07,17.6,22.082,33.085,33.787C190.251,150.492,233.519,174.049,276.264,194.061z"/>
	<path fill="#FFEA6A" d="M199.497,222.473c4.128,3.279,8.938,6.398,8.088,12.534c-0.662,5.028-4.752,6.753-7.414,10.359
		c-2.145,2.881-2.81,5.132-2.327,8.161c1.085,6.398,7.697,14.121,14.107,20.372c3.552,3.551,13.116,8.918,14.018,14.18
		c0.791,4.675-4.341,8.461-5.639,12.533c-1.551,4.895,2,11.713,6.513,16.607c19.311,20.082,38.365,25.471,37.898,25.494
		c0.323-0.307-19.162-0.346-44.021-19.243c-8.965-6.797-16.881-20.896-9.548-31.58c-10.477-8.206-24.944-20.932-29.736-34.96
		c-4.738-13.885,1.905-20.912,5.492-22.373c-8.422-3.781-17.218-14.732-22.874-21.817c-3.568-4.483-7.022-8.97-9.567-15.055
		c-1.172-3.062-2.361-6.688-1.713-11.439c0.883-6.431,8.161-10.141,14.121-10.54c-7.403,0.508-14.795-12.933-18.049-17.974
		c-16.301-25.196-22.373-42.042-22.913-41.895c0.322-0.433,10.824,15.059,29.688,36.35c4.772,5.208,10.629,10.104,17.146,14.86
		c3.549,2.572,6.84,4.032,9.373,7.871c4.828,7.316,1.51,9.349-5.368,10.899c-11.026,2.502-6.706,9.35-0.039,15.979
		C183.246,208.888,191.174,215.878,199.497,222.473z"/>
	<path fill="#FEBF37" d="M307.93,137.664c15.994,15.098,30.943,30.802,38.438,44.654c7.801,13.742,11.42,29.252,11.596,29.091
		c0,0-8.066-13.851-18.555-23.779c-10.262-10.231-26.674-21.382-43.643-37.394c-17.078-15.6-29.058-37.231-28.638-53.836
		c-0.126-16.339,5.673-24.551,5.255-24.585c0.314-0.109-0.885,9.853,3.365,23.163C279.703,108.503,291.823,122.586,307.93,137.664z"
		/>
	<path fill="#FEE5AE" d="M379.869,192.999c-5.096,0.829-15.055,10.661-19.742,5.079c-6.559-7.818,14.371-15.523,18.697-16.391
		c9.678-1.512,18.049,6.052,21.734,11.724c4.203,6.018,6.885,11.871,9.574,16.789c5.01,10.032,10.389,16.05,10.389,16.05
		c0.092,0.071-7.469-3.749-15.309-12.482c-6.322-7.042-14.244-21.035-24.779-20.822
		C380.248,192.947,380.069,192.966,379.869,192.999z"/>
	<path fill="#FEE5AE" d="M256.834,449.319c-3.335,15.479-2.326,23.351-6.448,24.539c-3.422,1.389-9.352-11.048-5.459-27.219
		c8.178-32.622,37.97-56.671,37.033-57.026C282.746,389.748,263.004,422.178,256.834,449.319z"/>
	<path fill="#FEE5AE" d="M286.641,467.37c1.172,17.451,2.199,26.171-1.799,27.528c-3.396,1.31-9.461-10.229-10.375-26.838
		c-3.137-34.63,18.855-69.716,18.984-68.882"/>
	<path fill="#FEE5AE" d="M325.905,466.546c6.02,12.031,9.619,17.472,6.797,20.714c-2.219,2.882-11.871-3.049-17.746-15.385
		c-10.695-25.021-11.578-55.457-12.881-55.457C303.051,415.6,316.504,444.855,325.905,466.546z"/>
	<path fill="#FEE5AE" d="M330.41,409.442c-10.213-10.472-12.945-17.362-11.115-18.874c2.057-1.697,8.58,4.737,16.879,13.141
		c15.975,17.961,42.223,32.082,42.473,31.851C379.004,436.022,348.174,428.925,330.41,409.442z"/>
</g>
</svg>
