<?xml version="1.0" encoding="utf-8"?>
<!-- Generator: Adobe Illustrator 15.0.0, SVG Export Plug-In . SVG Version: 6.00 Build 0)  -->
<!DOCTYPE svg PUBLIC "-//W3C//DTD SVG 1.1//EN" "http://www.w3.org/Graphics/SVG/1.1/DTD/svg11.dtd">
<svg version="1.1" id="Layer_1" xmlns="http://www.w3.org/2000/svg" xmlns:xlink="http://www.w3.org/1999/xlink" x="0px" y="0px"
	 width="412.066px" height="276.072px" viewBox="0 0 412.066 276.072" enable-background="new 0 0 412.066 276.072"
	 xml:space="preserve">
<g>
	<g>
		<path fill="#FFF35F" d="M243.38,157.328c3.729,21.75,20.511,40.938,37.563,53.883c0.195,0.148,0.388,0.248,0.58,0.326
			c0.302,1.021,1.15,1.859,2.565,1.881c5.806,0.088,11.494-1.094,17.229-1.809c6.111-0.762,12.226-1.521,18.365-2.029
			c12.22-1.011,24.592-1.082,36.546,2.021c12.159,3.156,22.495,9.303,33.623,14.893c3.583,1.801,7.09,3.784,10.804,5.311
			c2.549,1.047,5.184,2.484,8.013,2.006c0.438-0.074,0.725-0.307,0.884-0.604c2.354-0.336,2.991-4.298,0.207-5.289
			c-0.932-0.33-1.852-0.677-2.768-1.031c-3.979-3.154-8.135-6.12-11.887-9.621c-4.212-3.93-8.204-8.073-12.482-11.932
			c-1.092-0.985-3.138-0.697-3.481,0.92c-0.271,1.267-0.598,2.515-0.854,3.775c-6.761-1.72-12.907-5.467-18.501-9.555
			c-6.512-4.762-12.563-10.209-18.05-16.123c-11.931-12.863-21.482-26.564-27.646-43.089c-0.841-2.252-4.242-1.993-4.291,0.581
			c-0.208,10.822,7.332,21.662,12.415,30.76c4.188,7.498,8.553,16.064,14.313,23.007c-3.196-1.051-6.509-2.094-9.683-3.34
			c-1.845-1.021-3.622-2.125-5.309-3.203c-5.299-3.39-10.091-7.312-15.024-11.183c-1.788-1.401-4.104,0.289-3.126,2.412
			c0.53,1.152,1.128,2.264,1.779,3.34c0.005,0.436,0.163,0.855,0.55,1.16c0.13,0.104,0.264,0.203,0.395,0.307
			c4.715,6.984,11.837,12.378,19.155,16.949c-9.282-1.869-18.771-6.506-24.008-13.543c-1.668-2.242-4.996-0.375-3.771,2.201
			c1.92,4.029,4.381,7.929,7.527,11.125c-4.442-0.703-8.766-2.711-12.612-4.813c-5.399-2.947-10.594-6.318-15.739-9.691
			c-12.112-7.938-23.427-18.183-29.277-31.691C246.325,153.193,242.99,155.071,243.38,157.328 M331.4,179.169
			c-0.093,0.045-0.181,0.099-0.265,0.158c-0.306-0.531-0.605-1.062-0.904-1.592C330.615,178.216,331.011,178.692,331.4,179.169
			 M355.675,203.708c0.112-0.082,0.214-0.181,0.282-0.299c0.349,0.26,0.688,0.53,1.037,0.786
			C356.554,204.039,356.113,203.875,355.675,203.708 M332.87,201.271c0.796,0.363,1.595,0.707,2.392,1.049
			c-0.074,0.055-0.146,0.112-0.212,0.176C334.323,202.087,333.596,201.683,332.87,201.271 M268.333,193.194
			c-0.277-0.304-0.545-0.618-0.817-0.924c0.046-0.075,0.085-0.153,0.114-0.237c0.267,0.358,0.528,0.719,0.783,1.082
			C268.389,193.142,268.358,193.166,268.333,193.194"/>
		<path fill="#FFF35F" d="M108.647,58.969c1.672,5.832,4.4,11.525,9.008,15.637c3.687,3.289,9.132,6.628,14.223,4.521
			c2.223-0.92,4.896-3.04,7.384-2.855c3.005,0.223,4.654,3.671,5.971,5.981c3.495,6.136,8.047,11.651,12.263,17.301
			c9.198,12.332,18.791,24.435,29.511,35.493c5.359,5.53,10.958,10.759,16.921,15.635c2.677,2.188,5.437,4.557,8.503,6.19
			c0.327,0.174,0.665,0.338,1.009,0.497c0.071,0.056,0.143,0.11,0.212,0.164c2.896,2.179,7.341,6.261,11.325,5.609
			c1.396-0.229,1.17-2.088,0.086-2.55c0.042-2.004-2.859-3.992-4.179-4.979c-0.758-0.566-1.542-1.123-2.338-1.674
			c-5.479-6.297-13.104-10.902-19.18-16.464c-9.284-8.5-16.495-18.476-23.549-28.83c-7.147-10.495-13.901-21.257-20.548-32.074
			c-2.879-4.685-5.545-9.491-7.495-14.64c-0.724-1.906-1.401-3.927-2.425-5.7c-0.862-1.496-1.853-2.634-2.419-4.297
			c-0.521-1.524-3.245-1.94-3.516,0c-0.923,6.621-3.72,16.246-11.074,18.354c-9.566,2.742-12.949-5.785-16.715-12.577
			C110.723,56.092,108.14,57.197,108.647,58.969 M196.325,138.908c2.244,2.029,4.59,3.953,6.955,5.854
			c-0.114,0.016-0.229,0.041-0.34,0.078C200.7,142.9,198.486,140.934,196.325,138.908 M187.667,130.244
			c0.183,0.122,0.368,0.241,0.553,0.36c1.084,1.237,2.185,2.46,3.325,3.65c-0.623-0.628-1.255-1.242-1.869-1.88
			C189,131.671,188.336,130.954,187.667,130.244 M150.295,75.714c-0.617-0.946-1.246-1.885-1.87-2.827
			c0.004-0.007,0.007-0.014,0.01-0.021c0.063-0.073,0.111-0.158,0.146-0.249c0.627,1.141,1.27,2.275,1.939,3.388
			C150.447,75.907,150.371,75.811,150.295,75.714"/>
		<path fill="#FFF35F" d="M133.388,140.524c5.31,10.212,16.931,12.858,26.157,18.353c-1.986,3.541-2.603,7.515-2.336,11.625
			c0.145,2.238,2.998,2.525,3.774,0.513c6.121-15.858,28.364,8.543,33.955,14.274c6.938,7.113,14.278,14.598,22.814,19.771
			c3.229,1.957,6.732,3.512,10.121,5.171c1.731,0.85,3.474,1.686,5.198,2.551c0.781,0.395,2.915,2.044,1.937,0.748
			c1.46,1.934,4.699,0.153,3.499-1.8c0.176-0.443,0.079-0.979-0.476-1.306c-17.077-10.08-32.114-22.971-44.106-38.801
			c-11.474-15.147-20.46-31.93-28.735-48.985c-0.776-1.601-3.143-0.736-3.183,0.862c-0.274,10.787,1.345,22.729,5.873,32.907
			c-10.454-6.211-22.799-9.31-31.46-18.223C134.844,136.56,132.399,138.619,133.388,140.524 M203.287,187.894
			c0.093-0.021,0.179-0.059,0.258-0.11c2.502,2.579,5.09,5.071,7.79,7.443C208.556,192.873,205.899,190.41,203.287,187.894
			 M183.663,163.33c0.119-0.008,0.236-0.027,0.352-0.058c0.308,0.46,0.607,0.926,0.918,1.384
			C184.515,164.208,184.085,163.773,183.663,163.33"/>
		<path fill="#FFF35F" d="M52.133,208.267c11.719-0.278,21.875-4.9,30.784-12.369c5.023-4.213,9.638-8.811,15.482-11.922
			c5.228-2.78,10.789-4.521,16.525-5.907c1.84-0.444,1.698-2.884,0.262-3.56c-0.115-0.168-0.279-0.305-0.506-0.367
			c-12.197-3.402-25.775,0.406-36.712,6.105c-11.19,5.834-21.184,14.147-27.43,25.243C49.869,206.683,50.707,208.302,52.133,208.267
			 M59.386,198.89c1.099-1.336,2.261-2.633,3.49-3.873C61.698,196.298,60.507,197.569,59.386,198.89"/>
		<path fill="#FFF35F" d="M97.989,202.876c11.983-0.088,24.501,2.232,36.188,4.715c11.639,2.472,23.121,5.593,34.25,9.834
			c10.041,3.826,18.021,10.9,27.744,15.275c9.397,4.23,18.149,2.397,27.331-1.334c2.34-0.951,1.524-4.64-0.813-4.109
			c-0.192-0.028-0.405-0.008-0.627,0.09c-8.205,3.582-18.679-3.702-25.271-7.887c-8.779-5.57-17.413-11.127-26.798-15.688
			c-11.438-5.563-23.358-9.647-36.186-10.015c-12.148-0.344-24.742,1.383-36.4,4.826C95.059,199.278,95.487,202.894,97.989,202.876
			 M112.186,200.001c0.4-0.07,0.802-0.14,1.203-0.209c-0.008,0.109-0.01,0.217-0.002,0.326
			C112.985,200.08,112.585,200.041,112.186,200.001"/>
		<path fill="#FFF35F" d="M73.17,222.25c0.115,0.465,0.394,0.896,0.875,1.197c4.309,2.689,9.193,4.545,13.819,6.612
			c4.623,2.065,9.269,4.188,14.04,5.89c9.18,3.271,18.792,4.773,28.495,5.434c10.328,0.703,20.611,0.486,30.943,0.103
			c5.095-0.19,10.18-0.356,15.238-1.033c3.401-0.454,6.679-0.991,9.422-3.022c0.214,0.035,0.426,0.072,0.641,0.102
			c1.091,0.146,1.146-1.471,0.244-1.802c-7.241-2.659-13.733-7.489-21.303-9.235c-8.073-1.861-16.256-3.467-24.521-4.193
			c-10.125-0.893-19.851-0.1-29.094,3.017c4.862-2.94,10.458-4.974,15.43-7.396c1.645-0.801,1.389-3.844-0.537-4.108
			c-9.805-1.349-19.515-3.384-29.458-3.425c-8.325-0.034-20.55,0.586-24.926,9.117C71.871,220.688,72.346,221.734,73.17,222.25
			 M100.58,223.82c-0.123,0.141-0.238,0.283-0.355,0.428c-0.305-0.125-0.609-0.246-0.916-0.361c0.041-0.014,0.083-0.026,0.125-0.041
			C99.815,223.837,100.197,223.83,100.58,223.82"/>
	</g>
	<path fill="#EADF11" d="M15.17,166.917c3.313,9.619,8.799,18.599,15.522,26.213c3.311,3.746,6.916,7.312,11.033,10.175
		c2.52,1.75,6.797,5.013,10.066,4.78c0.86,0.062,1.264-0.608,1.225-1.28c0-0.015-0.005-0.029-0.004-0.046
		c1.403-1.135,1.956-3.225,2.774-4.789c1.15-2.206,2.367-4.399,3.76-6.467c2.556-3.795,5.515-7.287,8.845-10.428
		c3.405-3.212,7.062-6.138,10.866-8.861c6.564-3.75,13.488-6.801,19.886-10.834c6.004-3.782,9.153-8.807,9.743-15.918
		c0.462-5.563-0.37-11.688,2.244-16.853c2.169-4.286,5.931-7.435,7.785-11.876c0.4-0.959-0.856-1.636-1.61-1.238
		c-0.004,0.003-0.007,0.004-0.011,0.006c-0.155-0.019-0.323-0.006-0.501,0.047c-0.323-0.151-0.717-0.145-1.128,0.139
		c-0.271,0.207-0.553,0.395-0.828,0.591c-0.626,0.268-1.237,0.566-1.858,0.917c-0.244,0.137-0.426,0.362-0.539,0.617
		c-1.551,0.884-3.182,1.623-4.86,2.251c-4.822,1.268-9.694,2.192-14.729,2.56c-1.336,0.098-2.68,0.191-4.025,0.253
		c18.902-12.422,50.354-27.556,40.087-53.601c10.271-2.66,10.957-12.902,11.172-22.245c2.633,4.207,5.116,8.481,7.165,13.08
		c2.759,6.195,5.185,12.654,8.844,18.395c8.905,13.973,18.269,27.717,28.779,40.542c10.433,12.728,21.669,24.792,34.434,35.217
		c11.767,9.609,25.648,16.469,36.729,26.916c1.255,1.182,2.855-0.553,1.844-1.844c-5.735-7.293-11.433-17.06-12.493-26.711
		c7.651,11.666,15.455,23.865,26.595,32.402c10.688,8.19,24.041,15.657,37.712,16.721c1.335,0.104,1.543-1.666,0.625-2.308
		c-5.402-3.778-9.422-9.435-12.638-15.344c10.431,9.655,24.211,18.312,38.38,16.565c1.114-0.137,1.981-1.824,0.656-2.422
		c-10.185-4.592-19.095-11.563-27.003-19.384c-3.976-3.931-7.773-8.039-11.382-12.31c-0.926-1.096-9.517-11.112-9.384-11.293
		c4.643-6.326,10.628-13.455,17.684-17.127c1.368-0.715,4.537-2.418,5.935-0.877c1.278,1.407,1.616,3.438,1.994,5.239
		c0.472,2.245,0.97,4.451,1.976,6.454c3.971,13.211,14.977,23.477,24.013,33.321c10.495,11.437,23.864,21.048,38.162,27.176
		c0.876,0.375,1.706-0.226,1.546-1.188c-0.486-2.898-1.086-7.847,3.087-5.106c2.51,1.646,4.696,3.75,6.821,5.856
		c6.356,6.306,13.245,12.011,19.615,18.287c0.554,0.545,1.28-0.25,0.829-0.83c-0.229-0.295-0.479-0.569-0.719-0.856
		c0.025-0.004,0.049-0.017,0.075-0.021c0.187,0.197,0.382,0.385,0.592,0.549c0.405,0.318,0.91,0.113,0.968-0.4
		c0.323-2.84-2.296-6.359-3.725-8.65c-2.036-3.266-4.223-6.433-6.457-9.563c-3.754-5.258-7.271-10.539-10.68-16.021
		c-2.667-4.289-5.688-9.317-10.521-11.414c-3.994-1.733-7.82,0.265-10.72,3.021c-4.643-2.998-8.358-7.318-11.82-11.566
		c-4.062-4.983-7.726-10.258-11.265-15.619c-3.648-5.523-6.768-11.012-9.132-17.226c-2.237-5.883-4.163-11.998-7.169-17.553
		c-1.524-2.816-4.136-8.809-8.317-7.267c-2.364,0.872-4.283,3.448-6.234,4.916c-3.017,2.269-6.077,4.477-9.173,6.636
		c-9.537,6.654-21.816,13.876-26.171,25.284c-21.043-11.567-30.111-33.423-40.753-53.769c-1.688-3.226-3.752-7.32-7.188-9.002
		c-2.963-1.451-5.517,1.088-6.611,3.668c-1.512,3.562-1.57,7.482-1.11,11.294c-7.102,3.938-14.73,7.73-20.84,13.16
		c1.831-3.973,4.493-7.446,7.21-11.079c1.848-2.471,3.451-4.985,4.913-7.698c0.568-1.052,2.125-2.698,1.784-4.054
		c-0.966-3.84-5.404-7.139-8.413-9.338c-6.543-4.781-12.721-9.944-18.882-15.198c-6.008-5.122-12.549-10.095-17.944-15.874
		c-5.291-5.667-9.75-11.977-14.429-18.139c-2.124-2.798-4.229-5.662-6.571-8.28c-1.033-1.154-2.046-2.27-3.539-2.785
		c-2.754-0.948-5.221,3.63-6.57,5.86c-4.944-4.467-9.256-9.363-13.739-14.3c-2.448-2.696-5.196-4.722-8.655-2.48
		c-2.183,1.416-3.679,4.193-5.077,6.3c-1.933,2.911-3.81,5.859-5.697,8.8c-3.948,6.157-7.963,12.345-12.854,17.811
		c-9.389,10.494-17.667,21.937-25.258,33.785c-7.713,12.038-14.433,24.239-24.314,34.722c-0.391,0.414-0.388,0.902-0.182,1.285
		c-4.986,3.687-9.109,8.142-13.113,12.958c-3.337,4.013-6.936,7.667-10.484,11.485c-3.028,3.258-6.516,6.99-7.819,11.359
		C12.823,159.155,13.859,163.113,15.17,166.917 M212.012,94.495c0.027-0.137,0.045-0.276,0.053-0.418
		c0.272,0.264,0.537,0.534,0.788,0.816c-0.096-0.024-0.19-0.045-0.291-0.058c-0.045-0.028-0.083-0.06-0.13-0.087
		C212.29,94.668,212.153,94.577,212.012,94.495 M376.531,209.792c0.157,0.037,0.31,0.084,0.469,0.115
		c0.271,0.055,0.562,0.021,0.817-0.082c0.021,0.245,0.045,0.489,0.073,0.729C377.44,210.298,376.986,210.046,376.531,209.792
		 M337.467,179.673c0.668,0.584,1.363,1.135,2.078,1.668c-0.093,0.053-0.176,0.121-0.24,0.207
		C338.694,180.927,338.081,180.308,337.467,179.673 M331.257,144.397c0.355,0.676,0.727,1.345,1.116,2.004
		c-0.053,0.017-0.105,0.032-0.154,0.06C331.899,145.771,331.58,145.083,331.257,144.397 M326.568,134.173
		c0.251,0.405,0.486,0.819,0.732,1.227c0.561,1.447,1.134,2.888,1.741,4.313C328.185,137.881,327.35,136.038,326.568,134.173
		 M320.005,195.662c0.055-0.063,0.101-0.137,0.141-0.213c0.706,0.52,1.419,1.027,2.139,1.525
		C321.522,196.544,320.763,196.103,320.005,195.662 M202.847,115.743c0.183-0.581,0.396-1.162,0.632-1.74
		c0.193-0.033,0.387-0.09,0.578-0.183C203.638,114.453,203.236,115.094,202.847,115.743 M183.268,70.361
		c2.672,2.284,5.366,4.543,8.027,6.825C188.52,75.028,185.823,72.775,183.268,70.361 M171.227,100.843
		c1.834,2.434,3.672,4.874,5.4,7.381C174.799,105.786,172.993,103.329,171.227,100.843 M129.902,70.051
		c1.01-0.651,1.955-1.322,2.781-1.926c0.422-0.308,0.813-0.638,1.18-0.985C132.856,68.347,131.563,69.342,129.902,70.051
		 M108.984,96.473c0.145-0.251,0.287-0.502,0.431-0.753c0,0.002-0.001,0.004-0.001,0.005c-0.042,0.256-0.032,0.508,0,0.755
		C109.27,96.475,109.127,96.473,108.984,96.473 M96.668,51.687c0.464-0.546,0.927-1.095,1.387-1.645
		c-0.398,0.579-0.798,1.158-1.195,1.736C96.797,51.745,96.732,51.717,96.668,51.687 M85.527,121.698
		c0.373-0.363,0.742-0.731,1.105-1.105c0.065,0.07,0.135,0.136,0.208,0.198C86.406,121.099,85.967,121.399,85.527,121.698
		 M83.297,68.303c-0.636,0.968-1.25,1.948-1.843,2.941c-0.1,0.008-0.199,0.025-0.303,0.048
		C81.865,70.294,82.57,69.291,83.297,68.303 M80.477,133.065c0.711,0.046,1.416,0.058,2.079,0.071
		c-0.61,0.158-1.22,0.309-1.829,0.456C80.664,133.408,80.58,133.233,80.477,133.065 M27.359,148.404
		c-0.271,0.295-0.459,0.605-0.576,0.922c-0.426,0.215-0.836,0.46-1.236,0.723c2.224-2.873,4.826-5.528,7.521-8.041
		C31.173,144.167,29.281,146.316,27.359,148.404"/>
	<path fill="#B7B20B" d="M3.893,164.464c0.248,0.826,1.09,1.43,1.955,0.768c6.813-5.201,11.492-12.525,17.502-18.545
		c6.234-6.248,12.391-12.593,19.191-18.219c-0.535,1.498-0.992,3.018-1.258,4.61c-0.196,1.19,1.276,2.431,2.244,1.306
		c4.042-4.697,8.813-8.753,12.271-13.876c10.674-9.137,20.865-19.005,33.473-25.14c2.383-0.894,4.73-1.875,7.025-2.939
		c1.227-0.57,0.354-2.61-0.918-2.178c-2.658,0.905-5.203,1.98-7.656,3.189c-2.638,0.961-5.318,1.801-8.004,2.512
		c-1.854,0.491-13.414,3.685-12.125-1.211c2.303-8.765,12.168-14.671,19.674-18.425c8.543-4.273,17.529-7.711,25.08-13.694
		c0.08-0.063,0.162-0.123,0.24-0.186c1.124-0.903-0.306-2.412-1.443-1.872c-0.073,0.035-0.146,0.072-0.221,0.107
		c-0.218-0.204-0.521-0.308-0.843-0.194c-4.591,1.628-8.845,4.163-13.431,5.844c-2.597,0.951-5.396,2.01-8.183,2.177
		c-0.457,0.027-0.979,0.066-1.5,0.05c-0.229-0.53-0.218-1.106-0.035-1.702c3.196-2.642,6.91-4.824,10.074-6.74
		c4.539-2.751,9.064-5.521,13.914-7.693c5.229-2.342,10.598-4.58,15.504-7.559c2.34-1.42,6.603-3.67,6.424-6.953
		c-0.037-0.685-0.533-1.214-1.232-1.232c-5.917-0.16-11.49,2.754-17.385,2.085c0.654-6.746,2.918-13.806,6.541-19.562
		c7.021,6.401,12.814,14.007,19.842,20.41c0.596,0.542,1.685,0.53,2.081-0.268c1.583-3.167,2.563-6.595,4.741-9.404
		c5.656,4.937,8.229,12.15,12.656,18.078c5.258,7.037,11.195,13.484,17.226,19.858c10.745,11.358,25.696,17.813,35.018,30.644
		c-2.287,3.041-4.095,6.424-5.674,9.884c-0.438,0.956,0.526,2.299,1.584,1.584c4.532-3.064,8.595-9.615,13.997-11.362
		c1.122,15.752,6.647,30.534,19.402,40.576c0.912,0.718,2.547-0.225,1.754-1.353c-4.602-6.548-8.405-13.927-11.134-21.443
		c-2.452-6.755-5.411-16.092-1.704-22.93c4.624,3.628,6.495,10.477,8.99,15.514c3.739,7.543,8.306,14.802,13,21.781
		c8.056,11.977,17.706,24.557,32.089,29.045c0.607,0.189,1.074-0.441,0.992-0.956c0.082-0.261,0.045-0.55-0.204-0.771
		c-1.007-0.894-1.988-1.812-2.96-2.74c6.855-7.681,13.228-16.771,22.135-22.206c3.568-2.177,8.087-3.385,11.355-5.919
		c2.584-2.003,4.739-5.363,7.896-6.489c9.792,27.313,23.896,57.557,49.522,73.197c0.782,0.479,1.697-0.303,1.489-1.146
		c-0.423-1.715-1.626-7.508,1.903-7.348c2.748,0.126,5.191,1.69,6.924,3.756c2.813,3.354,4.609,7.312,6.877,11.019
		c6.168,10.084,12.637,20.061,19.688,29.555c0.021,0.027,0.044,0.049,0.064,0.072c0.127,0.219,0.258,0.435,0.383,0.653
		c0.473,0.821,1.708,0.093,1.268-0.739c-0.059-0.107-0.118-0.211-0.177-0.32c0.014-0.148-0.025-0.313-0.141-0.482
		c-0.225-0.332-0.449-0.662-0.673-0.994c-5.1-9.279-11.166-18.002-16.534-27.127c-5.616-9.547-10.46-19.578-17.104-28.482
		c-0.364-0.489-0.941-0.592-1.42-0.184c-2.374,2.026-4.542,4.219-6.452,6.676c-0.853-2.322-2.736-4.412-4.188-6.295
		c-2.155-2.797-4.51-5.463-6.476-8.402c-4.142-6.19-7.835-12.746-11.406-19.278c-3.646-6.668-7.324-13.428-10.376-20.393
		c-1.958-4.466-3.082-10.842-6.753-14.285c-0.042-0.039-0.085-0.07-0.129-0.1c-0.216-0.298-0.606-0.467-0.959-0.214
		c-3.725,2.669-7.394,5.181-11.629,6.979c-0.323,0.137-0.549,0.59-0.531,0.925c0.162,3.21-5.778,5.346-8.105,6.434
		c-2.902,1.357-6,2.557-8.606,4.452c-4.021,2.921-7.443,7.327-10.749,11.009c-3.599,4.004-7.135,8.065-10.701,12.098
		c-8.699-9.03-16.097-19.371-23.056-29.759c-9.032-13.483-16.036-28.205-25.282-41.552c-0.379-0.547-1.104-0.834-1.716-0.45
		c-4.78,2.997-9.032,7.099-12.428,11.721c-3.19-2.809-6.794-4.956-10.275-7.381c-3.821-2.664-7.432-5.633-10.853-8.795
		c-6.301-5.825-12.356-11.969-18.296-18.161c-6.18-6.44-12.16-13.09-17.627-20.151c-4.478-5.783-7.952-12.91-13.458-17.792
		c-0.646-0.571-1.472-0.419-1.96,0.253c-1.609,2.208-3.29,4.361-4.924,6.552c-7.642-5.477-11.716-14.563-17.345-21.858
		c-0.59-0.767-1.653-0.883-2.225,0C83.936,59.233,50.846,116.591,3.41,162.287C2.606,163.062,3.102,164.121,3.893,164.464
		 M384.41,187.25c0.06-0.08,0.109-0.166,0.149-0.258c0.206,0.363,0.415,0.727,0.622,1.092
		C384.937,187.802,384.677,187.525,384.41,187.25 M361.899,179.052c0.074-0.006,0.146-0.002,0.222-0.012
		c0.373,0.438,0.753,0.864,1.116,1.311C362.781,179.929,362.343,179.488,361.899,179.052 M325.854,119.304
		c0.266,0.615,0.53,1.23,0.797,1.846c-0.027,0.058-0.047,0.12-0.061,0.187C326.345,120.659,326.092,119.979,325.854,119.304
		 M293.686,139.105c0.572-0.649,1.153-1.287,1.749-1.907c0.016,0.048,0.031,0.096,0.053,0.142
		C294.877,137.919,294.276,138.504,293.686,139.105 M269.174,144.208c0.53,0.672,1.068,1.34,1.61,2.008
		c-0.521-0.521-1.043-1.041-1.563-1.563C269.238,144.513,269.222,144.365,269.174,144.208 M201.712,83.8
		c0.554,0.405,1.105,0.81,1.673,1.194c-0.301-0.134-0.595-0.294-0.887-0.459C202.235,84.292,201.973,84.046,201.712,83.8
		 M103.514,43.89c0.448-0.977,0.914-1.947,1.373-2.918c-0.007,0.12,0.002,0.234,0.03,0.335
		C104.452,42.17,103.986,43.032,103.514,43.89"/>
	<path fill="#B7B20B" d="M31.759,199.273c7.753,8.156,16.552,15.203,25.421,22.09c11.59,8.999,23.422,17.322,37.145,22.799
		c15.976,6.371,32.971,8.674,50.11,8.285c21.58-0.49,43.712-3.82,64.408-9.99c19.686-5.871,38.866-14.115,59.198-17.602
		c10.511-1.803,21.426-2.422,31.958-0.403c9.823,1.884,19.285,5.606,28.064,10.369c14.836,8.048,28.628,19.44,37.927,33.721
		c0.656,1.138,1.362,2.253,2.052,3.359c0.021,0.037,0.049,0.064,0.074,0.096c0.573,0.988,1.131,1.986,1.66,3
		c0.109,0.209,0.318,0.205,0.464,0.1c0.035,0.117,0.078,0.232,0.114,0.35c0.332,1.098,2.04,0.635,1.721-0.475
		c-4.454-15.443-14.849-29.137-27.175-39.238c-10.508-8.61-23.063-15.524-36.661-17.118c13.011-4.663,26.242-7.748,40.273-6.775
		c11.275,0.781,25.313,3.086,32.476,12.863c0.146,0.2,0.347,0.274,0.539,0.272c0.343,0.211,0.831,0.207,1.021-0.222
		c2.163-4.91-9.792-9.414-12.623-10.701c-7.321-3.332-14.878-6.258-22.537-8.719c-13.407-4.311-28.696-4.199-42.5-2.313
		c-15.909,2.177-31.302,6.854-46.473,11.988c-20.533,6.947-40.839,14.25-62.179,18.396c-22.401,4.354-46.323,7.532-68.975,3.29
		c-20.642-3.866-41.779-11.121-59.986-21.664c-1.055-0.61-2.097-1.237-3.131-1.873c-2.481-1.819-5.02-3.555-7.688-5.083
		c-4.896-3.443-9.604-7.142-14.223-11.019c-7.229-6.073-15.268-12.687-18.515-21.867c-0.063-0.179-0.161-0.312-0.276-0.422
		c-0.057-0.39-0.129-0.777-0.215-1.162c-0.007-0.073-0.016-0.147-0.021-0.224c0.001-0.067,0.002-0.137,0.002-0.207
		c0.003-0.25-0.088-0.437-0.217-0.575c-0.068-0.267-0.136-0.532-0.205-0.804c-0.197-0.772-1.131-0.795-1.545-0.266
		c-0.325-0.061-0.662,0.046-0.834,0.432c-0.032,0.071-0.05,0.146-0.077,0.218l-0.014-0.005c-0.014,0.052-0.027,0.104-0.041,0.156
		c-0.105,0.299-0.187,0.599-0.237,0.9c-0.123,0.464-0.243,0.941-0.33,1.422c-0.012,0.043-0.035,0.072-0.044,0.121
		C17.965,184.091,25.849,193.056,31.759,199.273 M360.619,259.009c0.224,0.201,0.443,0.404,0.669,0.604
		c0.716,0.824,1.396,1.678,2.038,2.557c0.049,0.226,0.104,0.447,0.162,0.668C362.569,261.534,361.612,260.255,360.619,259.009
		 M350.114,243.703c1.121,1.113,2.228,2.245,3.3,3.413c-0.123-0.077-0.248-0.125-0.372-0.146c-0.978-1.045-1.941-2.104-2.904-3.162
		C350.135,243.773,350.122,243.738,350.114,243.703 M347.331,245.601c0.05-0.037,0.098-0.078,0.142-0.123
		c0.769,0.666,1.504,1.375,2.218,2.107C348.921,246.909,348.123,246.257,347.331,245.601 M335.94,231.982
		c0.574,0.385,1.145,0.771,1.707,1.171c-0.05,0.046-0.093,0.099-0.135,0.153c-0.184-0.129-0.366-0.258-0.546-0.389
		c-0.084-0.117-0.199-0.225-0.352-0.313c-0.025-0.017-0.053-0.032-0.078-0.05C336.338,232.366,336.141,232.173,335.94,231.982
		 M222.915,230.287c0.682-0.257,1.362-0.514,2.047-0.77c0.272-0.057,0.549-0.112,0.824-0.168c-0.009,0.021-0.019,0.045-0.023,0.066
		c-0.896,0.32-1.792,0.639-2.69,0.949C223.022,230.335,222.971,230.308,222.915,230.287 M119.458,237.417
		c0.568,0.131,1.14,0.258,1.712,0.383c-0.084-0.008-0.169-0.016-0.253-0.022c-0.211-0.021-0.387,0.015-0.535,0.08
		C120.076,237.703,119.767,237.56,119.458,237.417 M100.25,243.558c0.035-0.033,0.063-0.071,0.091-0.108
		c0.896,0.33,1.796,0.647,2.704,0.942c0.011,0.025,0.021,0.054,0.036,0.08C102.134,244.181,101.191,243.875,100.25,243.558
		 M88.606,237.974c1.643,0.73,3.252,1.527,4.834,2.379C91.775,239.726,90.16,238.903,88.606,237.974 M34.129,193.368
		c-0.063,0.005-0.125,0.017-0.188,0.03c-0.106-0.094-0.219-0.186-0.328-0.277c-0.178-0.26-0.354-0.521-0.545-0.77
		C33.418,192.693,33.772,193.032,34.129,193.368"/>
</g>
</svg>
