<?xml version="1.0" encoding="utf-8"?>
<!-- Generator: Adobe Illustrator 16.0.0, SVG Export Plug-In . SVG Version: 6.00 Build 0)  -->
<!DOCTYPE svg PUBLIC "-//W3C//DTD SVG 1.1//EN" "http://www.w3.org/Graphics/SVG/1.1/DTD/svg11.dtd">
<svg version="1.1" id="Layer_1" xmlns="http://www.w3.org/2000/svg" xmlns:xlink="http://www.w3.org/1999/xlink" x="0px" y="0px"
	 width="540px" height="540px" viewBox="0 0 540 540" enable-background="new 0 0 540 540" xml:space="preserve">
<g>
	<path fill="#E89B68" d="M436.166,287.985l-0.002-0.331c-0.063-0.003-0.059-0.096-0.127-0.06L436.166,287.985z"/>
	<line fill="none" x1="435.199" y1="285.709" x2="435.674" y2="285.512"/>
	<polygon fill="#E89B68" points="278.688,276.124 278.649,275.903 278.125,276.383 	"/>
	<line fill="none" x1="278.319" y1="259.053" x2="279.309" y2="258.449"/>
	<polygon fill="#E89B68" points="278.78,274.417 279.073,274.883 279.201,274.572 	"/>
	<line fill="none" x1="279.942" y1="278.468" x2="278.975" y2="277.249"/>
	<line fill="none" x1="279.485" y1="282.412" x2="279.008" y2="282.309"/>
	<line fill="none" x1="280.309" y1="282.484" x2="280.088" y2="283.168"/>
	<polygon fill="#E89B68" points="314.42,284.25 314.379,284.141 313.74,284.417 	"/>
	<path fill="#E89B68" d="M353.334,120.572c0.064,0.115-0.076,0.108-0.105,0.178l0.611-0.077L353.334,120.572z"/>
	<line fill="none" x1="362.287" y1="96.127" x2="362.678" y2="96.848"/>
	<path fill="#E89B68" d="M333.83,136.728l3.283,1.387l0.082,0.256c0.197,0.1,0.41,0.02,0.631,0.04l0.994,0.42l1.334-1.043
		c0.273-0.183,0.518-0.374,0.76-0.598l3.307-2.598l0.432-1.198c0.25-0.657,0.574-1.358,0.84-2.031l0.127,0.42l0.563-0.434
		l-0.039-0.553l0.396,0.18l0.84-2.144l-0.525,0.147l0.479-1.403l0.563,0.28l-0.025-0.43l0.59,0.49
		c-0.809-0.577,0.23-1.401,0.18-1.671l0.088,0.125c0.59-0.58-0.426-0.038-0.242-0.516l1.242-0.1l1.156-2.7l0.156-2.178l0.623-0.354
		c0.484,0.382,1.412,0.025,1.285,0.903c-0.369-0.482,0.125-0.485,0.289-0.689l-0.615,0.06c-0.73,0.103,0.414-1.094-0.523-0.886
		l1.182-2.572l0.646,0.434l0.236-2.088l-0.959-0.209l-0.033-0.566l1.488-0.212c0.637,0.484-0.564,1.074,0.289,1.094l-0.51,1.862
		c0.375,0.863,0.273-0.433,0.83-0.043l0.229-1.808l-0.559-0.375c-0.33-1.014,0.84-0.726,0.955-0.878l0.016,0.426l0.305-1.237
		c0.891,0.208-0.234,0.855,0.174,1.274l0.762-0.127l-0.029-1.221l0.262,0.223l0.025-0.593l-0.938,0.24
		c-0.682-0.619,0.068-0.451,0.18-1.209l-0.531,0.138l-0.191-0.969l1.023-0.187l-0.33,0.446c0.178,0.904,1.063,0.1,1.195,0.718
		l-0.047-1.226l-0.688,0.027c-0.822-1.439,1.154-0.215,1.318-1.196c-0.855-0.146-0.605-1.644-1.756-1.365l0.063-0.795l0.93,0.409
		l0.139-0.326l0.438,0.748l1.461-0.748l-0.48-0.661l0.672-0.178c-0.416,0.386-0.76-0.292-0.777-0.665l0.965-0.539l0.279,0.646
		l0.24-0.5l-0.941-0.89l0.447-0.556l0.127,0.611l0.951-0.551l-0.354-0.331l0.439,0.092l-0.076-0.772l0.293,0.063
		c-0.068-0.34-0.551-0.926,0.137-1.043l-0.637,0.68l-0.305-0.766c0.711,0.309,0.361-0.684,0.518-1.004l0.719-0.279l-0.42-0.319
		c0.977,0.229,0.1-0.713,0.477-1.02l0.838,0.185l-1.201-0.983c0.434-0.636,0.846,0.483,1.389,0.438l-0.064-1.158l-0.703-0.455
		l0.648-0.162l-0.787-0.484l0.229-1.257l-0.518-0.959l-0.992-0.657c0.006-0.069,0.037-0.123,0.043-0.182
		c0.08,0.165,0.178,0.483,0.584,0.373l0.014-0.382c0.908-0.291,0.988,1.46,1.754,1.159l-0.152-0.48l0.826,0.301l-0.025-1.111
		l-0.277,0.212l-0.256-1.446l0.873,0.25l-0.125-0.639l0.248,0.123c0.539-1.712,1.055-3.9,0.307-5.594l1.281-1.518l-0.484-0.303
		l0.637-0.319l-0.08-1.705l0.445-0.063l-0.273-0.696l0.467-0.229l-0.373-0.111c-0.104-0.483-0.125-1.11,0.516-0.973l-0.414-0.177
		l-0.01-2.607l-0.699,0.351l-0.289-0.533l0.67,0.045c0.789-1.109,0.002-2.733,0.088-4.157l-0.414-0.309l0.059-2.998l-1.111-0.471
		c-0.584-0.5,0.736-0.352,1.033-0.928l-0.355-0.92l0.094-0.011l-0.297-1.169l0.066,0.064l0.27-1.096l-0.748-0.983l0.178-0.122
		l-0.416,0.086l0.191-0.727l0.477,0.233c0.236-0.782-0.398-0.128-0.641-0.421c-3.107-2.686-1.16-0.961-1.975-1.821
		c0.986,0.461-1.391-1.354,2.219,1.536c2.203,1.492-2.367-2.14-2.012-1.88l-0.504,0.368l-0.879-0.433l-0.738,0.367l0.686,0.552
		l-0.666-0.062l-0.355,0.271l-0.42-0.621l-1.035,0.358l-0.346-1.146l-0.619,0.451l-0.33-0.373l-1.996,0.788l-0.129-0.393
		l-0.365,0.23c-0.688-1.282-2.488-0.449-3.658-1.088l-0.82,0.398c0.104-0.709-0.693,0.087-0.994-0.363l0.127,0.716
		c-0.719-0.455-1.273,0.993-1.691,0.127l0.377-0.608c-0.549-1.274-4.678,3.487-3.465,2.31l0.809,0.701l-1.15,0.771l-0.178,0.788
		l-0.17-0.41l-0.164,1.596l-1.232,1.656c0.482,0.587-0.625,0.908,0.168,1.268l-0.281,0.002l0.529,1.013l-0.484-0.291l-0.801,0.735
		l0.248,0.503l0.07,0.415l0.057,0.866l-0.553-0.205l-0.303,1.001c-0.053,0.022-0.098,0.07-0.119,0.241l-0.414,0.48l-0.389-0.252
		l0.322,1.112c-0.797,0.904-1.045,2.849-0.998,3.379l-0.086-0.254l-0.107,0.779l-0.592,0.648l0.377,0.075
		c-0.953,0.588-0.301,2.045-1.105,2.877l-0.252-0.553l0.076,2.545l-0.381-0.409l-0.021,1.275c0.375-0.015,0.5,0.542,0.314,0.829
		l-0.102-0.027l-0.158,1.151l-0.316-0.288l-0.975,1.111l0.322,0.438l-0.527,0.331l0.77,1.488l-0.039,0.107l-0.715-0.304l0.324,1.322
		l-0.832,2.254l-0.738-0.517l-0.951,2.148c0.84-0.164,0.297,0.756,0.664,1.114l-0.092,0.205l-0.809,0.375l-0.74,2.401l-0.127-0.073
		l-0.275,2.557l-0.051,0.125l-0.297-0.25l0.066,0.84l-0.076,0.193l-0.16-0.198l-0.389,1.684l-0.002,0.022l-0.271-0.33l-0.066,1.196
		l-0.178,0.501l-0.334-0.28l-0.018,1.196l-0.023,0.043l-0.434,0.188l-0.043,1.114l-0.148,0.394l-0.607,0.31l-2.264,7.375
		l-0.383,1.043c-0.645,0.058-0.191-0.752-0.715-0.637l-0.127,1.421l-0.105-0.004l-0.414,0.915l0.154,0.032
		c0.244,0.542-1.068,0.618-0.408,1.117l-0.533,0.152l-0.088,1.247l-0.09-0.101c-0.527,0.556,0.207,1.637-0.396,1.7l0.143,1.026
		l-0.16,0.46l-0.396-0.173c-0.457,1.504-0.994,3.54-1.365,4.885L322,131.727l10.26,4.335
		C332.772,136.369,333.285,136.499,333.83,136.728z M345.069,131.931l-0.953-0.115L345.069,131.931z"/>
	<line fill="none" x1="344.115" y1="131.818" x2="345.069" y2="131.931"/>
	<polygon fill="#E89B68" points="352.457,121.193 352.223,121.319 352.405,121.636 	"/>
	<line fill="none" x1="353.68" y1="118.419" x2="353.717" y2="119.697"/>
	<line fill="none" x1="356.201" y1="116.358" x2="355.957" y2="116.063"/>
	<line fill="none" x1="355.94" y1="115.268" x2="355.438" y2="115.601"/>
	<line fill="none" x1="359.117" y1="109.15" x2="358.828" y2="109.743"/>
	<polygon fill="#E89B68" points="359.99,106.75 359.733,106.458 359.619,106.706 	"/>
	<polygon fill="#E89B68" points="334.016,97.431 333.983,97.516 334.561,97.657 	"/>
	<polygon fill="#E89B68" points="209.345,434.609 209.345,434.623 209.726,435.332 	"/>
	<polygon fill="#E89B68" points="207.559,401.481 207.59,401.483 207.737,401.365 	"/>
	<polygon fill="#E89B68" points="202.363,400.701 202.386,400.803 202.551,400.707 	"/>
	<polygon fill="#E89B68" points="202.03,400.69 202.363,400.701 202.243,400.399 	"/>
	<path fill="#E89B68" d="M200.401,459.059c0.044,0.115-0.081,0.105-0.118,0.178l0.62-0.076L200.401,459.059z"/>
	<path fill="#E89B68" d="M213.337,419.482l-0.004-2.604l-0.718,0.356l-0.293-0.536l0.67,0.049c0.804-1.099,0.002-2.721,0.088-4.146
		l-0.396-0.309l0.025-2.998l-1.081-0.483c-0.58-0.483,0.736-0.33,1.019-0.923l-0.353-0.921l0.089,0.005l-0.278-1.184l0.029,0.047
		l0.263-1.067l-0.719-0.985l0.193-0.123l-0.41,0.08l0.182-0.703l0.481,0.219c0.256-0.773-0.386-0.117-0.639-0.416
		c-3.127-2.651-1.174-0.951-1.975-1.807c1,0.443-1.411-1.347,2.218,1.512c2.223,1.486-2.367-2.11-2.03-1.862l-0.488,0.38
		l-0.884-0.432L207.568,401l0.705,0.541l-0.688-0.063l-0.358,0.275l-0.397-0.637l-1.026,0.364l-0.34-1.159l-0.624,0.453
		l-0.328-0.363l-1.985,0.785l-0.144-0.395l-0.389,0.229c-0.687-1.275-2.467-0.447-3.676-1.105l-0.805,0.41
		c0.126-0.707-0.689,0.091-1.002-0.365l0.139,0.719c-0.701-0.458-1.25,0.993-1.674,0.127l0.375-0.609
		c-0.563-1.271-4.661,3.523-3.466,2.317l0.81,0.7l-1.147,0.781l-0.153,0.773l-0.164-0.387l-0.188,1.596l-1.241,1.663
		c0.499,0.574-0.612,0.896,0.186,1.246l-0.279,0.022l0.522,0.996l-0.486-0.285l-0.817,0.736l0.271,0.506l0.036,0.412l0.062,0.866
		l-0.544-0.21l-0.307,1.014c-0.033,0.021-0.1,0.063-0.121,0.229l-0.398,0.481l-0.383-0.243l0.302,1.104
		c-0.776,0.89-1.047,2.849-0.988,3.37l-0.074-0.255l-0.11,0.787l-0.609,0.655l0.39,0.064c-0.971,0.59-0.297,2.039-1.128,2.873
		l-0.244-0.554l0.088,2.55l-0.39-0.393l-0.025,1.248c0.396-0.014,0.519,0.557,0.331,0.842l-0.096-0.033l-0.178,1.162l-0.304-0.303
		l-0.977,1.115l0.313,0.438l-0.524,0.329l0.749,1.481l-0.03,0.11l-0.722-0.307l0.337,1.324l-0.846,2.248l-0.733-0.521l-0.942,2.147
		c0.825-0.164,0.284,0.75,0.645,1.107l-0.073,0.205l-0.822,0.384l-0.724,2.401l-0.126-0.071l-0.294,2.555l-0.048,0.126l-0.291-0.266
		l0.075,0.857l-0.073,0.19l-0.179-0.222l-0.385,1.711l-0.001,0.004l-0.271-0.322l-0.047,1.196l-0.2,0.503l-0.317-0.28l-0.028,1.199
		l-0.021,0.024l-0.433,0.203l-0.046,1.103l-0.144,0.396l-0.606,0.307l-2.264,7.384l-0.389,1.043c-0.648,0.06-0.169-0.754-0.717-0.64
		l-0.123,1.42l-0.098,0.004l-0.417,0.912l0.158,0.027c0.228,0.545-1.082,0.629-0.426,1.106l-0.545,0.167l-0.083,1.234l-0.09-0.1
		c-0.532,0.566,0.217,1.643-0.398,1.705l0.159,1.021l-0.174,0.455l-0.398-0.178c-0.438,1.477-0.96,3.438-1.319,4.803l-0.605,1.601
		l10.268,4.336c0.562,0.313,1.056,0.437,1.616,0.673l3.283,1.379l0.087,0.255c0.193,0.104,0.41,0.007,0.627,0.056l0.992,0.41
		l1.35-1.052c0.255-0.181,0.49-0.362,0.731-0.583l3.306-2.604l0.44-1.213c0.241-0.652,0.565-1.354,0.839-2.016l0.112,0.42
		l0.57-0.432l-0.057-0.559l0.401,0.177l0.839-2.136l-0.521,0.164l0.502-1.401l0.538,0.28l0.004-0.438l0.58,0.508
		c-0.809-0.584,0.229-1.417,0.178-1.675l0.091,0.113c0.59-0.58-0.438-0.025-0.243-0.521l1.248-0.091l1.146-2.7l0.15-2.168
		l0.635-0.365c0.484,0.387,1.383,0.027,1.288,0.912c-0.375-0.483,0.114-0.483,0.28-0.688l-0.608,0.06
		c-0.737,0.092,0.421-1.101-0.524-0.882l1.184-2.581l0.62,0.438l0.268-2.082l-0.952-0.222l-0.038-0.568l1.495-0.205
		c0.638,0.488-0.569,1.066,0.283,1.094l-0.501,1.857c0.371,0.874,0.271-0.43,0.818-0.049l0.233-1.805l-0.56-0.371
		c-0.335-1.011,0.836-0.72,0.951-0.879l0.015,0.43l0.304-1.238c0.875,0.207-0.234,0.865,0.188,1.26l0.743-0.117l-0.031-1.228
		l0.261,0.228l0.026-0.591l-0.94,0.233c-0.67-0.618,0.063-0.451,0.187-1.205l-0.544,0.134l-0.177-0.981l1.02-0.178l-0.339,0.441
		c0.169,0.916,1.071,0.104,1.188,0.723l-0.026-1.234l-0.7,0.031c-0.837-1.449,1.167-0.226,1.325-1.195
		c-0.859-0.142-0.606-1.65-1.752-1.364l0.065-0.802l0.924,0.416l0.146-0.325l0.422,0.745l1.487-0.75l-0.483-0.658l0.67-0.182
		c-0.408,0.387-0.756-0.305-0.774-0.676l0.968-0.537l0.271,0.655l0.243-0.501l-0.938-0.893l0.443-0.561l0.137,0.608l0.947-0.534
		l-0.352-0.339l0.438,0.086l-0.072-0.772l0.296,0.069c-0.083-0.344-0.563-0.921,0.137-1.045l-0.646,0.674l-0.298-0.764
		c0.714,0.306,0.355-0.688,0.519-1.007l0.72-0.28l-0.432-0.304c0.987,0.222,0.126-0.717,0.482-1.034l0.832,0.198l-1.2-0.998
		c0.432-0.629,0.829,0.479,1.38,0.449l-0.064-1.164l-0.723-0.447l0.669-0.166l-0.797-0.49l0.242-1.246l-0.515-0.952l-1-0.665
		c0.002-0.063,0.037-0.127,0.055-0.199c0.077,0.179,0.173,0.496,0.568,0.383l0.02-0.383c0.908-0.279,0.983,1.451,1.75,1.15
		l-0.174-0.482l0.826,0.31l-0.007-1.104l-0.273,0.215l-0.271-1.459l0.871,0.267l-0.132-0.64l0.26,0.123
		c0.53-1.701,1.063-3.896,0.316-5.59l1.265-1.527l-0.494-0.293l0.659-0.317l-0.103-1.701l0.44-0.075l-0.275-0.689l0.47-0.23
		l-0.354-0.125c-0.111-0.47-0.143-1.09,0.494-0.976L213.337,419.482z M191.176,470.301l0.957,0.123L191.176,470.301z"/>
	<path fill="#E89B68" d="M184.744,425.16l-0.001-0.283c-0.025,0.011-0.025-0.076-0.087-0.051L184.744,425.16z"/>
	<line fill="none" x1="192.137" y1="470.414" x2="191.176" y2="470.301"/>
	<polygon fill="#E89B68" points="199.474,460.123 199.523,459.681 199.285,459.808 	"/>
	<line fill="none" x1="200.736" y1="456.91" x2="200.784" y2="458.188"/>
	<line fill="none" x1="203.269" y1="454.845" x2="203.005" y2="454.549"/>
	<line fill="none" x1="202.999" y1="453.75" x2="202.496" y2="454.086"/>
	<line fill="none" x1="206.176" y1="447.643" x2="205.869" y2="448.228"/>
	<polygon fill="#E89B68" points="207.049,445.236 206.779,444.951 206.69,445.197 	"/>
	<polygon fill="#E89B68" points="195.974,400.145 196.246,400.291 196.308,400.021 	"/>
	<line fill="none" x1="183.958" y1="423.291" x2="184.362" y2="423.133"/>
	<polygon fill="#E89B68" points="181.042,436.021 181.601,436.166 181.063,435.938 	"/>
	<path fill="#E89B68" d="M381.742,174.227l2.465,2.588l-0.025,0.279c0.146,0.169,0.379,0.179,0.545,0.295l0.742,0.781l1.645-0.403
		c0.309-0.077,0.609-0.132,0.949-0.242l4.074-1.031l0.863-0.926c0.482-0.506,1.063-1.011,1.588-1.502l-0.068,0.431l0.688-0.18
		l0.178-0.52l0.295,0.321l1.65-1.604l-0.568-0.081l1.043-1.094l0.375,0.481l0.178-0.392l0.35,0.688
		c-0.535-0.857,0.75-1.195,0.814-1.465l0.021,0.146c0.775-0.286-0.367-0.206,0.014-0.566l1.158,0.429l2.166-2.011l0.992-1.93
		l0.738-0.083l0.787,1.362l0.586-0.521l-0.613-0.198c-0.723-0.208,0.82-0.833-0.125-1.016l2.125-1.863l0.395,0.646l1.072-1.82
		l-0.787-0.578l0.197-0.532l1.445,0.411c0.383,0.723-0.951,0.756-0.182,1.111c0.18,0.678-0.736,1.589-1.193,1.507
		c-0.025,0.939,0.4-0.293,0.75,0.286l0.934-1.564l-0.355-0.568c0.107-1.054,1.057-0.308,1.219-0.433l-0.15,0.406l0.795-1.007
		c0.713,0.561-0.582,0.687-0.35,1.229l0.723,0.192l0.484-1.138l0.141,0.313l0.238-0.534l-0.943-0.158
		c-0.355-0.84,0.246-0.393,0.684-1.023l-0.545-0.094l0.211-0.971l1.01,0.256l-0.482,0.271c-0.197,0.889,0.949,0.519,0.799,1.126
		l0.486-1.128c-0.291,0.596-0.395-0.208-0.67-0.255c-0.18-1.663,1.145,0.266,1.695-0.565c-0.736-0.484,0.121-1.754-1.051-1.951
		l0.393-0.699l0.658,0.735l0.277-0.228l0.094,0.868l1.654-0.111l-0.189-0.797l0.686,0.104c-0.539,0.195-0.572-0.579-0.438-0.906
		l1.107-0.105l-0.025,0.691l0.434-0.352l-0.51-1.213l0.637-0.313l-0.133,0.612l1.094-0.127l-0.176-0.451l0.367,0.264l0.232-0.729
		l0.242,0.172c0.08-0.332-0.127-1.061,0.563-0.897l-0.885,0.365l0.055-0.826c0.525,0.56,0.604-0.479,0.883-0.713l0.771,0.029
		l-0.27-0.443c0.816,0.585,0.385-0.623,0.854-0.741l0.672,0.503l-0.697-1.394c0.646-0.406,0.584,0.781,1.096,0.959l0.408-1.088
		l-0.461-0.688l0.65,0.111l-0.496-0.763l0.703-1.044l-0.078-1.097l-0.643-1.004c0.029-0.057,0.082-0.098,0.131-0.149
		c-0.008,0.182-0.059,0.511,0.371,0.582l0.146-0.352c0.975,0.106,0.33,1.738,1.145,1.77l0.063-0.499l0.621,0.595l0.445-0.999
		l-0.365,0.055l0.355-1.415l0.717,0.59l0.123-0.652l0.199,0.224c1.176-1.336,2.533-3.14,2.533-4.993l1.768-0.883l-0.33-0.473
		l0.732-0.025l0.594-1.595l0.438,0.115l0.025-0.743l0.523-0.03l-0.281-0.26l0.846-0.678l-0.295-0.331l1.045-2.389l-0.793,0.055
		l-0.053-0.616l0.605,0.32c1.16-0.704,1.094-2.493,1.738-3.768l-0.252-0.453l1.268-2.716l-0.816-0.878
		c-0.324-0.688,0.811-0.027,1.309-0.435l0.057-0.994l0.08,0.044l0.201-1.191l0.025,0.065l0.688-0.894l-0.268-1.179l0.227-0.036
		l-0.412-0.086l0.453-0.585l0.346,0.406c0.541-0.619-0.301-0.272-0.416-0.636c0.176-0.088-1.846-3.551-1.063-2.471
		c0.721,0.817-0.736-1.809,1.398,2.293c1.422,2.263-1.299-2.906-1.076-2.539l-0.621,0.146l-0.619-0.743l-0.842,0.025l0.412,0.782
		l-0.602-0.324l-0.432,0.109l-0.129-0.754l-1.057-0.077l0.133-1.194l-0.744,0.172l-0.146-0.477c-0.838-0.726-1.598,0.682-2.15-0.078
		l0.035-0.422l-0.463,0.054c-0.076-1.44-2.07-1.412-2.887-2.474l-0.916,0.05l-0.777-0.742l-0.127,0.719
		c-0.48-0.699-1.586,0.398-1.605-0.572l0.566-0.417c0.025-1.379-5.684,1.241-4.111,0.678l0.463,0.972l-1.361,0.25l-0.475,0.627
		l0.012-0.429l-0.793,1.388l-1.803,1.019c0.23,0.743-0.941,0.589-0.359,1.225l-0.248-0.098l0.061,1.13l-0.328-0.461l-1.043,0.355
		l0.025,0.567l-0.109,0.389l-0.301,0.815l-0.432-0.401l-0.678,0.807c-0.051,0.004-0.113,0.016-0.217,0.153l-0.572,0.269
		l-0.246-0.381l-0.154,1.146l-2.266,2.695l0.025-0.277l-0.4,0.67l-0.826,0.349l0.324,0.214l-2.164,2.197l-0.01-0.605l-0.957,2.366
		l-0.18-0.534l-0.604,1.307l0.029,0.723l-0.076-0.062l-0.615,0.992l-0.18-0.382l-1.348,0.606l0.115,0.535l-0.617,0.092l0.086,1.659
		l-0.078,0.085l-0.52-0.562l-0.244,1.335l-1.674,1.729l-0.457-0.762l-1.736,1.572c0.846,0.187-0.049,0.802,0.15,1.287l-0.23,0.24
		c-0.316,0.178-0.539-0.165-0.832-0.075l-1.627,1.91l-0.072-0.125l-1.32,2.229l-0.102,0.094l-0.145-0.355
		c-0.484,0.245-0.277,0.487-0.209,0.721l-0.229,0.235l-0.076-0.278l-1.039,1.41l-0.105-0.397l-0.52,1.058l-0.395,0.391l-0.178-0.387
		l-0.506,1.067l-0.045,0.05l-0.477,0.003l-0.512,1.015l-0.27,0.275l-0.689,0.042l-5.229,6.048l-0.58,0.587l-0.402-0.872
		c0.473,0.413-0.199,0.477-0.68,1.247l-0.094-0.031l-0.738,0.66l0.123,0.101c-0.014,0.588-1.246,0.13-0.842,0.846l-0.543-0.069
		l-0.582,1.109l-0.045-0.126l-1.051,1.388l-0.295,0.997l-0.322,0.354l-0.303-0.331c-1.063,1.24-2.422,2.951-3.305,4.046
		l-1.045,1.066l7.617,8.081C380.918,173.475,381.319,173.783,381.742,174.227z M393.977,174.396l-0.84-0.492L393.977,174.396z"/>
	<polygon fill="#E89B68" points="424.182,148.592 424.18,148.604 424.244,149.399 	"/>
	<polygon fill="#E89B68" points="431.492,114.738 431.492,114.84 431.653,114.812 	"/>
	<polygon fill="#E89B68" points="406.114,167.333 405.971,167.453 406.541,167.628 	"/>
	<polygon fill="#E89B68" points="431.205,114.6 431.492,114.738 431.522,114.425 	"/>
	<polygon fill="#E89B68" points="405.522,129.972 405.559,129.863 405.553,129.613 	"/>
	<line fill="none" x1="393.141" y1="173.901" x2="393.977" y2="174.396"/>
	<polygon fill="#E89B68" points="405.078,167.561 404.789,167.57 404.856,167.942 	"/>
	<line fill="none" x1="407.299" y1="165.502" x2="406.813" y2="166.694"/>
	<line fill="none" x1="410.459" y1="164.645" x2="410.336" y2="164.27"/>
	<line fill="none" x1="410.647" y1="163.535" x2="410.037" y2="163.637"/>
	<line fill="none" x1="416.022" y1="159.228" x2="415.502" y2="159.636"/>
	<polygon fill="#E89B68" points="417.803,157.386 417.672,157.021 417.477,157.197 	"/>
	<polygon fill="#E89B68" points="426.237,111.68 425.895,111.646 426.065,111.898 	"/>
	<line fill="none" x1="405.563" y1="127.935" x2="405.967" y2="127.937"/>
	<polygon fill="#E89B68" points="397.805,138.333 397.742,138.418 398.194,138.759 	"/>
	<polygon fill="#E89B68" points="129.011,378.037 129.062,377.941 129.043,377.679 	"/>
	<polygon fill="#E89B68" points="154.694,362.637 154.988,362.774 155.016,362.465 	"/>
	<polygon fill="#E89B68" points="147.701,396.615 147.701,396.625 147.749,397.42 	"/>
	<polygon fill="#E89B68" points="129.634,415.379 129.501,415.49 130.062,415.656 	"/>
	<polygon fill="#E89B68" points="154.988,362.774 154.984,362.887 155.14,362.848 	"/>
	<path fill="#E89B68" d="M161.411,365.969c0.733,0.818-0.777-1.807,1.45,2.277c0.405,0.481-0.689-1.654-1.155-2.521l-0.585,0.143
		l-0.613-0.74l-0.839,0.025l0.393,0.782l-0.565-0.317l-0.449,0.094l-0.126-0.737l-1.085-0.076l0.146-1.198l-0.735,0.164l-0.151-0.47
		c-0.835-0.733-1.589,0.675-2.138-0.082l0.03-0.421l-0.46,0.055c-0.101-1.439-2.067-1.408-2.875-2.486l-0.938,0.041l-0.775-0.737
		l-0.139,0.716c-0.472-0.693-1.558,0.398-1.596-0.566l0.583-0.422c0.013-1.387-5.688,1.313-4.105,0.709l0.449,0.979l-1.35,0.25
		l-0.483,0.637v-0.433l-0.799,1.399l-1.792,1.019c0.224,0.731-0.939,0.585-0.347,1.209l-0.265-0.097l0.062,1.142l-0.331-0.481
		l-1.042,0.364l0.042,0.568l-0.126,0.397l-0.301,0.82l-0.428-0.425l-0.68,0.815c-0.045,0.012-0.115,0.024-0.198,0.17l-0.578,0.271
		l-0.232-0.386l-0.178,1.146l-2.25,2.687l0.013-0.279l-0.408,0.677l-0.839,0.347l0.343,0.229l-2.173,2.199l-0.008-0.618
		l-0.982,2.368l-0.172-0.528l-0.581,1.326l0.022,0.708l-0.079-0.055l-0.617,0.992l-0.179-0.396l-1.326,0.618l0.132,0.533
		l-0.637,0.082l0.088,1.662l-0.084,0.075l-0.514-0.554l-0.225,1.326l-1.7,1.74l-0.452-0.777l-1.734,1.58
		c0.824,0.187-0.021,0.813,0.168,1.285l-0.265,0.24c-0.321,0.168-0.527-0.168-0.818-0.078l-1.616,1.91l-0.093-0.123l-1.289,2.205
		l-0.094,0.112l-0.179-0.354c-0.453,0.254-0.273,0.473-0.188,0.711l-0.229,0.252l-0.068-0.262l-1.018,1.391l-0.032,0.023
		l-0.109-0.41l-0.535,1.063l-0.392,0.391l-0.164-0.391l-0.514,1.074l-0.033,0.055l-0.478,0.003l-0.476,0.978l-0.298,0.318
		l-0.689,0.032l-5.224,6.019l-0.597,0.621l-0.39-0.869c0.439,0.41-0.227,0.479-0.699,1.246l-0.077-0.037l-0.747,0.664l0.125,0.104
		c-0.014,0.593-1.248,0.113-0.828,0.841l-0.565-0.077l-0.563,1.108l-0.062-0.128l-1.061,1.389l-0.271,1.02l-0.331,0.339
		l-0.294-0.328c-1.027,1.196-2.339,2.825-3.232,3.928l-1.138,1.175l7.666,8.082c0.374,0.512,0.786,0.826,1.194,1.27l2.465,2.581
		l-0.025,0.274c0.147,0.168,0.376,0.174,0.542,0.286l0.751,0.792l1.653-0.426c0.299-0.064,0.605-0.128,0.923-0.23l4.097-1.039
		l0.874-0.914c0.48-0.512,1.046-1.019,1.575-1.523l-0.051,0.432l0.671-0.168l0.182-0.527l0.302,0.33l1.644-1.604l-0.547-0.102
		l1.023-1.094l0.388,0.486l0.155-0.391l0.353,0.688c-0.533-0.856,0.76-1.202,0.818-1.477l0.025,0.147
		c0.782-0.287-0.371-0.203,0.005-0.563l1.162,0.42l2.164-2.011l0.992-1.949l0.727-0.069l0.794,1.357l0.587-0.528l-0.619-0.186
		c-0.719-0.223,0.821-0.842-0.118-1.026l2.125-1.876l0.397,0.658l1.063-1.809l-0.778-0.58l0.195-0.543l1.452,0.414
		c0.396,0.713-0.959,0.762-0.187,1.111c0.178,0.676-0.74,1.596-1.196,1.502c-0.007,0.944,0.404-0.279,0.762,0.291l0.93-1.563
		l-0.354-0.567c0.108-1.049,1.052-0.322,1.209-0.429l-0.149,0.396l0.792-0.996c0.719,0.535-0.582,0.684-0.349,1.227l0.732,0.197
		l0.458-1.146l0.161,0.319l0.239-0.535l-0.941-0.162c-0.359-0.846,0.231-0.395,0.656-1.036l-0.536-0.085l0.221-0.964l1.012,0.248
		l-0.483,0.268c-0.212,0.892,0.941,0.523,0.79,1.138l0.476-1.147c-0.278,0.61-0.375-0.188-0.653-0.231
		c-0.188-1.656,1.138,0.258,1.694-0.576c-0.735-0.484,0.118-1.756-1.058-1.946l0.395-0.711l0.664,0.737l0.264-0.231l0.087,0.86
		l1.675-0.084l-0.175-0.803l0.675,0.098c-0.543,0.205-0.576-0.577-0.433-0.899l1.104-0.121l-0.026,0.698l0.436-0.348l-0.5-1.195
		l0.632-0.332l-0.137,0.607l1.112-0.113l-0.202-0.451l0.384,0.277l0.23-0.735l0.245,0.167c0.074-0.339-0.129-1.063,0.558-0.891
		l-0.88,0.369l0.034-0.84c0.542,0.571,0.613-0.475,0.881-0.707l0.788,0.045l-0.266-0.457c0.793,0.586,0.384-0.619,0.849-0.737
		l0.675,0.499l-0.695-1.399c0.66-0.397,0.564,0.781,1.09,0.97c-0.188-0.687,0.793-0.402,0.412-1.086l-0.476-0.692l0.655,0.103
		l-0.522-0.756l0.721-1.043l-0.076-1.088l-0.647-0.994c0.031-0.061,0.079-0.119,0.112-0.16c0.025,0.18-0.022,0.512,0.387,0.572
		l0.169-0.355c0.955,0.119,0.311,1.744,1.106,1.777l0.067-0.5l0.626,0.602l0.446-1.002l-0.354,0.068l0.344-1.432l0.701,0.592
		l0.135-0.641l0.184,0.217c1.19-1.344,2.554-3.135,2.535-4.996l1.782-0.885l-0.323-0.469l0.704-0.025l0.618-1.586l0.423,0.106
		l0.043-0.741l0.523-0.026l-0.291-0.255l0.854-0.686l-0.303-0.332l1.042-2.367l-0.802,0.025l-0.043-0.607l0.604,0.316
		c1.163-0.688,1.11-2.482,1.749-3.748l-0.236-0.463l1.263-2.723l-0.815-0.864c-0.33-0.688,0.806-0.026,1.313-0.44l0.037-0.983
		l0.077,0.026l0.229-1.19l0.012,0.063l0.688-0.882l-0.276-1.192l0.223-0.026l-0.415-0.101l0.461-0.571l0.36,0.396
		c0.536-0.604-0.315-0.27-0.432-0.643C160.671,364.726,161.809,367.063,161.411,365.969z M116.668,421.951l0.83,0.487
		L116.668,421.951z"/>
	<polygon fill="#E89B68" points="159.442,365.582 159.489,365.611 159.664,365.568 	"/>
	<path fill="#E89B68" d="M161.704,365.726l0.029,0.002C161.399,365.123,161.502,365.332,161.704,365.726z"/>
	<line fill="none" x1="116.668" y1="421.951" x2="117.498" y2="422.441"/>
	<polygon fill="#E89B68" points="128.385,415.987 128.601,415.592 128.316,415.611 	"/>
	<line fill="none" x1="130.829" y1="413.541" x2="130.358" y2="414.722"/>
	<line fill="none" x1="133.984" y1="412.691" x2="133.841" y2="412.297"/>
	<line fill="none" x1="134.173" y1="411.57" x2="133.569" y2="411.67"/>
	<line fill="none" x1="139.546" y1="407.26" x2="139.029" y2="407.668"/>
	<polygon fill="#E89B68" points="141.309,405.42 141.182,405.039 141.017,405.226 	"/>
	<polygon fill="#E89B68" points="149.381,359.679 149.564,359.938 149.725,359.717 	"/>
	<line fill="none" x1="129.034" y1="375.992" x2="129.456" y2="375.998"/>
	<polygon fill="#E89B68" points="121.677,386.816 121.294,386.397 121.227,386.483 	"/>
	<path fill="#E89B68" d="M434.489,204.371l-0.021-0.383c-0.512,0.037-0.426,0.333-0.465,0.571l-0.287,0.127l0.025-0.271
		l-1.537,0.865l0.07-0.412l-0.93,0.756l-0.496,0.198l0.02-0.417l-0.912,0.782l-0.055,0.024l-0.432-0.188l-0.861,0.713l-0.383,0.148
		l-0.637-0.244l-7.209,3.406l-0.803,0.329c-0.52-0.439,0.451-0.627-0.018-0.964c0.266,0.579-0.373,0.351-1.125,0.877l-0.051-0.076
		l-0.941,0.309l0.059,0.145c-0.244,0.541-1.189-0.381-1.104,0.427l-0.48-0.28l-0.953,0.789l0.004-0.13
		c-0.775-0.03-1.076,1.252-1.551,0.833l-0.646,0.812l-0.445,0.181l-0.141-0.414c-1.383,0.668-3.201,1.611-4.439,2.265l-1.572,0.63
		l3.732,10.518c0.127,0.618,0.396,1.076,0.592,1.652l1.188,3.341l-0.127,0.233c0.064,0.222,0.268,0.299,0.385,0.481l0.369,1.019
		l1.705,0.279c0.291,0.066,0.594,0.127,0.896,0.146l4.164,0.694l1.201-0.493c0.643-0.272,1.395-0.486,2.061-0.754l-0.227,0.38
		l0.672,0.11l0.373-0.399l0.152,0.415l2.145-0.807l-0.461-0.288l1.371-0.593l0.16,0.605l0.303-0.302l0.031,0.776
		c-0.115-0.994,1.188-0.789,1.352-1.005l-0.025,0.149c0.818,0.043-0.27-0.339,0.209-0.529l0.906,0.865l2.781-0.969l1.699-1.374
		c0.586-0.187,0.229,0.75,0.697,0.229c0.031,0.625,0.914,1.05,0.189,1.567l0.736-0.245l-0.488-0.434
		c-0.58-0.479,1.09-0.427,0.314-0.968l2.701-0.859l0.109,0.763l1.688-1.242l-0.473-0.843l0.389-0.398
		c0.271,0.431,0.48,1.167,1.156,0.951c0.078,0.803-1.172,0.313-0.635,0.94l-1.693,0.894c-0.381,0.857,0.506-0.08,0.586,0.585
		l1.484-1.069l-0.084-0.657c0.518-0.921,1.08,0.133,1.289,0.104l-0.307,0.306l1.104-0.608c0.453,0.804-0.787,0.393-0.793,0.991
		l0.576,0.475c0.842-0.208-0.012-0.774,0.898-0.85v0.349l0.443-0.384l-0.803-0.53l1.043-0.673l-0.482-0.304l0.584-0.788l0.83,0.627
		l-0.535,0.062l0.26,1.358l0.893-0.854c-0.494,0.436-0.258-0.333-0.484-0.484c0.486-1.604,0.943,0.701,1.771,0.15
		c-0.471-0.726,0.803-1.552-0.18-2.199l0.639-0.494l0.322,0.941l0.332-0.105l-0.275,0.825l1.553,0.584l0.18-0.8l0.592,0.373
		l-0.055-1.012l1.051,0.338l-0.287,0.635l0.535-0.15l0.006-1.307l0.73-0.033l-0.381,0.495c0.607-0.354,0.467,0.789,1.055,0.333
		v-0.483l0.244,0.393l0.506-0.583l0.143,0.257l0.873-0.594l-0.939-0.018c-0.482-0.39,0.291-0.636,0.377-0.742
		c0.258,0.729,0.746-0.198,1.078-0.311l0.695,0.352l-0.035-0.502c0.482,0.848,0.574-0.414,1.059-0.348l0.416,0.729l-0.078-1.554
		c0.764-0.11,0.229,0.943,0.6,1.313l0.816-0.831l-0.131-0.824l0.564,0.378l-0.176-0.896l1.086-0.674l-0.281,0.751
		c0.871-0.395-0.045-1.254,0.639-1.784l-0.186-1.181c0.051-0.035,0.115-0.063,0.18-0.086c-0.068,0.162-0.256,0.437,0.111,0.674
		l0.279-0.255l0.326,2.074l0.256-0.437l0.33,0.799l0.814-0.738l-0.342-0.077l0.885-1.169l0.41,0.81l0.389-0.534l0.076,0.284
		c1.625-0.762,3.598-1.857,4.34-3.55l1.988-0.082l-0.127-0.566l0.688,0.269l1.195-1.209l0.35,0.282l0.336-0.672l0.473,0.188
		l-0.145-0.333c0.271-0.427,0.711-0.862,1.043-0.301l-0.133-0.428l1.934-1.756l-0.77-0.282l0.215-0.576l0.422,0.537l3.123-2.747
		l-0.063-0.51l2.27-1.982l-0.391-1.128c-0.035-0.755,0.738,0.314,1.363,0.128l0.441-0.881l0.066,0.07l0.674-1l-0.004,0.07
		l0.986-0.539l0.232-1.191l0.219,0.065l-0.33-0.246l0.635-0.333l0.174,0.501c0.738-0.354-0.184-0.382-0.129-0.771
		c-0.191-4.096-0.104-1.5-0.02-2.666c0.35,1.039,0.018-1.96,0.393,2.662c0.197,0.637,0.039-1.792-0.027-2.772l-0.594-0.093
		l-0.264-0.941l-0.783-0.318l0.068,0.878l-0.434-0.534l-0.438-0.088l0.186-0.729l-0.943-0.516c0.355-0.315,0.953-0.414,0.621-1.032
		l-0.768-0.146l0.053-0.488c-0.479-1.004-1.713-0.018-1.912-0.945l0.184-0.365l-0.414-0.134c0.479-1.352-1.348-2.129-1.662-3.437
		c-0.486,0.487-0.504-0.303-0.844-0.333c0.596-0.398-0.543-0.45-0.424-0.992l-0.436,0.598c-0.146-0.841-1.572-0.271-1.203-1.159
		l0.688-0.155c0.566-1.261-5.738-1.044-4.047-0.966l0.025,1.069l-1.348-0.326l-0.689,0.396l0.18-0.383l-1.293,0.941l-2.061,0.213
		c-0.115,0.75-1.092,0.151-0.828,0.967l-0.182-0.188l-0.393,1.063l-0.117-0.568c-0.205-0.684-0.893,0.207-1.096-0.089l-0.197,0.534
		l-0.277,0.305l-0.611,0.642l-0.217-0.549l-0.947,0.453c-0.039-0.016-0.092-0.02-0.236,0.076l-0.629,0.022l-0.078-0.456
		l-0.625,0.977l-3.131,1.552l0.119-0.232l-0.633,0.451l-0.92-0.017l0.209,0.33l-2.867,1.139l0.242-0.578l-1.836,1.78l0.021-0.557
		l-1.043,0.979l-0.281,0.653l-0.045-0.097l-0.941,0.638l-0.02-0.43l-1.459,0.026l-0.107,0.536l-0.613-0.175l-0.578,1.552
		l-0.125,0.041l-0.238-0.715l-0.727,1.123l-2.262,0.896l-0.105-0.875l-2.234,0.736c0.701,0.521-0.338,0.729-0.365,1.24l-0.32,0.127
		c-0.379,0.024-0.424-0.382-0.721-0.392l-2.27,1.078l-0.021-0.146l-2.113,1.523L434.489,204.371z M421.065,232.208l0.555,0.763
		L421.065,232.208z"/>
	<line fill="none" x1="421.065" y1="232.208" x2="421.619" y2="232.969"/>
	<path fill="#E89B68" d="M99.493,341.944l0.02-0.482l0.235,0.389l0.499-0.584l0.165,0.267l0.873-0.596l-0.942-0.022
		c-0.484-0.382,0.278-0.628,0.378-0.737c0.24,0.732,0.732-0.187,1.083-0.301l0.698,0.353l-0.074-0.524
		c0.504,0.862,0.603-0.408,1.084-0.33l0.413,0.734l-0.074-1.554c0.76-0.104,0.215,0.945,0.623,1.319l0.804-0.839l-0.154-0.822
		l0.565,0.371l-0.17-0.902l1.085-0.677l-0.271,0.759c0.853-0.383-0.073-1.246,0.644-1.782l-0.222-1.182
		c0.083-0.026,0.126-0.06,0.193-0.085c-0.061,0.178-0.256,0.447,0.113,0.684l0.294-0.26l0.309,2.071l0.256-0.438l0.331,0.805
		l0.818-0.737l-0.341-0.095l0.886-1.157l0.402,0.817l0.388-0.534l0.083,0.279c1.615-0.749,3.589-1.851,4.333-3.538l1.988-0.075
		l-0.13-0.569l0.681,0.267l1.195-1.198l0.355,0.272l0.324-0.656l0.494,0.18l-0.16-0.331c0.278-0.398,0.713-0.851,1.047-0.28
		l-0.154-0.436l1.927-1.752l-0.74-0.278l0.195-0.584l0.44,0.532l3.101-2.738l-0.062-0.509l2.271-1.979l-0.394-1.136
		c-0.03-0.754,0.742,0.317,1.358,0.132l0.446-0.891l0.058,0.071l0.673-1.01l-0.003,0.079l0.985-0.541l0.236-1.189l0.221,0.065
		l-0.371-0.26l0.68-0.337l0.153,0.509c0.725-0.354-0.179-0.382-0.143-0.771c0.199,0.011-0.217-3.979,0.045-2.672
		c0.318,1.03,0.078-1.958,0.35,2.65c0.381,2.646-0.016-3.171,0.055-2.738l-0.635-0.127l-0.257-0.939l-0.791-0.316l0.062,0.886
		l-0.402-0.535l-0.436-0.074l0.188-0.738l-0.953-0.492c0.359-0.328,0.965-0.438,0.625-1.044l-0.763-0.146l0.054-0.483
		c-0.461-0.993-1.711-0.025-1.931-0.941l0.205-0.354l-0.419-0.136c0.482-1.359-1.349-2.123-1.654-3.44
		c-0.498,0.497-0.498-0.28-0.853-0.321c0.596-0.395-0.534-0.46-0.421-0.991l-0.418,0.593c-0.153-0.841-1.604-0.278-1.229-1.167
		l0.686-0.142c0.57-1.253-5.719-1.147-4.023-1.037l0.031,1.089l-1.356-0.336l-0.681,0.405l0.172-0.383l-1.283,0.929l-2.073,0.212
		c-0.075,0.767-1.092,0.15-0.807,0.97l-0.193-0.187l-0.39,1.042l-0.114-0.559c-0.188-0.692-0.89,0.208-1.101-0.101l-0.179,0.533
		l-0.28,0.318l-0.61,0.632l-0.217-0.534l-0.96,0.443c-0.05-0.015-0.096-0.005-0.239,0.077l-0.632,0.02l-0.075-0.44l-0.611,0.969
		l-3.148,1.552l0.131-0.229l-0.647,0.434l-0.897-0.005l0.206,0.324l-2.869,1.131l0.243-0.563l-1.825,1.777l0.025-0.557l-1.078,0.962
		l-0.266,0.652l-0.043-0.077l-0.96,0.652v-0.43l-1.479,0.026l-0.1,0.536l-0.592-0.165l-0.583,1.558l-0.127,0.048l-0.238-0.729
		l-0.755,1.128l-2.241,0.892l-0.104-0.875l-2.197,0.736c0.654,0.518-0.379,0.729-0.398,1.232l-0.321,0.127
		c-0.367,0.025-0.425-0.371-0.709-0.394l-2.266,1.09l-0.021-0.136l-2.128,1.51l-0.1,0.045l0.002-0.386
		c-0.556,0.038-0.432,0.336-0.483,0.584l-0.305,0.104l0.063-0.243l-1.536,0.851l0.064-0.408l-0.914,0.737l-0.513,0.229l-0.016-0.438
		l-0.888,0.794l-0.05,0.007l-0.434-0.18l-0.894,0.73l-0.326,0.142l-0.651-0.243l-7.088,3.354l-0.934,0.377
		c-0.482-0.432,0.451-0.638,0.012-0.959c0.245,0.572-0.396,0.343-1.14,0.867l-0.076-0.066l-0.942,0.291l0.074,0.146
		c-0.241,0.541-1.196-0.389-1.107,0.44l-0.458-0.277l-0.976,0.782l0.005-0.135c-0.771-0.024-1.073,1.247-1.554,0.842l-0.633,0.809
		l-0.459,0.178l-0.142-0.422c-1.494,0.711-3.478,1.763-4.716,2.38l-1.329,0.525l3.731,10.491c0.116,0.601,0.363,1.054,0.582,1.613
		l1.186,3.373l-0.121,0.248c0.06,0.23,0.279,0.332,0.401,0.522l0.354,1.007l1.645,0.28c0.315,0.058,0.607,0.113,0.953,0.151
		l4.147,0.679l1.188-0.474c0.661-0.266,1.403-0.481,2.062-0.746l-0.218,0.383l0.674,0.107l0.395-0.393l0.126,0.402l2.142-0.809
		l-0.458-0.304l1.379-0.585l0.167,0.604l0.296-0.298l0.031,0.78c-0.138-1.002,1.195-0.801,1.36-1.013l-0.033,0.152
		c0.817,0.035-0.255-0.346,0.219-0.528l0.901,0.855l2.784-0.977l1.693-1.354c0.582-0.201,0.223,0.735,0.699,0.229
		c0.054,0.611,0.917,1.042,0.185,1.563l0.75-0.255l-0.483-0.435c-0.582-0.478,1.068-0.438,0.29-0.966l2.702-0.86l0.104,0.748
		l1.693-1.238l-0.483-0.841l0.414-0.407c0.262,0.437,0.471,1.176,1.151,0.959c0.063,0.801-1.179,0.313-0.618,0.94l-1.725,0.892
		c-0.378,0.852,0.511-0.096,0.611,0.577l1.474-1.046l-0.079-0.674c0.514-0.927,1.082,0.141,1.271,0.104l-0.316,0.299l1.15-0.602
		c0.419,0.807-0.82,0.385-0.834,0.99l0.581,0.474c0.856-0.201-0.021-0.773,0.899-0.843l0.002,0.342l0.47-0.365l-0.816-0.544
		l1.026-0.683l-0.464-0.304l0.596-0.788l0.794,0.628l-0.557,0.054l0.291,1.369l0.892-0.858c-0.509,0.448-0.258-0.323-0.503-0.483
		c0.511-1.604,0.941,0.701,1.792,0.155c-0.491-0.738,0.803-1.552-0.193-2.201l0.636-0.494l0.322,0.949l0.353-0.11l-0.272,0.842
		l1.552,0.573l0.155-0.797l0.586,0.382l-0.021-1.028l1.043,0.34l-0.297,0.636l0.547-0.136l0.007-1.319l0.721-0.025l-0.365,0.493
		L99.493,341.944z M68.019,347.671l0.554,0.763L68.019,347.671z"/>
	<polygon fill="#E89B68" points="126.954,308.979 126.903,309.078 127.088,309.135 	"/>
	<polygon fill="#E89B68" points="129.892,313.352 129.924,313.372 130.095,313.406 	"/>
	<polygon fill="#E89B68" points="126.744,308.742 126.954,308.979 127.107,308.695 	"/>
	<polygon fill="#E89B68" points="97.052,312.447 97.122,312.366 97.241,312.128 	"/>
	<polygon fill="#E89B68" points="82.514,346.857 82.353,346.92 82.792,347.306 	"/>
	<line fill="none" x1="68.019" y1="347.671" x2="68.574" y2="348.434"/>
	<polygon fill="#E89B68" points="81.125,346.92 81.483,346.654 81.205,346.554 	"/>
	<line fill="none" x1="84.343" y1="345.669" x2="83.424" y2="346.554"/>
	<line fill="none" x1="87.602" y1="345.751" x2="87.552" y2="346.153"/>
	<line fill="none" x1="87.611" y1="345.076" x2="88.193" y2="345.209"/>
	<line fill="none" x1="94.847" y1="343.446" x2="94.197" y2="343.611"/>
	<polygon fill="#E89B68" points="97.205,342.463 97.24,342.075 97,342.175 	"/>
	<polygon fill="#E89B68" points="123.152,304.205 123.409,304.075 123.07,303.892 	"/>
	<line fill="none" x1="97.898" y1="310.596" x2="98.271" y2="310.771"/>
	<polygon fill="#E89B68" points="86.791,317.537 86.609,316.982 86.516,317.033 	"/>
	<path fill="#E89B68" d="M494.994,292.136l-0.52-0.348l0.133-0.975l-0.605-0.594l-0.289,0.84l-0.156-0.661l-0.373-0.253l0.463-0.585
		l-0.662-0.854l0.992-0.693l-0.639-0.437l0.23-0.433c-0.023-1.108-1.553-0.726-1.363-1.65l0.322-0.251l-0.332-0.289
		c1-1.051-0.357-2.493-0.127-3.814c-0.631,0.26-0.324-0.477-0.637-0.64c0.711-0.121-0.309-0.638,0.023-1.071l-0.637,0.36
		c0.197-0.813-1.352-0.878-0.646-1.554l0.703,0.146c1.039-0.918-4.779-3.345-3.291-2.56l-0.404,0.989l-1.09-0.84l-0.807,0.091
		l0.305-0.279l-1.539,0.329l-1.977-0.636l-1.141,0.561l-0.092-0.252l-0.789,0.821l0.121-0.581c0.094-0.697-0.875-0.154-0.957-0.518
		l-0.395,0.401l-0.385,0.172l-0.797,0.332l0.025-0.576l-1.053,0.031c-0.051-0.025-0.094-0.056-0.271-0.031l-0.578-0.24l0.127-0.433
		l-0.969,0.636c-1.086-0.443-3.023-0.071-3.508,0.15l0.219-0.155l-0.787,0.16l-0.803-0.39l0.064,0.392
		c-0.863-0.703-2.037,0.375-3.098-0.126l0.463-0.41l-2.402,0.875l0.275-0.482l-1.209,0.396c0.125,0.349-0.377,0.646-0.688,0.538
		l-0.02-0.099l-1.125,0.23l0.178-0.383c-0.109-0.731-1.256-0.495-1.357-0.581l-0.324,0.438l-0.469-0.382l-1.168,1.19l-0.125-0.006
		l0.059-0.763l-1.143,0.734l-2.408-0.077l0.248-0.849l-2.34-0.223c0.432,0.746-0.586,0.529-0.826,0.968h-0.229l-0.607-0.647
		l-2.521,0.072l0.035-0.129l-2.521,0.534l-0.127-0.008l0.145-0.363c-0.498-0.188-0.527,0.141-0.645,0.341l-0.332-0.011l0.129-0.215
		l-1.723,0.173h-0.016l0.213-0.354l-1.129,0.32l-0.547-0.023l0.156-0.382l-1.188,0.344v0.012l-0.318-0.354l-1.076,0.303
		l-0.393-0.019l-0.521-0.484l-7.805,0.228l-1.018-0.026c-0.279-0.608,0.654-0.403,0.383-0.878c0.01,0.61-0.486,0.145-1.398,0.332
		l-0.025-0.089l-0.969-0.114l-0.012,0.172c-0.441,0.382-0.941-0.84-1.195-0.045l-0.32-0.456l-1.193,0.332l0.059-0.137
		c-0.693-0.324-1.486,0.729-1.746,0.162l-0.916,0.479l-0.484-0.021l0.033-0.433c-1.639,0.036-3.842,0.188-5.223,0.264l-1.477-0.041
		l-0.816,11.07c-0.139,0.637-0.08,1.146-0.143,1.764l-0.24,3.535l-0.23,0.166c-0.037,0.234,0.127,0.433,0.176,0.638l-0.094,1.067
		l1.4,0.916c0.271,0.188,0.502,0.355,0.813,0.521l3.521,2.313l1.283,0.038c0.688,0.026,1.457,0.107,2.16,0.146l-0.352,0.242
		l0.586,0.392l0.52-0.226l-0.045,0.433l2.303,0.128l-0.314-0.474l1.5,0.021l-0.092,0.613l0.395-0.148l-0.277,0.726
		c0.289-0.962,1.398-0.237,1.625-0.383l-0.078,0.127c0.74,0.382-0.105-0.424,0.396-0.391l0.498,1.153l2.926,0.229l2.111-0.559
		l0.553,0.484c-0.221,0.585,0.416,1.327-0.482,1.501c0.336-0.5,0.51-0.032,0.758,0.029l-0.262-0.54
		c-0.32-0.677,1.195,0.051,0.688-0.78l2.813,0.31l-0.203,0.731l2.033-0.438l-0.092-0.969l0.533-0.211l0.67,1.339
		c-0.264,0.779-1.209-0.185-0.941,0.627l-1.922,0.13c-0.705,0.613,0.479,0.114,0.314,0.761l1.766-0.363l0.178-0.657
		c0.842-0.635,0.953,0.573,1.146,0.618l-0.396,0.146l1.258-0.086c0.084,0.899-0.885,0.041-1.145,0.568l0.35,0.675
		c0.859,0.146,0.313-0.723,1.168-0.43l-0.123,0.329l0.543-0.17l-0.506-0.812c0.383-0.84,0.432-0.083,1.191-0.21l-0.275-0.467
		l0.857-0.484l0.482,0.899l-0.535-0.17c-0.789,0.446,0.258,1.032-0.291,1.354l1.15-0.428l-0.26-0.653
		c1.115-1.248,0.572,1.034,1.572,0.881c-0.162-0.876,1.363-1.104,0.732-2.092l0.789-0.211l-0.098,0.997l0.346,0.035l-0.582,0.649
		l1.195,1.153l0.471-0.656l0.371,0.569l0.387-0.942l0.818,0.738l-0.523,0.468l0.543,0.074l0.549-1.189l0.672,0.26l-0.535,0.313
		l0.814,0.727l0.219-0.437l0.045,0.446l0.699-0.323l0.039,0.296c0.305-0.167,0.703-0.802,1.027-0.192l-0.842-0.395
		c-0.287-0.545,0.535-0.452,0.637-0.526c-0.051,0.769,0.764,0.128,1.123,0.154l0.494,0.605l0.162-0.503
		c0.102,0.993,0.697-0.126,1.105,0.129l0.096,0.842l0.549-1.452l0.02,1.447l1.068-0.432l0.209-0.818l0.371,0.577l0.193-0.898
		l1.291-0.181l-0.564,0.586c0.932-0.022,0.439-1.167,1.299-1.382l0.305-1.149c0.064,0.003,0.127-0.005,0.199,0
		c-0.127,0.127-0.42,0.309-0.18,0.658l0.383-0.093c0.547,0.759-1.086,1.381-0.559,2.001l0.404-0.295l-0.025,0.87l1.045-0.347
		l-0.279-0.215l1.275-0.697l0.061,0.912l0.561-0.34l-0.037,0.28c1.775-0.041,4.02-0.236,5.381-1.498l1.855,0.716l0.117-0.549
		l0.496,0.506l1.59-0.628l0.217,0.396l0.57-0.467l0.383,0.355l-0.016-0.378c0.418-0.271,0.994-0.482,1.078,0.157l0.031-0.458
		l2.475-0.817l-0.576-0.563l0.426-0.441l0.146,0.649c1.33,0.384,2.605-0.858,3.977-1.247l0.16-0.482l2.855-0.904l0.094-1.195
		c0.297-0.693,0.566,0.593,1.217,0.686l0.768-0.636l0.025,0.087l1.018-0.643l-0.045,0.064l1.121-0.104l0.705-0.987l0.18,0.142
		l-0.229-0.356l0.732-0.054l-0.074,0.525c0.83-0.021,0.006-0.423,0.186-0.76c1.545-3.801,0.539-1.402,1.105-2.427
		c-0.111,1.083,0.836-1.778-0.736,2.575C493.149,297.231,495.104,291.735,494.994,292.136z M423.063,296.791l0.215,0.941
		L423.063,296.791z"/>
	<line fill="none" x1="423.063" y1="296.791" x2="423.278" y2="297.728"/>
	<path fill="#E89B68" d="M57.31,262.173l-0.313-0.471l1.5,0.022l-0.092,0.611l0.396-0.153l-0.278,0.733
		c0.289-0.961,1.396-0.253,1.639-0.39l-0.081,0.133c0.742,0.381-0.104-0.429,0.41-0.401l0.484,1.148l2.922,0.233l2.112-0.554
		l0.547,0.48c-0.213,0.585,0.421,1.343-0.453,1.503c0.347-0.498,0.502-0.025,0.755,0.043l-0.26-0.553
		c-0.327-0.673,1.177,0.047,0.681-0.777l2.805,0.31l-0.205,0.735l2.049-0.451l-0.08-0.95l0.512-0.229l0.672,1.337
		c-0.251,0.788-1.191-0.18-0.941,0.628l-1.925,0.128c-0.688,0.626,0.481,0.116,0.313,0.763l1.778-0.36l0.169-0.648
		c0.864-0.643,0.948,0.565,1.144,0.606l-0.397,0.152l1.267-0.087c0.088,0.906-0.866,0.034-1.146,0.564l0.362,0.683
		c0.843,0.147,0.28-0.715,1.152-0.42l-0.123,0.325l0.56-0.175l-0.522-0.81c0.384-0.838,0.447-0.085,1.206-0.207l-0.295-0.459
		l0.857-0.488l0.484,0.901l-0.519-0.178c-0.786,0.456,0.255,1.053-0.307,1.357l1.163-0.424l-0.255-0.655
		c1.101-1.247,0.557,1.021,1.571,0.863c-0.168-0.858,1.354-1.094,0.711-2.072l0.78-0.21l-0.087,1.005l0.345,0.029l-0.567,0.645
		L81,267.164l0.472-0.678l0.401,0.584l0.354-0.941l0.836,0.75l-0.52,0.452l0.544,0.077l0.551-1.177l0.669,0.24l-0.548,0.321
		l0.824,0.727l0.206-0.449l0.063,0.459l0.691-0.323l0.053,0.299c0.29-0.18,0.693-0.815,1.03-0.209l-0.847-0.382
		c-0.292-0.558,0.521-0.462,0.623-0.538c-0.047,0.779,0.781,0.127,1.127,0.167l0.489,0.612l0.168-0.505
		c0.121,0.98,0.717-0.136,1.113,0.126l0.094,0.842l0.546-1.454l0.021,1.454l1.106-0.436l0.188-0.817l0.355,0.568l0.21-0.895
		l1.268-0.188l-0.562,0.59c0.941-0.022,0.438-1.188,1.301-1.389l0.305-1.167c0.062,0.002,0.135,0,0.198,0.003
		c-0.132,0.134-0.404,0.31-0.174,0.66l0.371-0.104c0.552,0.761-1.088,1.385-0.539,2.016l0.393-0.299l-0.005,0.863l1.022-0.339
		l-0.277-0.214l1.292-0.699l0.038,0.906l0.57-0.336l-0.043,0.279c1.797-0.033,4.04-0.231,5.398-1.493l1.852,0.722l0.122-0.563
		l0.513,0.52l1.566-0.636l0.236,0.39l0.566-0.463l0.381,0.354l-0.032-0.382c0.422-0.262,1.02-0.498,1.081,0.168l0.036-0.449
		l2.476-0.841l-0.56-0.553l0.413-0.454l0.159,0.668c1.311,0.372,2.592-0.871,3.961-1.262l0.177-0.481l2.845-0.906l0.106-1.185
		c0.284-0.7,0.557,0.584,1.202,0.661l0.751-0.63l0.041,0.088l1.019-0.643l-0.031,0.048l1.106-0.102l0.687-0.988l0.184,0.142
		l-0.22-0.366l0.738-0.037l-0.071,0.519c0.823-0.025-0.018-0.42,0.188-0.749c1.509-3.82,0.531-1.404,1.095-2.442
		c-0.107,1.084,0.784-1.789-0.724,2.589c-0.092,0.652,0.741-1.616,1.095-2.529l-0.521-0.365l0.146-0.951l-0.604-0.596l-0.281,0.839
		l-0.166-0.66l-0.365-0.254l0.447-0.59l-0.64-0.84l0.956-0.698l-0.627-0.451l0.269-0.414c-0.035-1.109-1.579-0.721-1.387-1.642
		l0.33-0.25l-0.337-0.297c0.99-1.051-0.368-2.483-0.121-3.817c-0.66,0.255-0.35-0.476-0.671-0.646
		c0.735-0.109-0.302-0.63,0.028-1.057l-0.627,0.362c0.206-0.828-1.338-0.89-0.647-1.552l0.702,0.147
		c1.014-0.939-4.842-3.289-3.313-2.542l-0.408,1l-1.095-0.84l-0.794,0.084l0.315-0.287l-1.559,0.342l-1.961-0.634l-1.146,0.548
		l-0.111-0.253l-0.791,0.813l0.122-0.562c0.092-0.706-0.876-0.161-0.957-0.521l-0.405,0.396l-0.382,0.169l-0.8,0.334l0.023-0.585
		l-1.056,0.042c-0.026-0.03-0.094-0.068-0.267-0.042l-0.574-0.242l0.127-0.427l-0.978,0.637c-1.082-0.439-3.022-0.077-3.5,0.15
		l0.213-0.165l-0.773,0.146l-0.805-0.369l0.066,0.385c-0.867-0.713-2.033,0.375-3.079-0.127l0.44-0.418l-2.388,0.891l0.258-0.498
		l-1.207,0.396c0.141,0.343-0.376,0.65-0.688,0.542l-0.017-0.097l-1.126,0.226l0.173-0.385c-0.111-0.713-1.237-0.492-1.359-0.574
		l-0.303,0.453l-0.483-0.394l-1.148,1.192l-0.146-0.005l0.064-0.771l-1.128,0.739l-2.41-0.077l0.254-0.853l-2.34-0.228
		c0.429,0.747-0.614,0.521-0.842,0.983l-0.248-0.013l-0.604-0.648l-2.521,0.077l0.051-0.138l-2.538,0.533l-0.124-0.005l0.135-0.354
		c-0.491-0.187-0.527,0.146-0.661,0.331l-0.313,0.006l0.131-0.229l-1.697,0.179l-0.025-0.002l0.203-0.356l-1.135,0.327l-0.548-0.02
		l0.175-0.393l-1.164,0.364h-0.018l-0.332-0.349l-1.084,0.309l-0.39-0.019l-0.502-0.482l-7.888,0.222l-0.94-0.043
		c-0.29-0.6,0.661-0.396,0.382-0.872c0.007,0.624-0.494,0.163-1.387,0.331l-0.024-0.086l-0.996-0.11l-0.007,0.172
		c-0.438,0.392-0.942-0.838-1.193-0.054l-0.315-0.441l-1.19,0.331l0.047-0.126c-0.688-0.334-1.473,0.715-1.738,0.145l-0.914,0.483
		l-0.488-0.025l0.05-0.429c-1.56,0.045-3.634,0.179-5.041,0.264l-1.654-0.038l-0.805,11.123c-0.133,0.616-0.095,1.12-0.133,1.729
		l-0.275,3.541l-0.208,0.174c-0.041,0.225,0.126,0.412,0.167,0.621l-0.076,1.056l1.424,0.941c0.264,0.188,0.507,0.357,0.804,0.519
		l3.496,2.305l1.302,0.045c0.691,0.023,1.458,0.104,2.166,0.141l-0.354,0.245l0.595,0.388l0.514-0.217l-0.049,0.413L57.31,262.173z
		 M53.442,260.046l0.214,0.934L53.442,260.046z"/>
	<path fill="#E89B68" d="M67.05,265.166c-0.082,0.085-0.127-0.026-0.187-0.043l0.274,0.555L67.05,265.166z"/>
	<polygon fill="#E89B68" points="122.957,248.381 122.893,248.447 123.01,248.552 	"/>
	<polygon fill="#E89B68" points="122.876,248.067 122.957,248.381 123.213,248.189 	"/>
	<polygon fill="#E89B68" points="123.908,253.568 123.908,253.596 124.049,253.691 	"/>
	<path fill="#E89B68" d="M94.16,239.521l0.275-0.088c-0.021-0.042,0.064-0.077,0.02-0.119L94.16,239.521z"/>
	<path fill="#E89B68" d="M125.335,255.339l0.016,0.006C125.566,254.7,125.495,254.908,125.335,255.339z"/>
	<line fill="none" x1="53.442" y1="260.046" x2="53.656" y2="260.973"/>
	<polygon fill="#E89B68" points="65.76,264.65 66.176,264.557 65.993,264.357 	"/>
	<line fill="none" x1="69.206" y1="264.817" x2="68.008" y2="265.26"/>
	<line fill="none" x1="72.175" y1="266.211" x2="71.973" y2="266.551"/>
	<line fill="none" x1="72.925" y1="265.941" x2="72.432" y2="265.587"/>
	<line fill="none" x1="79.718" y1="267.006" x2="79.078" y2="266.909"/>
	<polygon fill="#E89B68" points="82.284,267.074 82.453,266.724 82.203,266.715 	"/>
	<polygon fill="#E89B68" points="121.691,242.437 121.452,242.148 121.407,242.464 	"/>
	<line fill="none" x1="95.679" y1="238.167" x2="95.986" y2="238.487"/>
	<polygon fill="#E89B68" points="82.734,240.042 82.791,239.466 82.681,239.47 	"/>
	<path fill="#E89B68" d="M409.246,366.892c-0.129,0.041-0.125-0.088-0.186-0.138l0.025,0.636L409.246,366.892z"/>
	<polygon fill="#E89B68" points="432.766,378.029 432.75,378.014 432.028,378.321 	"/>
	<path fill="#E89B68" d="M467.709,368.476c0.506-0.675-0.879-1.353,0.023-1.683l0.586,0.401c1.307-0.433-3.01-4.993-1.963-3.669
		l-0.773,0.749l-0.668-1.229l-0.762-0.226l0.416-0.153l-1.582-0.31l-1.533-1.372c-0.637,0.439-0.857-0.697-1.26,0.051l-0.004-0.279
		l-1.043,0.433l0.33-0.465l-0.68-0.878l-0.527,0.229l-0.412,0.004l-0.861-0.024l0.266-0.522l-0.994-0.386
		c0.002-0.053-0.057-0.103-0.215-0.137l-0.439-0.462l0.283-0.355l-1.127,0.205c-0.83-0.856-2.74-1.296-3.287-1.273l0.279-0.066
		l-0.777-0.177l-0.584-0.681l-0.109,0.389c-0.488-1.001-2.008-0.483-2.777-1.354l0.584-0.203l-2.537-0.162l0.438-0.346l-1.27-0.132
		c-0.021,0.38-0.6,0.449-0.846,0.22l0.031-0.086l-1.115-0.245l0.291-0.3l-0.994-1.067l-0.482,0.284l-0.279-0.554l-1.553,0.618
		l-0.107-0.051l0.355-0.688l-1.336,0.218l-2.174-1.047l0.576-0.676l-2.025-1.139c0.076,0.845-0.764,0.233-1.148,0.57l-0.223-0.107
		l-0.293-0.852l-2.346-0.94l0.104-0.123l-2.549-0.534l-0.113-0.046l0.283-0.273c-0.375-0.372-0.543-0.091-0.738,0.056l-0.279-0.142
		l0.219-0.146l-1.652-0.543h-0.02l0.348-0.235l-1.186-0.162L425,346.171l0.311-0.293l-1.207-0.14l-0.025-0.025l-0.16-0.443
		l-1.104-0.16l-0.359-0.172l-0.264-0.642l-7.293-2.979l-0.85-0.41l0.688-0.643l-1.406-0.255l0.006-0.095l-0.861-0.488l-0.07,0.144
		c-0.557,0.186-0.525-1.146-1.045-0.522l-0.127-0.535l-1.234-0.184l0.109-0.09c-0.486-0.58-1.652,0.051-1.658-0.573l-1.025,0.066
		l-0.447-0.207l0.201-0.389c-1.449-0.597-3.436-1.313-4.777-1.804l-1.42-0.689l-5.244,9.828c-0.371,0.507-0.531,0.992-0.816,1.531
		l-1.678,3.14l-0.275,0.068c-0.123,0.201-0.053,0.433-0.092,0.638l-0.516,0.939l0.928,1.429c0.145,0.274,0.297,0.534,0.531,0.82
		l2.273,3.525l1.146,0.546c0.635,0.315,1.309,0.689,1.953,1.02l-0.418,0.077l0.363,0.586l0.559,0.025l-0.215,0.372l2.043,1.036
		l-0.086-0.549l1.361,0.625l-0.332,0.531l0.434,0.025l-0.547,0.545c0.652-0.775,1.375,0.34,1.654,0.301l-0.127,0.09l0.533-0.199
		l-0.025,1.247l2.572,1.401l2.162,0.342l0.311,0.656c-0.432,0.453-0.166,1.374-1.027,1.195c0.504-0.316,0.482,0.143,0.656,0.331
		l-0.012-0.601c-0.031-0.742,1.076,0.51,0.92-0.438l2.467,1.409l-0.492,0.587l2.08,0.425l0.283-0.916l0.568,0.021l0.076,1.5
		l-1.107,0.179l-1.824-0.652c-0.889,0.288,0.406,0.3-0.023,0.82l1.789,0.384l0.432-0.527c1.041-0.233,0.633,0.901,0.793,1.032
		l-0.432-0.038l1.197,0.436c-0.291,0.865-0.842-0.332-1.285,0.064l0.053,0.756l1.234,0.076l-0.246,0.238l0.584,0.076l-0.145-0.945
		c0.678-0.634,0.439,0.102,1.195,0.296l-0.092-0.544l0.969-0.084l0.102,1.014l-0.412-0.377c-0.918,0.098-0.205,1.067-0.818,1.117
		l1.23,0.098l0.025-0.688c1.502-0.713,0.115,1.152,1.092,1.425c0.209-0.856,1.688-0.466,1.502-1.615l0.789,0.127l-0.492,0.887
		l0.307,0.172l-0.789,0.366l0.627,1.548l0.699-0.434l0.113,0.688c-0.35-0.453,0.383-0.731,0.723-0.711l0.463,1.007l-0.676,0.221
		l0.475,0.278l0.99-0.853l0.498,0.502l-0.605,0.063l0.438,0.994l0.363-0.328l-0.127,0.45l0.789-0.012l-0.109,0.277
		c0.344-0.037,0.986-0.47,1.035,0.241l-0.623-0.716l0.811-0.229c-0.375,0.681,0.637,0.433,0.943,0.601l0.205,0.748l0.361-0.388
		c-0.314,0.94,0.686,0.149,0.949,0.559l-0.256,0.801l1.1-1.095c0.576,0.483-0.553,0.79-0.563,1.337l1.148,0.032l0.52-0.665
		l0.113,0.673l0.541-0.741l1.223,0.339l1.018-0.433l0.738-0.939c0.043,0.025,0.104,0.043,0.178,0.077
		c-0.168,0.076-0.482,0.124-0.43,0.546l0.389,0.051c0.205,0.928-1.553,0.84-1.324,1.631l0.514-0.113l-0.381,0.783l1.094,0.107
		l-0.178-0.316l1.451-0.127l-0.32,0.857l0.646-0.093l-0.145,0.261c1.639,0.678,3.789,1.4,5.543,0.799l1.408,1.414l0.33-0.462
		l0.256,0.673l1.703,0.062l0.025,0.434l0.736-0.187l0.203,0.482l0.129-0.334l0.934,0.586l0.191-0.408l2.609,0.236l-0.283-0.74
		l0.582-0.267l-0.127,0.668c1.043,0.88,2.723,0.255,4.133,0.458l0.348-0.383l2.98,0.325l0.559-1.042
		c0.541-0.538,0.281,0.749,0.838,1.086l0.941-0.26l-0.004,0.084l1.199-0.178l-0.064,0.047l1.059,0.349l1.045-0.632l0.086,0.205
		l-0.039-0.426l0.688,0.25l-0.262,0.469c0.748,0.308,0.143-0.392,0.471-0.625c0.123,0.139,2.779-2.848,2.002-1.775
		c-0.545,0.939,1.484-1.273-1.725,2.068c-1.695,2.062,2.326-2.158,2.063-1.828l-0.342-0.551l0.523-0.83l-0.316-0.783l-0.586,0.637
		l0.084-0.684l-0.209-0.367l0.672-0.352l-0.271-1.054l1.176-0.231l-0.4-0.67l0.404-0.295c0.396-1.023-1.158-1.276-0.605-2.051
		l0.396-0.101l-0.182-0.407c1.32-0.563,0.66-2.418,1.398-3.537l-0.328-0.854c0.689,0.178-0.025-0.693,0.443-0.959L467.709,368.476z
		 M398.651,357.658l0.184-0.941L398.651,357.658z"/>
	<line fill="none" x1="398.651" y1="357.658" x2="398.838" y2="356.718"/>
	<polygon fill="#E89B68" points="408.571,365.726 408.248,365.888 408.686,365.985 	"/>
	<line fill="none" x1="411.336" y1="367.439" x2="410.053" y2="367.367"/>
	<line fill="none" x1="413.467" y1="369.912" x2="413.164" y2="370.141"/>
	<line fill="none" x1="414.268" y1="369.961" x2="413.989" y2="369.449"/>
	<line fill="none" x1="420.067" y1="373.696" x2="419.531" y2="373.332"/>
	<polygon fill="#E89B68" points="422.465,374.422 422.385,374.778 422.701,374.535 	"/>
	<path fill="#E89B68" d="M143.135,198.705l0.016,0.01C143.613,198.221,143.451,198.369,143.135,198.705z"/>
	<polygon fill="#E89B68" points="109.37,195.303 109.352,195.298 108.636,195.613 	"/>
	<path fill="#E89B68" d="M85.853,184.174c-0.13,0.045-0.106-0.08-0.185-0.137l0.023,0.634L85.853,184.174z"/>
	<polygon fill="#E89B68" points="143.777,191.39 143.7,191.407 143.757,191.566 	"/>
	<polygon fill="#E89B68" points="142.531,196.493 142.531,196.518 142.637,196.685 	"/>
	<path fill="#E89B68" d="M121.01,171.647l0.279,0.03c0.003-0.041,0.101-0.043,0.069-0.103L121.01,171.647z"/>
	<polygon fill="#E89B68" points="143.812,191.058 143.777,191.39 144.09,191.308 	"/>
	<path fill="#E89B68" d="M70.416,170.312l2.299,3.536l1.143,0.545c0.618,0.309,1.299,0.687,1.928,1.011l-0.415,0.093l0.369,0.585
		l0.573,0.021l-0.226,0.366l2.037,1.043l-0.09-0.544l1.357,0.635l-0.33,0.521l0.424,0.02l-0.542,0.542
		c0.657-0.76,1.392,0.341,1.654,0.311l-0.128,0.091l0.528-0.198l-0.023,1.252l2.591,1.392l2.164,0.34l0.308,0.661
		c-0.433,0.458-0.154,1.379-1.031,1.194c0.502-0.308,0.501,0.153,0.668,0.329l-0.008-0.593c-0.021-0.745,1.064,0.514,0.938-0.436
		l2.446,1.406l-0.485,0.591l2.067,0.431l0.311-0.926l0.548,0.015l0.076,1.51l-1.107,0.165l-1.816-0.646
		c-0.881,0.292,0.396,0.312-0.021,0.818l1.778,0.386l0.433-0.516c1.017-0.242,0.626,0.898,0.792,1.024l-0.439-0.03l1.194,0.432
		c-0.289,0.866-0.84-0.318-1.276,0.05l0.046,0.768l1.226,0.082l-0.233,0.22l0.577,0.081l-0.166-0.956
		c0.708-0.629,0.472,0.104,1.2,0.294l-0.086-0.536l0.984-0.097l0.077,1.034l-0.414-0.382c-0.898,0.09-0.18,1.05-0.816,1.118
		l1.243,0.094l0.017-0.695c1.509-0.706,0.106,1.161,1.094,1.416c0.211-0.851,1.688-0.46,1.499-1.604l0.793,0.122l-0.484,0.887
		l0.31,0.156l-0.788,0.372l0.612,1.542l0.706-0.423l0.13,0.69c-0.379-0.459,0.358-0.736,0.705-0.712l0.463,1.002l-0.651,0.21
		l0.463,0.303l0.984-0.876l0.512,0.508l-0.633,0.063l0.464,0.993l0.375-0.319l-0.125,0.446l0.759-0.018l-0.075,0.287
		c0.348-0.033,0.965-0.458,1.033,0.24l-0.637-0.699l0.795-0.239c-0.357,0.683,0.657,0.432,0.946,0.606l0.228,0.753l0.346-0.385
		c-0.31,0.936,0.707,0.149,0.968,0.563l-0.251,0.795l1.089-1.106c0.58,0.493-0.552,0.792-0.56,1.347l1.166,0.033l0.501-0.661
		l0.113,0.668l0.547-0.741l1.216,0.343l1.026-0.426l0.731-0.941c0.064,0.026,0.123,0.046,0.187,0.08
		c-0.179,0.063-0.489,0.111-0.433,0.53l0.41,0.039c0.193,0.942-1.561,0.852-1.328,1.634l0.485-0.106l-0.367,0.789l1.085,0.1
		l-0.161-0.305l1.453-0.129l-0.316,0.861l0.636-0.083l-0.133,0.245c1.643,0.688,3.788,1.407,5.542,0.804l1.391,1.408l0.332-0.478
		l0.274,0.68l1.683,0.074l0.046,0.435l0.697-0.201l0.196,0.483l0.161-0.351l0.904,0.588l0.223-0.405l2.607,0.234l-0.304-0.745
		l0.545-0.229l-0.087,0.672c1.017,0.87,2.7,0.233,4.104,0.44l0.365-0.38l2.977,0.331l0.577-1.056
		c0.539-0.522,0.271,0.761,0.825,1.095l0.95-0.263l-0.019,0.088l1.202-0.171l-0.065,0.034l1.072,0.356l1.038-0.62l0.104,0.199
		l-0.047-0.431l0.699,0.25l-0.285,0.468c0.758,0.305,0.176-0.396,0.482-0.616c2.908-2.897,1.07-1.081,1.98-1.806
		c-0.539,0.951,1.442-1.304-1.69,2.083c-0.336,0.57,1.339-1.17,2.011-1.872l-0.327-0.519l0.525-0.84l-0.316-0.787l-0.596,0.64
		l0.11-0.688l-0.222-0.354l0.658-0.356l-0.268-1.053l1.17-0.232l-0.381-0.653l0.384-0.3c0.425-1.021-1.156-1.283-0.599-2.058
		l0.426-0.101l-0.203-0.402c1.316-0.563,0.667-2.428,1.419-3.539l-0.332-0.854c0.688,0.179-0.027-0.695,0.451-0.959l-0.729,0.074
		c0.53-0.666-0.879-1.36,0.036-1.682l0.566,0.407c1.324-0.433-3.074-4.962-1.991-3.645l-0.788,0.735l-0.655-1.209l-0.748-0.233
		l0.398-0.135l-1.563-0.316l-1.554-1.376c-0.633,0.443-0.854-0.701-1.261,0.049l0.017-0.28l-1.045,0.433l0.334-0.465l-0.688-0.875
		l-0.531,0.217l-0.393,0.018l-0.879-0.026l0.239-0.529l-0.954-0.382c-0.018-0.045-0.063-0.098-0.23-0.143l-0.439-0.456l0.282-0.355
		l-1.13,0.196c-0.813-0.852-2.748-1.29-3.27-1.264l0.272-0.063l-0.787-0.179l-0.584-0.672l-0.104,0.376
		c-0.515-0.998-1.998-0.468-2.767-1.349l0.574-0.195l-2.545-0.151l0.439-0.355l-1.27-0.128c-0.018,0.382-0.601,0.454-0.848,0.229
		l0.037-0.084l-1.141-0.253l0.31-0.292l-1.025-1.076l-0.449,0.286l-0.285-0.561l-1.547,0.623l-0.104-0.055l0.354-0.682l-1.334,0.216
		l-2.174-1.041l0.583-0.675l-2.051-1.143c0.092,0.844-0.784,0.214-1.171,0.542l-0.197-0.095l-0.297-0.849l-2.323-0.949l0.103-0.104
		l-2.567-0.546l-0.091-0.047l0.279-0.275c-0.396-0.374-0.55-0.09-0.761,0.056l-0.278-0.144l0.229-0.149l-1.658-0.544h-0.019
		l0.354-0.229l-1.177-0.169l-0.491-0.229l0.295-0.298l-1.176-0.127l-0.044-0.026l-0.142-0.448l-1.127-0.165l-0.34-0.176
		l-0.273-0.639l-7.279-2.982l-0.851-0.411l0.688-0.646l-1.41-0.243l0.006-0.104l-0.857-0.489l-0.067,0.144
		c-0.564,0.178-0.526-1.146-1.068-0.527l-0.116-0.536l-1.226-0.189l0.111-0.082c-0.496-0.585-1.653,0.055-1.66-0.569l-1.045,0.068
		l-0.433-0.188l0.204-0.394c-1.472-0.604-3.438-1.313-4.778-1.803l-1.323-0.636l-0.107-0.057l-5.213,9.826
		c-0.385,0.526-0.542,1.01-0.822,1.552l-1.67,3.128l-0.27,0.079c-0.119,0.191-0.05,0.415-0.089,0.629l-0.517,0.941l0.934,1.424
		C70.05,169.774,70.208,170.027,70.416,170.312z M75.449,174.001l-0.168,0.941L75.449,174.001z"/>
	<line fill="none" x1="75.281" y1="174.942" x2="75.449" y2="174.001"/>
	<polygon fill="#E89B68" points="85.192,183.007 84.856,183.173 85.291,183.267 	"/>
	<line fill="none" x1="87.954" y1="184.717" x2="86.668" y2="184.64"/>
	<line fill="none" x1="90.092" y1="187.185" x2="89.764" y2="187.425"/>
	<line fill="none" x1="90.893" y1="187.254" x2="90.599" y2="186.726"/>
	<line fill="none" x1="96.679" y1="190.97" x2="96.141" y2="190.628"/>
	<polygon fill="#E89B68" points="99.011,192.065 99.306,191.812 99.091,191.7 	"/>
	<polygon fill="#E89B68" points="144.739,185.342 145.021,185.428 144.938,185.077 	"/>
	<line fill="none" x1="122.96" y1="171.026" x2="123.085" y2="171.433"/>
	<polygon fill="#E89B68" points="110.535,166.97 110.345,167.516 110.618,167.008 	"/>
	<path fill="#E89B68" d="M411.506,435.207l-0.992,0.371l-0.133-1.392l-0.592-0.526l0.422,0.039l-1.299-0.914l-0.85-1.88
		c-0.758,0.142-0.5-0.985-1.195-0.468l0.129-0.238l-1.143-0.048l0.484-0.278l-0.266-1.065l-0.559-0.015l-0.383-0.155l-0.803-0.38
		l0.438-0.377l-0.721-0.746c0.002-0.055-0.012-0.11-0.15-0.227l-0.215-0.584l0.408-0.226l-1.131-0.267l-2.473-2.486l0.27,0.041
		l-0.635-0.465l-0.275-0.859l-0.242,0.313l-2.004-2.365l0.629,0.058l-2.264-1.169l0.535-0.145l-1.277-0.695l-0.688-0.053
		l0.072-0.069l-0.934-0.688l0.396-0.149l-0.514-1.399l-0.535,0.078l-0.043-0.63l-1.643-0.056l-0.076-0.1l0.584-0.467l-1.297-0.343
		l-1.553-1.83l0.793-0.386l-1.416-1.862c-0.277,0.808-0.801-0.099-1.277,0.043l-0.266-0.28c-0.105-0.33,0.229-0.535,0.162-0.811
		l-1.756-1.792l0.148-0.077l-2.135-1.514l-0.063-0.082l0.354-0.135c-0.184-0.482-0.438-0.297-0.676-0.26l-0.23-0.236l0.273-0.049
		l-1.299-1.164l-0.016-0.009l0.408-0.075l-1.012-0.615l-0.361-0.428l0.42-0.127L380,401.889l-0.023-0.025l0.045-0.478l-0.949-0.589
		l-0.277-0.301l0.027-0.688l-5.465-5.643l-0.639-0.739c0.258-0.63,0.738,0.213,0.916-0.302c-0.467,0.4-0.467-0.283-1.193-0.813
		l0.033-0.091l-0.584-0.79l-0.121,0.125c-0.594-0.076-0.016-1.246-0.77-0.897l0.123-0.545l-1.063-0.666l0.129-0.037l-1.275-1.187
		l-0.957-0.349l-0.332-0.383l0.336-0.275c-1.066-1.1-2.557-2.521-3.566-3.486l-1.104-1.283l-8.758,6.913
		c-0.549,0.319-0.891,0.695-1.352,1.058l-2.82,2.216l-0.271-0.048c-0.18,0.127-0.188,0.359-0.332,0.519l-0.832,0.666l0.279,1.687
		c0.018,0.313,0.045,0.625,0.129,0.938l0.686,4.132l0.855,0.985c0.447,0.536,0.914,1.149,1.379,1.713l-0.432-0.095l0.111,0.688
		l0.504,0.232l-0.355,0.253l1.457,1.787l0.145-0.536l0.992,1.118l-0.533,0.334l0.398,0.201l-0.738,0.264
		c0.898-0.434,1.131,0.877,1.391,0.949l-0.143,0.027c0.213,0.803,0.244-0.345,0.568,0.04l-0.527,1.146l1.813,2.316l1.84,1.174
		l0.002,0.729l-1.41,0.685l0.443,0.623l0.264-0.592c0.27-0.695,0.754,0.891,1.029-0.021l1.664,2.27l-0.686,0.344l1.703,1.197
		l0.652-0.706l0.529,0.243l-0.533,1.4c-0.754,0.33-0.686-1.012-1.107-0.283c-0.68,0.126-1.518-0.876-1.393-1.327
		c-0.934-0.097,0.252,0.438-0.355,0.737l1.455,1.072l0.611-0.303c1.049,0.189,0.229,1.078,0.318,1.248l-0.385-0.189l0.941,0.879
		c-0.611,0.685-0.637-0.637-1.213-0.461l-0.25,0.711l1.094,0.569l-0.33,0.105l0.529,0.319l0.23-0.931
		c0.881-0.299,0.369,0.271,0.961,0.744l0.127-0.531l0.941,0.306l-0.326,0.983l-0.229-0.519c-0.855-0.28-0.596,0.896-1.197,0.693
		c0.156,0.787,0.803,0.043,1.096,0.577c-0.586-0.329,0.221-0.354,0.291-0.631c1.67-0.026-0.379,1.104,0.424,1.731
		c0.547-0.688,1.736,0.276,2.037-0.86l0.668,0.433l-0.797,0.613l0.217,0.28l-0.873,0.022l-0.055,1.655l0.814-0.104l-0.174,0.676
		l0.961-0.354l-0.023,1.096l-0.686-0.078l0.328,0.479l1.248-0.41l0.256,0.684l-0.596-0.197l0.023,1.104l0.469-0.147l-0.295,0.333
		l0.705,0.316l-0.197,0.233c0.35,0.11,1.07-0.04,0.84,0.625l-0.279-0.891l0.842,0.12c-0.621,0.463,0.414,0.648,0.625,0.93
		l-0.113,0.784l0.473-0.231c-0.656,0.74,0.578,0.434,0.688,0.907l-0.568,0.638l1.436-0.572c0.35,0.685-0.814,0.494-1.053,0.988
		l1.066,0.525l0.719-0.408l-0.18,0.658l0.807-0.443l0.992,0.787l1.092,0.026l1.066-0.562c0.057,0.043,0.096,0.096,0.145,0.146
		c-0.199-0.026-0.52-0.102-0.607,0.314l0.314,0.195c-0.18,0.939-1.732,0.162-1.857,0.951l0.518,0.119l-0.688,0.556l0.971,0.539
		l-0.039-0.351l1.404,0.479l-0.646,0.643l0.629,0.182l-0.23,0.172c1.217,1.295,2.893,2.818,4.732,2.971l0.73,1.854l0.482-0.285
		l-0.025,0.736l1.533,0.735l-0.152,0.431l0.742,0.104l-0.025,0.505l0.27-0.262l0.631,0.898l0.348-0.276l2.271,1.259l0.025-0.789
		h0.621l-0.373,0.568c0.584,1.224,2.385,1.332,3.605,2.076l0.482-0.199l2.582,1.501l0.943-0.726
		c0.691-0.271-0.047,0.801,0.307,1.321l0.982,0.147l-0.076,0.086l1.164,0.313l-0.066,0.013l0.82,0.756l1.197-0.157l0.025,0.235
		l0.129-0.408l0.529,0.501l-0.434,0.323l0.688-0.369c3.807-1.502,1.4-0.582,2.508-0.885c-0.855,0.652,1.873-0.613-2.377,1.232
		c-0.52,0.393,1.705-0.535,2.607-0.902l-0.076-0.617l0.795-0.551l0.045-0.843l-0.818,0.351l0.385-0.574l-0.064-0.432l0.764-0.066
		l0.162-1.074l1.182,0.266l-0.113-0.771l0.49-0.099c0.801-0.772-0.535-1.642,0.271-2.117l0.43,0.078l-0.014-0.465
		c1.424,0.023,1.57-1.943,2.723-2.666l0.033-0.904l0.807-0.707l-0.695-0.211c0.738-0.42-0.25-1.598,0.711-1.526l0.367,0.604
		C413.252,439.492,411.073,433.574,411.506,435.207z M352.014,402.57l0.531-0.79L352.014,402.57z"/>
	<polygon fill="#E89B68" points="395.153,418.02 395.223,418.063 395.51,418.078 	"/>
	<polygon fill="#E89B68" points="408.201,444.955 408.033,445.252 408.35,445.299 	"/>
	<polygon fill="#E89B68" points="408.033,445.252 407.944,445.229 407.94,445.392 	"/>
	<polygon fill="#E89B68" points="357.951,415.279 357.821,415.142 357.606,415.679 	"/>
	<path fill="#E89B68" d="M404.49,451.67v0.026C405.121,451.416,404.91,451.498,404.49,451.67z"/>
	<polygon fill="#E89B68" points="404.838,449.412 404.823,449.447 404.844,449.631 	"/>
	<polygon fill="#E89B68" points="374.987,434.965 374.987,434.951 374.174,434.946 	"/>
	<line fill="none" x1="352.014" y1="402.57" x2="352.541" y2="401.777"/>
	<polygon fill="#E89B68" points="357.451,413.973 357.811,414.237 357.811,413.947 	"/>
	<line fill="none" x1="359.655" y1="416.641" x2="358.522" y2="416.055"/>
	<line fill="none" x1="360.61" y1="419.765" x2="360.233" y2="419.857"/>
	<line fill="none" x1="361.319" y1="420.146" x2="361.268" y2="419.555"/>
	<line fill="none" x1="365.117" y1="425.875" x2="364.76" y2="425.332"/>
	<polygon fill="#E89B68" points="366.797,427.811 367.168,427.715 367.018,427.506 	"/>
	<polygon fill="#E89B68" points="411.549,440.281 411.61,439.92 411.332,440.094 	"/>
	<line fill="none" x1="397.174" y1="418.211" x2="397.125" y2="418.644"/>
	<polygon fill="#E89B68" points="387.512,409.567 387.434,409.485 387.057,409.922 	"/>
	<polygon fill="#E89B68" points="182.635,151.798 182.602,151.836 182.645,152.013 	"/>
	<polygon fill="#E89B68" points="172.952,120.382 173.059,120.432 173.309,120.451 	"/>
	<polygon fill="#E89B68" points="185.833,147.623 185.738,147.61 185.732,147.772 	"/>
	<polygon fill="#E89B68" points="135.713,117.634 135.604,117.508 135.395,118.041 	"/>
	<polygon fill="#E89B68" points="186.003,147.335 185.833,147.623 186.147,147.681 	"/>
	<line fill="none" x1="151.964" y1="137.299" x2="152.764" y2="137.32"/>
	<path fill="#E89B68" d="M127.177,98.753l0.682,4.135l0.842,0.958c0.461,0.544,0.912,1.161,1.359,1.719l-0.423-0.096l0.096,0.688
		l0.512,0.23l-0.358,0.254l1.475,1.785l0.13-0.548l1.006,1.117l-0.548,0.331l0.402,0.209l-0.738,0.277
		c0.918-0.436,1.133,0.867,1.41,0.954l-0.179,0.024c0.231,0.796,0.248-0.368,0.58,0.027l-0.518,1.146l1.8,2.313l1.836,1.188
		l0.024,0.723l-1.426,0.69l0.463,0.634l0.243-0.606c0.283-0.706,0.77,0.891,1.045-0.025l1.652,2.275l-0.681,0.349l1.714,1.218
		l0.643-0.729l0.528,0.245l-0.54,1.399c-0.759,0.329-0.671-1.02-1.094-0.288c-0.685,0.133-1.542-0.868-1.398-1.318
		c-0.94-0.104,0.239,0.433-0.345,0.739l1.468,1.066l0.6-0.304c1.044,0.197,0.203,1.067,0.306,1.254l-0.383-0.208l0.925,0.881
		c-0.607,0.676-0.619-0.634-1.176-0.46l-0.268,0.708l1.078,0.567l-0.303,0.126l0.489,0.313l0.258-0.933
		c0.866-0.286,0.352,0.258,0.961,0.747l0.133-0.531l0.934,0.306l-0.326,0.971l-0.23-0.508c-0.868-0.279-0.606,0.891-1.206,0.693
		c0.169,0.775,0.797,0.047,1.095,0.572c-0.555-0.329,0.233-0.36,0.312-0.618c1.668-0.027-0.363,1.113,0.432,1.736
		c0.528-0.689,1.722,0.27,2.021-0.878l0.679,0.442l-0.813,0.606l0.223,0.287l-0.863,0.01l-0.068,1.655l0.81-0.1l-0.149,0.679
		l0.94-0.354l0.021,1.103l-0.689-0.076l0.315,0.46l1.248-0.395l0.256,0.665l-0.596-0.188l0.021,1.095l0.464-0.132l-0.299,0.334
		l0.715,0.298l-0.197,0.229c0.321,0.108,1.071-0.03,0.853,0.637l-0.296-0.895l0.814,0.112c-0.603,0.469,0.433,0.636,0.639,0.932
		l-0.108,0.777l0.484-0.229c-0.66,0.736,0.582,0.438,0.651,0.918l-0.561,0.627l1.45-0.57c0.336,0.689-0.841,0.506-1.061,1.004
		l1.048,0.499l0.737-0.395l-0.187,0.656l0.823-0.456l0.979,0.809l1.102,0.02l1.044-0.575c0.049,0.051,0.092,0.104,0.136,0.156
		c-0.19-0.009-0.499-0.094-0.594,0.324l0.322,0.194c-0.198,0.94-1.757,0.146-1.865,0.95l0.502,0.104l-0.658,0.563l0.955,0.552
		l-0.021-0.361l1.372,0.464l-0.639,0.668l0.641,0.182l-0.245,0.168c1.243,1.29,2.913,2.819,4.76,2.978l0.714,1.85l0.5-0.28
		l-0.062,0.713l1.531,0.748l-0.128,0.435l0.723,0.087l-0.008,0.522l0.277-0.257l0.611,0.906l0.339-0.283l2.313,1.271l0.009-0.791
		l0.625,0.002l-0.381,0.564c0.596,1.227,2.39,1.334,3.596,2.075l0.474-0.199l2.6,1.501l0.928-0.731
		c0.737-0.262-0.048,0.796,0.341,1.335l0.963,0.145l-0.045,0.082l1.188,0.316l-0.082,0.005l0.833,0.771l1.188-0.165l0.024,0.232
		l0.113-0.42l0.532,0.505l-0.42,0.324l0.688-0.366c3.824-1.454,1.397-0.563,2.519-0.848c-0.86,0.646,1.867-0.599-2.394,1.196
		c-2.366,1.237,3-1.043,2.616-0.856l-0.105-0.636l0.812-0.546l0.052-0.845l-0.818,0.352l0.374-0.565l-0.065-0.438l0.747-0.064
		l0.199-1.064l1.178,0.258l-0.114-0.771l0.489-0.103c0.801-0.769-0.534-1.631,0.278-2.121l0.417,0.079l-0.023-0.458
		c1.431,0.025,1.588-1.942,2.738-2.674l0.035-0.902l0.803-0.697l-0.702-0.228c0.74-0.414-0.251-1.579,0.71-1.517l0.369,0.596
		c1.378,0.137-0.789-5.783-0.331-4.146l-1.026,0.37l-0.118-1.381l-0.595-0.523l0.428,0.014l-1.309-0.91l-0.867-1.888
		c-0.744,0.152-0.493-0.99-1.181-0.468l0.106-0.258l-1.114-0.019l0.5-0.293l-0.274-1.057l-0.579-0.025l-0.372-0.156l-0.789-0.373
		l0.439-0.379l-0.737-0.758c0.002-0.056-0.01-0.103-0.147-0.203l-0.213-0.597l0.401-0.205l-1.125-0.275l-2.478-2.493l0.276,0.052
		l-0.643-0.472l-0.28-0.846l-0.23,0.307l-1.988-2.367l0.598,0.038l-2.264-1.164l0.538-0.141l-1.246-0.705l-0.724-0.044l0.064-0.077
		l-0.936-0.691l0.398-0.136l-0.491-1.391l-0.56,0.074l-0.022-0.625l-1.652-0.051l-0.094-0.1l0.606-0.469l-1.312-0.347l-1.544-1.828
		l0.789-0.389l-1.423-1.864c-0.253,0.806-0.799-0.102-1.275,0.042l-0.227-0.272c-0.14-0.331,0.21-0.535,0.146-0.809l-1.753-1.801
		l0.127-0.076l-2.1-1.485l-0.089-0.104l0.383-0.127c-0.218-0.499-0.479-0.304-0.717-0.271l-0.209-0.238l0.252-0.054l-1.291-1.154
		l-0.017-0.005l0.407-0.075l-0.994-0.618l-0.363-0.42l0.396-0.145l-1.047-0.613l-0.012-0.021l0.03-0.475l-0.942-0.598l-0.273-0.299
		l0.027-0.717l-5.441-5.625l-0.646-0.75c0.245-0.622,0.735,0.211,0.908-0.313c-0.475,0.405-0.465-0.271-1.196-0.804l0.058-0.08
		l-0.604-0.801l-0.108,0.12c-0.585-0.065-0.018-1.247-0.771-0.902l0.114-0.541l-1.043-0.667l0.112-0.038l-1.276-1.188l-0.962-0.344
		l-0.331-0.388l0.342-0.271c-1.111-1.181-2.725-2.681-3.708-3.664l-0.978-1.139l-8.727,6.894c-0.534,0.329-0.891,0.706-1.349,1.074
		l-2.806,2.215l-0.254-0.038c-0.197,0.127-0.224,0.371-0.354,0.53l-0.848,0.682l0.265,1.626
		C127.062,98.099,127.097,98.41,127.177,98.753z M130.327,104.137l-0.553,0.785L130.327,104.137z"/>
	<line fill="none" x1="129.773" y1="104.921" x2="130.327" y2="104.137"/>
	<polygon fill="#E89B68" points="135.225,116.332 135.593,116.589 135.595,116.306 	"/>
	<line fill="none" x1="137.431" y1="118.986" x2="136.294" y2="118.409"/>
	<line fill="none" x1="138.397" y1="122.118" x2="137.994" y2="122.2"/>
	<line fill="none" x1="139.103" y1="122.493" x2="139.03" y2="121.901"/>
	<line fill="none" x1="142.91" y1="128.236" x2="142.545" y2="127.682"/>
	<polygon fill="#E89B68" points="144.582,130.172 144.962,130.068 144.802,129.869 	"/>
	<polygon fill="#E89B68" points="189.351,142.662 189.412,142.312 189.135,142.47 	"/>
	<line fill="none" x1="174.922" y1="121.014" x2="174.989" y2="120.596"/>
	<polygon fill="#E89B68" points="165.248,111.869 164.871,112.299 165.304,111.938 	"/>
	<path fill="#E89B68" d="M331.403,478.664l0.451-1.316l-0.332-0.709l0.375,0.208l-0.816-1.358l-0.039-2.072
		c-0.744-0.166-0.051-1.101-0.891-0.901l0.217-0.175l-1.023-0.496l0.555-0.063c0.707-0.139-0.127-0.892,0.201-1.092l-0.508-0.236
		l-0.287-0.302l-0.586-0.657l0.58-0.176l-0.387-0.992c0.025-0.049,0.025-0.105-0.049-0.242l0.074-0.637l0.441-0.025l-0.924-0.7
		c0.07-1.187-0.908-2.897-1.279-3.284l0.242,0.158l-0.395-0.686l0.078-0.895l-0.332,0.178l-0.875-2.955l0.537,0.279l-1.605-1.986
		l0.545,0.094l-0.861-1.148l-0.637-0.337l0.1-0.024l-0.59-1.005l0.418,0.024c0.645-0.322,0.076-1.34,0.109-1.469l-0.512-0.147
		l0.217-0.586l-1.498-0.716l-0.043-0.127l0.738-0.182l-1.029-0.84l-0.705-2.314l0.891-0.026l-0.564-2.293
		c-0.563,0.646-0.682-0.383-1.178-0.47l-0.104-0.342c0.02-0.357,0.41-0.391,0.457-0.666l-0.891-2.364l0.17-0.009l-1.338-2.24
		l-0.025-0.113l0.377,0.025c0.025-0.533-0.291-0.461-0.523-0.516l-0.105-0.298l0.273,0.063l-0.738-1.605l0.402,0.1l-0.646-0.967
		l-0.178-0.537l0.432,0.029l-0.689-0.972l-0.027-0.035l0.254-0.414l-0.654-0.942l-0.109-0.36l0.311-0.632l-2.717-7.407l-0.291-0.892
		c0.486-0.476,0.607,0.496,0.971,0.078c-0.586,0.192-0.326-0.422-0.77-1.215l0.072-0.06l-0.219-0.979l-0.16,0.066
		c-0.49-0.299,0.508-1.146-0.332-1.135l0.332-0.459l-0.689-1.035l0.135,0.018c0.094-0.755-1.162-1.176-0.705-1.602l-0.738-0.715
		l-0.143-0.478l0.432-0.092c-0.549-1.519-1.398-3.544-1.924-4.845l-0.434-1.441l-10.77,2.773c-0.635,0.076-1.113,0.279-1.691,0.438
		l-3.453,0.891l-0.232-0.14c-0.225,0.041-0.322,0.236-0.514,0.334l-1.055,0.274l-0.416,1.63c-0.107,0.305-0.193,0.614-0.258,0.935
		l-1.084,4.062l0.393,1.235c0.197,0.678,0.371,1.424,0.561,2.125l-0.344-0.271l-0.188,0.671l0.381,0.423l-0.418,0.098l0.604,2.205
		l0.342-0.433l0.447,1.427l-0.623,0.096l0.281,0.34l-0.789-0.029c1.02-0.051,0.689,1.246,0.9,1.426l-0.156-0.033
		c-0.111,0.816,0.375-0.229,0.512,0.263l-0.93,0.827l0.719,2.854l1.178,1.813c0.152,0.597-0.719,0.162-0.256,0.675
		c-0.635-0.021-1.145,0.815-1.6,0.043l0.188,0.75l0.463-0.447c0.535-0.526,0.348,1.146,0.961,0.388l0.6,2.773l-0.746,0.045
		l1.051,1.796l0.9-0.393l0.352,0.426l-1.047,1.069c-0.824-0.012-0.203-1.195-0.883-0.707l-0.738-1.781
		c-0.809-0.453,0.033,0.501-0.627,0.542l0.912,1.565l0.672-0.032c0.855,0.594-0.24,1.067-0.219,1.278l-0.275-0.344l0.498,1.196
		c-0.844,0.353-0.305-0.841-0.902-0.899l-0.527,0.545c0.141,0.855,0.77,0.043,0.781,0.967l-0.359-0.023l0.338,0.482l0.605-0.756
		l0.586,1.086l0.346-0.436l0.732,0.667l-0.693,0.757l-0.002-0.563l-1.4,0.154l0.789,0.961c-0.391-0.535,0.354-0.229,0.521-0.441
		c1.551,0.637-0.773,0.863-0.289,1.763c0.758-0.432,1.469,0.942,2.203,0.009l0.432,0.682l-0.99,0.23l0.08,0.351l-0.789-0.321
		l-0.725,1.48l0.783,0.231l-0.426,0.563l1.023,0.058l-0.447,1.009l-0.604-0.348l0.082,0.536l1.318,0.144l-0.025,0.717l-0.471-0.418
		l-0.436,1.027l0.482,0.04l-0.4,0.215l0.537,0.55l-0.281,0.137l0.514,0.92l0.104-0.942c0.438-0.452,0.605,0.349,0.689,0.441
		c-0.736,0.183,0.137,0.756,0.227,1.101l-0.4,0.664l0.5-0.025c-0.885,0.428,0.373,0.639,0.234,1.1l-0.756,0.355l1.553,0.074
		c0.033,0.754-0.941,0.109-1.369,0.481l0.75,0.888l0.84-0.072l-0.418,0.535l0.916-0.09l0.578,1.148l-0.729-0.352
		c0.307,0.885,1.24,0.049,1.705,0.79l1.203-0.079c0.023,0.055,0.037,0.129,0.074,0.19c-0.172-0.076-0.43-0.288-0.688,0.058
		l0.23,0.303c-0.574,0.789-1.676-0.564-2.107,0.131l0.432,0.285l-0.842,0.26l0.668,0.882l0.109-0.33l1.078,0.992l-0.842,0.323
		l0.484,0.434l-0.287,0.063c0.629,1.687,1.533,3.739,3.164,4.64l-0.107,1.991l0.576-0.066l-0.326,0.637l1.096,1.293l-0.299,0.332
		l0.627,0.391l-0.229,0.469l0.35-0.129c0.396,0.306,0.797,0.789,0.217,1.083l0.43-0.119l1.582,2.077l0.346-0.719l0.555,0.254
		l-0.564,0.373l2.439,3.341L310,483.59l1.756,2.434l1.164-0.298c0.773,0.052-0.363,0.726-0.232,1.355l0.836,0.525l-0.076,0.049
		l0.941,0.761l-0.084-0.021l0.461,1.028l1.158,0.344l-0.072,0.215l0.277-0.316l0.27,0.681l-0.498,0.119
		c0.279,0.749,0.383-0.155,0.779-0.066c4.086,0.18,1.484,0.037,2.648,0.229c-1.068,0.252,1.945,0.179-2.672,0.153
		c-0.652,0.141,1.775,0.204,2.748,0.225l0.172-0.588l0.945-0.179l0.381-0.757l-0.893-0.017l0.582-0.355l0.127-0.437l0.713,0.262
		l0.586-0.904c0.277,0.391,0.334,1.008,0.963,0.704l0.23-0.736l0.475,0.099c1.051-0.382,0.178-1.716,1.109-1.827l0.355,0.229
		l0.178-0.41c1.291,0.608,2.24-1.148,3.57-1.346c-0.453-0.523,0.326-0.468,0.408-0.815c0.332,0.637,0.494-0.494,1.025-0.315
		l-0.547-0.482c0.822-0.078,0.412-1.561,1.26-1.112l0.078,0.688c1.199,0.687,1.652-5.6,1.396-3.922L331.403,478.664z
		 M291.125,424.824l0.813-0.484L291.125,424.824z"/>
	<polygon fill="#E89B68" points="324.446,456.391 324.506,456.477 324.735,456.6 	"/>
	<path fill="#E89B68" d="M319.385,490.957l-0.023,0.021C320.057,490.972,319.838,490.977,319.385,490.957z"/>
	<polygon fill="#E89B68" points="291.469,438.854 291.418,438.682 290.985,439.096 	"/>
	<polygon fill="#E89B68" points="320.615,489.031 320.565,489.059 320.524,489.229 	"/>
	<polygon fill="#E89B68" points="325.205,486.502 325.135,486.444 325.057,486.6 	"/>
	<polygon fill="#E89B68" points="325.49,486.309 325.205,486.502 325.485,486.682 	"/>
	<line fill="none" x1="291.125" y1="424.824" x2="291.938" y2="424.34"/>
	<polygon fill="#E89B68" points="291.543,437.465 291.76,437.849 291.883,437.594 	"/>
	<line fill="none" x1="292.471" y1="440.785" x2="291.682" y2="439.793"/>
	<line fill="none" x1="292.092" y1="444.039" x2="291.717" y2="443.965"/>
	<line fill="none" x1="292.77" y1="444.093" x2="292.582" y2="444.668"/>
	<line fill="none" x1="293.758" y1="451.469" x2="293.656" y2="450.806"/>
	<polygon fill="#E89B68" points="294.498,453.896 294.893,453.969 294.85,453.711 	"/>
	<polygon fill="#E89B68" points="330.444,483.389 330.633,483.086 330.323,483.136 	"/>
	<line fill="none" x1="325.994" y1="457.771" x2="326.213" y2="457.399"/>
	<polygon fill="#E89B68" points="320.813,445.487 320.303,445.718 320.86,445.584 	"/>
	<path fill="#E89B68" d="M207.866,63.56l-0.351-0.26l-0.165,0.671l0.377,0.417l-0.432,0.09l0.618,2.214l0.331-0.433l0.461,1.424
		l-0.62,0.104l0.271,0.321l-0.767-0.025c1.009-0.035,0.688,1.253,0.896,1.437l-0.147-0.038c-0.128,0.814,0.354-0.232,0.492,0.267
		l-0.934,0.837l0.723,2.841l1.196,1.82c0.147,0.585-0.755,0.15-0.28,0.666c-0.61-0.015-1.135,0.816-1.571,0.045l0.177,0.762
		l0.471-0.457c0.526-0.535,0.322,1.124,0.942,0.393l0.611,2.756l-0.76,0.042l1.074,1.813l0.872-0.402l0.377,0.433l-1.061,1.072
		c-0.805,0.008-0.201-1.196-0.888-0.703l-0.733-1.78c-0.817-0.469,0.048,0.503-0.637,0.535l0.93,1.569l0.663-0.027
		c0.876,0.601-0.229,1.074-0.229,1.265l-0.272-0.333l0.5,1.183c-0.834,0.368-0.332-0.839-0.888-0.895l-0.53,0.535
		c0.121,0.861,0.767,0.055,0.744,0.973l-0.341-0.025l0.322,0.485l0.637-0.75l0.564,1.085l0.345-0.432l0.733,0.652l-0.692,0.761
		l-0.009-0.565l-1.372,0.158l0.763,0.964c-0.381-0.528,0.357-0.229,0.52-0.454c1.568,0.654-0.758,0.884-0.308,1.76
		c0.779-0.424,1.472,0.941,2.21,0.021l0.431,0.681l-0.954,0.23l0.082,0.344l-0.806-0.337l-0.726,1.499l0.793,0.233l-0.416,0.559
		l1.008,0.045l-0.454,1.017l-0.596-0.355l0.104,0.558l1.3,0.133l-0.026,0.712l-0.474-0.403l-0.422,1.015l0.475,0.052l-0.4,0.191
		l0.531,0.563l-0.275,0.13l0.52,0.918l0.103-0.932c0.441-0.46,0.615,0.345,0.708,0.433c-0.749,0.188,0.126,0.756,0.199,1.112
		l-0.421,0.652h0.536c-0.896,0.411,0.354,0.623,0.235,1.094l-0.774,0.354l1.573,0.067c0.026,0.759-0.98,0.12-1.378,0.486
		l0.755,0.881l0.822-0.074l-0.417,0.54l0.904-0.102l0.597,1.146l-0.742-0.353c0.331,0.89,1.259,0.057,1.734,0.798l1.197-0.088
		c0.015,0.067,0.041,0.127,0.038,0.184c-0.15-0.077-0.413-0.291-0.658,0.05l0.233,0.328c-0.569,0.778-1.676-0.573-2.099,0.122
		l0.414,0.301l-0.83,0.248l0.652,0.879l0.108-0.337l1.096,0.999l-0.862,0.331l0.503,0.425l-0.28,0.061
		c0.604,1.68,1.516,3.745,3.146,4.645l-0.096,1.975l0.584-0.055l-0.324,0.646l1.082,1.284l-0.294,0.329l0.628,0.401l-0.224,0.46
		l0.354-0.127c0.395,0.309,0.804,0.789,0.186,1.071l0.449-0.115l1.583,2.081l0.352-0.723l0.557,0.25l-0.565,0.37l2.44,3.348
		l0.502,0.012l1.791,2.417l1.145-0.291c0.775,0.055-0.358,0.727-0.243,1.359l0.841,0.531l-0.079,0.043l0.94,0.764l-0.079-0.008
		l0.466,1.025l1.15,0.338l-0.073,0.218l0.271-0.329l0.271,0.675l-0.523,0.116c0.283,0.767,0.385-0.151,0.763-0.064
		c4.12,0.183,1.527,0.048,2.681,0.229c-1.061,0.249,1.957,0.188-2.666,0.162c-0.67,0.134,1.77,0.194,2.731,0.227l0.168-0.597
		l0.967-0.178l0.381-0.746l-0.896-0.016l0.581-0.377l0.126-0.421l0.722,0.25l0.566-0.901c0.289,0.382,0.354,0.996,0.983,0.703
		l0.226-0.738l0.483,0.107c1.039-0.382,0.179-1.726,1.117-1.847l0.353,0.243l0.157-0.431c1.314,0.607,2.238-1.146,3.572-1.334
		c-0.452-0.532,0.367-0.471,0.414-0.821c0.334,0.629,0.489-0.482,1.024-0.318l-0.563-0.481c0.854-0.077,0.413-1.558,1.258-1.114
		l0.099,0.697c1.217,0.688,1.586-5.615,1.355-3.933l-1.07-0.072l0.45-1.317l-0.334-0.713l0.355,0.203l-0.807-1.369l-0.043-2.066
		c-0.735-0.154-0.051-1.103-0.878-0.899l0.213-0.172l-1.036-0.483l0.566-0.076c0.695-0.134-0.117-0.896,0.188-1.091l-0.511-0.239
		l-0.285-0.296l-0.552-0.662l0.542-0.166l-0.374-0.993c0.023-0.041,0.035-0.096-0.056-0.245l0.062-0.636l0.441-0.025l-0.92-0.705
		c0.076-1.166-0.891-2.878-1.266-3.278l0.229,0.163l-0.381-0.677l0.081-0.893l-0.336,0.179l-0.87-2.962l0.541,0.281l-1.604-1.978
		l0.543,0.083l-0.861-1.15l-0.637-0.333l0.083-0.03l-0.563-1.01l0.403,0.026c0.649-0.326,0.073-1.332,0.126-1.464l-0.534-0.146
		l0.22-0.599l-1.49-0.713l-0.05-0.13l0.749-0.185l-1.045-0.833l-0.704-2.315l0.898-0.026l-0.551-2.291
		c-0.565,0.639-0.681-0.396-1.186-0.482l-0.106-0.343c0.015-0.347,0.408-0.383,0.452-0.666l-0.862-2.361l0.141-0.015l-1.329-2.225
		l-0.025-0.125l0.381,0.026c0.021-0.532-0.279-0.456-0.534-0.501l-0.092-0.326l0.264,0.073l-0.719-1.611l0.405,0.103l-0.675-0.975
		l-0.147-0.534l0.411,0.026l-0.699-0.966l-0.013-0.045l0.229-0.407l-0.649-0.942l-0.113-0.366l0.313-0.635l-2.708-7.345
		l-0.292-0.961c0.481-0.458,0.595,0.503,0.959,0.083c-0.593,0.191-0.314-0.414-0.754-1.21l0.066-0.052l-0.212-0.986l-0.145,0.071
		c-0.52-0.305,0.473-1.151-0.347-1.144l0.337-0.439l-0.717-1.043l0.142,0.009c0.095-0.754-1.162-1.177-0.688-1.599l-0.741-0.725
		l-0.142-0.464l0.432-0.106c-0.538-1.414-1.297-3.282-1.841-4.577l-0.499-1.663l-10.844,2.772c-0.623,0.077-1.067,0.28-1.633,0.421
		l-3.499,0.891l-0.229-0.138c-0.203,0.046-0.321,0.242-0.499,0.326l-1.034,0.283l-0.433,1.65c-0.104,0.311-0.198,0.587-0.24,0.94
		l-1.067,4.051l0.381,1.246C207.497,62.109,207.692,62.866,207.866,63.56z M208.676,62.353l-0.816,0.497L208.676,62.353z"/>
	<path fill="#E89B68" d="M236.098,128.978v0.018C236.788,128.987,236.573,128.987,236.098,128.978z"/>
	<polygon fill="#E89B68" points="241.941,124.508 241.861,124.463 241.791,124.626 	"/>
	<polygon fill="#E89B68" points="242.201,124.313 241.941,124.508 242.198,124.686 	"/>
	<polygon fill="#E89B68" points="237.31,127.056 237.299,127.058 237.26,127.246 	"/>
	<polygon fill="#E89B68" points="241.145,94.388 241.207,94.467 241.439,94.588 	"/>
	<line fill="none" x1="210.471" y1="89.479" x2="210.354" y2="88.831"/>
	<polygon fill="#E89B68" points="211.24,91.929 211.629,91.992 211.545,91.745 	"/>
	<polygon fill="#E89B68" points="247.154,121.395 247.357,121.092 247.041,121.138 	"/>
	<line fill="none" x1="242.699" y1="95.764" x2="242.9" y2="95.398"/>
	<path fill="#E89B68" d="M369.756,210.025c0.162,0.106,0.328,0.201,0.488,0.313C370.905,209.799,370.459,209.851,369.756,210.025z"
		/>
	<path fill="#E89B68" d="M222.767,145.11c-1.258-0.781-0.18-3.637-2.182-3.13c-0.615,3.104,3.612,5.734,6.888,5.696
		c0.261,0.217,0.298,0.381,0.45,0.581c-0.662-1.146-0.992-2.272-0.681-3.442C225.749,144.707,223.544,142.439,222.767,145.11z"/>
	<path fill="#E89B68" d="M228.345,148.929c-0.15-0.229-0.297-0.45-0.432-0.683"/>
	<path fill="#E89B68" d="M350.656,315.107c0.092-0.448,0.201-0.86,0.152-1.399"/>
	<path fill="#E89B68" d="M139.461,292.559c0.392-0.276,1.014-0.2,1.54-0.288C140.606,291.564,140.119,291.425,139.461,292.559z"/>
	<path fill="#E89B68" d="M166.82,184.712c-0.291,0.199-0.562,0.633-0.803,1.586"/>
	<path fill="#E89B68" d="M228.702,142.58c-0.867,0.777-1.252,1.502-1.462,2.225C227.974,144.847,228.564,144.425,228.702,142.58z"/>
	<path fill="#E89B68" d="M295.071,158.37c-0.236,0.314-0.498,0.354-0.748,0.59"/>
	<path fill="#E89B68" d="M227.416,342.313c-0.164,0.089-0.281,0.332-0.441,0.476c0.446,0.206,0.818,0.382,1.326,0.62
		L227.416,342.313z"/>
	<path fill="#D26C35" d="M342.158,367.584c8.93,5.369,13.996-6.739,22.641-8.224c-3.713-3.589,1.619-3.485,1.553-5.987
		c3.254,4.307,2.563-3.654,6.387-2.725l-4.545-2.985c5.674-1.096-0.715-10.989,5.961-8.768c2.984-0.923,2.32,3.183,2.199,4.636
		c7.1,1.005,2.84-10.463,9.543-9.286c-1.557-1.483-5-2.619-4.789-6.299c3.465-0.636,8.555-3.818,9.057-3.041
		c0.123-2.55-1.146-3.807,1.65-5.154c1.146,0.795,0.834,1.852,1.014,2.844c2.928-3.034,2.674-6.766,1.756-10.801
		c4.389-0.683,4.801-8.112,7.91-12.218c-4.564-3.454,2.898-7.449-3.479-8.515l1.979-0.572c-1.68-1.907-5.676-3.446-5.797-5.445
		l4.15,0.764c5.627,0.637,0.904-6.122,3.455-6.806c-3.457,2.063-0.15-2.49-3.404-2.416l-1.568-2.364
		c-1.461-3.755-2.113-0.21-3.166-4.842c-0.766-2.527,4.75-1.833,4.297-0.74c1.721-2.73-0.182-4.758-1.779-6.842
		c-0.023-0.116-0.021-0.205-0.076-0.341c0.195-0.703-0.018-1.601-0.242-2.543c0.143-0.153,0.078-0.349-0.129-0.585
		c-0.178-0.816-0.223-1.616,0.25-2.28l3.367-0.33c-0.367-1.806-5.314-5.163-6.58-4.453c0.037-6.764-6.846-15.592-10.133-17.879
		c1.094,0.441,2.121,0.05,0.67-0.219c-1.738-1.813-5.455-2.568-3.746-3.772c-2.311-1.025,0.891-2.825-0.682-5.73
		c0.572-0.439-3.025,1.441-2.158,1.942c1.26-7.785-10.148-8.039-11.666-15.205c-0.33,0.944,2.359-0.038,3.723-0.383
		c-4.381-2.891-8.779-5.426-15.002-5.219l3.699-1.777c-2.676-2.262-6.34-4.275-9.441-2.889c0.775,2.698,1.246-1.313,2.338-0.155
		c-0.064,3.819-5.225,3.384-6.334,1.386l0.377-0.607c-2.512-2.14-3.67-0.754-6.609-2.188c-0.688-2.521,2.014,0.036,2.479-2.058
		c2.24-4.806-5.24-6.642-5.52-7.493c-1.281,0.625-2.742,0.846-3.234,2.2c-2.965,0.019,0.256-3.358-1.514-4.021
		c-3.85,2.058-7.145,3.54-10.643,6.433c1.961-0.542-0.615-4.94,2.553-6.414c-5.766-0.508-10.256,4.916-13.625,7.628
		c-1.299-1.146-6.098,0.049-7.578-0.033c-0.586-2.91,1.291,0.441,1.789-1.69l-2.236-3.739c3.363,0.19-0.232-5.069,1.766-6.745
		c-2.982,0.642-9.797,0.78-14.418,0.271c3.689,5.558-5.43,3.8-4.166,9.045c-4.441,1.713-3.332-3.872-5.498-4.717l-13.322,6.428
		l-0.256-1.107c-3.125,3.469-10.148,5.343-11.373,11.48l-0.738-2.981c-5.065,0.495,2.899,6.304-3.367,5.929l-0.422-2.794
		c-1.451,3.119-7.446,2.064-6.491,7.688c-1.208-0.829-1.062-1.768-1.306-2.67c-1.234,3.389-3.972,6.153-2.772,10.536
		c-1.672-0.68-2.618-1.909-2.775-3.722c-3.706,1.501,1.582,5.648-1.505,7.13c-0.643,0.623-3.403,0.751-3.189,0.205
		c1.168,2.631-1.298,6.493-1.354,8.396c-1.743-0.548-2.859,0.187-5.483,0.906c-7.872,14.171-16.046,33.575-6.807,49.158
		c-4.404,4.069-4.516-3.23-7.64-0.776c4.543-0.959,2.212,2.83,5.381,7.709l-0.547,0.463c1.624,1.839-0.629,4.428,1.505,6.247
		l1.019-0.688c2.999,0.979-0.997,7.807,4.513,5.473l-1.044,3.535c5.88-1.71,2.031,4.191,7.541,3.26l-0.915,0.453
		c2.036,4.963,10.037,1.396,8.926,5.979c3.588,0.811,7.959,1.05,10.304-2.378c-0.005,1.65-1.526,3.749-2.619,4.809
		c12.622,1.337,27.733,11.975,37.139,0.483l0.209,2.552c5-6.164,15.803-0.481,15.932-10.887l-0.857-4.248
		c1.834,0.392,3.369,2.671,5.084,2.992c-0.693-2.803,4.361-4.074,2.031-6.996l2.242,2.33c2.168-2.199-1.23-7.519,1.043-8.522
		l1.186,1.235c12.572-9.604,4.012-38.22-9.816-42.356c-3.385-1.497,2.855-4.374,1.379-5.276
		c-11.086-10.526-32.956-5.764-28.508,12.867c-1.729,9.878,8.637,16.332,8.658,16.307c0.178-2.66,0.824-4.827,1.676-6.707
		c0.141,0.79,0.234,1.412,0.395,2.333c4,4.432,8.133,13.51,7.125,14.396c1.697,1.327,0.305-1.344-9.111,2.36
		c0.119,0.223-2.498,0.55-5.146,0.852c-4.584-2.037-9.227-3.536-14.476-4.199c0.469,1.741-1.714,3.485-3.208,3.764l0.31-1.285
		l-3.16,2.146c-1.897-0.272,0.722-3.449,2.33-3.481c-5.817-3.827-11.623-5.389-11.197-9.443c-4.175,1.313-0.655-1.565-5.435-0.635
		l2.037-0.315c-4.604-1.841-2.826-4.409,3.159-7.314c10.171-19.872,15.125-40.559,38.677-46.478
		c18.27-7.89,38.115-5.929,57.605,15.379c8.521-1.489,9.078,5.493,17.16,6.467l-2.031,0.875c4.559,1.388,2.662,6.395,2.166,11.63
		c2.314-1.043,1.553,1.578,5.012-0.884c4.107,0.378-3.867,5.517-1.043,7.14c-1.301,0.585,2.334-0.938,1.244,0.053
		c6.578,4.714-2.502-0.14-4.273,8.47c4.123,9.28,8.049,20.888,1.504,29.689c0.115-0.636,3.41,0.342,2.938,1.35
		c-6.742-1.842-0.014,4.015-3.334,4.637l-1.484-2.502c-4.164,2.825-3.582,8.406-8.711,10.452c-0.854,5.276-8.732,5.293-8.779,9.816
		c-1.299-2.54-2.943-0.064-4.551-0.394c2.416,8.543-8.947,3.765-9.605,10.514l-0.666-1.253
		c-11.963,8.828-23.791,12.666-36.596,19.412c-7.658,2.435-16.666-3.115-23.994-0.229c-1.464,1.042-0.4,2.85-1.647,3.563
		c-2.026-0.21,0.18-2.521-0.547-3.481c-4.288,3.709-8.574-2.134-13.07-2.466c-0.875,1.263-2.226,1.104-2.335,3.11
		c-3.195-6.86-12.732-2.566-15.769-9.245c-1.8,7.011-4.987,1.84-7.471,1.729c-0.795-0.99,0.274-2.513,1.351-3.398
		c-3.994-1.813-6.262-2.914-8.709-8.116c-2.275-1.059-5.557,1.355-6.908-1.637c2.259-4.768-4.117-4.858-4.779-8.294
		c-2.732,3.333-7.799,2.207-8.271-1.429l5.317-2.776c-9.104-5.553-10.603-21.13-21.491-28.412l2.891-2.035
		c-2.377-0.04-0.787-21.093-4.933-30.488c2.279-2.978,4.111-7.74,4.505-10.818c-2.559-4.911-1.271-6.035-5.118-10.122
		c0.181-1.664,3.132-1.836,4.463-2.059c2.686-4.851,7.859-8.013,5.131-13.646l2.759,1.089c-0.79-4.604-1.382-12.339,4.057-14.378
		c-1.396-2.417,0.816-6.87-3.297-7.16c0.73-1.956,4.738,2.032,3.483-1.449l2.24,4.046c6.94-7.778,12-15.104,19.567-22.926
		c5.297,2.716,8.064-6.176,15.109-5.811c2.117-4.059,9.065-2.891,9.695-9.401l1.116,2.723c4.685-1.149,10.893-3.174,17.461-2.809
		c3.746,0.081,2.921-4.3,5.633-6.273l0.654,2.875c2.924-2.188,3.192-6.822,4.079-9.932c2.838,1.666,2.898-0.451,5.699,1.195
		c-2.342,1.925-4.084,5.369-5.131,9.527c3.967,0.791,7.254-7.281,10.146-2.763c3.494,0.906,6.059-0.468,6.158-4.405
		c-0.672,1.311,2.291,2.164,0.484,4.029c2.377-0.278,3.896-0.702,5.346-2.165c-0.453-0.104-1.035-0.452-1.514-0.351
		c1.195-2.984,3.756-2.817,3.221-7.278c-1.338,1.146-1.4,1.857-3.098,1.508c0.629-3.111,5.189-3.985,6.25-1.205
		c1.209,3.18-3.029,5.163-1.043,7.061l7.574-7.659c-1.652,2.531-4.178,0.391-3.375-2.69l-2.965,1.871l0.229-3.217
		c-4.936,1.181-8.434-2.236-13.422,0.717l2.037,3.18c-2.969,0.324-5.539,4.911-8.484,1.247c1.207-1.26,0.129-2.854-0.047-4.653
		c-0.643,0.636-1.297,1.921-2.156,1.541l0.891-5.666c-0.688,7.422-7.836,3.674-9.089,5.016l0.299-1.072
		c-4.783-1.77,1.195,2.967-1.758,3.44c-2.673-0.566-1.851-5.836-4.61-7.799c-4.684,1.237-11.476,6.655-17.595,4.04
		c-3.791,2.197-7.627,5.501-10.245,8.979c-3.466,1.165-1.875-5.601-4.451-1.749c-0.295-2.011-1.581-3.692-2.617-5.296
		c0.443,2.239-6.818,2.715-1.98,5.991c-5.457,1.271-11.575,3.313-15.896,7.669c1.461-1.333,0.167-4.697-2.207-5.277
		c-0.672,4.527-3.589,8.659-8.297,10.662c2.212,2.793,3.538,1.946,5.211,5.064c-0.284,0.8-0.131,2.864-1.18,3.398
		c-2.83-2.513-6.21-7.19-9.744-4.27c-2.871-5.358,6.359-4.588,1.168-7.787c-1.429-5.268,6.145-10.09,9.277-8.735
		c0.959-6.579-3.179,1.297-5.177-3.271c-3.075,2.672-3.477,5.238-7.604,9.913c1.523,2.01,3.25,0.993,2.484,4.382
		c-0.53,7.426-7.311,1.509-8.559,2.301l1.109-2.787c-3.894,1.113-2.52,4.496-5.479,6.823c-5.583-4.063,3.988-4.656,2.265-8.633
		l-5.434-1.616c-5.105,3.771,2.551,5.059-3.282,8.148l-1.234-2.225l-1.458,4.084c1.882,1.763,5.115,3.542,6.915,0.806
		c3.271,5.982-1.219,2.889-3.497,7.716c1.834,3.642,1.07-1.919,3.905,0.411c2.827,1.813,0.858,4.482-0.136,6.748
		c-2.413,3.078-4.423-0.841-7.408-1.022c0.01-0.969,1.595-3.819,3.055-2.227c0.216-6.464-7.457-2.944-7.236-7.479
		c-4.354,2.008-0.772,4.54-1.094,6.996c1.137-0.736,2.648,2.632,4.27,2.679c4.253,11.127-9.036-0.911-10.811,6.126
		c6.035,2.214,3.773,12.053,12.036,11.436c0.318,1.839,0.826,4.079-0.443,5.062c-3.17-3.428-4.273,0.865-6.659-3.57l-1.094,1.988
		l-3.034-5.452c-3.863,0.909-8.597,3.72-11.169,4.236c0.15,3.961,4.336,0.688,3.493,4.759c-1.521-2.168-4.323-0.622-4.723,1.139
		c2.683-2.756,5.754,2.258,6.128,4.656c-0.948,3.223-5.67,4.532-6.487,3.741l-2.499-4.464c2.215,3.558-1.944,0.552-1.454,3.572
		c2.054,1.493,5.123,4.187,7.843,5.879c0.387,2.344-3.111,2.938-2.805,3.827l-1.521-4.051c-0.394,4.685-6.726-0.892-6.491,4.249
		l2.927,2.036c-0.79,0.764-2.415,0.881-3.388-0.313c2.198,1.298,0.726,3.825,1.567,5.117l-2.229-0.145
		c1.138,2.252,5.693,5.521,1.035,7.059c5.576-0.86,0.381-2.319,3.25-5.106c4.195-1.178,3.194,3.896,3.697,4.712
		c-5.672-1.247-1.222,4.731-1.572,6.899l-4.667,2.708l3.689,1.361c-7.501-0.008,1.082,4.694-1.528,6.977
		c-2.112-1.501-5.085-1.595-6.401,0.173c5.879-1.986,6.322,4.521,10.259,3.975c-1.938,4.312-7.025-1.447-10.896-0.382
		c4.263,2.484-2.776,5.005,2.744,6.719c1.696-3.214,3.521,0.646,5.961,1.354c-0.417,4.044-2.441-0.737-4.417,2.107
		c0.778,1.749,5.064,3.972,6.624,1.392c-1.167,2.357,4.146,4.922,0.756,7.562c-3.447,1.145-1.622-4.896-4.082-3.354
		c-0.311,5.641,8.571,2.707,9.765,7.695c1.857-2.214,7.986-0.348,10.067,1.831c-1.464,5.418-2.084-2.228-6.49,0.016l0.695,2.153
		c-6.037,3.496-10.021-6.111-14.914-2.916l2.062,2.393c-1.295-0.345-3.273-0.586-4.916-0.282c1.359,2.487,1.359,13.569,2.633,13.165
		c3.59-0.534-1.917-2.219,0.886-2.673c2.226,3.112,7.967,1.646,7.675,6.458c-3.23-1.124-4.083,2.78-6.315,2.726
		c-0.482,2.563,4.11-1.134,3.572,2.452l-2.077,0.593c4.033,10.455,11.978,22.598,24.503,25.033
		c-1.856,3.466,0.007,6.464,1.492,12.463c-0.569-2.71,2.743-2.389,4.038-1.695l-1.361,4.682c0.471,4.07,6.233,4.721,9.971,5.168
		l-1.485,2.727c0.294,3.982,3.875,0.432,5.317,0.501l-0.569,3.45l2.218-1.816c3.267,0.736,5.596,3.79,2.417,7.178
		c1.51,0.025,2.988,0.006,2.627-1.919c0.713,3.8,7.415,8.989,12.906,10.414c-1.657-2.215-0.635-3.401,0.742-5.968
		c3.228-3.741,0.493,1.441,3.833-0.029c-0.914,1.579,0.246,4.352-2.721,4.287c3.12,9.238,14.853,9.358,23.161,13.114
		c2.004-0.103,1.697-1.073,2.9-2.04c4.243,6.516,12.557,2.365,18.229,5.686c-1.1-2.334,1.478-7.537,4.632-7.697
		c3.75-3.961,0.967,5.723,4.229,8.244c1.782-1.858,4.871-2.306,6.2-2.026l-0.125,0.694c2.043-2.199,5.109-3.166,7.541-1.75
		l-0.355,0.324c1.908,0.117,4.441,2.395,6.445,1.773c0.426-3.914,5.656-2.247,6.256-5.784l0.668,1.45l-0.414-3.201l4.244,1.268
		l-1.484,3.799c4.713,1.521,0.898-3.033,2.643-5.289c2.199-3.078,2.768,0.096,4.459,1.044c-0.789,1.907-2.246-0.157-2.783,0.614
		c-1.037,2.979,1.908,0.537,2.408,2.319c0.635-0.069-0.035-3.968,2.172-3.823c1.879-0.147,5.719-2.334,6.234,1.195
		c0.99-2.236,2.885-2.402,3.533-4.25c-1.65-0.178-4.523-0.281-5.48-2.355c1.166-0.793,3.363-2.439,4.248-1.08l-0.744,1.132
		c0.744-1.132,4.801-1.204,1.832-3.72l4.145,3.485c0.641-3.059,2.98-3.957,4.873-5.477c1.617,3.226,1.553,7.71,5.885,6.569
		l1.768-4.899c1.555-1.209,2.367-0.738,3.086,1.313c6.971-1.399,1.172-11.933,7.105-11.75c0.336,4.797,2.068,4.197,4.711,3.99
		c-0.281-0.661-0.85-1.963-0.1-2.591c-1.6-1.326,0.371,3.244-2.668,1.706C338.951,369.461,341.674,368.854,342.158,367.584z"/>
</g>
</svg>
