<?xml version="1.0" encoding="utf-8"?>
<!-- Generator: Adobe Illustrator 16.0.0, SVG Export Plug-In . SVG Version: 6.00 Build 0)  -->
<!DOCTYPE svg PUBLIC "-//W3C//DTD SVG 1.1//EN" "http://www.w3.org/Graphics/SVG/1.1/DTD/svg11.dtd">
<svg version="1.1" id="Layer_1" xmlns="http://www.w3.org/2000/svg" xmlns:xlink="http://www.w3.org/1999/xlink" x="0px" y="0px"
	 width="540px" height="540px" viewBox="0 0 540 540" enable-background="new 0 0 540 540" xml:space="preserve">
<g>
	<path fill="#21419C" d="M391.02,335.96c0-87.836-71.203-159.041-159.036-159.041c-87.841,0-159.042,71.207-159.042,159.041
		c0,87.836,71.203,159.04,159.041,159.04C319.817,495.002,391.02,423.796,391.02,335.96z"/>
	<g>
		<path fill="#FFFFFF" d="M96.673,457.877c0,0-52.089-101.912,85.751-183.79C320.265,192.218,447.585,109.855,399.037,45
			c0,0,94.933,73.422-6.535,169.881C291.037,311.344,74.899,317.971,96.673,457.877z"/>
		<path fill="#FFFFFF" d="M98.814,460.846c0,0-12.807-95.154,119.073-121.512c131.881-26.361,255.577-56.035,235.241-120.887
			c0,0,54.646,84.556-52.521,132.591C293.439,399.079,120.58,344.075,98.814,460.846z"/>
		<path fill="#FFFFFF" d="M103.113,460.791c0,0,12.749-69.245,110.678-57.568c97.923,11.672,190.899,19.176,191.5-30.654
			c0,0,18.825,71.384-66.813,80.451C252.837,462.079,144.885,384.365,103.113,460.791z"/>
	</g>
	<g>
		<path fill="#718CC7" d="M96.673,472.614c0,0-52.089-101.911,85.751-183.787c137.84-81.872,265.159-164.237,216.613-229.092
			c0,0,94.933,73.422-6.535,169.881C291.037,326.08,74.899,332.707,96.673,472.614z"/>
		<path fill="#718CC7" d="M98.814,475.579c0,0-12.807-95.153,119.073-121.511c131.881-26.364,255.577-56.037,235.241-120.887
			c0,0,54.646,84.554-52.521,132.59C293.439,413.817,120.58,358.814,98.814,475.579z"/>
		<path fill="#718CC7" d="M103.113,475.526c0,0,12.749-69.245,110.678-57.562c97.923,11.664,190.899,19.17,191.5-30.662
			c0,0,18.825,71.381-66.813,80.45C252.837,476.817,144.885,399.105,103.113,475.526z"/>
	</g>
</g>
</svg>
