<?xml version="1.0" encoding="utf-8"?>
<!-- Generator: Adobe Illustrator 16.0.0, SVG Export Plug-In . SVG Version: 6.00 Build 0)  -->
<!DOCTYPE svg PUBLIC "-//W3C//DTD SVG 1.1//EN" "http://www.w3.org/Graphics/SVG/1.1/DTD/svg11.dtd">
<svg version="1.1" id="Layer_1" xmlns="http://www.w3.org/2000/svg" xmlns:xlink="http://www.w3.org/1999/xlink" x="0px" y="0px"
	 width="540px" height="540px" viewBox="0 0 540 540" enable-background="new 0 0 540 540" xml:space="preserve">
<g>
	<path fill="#FAE204" d="M295.564,423.076c8.153-56.492-24.78-95.138-66.323-129.643c-0.415-25.384-2.012-61.782-13.017-72.782
		c-9.895,1.838-35.048,17.487-48.464,24.99c-45.127-35.808-82.569-74.237-73.144-131.769
		c-35.063,44.758-40.221,99.434-26.463,150.715c-8.778,2.634-16.889,6.848-22.846,13.526c-3.07,3.435,17.379,13.34,35.216,21.169
		C120.026,387.682,213.028,455.014,295.564,423.076z"/>
	<path fill="#A89227" d="M112.412,164.291C67.626,64.223,217.75,15.736,257.008,73.087c-33.351-17.092-63.651,3.654-77.116,22.245
		c18.722,18.724,37.893,55.108,31.885,76.377C201.624,154.925,131.934,93.685,112.412,164.291z"/>
	<path fill="#75C766" d="M244.437,116.92c-8.157,56.493,24.776,95.137,66.321,129.646c0.411,25.388,2.017,61.78,13.019,72.785
		c9.891-1.839,35.051-17.487,48.461-24.992c45.129,35.805,82.567,74.24,73.145,131.774c35.062-44.76,40.216-99.438,26.464-150.722
		c8.774-2.635,16.886-6.843,22.848-13.52c3.063-3.438-17.382-13.342-35.219-21.175C419.97,152.318,326.97,84.986,244.437,116.92z"/>
	<path fill="#118B40" d="M427.585,375.702c44.786,100.076-105.338,148.563-144.595,91.209c33.354,17.09,63.655-3.656,77.115-22.245
		c-18.722-18.722-37.89-55.11-31.887-76.376C338.376,385.076,408.069,446.321,427.585,375.702z"/>
</g>
</svg>
