<?xml version="1.0" encoding="utf-8"?>
<!-- Generator: Adobe Illustrator 16.0.0, SVG Export Plug-In . SVG Version: 6.00 Build 0)  -->
<!DOCTYPE svg PUBLIC "-//W3C//DTD SVG 1.1//EN" "http://www.w3.org/Graphics/SVG/1.1/DTD/svg11.dtd">
<svg version="1.1" id="Layer_1" xmlns="http://www.w3.org/2000/svg" xmlns:xlink="http://www.w3.org/1999/xlink" x="0px" y="0px"
	 width="540px" height="540px" viewBox="0 0 540 540" enable-background="new 0 0 540 540" xml:space="preserve">
<path fill="#2D2C2C" d="M483.247,339.529c0.265-0.682,0.507-1.356,0.73-2.027C483.742,338.148,483.497,338.83,483.247,339.529z"/>
<g>
	<path fill="#471D51" d="M264.801,254.383c60.069-30.602,39.532-85.753,4.367-98.827c-18.155-6.76-31.351-2.778-44.084,1.07
		c-29.208,11.814-58.019,25.998-84.471,42.049c-37.579,22.83-64.791,46.079-80.392,66.972c-5.581,7.475-9.673,14.665-12.206,21.427
		c-0.411,1.151-0.721,2.381-0.985,3.659c0-0.002,0.002-0.002,0-0.002c-0.005,0.026-0.01,0.061-0.017,0.09
		c0.008-0.027,0.012-0.061,0.017-0.088c-1.262,4.221-1.871,8.244-1.83,12.063c0.278-1.019,0.802-1.161,1.076-1.184l0.587,0.159
		c1.893,0.738,1.488,0.338-0.587-0.159c-0.627,0.235-0.907,0.663-1.08,1.254c0-0.023,0.003-0.047,0.003-0.07
		c-0.011,0.033-0.022,0.067-0.03,0.103c-0.026,0.098-0.074,0.215-0.091,0.322c-0.084,0.57-0.113,1.312-0.022,2.381l0.06,0.588
		l0.295,2.002l0.116,0.601l-0.019-0.119l1.185,5.857c5.911,22.774,6.251,24.147,11.663,37.646
		c11.096,24.45,11.325,24.905,25.357,46.208l2.018,2.792l10.697,13.448c-3.762-4.335-5.916-9.354-6.559-14.883
		c-0.654-5.673,0.299-11.915,2.799-18.586c2.486-6.571,6.466-13.552,11.879-20.817c15.176-20.306,41.617-42.902,78.165-65.088
		C208.394,279.649,236.417,265.844,264.801,254.383z M64.8,261.102c0.142-0.098,0.294-0.131,0.436-0.225
		c-0.212,0.147-0.455,0.273-0.655,0.427C64.652,261.249,64.726,261.154,64.8,261.102z M51.964,332.962
		c3.853,13.023,8.521,23.217,11.056,28.313C58.776,352.841,54.912,343.108,51.964,332.962z M71.669,344.791
		c4.682,10.833,9.275,22.8,13.108,34.858C81.004,367.79,76.401,355.765,71.669,344.791z M87.913,386.87l-0.863,0.238
		c0.442-0.118,0.803-0.301,1.179-0.471C88.106,386.703,88.046,386.812,87.913,386.87z"/>
	<path fill="#2D2C2C" d="M109.929,104.516c-2.309,2.318-4.857,4.927-8.425,8.615C104.373,110.019,107.154,107.205,109.929,104.516z"
		/>
	<path fill="#913CA3" d="M494.943,252.499l-1.117-12.359c-1.749-14.096-1.98-14.994-7.86-38.098
		c-1.953-6.343-5.087-14.654-7.349-20.889c-5.535-13.397-6.231-14.634-17.919-35.075l-2.133-3.346l1.357,3.132
		c8.605,21.753-10.921,54.027-54.387,87.795l-5.708,4.347c-1.636,1.219-3.298,2.439-4.998,3.66
		c-8.733,6.269-18.29,12.583-28.624,18.869c-96.843,58.817-225.845,92.651-288.124,75.577c-19.64-5.385-30.282-15.189-32.671-27.916
		l0.116,0.601c0.009,0.035,0.021,0.075,0.027,0.108l1.138,5.63c3.123,13.985,3.435,14.872,11.663,37.646
		c10.589,23.603,10.871,24.025,25.357,46.207l2.018,2.793c-2.646-3.571-7.091-11.543-12.188-21.879
		c-0.86-1.781-20.43-41.621-27.038-66.597c6.41,23.815,27.8,71.056,39.226,88.476l10.697,13.447
		c5.293,6.146,13.727,10.991,25.487,14.201c60.542,16.597,185.943-16.281,280.049-73.461c10.047-6.094,19.348-12.247,27.83-18.35
		C473.447,305.653,496.308,274.96,494.943,252.499z"/>
	<path fill="#913CA3" d="M60.866,357.771c1.038,1.594,2.155,3.306,3.382,5.185l2.018,2.792c-1.816-2.453-4.482-6.98-7.626-12.926
		C59.437,354.597,60.177,356.24,60.866,357.771z"/>
	<path fill="#913CA3" d="M382.5,319.937c10.047-6.095,19.349-12.248,27.829-18.351c43.651-31.369,66.517-62.059,65.148-84.522
		l-1.117-12.359c-1.749-14.096-1.979-14.993-7.86-38.097c-1.303-4.23-3.127-9.327-4.868-14.107
		c2.865,21.41-16.854,50.673-56.097,81.16l-5.708,4.347c-1.636,1.219-3.298,2.439-4.998,3.66
		c-8.733,6.269-18.29,12.583-28.624,18.87c-96.843,58.816-225.845,92.65-288.124,75.576c-19.64-5.385-30.282-15.189-32.671-27.916
		l0.116,0.601c0.009,0.035,0.021,0.075,0.027,0.108l1.138,5.63c3.1,13.88,3.435,14.87,11.479,37.135
		c2.973,5.64,5.747,10.493,8.096,14.074l2.074,2.606c-6.492-13.983-17.263-38.367-21.836-55.646
		c3.781,14.054,12.783,36.265,21.874,55.69l8.586,10.795c5.293,6.146,13.727,10.992,25.486,14.203
		C162.993,409.992,288.396,377.112,382.5,319.937z"/>
	<path fill="#913CA3" d="M45.554,308.906l1.138,5.628c0.534,2.398,0.986,4.406,1.411,6.211c0.534,1.023,1.124,2.023,1.793,2.996
		c-1.317-3.866-2.481-7.594-3.393-11.036c0.893,3.319,2.085,7.106,3.494,11.19c5.221,7.461,14.497,13.303,28.082,17.03
		c62.28,17.075,191.283-16.765,288.124-75.578c10.335-6.288,19.89-12.598,28.624-18.87c1.701-1.22,3.361-2.44,4.999-3.661
		l5.708-4.346c38.158-29.643,57.851-58.13,56.274-79.365c-1.432,20.63-20.93,47.093-56.274,74.553l-5.708,4.347
		c-1.636,1.219-3.298,2.439-4.999,3.66c-8.732,6.269-18.289,12.583-28.624,18.869c-96.842,58.817-225.844,92.651-288.124,75.577
		c-19.64-5.385-30.282-15.189-32.671-27.916l0.116,0.601C45.534,308.833,45.546,308.872,45.554,308.906z"/>
	<path fill="#913CA3" d="M51.969,334.235c0.214,0.634,0.44,1.293,0.681,1.986c2.661,7.104,5.66,14.371,8.547,21.033
		c0.025,0.045,0.049,0.089,0.073,0.13C57.834,349.421,54.633,341.485,51.969,334.235z"/>
	
		<linearGradient id="SVGID_1_" gradientUnits="userSpaceOnUse" x1="374.9348" y1="-16536.0215" x2="381.4426" y2="-16536.0215" gradientTransform="matrix(1 0 0 -1 -16.7197 -16095.8906)">
		<stop  offset="0" style="stop-color:#FFFFFF;stop-opacity:0"/>
		<stop  offset="0.2614" style="stop-color:#FFFFFF;stop-opacity:0.8577"/>
		<stop  offset="0.3048" style="stop-color:#FFFFFF"/>
		<stop  offset="1" style="stop-color:#FFFFFF;stop-opacity:0"/>
	</linearGradient>
	<path fill="url(#SVGID_1_)" d="M358.907,441.491c-0.241,0.146-0.462,0.292-0.692,0.438c0.477-0.244,0.959-0.488,1.45-0.743
		c1.576-0.942,3.268-1.896,5.058-2.854C362.722,439.367,360.59,440.478,358.907,441.491z"/>
	<g>
		<path fill="#37BFE7" d="M250.74,492.893c-2.135-0.178-4.043-0.399-5.962-0.619c0.813,0.104,1.535,0.198,2.413,0.313
			L250.74,492.893z"/>
		<path fill="#37BFE7" d="M408.323,410.803c-13.023,7.909-26.776,15.276-40.885,21.988
			c-48.551,23.072-101.303,38.395-143.223,42.019c-19.235,1.678-36.18,0.877-49.427-2.745l-4.166-1.283
			c-2.629-0.898-5.027-1.933-7.196-3.045l2.615,1.347l5.23,2.551c0.963,0.438,1.875,0.851,2.739,1.239
			c0.691,1.688,3.645,2.817,8.051,3.537c7.26,3.051,12.267,4.604,26.627,9.086c10.707,2.673,16.605,3.942,23.142,4.984
			c10.473,1.919,21.51,3.159,32.325,3.054c0.95-0.011,1.878-0.038,2.807-0.066c2.736,0.044,5.396,0.066,7.771,0.064
			c5.044-0.215,11.723-0.673,16.808-1.078c-0.041,0.005-0.061,0.008-0.103,0.013l0.188-0.02c0.038-0.002,0.087-0.006,0.127-0.011
			c0.059-0.007,0.082-0.012,0.138-0.02l0.445-0.044c0.134-0.014,0.289-0.055,0.421-0.068c1.159-0.144,2.011-0.28,2.576-0.413
			c21.999-2.753,48.367-10.657,72.906-22.319c7.73-3.69,15.278-7.728,22.438-12.069c5.112-3.119,9.793-6.237,14.042-9.353
			c13.54-10.538,17.16-14.025,27.646-24.507c12.938-13.796,18.871-22.469,27.066-34.476c9.299-15.202,10.731-18.335,18.637-35.694
			c1.764-4.063,3.585-9.453,5.185-13.943C475.278,360.224,449.476,385.812,408.323,410.803z M178.636,473.425
			c1.086,0.353,2.263,0.73,3.446,1.105C180.887,474.148,179.847,473.815,178.636,473.425z M217.45,475.789
			c0.744-0.159,1.454-0.292,2.069-0.39l1.547-0.221C219.918,475.333,218.677,475.533,217.45,475.789z M221.138,475.17l0.638-0.091
			l0.903-0.1C222.193,475.034,221.677,475.099,221.138,475.17z M358.907,437.366c1.683-1.016,3.813-2.125,5.813-3.16
			c-1.79,0.96-3.48,1.911-5.058,2.854c-0.491,0.252-0.974,0.503-1.45,0.743C358.448,437.657,358.668,437.51,358.907,437.366z"/>
		<path fill="#37BFE7" d="M396.692,421.74c2.938-3.133,5.498-5.992,7.822-8.693c-11.896,7.053-24.323,13.678-37.075,19.744
			c-48.55,23.073-101.303,38.396-143.223,42.021c-15.723,1.368-29.912,1.082-41.804-1.045c-0.213,0.04-0.422,0.075-0.634,0.119
			c0.209-0.045,0.407-0.084,0.608-0.123c-0.55-0.099-1.086-0.205-1.627-0.311c-0.596,0.031-1.188,0.057-1.778,0.084
			c0.992,0.32,2.04,0.655,3.102,0.994c-1.074-0.342-2.039-0.649-3.102-0.994c-1.479,0.065-2.943,0.122-4.388,0.155
			c1.197,1.239,3.825,2.124,7.47,2.718c7.262,3.051,12.267,4.604,26.627,9.086c10.706,2.673,16.605,3.941,23.142,4.984
			c2.282,0.42,4.597,0.799,6.927,1.145c0.1,0,0.208,0,0.307,0c5.042-0.214,11.718-0.67,16.808-1.077
			c-0.043,0.006-0.061,0.007-0.104,0.014l0.187-0.021c0.038-0.001,0.088-0.005,0.127-0.009c0.057-0.007,0.08-0.013,0.137-0.02
			l0.444-0.047c0.136-0.013,0.29-0.052,0.423-0.064c1.159-0.146,2.009-0.285,2.574-0.416c22.001-2.751,48.365-10.657,72.906-22.317
			c7.729-3.69,15.28-7.729,22.438-12.069c5.11-3.121,9.793-6.237,14.04-9.354C382.584,435.708,386.205,432.222,396.692,421.74z
			 M217.45,475.789c0.744-0.159,1.454-0.292,2.069-0.39l1.547-0.221C219.918,475.333,218.677,475.533,217.45,475.789z
			 M221.138,475.17l0.638-0.091l0.903-0.1C222.193,475.034,221.677,475.099,221.138,475.17z M359.665,437.062
			c-0.491,0.251-0.973,0.502-1.45,0.742c0.231-0.146,0.453-0.291,0.692-0.437c1.683-1.015,3.813-2.123,5.813-3.16
			C362.933,435.166,361.24,436.117,359.665,437.062z"/>
		<path fill="#37BFE7" d="M187.851,478.701c10.7,1.353,22.968,1.401,36.365,0.235c41.92-3.625,94.673-18.948,143.223-42.021
			c10.021-4.768,19.836-9.893,29.355-15.288c2.896-3.087,5.423-5.909,7.721-8.58c-11.896,7.053-24.323,13.678-37.074,19.744
			c-48.551,23.073-101.303,38.396-143.223,42.021c-15.723,1.368-29.912,1.082-41.805-1.045c-0.211,0.04-0.421,0.075-0.634,0.119
			c0.21-0.045,0.407-0.084,0.608-0.123c-0.548-0.099-1.086-0.205-1.627-0.311c-0.596,0.031-1.188,0.057-1.779,0.084
			c0.993,0.32,2.04,0.655,3.103,0.994c-1.073-0.342-2.039-0.649-3.103-0.994c-1.479,0.065-2.943,0.122-4.388,0.155
			c1.197,1.239,3.825,2.124,7.47,2.718C184.081,477.258,185.929,477.99,187.851,478.701z M358.907,437.366
			c1.683-1.016,3.813-2.125,5.813-3.16c-1.79,0.96-3.48,1.911-5.058,2.854c-0.491,0.252-0.974,0.503-1.45,0.743
			C358.448,437.657,358.668,437.51,358.907,437.366z M221.775,475.079l0.903-0.1c-0.484,0.058-1,0.119-1.541,0.19L221.775,475.079z
			 M219.519,475.399l1.548-0.221c-1.148,0.153-2.391,0.354-3.617,0.609C218.194,475.63,218.906,475.497,219.519,475.399z"/>
		<path fill="#37BFE7" d="M217.45,479.915c1.227-0.258,2.467-0.458,3.616-0.611l-1.547,0.221
			C218.906,479.622,218.194,479.755,217.45,479.915z"/>
		<path fill="#37BFE7" d="M221.138,479.295c0.541-0.071,1.055-0.135,1.541-0.188l-0.903,0.099L221.138,479.295z"/>
	</g>
	<path fill="#EC5695" d="M380.814,80.696L380.4,78.5l-0.457-1.591l-0.32-0.979l-0.138-0.341
		c-10.721-15.403-46.066-24.636-47.563-25.032c-27.414-7.035-51.658-4.034-52.939,1.67l0.077,0.169l0.169,0.501l0.231,0.839
		l0.212,1.136l0.118,1.458l-0.081,1.765l-0.336,2.065l-0.69,2.376l-1.132,2.65l-1.594,2.883l-2.086,3.122l-2.614,3.314l-3.121,3.432
		c-1.144,1.163-2.343,2.343-3.615,3.515c-1.284,1.174-2.622,2.365-4.046,3.548c-1.394,1.171-2.871,2.341-4.404,3.524
		c-0.502,0.45-0.924,0.918-1.356,1.396c0.076-0.088,0.073-0.242,0.151-0.327l1.204-1.07l-1.562,1.162l-1.567,1.165l-1.613,1.141
		l-1.604,1.11l-1.636,1.121l-1.636,1.088l-1.653,1.062l-1.655,1.047l-1.645,1.011l-0.578,0.358l-1.05,0.631l-1.603,0.95l-1.567,0.91
		l-1.53,0.867l-1.467,0.832l-1.443,0.794l-1.375,0.758l-1.331,0.694l-1.264,0.663l-1.208,0.625l-1.127,0.576l-1.052,0.534
		l-0.993,0.499l-0.915,0.433l-0.83,0.404l-0.721,0.358l-0.667,0.306l-0.555,0.277l-0.474,0.221l-0.359,0.169l-0.25,0.123
		l-0.168,0.081l-0.052,0.03c-22.906,10.69-47.502,17.922-67.621,20.077c-7.086,0.693-13.532,0.659-18.667,0.377
		c-3.173-0.286-6.112-0.767-8.744-1.48c-21.527-5.903-16.507-24.891,9.698-45.133c1.535-1.184,3.141-2.367,4.813-3.555l-0.339,0.23
		c0.014-0.008,0.025-0.019,0.037-0.027c-7.542,5.396-8.651,6.308-17.27,13.418c-4.249,3.599-7.181,6.345-10.904,10.078
		c0.059-0.055,0.116-0.105,0.171-0.162c-2.753,2.662-5.577,5.511-8.474,8.659c-4.119,4.647-9.404,11.02-13.309,15.855
		c-11.511,15.926-13.526,19.597-22.045,35.091c-3.148,6.482-6.932,15.341-9.733,21.976c-7.055,18.193,0.147,32.506,23.419,38.872
		c11.317,3.11,25.455,4.071,41.43,3.148c40.717-2.382,93.383-17.03,142.091-39.787l0.12-0.035l0.303-0.154l0.514-0.25l0.711-0.319
		l0.89-0.423l1.081-0.528l1.251-0.594l1.444-0.681l1.568-0.783l1.771-0.875l1.912-0.946l2.04-1.021l2.185-1.126l2.322-1.197
		l2.44-1.278l2.548-1.358l2.673-1.445l2.78-1.525l2.851-1.607l2.963-1.672l3.007-1.765l3.087-1.836l2.018-1.217l1.151-0.692
		l3.164-1.953l3.2-2.029l3.161-2.048l3.176-2.115l3.169-2.146l3.126-2.165l3.091-2.2l3.023-2.229l2.994-2.251
		c2.97-2.282,5.812-4.549,8.507-6.794c2.768-2.312,5.353-4.599,7.817-6.854c2.478-2.29,4.792-4.561,6.98-6.811
		c2.153-2.241,4.166-4.44,6.034-6.628c1.813-2.154,3.512-4.276,5.048-6.378c1.484-2.026,2.842-4.047,4.042-6.021
		c1.163-1.898,2.189-3.771,3.074-5.605c0.845-1.739,1.56-3.441,2.158-5.108l1.353-4.584l0.66-4l0.148-3.406L380.814,80.696z
		 M214.926,113.173l0.756-0.499c-0.376,0.292-0.751,0.572-1.134,0.928C214.684,113.476,214.791,113.298,214.926,113.173z"/>
	<path fill="#EC5695" d="M121.389,180.124c40.718-2.381,93.385-17.029,142.091-39.788l0.12-0.035l0.303-0.154l0.514-0.248
		l0.71-0.322l0.89-0.42l1.081-0.531l1.251-0.592l1.443-0.682l1.568-0.785l1.771-0.873l1.911-0.946l2.04-1.02l2.186-1.125
		l2.321-1.198l2.441-1.28l2.547-1.355l2.673-1.445l2.782-1.526l2.851-1.606l2.961-1.672l3.007-1.763l3.087-1.837l2.018-1.218
		l1.151-0.693l3.164-1.954l3.2-2.028l3.161-2.047l3.176-2.118l3.169-2.146l3.126-2.163l3.089-2.199l3.023-2.231l2.993-2.252
		c2.971-2.281,5.813-4.549,8.507-6.793c2.768-2.313,5.354-4.601,7.818-6.854c2.478-2.292,4.792-4.561,6.98-6.811
		c2.152-2.243,4.165-4.441,6.033-6.628c1.427-1.691,2.751-3.361,4.012-5.021c-14.584-9.435-35.494-14.906-36.639-15.208
		c-27.415-7.036-51.659-4.034-52.94,1.67l0.076,0.169l0.169,0.502l0.231,0.839l0.212,1.136l0.118,1.458l-0.08,1.765l-0.337,2.065
		l-0.69,2.376l-1.131,2.65l-1.595,2.883l-2.085,3.122l-2.614,3.314l-3.122,3.432c-1.142,1.163-2.342,2.343-3.615,3.515
		c-1.284,1.175-2.622,2.366-4.046,3.548c-1.394,1.171-2.872,2.342-4.403,3.524c-0.503,0.45-0.925,0.918-1.357,1.396
		c0.076-0.088,0.073-0.243,0.151-0.328l1.205-1.07l-1.563,1.162l-1.567,1.164l-1.613,1.142l-1.604,1.109l-1.634,1.12l-1.637,1.089
		l-1.653,1.062l-1.655,1.047l-1.645,1.011l-0.578,0.358l-1.05,0.631l-1.603,0.95l-1.567,0.91l-1.529,0.867l-1.468,0.832
		l-1.443,0.794l-1.375,0.758l-1.331,0.694l-1.264,0.662l-1.207,0.625l-1.128,0.577l-1.052,0.533l-0.993,0.499l-0.915,0.433
		l-0.831,0.404l-0.721,0.358l-0.667,0.306l-0.555,0.277l-0.475,0.221l-0.358,0.169l-0.251,0.123l-0.167,0.082l-0.052,0.03
		c-22.906,10.691-47.501,17.922-67.621,20.078c-7.086,0.693-13.531,0.659-18.667,0.377c-3.173-0.286-6.112-0.768-8.745-1.481
		c-21.527-5.903-16.506-24.891,9.698-45.133c0.479-0.369,0.979-0.74,1.471-1.11c-0.024,0-0.049,0-0.075-0.001
		c-4.947,3.585-6.888,5.183-14.155,11.179c-4.249,3.599-7.181,6.345-10.904,10.078c0.059-0.055,0.116-0.104,0.171-0.162
		c-2.753,2.662-5.577,5.51-8.474,8.659c-4.119,4.647-9.404,11.02-13.309,15.855c-11.511,15.926-13.526,19.597-22.045,35.091
		c-0.831,1.707-1.704,3.583-2.591,5.532c4.095,3.103,9.498,5.635,16.275,7.487C91.277,180.085,105.414,181.048,121.389,180.124z
		 M214.926,113.173l0.756-0.499c-0.376,0.292-0.751,0.572-1.134,0.928C214.684,113.476,214.791,113.298,214.926,113.173z"/>
	
		<linearGradient id="SVGID_2_" gradientUnits="userSpaceOnUse" x1="231.2678" y1="-16214.2969" x2="232.4016" y2="-16214.2969" gradientTransform="matrix(1 0 0 -1 -16.7197 -16095.8906)">
		<stop  offset="0" style="stop-color:#FFFFFF"/>
		<stop  offset="1" style="stop-color:#FFFFFF;stop-opacity:0"/>
	</linearGradient>
	<path fill="url(#SVGID_2_)" d="M214.548,118.871c0.383-0.356,0.758-0.639,1.134-0.929l-0.756,0.499
		C214.791,118.562,214.684,118.743,214.548,118.871z"/>
	<path fill="#EC5695" d="M123.895,129.505c-7.846-2.154-12.15-6.049-13.202-11.104c-1.377,7.616,2.813,13.521,13.202,16.368
		c2.633,0.713,5.572,1.197,8.745,1.482c5.135,0.281,11.581,0.314,18.667-0.379c20.121-2.156,44.715-9.386,67.622-20.075l0.051-0.033
		l0.167-0.082l0.251-0.122l0.358-0.171l0.475-0.218l0.556-0.279l0.667-0.307l0.72-0.358l0.831-0.403l0.916-0.434l0.993-0.499
		l1.051-0.533l1.128-0.575l1.208-0.622l1.263-0.664l1.331-0.696l1.375-0.758l1.443-0.795l1.468-0.83l1.529-0.868l1.568-0.91
		l1.602-0.95l1.05-0.63l0.578-0.361l1.645-1.009l1.655-1.049l1.653-1.06l1.637-1.088l1.634-1.121l1.604-1.109l1.614-1.142
		l1.566-1.166l1.563-1.16c1.53-1.185,3.008-2.354,4.402-3.526c1.424-1.184,2.764-2.375,4.046-3.548
		c1.272-1.169,2.472-2.354,3.615-3.517l3.123-3.43l2.612-3.314l2.086-3.123l1.594-2.88l1.133-2.651l0.689-2.379l0.336-2.063
		l0.082-1.766l-0.119-1.458l-0.157-0.847l-0.141,0.868l-0.688,2.376l-1.133,2.65l-1.595,2.883l-2.085,3.122l-2.613,3.313
		l-3.123,3.432c-1.142,1.163-2.342,2.343-3.615,3.516c-1.283,1.174-2.622,2.365-4.046,3.548c-1.394,1.17-2.872,2.341-4.402,3.524
		c-0.501,0.449-0.926,0.918-1.358,1.396c0.077-0.088,0.074-0.242,0.151-0.327l1.206-1.07l-1.563,1.162l-1.567,1.164l-1.614,1.142
		l-1.604,1.11l-1.634,1.12l-1.637,1.089l-1.653,1.062l-1.654,1.047l-1.646,1.011l-0.578,0.358l-1.05,0.631l-1.602,0.95l-1.568,0.91
		l-1.529,0.867l-1.468,0.832l-1.443,0.794l-1.375,0.758l-1.331,0.693l-1.263,0.663l-1.208,0.625l-1.128,0.576l-1.05,0.533
		l-0.994,0.499l-0.916,0.433l-0.831,0.404l-0.72,0.358l-0.667,0.306l-0.556,0.276l-0.473,0.221l-0.36,0.169l-0.25,0.122
		l-0.169,0.081l-0.051,0.031c-22.907,10.69-47.502,17.922-67.622,20.078c-7.086,0.693-13.531,0.658-18.667,0.377
		C129.467,130.697,126.528,130.216,123.895,129.505z M214.926,113.173l0.756-0.499c-0.376,0.292-0.751,0.572-1.134,0.928
		C214.684,113.476,214.791,113.298,214.926,113.173z"/>
	<path fill="#EC5695" d="M254.715,95.192c0.433-0.477,0.854-0.948,1.355-1.397l-1.204,1.07
		C254.788,94.951,254.79,95.105,254.715,95.192z"/>
</g>
</svg>
