<?xml version="1.0" encoding="utf-8"?>
<!-- Generator: Adobe Illustrator 16.0.0, SVG Export Plug-In . SVG Version: 6.00 Build 0)  -->
<!DOCTYPE svg PUBLIC "-//W3C//DTD SVG 1.1//EN" "http://www.w3.org/Graphics/SVG/1.1/DTD/svg11.dtd">
<svg version="1.1" id="Layer_1" xmlns="http://www.w3.org/2000/svg" xmlns:xlink="http://www.w3.org/1999/xlink" x="0px" y="0px"
	 width="540px" height="540px" viewBox="0 0 540 540" enable-background="new 0 0 540 540" xml:space="preserve">
<g>
	<polygon fill="#9B6531" points="479.754,225.669 317.03,103.636 145.845,229.91 132.28,229.91 132.28,219.749 314.492,80.75 
		488.225,210.422 	"/>
	<path fill="#D3642E" d="M495,215.507v16.952c0,0-61.854,106.774-337.309,112.72l34.758-27.119
		C192.454,318.059,443.313,320.602,495,215.507z"/>
	<path fill="#D3642E" d="M494.899,251.95v19.162c0,0-71.025,120.737-387.214,127.446l39.872-30.662
		C147.555,367.898,435.563,370.76,494.899,251.95z"/>
	<path fill="#D3642E" d="M494.547,287.525v22.461c0,0-82.471,141.414-449.547,149.264l46.297-35.924
		C91.297,423.326,425.641,426.693,494.547,287.525z"/>
	<g>
		<rect x="297.953" y="146.709" fill="#FF9A00" width="16.953" height="16.952"/>
		<rect x="321.551" y="146.709" fill="#FF9A00" width="16.934" height="16.952"/>
		<rect x="297.953" y="168.491" fill="#FF9A00" width="16.953" height="16.935"/>
		<rect x="321.551" y="168.491" fill="#FF9A00" width="16.934" height="16.935"/>
	</g>
</g>
</svg>
