<?xml version="1.0" encoding="utf-8"?>
<!-- Generator: Adobe Illustrator 16.0.0, SVG Export Plug-In . SVG Version: 6.00 Build 0)  -->
<!DOCTYPE svg PUBLIC "-//W3C//DTD SVG 1.1//EN" "http://www.w3.org/Graphics/SVG/1.1/DTD/svg11.dtd">
<svg version="1.1" id="Layer_1" xmlns="http://www.w3.org/2000/svg" xmlns:xlink="http://www.w3.org/1999/xlink" x="0px" y="0px"
	 width="540px" height="540px" viewBox="0 0 540 540" enable-background="new 0 0 540 540" xml:space="preserve">
<g>
	<g>
		<g>
			<path fill="#16649F" d="M468.765,132.421l-19.443,62.535l-310.817-4.104l19.554-62.863L468.765,132.421"/>
		</g>
		<g>
			<path fill="#16649F" d="M495,233.976l-24.249,77.983L45,305.461l24.064-77.382L495,233.976"/>
		</g>
		<g>
			<path fill="#16649F" d="M401.779,349.263l-19.528,62.795l-311.338-4.496l18.673-68.253l311.333,4.521"/>
		</g>
	</g>
	<g>
		<g>
			<path fill="#19AED1" d="M399.647,48.765l67.254,77.524l-76.998-1.073l-32.156-35.572l33.012-6.277l0.978-0.186l0.224-0.978
				L399.647,48.765"/>
		</g>
		<g>
			<path fill="#19AED1" d="M477.651,228.042l-234.165-3.407l-88.088-27.377l234.279,3.444L477.651,228.042"/>
		</g>
		<g>
			<path fill="#19AED1" d="M384.143,342.579l-233.922-3.071l-88.227-27.43l234.975,3.393L384.143,342.579"/>
		</g>
		<g>
			<path fill="#19AED1" d="M149.95,414.958l32.146,35.514l-33.042,6.365l-0.984,0.182l-0.22,0.979l-7.64,33.238l-67.198-77.434
				L149.95,414.958"/>
		</g>
	</g>
</g>
</svg>
