<?xml version="1.0" encoding="utf-8"?>
<!-- Generator: Adobe Illustrator 16.0.0, SVG Export Plug-In . SVG Version: 6.00 Build 0)  -->
<!DOCTYPE svg PUBLIC "-//W3C//DTD SVG 1.1//EN" "http://www.w3.org/Graphics/SVG/1.1/DTD/svg11.dtd">
<svg version="1.1" id="Layer_1" xmlns="http://www.w3.org/2000/svg" xmlns:xlink="http://www.w3.org/1999/xlink" x="0px" y="0px"
	 width="540px" height="540px" viewBox="0 0 540 540" enable-background="new 0 0 540 540" xml:space="preserve">
<g>
	<g>
		<path fill="#404041" d="M259.279,494.633c-3.532-0.166-5.438-0.31-7.804-0.489V321.111c-21.536-7.796-35.948-28.266-35.948-51.207
			c0-29.628,24.109-54.479,54.479-54.479c11.87,0,23.169,3.777,32.683,10.929c13.845,10.434,21.778,26.311,21.778,43.55
			c0,22.932-14.407,43.402-35.947,51.207v173.032l-1.089,0.084c-2.229,0.171-4.465,0.301-6.716,0.407
			C273.326,494.982,266.672,494.982,259.279,494.633z M259.736,240.911c-8.782,3.118-15.612,9.948-18.733,18.728
			c-2.414,6.808-2.414,13.711,0,20.523c3.125,8.801,9.952,15.623,18.73,18.73c6.782,2.41,13.8,2.388,20.527,0.004
			c15.651-5.573,24.566-22.816,18.731-39.258c-3.122-8.785-9.944-15.612-18.731-18.728
			C273.63,238.547,266.561,238.479,259.736,240.911z"/>
	</g>
	<g>
		<g>
			<path fill="#1B75BB" d="M364.738,336.809l0.217-0.308c11.658-16.563,18.783-35.944,20.596-56.049
				c0.671-7.298,0.671-13.805,0-21.103c-5.042-55.773-49.205-99.936-105.001-105.003l-1.079-0.098V87.786l1.254,0.071
				c48.171,2.802,92.556,24.235,124.995,60.353c32.723,36.442,49.17,83.467,46.324,132.414
				c-1.537,26.348-8.604,51.497-20.991,74.761v35.162c28.213-37.584,42.393-84.049,39.986-131.248
				c-5.444-103.19-87.32-185.061-190.448-190.441l-1.119-0.057V45.104l1.243,0.059C401.097,50.816,495,151.576,495,269.901
				c0,33.434-7.213,65.655-21.431,95.763c-14.801,31.32-37.033,59.268-64.292,80.809l-1.914,1.517v-98.717
				c15.388-26.535,23.09-57.503,20.956-89.957c-4.666-70.607-56.053-129.872-125.159-144.616v19.484
				c58.894,14.381,101.495,64.483,106.124,124.966c0.467,6.255,0.454,9.458,0.454,11.933h-0.016
				c-0.033,2.922-0.169,5.992-0.438,9.563c-1.714,22.385-8.92,44.263-20.86,63.303v117.181c-6.982,4.313-14.007,8.226-21.992,12.032
				l-1.693,0.799V336.809L364.738,336.809z"/>
		</g>
		<g>
			<path fill="#1B75BB" d="M173.57,473.162c-7.307-3.485-14.516-7.415-21.432-11.681l-0.559-0.35V343.951
				c-11.936-19.03-19.151-40.908-20.866-63.302c-0.599-7.929-0.599-13.549,0-21.496c4.626-60.479,47.224-110.582,106.119-124.966
				v-19.48c-72.823,15.536-125.519,80.569-125.519,155.2c0,27.816,7.338,55.264,21.314,79.366v98.715l-1.913-1.51
				c-62.371-49.293-94.985-128.021-83.408-208.723C62.613,131.231,151.763,50.234,259.281,45.167l1.24-0.059v23.696l-1.12,0.056
				c-94.209,4.922-173.362,76.095-188.197,169.249c-8.563,53.691,5.184,109.047,37.743,152.442V355.38
				C95,329.215,87.634,299.667,87.634,269.907c0-96.482,75.39-176.449,171.636-182.045l1.251-0.072v66.463l-1.077,0.097
				c-55.792,5.068-99.951,49.225-104.997,105.004c-0.669,7.303-0.669,13.812,0,21.099c1.822,20.107,8.938,39.488,20.597,56.052
				l0.213,0.308v137.154L173.57,473.162z"/>
		</g>
	</g>
	<g>
		<path fill="#1B75BB" d="M322.107,321.556l0.336-0.338c13.522-13.828,20.978-32.051,20.978-51.312
			c0-40.488-32.93-73.422-73.422-73.422c-28.144,0-54.176,16.466-66.322,41.948c-13.148,27.6-7.571,60.867,13.879,82.789
			l0.336,0.345v167.229l-1.46-0.363c-7.242-1.768-14.45-3.927-21.431-6.401l-0.788-0.283V330.514
			c-13.736-17.141-21.304-38.636-21.317-60.58c0-53.681,43.321-97.123,97.201-97.123c53.486,0,97.005,43.557,97.005,97.097
			c0,21.948-7.564,43.455-21.314,60.609V481.75l-0.787,0.282c-6.981,2.475-14.19,4.635-21.433,6.403l-1.457,0.362V321.556H322.107z"
			/>
	</g>
</g>
</svg>
