<?xml version="1.0" encoding="utf-8"?>
<!-- Generator: Adobe Illustrator 15.0.0, SVG Export Plug-In . SVG Version: 6.00 Build 0)  -->
<!DOCTYPE svg PUBLIC "-//W3C//DTD SVG 1.1//EN" "http://www.w3.org/Graphics/SVG/1.1/DTD/svg11.dtd">
<svg version="1.1" id="Layer_1" xmlns="http://www.w3.org/2000/svg" xmlns:xlink="http://www.w3.org/1999/xlink" x="0px" y="0px"
	 width="314.275px" height="337.352px" viewBox="0 0 314.275 337.352" enable-background="new 0 0 314.275 337.352"
	 xml:space="preserve">
<g>
	<path fill="#95C5C1" d="M97.385,113.509c7.319,10.455,11.082,25.018,9.672,41.737c-1.207,17.001-7.646,33.344-17.177,46.251
		c11.503-10.777,26.177-17.672,42.323-18.614c16.664-0.951,32.046,4.651,44.169,14.887c-9.703-12.743-15.018-28.877-14.143-46.396
		c1.021-17.235,8.043-33.231,18.787-45.899c-12.807,10.517-28.614,17.602-44.865,18.932
		C120.379,125.86,106.966,121.552,97.385,113.509z"/>
	<g>
		<path fill="#3CA7A0" d="M92.968,109.547c-1.055-1.496-2.246-2.75-3.246-4.226c-8.718-7.257-20.108-10.2-32.764-7.636
			c-26.52,6.224-50.925,38.05-56.376,71.635c-4.101,35.576,13.832,63.191,42.146,61.537c13.41-0.675,26.532-7.324,37.442-18.015
			c1.388-2.008,2.791-3.723,4.355-5.646c-10.192-12.406-15.575-29.305-13.942-48.313C72.589,140.105,80.874,122.882,92.968,109.547z
			"/>
		<path fill="#3CA7A0" d="M187.208,99.959c12.068,11.827,19.264,29.174,18.375,49.277c-0.787,20.55-9.67,39.705-23.453,54.026
			c1.701,1.668,3.238,3.591,4.754,5.472c12.709,10.512,29.291,16.858,47.775,16.61c43.537-0.407,79.375-35.88,79.615-78.369
			c0.24-40.738-33.641-71.627-75.061-70.188c-17.637,0.938-33.881,7.498-47.023,17.885
			C190.648,96.479,188.863,98.332,187.208,99.959z"/>
	</g>
	<g>
		<path fill="#D8E0E2" d="M93.553,108.899c12.481-13.088,28.887-22.24,46.674-24.473c18.324-1.951,34.617,3.921,46.382,15.134
			c1.854-1.757,3.775-3.433,5.582-4.886c10.842-12.33,17.945-27.307,19.229-42.702c3.102-33.323-23.549-54.439-58.27-49.071
			C120.917,9.372,90.296,38.139,83.464,68.76c-2.633,14.128-0.172,26.796,6.258,36.562
			C91.108,106.355,92.335,107.623,93.553,108.899z"/>
		<path fill="#D8E0E2" d="M181.618,203.744c-13.658,14.107-31.818,23.033-51.123,23.646c-18.65,0.578-34.633-7.154-45.563-19.539
			c-1.512,1.668-3.104,3.336-4.765,4.99c-9.077,12.998-14.639,29.132-15.045,46.657c-0.056,40.819,28.456,74.521,65.343,75.771
			c39.365,0.8,72.468-33.818,72.517-77.555c0.199-18.829-5.898-35.858-16.102-48.981
			C185.017,207.21,183.253,205.551,181.618,203.744z"/>
	</g>
</g>
</svg>
