<?xml version="1.0" encoding="utf-8"?>
<!-- Generator: Adobe Illustrator 16.0.0, SVG Export Plug-In . SVG Version: 6.00 Build 0)  -->
<!DOCTYPE svg PUBLIC "-//W3C//DTD SVG 1.1//EN" "http://www.w3.org/Graphics/SVG/1.1/DTD/svg11.dtd">
<svg version="1.1" id="Layer_1" xmlns="http://www.w3.org/2000/svg" xmlns:xlink="http://www.w3.org/1999/xlink" x="0px" y="0px"
	 width="540px" height="540px" viewBox="0 0 540 540" enable-background="new 0 0 540 540" xml:space="preserve">
<g>
	<path fill="#DBDBDB" d="M270,416.338c56.159,0,101.704,5.386,101.704,12.02c0,6.64-45.545,12.021-101.704,12.021
		s-101.704-5.386-101.704-12.021S213.841,416.338,270,416.338z"/>
	<g>
		<polygon fill="#C52230" points="270,99.622 448.219,319.357 388.994,319.357 270,172.646 151.008,319.357 91.782,319.357 		"/>
		<polygon fill="#4C4C4C" points="210.844,284.791 270.003,211.858 329.157,284.791 		"/>
		<polygon fill="#F16224" points="195.661,303.511 210.844,284.791 329.157,284.791 344.34,303.517 269.999,395.168 		"/>
		<path fill="#FFFFFF" d="M495,316.062c-38.921-25.384-125.042-43.038-225.005-43.038c-99.964,0-186.075,17.651-224.995,43.036
			c64.412-7.774,141.775-12.313,224.995-12.313C353.216,303.747,430.59,308.285,495,316.062z"/>
		<path fill="#F16224" d="M495,330.942c-38.921-25.383-125.042-43.037-225.005-43.037c-99.964,0-186.075,17.651-224.995,43.037
			c64.412-7.777,141.775-12.312,224.995-12.312C353.216,318.631,430.59,323.168,495,330.942z"/>
	</g>
</g>
</svg>
