<?xml version="1.0" encoding="utf-8"?>
<!-- Generator: Adobe Illustrator 16.0.0, SVG Export Plug-In . SVG Version: 6.00 Build 0)  -->
<!DOCTYPE svg PUBLIC "-//W3C//DTD SVG 1.1//EN" "http://www.w3.org/Graphics/SVG/1.1/DTD/svg11.dtd">
<svg version="1.1" id="Layer_1" xmlns="http://www.w3.org/2000/svg" xmlns:xlink="http://www.w3.org/1999/xlink" x="0px" y="0px"
	 width="540px" height="540px" viewBox="0 0 540 540" enable-background="new 0 0 540 540" xml:space="preserve">
<polygon fill="#B9DD84" points="269.905,265.027 269.929,265.119 270.095,265.034 "/>
<polygon fill="#B9DD84" points="269.911,265.113 269.966,265.125 270.089,265.021 "/>
<polygon fill="#B9DD84" points="270.229,265.057 270.196,264.877 269.771,265.27 "/>
<polygon fill="#B9DD84" points="269.828,264.882 270.067,265.266 270.172,265.01 "/>
<line fill="none" x1="270.396" y1="265.572" x2="269.604" y2="264.575"/>
<line fill="none" x1="270.194" y1="265.115" x2="269.806" y2="265.031"/>
<line fill="none" x1="270.09" y1="264.795" x2="269.91" y2="265.352"/>
<polygon fill="#B9DD84" points="270.278,265.051 270.247,264.959 269.722,265.188 "/>
<g>
	<path fill="#B9DD84" d="M436.169,287.996l-0.004-0.329c-0.064-0.005-0.059-0.096-0.128-0.064L436.169,287.996z"/>
	<line fill="none" x1="435.201" y1="285.72" x2="435.674" y2="285.519"/>
	<polygon fill="#B9DD84" points="278.689,276.135 278.65,275.915 278.126,276.394 	"/>
	<line fill="none" x1="278.321" y1="259.062" x2="279.311" y2="258.459"/>
	<polygon fill="#B9DD84" points="278.781,274.425 279.074,274.891 279.202,274.579 	"/>
	<line fill="none" x1="279.942" y1="278.479" x2="278.975" y2="277.264"/>
	<line fill="none" x1="279.488" y1="282.418" x2="279.012" y2="282.314"/>
	<line fill="none" x1="280.311" y1="282.498" x2="280.09" y2="283.177"/>
	<polygon fill="#B9DD84" points="314.42,284.262 314.382,284.147 313.743,284.428 	"/>
	<path fill="#B9DD84" d="M353.336,120.585c0.063,0.112-0.079,0.105-0.106,0.175l0.611-0.076L353.336,120.585z"/>
	<line fill="none" x1="362.29" y1="96.138" x2="362.682" y2="96.858"/>
	<path fill="#B9DD84" d="M333.835,136.738l3.282,1.388l0.084,0.255c0.195,0.101,0.411,0.018,0.632,0.041l0.992,0.42l1.333-1.046
		c0.278-0.183,0.518-0.372,0.762-0.599l3.307-2.599l0.431-1.198c0.249-0.656,0.574-1.36,0.839-2.03l0.128,0.417l0.559-0.431
		l-0.035-0.555l0.394,0.181l0.841-2.143l-0.523,0.148l0.48-1.406l0.56,0.282l-0.025-0.428l0.588,0.49
		c-0.808-0.574,0.23-1.402,0.178-1.671l0.093,0.124c0.586-0.581-0.429-0.04-0.245-0.514l1.242-0.101l1.156-2.7l0.156-2.18
		l0.624-0.354c0.483,0.381,1.412,0.021,1.284,0.901c-0.367-0.48,0.126-0.486,0.29-0.69l-0.615,0.059
		c-0.731,0.104,0.415-1.094-0.523-0.883l1.182-2.573l0.645,0.436l0.235-2.089l-0.953-0.207l-0.038-0.568l1.492-0.209
		c0.636,0.483-0.566,1.074,0.285,1.092l-0.509,1.863c0.375,0.865,0.273-0.433,0.83-0.043l0.229-1.811l-0.558-0.371
		c-0.332-1.015,0.839-0.725,0.952-0.879l0.021,0.426l0.301-1.235c0.891,0.206-0.23,0.854,0.178,1.273l0.758-0.128l-0.029-1.221
		l0.265,0.222l0.025-0.594l-0.938,0.24c-0.684-0.618,0.069-0.45,0.179-1.209l-0.532,0.137l-0.188-0.967l1.021-0.188l-0.331,0.447
		c0.181,0.903,1.066,0.1,1.195,0.717l-0.045-1.226l-0.688,0.029c-0.823-1.438,1.151-0.212,1.319-1.197
		c-0.856-0.146-0.605-1.643-1.757-1.366l0.062-0.797l0.933,0.409l0.139-0.324l0.439,0.749l1.459-0.749l-0.481-0.661l0.673-0.178
		c-0.418,0.389-0.761-0.293-0.779-0.665l0.969-0.54l0.276,0.647l0.239-0.501l-0.94-0.891l0.446-0.557l0.127,0.611l0.952-0.55
		l-0.353-0.332l0.438,0.093l-0.076-0.772l0.293,0.063c-0.07-0.342-0.551-0.929,0.135-1.046l-0.637,0.681l-0.303-0.768
		c0.712,0.31,0.36-0.681,0.518-1.002l0.717-0.28l-0.418-0.318c0.976,0.229,0.101-0.713,0.474-1.02l0.838,0.186l-1.2-0.983
		c0.434-0.636,0.847,0.486,1.388,0.441l-0.063-1.16l-0.702-0.455l0.648-0.16l-0.789-0.486l0.229-1.257l-0.519-0.959l-0.993-0.657
		c0.006-0.068,0.039-0.121,0.044-0.185c0.084,0.165,0.18,0.482,0.585,0.372l0.017-0.381c0.907-0.292,0.982,1.463,1.748,1.161
		l-0.151-0.479l0.827,0.3l-0.024-1.111l-0.278,0.212l-0.255-1.446l0.874,0.251l-0.13-0.636l0.248,0.12
		c0.543-1.713,1.058-3.901,0.308-5.592l1.282-1.52l-0.482-0.304l0.636-0.317l-0.078-1.705l0.444-0.063l-0.277-0.698l0.47-0.231
		l-0.374-0.111c-0.102-0.483-0.125-1.111,0.514-0.97l-0.413-0.18l-0.007-2.605l-0.701,0.351l-0.289-0.528l0.678,0.047
		c0.786-1.11,0.002-2.733,0.085-4.156l-0.415-0.309l0.062-2.997l-1.113-0.473c-0.583-0.499,0.737-0.351,1.035-0.926l-0.355-0.92
		l0.096-0.01l-0.298-1.168l0.064,0.063l0.271-1.092l-0.747-0.982l0.173-0.123l-0.415,0.088l0.193-0.724l0.474,0.233
		c0.237-0.782-0.399-0.129-0.641-0.421c-3.108-2.687-1.154-0.961-1.973-1.821c0.988,0.461-1.392-1.354,2.217,1.536
		c2.207,1.49-2.365-2.14-2.011-1.879l-0.506,0.368l-0.883-0.433l-0.739,0.367l0.685,0.551l-0.667-0.061l-0.354,0.271l-0.42-0.623
		l-1.034,0.359l-0.347-1.146l-0.615,0.449l-0.332-0.371l-1.999,0.786l-0.126-0.393l-0.369,0.231
		c-0.688-1.28-2.486-0.449-3.658-1.089l-0.821,0.4c0.108-0.71-0.688,0.091-0.992-0.36l0.121,0.713
		c-0.719-0.456-1.273,0.995-1.688,0.124l0.375-0.605c-0.546-1.275-4.678,3.486-3.468,2.309l0.809,0.7l-1.146,0.771l-0.181,0.785
		l-0.168-0.41l-0.163,1.596l-1.238,1.656c0.488,0.592-0.62,0.911,0.173,1.27l-0.281,0.002l0.528,1.014l-0.483-0.293l-0.803,0.735
		l0.248,0.503l0.07,0.415l0.06,0.866l-0.552-0.205l-0.303,1.003c-0.054,0.021-0.101,0.069-0.121,0.24l-0.417,0.479l-0.385-0.253
		l0.321,1.115c-0.797,0.904-1.046,2.847-1,3.378l-0.084-0.254l-0.109,0.775l-0.589,0.652l0.375,0.072
		c-0.954,0.591-0.302,2.044-1.105,2.88l-0.251-0.556l0.078,2.545l-0.385-0.409l-0.021,1.274c0.377-0.012,0.503,0.547,0.316,0.828
		l-0.101-0.025l-0.158,1.149l-0.316-0.287l-0.975,1.111l0.318,0.439l-0.522,0.331l0.766,1.486l-0.04,0.108l-0.712-0.305l0.326,1.32
		L335.8,94.81l-0.734-0.52l-0.946,2.146c0.84-0.162,0.297,0.759,0.658,1.116l-0.08,0.207l-0.813,0.374l-0.737,2.403l-0.126-0.073
		l-0.278,2.557l-0.05,0.122l-0.295-0.25l0.063,0.845l-0.076,0.192l-0.161-0.198l-0.387,1.685v0.015l-0.273-0.326l-0.066,1.195
		l-0.179,0.5l-0.333-0.28l-0.018,1.196l-0.021,0.044l-0.433,0.188l-0.045,1.113l-0.147,0.396l-0.608,0.309l-2.262,7.375
		l-0.382,1.043c-0.647,0.058-0.191-0.753-0.717-0.64l-0.128,1.421l-0.104-0.003l-0.412,0.914l0.153,0.034
		c0.246,0.544-1.067,0.618-0.405,1.117l-0.536,0.152l-0.084,1.247l-0.094-0.1c-0.528,0.555,0.208,1.637-0.394,1.7l0.143,1.024
		l-0.159,0.459l-0.397-0.172c-0.459,1.507-0.994,3.542-1.367,4.885l-0.563,1.514l10.261,4.335
		C332.775,136.379,333.287,136.512,333.835,136.738z M345.073,131.939l-0.954-0.111L345.073,131.939z"/>
	<line fill="none" x1="344.116" y1="131.831" x2="345.073" y2="131.939"/>
	<polygon fill="#B9DD84" points="352.46,121.204 352.22,121.329 352.409,121.647 	"/>
	<line fill="none" x1="353.681" y1="118.429" x2="353.722" y2="119.708"/>
	<line fill="none" x1="356.201" y1="116.368" x2="355.963" y2="116.075"/>
	<line fill="none" x1="355.942" y1="115.279" x2="355.438" y2="115.611"/>
	<line fill="none" x1="359.121" y1="109.161" x2="358.83" y2="109.752"/>
	<polygon fill="#B9DD84" points="359.991,106.76 359.734,106.469 359.623,106.717 	"/>
	<polygon fill="#B9DD84" points="334.016,97.439 333.984,97.528 334.561,97.667 	"/>
	<polygon fill="#B9DD84" points="209.346,434.62 209.345,434.635 209.729,435.34 	"/>
	<polygon fill="#B9DD84" points="207.559,401.492 207.591,401.492 207.738,401.378 	"/>
	<polygon fill="#B9DD84" points="202.365,400.711 202.385,400.813 202.552,400.721 	"/>
	<polygon fill="#B9DD84" points="202.029,400.699 202.365,400.711 202.246,400.413 	"/>
	<path fill="#B9DD84" d="M200.399,459.069c0.046,0.112-0.082,0.104-0.116,0.176l0.62-0.077L200.399,459.069z"/>
	<path fill="#B9DD84" d="M213.338,419.496l-0.004-2.607l-0.718,0.36l-0.292-0.541l0.669,0.052c0.804-1.099,0-2.719,0.088-4.146
		l-0.395-0.309l0.025-2.998l-1.081-0.484c-0.582-0.481,0.734-0.332,1.018-0.924l-0.354-0.918l0.091,0.002l-0.279-1.184l0.031,0.049
		l0.263-1.068l-0.718-0.983l0.19-0.124l-0.407,0.08l0.182-0.704l0.48,0.218c0.255-0.775-0.385-0.117-0.638-0.416
		c-3.127-2.654-1.172-0.949-1.976-1.806c1,0.445-1.413-1.346,2.22,1.513c2.222,1.484-2.368-2.113-2.031-1.861l-0.489,0.378
		l-0.882-0.433l-0.759,0.367l0.705,0.542l-0.688-0.061l-0.358,0.276l-0.398-0.64l-1.025,0.366l-0.341-1.159l-0.621,0.452
		l-0.326-0.365l-1.986,0.79l-0.145-0.396l-0.39,0.229c-0.687-1.275-2.468-0.443-3.675-1.104l-0.805,0.412
		c0.127-0.709-0.689,0.088-1.001-0.369l0.137,0.722c-0.703-0.458-1.25,0.993-1.673,0.128l0.375-0.613
		c-0.563-1.268-4.664,3.523-3.463,2.318l0.809,0.695l-1.149,0.783l-0.153,0.777l-0.16-0.389l-0.19,1.595l-1.237,1.663
		c0.499,0.575-0.613,0.902,0.184,1.25l-0.278,0.02l0.521,0.996l-0.485-0.285l-0.814,0.738l0.268,0.506l0.037,0.412l0.062,0.868
		l-0.547-0.212l-0.306,1.016c-0.032,0.023-0.099,0.063-0.118,0.229l-0.397,0.48l-0.385-0.242l0.303,1.104
		c-0.776,0.892-1.046,2.849-0.987,3.37l-0.074-0.255l-0.109,0.786l-0.61,0.654l0.391,0.063c-0.971,0.593-0.298,2.039-1.128,2.876
		l-0.243-0.555l0.088,2.553l-0.391-0.396l-0.022,1.25c0.395-0.021,0.518,0.557,0.329,0.84l-0.094-0.029l-0.176,1.158l-0.304-0.301
		l-0.977,1.113l0.313,0.438l-0.527,0.334l0.75,1.479l-0.029,0.109l-0.723-0.306l0.339,1.323l-0.846,2.247l-0.733-0.52l-0.941,2.146
		c0.823-0.161,0.282,0.751,0.643,1.109l-0.072,0.205l-0.819,0.383l-0.729,2.405l-0.126-0.078l-0.296,2.563l-0.048,0.127
		l-0.291-0.266l0.076,0.855l-0.075,0.19l-0.177-0.22l-0.388,1.71v0.005l-0.271-0.323l-0.048,1.196l-0.2,0.504l-0.316-0.284
		l-0.029,1.201l-0.021,0.024l-0.434,0.203l-0.044,1.104l-0.145,0.398l-0.606,0.306l-2.265,7.383l-0.389,1.043
		c-0.647,0.06-0.169-0.755-0.714-0.642l-0.126,1.423l-0.097,0.003l-0.416,0.913l0.158,0.024c0.228,0.549-1.082,0.637-0.426,1.107
		l-0.546,0.171l-0.083,1.237l-0.089-0.102c-0.535,0.565,0.217,1.639-0.398,1.703l0.157,1.021l-0.176,0.455l-0.396-0.174
		c-0.44,1.477-0.961,3.435-1.319,4.799l-0.606,1.604l10.271,4.333c0.56,0.313,1.055,0.434,1.614,0.67l3.283,1.379l0.087,0.256
		c0.191,0.104,0.409,0.008,0.627,0.056l0.993,0.409l1.354-1.047c0.254-0.187,0.489-0.363,0.729-0.584l3.306-2.603l0.442-1.214
		c0.241-0.657,0.564-1.354,0.837-2.012l0.113,0.42l0.57-0.438l-0.057-0.557l0.401,0.178l0.839-2.132l-0.519,0.162l0.502-1.403
		l0.536,0.282l0.011-0.439l0.576,0.51c-0.81-0.586,0.229-1.416,0.177-1.678l0.092,0.118c0.591-0.584-0.439-0.028-0.245-0.524
		l1.248-0.084l1.147-2.703l0.148-2.17l0.636-0.363c0.484,0.384,1.385,0.025,1.287,0.914c-0.372-0.484,0.114-0.486,0.28-0.691
		l-0.609,0.069c-0.737,0.091,0.419-1.101-0.525-0.882l1.184-2.582l0.62,0.439l0.266-2.084l-0.951-0.221l-0.042-0.564l1.498-0.207
		c0.636,0.485-0.568,1.067,0.281,1.094l-0.499,1.855c0.37,0.871,0.271-0.433,0.818-0.05l0.231-1.808l-0.56-0.365
		c-0.334-1.018,0.837-0.723,0.95-0.88l0.015,0.424l0.305-1.235c0.873,0.207-0.233,0.869,0.187,1.258l0.74-0.116l-0.028-1.228
		l0.261,0.229l0.024-0.593l-0.938,0.234c-0.669-0.621,0.063-0.449,0.188-1.201l-0.545,0.127l-0.175-0.979l1.019-0.177l-0.34,0.438
		c0.168,0.914,1.072,0.104,1.188,0.726l-0.026-1.236l-0.701,0.031c-0.84-1.443,1.166-0.221,1.325-1.194
		c-0.858-0.14-0.606-1.649-1.75-1.362l0.063-0.804l0.926,0.415l0.146-0.324l0.422,0.743l1.484-0.747l-0.48-0.658l0.669-0.182
		c-0.407,0.389-0.755-0.305-0.774-0.674l0.969-0.539l0.271,0.654l0.244-0.5l-0.938-0.892l0.441-0.558l0.137,0.607l0.949-0.535
		l-0.352-0.336l0.437,0.084l-0.072-0.771l0.296,0.066c-0.083-0.338-0.563-0.922,0.134-1.045l-0.643,0.672l-0.298-0.764
		c0.714,0.307,0.355-0.688,0.519-1.006l0.719-0.279l-0.43-0.305c0.985,0.219,0.125-0.718,0.482-1.037l0.832,0.195l-1.203-0.995
		c0.432-0.632,0.83,0.479,1.38,0.449l-0.063-1.162l-0.723-0.45l0.669-0.165l-0.798-0.487l0.243-1.246l-0.515-0.948l-1.001-0.669
		c0.002-0.066,0.037-0.129,0.055-0.199c0.077,0.175,0.174,0.495,0.567,0.377l0.02-0.381c0.908-0.28,0.983,1.451,1.75,1.15
		l-0.172-0.484l0.822,0.311l-0.006-1.104l-0.274,0.214l-0.271-1.451l0.871,0.26l-0.134-0.642l0.263,0.125
		c0.527-1.702,1.064-3.894,0.313-5.589l1.266-1.526l-0.495-0.291l0.657-0.319l-0.103-1.701l0.438-0.076l-0.272-0.691l0.467-0.234
		l-0.355-0.121c-0.109-0.469-0.145-1.088,0.496-0.973L213.338,419.496z M191.177,470.311l0.952,0.121L191.177,470.311z"/>
	<path fill="#B9DD84" d="M184.746,425.171l-0.002-0.286c-0.024,0.012-0.023-0.074-0.086-0.05L184.746,425.171z"/>
	<line fill="none" x1="192.139" y1="470.424" x2="191.177" y2="470.311"/>
	<polygon fill="#B9DD84" points="199.474,460.135 199.524,459.689 199.284,459.816 	"/>
	<line fill="none" x1="200.734" y1="456.918" x2="200.782" y2="458.199"/>
	<line fill="none" x1="203.27" y1="454.854" x2="203.006" y2="454.559"/>
	<line fill="none" x1="203" y1="453.76" x2="202.497" y2="454.096"/>
	<line fill="none" x1="206.176" y1="447.65" x2="205.869" y2="448.237"/>
	<polygon fill="#B9DD84" points="207.051,445.246 206.78,444.96 206.688,445.203 	"/>
	<polygon fill="#B9DD84" points="195.974,400.155 196.247,400.305 196.309,400.031 	"/>
	<line fill="none" x1="183.959" y1="423.305" x2="184.364" y2="423.141"/>
	<polygon fill="#B9DD84" points="181.041,436.034 181.602,436.176 181.062,435.945 	"/>
	<path fill="#B9DD84" d="M381.742,174.236l2.468,2.588l-0.026,0.277c0.146,0.171,0.381,0.18,0.548,0.297l0.738,0.78l1.645-0.403
		c0.312-0.075,0.609-0.135,0.95-0.244l4.074-1.03l0.861-0.924c0.484-0.506,1.063-1.014,1.592-1.505l-0.069,0.429l0.688-0.179
		l0.179-0.521l0.295,0.32l1.649-1.604l-0.567-0.082l1.042-1.095l0.372,0.481l0.18-0.394l0.345,0.69
		c-0.534-0.859,0.753-1.198,0.816-1.466l0.023,0.146c0.776-0.287-0.364-0.206,0.014-0.566l1.159,0.429l2.165-2.011l0.989-1.93
		l0.738-0.084l0.787,1.363l0.586-0.521l-0.613-0.198c-0.724-0.208,0.821-0.832-0.123-1.018l2.122-1.865l0.395,0.647l1.076-1.821
		l-0.788-0.578l0.195-0.532l1.445,0.411c0.382,0.722-0.949,0.757-0.18,1.113c0.18,0.675-0.736,1.587-1.193,1.508
		c-0.027,0.938,0.404-0.293,0.748,0.287l0.938-1.564l-0.357-0.568c0.107-1.055,1.056-0.308,1.217-0.431l-0.147,0.406l0.791-1.01
		c0.713,0.561-0.581,0.688-0.345,1.229l0.72,0.194l0.484-1.136l0.142,0.313l0.238-0.536l-0.942-0.158
		c-0.356-0.84,0.242-0.392,0.683-1.024l-0.544-0.094l0.211-0.971l1.01,0.257l-0.483,0.271c-0.197,0.888,0.95,0.519,0.801,1.126
		l0.484-1.127c-0.29,0.595-0.392-0.21-0.669-0.256c-0.179-1.665,1.146,0.266,1.695-0.565c-0.737-0.484,0.122-1.751-1.05-1.95
		l0.392-0.7l0.658,0.736l0.278-0.229l0.096,0.868l1.652-0.109l-0.19-0.799l0.688,0.103c-0.542,0.197-0.572-0.578-0.437-0.905
		l1.106-0.104l-0.025,0.69l0.433-0.352l-0.509-1.214l0.639-0.313l-0.135,0.611l1.095-0.127l-0.176-0.45l0.365,0.261l0.235-0.726
		l0.24,0.17c0.078-0.333-0.127-1.063,0.563-0.899l-0.889,0.365l0.057-0.824c0.523,0.558,0.604-0.479,0.884-0.713l0.771,0.029
		l-0.269-0.444c0.816,0.585,0.382-0.622,0.853-0.741l0.675,0.505l-0.702-1.394c0.648-0.406,0.589,0.779,1.1,0.959l0.406-1.086
		l-0.462-0.687l0.651,0.108l-0.497-0.761l0.704-1.043l-0.079-1.099l-0.642-1.005c0.03-0.059,0.082-0.098,0.13-0.149
		c-0.006,0.182-0.058,0.509,0.373,0.578l0.146-0.352c0.973,0.106,0.331,1.738,1.145,1.771l0.062-0.501l0.62,0.597l0.444-1.001
		l-0.361,0.055l0.355-1.415l0.716,0.59l0.125-0.654l0.194,0.224c1.18-1.337,2.534-3.142,2.537-4.993l1.768-0.883l-0.333-0.47
		l0.734-0.026l0.594-1.594l0.438,0.114l0.026-0.742l0.521-0.035l-0.28-0.258l0.847-0.678l-0.295-0.33l1.044-2.389l-0.793,0.055
		l-0.053-0.615l0.603,0.319c1.159-0.703,1.096-2.493,1.739-3.767l-0.25-0.454l1.268-2.715l-0.819-0.875
		c-0.324-0.688,0.813-0.03,1.307-0.438l0.063-0.992l0.076,0.044l0.199-1.19l0.026,0.066l0.688-0.896l-0.267-1.177l0.228-0.038
		l-0.413-0.088l0.451-0.583l0.349,0.407c0.54-0.618-0.303-0.272-0.417-0.637c0.175-0.088-1.846-3.551-1.063-2.472
		c0.722,0.817-0.735-1.813,1.4,2.294c1.422,2.259-1.299-2.906-1.077-2.542l-0.621,0.148l-0.618-0.747l-0.84,0.025l0.411,0.78
		l-0.604-0.322l-0.43,0.109l-0.132-0.756l-1.059-0.076l0.138-1.196l-0.748,0.171l-0.144-0.475c-0.838-0.725-1.6,0.681-2.152-0.078
		l0.038-0.424l-0.463,0.055c-0.077-1.439-2.072-1.411-2.889-2.474l-0.916,0.05l-0.775-0.744l-0.127,0.716
		c-0.479-0.699-1.587,0.401-1.604-0.568l0.568-0.416c0.024-1.378-5.687,1.239-4.115,0.676l0.464,0.972l-1.361,0.25l-0.474,0.635
		l0.014-0.426l-0.796,1.386l-1.801,1.019c0.229,0.744-0.94,0.589-0.361,1.225l-0.245-0.098l0.061,1.132l-0.328-0.462l-1.045,0.354
		l0.023,0.568l-0.106,0.389l-0.304,0.816l-0.428-0.402l-0.685,0.809c-0.049,0.002-0.106,0.015-0.212,0.151l-0.572,0.269l-0.242-0.38
		l-0.16,1.146l-2.265,2.694l0.023-0.278l-0.4,0.671l-0.823,0.349l0.32,0.214l-2.162,2.197l-0.008-0.604l-0.96,2.362l-0.178-0.53
		l-0.605,1.306l0.031,0.723l-0.076-0.063l-0.615,0.993l-0.176-0.383l-1.349,0.606l0.115,0.536l-0.615,0.099l0.087,1.659
		l-0.078,0.086l-0.521-0.56l-0.243,1.335l-1.677,1.729l-0.455-0.76l-1.737,1.571c0.846,0.188-0.05,0.802,0.152,1.285l-0.229,0.242
		c-0.322,0.179-0.541-0.165-0.837-0.071l-1.627,1.91l-0.072-0.124l-1.317,2.232l-0.102,0.092l-0.143-0.354
		c-0.483,0.247-0.279,0.487-0.207,0.721l-0.229,0.236l-0.077-0.278l-1.04,1.411l-0.104-0.397l-0.522,1.059l-0.392,0.392
		l-0.178-0.388l-0.506,1.066l-0.047,0.05l-0.479,0.002l-0.511,1.016l-0.27,0.273l-0.689,0.044l-5.232,6.047l-0.576,0.588
		l-0.402-0.872c0.471,0.413-0.203,0.477-0.683,1.247l-0.094-0.035l-0.736,0.661l0.12,0.102c-0.014,0.588-1.246,0.133-0.838,0.848
		l-0.548-0.068l-0.578,1.11l-0.047-0.126l-1.053,1.387l-0.296,0.998l-0.321,0.353l-0.303-0.33c-1.063,1.237-2.42,2.951-3.3,4.046
		l-1.046,1.068l7.611,8.08C380.917,173.483,381.322,173.793,381.742,174.236z M393.98,174.405l-0.841-0.489L393.98,174.405z"/>
	<polygon fill="#B9DD84" points="424.182,148.601 424.18,148.616 424.244,149.409 	"/>
	<polygon fill="#B9DD84" points="431.495,114.748 431.493,114.85 431.651,114.823 	"/>
	<polygon fill="#B9DD84" points="406.113,167.346 405.974,167.463 406.544,167.64 	"/>
	<polygon fill="#B9DD84" points="431.205,114.608 431.495,114.748 431.521,114.434 	"/>
	<polygon fill="#B9DD84" points="405.525,129.98 405.557,129.873 405.551,129.623 	"/>
	<line fill="none" x1="393.141" y1="173.916" x2="393.98" y2="174.405"/>
	<polygon fill="#B9DD84" points="405.079,167.571 404.788,167.581 404.857,167.956 	"/>
	<line fill="none" x1="407.297" y1="165.514" x2="406.816" y2="166.705"/>
	<line fill="none" x1="410.46" y1="164.655" x2="410.336" y2="164.28"/>
	<line fill="none" x1="410.646" y1="163.544" x2="410.038" y2="163.646"/>
	<line fill="none" x1="416.023" y1="159.238" x2="415.505" y2="159.646"/>
	<polygon fill="#B9DD84" points="417.805,157.396 417.671,157.03 417.481,157.209 	"/>
	<polygon fill="#B9DD84" points="426.239,111.688 425.896,111.656 426.066,111.911 	"/>
	<line fill="none" x1="405.566" y1="127.945" x2="405.965" y2="127.949"/>
	<polygon fill="#B9DD84" points="397.806,138.346 397.746,138.43 398.196,138.769 	"/>
	<polygon fill="#B9DD84" points="129.012,378.048 129.064,377.951 129.044,377.691 	"/>
	<polygon fill="#B9DD84" points="154.695,362.646 154.988,362.784 155.017,362.477 	"/>
	<polygon fill="#B9DD84" points="147.702,396.623 147.702,396.635 147.75,397.428 	"/>
	<polygon fill="#B9DD84" points="129.635,415.385 129.502,415.498 130.064,415.666 	"/>
	<polygon fill="#B9DD84" points="154.988,362.784 154.983,362.896 155.142,362.859 	"/>
	<path fill="#B9DD84" d="M161.412,365.977c0.732,0.818-0.776-1.803,1.449,2.278c0.404,0.483-0.688-1.653-1.154-2.521l-0.585,0.142
		l-0.614-0.741l-0.837,0.026l0.393,0.782l-0.567-0.316l-0.448,0.094l-0.125-0.738l-1.085-0.077l0.144-1.198l-0.733,0.167
		l-0.152-0.473c-0.833-0.735-1.587,0.677-2.137-0.083l0.03-0.42l-0.459,0.055c-0.103-1.441-2.068-1.407-2.875-2.488l-0.936,0.047
		l-0.777-0.74l-0.137,0.721c-0.476-0.698-1.559,0.396-1.599-0.572l0.586-0.416c0.012-1.387-5.69,1.311-4.107,0.708l0.448,0.976
		l-1.351,0.25l-0.482,0.637l-0.001-0.434l-0.798,1.399l-1.792,1.019c0.223,0.729-0.939,0.584-0.347,1.209l-0.267-0.094l0.063,1.139
		l-0.331-0.479l-1.043,0.362l0.042,0.566l-0.126,0.399l-0.299,0.819l-0.43-0.424l-0.679,0.814c-0.046,0.01-0.115,0.025-0.2,0.17
		l-0.575,0.271l-0.235-0.383l-0.176,1.146l-2.252,2.685l0.016-0.279l-0.408,0.676l-0.839,0.346l0.345,0.227l-2.174,2.199
		l-0.008-0.617l-0.98,2.365l-0.174-0.527l-0.58,1.33l0.021,0.707l-0.076-0.057l-0.621,0.991l-0.178-0.392l-1.326,0.615l0.133,0.535
		l-0.637,0.082l0.089,1.663l-0.087,0.078l-0.512-0.56l-0.224,1.328l-1.7,1.737l-0.454-0.772l-1.734,1.578
		c0.825,0.188-0.021,0.813,0.169,1.284l-0.266,0.242c-0.321,0.167-0.528-0.169-0.818-0.079l-1.616,1.91l-0.092-0.124l-1.29,2.204
		l-0.094,0.111l-0.179-0.354c-0.453,0.253-0.272,0.473-0.188,0.711l-0.229,0.25l-0.067-0.257l-1.017,1.386l-0.032,0.023l-0.111-0.41
		l-0.536,1.063l-0.389,0.391l-0.165-0.391l-0.515,1.074l-0.031,0.055l-0.479,0.002l-0.475,0.979l-0.298,0.317l-0.688,0.033
		l-5.227,6.016l-0.599,0.625l-0.387-0.873c0.438,0.41-0.228,0.48-0.699,1.246l-0.076-0.045l-0.747,0.668l0.124,0.102
		c-0.012,0.594-1.247,0.112-0.827,0.842l-0.565-0.078l-0.562,1.115l-0.063-0.129l-1.059,1.393l-0.272,1.019l-0.329,0.335
		l-0.297-0.328c-1.026,1.198-2.339,2.827-3.233,3.928l-1.137,1.175l7.667,8.084c0.372,0.513,0.785,0.825,1.192,1.268l2.466,2.584
		l-0.025,0.275c0.147,0.164,0.374,0.174,0.542,0.286l0.754,0.791l1.652-0.424c0.3-0.063,0.604-0.129,0.924-0.231l4.097-1.043
		l0.874-0.913c0.479-0.514,1.044-1.02,1.574-1.525l-0.05,0.436l0.669-0.172l0.185-0.529l0.301,0.33l1.646-1.604l-0.551-0.101
		l1.023-1.094l0.389,0.491l0.155-0.396l0.353,0.691c-0.534-0.856,0.761-1.203,0.818-1.478l0.025,0.147
		c0.782-0.289-0.371-0.203,0.005-0.563l1.163,0.421l2.164-2.011l0.991-1.95l0.729-0.066l0.792,1.354l0.589-0.526l-0.618-0.188
		c-0.721-0.222,0.82-0.839-0.12-1.025l2.125-1.877l0.397,0.658l1.063-1.806l-0.779-0.583l0.195-0.541l1.452,0.415
		c0.396,0.714-0.959,0.762-0.188,1.112c0.179,0.675-0.741,1.593-1.195,1.5c-0.011,0.943,0.403-0.278,0.76,0.291l0.931-1.563
		l-0.354-0.564c0.107-1.053,1.051-0.324,1.211-0.432l-0.151,0.398l0.791-0.998c0.719,0.533-0.581,0.683-0.351,1.227l0.733,0.197
		l0.459-1.146l0.16,0.32l0.24-0.533l-0.941-0.16c-0.359-0.849,0.234-0.396,0.655-1.039l-0.535-0.084l0.222-0.963l1.013,0.248
		l-0.484,0.268c-0.211,0.891,0.942,0.521,0.79,1.135l0.474-1.145c-0.275,0.607-0.372-0.191-0.653-0.234
		c-0.188-1.656,1.14,0.258,1.693-0.577c-0.735-0.483,0.119-1.757-1.057-1.944l0.392-0.713l0.666,0.737l0.263-0.231l0.086,0.861
		l1.676-0.083l-0.174-0.801l0.675,0.097c-0.542,0.204-0.574-0.58-0.432-0.902l1.104-0.117l-0.025,0.695l0.436-0.349l-0.501-1.196
		l0.631-0.33l-0.136,0.607l1.11-0.115l-0.201-0.449l0.384,0.28l0.23-0.737l0.245,0.17c0.074-0.344-0.129-1.066,0.558-0.893
		l-0.879,0.368l0.031-0.842c0.544,0.571,0.614-0.474,0.884-0.706l0.789,0.045l-0.265-0.458c0.796,0.588,0.387-0.617,0.851-0.737
		l0.672,0.5l-0.696-1.398c0.661-0.396,0.566,0.779,1.093,0.969c-0.19-0.688,0.792-0.402,0.41-1.085l-0.478-0.694l0.657,0.104
		l-0.522-0.756l0.72-1.043l-0.076-1.088l-0.65-0.994c0.032-0.061,0.08-0.119,0.112-0.16c0.027,0.178-0.021,0.511,0.389,0.572
		l0.169-0.354c0.957,0.118,0.31,1.741,1.108,1.776l0.064-0.502l0.625,0.604l0.448-1l-0.352,0.063l0.343-1.431l0.703,0.595
		l0.133-0.643l0.183,0.217c1.191-1.345,2.554-3.133,2.536-4.997l1.783-0.883l-0.324-0.466l0.702-0.027l0.621-1.587l0.421,0.106
		l0.045-0.739l0.522-0.027l-0.291-0.254l0.852-0.687l-0.303-0.33l1.044-2.367l-0.802,0.023l-0.045-0.604l0.604,0.317
		c1.163-0.688,1.111-2.484,1.747-3.75l-0.235-0.463l1.263-2.723l-0.815-0.865c-0.33-0.687,0.808-0.023,1.314-0.438l0.039-0.986
		l0.077,0.028l0.229-1.188l0.011,0.063l0.688-0.88l-0.276-1.192l0.225-0.025l-0.419-0.102l0.462-0.574l0.363,0.397
		c0.532-0.604-0.318-0.271-0.433-0.642C160.672,364.74,161.811,367.076,161.412,365.977z M116.67,421.964l0.829,0.485
		L116.67,421.964z"/>
	<polygon fill="#B9DD84" points="159.445,365.592 159.489,365.617 159.664,365.578 	"/>
	<path fill="#B9DD84" d="M161.704,365.734l0.029,0.004C161.399,365.137,161.504,365.344,161.704,365.734z"/>
	<line fill="none" x1="116.67" y1="421.964" x2="117.5" y2="422.454"/>
	<polygon fill="#B9DD84" points="128.385,415.994 128.604,415.602 128.318,415.622 	"/>
	<line fill="none" x1="130.831" y1="413.553" x2="130.359" y2="414.727"/>
	<line fill="none" x1="133.984" y1="412.703" x2="133.841" y2="412.307"/>
	<line fill="none" x1="134.173" y1="411.579" x2="133.569" y2="411.682"/>
	<line fill="none" x1="139.547" y1="407.271" x2="139.028" y2="407.68"/>
	<polygon fill="#B9DD84" points="141.311,405.43 141.182,405.051 141.017,405.236 	"/>
	<polygon fill="#B9DD84" points="149.381,359.688 149.563,359.95 149.726,359.725 	"/>
	<line fill="none" x1="129.034" y1="375.999" x2="129.458" y2="376.004"/>
	<polygon fill="#B9DD84" points="121.677,386.828 121.295,386.408 121.228,386.494 	"/>
	<path fill="#B9DD84" d="M434.49,204.381l-0.021-0.382c-0.512,0.038-0.428,0.333-0.467,0.571l-0.287,0.127l0.026-0.271l-1.538,0.865
		l0.07-0.413l-0.929,0.757l-0.498,0.198l0.023-0.415l-0.914,0.781l-0.053,0.022l-0.436-0.189l-0.859,0.713l-0.385,0.147
		l-0.636-0.243l-7.208,3.406l-0.804,0.329c-0.52-0.438,0.45-0.627-0.019-0.965c0.267,0.578-0.368,0.351-1.121,0.879l-0.055-0.078
		l-0.941,0.311l0.061,0.143c-0.245,0.542-1.189-0.38-1.105,0.426l-0.481-0.278l-0.952,0.788l0.005-0.134
		c-0.776-0.028-1.076,1.254-1.549,0.835l-0.648,0.812l-0.445,0.18l-0.142-0.414c-1.384,0.669-3.203,1.612-4.438,2.266l-1.574,0.63
		l3.736,10.518c0.126,0.617,0.394,1.077,0.588,1.655l1.19,3.338l-0.128,0.233c0.063,0.221,0.267,0.301,0.384,0.48l0.367,1.021
		l1.706,0.278c0.292,0.065,0.594,0.127,0.898,0.148l4.164,0.695l1.196-0.495c0.647-0.271,1.397-0.488,2.065-0.754l-0.229,0.38
		l0.673,0.109l0.376-0.399l0.149,0.413l2.142-0.808l-0.458-0.288l1.373-0.594l0.158,0.606l0.305-0.303l0.028,0.774
		c-0.118-0.995,1.189-0.79,1.352-1.006l-0.026,0.149c0.819,0.043-0.27-0.338,0.211-0.524l0.905,0.863l2.779-0.97l1.698-1.374
		c0.587-0.188,0.229,0.75,0.702,0.229c0.025,0.624,0.911,1.052,0.187,1.566l0.736-0.243l-0.486-0.437
		c-0.58-0.477,1.089-0.427,0.313-0.969l2.701-0.858l0.109,0.765l1.688-1.244l-0.474-0.841l0.391-0.401
		c0.271,0.431,0.48,1.168,1.159,0.952c0.077,0.804-1.174,0.313-0.636,0.938l-1.692,0.896c-0.382,0.857,0.507-0.082,0.585,0.583
		l1.482-1.069l-0.082-0.657c0.517-0.919,1.078,0.136,1.289,0.104l-0.304,0.304l1.099-0.605c0.453,0.804-0.786,0.391-0.79,0.99
		l0.572,0.473c0.842-0.208-0.006-0.773,0.903-0.85v0.346l0.441-0.381l-0.799-0.53l1.042-0.672l-0.48-0.304l0.585-0.787l0.829,0.624
		l-0.536,0.063l0.259,1.359l0.889-0.855c-0.491,0.438-0.258-0.333-0.479-0.484c0.485-1.604,0.942,0.701,1.77,0.15
		c-0.468-0.726,0.807-1.552-0.178-2.199l0.637-0.494l0.323,0.941l0.333-0.105l-0.278,0.826l1.552,0.585l0.18-0.801l0.594,0.371
		l-0.057-1.011l1.055,0.339l-0.291,0.634l0.537-0.15l0.004-1.308l0.731-0.034l-0.382,0.496c0.607-0.354,0.466,0.79,1.056,0.334
		v-0.482l0.242,0.394l0.506-0.583l0.148,0.258l0.868-0.595l-0.939-0.016c-0.482-0.392,0.29-0.637,0.376-0.744
		c0.256,0.729,0.746-0.197,1.078-0.31l0.699,0.352l-0.041-0.501c0.481,0.849,0.576-0.415,1.062-0.35l0.415,0.726l-0.082-1.548
		c0.766-0.11,0.23,0.943,0.602,1.313l0.819-0.831l-0.134-0.825l0.566,0.379l-0.174-0.897l1.081-0.674l-0.28,0.751
		c0.871-0.395-0.045-1.253,0.64-1.785l-0.188-1.18c0.051-0.037,0.116-0.063,0.179-0.085c-0.064,0.16-0.255,0.436,0.111,0.671
		l0.281-0.254l0.325,2.074l0.256-0.438l0.329,0.801l0.816-0.739l-0.346-0.072l0.887-1.17l0.41,0.809l0.388-0.532l0.076,0.285
		c1.627-0.761,3.599-1.856,4.341-3.551l1.986-0.083l-0.126-0.566l0.688,0.269l1.196-1.208l0.346,0.281l0.336-0.673l0.475,0.189
		l-0.145-0.335c0.271-0.422,0.71-0.86,1.043-0.299l-0.135-0.429l1.932-1.754l-0.766-0.283l0.21-0.575l0.429,0.537l3.121-2.746
		l-0.064-0.511l2.267-1.982l-0.388-1.127c-0.034-0.756,0.737,0.313,1.361,0.129l0.445-0.88l0.066,0.068l0.672-1l-0.004,0.07
		l0.986-0.54l0.231-1.189l0.221,0.064l-0.331-0.247l0.637-0.334l0.174,0.5c0.739-0.354-0.188-0.382-0.126-0.768
		c-0.196-4.098-0.104-1.501-0.025-2.667c0.353,1.04,0.022-1.961,0.396,2.662c0.197,0.636,0.039-1.79-0.024-2.773l-0.595-0.093
		l-0.266-0.941l-0.787-0.314l0.074,0.875l-0.435-0.535l-0.438-0.08l0.189-0.731l-0.942-0.514c0.356-0.315,0.951-0.415,0.619-1.032
		l-0.769-0.146l0.057-0.49c-0.484-1.001-1.715-0.016-1.913-0.946l0.184-0.362l-0.416-0.137c0.479-1.351-1.349-2.129-1.66-3.436
		c-0.49,0.487-0.506-0.304-0.852-0.335c0.601-0.4-0.537-0.451-0.419-0.991l-0.433,0.599c-0.146-0.841-1.572-0.271-1.203-1.16
		l0.688-0.155c0.571-1.26-5.736-1.045-4.048-0.966l0.026,1.069l-1.349-0.327l-0.688,0.397l0.178-0.381l-1.294,0.941l-2.061,0.212
		c-0.117,0.75-1.092,0.15-0.826,0.967l-0.186-0.189l-0.388,1.064l-0.122-0.569c-0.205-0.681-0.892,0.206-1.094-0.089l-0.198,0.535
		l-0.277,0.306l-0.61,0.642l-0.21-0.549l-0.948,0.454c-0.038-0.015-0.091-0.018-0.237,0.073l-0.63,0.023l-0.076-0.456l-0.626,0.978
		l-3.131,1.551l0.116-0.231l-0.629,0.451l-0.92-0.019l0.209,0.331l-2.866,1.137l0.241-0.574l-1.842,1.777l0.024-0.557l-1.046,0.979
		l-0.279,0.652l-0.049-0.097l-0.941,0.638l-0.019-0.43l-1.462,0.024l-0.104,0.537l-0.613-0.172l-0.576,1.552l-0.126,0.041
		l-0.236-0.713l-0.728,1.121l-2.259,0.899l-0.104-0.876l-2.237,0.735c0.703,0.519-0.339,0.728-0.363,1.237l-0.322,0.126
		c-0.379,0.025-0.426-0.38-0.724-0.391l-2.266,1.076l-0.024-0.146l-2.111,1.524L434.49,204.381z M421.066,232.218l0.558,0.763
		L421.066,232.218z"/>
	<line fill="none" x1="421.066" y1="232.218" x2="421.622" y2="232.979"/>
	<path fill="#B9DD84" d="M99.496,341.952l0.02-0.484l0.235,0.393l0.501-0.585l0.162,0.266l0.873-0.595l-0.941-0.021
		c-0.486-0.384,0.276-0.631,0.376-0.738c0.241,0.731,0.734-0.187,1.083-0.303l0.697,0.355l-0.072-0.529
		c0.505,0.863,0.604-0.409,1.083-0.33l0.413,0.735l-0.071-1.554c0.759-0.104,0.213,0.944,0.623,1.319l0.802-0.841l-0.152-0.821
		l0.565,0.372l-0.17-0.903l1.085-0.677l-0.272,0.758c0.852-0.382-0.073-1.244,0.645-1.781l-0.222-1.182
		c0.084-0.022,0.127-0.059,0.195-0.085c-0.063,0.178-0.255,0.447,0.113,0.686l0.293-0.261l0.31,2.07l0.255-0.436l0.332,0.802
		l0.817-0.734l-0.343-0.096l0.888-1.159l0.404,0.818l0.385-0.534l0.085,0.279c1.617-0.747,3.589-1.848,4.333-3.537l1.988-0.077
		l-0.127-0.567l0.679,0.266l1.198-1.2l0.356,0.272l0.323-0.654l0.496,0.177l-0.16-0.33c0.279-0.4,0.712-0.85,1.047-0.28
		l-0.154-0.437l1.928-1.751l-0.738-0.28l0.193-0.583l0.439,0.534l3.104-2.74l-0.063-0.508l2.271-1.979l-0.398-1.136
		c-0.033-0.754,0.741,0.317,1.357,0.13l0.448-0.89l0.057,0.073l0.672-1.008l-0.003,0.08l0.985-0.543l0.236-1.193l0.221,0.068
		l-0.371-0.261l0.68-0.335l0.151,0.508c0.724-0.354-0.179-0.382-0.144-0.771c0.2,0.007-0.216-3.979,0.046-2.672
		c0.318,1.029,0.078-1.958,0.352,2.646c0.379,2.648-0.018-3.167,0.053-2.733l-0.635-0.129l-0.257-0.94l-0.79-0.321l0.062,0.891
		l-0.403-0.533l-0.437-0.074l0.188-0.738l-0.954-0.496c0.359-0.325,0.966-0.435,0.627-1.042l-0.764-0.146l0.053-0.483
		c-0.461-0.994-1.713-0.023-1.932-0.939l0.205-0.355l-0.423-0.135c0.483-1.36-1.349-2.123-1.653-3.442
		c-0.497,0.499-0.497-0.28-0.853-0.318c0.597-0.395-0.533-0.461-0.42-0.994l-0.417,0.593c-0.152-0.84-1.604-0.274-1.229-1.163
		l0.683-0.142c0.572-1.254-5.717-1.147-4.021-1.04l0.032,1.092l-1.357-0.336l-0.68,0.405l0.17-0.384l-1.28,0.939l-2.075,0.212
		c-0.077,0.766-1.09,0.15-0.809,0.969l-0.193-0.188l-0.389,1.044l-0.117-0.56c-0.185-0.691-0.89,0.204-1.099-0.101l-0.179,0.533
		l-0.279,0.32l-0.609,0.632l-0.221-0.533l-0.957,0.438c-0.05-0.012-0.097-0.005-0.24,0.077l-0.636,0.02l-0.072-0.443l-0.611,0.97
		l-3.149,1.553l0.132-0.229l-0.647,0.431l-0.9-0.001l0.207,0.323l-2.868,1.132l0.244-0.562l-1.825,1.773l0.021-0.555l-1.076,0.96
		l-0.267,0.654l-0.043-0.077l-0.96,0.648v-0.43l-1.478,0.027l-0.103,0.536l-0.589-0.166l-0.584,1.554l-0.126,0.048l-0.239-0.726
		l-0.756,1.124l-2.239,0.896l-0.104-0.876l-2.198,0.739c0.656,0.515-0.38,0.725-0.397,1.23l-0.319,0.127
		c-0.368,0.024-0.427-0.37-0.711-0.395l-2.268,1.069l-0.021-0.139l-2.128,1.517l-0.101,0.045l0.002-0.389
		c-0.556,0.04-0.433,0.339-0.481,0.587l-0.305,0.104l0.061-0.243l-1.537,0.846l0.064-0.408l-0.914,0.742l-0.513,0.229l-0.015-0.438
		l-0.887,0.794l-0.05,0.01l-0.433-0.185l-0.896,0.731l-0.324,0.143l-0.653-0.244l-7.087,3.354l-0.934,0.379
		c-0.483-0.434,0.451-0.638,0.007-0.959c0.247,0.573-0.391,0.346-1.137,0.868l-0.075-0.064l-0.944,0.287l0.071,0.146
		c-0.239,0.543-1.194-0.387-1.104,0.441l-0.458-0.279l-0.979,0.783l0.008-0.132c-0.774-0.025-1.076,1.248-1.553,0.84l-0.633,0.81
		l-0.459,0.179l-0.144-0.422c-1.491,0.711-3.475,1.762-4.715,2.38l-1.329,0.524l3.73,10.492c0.119,0.601,0.363,1.054,0.584,1.614
		l1.184,3.372l-0.119,0.248c0.06,0.229,0.28,0.331,0.402,0.522l0.354,1.007l1.643,0.279c0.314,0.06,0.607,0.113,0.953,0.151
		l4.146,0.681l1.187-0.476c0.661-0.264,1.405-0.483,2.062-0.746l-0.217,0.384l0.673,0.106l0.396-0.391l0.125,0.402l2.141-0.809
		l-0.458-0.303l1.376-0.587l0.166,0.607l0.296-0.301l0.032,0.782c-0.138-1.002,1.196-0.802,1.363-1.015l-0.034,0.152
		c0.817,0.035-0.255-0.342,0.215-0.528l0.905,0.854l2.783-0.977l1.693-1.352c0.579-0.201,0.221,0.737,0.699,0.229
		c0.053,0.609,0.917,1.04,0.185,1.562l0.752-0.255l-0.483-0.433c-0.583-0.479,1.069-0.439,0.288-0.968l2.7-0.862l0.105,0.75
		l1.695-1.237l-0.487-0.839l0.414-0.411c0.265,0.438,0.475,1.176,1.153,0.96c0.063,0.804-1.177,0.313-0.618,0.941l-1.725,0.895
		c-0.377,0.849,0.512-0.099,0.609,0.572l1.476-1.045l-0.083-0.676c0.513-0.925,1.085,0.142,1.271,0.105l-0.313,0.298l1.15-0.6
		c0.419,0.805-0.818,0.387-0.835,0.99l0.583,0.475c0.859-0.199-0.022-0.776,0.897-0.842l0.007,0.34l0.466-0.365l-0.815-0.542
		l1.025-0.686l-0.463-0.302l0.593-0.789l0.798,0.631l-0.556,0.05l0.291,1.369l0.89-0.858c-0.509,0.448-0.256-0.322-0.5-0.481
		c0.511-1.604,0.942,0.7,1.791,0.155c-0.49-0.738,0.805-1.553-0.194-2.203l0.634-0.492l0.325,0.947l0.352-0.108l-0.274,0.841
		l1.553,0.573l0.155-0.797l0.583,0.384l-0.02-1.028l1.042,0.338l-0.292,0.635l0.542-0.138l0.007-1.319l0.724-0.022l-0.365,0.49
		L99.496,341.952z M68.023,347.683l0.553,0.764L68.023,347.683z"/>
	<polygon fill="#B9DD84" points="126.954,308.991 126.905,309.084 127.089,309.146 	"/>
	<polygon fill="#B9DD84" points="129.892,313.356 129.925,313.381 130.095,313.418 	"/>
	<polygon fill="#B9DD84" points="126.746,308.75 126.954,308.991 127.108,308.707 	"/>
	<polygon fill="#B9DD84" points="97.054,312.457 97.122,312.378 97.242,312.135 	"/>
	<polygon fill="#B9DD84" points="82.514,346.868 82.355,346.933 82.794,347.313 	"/>
	<line fill="none" x1="68.023" y1="347.683" x2="68.575" y2="348.445"/>
	<polygon fill="#B9DD84" points="81.128,346.933 81.484,346.666 81.206,346.564 	"/>
	<line fill="none" x1="84.345" y1="345.676" x2="83.427" y2="346.564"/>
	<line fill="none" x1="87.603" y1="345.764" x2="87.552" y2="346.168"/>
	<line fill="none" x1="87.613" y1="345.084" x2="88.192" y2="345.216"/>
	<line fill="none" x1="94.848" y1="343.457" x2="94.196" y2="343.624"/>
	<polygon fill="#B9DD84" points="97.208,342.47 97.24,342.086 96.999,342.184 	"/>
	<polygon fill="#B9DD84" points="123.151,304.213 123.409,304.086 123.072,303.899 	"/>
	<line fill="none" x1="97.899" y1="310.603" x2="98.271" y2="310.78"/>
	<polygon fill="#B9DD84" points="86.792,317.546 86.61,316.992 86.517,317.042 	"/>
	<path fill="#B9DD84" d="M494.998,292.146l-0.521-0.351l0.13-0.971l-0.604-0.597l-0.285,0.838l-0.162-0.657l-0.37-0.255l0.462-0.586
		l-0.662-0.854l0.991-0.694l-0.637-0.433l0.229-0.434c-0.024-1.105-1.552-0.724-1.365-1.651l0.319-0.251l-0.33-0.289
		c0.999-1.047-0.357-2.493-0.126-3.814c-0.631,0.261-0.327-0.478-0.638-0.636c0.711-0.126-0.309-0.637,0.023-1.071l-0.638,0.359
		c0.198-0.813-1.351-0.877-0.646-1.552l0.705,0.146c1.035-0.921-4.783-3.347-3.292-2.562l-0.409,0.991l-1.086-0.842l-0.806,0.091
		l0.302-0.281l-1.536,0.334l-1.975-0.637l-1.145,0.559l-0.093-0.251l-0.789,0.818l0.12-0.577c0.096-0.698-0.873-0.155-0.953-0.517
		l-0.398,0.403l-0.381,0.167l-0.801,0.33l0.028-0.577l-1.056,0.032c-0.051-0.024-0.088-0.055-0.27-0.032l-0.578-0.238l0.129-0.433
		l-0.967,0.636c-1.09-0.444-3.027-0.074-3.509,0.15l0.218-0.157l-0.788,0.159l-0.803-0.388l0.065,0.393
		c-0.864-0.705-2.04,0.373-3.099-0.127l0.46-0.411l-2.398,0.877l0.273-0.482l-1.209,0.396c0.126,0.347-0.377,0.646-0.689,0.537
		l-0.019-0.095l-1.124,0.229l0.179-0.384c-0.11-0.729-1.254-0.492-1.356-0.579l-0.322,0.44l-0.472-0.385l-1.168,1.191l-0.125-0.002
		l0.058-0.766l-1.144,0.732l-2.407-0.078l0.248-0.852l-2.343-0.219c0.436,0.742-0.581,0.527-0.82,0.966h-0.23l-0.607-0.648
		l-2.521,0.075l0.033-0.132l-2.521,0.534l-0.129-0.005l0.146-0.364c-0.497-0.188-0.529,0.141-0.647,0.341l-0.329-0.01l0.13-0.214
		l-1.725,0.171h-0.016l0.215-0.355l-1.131,0.32l-0.545-0.022l0.157-0.38l-1.189,0.341v0.016l-0.318-0.355l-1.074,0.304l-0.393-0.021
		l-0.52-0.484l-7.809,0.227l-1.014-0.028c-0.28-0.605,0.651-0.399,0.382-0.876c0.011,0.611-0.487,0.145-1.398,0.332l-0.026-0.087
		l-0.972-0.116l-0.011,0.172c-0.442,0.383-0.941-0.837-1.194-0.045l-0.318-0.455l-1.195,0.331l0.059-0.136
		c-0.688-0.327-1.483,0.731-1.741,0.162l-0.916,0.479l-0.486-0.021l0.033-0.432c-1.637,0.035-3.841,0.187-5.221,0.262l-1.479-0.038
		l-0.814,11.068c-0.138,0.637-0.079,1.146-0.144,1.763l-0.238,3.538l-0.229,0.166c-0.04,0.233,0.128,0.432,0.172,0.638l-0.09,1.068
		l1.398,0.916c0.274,0.185,0.502,0.354,0.813,0.519l3.524,2.314l1.282,0.038c0.687,0.022,1.454,0.108,2.161,0.146l-0.352,0.241
		l0.585,0.39l0.515-0.226l-0.038,0.432l2.303,0.129l-0.317-0.473l1.5,0.021l-0.091,0.613l0.396-0.146l-0.279,0.725
		c0.291-0.961,1.398-0.238,1.625-0.384l-0.078,0.128c0.741,0.383-0.104-0.423,0.396-0.389l0.499,1.15l2.927,0.23l2.113-0.559
		l0.549,0.482c-0.217,0.586,0.418,1.33-0.48,1.502c0.334-0.5,0.511-0.035,0.758,0.028l-0.263-0.539
		c-0.322-0.679,1.195,0.05,0.687-0.782l2.815,0.31l-0.205,0.734l2.034-0.439l-0.092-0.969l0.532-0.21l0.673,1.34
		c-0.266,0.78-1.209-0.183-0.941,0.627l-1.925,0.128c-0.706,0.613,0.479,0.118,0.313,0.76l1.77-0.361l0.178-0.66
		c0.842-0.633,0.952,0.579,1.146,0.623l-0.397,0.143l1.258-0.082c0.084,0.896-0.888,0.04-1.144,0.567l0.347,0.673
		c0.861,0.148,0.313-0.72,1.169-0.429l-0.123,0.329l0.542-0.167l-0.506-0.813c0.383-0.841,0.432-0.086,1.194-0.21l-0.278-0.471
		l0.857-0.483l0.483,0.899l-0.534-0.175c-0.79,0.453,0.257,1.041-0.29,1.354l1.148-0.427l-0.26-0.652
		c1.115-1.248,0.575,1.036,1.572,0.881c-0.161-0.875,1.365-1.104,0.733-2.095l0.788-0.209l-0.098,0.999l0.349,0.036l-0.584,0.648
		l1.195,1.152l0.472-0.653l0.37,0.567l0.392-0.942l0.814,0.736l-0.523,0.468l0.55,0.077l0.545-1.191l0.671,0.264l-0.535,0.313
		l0.816,0.725l0.218-0.435l0.046,0.447l0.698-0.328l0.041,0.299c0.302-0.169,0.702-0.8,1.025-0.19l-0.842-0.393
		c-0.289-0.55,0.533-0.453,0.637-0.533c-0.05,0.771,0.765,0.128,1.124,0.155l0.495,0.607l0.16-0.501
		c0.103,0.991,0.699-0.128,1.108,0.127l0.094,0.841l0.547-1.45l0.021,1.449l1.068-0.434l0.209-0.817l0.371,0.577l0.194-0.895
		l1.288-0.186l-0.564,0.586c0.932-0.021,0.441-1.169,1.299-1.384l0.304-1.149c0.063,0.004,0.126-0.005,0.199,0
		c-0.127,0.128-0.419,0.309-0.18,0.659l0.383-0.093c0.549,0.757-1.083,1.382-0.556,2.003l0.402-0.298l-0.025,0.872l1.044-0.343
		l-0.278-0.218l1.273-0.695l0.062,0.911l0.558-0.341l-0.036,0.28c1.776-0.039,4.02-0.238,5.381-1.498l1.858,0.716l0.119-0.552
		l0.494,0.509l1.59-0.628l0.215,0.395l0.573-0.465l0.38,0.354l-0.014-0.375c0.42-0.271,0.995-0.481,1.078,0.157l0.035-0.46
		l2.471-0.818l-0.575-0.561l0.426-0.443l0.148,0.647c1.328,0.384,2.604-0.856,3.974-1.245l0.161-0.483l2.853-0.905l0.097-1.195
		c0.297-0.693,0.564,0.593,1.216,0.683l0.769-0.636l0.025,0.086l1.018-0.642l-0.048,0.061l1.124-0.103l0.703-0.988l0.177,0.14
		l-0.225-0.356l0.73-0.053l-0.072,0.524c0.829-0.021,0.005-0.423,0.186-0.759c1.544-3.799,0.538-1.401,1.105-2.425
		c-0.112,1.077,0.834-1.779-0.736,2.572C493.153,297.24,495.106,291.746,494.998,292.146z M423.064,296.801l0.216,0.942
		L423.064,296.801z"/>
	<line fill="none" x1="423.064" y1="296.801" x2="423.278" y2="297.733"/>
	<path fill="#B9DD84" d="M57.312,262.183l-0.311-0.473l1.498,0.023l-0.09,0.612l0.395-0.153l-0.277,0.73
		c0.291-0.96,1.395-0.253,1.638-0.389l-0.081,0.131c0.741,0.381-0.104-0.425,0.41-0.4l0.482,1.15l2.923,0.233l2.112-0.553
		l0.548,0.48c-0.213,0.584,0.42,1.34-0.455,1.503c0.35-0.497,0.505-0.025,0.757,0.044l-0.261-0.556
		c-0.327-0.671,1.177,0.049,0.681-0.775l2.804,0.31l-0.204,0.736l2.048-0.452l-0.082-0.953l0.513-0.227l0.671,1.335
		c-0.251,0.789-1.189-0.177-0.943,0.627l-1.923,0.129c-0.688,0.627,0.481,0.117,0.313,0.764l1.778-0.359l0.168-0.648
		c0.863-0.645,0.951,0.567,1.141,0.606l-0.396,0.151l1.265-0.089c0.09,0.909-0.864,0.036-1.144,0.565l0.363,0.681
		c0.844,0.147,0.28-0.715,1.151-0.419l-0.125,0.325l0.56-0.174l-0.521-0.81c0.384-0.84,0.447-0.087,1.207-0.207l-0.297-0.458
		l0.857-0.488l0.483,0.9l-0.516-0.178c-0.785,0.455,0.255,1.052-0.305,1.359l1.163-0.426l-0.256-0.652
		c1.104-1.245,0.559,1.02,1.572,0.862c-0.166-0.858,1.355-1.094,0.712-2.071l0.78-0.211l-0.087,1.005l0.342,0.029L79.809,266
		l1.19,1.174l0.471-0.676l0.402,0.583l0.354-0.941l0.834,0.749l-0.52,0.456l0.546,0.074l0.547-1.176l0.67,0.24l-0.547,0.322
		l0.822,0.727l0.206-0.448l0.063,0.459l0.69-0.323l0.053,0.3c0.291-0.181,0.692-0.813,1.031-0.21l-0.846-0.384
		c-0.291-0.557,0.524-0.463,0.624-0.541c-0.046,0.781,0.778,0.128,1.127,0.168l0.485,0.613l0.172-0.505
		c0.119,0.979,0.716-0.138,1.114,0.127l0.093,0.841l0.547-1.453l0.021,1.454l1.104-0.435l0.192-0.818l0.356,0.567l0.21-0.896
		l1.268-0.188l-0.561,0.59c0.942-0.02,0.439-1.188,1.301-1.389l0.306-1.167c0.059,0.002,0.133,0,0.199,0.002
		c-0.134,0.138-0.406,0.311-0.177,0.661l0.372-0.104c0.552,0.761-1.089,1.385-0.541,2.018l0.395-0.298l-0.005,0.863l1.022-0.344
		l-0.278-0.212l1.293-0.701l0.037,0.906l0.569-0.334l-0.042,0.279c1.797-0.036,4.04-0.235,5.398-1.494l1.851,0.72l0.119-0.563
		l0.515,0.52l1.566-0.636l0.236,0.388l0.567-0.46l0.381,0.354l-0.034-0.382c0.422-0.262,1.017-0.497,1.081,0.169l0.034-0.451
		l2.479-0.84l-0.559-0.553l0.411-0.455l0.159,0.669c1.312,0.37,2.593-0.871,3.961-1.262l0.175-0.484l2.845-0.904l0.106-1.186
		c0.286-0.7,0.558,0.584,1.204,0.662l0.75-0.629l0.042,0.089l1.019-0.646l-0.03,0.05l1.105-0.102l0.688-0.986l0.185,0.142
		l-0.222-0.366l0.741-0.036l-0.071,0.518c0.823-0.025-0.018-0.42,0.188-0.75c1.51-3.818,0.531-1.404,1.095-2.442
		c-0.108,1.083,0.781-1.788-0.726,2.59c-0.089,0.654,0.743-1.619,1.096-2.532l-0.519-0.363l0.145-0.951l-0.604-0.598l-0.284,0.834
		l-0.165-0.661l-0.365-0.253l0.448-0.594l-0.642-0.839l0.956-0.7l-0.628-0.451l0.272-0.415c-0.037-1.108-1.579-0.718-1.388-1.639
		l0.326-0.25l-0.335-0.298c0.99-1.051-0.368-2.483-0.121-3.819c-0.661,0.256-0.351-0.473-0.67-0.646
		c0.732-0.107-0.302-0.627,0.027-1.056l-0.627,0.362c0.205-0.829-1.336-0.891-0.647-1.552l0.701,0.147
		c1.015-0.938-4.842-3.289-3.313-2.541l-0.408,1.001l-1.095-0.84l-0.795,0.086l0.314-0.289l-1.56,0.345l-1.959-0.633l-1.146,0.548
		l-0.111-0.252l-0.788,0.813l0.118-0.563c0.093-0.703-0.875-0.159-0.957-0.521l-0.406,0.399l-0.38,0.168l-0.802,0.335l0.022-0.587
		l-1.055,0.043c-0.026-0.033-0.095-0.07-0.268-0.043l-0.569-0.24l0.127-0.425l-0.977,0.636c-1.084-0.442-3.023-0.077-3.5,0.151
		l0.212-0.162l-0.774,0.146l-0.803-0.369l0.063,0.387c-0.866-0.713-2.031,0.375-3.078-0.127l0.438-0.418l-2.387,0.891l0.256-0.497
		l-1.205,0.395c0.139,0.345-0.379,0.651-0.688,0.541l-0.016-0.095l-1.125,0.225l0.172-0.386c-0.112-0.713-1.236-0.493-1.361-0.573
		l-0.303,0.453l-0.482-0.393l-1.15,1.192l-0.145-0.008l0.065-0.77l-1.133,0.736l-2.409-0.08l0.254-0.854l-2.341-0.225
		c0.432,0.748-0.613,0.518-0.842,0.98l-0.247-0.01l-0.605-0.651l-2.522,0.077l0.052-0.139l-2.54,0.534l-0.122-0.005l0.137-0.355
		c-0.493-0.186-0.529,0.147-0.662,0.333l-0.312,0.004l0.129-0.229l-1.695,0.178l-0.027-0.002l0.203-0.357l-1.133,0.325l-0.549-0.015
		l0.176-0.396l-1.164,0.364l-0.021-0.001l-0.331-0.347l-1.082,0.307l-0.394-0.017l-0.501-0.486l-7.887,0.22l-0.939-0.037
		c-0.291-0.602,0.66-0.397,0.382-0.872c0.008,0.623-0.495,0.164-1.387,0.331l-0.025-0.086l-0.994-0.109l-0.006,0.17
		c-0.44,0.394-0.942-0.835-1.195-0.054l-0.313-0.441l-1.188,0.331l0.046-0.128c-0.689-0.333-1.474,0.717-1.74,0.145l-0.911,0.482
		l-0.489-0.024l0.051-0.427c-1.561,0.045-3.635,0.178-5.04,0.262l-1.655-0.041l-0.804,11.128c-0.134,0.615-0.096,1.119-0.134,1.728
		l-0.276,3.541l-0.21,0.175c-0.038,0.223,0.128,0.411,0.169,0.619l-0.077,1.063l1.425,0.941c0.264,0.187,0.508,0.357,0.803,0.518
		l3.498,2.308l1.301,0.044c0.692,0.021,1.46,0.103,2.167,0.141l-0.354,0.245l0.596,0.392l0.515-0.218l-0.05,0.414L57.312,262.183z
		 M53.444,260.056l0.214,0.935L53.444,260.056z"/>
	<path fill="#B9DD84" d="M67.049,265.174c-0.079,0.085-0.126-0.026-0.184-0.044l0.273,0.556L67.049,265.174z"/>
	<polygon fill="#B9DD84" points="122.96,248.392 122.895,248.459 123.01,248.563 	"/>
	<polygon fill="#B9DD84" points="122.878,248.078 122.96,248.392 123.214,248.202 	"/>
	<polygon fill="#B9DD84" points="123.909,253.579 123.909,253.608 124.05,253.704 	"/>
	<path fill="#B9DD84" d="M94.162,239.531l0.277-0.09c-0.021-0.042,0.063-0.078,0.019-0.117L94.162,239.531z"/>
	<path fill="#B9DD84" d="M125.336,255.348l0.013,0.007C125.566,254.711,125.495,254.919,125.336,255.348z"/>
	<line fill="none" x1="53.444" y1="260.056" x2="53.658" y2="260.983"/>
	<polygon fill="#B9DD84" points="65.763,264.66 66.177,264.566 65.995,264.367 	"/>
	<line fill="none" x1="69.208" y1="264.829" x2="68.01" y2="265.268"/>
	<line fill="none" x1="72.177" y1="266.222" x2="71.975" y2="266.559"/>
	<line fill="none" x1="72.925" y1="265.951" x2="72.435" y2="265.596"/>
	<line fill="none" x1="79.718" y1="267.016" x2="79.08" y2="266.917"/>
	<polygon fill="#B9DD84" points="82.286,267.085 82.455,266.736 82.205,266.725 	"/>
	<polygon fill="#B9DD84" points="121.694,242.447 121.455,242.159 121.409,242.473 	"/>
	<line fill="none" x1="95.68" y1="238.177" x2="95.989" y2="238.497"/>
	<polygon fill="#B9DD84" points="82.734,240.054 82.792,239.475 82.682,239.479 	"/>
	<path fill="#B9DD84" d="M409.25,366.903c-0.127,0.038-0.127-0.091-0.188-0.14l0.025,0.635L409.25,366.903z"/>
	<polygon fill="#B9DD84" points="432.77,378.036 432.752,378.026 432.029,378.334 	"/>
	<path fill="#B9DD84" d="M467.713,368.485c0.502-0.677-0.882-1.351,0.021-1.683l0.585,0.402c1.31-0.434-3.009-4.995-1.963-3.671
		l-0.771,0.749l-0.668-1.229l-0.76-0.225l0.416-0.152l-1.583-0.311l-1.533-1.371c-0.636,0.438-0.856-0.698-1.26,0.05l-0.003-0.28
		l-1.046,0.436l0.332-0.469l-0.681-0.877l-0.526,0.229l-0.411,0.002l-0.862-0.024l0.267-0.521l-0.996-0.387
		c0.003-0.053-0.055-0.104-0.213-0.133l-0.438-0.465l0.282-0.354l-1.127,0.205c-0.828-0.858-2.742-1.296-3.288-1.272l0.28-0.07
		l-0.776-0.176l-0.582-0.681l-0.114,0.388c-0.487-1.002-2.008-0.479-2.775-1.354l0.585-0.2l-2.541-0.165l0.438-0.343l-1.27-0.132
		c-0.018,0.381-0.599,0.445-0.842,0.219l0.033-0.084l-1.119-0.246l0.294-0.299l-0.997-1.069l-0.483,0.284l-0.279-0.552l-1.552,0.616
		l-0.106-0.05l0.355-0.688l-1.34,0.219l-2.17-1.045l0.577-0.678l-2.028-1.141c0.078,0.844-0.765,0.233-1.147,0.57l-0.225-0.106
		l-0.293-0.85l-2.344-0.945l0.103-0.118l-2.547-0.536l-0.111-0.046l0.283-0.274c-0.377-0.372-0.544-0.091-0.742,0.055l-0.278-0.14
		l0.218-0.146l-1.651-0.541h-0.019l0.353-0.236l-1.188-0.16l-0.478-0.23l0.311-0.292l-1.21-0.141l-0.023-0.024l-0.158-0.44
		l-1.109-0.159l-0.356-0.177l-0.258-0.639l-7.293-2.979l-0.853-0.41l0.69-0.646l-1.409-0.255l0.005-0.093l-0.864-0.491l-0.066,0.144
		c-0.559,0.187-0.529-1.146-1.042-0.522l-0.128-0.534l-1.231-0.184l0.11-0.088c-0.493-0.581-1.652,0.05-1.662-0.575l-1.028,0.069
		l-0.446-0.207l0.202-0.391c-1.447-0.598-3.436-1.315-4.773-1.806l-1.418-0.687l-5.247,9.824c-0.371,0.512-0.534,0.993-0.818,1.53
		l-1.68,3.145l-0.271,0.064c-0.123,0.2-0.055,0.433-0.094,0.64l-0.514,0.938l0.924,1.429c0.146,0.274,0.297,0.537,0.535,0.82
		l2.268,3.525l1.145,0.547c0.638,0.313,1.311,0.692,1.955,1.021l-0.414,0.076l0.36,0.585l0.56,0.026l-0.216,0.369l2.045,1.035
		l-0.086-0.549l1.359,0.625l-0.332,0.53l0.433,0.025l-0.549,0.546c0.653-0.779,1.376,0.334,1.654,0.299l-0.127,0.088l0.533-0.199
		l-0.026,1.246l2.575,1.399l2.16,0.342l0.309,0.658c-0.43,0.45-0.164,1.373-1.026,1.196c0.504-0.319,0.482,0.144,0.657,0.332
		l-0.011-0.604c-0.032-0.744,1.075,0.511,0.92-0.438l2.463,1.408l-0.489,0.592l2.077,0.422l0.286-0.916l0.569,0.018l0.075,1.5
		l-1.106,0.18l-1.826-0.651c-0.889,0.286,0.405,0.301-0.023,0.821l1.786,0.383l0.433-0.526c1.043-0.231,0.635,0.904,0.791,1.032
		l-0.431-0.039l1.201,0.436c-0.291,0.866-0.842-0.328-1.284,0.063l0.053,0.755l1.235,0.079l-0.249,0.235l0.585,0.076l-0.146-0.942
		c0.676-0.636,0.438,0.1,1.194,0.297l-0.092-0.543l0.968-0.086l0.104,1.014l-0.414-0.376c-0.919,0.096-0.205,1.068-0.817,1.118
		l1.231,0.097l0.027-0.688c1.5-0.713,0.109,1.148,1.09,1.424c0.209-0.857,1.682-0.468,1.501-1.617l0.789,0.128l-0.49,0.89
		l0.307,0.17l-0.792,0.369l0.628,1.545l0.7-0.43l0.115,0.688c-0.351-0.452,0.383-0.732,0.721-0.709l0.461,1.003l-0.675,0.222
		l0.479,0.28l0.982-0.854l0.501,0.502l-0.606,0.063l0.439,0.995l0.36-0.33l-0.128,0.452l0.79-0.016l-0.107,0.279
		c0.345-0.04,0.983-0.468,1.034,0.243l-0.621-0.716l0.808-0.229c-0.372,0.685,0.637,0.433,0.943,0.601l0.204,0.748l0.365-0.389
		c-0.314,0.942,0.686,0.15,0.948,0.559l-0.255,0.802l1.1-1.095c0.577,0.483-0.552,0.789-0.563,1.343l1.147,0.026l0.521-0.664
		l0.114,0.674l0.54-0.737l1.222,0.333l1.019-0.434l0.737-0.936c0.043,0.023,0.105,0.045,0.178,0.076
		c-0.166,0.075-0.483,0.125-0.431,0.544l0.39,0.051c0.206,0.929-1.551,0.843-1.323,1.632l0.515-0.113l-0.382,0.783l1.094,0.107
		l-0.179-0.316l1.451-0.127l-0.322,0.858l0.649-0.091l-0.147,0.258c1.644,0.677,3.792,1.398,5.547,0.799l1.406,1.415l0.331-0.465
		l0.255,0.675l1.7,0.063l0.025,0.433l0.734-0.188l0.206,0.484l0.125-0.336l0.937,0.587l0.191-0.407l2.609,0.232l-0.285-0.736
		l0.577-0.266l-0.127,0.661c1.044,0.886,2.725,0.256,4.134,0.462l0.351-0.384l2.979,0.325l0.559-1.043
		c0.54-0.537,0.279,0.75,0.836,1.088l0.941-0.26l-0.005,0.086l1.203-0.179l-0.068,0.05l1.061,0.348l1.044-0.631l0.083,0.205
		l-0.037-0.424l0.688,0.252l-0.265,0.467c0.75,0.308,0.146-0.393,0.476-0.623c0.123,0.138,2.779-2.848,2.003-1.779
		c-0.545,0.941,1.484-1.273-1.726,2.07c-1.699,2.062,2.323-2.159,2.061-1.83l-0.341-0.549l0.524-0.83l-0.314-0.787l-0.587,0.638
		l0.085-0.681l-0.208-0.366l0.67-0.353l-0.271-1.054l1.179-0.235l-0.403-0.67l0.405-0.291c0.396-1.027-1.159-1.278-0.605-2.054
		l0.396-0.099l-0.183-0.408c1.321-0.563,0.661-2.416,1.399-3.539l-0.329-0.852c0.694,0.178-0.025-0.692,0.444-0.957L467.713,368.485
		z M398.655,357.67l0.182-0.941L398.655,357.67z"/>
	<line fill="none" x1="398.655" y1="357.67" x2="398.839" y2="356.727"/>
	<polygon fill="#B9DD84" points="408.568,365.734 408.246,365.898 408.691,365.994 	"/>
	<line fill="none" x1="411.339" y1="367.447" x2="410.057" y2="367.379"/>
	<line fill="none" x1="413.468" y1="369.923" x2="413.168" y2="370.145"/>
	<line fill="none" x1="414.268" y1="369.975" x2="413.99" y2="369.459"/>
	<line fill="none" x1="420.069" y1="373.706" x2="419.533" y2="373.344"/>
	<polygon fill="#B9DD84" points="422.468,374.434 422.387,374.787 422.699,374.544 	"/>
	<path fill="#B9DD84" d="M143.135,198.714l0.016,0.011C143.613,198.23,143.452,198.38,143.135,198.714z"/>
	<polygon fill="#B9DD84" points="109.372,195.313 109.354,195.309 108.638,195.623 	"/>
	<path fill="#B9DD84" d="M85.853,184.184c-0.133,0.045-0.106-0.081-0.185-0.138l0.024,0.633L85.853,184.184z"/>
	<polygon fill="#B9DD84" points="143.78,191.398 143.701,191.419 143.758,191.577 	"/>
	<polygon fill="#B9DD84" points="142.532,196.504 142.532,196.528 142.638,196.696 	"/>
	<path fill="#B9DD84" d="M121.012,171.66l0.279,0.028c0-0.041,0.101-0.042,0.07-0.103L121.012,171.66z"/>
	<polygon fill="#B9DD84" points="143.811,191.069 143.78,191.398 144.09,191.321 	"/>
	<path fill="#B9DD84" d="M70.417,170.323l2.3,3.533l1.14,0.546c0.617,0.309,1.299,0.685,1.93,1.011l-0.415,0.093l0.368,0.585
		l0.571,0.021l-0.223,0.367l2.037,1.041l-0.092-0.545l1.357,0.635l-0.33,0.521l0.426,0.019l-0.544,0.543
		c0.656-0.758,1.392,0.342,1.654,0.311l-0.128,0.091l0.53-0.199l-0.025,1.252l2.591,1.392l2.161,0.34l0.311,0.663
		c-0.433,0.458-0.152,1.379-1.03,1.196c0.502-0.31,0.501,0.152,0.666,0.325l-0.006-0.595c-0.022-0.748,1.062,0.512,0.935-0.438
		l2.447,1.406l-0.486,0.594l2.068,0.428l0.308-0.924l0.549,0.013l0.076,1.512l-1.109,0.165l-1.814-0.646
		c-0.884,0.292,0.394,0.31-0.021,0.817l1.779,0.388l0.434-0.518c1.016-0.24,0.625,0.899,0.791,1.025l-0.438-0.032l1.195,0.432
		c-0.29,0.867-0.839-0.317-1.276,0.053l0.047,0.766l1.227,0.082l-0.234,0.216l0.578,0.083l-0.166-0.958
		c0.706-0.626,0.472,0.104,1.199,0.295l-0.088-0.537l0.986-0.096l0.078,1.032l-0.414-0.382c-0.896,0.091-0.18,1.051-0.815,1.118
		l1.242,0.093l0.016-0.694c1.509-0.707,0.106,1.16,1.092,1.416c0.211-0.852,1.689-0.461,1.5-1.605l0.791,0.12l-0.482,0.887
		l0.309,0.157l-0.79,0.371l0.613,1.539l0.706-0.42l0.132,0.69c-0.378-0.459,0.357-0.736,0.707-0.712l0.46,1.001l-0.651,0.211
		l0.463,0.302l0.984-0.876l0.509,0.508l-0.631,0.063l0.461,0.995l0.377-0.318l-0.126,0.447l0.761-0.019l-0.075,0.291
		c0.346-0.035,0.966-0.458,1.032,0.239l-0.638-0.7l0.795-0.24c-0.355,0.682,0.659,0.433,0.948,0.606l0.227,0.754l0.346-0.387
		c-0.31,0.936,0.708,0.149,0.969,0.563l-0.253,0.796l1.088-1.105c0.582,0.496-0.555,0.793-0.56,1.346l1.165,0.034l0.502-0.661
		l0.111,0.667l0.549-0.739l1.216,0.342l1.025-0.425l0.73-0.94c0.066,0.028,0.125,0.046,0.188,0.081
		c-0.176,0.062-0.491,0.111-0.432,0.53l0.409,0.039c0.19,0.942-1.563,0.851-1.326,1.633l0.484-0.106l-0.366,0.789l1.083,0.1
		l-0.159-0.306l1.454-0.131l-0.321,0.86l0.638-0.083l-0.135,0.244c1.644,0.688,3.791,1.407,5.543,0.807l1.391,1.407l0.333-0.476
		l0.271,0.68l1.686,0.07l0.044,0.436l0.699-0.2l0.197,0.482l0.161-0.35l0.904,0.588l0.222-0.405l2.607,0.237l-0.305-0.748
		l0.544-0.23l-0.083,0.673c1.015,0.869,2.7,0.233,4.104,0.441l0.362-0.381l2.978,0.332l0.578-1.056
		c0.539-0.522,0.27,0.761,0.822,1.094l0.952-0.262l-0.018,0.09l1.2-0.171l-0.064,0.034l1.073,0.357l1.037-0.621l0.104,0.201
		l-0.048-0.429l0.698,0.25l-0.284,0.467c0.761,0.306,0.177-0.395,0.483-0.615c2.905-2.897,1.069-1.08,1.98-1.806
		c-0.537,0.953,1.443-1.303-1.689,2.082c-0.339,0.572,1.338-1.17,2.009-1.873l-0.328-0.518l0.523-0.839l-0.314-0.785l-0.598,0.641
		l0.111-0.688l-0.225-0.354l0.66-0.357l-0.268-1.053l1.17-0.232l-0.382-0.656l0.385-0.299c0.422-1.021-1.157-1.283-0.602-2.057
		l0.428-0.1l-0.204-0.403c1.316-0.563,0.668-2.431,1.419-3.541l-0.331-0.854c0.687,0.178-0.031-0.696,0.452-0.959l-0.729,0.071
		c0.53-0.666-0.879-1.361,0.036-1.681l0.564,0.405c1.325-0.432-3.07-4.962-1.989-3.646l-0.788,0.735l-0.657-1.211l-0.749-0.234
		l0.401-0.134l-1.565-0.314l-1.552-1.372c-0.635,0.443-0.854-0.702-1.26,0.049l0.012-0.28l-1.042,0.433l0.331-0.465l-0.686-0.875
		l-0.533,0.217l-0.392,0.016l-0.879-0.025l0.24-0.525l-0.958-0.387c-0.014-0.045-0.063-0.098-0.229-0.142l-0.44-0.457l0.283-0.355
		l-1.129,0.197c-0.814-0.853-2.748-1.289-3.273-1.264l0.274-0.064l-0.787-0.177l-0.586-0.673l-0.104,0.375
		c-0.514-0.999-1.999-0.465-2.767-1.35l0.576-0.196l-2.544-0.151l0.438-0.355l-1.27-0.127c-0.018,0.378-0.603,0.456-0.847,0.226
		l0.035-0.084l-1.138-0.252l0.309-0.292l-1.025-1.077l-0.45,0.287l-0.286-0.56l-1.546,0.624l-0.105-0.056l0.355-0.68l-1.335,0.214
		l-2.173-1.041l0.583-0.672l-2.053-1.143c0.095,0.846-0.78,0.215-1.169,0.541l-0.197-0.095l-0.299-0.849l-2.32-0.95l0.101-0.103
		l-2.568-0.549l-0.089-0.045l0.28-0.272c-0.396-0.373-0.549-0.091-0.76,0.057l-0.278-0.146l0.229-0.15l-1.658-0.544h-0.006
		l0.355-0.231l-1.178-0.169l-0.491-0.229l0.294-0.298l-1.175-0.126l-0.044-0.026l-0.141-0.449l-1.125-0.165l-0.34-0.167
		l-0.274-0.642l-7.279-2.983l-0.849-0.409l0.687-0.648l-1.408-0.245l0.005-0.101l-0.857-0.492l-0.071,0.144
		c-0.562,0.179-0.525-1.144-1.067-0.523l-0.116-0.539l-1.226-0.19l0.111-0.085c-0.495-0.591-1.653,0.049-1.662-0.573l-1.042,0.068
		l-0.434-0.191l0.204-0.394c-1.471-0.604-3.438-1.314-4.776-1.802l-1.326-0.636l-0.107-0.056l-5.212,9.825
		c-0.386,0.524-0.541,1.01-0.821,1.551l-1.67,3.126l-0.27,0.081c-0.118,0.192-0.048,0.415-0.089,0.629l-0.516,0.941l0.935,1.424
		C70.05,169.788,70.211,170.041,70.417,170.323z M75.448,174.013l-0.168,0.941L75.448,174.013z"/>
	<line fill="none" x1="75.282" y1="174.954" x2="75.448" y2="174.013"/>
	<polygon fill="#B9DD84" points="85.193,183.02 84.856,183.183 85.291,183.28 	"/>
	<line fill="none" x1="87.955" y1="184.726" x2="86.669" y2="184.652"/>
	<line fill="none" x1="90.093" y1="187.197" x2="89.763" y2="187.435"/>
	<line fill="none" x1="90.896" y1="187.263" x2="90.601" y2="186.739"/>
	<line fill="none" x1="96.68" y1="190.979" x2="96.142" y2="190.638"/>
	<polygon fill="#B9DD84" points="99.014,192.077 99.306,191.825 99.092,191.71 	"/>
	<polygon fill="#B9DD84" points="144.741,185.354 145.021,185.438 144.94,185.088 	"/>
	<line fill="none" x1="122.961" y1="171.036" x2="123.086" y2="171.442"/>
	<polygon fill="#B9DD84" points="110.538,166.979 110.347,167.525 110.619,167.017 	"/>
	<path fill="#B9DD84" d="M411.505,435.221l-0.992,0.373l-0.134-1.394l-0.589-0.524l0.422,0.038l-1.299-0.913l-0.853-1.882
		c-0.755,0.142-0.5-0.987-1.194-0.466l0.127-0.239l-1.143-0.047l0.484-0.28l-0.264-1.066l-0.56-0.018l-0.383-0.156l-0.804-0.377
		l0.439-0.377l-0.722-0.746c0.002-0.056-0.012-0.108-0.15-0.225l-0.217-0.586l0.408-0.225l-1.127-0.271l-2.477-2.485l0.272,0.043
		l-0.638-0.465l-0.274-0.857l-0.238,0.313l-2.006-2.367l0.627,0.058l-2.264-1.169l0.535-0.143l-1.276-0.697l-0.688-0.049l0.074-0.07
		l-0.937-0.688l0.397-0.148l-0.517-1.398l-0.534,0.076l-0.042-0.63l-1.643-0.054l-0.076-0.103l0.584-0.465l-1.297-0.344
		l-1.552-1.829l0.791-0.385l-1.414-1.862c-0.28,0.808-0.802-0.097-1.281,0.043l-0.264-0.278c-0.106-0.332,0.229-0.535,0.161-0.813
		l-1.757-1.794l0.148-0.077l-2.132-1.514l-0.063-0.082l0.354-0.133c-0.185-0.482-0.438-0.299-0.679-0.258l-0.231-0.238l0.273-0.049
		l-1.297-1.164l-0.018-0.009l0.41-0.075l-1.011-0.613l-0.36-0.43l0.42-0.129l-1.048-0.611l-0.026-0.025l0.047-0.477l-0.951-0.59
		l-0.276-0.302l0.026-0.688l-5.463-5.639l-0.639-0.742c0.26-0.627,0.74,0.213,0.92-0.304c-0.472,0.403-0.469-0.278-1.194-0.813
		l0.027-0.092l-0.578-0.789l-0.124,0.125c-0.592-0.076-0.015-1.244-0.771-0.896l0.125-0.545l-1.062-0.666l0.124-0.04l-1.277-1.182
		l-0.956-0.348l-0.33-0.383l0.337-0.275c-1.065-1.097-2.559-2.521-3.573-3.486l-1.099-1.286l-8.756,6.913
		c-0.55,0.324-0.892,0.695-1.352,1.059l-2.82,2.215l-0.276-0.047c-0.178,0.127-0.184,0.362-0.33,0.518l-0.835,0.667l0.281,1.686
		c0.017,0.313,0.048,0.624,0.126,0.938l0.688,4.134l0.855,0.986c0.449,0.533,0.917,1.147,1.379,1.714l-0.433-0.097l0.112,0.688
		l0.499,0.231l-0.348,0.254l1.452,1.785l0.146-0.535l0.993,1.117l-0.532,0.334l0.397,0.203l-0.738,0.264
		c0.902-0.434,1.136,0.875,1.395,0.951l-0.143,0.025c0.213,0.807,0.244-0.344,0.567,0.041l-0.525,1.146l1.809,2.314l1.843,1.176
		l0.003,0.725l-1.41,0.684l0.444,0.624l0.263-0.587c0.27-0.697,0.753,0.891,1.029-0.025l1.665,2.271l-0.688,0.34l1.706,1.199
		l0.648-0.703l0.533,0.238l-0.534,1.4c-0.75,0.329-0.685-1.01-1.104-0.281c-0.687,0.127-1.523-0.873-1.396-1.326
		c-0.932-0.096,0.251,0.437-0.354,0.738l1.456,1.072l0.61-0.306c1.047,0.192,0.229,1.081,0.316,1.251l-0.381-0.189l0.94,0.877
		c-0.61,0.685-0.636-0.639-1.217-0.461l-0.251,0.713l1.097,0.569l-0.331,0.108l0.532,0.314l0.229-0.929
		c0.885-0.3,0.372,0.267,0.964,0.744l0.128-0.532l0.94,0.307l-0.327,0.983l-0.229-0.521c-0.852-0.279-0.588,0.896-1.195,0.696
		c0.156,0.788,0.804,0.037,1.094,0.575c-0.584-0.332,0.228-0.355,0.293-0.629c1.67-0.023-0.378,1.105,0.42,1.732
		c0.553-0.688,1.737,0.271,2.04-0.86l0.666,0.432l-0.792,0.613l0.215,0.28l-0.87,0.021l-0.055,1.658l0.813-0.105l-0.173,0.674
		l0.959-0.353l-0.023,1.093l-0.688-0.076l0.332,0.479l1.246-0.413l0.259,0.685l-0.592-0.196l0.021,1.104l0.466-0.147l-0.289,0.331
		l0.7,0.316l-0.192,0.234c0.346,0.107,1.069-0.044,0.84,0.626l-0.277-0.892l0.838,0.119c-0.618,0.465,0.413,0.647,0.626,0.929
		l-0.11,0.789l0.47-0.235c-0.654,0.744,0.578,0.434,0.687,0.906l-0.564,0.636l1.432-0.571c0.351,0.685-0.813,0.493-1.05,0.99
		l1.065,0.521l0.72-0.408l-0.179,0.658l0.809-0.439l0.991,0.788l1.093,0.022l1.066-0.559c0.058,0.042,0.097,0.096,0.143,0.145
		c-0.195-0.024-0.52-0.1-0.606,0.315l0.318,0.195c-0.178,0.94-1.733,0.162-1.857,0.953l0.518,0.118l-0.688,0.556l0.973,0.538
		l-0.04-0.35l1.403,0.479l-0.647,0.644l0.634,0.182l-0.23,0.169c1.218,1.297,2.894,2.821,4.732,2.972l0.731,1.856l0.483-0.285
		l-0.025,0.733l1.531,0.736l-0.151,0.426l0.739,0.107l-0.022,0.503l0.27-0.261l0.628,0.9l0.352-0.277l2.27,1.257l0.025-0.79h0.619
		l-0.37,0.568c0.585,1.224,2.384,1.332,3.604,2.078l0.482-0.201l2.586,1.5l0.941-0.725c0.692-0.271-0.046,0.803,0.309,1.32
		l0.98,0.148l-0.076,0.088l1.165,0.313l-0.063,0.013l0.817,0.756l1.199-0.156l0.024,0.232l0.13-0.41l0.526,0.504l-0.434,0.322
		l0.688-0.367c3.808-1.502,1.399-0.58,2.51-0.881c-0.857,0.653,1.872-0.613-2.377,1.229c-0.521,0.396,1.705-0.532,2.608-0.906
		l-0.081-0.611l0.798-0.554l0.048-0.843l-0.819,0.354l0.384-0.578l-0.066-0.432l0.764-0.064l0.163-1.071l1.182,0.267l-0.111-0.773
		l0.484-0.094c0.803-0.774-0.533-1.646,0.274-2.121l0.432,0.076l-0.015-0.466c1.423,0.025,1.571-1.942,2.722-2.665l0.034-0.906
		l0.805-0.705l-0.693-0.213c0.736-0.418-0.249-1.597,0.711-1.525l0.368,0.605C413.251,439.5,411.074,433.585,411.505,435.221z
		 M352.014,402.579l0.528-0.788L352.014,402.579z"/>
	<polygon fill="#B9DD84" points="395.155,418.029 395.223,418.074 395.511,418.084 	"/>
	<polygon fill="#B9DD84" points="408.202,444.963 408.037,445.26 408.349,445.309 	"/>
	<polygon fill="#B9DD84" points="408.037,445.26 407.942,445.24 407.939,445.4 	"/>
	<polygon fill="#B9DD84" points="357.954,415.286 357.821,415.15 357.61,415.689 	"/>
	<path fill="#B9DD84" d="M404.49,451.684v0.022C405.122,451.428,404.914,451.508,404.49,451.684z"/>
	<polygon fill="#B9DD84" points="404.837,449.421 404.824,449.457 404.844,449.641 	"/>
	<polygon fill="#B9DD84" points="374.986,434.975 374.986,434.961 374.179,434.957 	"/>
	<line fill="none" x1="352.014" y1="402.579" x2="352.541" y2="401.789"/>
	<polygon fill="#B9DD84" points="357.455,413.98 357.813,414.248 357.813,413.957 	"/>
	<line fill="none" x1="359.656" y1="416.653" x2="358.525" y2="416.063"/>
	<line fill="none" x1="360.613" y1="419.775" x2="360.235" y2="419.861"/>
	<line fill="none" x1="361.321" y1="420.159" x2="361.27" y2="419.559"/>
	<line fill="none" x1="365.12" y1="425.887" x2="364.764" y2="425.344"/>
	<polygon fill="#B9DD84" points="366.801,427.821 367.17,427.727 367.02,427.518 	"/>
	<polygon fill="#B9DD84" points="411.549,440.292 411.608,439.932 411.334,440.104 	"/>
	<line fill="none" x1="397.176" y1="418.225" x2="397.126" y2="418.65"/>
	<polygon fill="#B9DD84" points="387.516,409.581 387.433,409.497 387.058,409.936 	"/>
	<polygon fill="#B9DD84" points="182.636,151.808 182.603,151.847 182.647,152.022 	"/>
	<polygon fill="#B9DD84" points="172.952,120.391 173.06,120.44 173.312,120.461 	"/>
	<polygon fill="#B9DD84" points="185.834,147.633 185.739,147.62 185.733,147.784 	"/>
	<polygon fill="#B9DD84" points="135.715,117.643 135.605,117.519 135.396,118.05 	"/>
	<polygon fill="#B9DD84" points="186.006,147.347 185.834,147.633 186.148,147.69 	"/>
	<line fill="none" x1="151.965" y1="137.311" x2="152.765" y2="137.331"/>
	<path fill="#B9DD84" d="M127.18,98.763l0.685,4.134l0.84,0.959c0.461,0.548,0.912,1.162,1.36,1.721l-0.422-0.098l0.095,0.69
		l0.512,0.229l-0.356,0.255l1.473,1.783l0.132-0.547l1.005,1.115l-0.547,0.333l0.402,0.207l-0.738,0.278
		c0.918-0.438,1.133,0.864,1.409,0.954l-0.175,0.023c0.229,0.797,0.244-0.368,0.578,0.028l-0.518,1.145l1.799,2.313l1.838,1.187
		l0.024,0.724l-1.428,0.69l0.463,0.632l0.246-0.606c0.28-0.705,0.767,0.891,1.042-0.025l1.653,2.275l-0.684,0.352l1.714,1.217
		l0.645-0.729l0.527,0.247l-0.542,1.4c-0.759,0.326-0.671-1.021-1.093-0.291c-0.685,0.137-1.543-0.867-1.399-1.318
		c-0.94-0.104,0.238,0.433-0.345,0.743l1.468,1.065l0.599-0.304c1.043,0.198,0.203,1.069,0.305,1.256l-0.382-0.208l0.924,0.88
		c-0.606,0.674-0.618-0.633-1.175-0.46l-0.27,0.708l1.08,0.569l-0.303,0.122l0.488,0.313l0.256-0.933
		c0.866-0.288,0.354,0.257,0.962,0.748l0.136-0.53l0.932,0.306l-0.323,0.971l-0.23-0.507c-0.869-0.28-0.606,0.892-1.205,0.694
		c0.168,0.775,0.795,0.047,1.092,0.572c-0.556-0.326,0.234-0.361,0.31-0.618c1.669-0.026-0.362,1.114,0.432,1.737
		c0.526-0.691,1.72,0.267,2.02-0.878l0.68,0.443l-0.813,0.607l0.222,0.288l-0.863,0.01l-0.067,1.656l0.81-0.1l-0.15,0.679
		l0.941-0.355l0.023,1.104l-0.692-0.076l0.315,0.46l1.248-0.396l0.255,0.664l-0.596-0.188l0.018,1.096l0.463-0.136l-0.296,0.338
		l0.716,0.299l-0.197,0.228c0.318,0.107,1.07-0.03,0.851,0.641l-0.296-0.896l0.815,0.11c-0.604,0.469,0.432,0.636,0.637,0.932
		l-0.107,0.777l0.483-0.227c-0.66,0.734,0.58,0.438,0.649,0.917l-0.561,0.627l1.451-0.57c0.338,0.69-0.84,0.503-1.061,1.004
		l1.051,0.5l0.737-0.395l-0.187,0.655l0.823-0.455l0.977,0.809l1.104,0.019l1.043-0.573c0.049,0.051,0.092,0.104,0.137,0.155
		c-0.19-0.008-0.499-0.094-0.593,0.323l0.319,0.195c-0.194,0.938-1.756,0.146-1.864,0.951l0.503,0.103l-0.659,0.563l0.952,0.552
		l-0.018-0.359l1.37,0.464l-0.642,0.668l0.643,0.187l-0.246,0.165c1.244,1.29,2.91,2.817,4.761,2.975l0.715,1.851l0.5-0.28
		l-0.064,0.712l1.534,0.748l-0.128,0.43l0.725,0.089l-0.006,0.521l0.277-0.257l0.61,0.907l0.34-0.283l2.314,1.271l0.007-0.793
		l0.625,0.002l-0.383,0.565c0.597,1.227,2.392,1.333,3.596,2.075l0.474-0.199l2.601,1.501l0.925-0.73
		c0.737-0.263-0.046,0.796,0.342,1.335l0.961,0.145l-0.042,0.083l1.188,0.315h-0.08l0.835,0.771l1.186-0.164l0.022,0.235
		l0.114-0.421l0.532,0.508l-0.42,0.322l0.688-0.364c3.825-1.457,1.399-0.564,2.521-0.852c-0.862,0.649,1.867-0.599-2.393,1.199
		c-2.368,1.237,2.999-1.047,2.613-0.857l-0.104-0.637l0.81-0.547l0.054-0.844l-0.817,0.351l0.371-0.564l-0.063-0.44l0.747-0.062
		l0.2-1.066l1.178,0.258l-0.113-0.768l0.488-0.104c0.803-0.767-0.533-1.631,0.278-2.122l0.418,0.08l-0.024-0.458
		c1.433,0.026,1.591-1.941,2.739-2.676l0.037-0.903l0.802-0.697l-0.702-0.228c0.741-0.413-0.251-1.579,0.711-1.517l0.368,0.595
		c1.38,0.14-0.788-5.782-0.33-4.142l-1.028,0.368l-0.116-1.381l-0.596-0.522l0.428,0.014l-1.309-0.911l-0.868-1.886
		c-0.745,0.151-0.493-0.991-1.179-0.469l0.106-0.257l-1.115-0.021l0.501-0.293l-0.273-1.058l-0.579-0.025l-0.372-0.156l-0.789-0.371
		l0.439-0.378l-0.736-0.759c0.002-0.055-0.013-0.101-0.147-0.203l-0.212-0.598l0.397-0.204l-1.122-0.276l-2.479-2.492l0.275,0.053
		l-0.645-0.471l-0.279-0.847l-0.231,0.307l-1.987-2.365l0.597,0.038l-2.264-1.164l0.537-0.144l-1.245-0.705l-0.729-0.044
		l0.068-0.076l-0.938-0.695l0.398-0.134l-0.496-1.392l-0.56,0.073l-0.019-0.623l-1.654-0.05l-0.092-0.102l0.605-0.469l-1.313-0.347
		l-1.547-1.829l0.789-0.388l-1.422-1.868c-0.253,0.808-0.8-0.103-1.276,0.044l-0.223-0.271c-0.144-0.333,0.21-0.535,0.142-0.807
		l-1.75-1.801l0.127-0.077l-2.097-1.485l-0.092-0.102l0.385-0.128c-0.217-0.499-0.477-0.305-0.716-0.27l-0.208-0.239l0.254-0.055
		l-1.294-1.153l-0.016-0.005l0.407-0.072l-0.993-0.617l-0.362-0.421l0.396-0.146l-1.047-0.613l-0.015-0.021l0.033-0.471
		l-0.942-0.601l-0.274-0.299l0.031-0.717l-5.444-5.626l-0.646-0.75c0.245-0.62,0.735,0.209,0.908-0.314
		c-0.474,0.406-0.464-0.271-1.196-0.803l0.06-0.083l-0.604-0.801l-0.108,0.119c-0.586-0.065-0.018-1.247-0.772-0.904l0.116-0.543
		l-1.043-0.664l0.11-0.038l-1.276-1.188l-0.965-0.347l-0.327-0.39l0.342-0.269c-1.113-1.181-2.727-2.683-3.708-3.663l-0.979-1.14
		l-8.727,6.893c-0.535,0.326-0.896,0.705-1.353,1.072l-2.802,2.218l-0.254-0.038c-0.198,0.128-0.223,0.37-0.354,0.528l-0.846,0.681
		l0.263,1.628C127.063,98.108,127.095,98.42,127.18,98.763z M130.327,104.148l-0.554,0.783L130.327,104.148z"/>
	<line fill="none" x1="129.775" y1="104.932" x2="130.327" y2="104.148"/>
	<polygon fill="#B9DD84" points="135.227,116.342 135.593,116.6 135.594,116.314 	"/>
	<line fill="none" x1="137.432" y1="118.997" x2="136.296" y2="118.419"/>
	<line fill="none" x1="138.398" y1="122.129" x2="137.996" y2="122.212"/>
	<line fill="none" x1="139.103" y1="122.505" x2="139.031" y2="121.912"/>
	<line fill="none" x1="142.911" y1="128.248" x2="142.547" y2="127.692"/>
	<polygon fill="#B9DD84" points="144.585,130.183 144.963,130.079 144.802,129.879 	"/>
	<polygon fill="#B9DD84" points="189.352,142.672 189.414,142.321 189.137,142.479 	"/>
	<line fill="none" x1="174.923" y1="121.024" x2="174.992" y2="120.606"/>
	<polygon fill="#B9DD84" points="165.25,111.881 164.872,112.309 165.306,111.949 	"/>
	<path fill="#B9DD84" d="M331.404,478.673l0.451-1.319l-0.329-0.707l0.373,0.207l-0.813-1.354l-0.042-2.074
		c-0.748-0.163-0.052-1.103-0.889-0.901l0.218-0.174l-1.024-0.498l0.557-0.061c0.704-0.141-0.127-0.891,0.198-1.094l-0.506-0.232
		l-0.286-0.301l-0.587-0.658l0.58-0.178l-0.387-0.992c0.024-0.052,0.024-0.105-0.049-0.245l0.073-0.634l0.441-0.029l-0.922-0.699
		c0.069-1.188-0.91-2.896-1.281-3.283l0.243,0.156l-0.395-0.687l0.077-0.892l-0.331,0.18l-0.876-2.962l0.537,0.286l-1.603-1.986
		l0.539,0.092l-0.859-1.15l-0.637-0.334l0.102-0.026l-0.592-1.007l0.418,0.025c0.646-0.324,0.076-1.342,0.113-1.463l-0.515-0.15
		l0.221-0.59l-1.5-0.715l-0.043-0.125l0.738-0.187l-1.03-0.841l-0.704-2.314l0.89-0.027l-0.565-2.291
		c-0.562,0.646-0.679-0.383-1.179-0.469l-0.102-0.342c0.02-0.355,0.407-0.39,0.455-0.667l-0.888-2.362l0.167-0.009l-1.334-2.239
		l-0.026-0.112l0.379,0.024c0.024-0.535-0.288-0.461-0.524-0.516l-0.104-0.299l0.274,0.066l-0.737-1.607l0.401,0.1l-0.646-0.968
		l-0.176-0.534l0.433,0.028l-0.692-0.972l-0.027-0.035l0.253-0.414l-0.651-0.94l-0.11-0.366l0.31-0.631l-2.715-7.406l-0.291-0.893
		c0.485-0.475,0.606,0.498,0.969,0.078c-0.586,0.191-0.322-0.421-0.77-1.21l0.073-0.063l-0.217-0.979l-0.161,0.066
		c-0.49-0.297,0.508-1.146-0.332-1.137l0.332-0.458l-0.69-1.034l0.136,0.016c0.093-0.752-1.162-1.176-0.706-1.604l-0.736-0.714
		l-0.14-0.475l0.432-0.099c-0.546-1.515-1.396-3.539-1.924-4.836l-0.433-1.443l-10.771,2.771c-0.637,0.075-1.114,0.281-1.691,0.436
		l-3.452,0.893l-0.234-0.143c-0.225,0.047-0.323,0.234-0.513,0.334l-1.058,0.275l-0.415,1.629c-0.108,0.305-0.19,0.617-0.258,0.938
		l-1.084,4.058l0.394,1.238c0.199,0.672,0.37,1.424,0.563,2.122l-0.347-0.271l-0.186,0.672l0.38,0.422l-0.416,0.096l0.603,2.201
		l0.342-0.43l0.445,1.427l-0.622,0.098l0.279,0.338l-0.788-0.028c1.02-0.051,0.688,1.244,0.903,1.426l-0.159-0.035
		c-0.109,0.814,0.374-0.23,0.511,0.26l-0.932,0.828l0.721,2.857l1.178,1.808c0.155,0.603-0.72,0.167-0.256,0.679
		c-0.637-0.021-1.146,0.814-1.599,0.043l0.189,0.752l0.463-0.451c0.535-0.523,0.344,1.146,0.955,0.391l0.606,2.771l-0.749,0.045
		l1.053,1.8l0.897-0.394l0.354,0.424l-1.049,1.074c-0.824-0.017-0.201-1.195-0.885-0.709l-0.739-1.779
		c-0.807-0.453,0.035,0.496-0.624,0.537l0.91,1.568l0.676-0.037c0.854,0.598-0.243,1.068-0.223,1.282l-0.273-0.343l0.496,1.195
		c-0.844,0.354-0.306-0.836-0.901-0.9l-0.526,0.546c0.137,0.858,0.769,0.046,0.779,0.969l-0.355-0.022l0.337,0.479l0.601-0.755
		l0.586,1.088l0.345-0.439l0.731,0.668l-0.691,0.757l-0.005-0.563l-1.398,0.155l0.786,0.961c-0.39-0.532,0.354-0.229,0.521-0.442
		c1.552,0.637-0.773,0.863-0.29,1.766c0.76-0.434,1.47,0.941,2.205,0.007l0.431,0.683l-0.99,0.23l0.079,0.354l-0.789-0.324
		l-0.728,1.482l0.784,0.229l-0.426,0.563l1.021,0.06l-0.444,1.009l-0.604-0.353l0.082,0.541l1.317,0.142l-0.026,0.716l-0.47-0.416
		l-0.437,1.029l0.482,0.037l-0.398,0.219l0.535,0.544l-0.277,0.136l0.511,0.921l0.104-0.94c0.439-0.452,0.604,0.349,0.688,0.439
		c-0.737,0.182,0.137,0.754,0.228,1.1l-0.403,0.664l0.502-0.024c-0.884,0.425,0.373,0.637,0.235,1.097l-0.754,0.355l1.554,0.076
		c0.032,0.757-0.944,0.111-1.37,0.48l0.75,0.891l0.842-0.073l-0.417,0.534l0.913-0.09l0.576,1.148l-0.725-0.35
		c0.305,0.882,1.237,0.043,1.704,0.785l1.202-0.076c0.024,0.056,0.038,0.123,0.074,0.185c-0.168-0.073-0.428-0.284-0.686,0.063
		l0.229,0.304c-0.574,0.786-1.676-0.571-2.108,0.127l0.434,0.286l-0.841,0.26l0.669,0.88l0.109-0.327l1.081,0.99l-0.846,0.332
		l0.484,0.43l-0.286,0.061c0.628,1.686,1.531,3.74,3.163,4.639l-0.106,1.992l0.571-0.066l-0.323,0.64l1.097,1.292l-0.298,0.328
		l0.626,0.388l-0.23,0.466l0.349-0.129c0.397,0.307,0.797,0.79,0.219,1.081l0.429-0.117l1.583,2.078l0.345-0.718l0.556,0.248
		l-0.564,0.38l2.442,3.339l0.522,0.007l1.756,2.432l1.163-0.298c0.773,0.055-0.361,0.725-0.231,1.355l0.837,0.527l-0.077,0.046
		l0.942,0.761l-0.086-0.021l0.464,1.028l1.154,0.344l-0.072,0.216l0.277-0.317l0.272,0.678l-0.502,0.121
		c0.278,0.749,0.382-0.152,0.773-0.068c4.091,0.184,1.491,0.04,2.65,0.23c-1.065,0.254,1.949,0.177-2.664,0.153
		c-0.653,0.142,1.773,0.205,2.744,0.224l0.168-0.589l0.954-0.178l0.372-0.756l-0.892-0.021l0.579-0.354l0.127-0.438l0.711,0.269
		l0.585-0.905c0.279,0.385,0.333,1.01,0.963,0.705l0.231-0.739l0.476,0.101c1.05-0.381,0.179-1.718,1.108-1.829l0.355,0.231
		l0.175-0.412c1.296,0.607,2.24-1.153,3.575-1.349c-0.452-0.521,0.324-0.465,0.406-0.816c0.332,0.636,0.493-0.493,1.024-0.313
		l-0.546-0.484c0.824-0.076,0.413-1.56,1.262-1.109l0.078,0.688c1.196,0.688,1.652-5.6,1.396-3.922L331.404,478.673z
		 M291.129,424.835l0.813-0.487L291.129,424.835z"/>
	<polygon fill="#B9DD84" points="324.447,456.398 324.51,456.486 324.737,456.605 	"/>
	<path fill="#B9DD84" d="M319.387,490.968l-0.024,0.021C320.057,490.982,319.84,490.987,319.387,490.968z"/>
	<polygon fill="#B9DD84" points="291.472,438.865 291.42,438.691 290.987,439.104 	"/>
	<polygon fill="#B9DD84" points="320.616,489.042 320.566,489.068 320.525,489.24 	"/>
	<polygon fill="#B9DD84" points="325.204,486.511 325.138,486.453 325.057,486.609 	"/>
	<polygon fill="#B9DD84" points="325.491,486.318 325.204,486.511 325.487,486.692 	"/>
	<line fill="none" x1="291.129" y1="424.835" x2="291.943" y2="424.344"/>
	<polygon fill="#B9DD84" points="291.543,437.475 291.763,437.859 291.886,437.604 	"/>
	<line fill="none" x1="292.472" y1="440.795" x2="291.686" y2="439.803"/>
	<line fill="none" x1="292.094" y1="444.049" x2="291.716" y2="443.975"/>
	<line fill="none" x1="292.772" y1="444.104" x2="292.583" y2="444.68"/>
	<line fill="none" x1="293.762" y1="451.477" x2="293.656" y2="450.816"/>
	<polygon fill="#B9DD84" points="294.5,453.905 294.896,453.98 294.853,453.723 	"/>
	<polygon fill="#B9DD84" points="330.444,483.399 330.637,483.097 330.325,483.146 	"/>
	<line fill="none" x1="325.997" y1="457.775" x2="326.213" y2="457.41"/>
	<polygon fill="#B9DD84" points="320.814,445.497 320.305,445.727 320.862,445.596 	"/>
	<path fill="#B9DD84" d="M207.867,63.572l-0.352-0.263l-0.164,0.67l0.375,0.417l-0.434,0.093l0.621,2.214l0.331-0.434l0.461,1.423
		l-0.62,0.104l0.271,0.321l-0.767-0.027c1.008-0.036,0.689,1.254,0.896,1.436l-0.148-0.037c-0.13,0.813,0.355-0.236,0.493,0.262
		l-0.935,0.837l0.723,2.841l1.196,1.82c0.148,0.586-0.755,0.15-0.28,0.666c-0.61-0.012-1.134,0.816-1.568,0.045l0.174,0.762
		l0.473-0.457c0.526-0.531,0.322,1.124,0.942,0.396l0.611,2.754l-0.76,0.042l1.072,1.813l0.872-0.402l0.378,0.431l-1.063,1.072
		c-0.805,0.008-0.2-1.196-0.888-0.703l-0.733-1.78c-0.815-0.469,0.049,0.503-0.636,0.535l0.93,1.571l0.664-0.032
		c0.876,0.604-0.229,1.074-0.229,1.267l-0.271-0.332l0.5,1.182c-0.836,0.368-0.332-0.837-0.89-0.896l-0.528,0.536
		c0.119,0.859,0.767,0.054,0.742,0.972l-0.339-0.027l0.32,0.487l0.636-0.75l0.564,1.084l0.344-0.433l0.735,0.652l-0.693,0.762
		l-0.01-0.567l-1.374,0.159l0.765,0.964c-0.383-0.528,0.356-0.229,0.519-0.455c1.568,0.655-0.76,0.884-0.308,1.761
		c0.776-0.42,1.471,0.939,2.211,0.02l0.43,0.682l-0.955,0.228l0.083,0.346l-0.806-0.338l-0.727,1.498l0.794,0.234l-0.418,0.558
		l1.011,0.046l-0.454,1.016l-0.596-0.354l0.104,0.559l1.3,0.134l-0.026,0.712l-0.474-0.404l-0.422,1.017l0.472,0.052l-0.398,0.193
		l0.532,0.563l-0.278,0.13l0.519,0.917l0.104-0.929c0.44-0.46,0.617,0.346,0.709,0.433c-0.748,0.188,0.128,0.755,0.199,1.111
		l-0.42,0.652h0.535c-0.896,0.411,0.355,0.624,0.234,1.094l-0.772,0.353l1.572,0.065c0.027,0.759-0.979,0.12-1.377,0.489
		l0.754,0.878l0.82-0.071l-0.417,0.54l0.903-0.103l0.596,1.149l-0.741-0.353c0.329,0.892,1.256,0.058,1.734,0.799l1.196-0.089
		c0.016,0.065,0.039,0.13,0.038,0.186c-0.149-0.076-0.412-0.291-0.658,0.05l0.236,0.327c-0.57,0.777-1.677-0.572-2.099,0.119
		l0.412,0.301l-0.83,0.25l0.654,0.877l0.107-0.337l1.095,0.999l-0.862,0.331l0.503,0.423l-0.281,0.062
		c0.604,1.679,1.515,3.746,3.146,4.642l-0.096,1.977l0.584-0.055l-0.325,0.649l1.081,1.281l-0.295,0.329l0.628,0.4l-0.221,0.46
		l0.353-0.127c0.395,0.309,0.803,0.792,0.187,1.072l0.447-0.114l1.583,2.082l0.351-0.722l0.558,0.251l-0.565,0.368l2.443,3.348
		l0.503,0.012l1.788,2.415l1.145-0.291c0.776,0.054-0.356,0.725-0.243,1.36l0.842,0.529l-0.079,0.043l0.941,0.766l-0.08-0.008
		l0.467,1.025l1.147,0.338l-0.07,0.217l0.268-0.328l0.271,0.674l-0.522,0.116c0.284,0.766,0.386-0.152,0.763-0.065
		c4.12,0.187,1.528,0.049,2.682,0.229c-1.063,0.25,1.953,0.19-2.667,0.161c-0.672,0.137,1.769,0.195,2.732,0.225l0.168-0.597
		l0.967-0.179l0.378-0.748l-0.896-0.015l0.582-0.375l0.126-0.42l0.721,0.249l0.568-0.9c0.289,0.382,0.353,0.996,0.981,0.704
		l0.224-0.74l0.484,0.106c1.038-0.382,0.179-1.726,1.117-1.843l0.353,0.242l0.158-0.43c1.314,0.607,2.239-1.146,3.572-1.333
		c-0.454-0.531,0.367-0.469,0.413-0.82c0.335,0.627,0.491-0.486,1.023-0.317l-0.563-0.481c0.854-0.074,0.412-1.559,1.258-1.114
		l0.101,0.7c1.218,0.688,1.584-5.613,1.354-3.932l-1.071-0.072l0.452-1.316l-0.333-0.714l0.357,0.203l-0.81-1.369l-0.044-2.067
		c-0.735-0.154-0.05-1.104-0.876-0.902l0.212-0.169l-1.037-0.482l0.569-0.073c0.693-0.137-0.121-0.898,0.186-1.09l-0.511-0.243
		l-0.282-0.294l-0.555-0.663l0.542-0.166l-0.373-0.993c0.025-0.04,0.036-0.096-0.055-0.245l0.059-0.638l0.444-0.027l-0.921-0.705
		c0.076-1.167-0.891-2.88-1.266-3.275l0.229,0.16l-0.38-0.674l0.083-0.895l-0.339,0.177l-0.868-2.961l0.54,0.282l-1.605-1.977
		l0.546,0.085l-0.861-1.153l-0.637-0.332l0.084-0.033l-0.562-1.012l0.404,0.029c0.646-0.324,0.072-1.332,0.124-1.466l-0.534-0.146
		l0.217-0.6l-1.486-0.714l-0.052-0.13l0.749-0.188l-1.042-0.831l-0.705-2.315l0.899-0.026l-0.551-2.291
		c-0.565,0.639-0.681-0.396-1.184-0.482l-0.106-0.342c0.013-0.348,0.408-0.386,0.451-0.667l-0.863-2.359l0.141-0.013l-1.329-2.227
		l-0.023-0.121l0.378,0.025c0.021-0.529-0.278-0.456-0.531-0.502l-0.093-0.323l0.263,0.071l-0.718-1.606l0.405,0.104l-0.673-0.975
		l-0.147-0.532l0.407,0.028l-0.7-0.966l-0.012-0.046l0.229-0.407l-0.648-0.941l-0.114-0.366l0.313-0.633l-2.706-7.344l-0.292-0.962
		c0.481-0.457,0.596,0.504,0.96,0.084c-0.592,0.194-0.314-0.411-0.754-1.21l0.066-0.053l-0.211-0.983l-0.146,0.068
		c-0.518-0.304,0.473-1.152-0.348-1.14l0.339-0.444l-0.717-1.043l0.141,0.01c0.095-0.755-1.162-1.177-0.687-1.597l-0.742-0.725
		l-0.141-0.465l0.432-0.104c-0.541-1.416-1.299-3.284-1.84-4.579l-0.5-1.664l-10.844,2.776c-0.621,0.076-1.069,0.28-1.631,0.417
		l-3.503,0.891l-0.229-0.138c-0.202,0.046-0.322,0.243-0.497,0.323l-1.038,0.285l-0.432,1.647c-0.104,0.312-0.198,0.591-0.241,0.942
		l-1.067,4.053l0.381,1.244C207.497,62.12,207.694,62.878,207.867,63.572z M208.675,62.366l-0.815,0.495L208.675,62.366z"/>
	<path fill="#B9DD84" d="M236.098,128.987l-0.002,0.016C236.788,128.997,236.574,128.997,236.098,128.987z"/>
	<polygon fill="#B9DD84" points="241.942,124.518 241.862,124.474 241.792,124.636 	"/>
	<polygon fill="#B9DD84" points="242.201,124.322 241.942,124.518 242.198,124.698 	"/>
	<polygon fill="#B9DD84" points="237.31,127.065 237.297,127.069 237.261,127.256 	"/>
	<polygon fill="#B9DD84" points="241.146,94.398 241.208,94.479 241.44,94.6 	"/>
	<line fill="none" x1="210.472" y1="89.493" x2="210.352" y2="88.841"/>
	<polygon fill="#B9DD84" points="211.239,91.938 211.631,92.001 211.544,91.754 	"/>
	<polygon fill="#B9DD84" points="247.156,121.405 247.358,121.102 247.039,121.147 	"/>
	<line fill="none" x1="242.699" y1="95.774" x2="242.901" y2="95.409"/>
	<path fill="#B9DD84" d="M369.759,210.037c0.164,0.107,0.329,0.202,0.488,0.313C370.904,209.809,370.462,209.861,369.759,210.037z"
		/>
	<path fill="#B9DD84" d="M222.765,145.12c-1.254-0.778-0.178-3.633-2.176-3.13c-0.617,3.102,3.61,5.733,6.884,5.695
		c0.262,0.217,0.302,0.382,0.453,0.58c-0.663-1.146-0.992-2.274-0.683-3.445C225.75,144.717,223.545,142.451,222.765,145.12z"/>
	<path fill="#B9DD84" d="M228.346,148.938c-0.151-0.226-0.299-0.448-0.429-0.68"/>
	<path fill="#B9DD84" d="M350.657,315.119c0.093-0.448,0.2-0.861,0.152-1.399"/>
	<path fill="#B9DD84" d="M139.461,292.566c0.394-0.275,1.016-0.199,1.543-0.286C140.604,291.573,140.121,291.437,139.461,292.566z"
		/>
	<path fill="#B9DD84" d="M166.823,184.722c-0.291,0.198-0.562,0.632-0.803,1.586"/>
	<path fill="#B9DD84" d="M228.703,142.589c-0.868,0.778-1.255,1.505-1.464,2.226C227.974,144.858,228.563,144.436,228.703,142.589z"
		/>
	<path fill="#B9DD84" d="M295.07,158.381c-0.232,0.313-0.499,0.354-0.746,0.589"/>
	<path fill="#B9DD84" d="M227.417,342.325c-0.164,0.085-0.284,0.328-0.444,0.472c0.449,0.205,0.818,0.383,1.326,0.62
		L227.417,342.325z"/>
	<path fill="#3BA7A1" d="M342.158,367.598c8.931,5.367,13.996-6.74,22.642-8.225c-3.714-3.588,1.619-3.484,1.553-5.987
		c3.255,4.306,2.563-3.653,6.387-2.724l-4.545-2.987c5.674-1.095-0.716-10.989,5.96-8.765c2.986-0.925,2.323,3.181,2.203,4.637
		c7.099,1.002,2.836-10.464,9.541-9.29c-1.556-1.482-4.997-2.615-4.787-6.297c3.464-0.637,8.555-3.819,9.058-3.044
		c0.12-2.55-1.148-3.805,1.649-5.152c1.146,0.795,0.832,1.852,1.014,2.848c2.928-3.04,2.674-6.771,1.757-10.806
		c4.389-0.685,4.801-8.11,7.912-12.218c-4.569-3.454,2.897-7.45-3.48-8.515l1.976-0.571c-1.676-1.909-5.674-3.448-5.796-5.446
		l4.15,0.766c5.629,0.636,0.903-6.121,3.455-6.809c-3.457,2.063-0.149-2.486-3.403-2.417l-1.569-2.362
		c-1.462-3.759-2.112-0.217-3.166-4.847c-0.767-2.528,4.748-1.832,4.3-0.737c1.718-2.733-0.184-4.759-1.779-6.843
		c-0.024-0.112-0.024-0.206-0.079-0.341c0.2-0.704-0.018-1.6-0.241-2.542c0.143-0.153,0.081-0.349-0.127-0.584
		c-0.179-0.816-0.221-1.617,0.25-2.281l3.367-0.328c-0.366-1.807-5.316-5.161-6.579-4.452c0.036-6.765-6.845-15.59-10.137-17.875
		c1.095,0.438,2.124,0.05,0.676-0.223c-1.743-1.813-5.46-2.565-3.75-3.77c-2.308-1.026,0.89-2.825-0.679-5.732
		c0.57-0.442-3.026,1.438-2.164,1.942c1.262-7.785-10.146-8.039-11.663-15.207c-0.329,0.944,2.359-0.038,3.721-0.385
		c-4.379-2.892-8.78-5.426-14.997-5.221l3.692-1.776c-2.673-2.262-6.337-4.277-9.439-2.89c0.774,2.698,1.246-1.313,2.34-0.153
		c-0.065,3.818-5.224,3.383-6.333,1.385l0.375-0.607c-2.512-2.141-3.668-0.755-6.605-2.187c-0.688-2.523,2.011,0.036,2.476-2.06
		c2.242-4.804-5.238-6.642-5.521-7.489c-1.285,0.623-2.741,0.845-3.233,2.196c-2.964,0.021,0.258-3.357-1.518-4.02
		c-3.85,2.057-7.142,3.541-10.64,6.431c1.96-0.54-0.615-4.94,2.552-6.415c-5.766-0.506-10.253,4.917-13.626,7.628
		c-1.294-1.146-6.097,0.051-7.578-0.032c-0.586-2.909,1.292,0.44,1.789-1.692l-2.237-3.737c3.364,0.193-0.229-5.068,1.77-6.747
		c-2.982,0.643-9.798,0.78-14.418,0.271c3.688,5.556-5.432,3.799-4.167,9.045c-4.438,1.712-3.333-3.873-5.499-4.716l-13.323,6.424
		l-0.255-1.106c-3.126,3.47-10.147,5.343-11.375,11.48l-0.736-2.981c-5.066,0.494,2.9,6.303-3.367,5.929l-0.423-2.796
		c-1.451,3.118-7.446,2.065-6.489,7.687c-1.211-0.827-1.063-1.768-1.309-2.669c-1.23,3.391-3.97,6.156-2.771,10.537
		c-1.672-0.68-2.619-1.909-2.779-3.722c-3.706,1.502,1.582,5.647-1.504,7.13c-0.641,0.621-3.401,0.75-3.188,0.206
		c1.167,2.63-1.3,6.492-1.356,8.393c-1.741-0.547-2.86,0.188-5.481,0.907c-7.87,14.17-16.047,33.573-6.807,49.158
		c-4.406,4.067-4.517-3.231-7.642-0.78c4.544-0.957,2.212,2.835,5.381,7.712l-0.549,0.463c1.625,1.837-0.625,4.428,1.508,6.246
		l1.017-0.69c2.999,0.977-1,7.809,4.516,5.479l-1.044,3.534c5.882-1.708,2.03,4.192,7.538,3.259l-0.915,0.453
		c2.037,4.962,10.039,1.396,8.927,5.98c3.588,0.812,7.958,1.046,10.303-2.38c-0.004,1.651-1.527,3.751-2.621,4.812
		c12.621,1.339,27.735,11.976,37.141,0.482l0.211,2.55c4.995-6.161,15.801-0.482,15.932-10.887l-0.862-4.25
		c1.835,0.395,3.37,2.672,5.087,2.993c-0.694-2.804,4.361-4.074,2.03-6.997l2.243,2.333c2.168-2.197-1.231-7.521,1.042-8.524
		l1.185,1.235c12.571-9.6,4.012-38.217-9.816-42.353c-3.385-1.498,2.854-4.375,1.379-5.279
		c-11.088-10.527-32.959-5.764-28.51,12.867c-1.729,9.876,8.637,16.333,8.662,16.307c0.174-2.661,0.822-4.826,1.675-6.708
		c0.137,0.79,0.231,1.41,0.39,2.335c4.002,4.432,8.134,13.506,7.125,14.396c1.702,1.33,0.306-1.345-9.108,2.359
		c0.12,0.222-2.498,0.554-5.146,0.853c-4.587-2.036-9.229-3.536-14.478-4.202c0.467,1.739-1.717,3.488-3.208,3.765l0.309-1.286
		l-3.161,2.147c-1.898-0.271,0.721-3.449,2.328-3.48c-5.816-3.826-11.624-5.387-11.197-9.445c-4.175,1.313-0.655-1.564-5.433-0.632
		l2.037-0.316c-4.605-1.842-2.827-4.406,3.159-7.314c10.169-19.873,15.125-40.558,38.681-46.477
		c18.267-7.888,38.111-5.925,57.6,15.38c8.528-1.49,9.079,5.494,17.166,6.466l-2.035,0.876c4.561,1.386,2.664,6.396,2.167,11.63
		c2.313-1.043,1.552,1.578,5.012-0.881c4.104,0.375-3.864,5.514-1.044,7.138c-1.303,0.585,2.338-0.938,1.242,0.052
		c6.58,4.716-2.5-0.14-4.271,8.47c4.123,9.277,8.048,20.885,1.502,29.688c0.114-0.636,3.413,0.341,2.939,1.35
		c-6.742-1.842-0.013,4.015-3.332,4.638l-1.485-2.502c-4.163,2.824-3.579,8.405-8.709,10.45c-0.854,5.278-8.732,5.293-8.78,9.818
		c-1.298-2.541-2.942-0.064-4.55-0.395c2.417,8.543-8.95,3.765-9.607,10.516l-0.666-1.255
		c-11.963,8.828-23.791,12.666-36.594,19.411c-7.659,2.434-16.668-3.114-23.997-0.229c-1.465,1.044-0.4,2.853-1.646,3.563
		c-2.028-0.209,0.179-2.521-0.548-3.48c-4.286,3.71-8.575-2.133-13.07-2.462c-0.875,1.26-2.227,1.102-2.335,3.107
		c-3.197-6.859-12.732-2.565-15.771-9.246c-1.797,7.012-4.986,1.844-7.469,1.729c-0.794-0.99,0.274-2.51,1.352-3.396
		c-3.994-1.817-6.262-2.917-8.709-8.116c-2.276-1.061-5.556,1.354-6.91-1.638c2.26-4.768-4.117-4.859-4.78-8.294
		c-2.733,3.333-7.797,2.207-8.27-1.429l5.315-2.775c-9.104-5.553-10.601-21.128-21.49-28.41l2.891-2.035
		c-2.378-0.042-0.787-21.094-4.934-30.491c2.278-2.976,4.111-7.738,4.504-10.818c-2.558-4.911-1.27-6.036-5.115-10.121
		c0.179-1.666,3.13-1.837,4.461-2.058c2.686-4.85,7.86-8.011,5.132-13.646l2.756,1.088c-0.788-4.605-1.379-12.34,4.059-14.377
		c-1.395-2.421,0.816-6.871-3.299-7.164c0.733-1.954,4.739,2.032,3.486-1.448l2.239,4.046c6.938-7.778,11.999-15.105,19.565-22.925
		c5.297,2.714,8.067-6.175,15.111-5.813c2.12-4.059,9.063-2.89,9.695-9.4l1.116,2.722c4.685-1.151,10.893-3.172,17.461-2.808
		c3.743,0.082,2.918-4.301,5.631-6.273l0.653,2.875c2.927-2.188,3.195-6.822,4.082-9.932c2.837,1.667,2.9-0.452,5.698,1.195
		c-2.344,1.926-4.083,5.369-5.129,9.526c3.965,0.792,7.252-7.282,10.143-2.761c3.496,0.906,6.061-0.469,6.159-4.408
		c-0.67,1.312,2.29,2.164,0.483,4.029c2.381-0.279,3.896-0.704,5.347-2.167c-0.449-0.105-1.036-0.454-1.513-0.353
		c1.194-2.982,3.758-2.815,3.221-7.276c-1.337,1.146-1.399,1.856-3.099,1.509c0.629-3.111,5.188-3.984,6.25-1.206
		c1.213,3.179-3.028,5.162-1.043,7.062l7.579-7.658c-1.655,2.531-4.176,0.39-3.378-2.69l-2.965,1.871l0.229-3.214
		c-4.938,1.178-8.437-2.239-13.422,0.715l2.035,3.182c-2.967,0.321-5.535,4.911-8.482,1.247c1.206-1.261,0.129-2.853-0.047-4.652
		c-0.643,0.637-1.299,1.924-2.159,1.539l0.894-5.665c-0.688,7.424-7.839,3.675-9.095,5.017l0.301-1.072
		c-4.783-1.768,1.198,2.966-1.757,3.442c-2.675-0.566-1.852-5.836-4.611-7.796c-4.683,1.233-11.477,6.654-17.597,4.036
		c-3.788,2.198-7.626,5.5-10.243,8.979c-3.465,1.165-1.875-5.6-4.448-1.748c-0.295-2.01-1.582-3.693-2.619-5.297
		c0.446,2.24-6.818,2.714-1.98,5.993c-5.456,1.271-11.575,3.313-15.894,7.672c1.462-1.334,0.166-4.697-2.208-5.28
		c-0.671,4.527-3.589,8.658-8.297,10.662c2.214,2.793,3.538,1.947,5.21,5.066c-0.285,0.801-0.132,2.861-1.177,3.398
		c-2.831-2.513-6.211-7.189-9.746-4.269c-2.868-5.358,6.36-4.588,1.17-7.788c-1.429-5.267,6.144-10.088,9.274-8.738
		c0.959-6.576-3.177,1.298-5.175-3.268c-3.077,2.672-3.478,5.237-7.606,9.914c1.522,2.01,3.25,0.993,2.484,4.381
		c-0.528,7.427-7.311,1.511-8.558,2.3l1.11-2.789c-3.894,1.115-2.52,4.498-5.479,6.824c-5.583-4.063,3.987-4.657,2.263-8.633
		l-5.432-1.617c-5.107,3.771,2.548,5.057-3.284,8.147l-1.231-2.226l-1.46,4.084c1.884,1.761,5.117,3.54,6.915,0.805
		c3.271,5.984-1.22,2.889-3.498,7.72c1.834,3.641,1.07-1.923,3.905,0.406c2.829,1.817,0.859,4.484-0.134,6.752
		c-2.412,3.075-4.42-0.843-7.409-1.022c0.007-0.968,1.595-3.819,3.055-2.229c0.215-6.464-7.458-2.942-7.236-7.478
		c-4.356,2.005-0.771,4.54-1.098,6.997c1.138-0.738,2.65,2.63,4.271,2.679c4.255,11.129-9.037-0.912-10.808,6.126
		c6.033,2.214,3.773,12.053,12.033,11.435c0.317,1.841,0.825,4.079-0.443,5.063c-3.168-3.429-4.274,0.866-6.657-3.572l-1.095,1.99
		l-3.035-5.452c-3.865,0.909-8.599,3.72-11.169,4.236c0.151,3.96,4.338,0.689,3.496,4.76c-1.523-2.169-4.324-0.621-4.725,1.139
		c2.686-2.756,5.754,2.258,6.128,4.656c-0.947,3.222-5.67,4.531-6.486,3.741l-2.499-4.464c2.215,3.556-1.946,0.553-1.456,3.572
		c2.053,1.491,5.125,4.184,7.844,5.878c0.388,2.343-3.112,2.938-2.805,3.827l-1.521-4.054c-0.395,4.685-6.726-0.891-6.49,4.25
		l2.926,2.038c-0.788,0.763-2.413,0.877-3.389-0.315c2.198,1.299,0.727,3.826,1.568,5.118l-2.23-0.146
		c1.14,2.251,5.694,5.522,1.036,7.06c5.575-0.858,0.38-2.319,3.25-5.104c4.196-1.177,3.194,3.896,3.696,4.712
		c-5.671-1.244-1.222,4.73-1.572,6.902l-4.665,2.708l3.69,1.361c-7.5-0.007,1.081,4.694-1.528,6.976
		c-2.112-1.501-5.087-1.595-6.404,0.173c5.881-1.987,6.323,4.52,10.261,3.974c-1.938,4.313-7.027-1.447-10.898-0.381
		c4.266,2.485-2.774,5.001,2.748,6.718c1.696-3.215,3.52,0.646,5.958,1.355c-0.416,4.041-2.441-0.739-4.415,2.105
		c0.777,1.752,5.065,3.97,6.623,1.393c-1.167,2.358,4.147,4.92,0.757,7.562c-3.448,1.146-1.622-4.896-4.083-3.354
		c-0.31,5.642,8.573,2.71,9.766,7.696c1.857-2.215,7.986-0.35,10.068,1.83c-1.468,5.418-2.085-2.225-6.49,0.019l0.695,2.15
		c-6.038,3.497-10.022-6.109-14.914-2.914l2.063,2.393c-1.295-0.346-3.275-0.585-4.917-0.281c1.358,2.485,1.358,13.567,2.633,13.161
		c3.588-0.534-1.916-2.215,0.885-2.672c2.229,3.114,7.968,1.646,7.677,6.46c-3.229-1.128-4.083,2.779-6.313,2.723
		c-0.484,2.563,4.109-1.135,3.57,2.454l-2.078,0.593c4.034,10.453,11.977,22.598,24.503,25.029
		c-1.858,3.469,0.011,6.466,1.495,12.464c-0.567-2.707,2.743-2.388,4.037-1.692l-1.361,4.68c0.472,4.069,6.233,4.723,9.97,5.172
		l-1.483,2.726c0.293,3.983,3.875,0.431,5.316,0.499l-0.568,3.451l2.217-1.815c3.267,0.737,5.597,3.79,2.417,7.178
		c1.512,0.025,2.99,0.003,2.63-1.919c0.712,3.794,7.415,8.989,12.906,10.409c-1.657-2.215-0.635-3.397,0.74-5.964
		c3.229-3.741,0.494,1.439,3.834-0.031c-0.916,1.58,0.243,4.354-2.72,4.29c3.119,9.236,14.853,9.358,23.16,13.11
		c2.005-0.103,1.697-1.073,2.901-2.036c4.242,6.51,12.558,2.368,18.231,5.685c-1.104-2.334,1.477-7.539,4.631-7.699
		c3.749-3.961,0.968,5.721,4.229,8.244c1.781-1.861,4.871-2.303,6.201-2.027l-0.125,0.697c2.044-2.199,5.107-3.166,7.542-1.754
		l-0.355,0.327c1.908,0.116,4.44,2.396,6.444,1.772c0.427-3.913,5.656-2.243,6.256-5.785l0.667,1.449l-0.414-3.199l4.246,1.267
		l-1.484,3.8c4.71,1.52,0.896-3.029,2.642-5.287c2.198-3.078,2.77,0.095,4.46,1.043c-0.787,1.908-2.246-0.155-2.784,0.619
		c-1.036,2.977,1.91,0.535,2.408,2.315c0.636-0.071-0.033-3.97,2.172-3.823c1.881-0.146,5.72-2.333,6.234,1.195
		c0.99-2.236,2.888-2.4,3.533-4.249c-1.647-0.181-4.524-0.283-5.479-2.356c1.167-0.791,3.363-2.44,4.248-1.08l-0.748,1.129
		c0.748-1.129,4.805-1.2,1.837-3.717l4.144,3.485c0.646-3.06,2.979-3.956,4.878-5.478c1.616,3.227,1.552,7.709,5.886,6.57
		l1.762-4.899c1.559-1.212,2.369-0.737,3.089,1.313c6.971-1.396,1.172-11.93,7.104-11.75c0.337,4.796,2.072,4.2,4.711,3.992
		c-0.28-0.66-0.849-1.963-0.101-2.59c-1.596-1.328,0.372,3.239-2.667,1.703C338.952,369.475,341.676,368.866,342.158,367.598z"/>
</g>
</svg>
