<?xml version="1.0" encoding="utf-8"?>
<!-- Generator: Adobe Illustrator 16.0.0, SVG Export Plug-In . SVG Version: 6.00 Build 0)  -->
<!DOCTYPE svg PUBLIC "-//W3C//DTD SVG 1.1//EN" "http://www.w3.org/Graphics/SVG/1.1/DTD/svg11.dtd">
<svg version="1.1" id="Layer_1" xmlns="http://www.w3.org/2000/svg" xmlns:xlink="http://www.w3.org/1999/xlink" x="0px" y="0px"
	 width="540px" height="540px" viewBox="0 0 540 540" enable-background="new 0 0 540 540" xml:space="preserve">
<g>
	<g>
		<path fill="#804A2C" d="M182.873,157.945c-1.218-0.301-2.495-0.422-3.729-0.194c-1.231,0.218-2.389,0.845-3.205,1.788
			c-0.828,0.939-1.328,2.109-1.682,3.301c-0.277,1.216-0.477,2.456-0.479,3.708c-0.036,1.25,0.058,2.5,0.18,3.741
			c0.126,1.254,0.325,2.468,0.61,3.698c0.269,1.225,0.471,2.473,0.796,3.68l1.032,3.595l0.414,1.443l-1.128-1.034
			c-1.547-1.416-3.019-2.92-4.673-4.188l-2.406-1.956c-0.868-0.583-1.728-1.249-2.6-1.738c-1.718-1.053-3.581-2.006-5.463-2.414
			c-1.88-0.423-3.744-0.21-4.988,0.893c-1.198,1.124-2.001,2.937-2.086,4.799c-0.043,1.622,0.389,3.706,1.019,5.536
			c1.308,3.761,3.36,7.318,5.664,10.659c2.349,3.321,5.063,6.393,7.98,9.241c0.771,0.728,1.418,1.375,2.243,2.068
			c0.794,0.704,1.589,1.387,2.373,1.995c1.556,1.255,3.214,2.524,4.887,3.702c3.352,2.384,6.897,4.515,10.52,6.435
			c1.808,0.972,3.663,1.819,5.524,2.563c0.934,0.366,1.863,0.667,2.776,0.914c0.419,0.063,0.917,0.228,1.27,0.237l0.536,0.048
			c0.064-0.034,0.125-0.031,0.208-0.003l0.124-0.048c-0.211,0.071-0.424,0.207-0.576,0.37l0.536-0.364l-0.136,0.066l-0.064,0.039
			c0.203-0.174-0.353,0.291-0.286,0.232l0.048-0.051l0.101-0.097l0.197-0.196c0.146-0.138,0.269-0.269,0.251-0.328
			c0.051-0.207,0.13-0.165,0.261-0.541c0.259-0.565,0.479-1.195,0.665-1.867c0.391-1.323,0.658-2.736,0.899-4.152
			c0.454-2.845,0.688-5.762,0.794-8.678c0.214-5.84-0.099-11.729-1.092-17.512c-1.011-5.795-2.813-11.444-5.518-16.703
			c-1.331-2.631-2.934-5.138-4.839-7.394c-0.969-1.109-1.964-2.212-3.128-3.127C185.555,159.198,184.309,158.342,182.873,157.945z
			 M182.873,157.945c1.44,0.378,2.703,1.219,3.867,2.12c1.18,0.902,2.192,1.995,3.18,3.099c0.969,1.121,1.854,2.313,2.691,3.534
			c0.813,1.24,1.616,2.488,2.34,3.785c1.447,2.59,2.682,5.301,3.738,8.079c0.521,1.393,1.037,2.79,1.471,4.225
			c0.477,1.435,0.818,2.834,1.203,4.302c1.383,5.814,2.079,11.779,2.24,17.77c0.078,2.998,0.031,6.004-0.257,9.03
			c-0.159,1.515-0.347,3.029-0.693,4.572c-0.162,0.768-0.376,1.551-0.681,2.356c-0.077,0.339-0.457,0.986-0.729,1.441
			c-0.167,0.287-0.292,0.428-0.41,0.552l-0.184,0.208l-0.092,0.104l-0.046,0.051c0.063-0.047-0.505,0.42-0.313,0.251l-0.094,0.058
			l-0.194,0.102l0.535-0.363c-0.19,0.186-0.44,0.344-0.691,0.437l0.122-0.048c-0.427,0.144-0.88,0.261-1.333,0.341l-1.041,0.008
			c-0.701-0.008-1.228-0.146-1.85-0.232c-1.133-0.254-2.217-0.567-3.26-0.93c-2.08-0.74-4.093-1.573-6.035-2.524
			c-3.916-1.847-7.584-4.109-11.144-6.534c-1.78-1.235-3.514-2.467-5.204-3.899c-0.869-0.699-1.662-1.401-2.435-2.104
			c-0.78-0.672-1.623-1.516-2.373-2.244c-1.551-1.52-3.012-3.13-4.407-4.797c-1.373-1.689-2.653-3.449-3.847-5.272
			c-2.361-3.658-4.394-7.575-5.556-11.884c-0.56-2.195-0.988-4.309-0.729-6.902c0.303-2.302,1.361-4.622,3.354-6.262
			c2.104-1.631,4.889-1.624,7.031-0.975c2.212,0.643,4.087,1.779,5.876,3.029c0.929,0.61,1.694,1.29,2.537,1.937l2.371,2.181
			c1.61,1.406,2.992,3.012,4.46,4.534l-0.715,0.407l-0.839-3.701c-0.281-1.229-0.434-2.475-0.657-3.712
			c-0.237-1.229-0.398-2.5-0.478-3.752c-0.077-1.259-0.124-2.522-0.038-3.782c0.009-0.632,0.11-1.256,0.179-1.884
			c0.057-0.628,0.249-1.237,0.37-1.855c0.372-1.203,0.896-2.384,1.75-3.326c0.841-0.949,2.023-1.569,3.269-1.772
			C180.381,157.491,181.662,157.63,182.873,157.945z"/>
		<path fill="#804A2C" d="M367.277,228.299c0.375-5.527-3.145-10.248-15.667-6.086c-3.254,1.074-6.441,2.585-8.634,3.661
			c1.405-1.997,3.402-4.908,4.995-7.95c6.082-11.692,1.976-15.917-3.534-16.429c-5.879-0.541-17.774,7.057-26.555,21.128
			c-7.99,12.791-12.708,30.495-10.579,33.556c0,0,0.027,0.037,0.039,0.05c0.018,0.025,0.047,0.047,0.047,0.047
			c2.68,2.593,20.907,0.742,34.804-5.113C357.478,244.728,366.871,234.2,367.277,228.299z"/>
		<path fill="#804A2C" d="M314.139,291.478c-1.535-0.531-3.068-1.078-4.646-1.477c-1.556-0.463-3.159-0.747-4.75-1.055
			c-1.605-0.258-3.212-0.492-4.829-0.592c-1.613-0.188-3.243-0.131-4.858-0.182c-1.62,0.098-3.244,0.079-4.85,0.315
			c-1.612,0.144-3.209,0.413-4.795,0.733c-1.604,0.24-3.137,0.801-4.696,1.199c-1.521,0.561-3.061,1.043-4.535,1.692
			c-1.463,0.68-2.968,1.261-4.357,2.079c-1.424,0.754-2.832,1.525-4.158,2.437c-1.375,0.834-2.686,1.763-3.945,2.756
			c-1.308,0.933-2.522,1.979-3.717,3.05c-0.59,0.522-1.234,1.074-1.753,1.592l-1.688,1.762c-1.165,1.156-2.217,2.363-3.202,3.591
			c-2.047,2.392-3.899,5.05-5.712,7.685l-1.463,2.131l-1.458-2.27c-2.008-3.131-4.198-6.063-6.587-8.789
			c-1.243-1.271-2.535-2.66-3.773-3.762c-1.427-1.193-2.865-2.557-4.279-3.462c-5.631-4.166-12.337-6.95-19.15-8.06
			c-6.856-1.039-13.894-0.61-20.559,1.17c-1.673,0.408-3.309,0.97-4.917,1.557l-1.199,0.463l-0.6,0.229
			c-0.271,0.108,0.287-0.116,0.2-0.078l-0.079,0.039l-0.157,0.076l-0.32,0.153c-0.813,0.406-1.77,0.821-2.468,1.224
			c-0.548,0.395-1.099,0.766-1.656,1.119l-1.729,1.405c-1.083,1.013-2.131,2.062-2.957,3.271c-1.713,2.369-2.859,5.078-3.422,7.939
			c-0.601,2.863-0.34,5.896,0.158,8.895c0.44,3.026,1.737,6.013,3.067,8.944c0.812,1.431,1.586,2.88,2.49,4.277
			c0.969,1.312,1.933,2.896,2.88,3.989c1.187,1.397,2.421,3.045,3.551,4.129c1.163,1.193,2.188,2.443,3.521,3.683
			c2.486,2.506,5.158,4.901,7.924,7.202c5.521,4.622,11.479,8.807,17.526,12.828c6.072,3.964,12.443,7.56,18.889,10.414
			c3.173,1.459,6.548,2.689,9.334,3.15l0.962,0.178c-0.103,0,0.072,0.002,0.097,0.002l0.087,0.004
			c-0.94,0.059-0.21,0.014-0.396,0.023l0.352-0.027l0.703-0.055c0.93-0.076,1.949-0.123,2.582-0.304l2.225-0.435l2.537-0.68
			c6.828-1.896,13.702-4.808,20.377-7.939c6.696-3.162,13.228-6.739,19.568-10.635c6.347-3.885,12.422-8.224,18.106-13.018
			c5.672-4.755,10.813-10.316,14.651-16.65c3.845-6.263,6.448-13.771,5.262-21.215c-0.549-3.679-2.037-7.235-4.396-10.145
			C320.787,295.118,317.628,292.885,314.139,291.478z M314.139,291.478c3.51,1.345,6.729,3.527,9.148,6.434
			c2.435,2.896,4.014,6.477,4.639,10.211c0.619,3.732,0.427,7.605-0.47,11.29c-0.852,3.702-2.223,7.294-4.063,10.624
			c-3.637,6.74-8.563,12.594-13.935,18.011c-5.392,5.39-11.301,10.2-17.354,14.822c-6.081,4.585-12.399,8.872-18.978,12.789
			c-6.612,3.886-13.324,7.584-20.786,10.42l-2.845,1.013c-1.009,0.323-2.166,0.604-3.254,0.891c-1.184,0.332-2.049,0.428-2.981,0.58
			l-0.699,0.111l-0.349,0.057l-0.916,0.053c-0.764,0.009-1.216-0.07-1.841-0.108c-4.688-0.409-8.52-1.616-12.309-2.954
			c-7.521-2.744-14.445-6.308-21.195-10.191c-6.762-3.864-13.132-8.356-19.254-13.256c-3.061-2.453-6.044-5.029-8.907-7.813
			c-1.438-1.313-2.904-2.883-4.307-4.434c-1.517-1.6-2.502-3.004-3.723-4.492c-1.458-1.801-2.417-3.467-3.637-5.215
			c-1.104-1.774-2.088-3.662-3.076-5.527c-1.729-3.909-3.354-7.951-3.979-12.406c-0.659-4.393-0.661-9.027,0.472-13.511
			c1.11-4.473,3.197-8.729,6.098-12.293c1.42-1.813,3.109-3.376,4.865-4.813c0.925-0.67,1.819-1.342,2.794-1.965
			c1.064-0.595,2.14-1.17,3.218-1.721c0.979-0.445,1.781-0.71,2.681-1.074l0.94-0.363l0.738-0.222l1.475-0.436
			c1.971-0.55,3.954-1.048,5.969-1.38c8.011-1.51,16.348-1.27,24.222,0.746c7.885,2.091,15.118,5.942,21.119,11.336
			c1.622,1.328,2.791,2.692,4.13,4.043c1.432,1.543,2.563,3.041,3.808,4.584c2.271,3.182,4.343,6.459,6.144,9.82l-2.923-0.14
			c2.085-2.565,4.163-5.108,6.544-7.479c1.159-1.226,2.343-2.377,3.574-3.42l1.825-1.621c0.675-0.588,1.324-1.023,1.972-1.557
			c1.286-1.037,2.587-2.046,3.98-2.934c1.347-0.952,2.737-1.834,4.188-2.618c1.405-0.856,2.889-1.572,4.378-2.267
			c1.461-0.758,3.029-1.271,4.55-1.887c1.531-0.58,3.126-0.994,4.687-1.477c1.605-0.324,3.178-0.791,4.796-1.03
			c1.608-0.298,3.223-0.539,4.853-0.653c1.622-0.211,3.261-0.164,4.889-0.23c1.628,0.079,3.263,0.05,4.882,0.267
			c1.628,0.132,3.232,0.396,4.838,0.683c1.591,0.338,3.193,0.65,4.745,1.145C311.091,290.345,312.613,290.918,314.139,291.478z"/>
		<path fill="#231F20" d="M360.837,368.505l7.32-21.936c0,0,78.514-12.993,44.464,56.547
			c-32.887,67.172-80.014,50.971-83.341,51.497l6.673-21.956c0,0,40.065,7.313,56.951-33.343
			C404.582,371.199,402.064,361.601,360.837,368.505z"/>
		<path fill="#231F20" d="M246.54,409.559c-60.354,0-110.654-26.833-122.073-62.462c6.644,36.283,34.776,152.342,122.073,147.538
			c0,0,100.031,15.149,122.72-149.813C359.287,381.575,308.159,409.559,246.54,409.559z"/>
		<path fill="#804A2C" d="M371.054,331.724c0,0-0.021,0.629-0.068,1.848c-0.025,0.609-0.059,1.365-0.093,2.265
			c-0.105,0.892-0.23,1.929-0.368,3.099c-0.327,2.34-0.953,5.188-1.946,8.465c-1.131,3.229-2.582,6.908-4.79,10.732
			c-4.39,7.641-11.447,15.958-21.211,23.456c-9.746,7.524-22.153,14.108-36.426,19.231c-14.286,5.095-30.521,8.56-47.904,9.815
			c-17.401,1.244-35.91,0.36-54.651-3.546c-18.635-3.992-37.681-10.93-54.195-22.992c-4.1-3.023-8.033-6.342-11.685-10.016
			c-3.607-3.71-6.89-7.8-9.706-12.236c-5.647-8.89-9.194-19.246-9.192-30.268l0.158-3.771c0.123-1.33,0.315-2.729,0.481-4.091
			c0.448-2.665,1.031-5.259,1.834-7.807c1.596-5.091,3.915-9.901,6.726-14.341c2.815-4.438,6.104-8.521,9.706-12.238
			c3.642-3.684,7.583-6.991,11.683-10.02c8.238-6.011,17.171-10.751,26.304-14.543c9.182-3.687,18.549-6.472,27.896-8.454
			c18.724-3.904,37.289-4.789,54.653-3.537c17.39,1.26,33.623,4.727,47.912,9.825c14.27,5.13,26.673,11.724,36.418,19.248
			c9.762,7.501,16.813,15.823,21.202,23.466c2.208,3.826,3.656,7.502,4.787,10.731c0.996,3.276,1.62,6.126,1.946,8.466
			c0.14,1.172,0.263,2.205,0.369,3.1c0.034,0.897,0.064,1.653,0.091,2.264C371.031,331.095,371.054,331.724,371.054,331.724z
			 M371.054,331.724c0,0-0.027-0.629-0.08-1.847c-0.026-0.608-0.064-1.362-0.105-2.262c-0.111-0.894-0.241-1.925-0.386-3.099
			c-0.343-2.332-0.982-5.174-1.995-8.439c-1.146-3.217-2.614-6.876-4.844-10.678c-4.411-7.598-11.491-15.877-21.372-23.129
			c-9.832-7.284-22.243-13.721-36.563-18.312c-14.299-4.63-30.451-7.574-47.608-8.303c-17.161-0.726-35.363,0.701-53.498,5.049
			c-18.034,4.462-36.233,11.735-51.667,23.346c-7.63,5.835-14.578,12.731-19.625,20.847c-5.085,8.138-8.096,17.215-8.075,26.941
			c-0.042,9.184,2.98,18.684,8.059,26.688c5.051,8.109,11.984,15.023,19.619,20.855c15.437,11.609,33.632,18.897,51.672,23.354
			c18.117,4.346,36.374,5.771,53.499,5.047c17.165-0.729,33.31-3.672,47.615-8.301c14.321-4.59,26.731-11.027,36.566-18.309
			c9.881-7.251,16.96-15.531,21.378-23.127c2.227-3.804,3.697-7.461,4.844-10.68c1.013-3.262,1.652-6.104,1.995-8.438
			c0.145-1.17,0.274-2.203,0.386-3.098c0.041-0.898,0.078-1.65,0.104-2.262C371.026,332.353,371.054,331.724,371.054,331.724z"/>
		<g>
			<path fill="#804A2C" d="M220.992,150.391c-0.052-0.102-0.44,1.233-2.651,2.07c-2.191,0.801-5.833,0.347-9.54-1.689
				c-3.705-2.022-7.855-5.274-11.272-10.256c-1.707-2.481-3.259-5.385-4.293-8.787c-1.051-3.379-1.47-7.338-0.713-11.425
				c0.714-4.085,2.652-8.164,5.42-11.556c2.816-3.449,6.06-6.183,10.14-8.496c4.271-2.382,9.259-3.699,14.421-3.598
				c5.14,0.069,10.235,1.469,14.772,3.792c9.12,4.652,16.305,12.542,20.788,21.987c2.199,4.751,3.693,9.946,4.205,15.366
				c0.52,5.414-0.066,11.044-1.727,16.348c-3.306,10.76-11.191,19.228-19.591,24.708l-2.735,1.796l-0.865,0.644l-0.979,0.811
				c-1.279,1.121-2.437,2.398-3.502,3.787c-2.147,2.768-3.846,6.053-5.159,9.553c-2.652,7.03-3.867,14.782-4.506,22.214
				c-0.633,7.461-0.668,14.702-0.565,21.417c0.174,6.717,0.544,12.921,0.841,18.45c0.359,5.547,0.67,10.383,0.93,14.366
				c0.275,3.998,0.357,7.172,0.403,9.328c0.039,2.159-0.038,3.311-0.038,3.311s-0.3-1.107-0.858-3.182
				c-0.6-2.061-1.478-5.08-2.592-8.926c-1.118-3.849-2.466-8.537-3.774-13.986c-1.378-5.439-2.737-11.643-3.831-18.528
				c-1.151-6.879-2.05-14.444-2.179-22.631c-0.09-8.173,0.48-17.023,3.246-26.221c1.447-4.568,3.481-9.224,6.496-13.58
				c1.511-2.168,3.284-4.231,5.282-6.109l1.544-1.368l1.782-1.399l2.814-1.973c6.443-4.395,11.411-10.255,13.601-17.017
				c2.193-6.738,1.583-14.43-1.371-21.293c-2.867-6.875-7.955-12.905-13.851-16.45c-2.957-1.745-6.083-2.877-9.164-3.198
				c-3.054-0.328-6.157,0.182-8.879,1.298c-1.337,0.534-2.964,1.458-4.258,2.328c-1.343,0.891-2.587,1.838-3.667,2.875
				c-2.18,2.065-3.709,4.449-4.531,7.027c-1.648,5.165-0.52,10.976,1.685,15.544c2.229,4.594,5.176,8.28,8.095,10.651
				c2.905,2.379,5.79,3.536,7.794,3.268C220.179,151.433,220.978,150.307,220.992,150.391z"/>
			<path fill="#804A2C" d="M301.98,209.762c0,0,0.322,0.645,1.431,0.956c1.079,0.342,2.794,0.258,4.82-0.26
				c2.021-0.532,4.4-1.625,6.5-3.408c2.114-1.787,3.587-4.452,3.342-7.372c-0.113-1.47-0.629-3.02-1.446-4.56
				c-0.826-1.516-1.917-3.184-3.161-4.353c-2.313-2.287-5.912-3.352-9.605-2.895c-3.729,0.428-7.506,2.442-10.238,5.339
				c-2.797,2.873-4.438,6.708-4.523,10.707c-0.022,2.001,0.229,4.054,0.818,6.082c0.25,1.019,0.68,2.014,1.063,3.016l1.566,3.252
				c0.465,0.888,1.201,2.844,1.519,4.252c0.378,1.461,0.542,2.934,0.604,4.377c0.117,2.894-0.301,5.626-0.914,8.174
				c-1.213,5.117-3.356,9.503-5.631,13.396c-2.241,3.921-4.701,7.334-7.092,10.355c-4.731,6.08-9.214,10.587-12.313,13.75
				c-1.562,1.569-2.787,2.803-3.624,3.645c-0.815,0.864-1.248,1.324-1.248,1.324s1.133-2.296,3.499-6.052
				c2.332-3.771,5.769-9.063,9.518-15.483c1.825-3.238,3.752-6.752,5.472-10.525c1.677-3.784,3.185-7.858,3.942-11.986
				c0.767-4.16,0.49-8.221-1.232-11.625l-1.732-3.439c-0.548-1.313-1.118-2.617-1.514-4.024c-0.832-2.771-1.382-5.751-1.228-8.79
				c0.227-6.094,2.965-12.069,7.19-16.202c4.22-4.161,9.786-6.609,15.471-6.978c5.713-0.463,11.539,1.964,14.986,6.201
				c1.661,2.035,2.747,4.036,3.557,6.241c0.804,2.185,1.271,4.532,1.122,6.846c-0.148,2.308-0.925,4.523-2.158,6.179
				c-1.204,1.68-2.685,2.88-4.143,3.759c-2.934,1.764-5.806,2.3-8.116,2.444c-2.322,0.139-4.177-0.338-5.254-0.972
				C302.114,210.478,301.993,209.723,301.98,209.762z"/>
			<path fill="#804A2C" d="M305.738,107.776c-0.005-0.131-1.193,1.21-4.244,1.075c-3.007-0.17-7.113-2.509-10.525-6.834
				c-3.414-4.298-6.662-10.417-7.781-18.256c-0.546-3.9-0.563-8.246,0.513-12.761c1.058-4.5,3.388-9.101,6.891-12.943
				c3.485-3.87,8.028-6.925,12.966-9.098c2.519-1.111,4.942-1.953,7.8-2.691l1.876-0.447l2.294-0.407
				c1.473-0.195,2.947-0.35,4.459-0.39c6.039-0.227,12.429,1.221,18.109,4.182c5.715,2.93,10.64,7.342,14.536,12.468
				c7.813,10.283,11.81,23.461,11.304,36.895c-0.286,6.714-1.742,13.522-4.541,19.87c-2.801,6.341-6.931,12.162-11.975,16.93
				c-5.02,4.819-10.973,8.426-17.085,11.123c-3.063,1.348-6.203,2.407-9.343,3.327c-1.578,0.413-3.154,0.84-4.733,1.151
				l-2.112,0.452c-0.68,0.159-1.531,0.322-2.072,0.476l-1.568,0.451l-1.722,0.59c-1.131,0.445-2.249,0.918-3.343,1.461
				c-2.181,1.097-4.29,2.397-6.298,3.878c-4.031,2.958-7.616,6.67-10.843,10.692c-6.449,8.083-11.403,17.349-15.513,26.416
				c-4.111,9.099-7.415,18.096-10.263,26.499c-2.766,8.434-5.119,16.277-7.161,23.265c-2.001,7.023-3.74,13.145-5.177,18.187
				c-1.411,5.063-2.677,9.018-3.549,11.703c-0.886,2.688-1.463,4.079-1.463,4.079s0.21-1.486,0.602-4.276
				c0.327-2.794,0.809-6.89,1.419-12.104c0.611-5.218,1.327-11.57,2.441-18.83c1.052-7.273,2.43-15.472,4.434-24.356
				c1.944-8.899,4.46-18.507,8.083-28.487c3.672-9.941,8.326-20.363,15.422-30.236c7.057-9.731,17.045-19.265,31.002-23.149
				c0.875-0.251,1.478-0.374,2.229-0.564l2.211-0.526c1.315-0.284,2.59-0.675,3.877-1.028c2.545-0.771,5.055-1.634,7.44-2.706
				c4.776-2.132,9.146-4.934,12.813-8.38c7.396-6.839,11.694-16.536,12.325-26.658c0.693-10.101-2.116-20.465-7.499-28.369
				c-5.369-7.968-13.497-12.926-22.021-13.226c-1.061-0.06-2.137-0.029-3.19,0.018l-1.458,0.127
				c-0.537,0.061-1.218,0.194-1.816,0.287c-2.02,0.353-4.319,0.932-6.314,1.573c-4.08,1.32-7.679,3.277-10.498,5.822
				c-5.698,5.069-7.96,12.541-7.823,19.251c0.143,6.744,2.067,12.723,4.543,17.038c2.497,4.312,5.609,7.063,8.235,7.673
				C304.267,108.651,305.764,107.677,305.738,107.776z"/>
		</g>
	</g>
</g>
</svg>
