<?xml version="1.0" encoding="utf-8"?>
<!-- Generator: Adobe Illustrator 16.0.0, SVG Export Plug-In . SVG Version: 6.00 Build 0)  -->
<!DOCTYPE svg PUBLIC "-//W3C//DTD SVG 1.1//EN" "http://www.w3.org/Graphics/SVG/1.1/DTD/svg11.dtd">
<svg version="1.1" id="Layer_1" xmlns="http://www.w3.org/2000/svg" xmlns:xlink="http://www.w3.org/1999/xlink" x="0px" y="0px"
	 width="540px" height="540px" viewBox="0 0 540 540" enable-background="new 0 0 540 540" xml:space="preserve">
<g>
	<circle fill="#D21C29" cx="108.848" cy="358.267" r="16.288"/>
	<path fill="#F78286" d="M495,314.891c-143.387-68.671-156.865,40.625-215.428,100.519
		c-22.567-117.308,153.275-264.913-73.64-371.078c37.068,53.484,35.81,110.315,25.415,164.588
		c-22.595-51.506-70.437-88.616-186.347-90.58c153.383,92.797,55.849,249.046,202.359,321.063c-0.031,0.015-0.062,0.029-0.095,0.046
		c0.11,0.021,0.215,0.036,0.325,0.06c0.019,0.011,0.036,0.018,0.048,0.028c-0.145,0.021-0.285,0.054-0.437,0.079
		c16.899,9.334,31.662,14.544,44.917,16.747c2.209,0.638,4.395,1.287,6.676,1.9c-0.271-0.363-0.514-0.736-0.779-1.104
		c73.227,7.527,99.797-78.559,192.969-57.399c-33.105-30.872-59.768-42.723-82.883-43.448
		C428.274,335.479,453.569,318.234,495,314.891z"/>
	<path fill="#D21C29" d="M321.073,495.065c-2.033,3.393-55.539-7.196-109.777-39.771c-54.239-32.585-88.672-74.825-86.64-78.212
		c2.034-3.389,43.961,33.223,98.202,65.796C277.096,475.456,323.11,491.676,321.073,495.065z"/>
</g>
</svg>
