<?xml version="1.0" encoding="utf-8"?>
<!-- Generator: Adobe Illustrator 16.0.0, SVG Export Plug-In . SVG Version: 6.00 Build 0)  -->
<!DOCTYPE svg PUBLIC "-//W3C//DTD SVG 1.1//EN" "http://www.w3.org/Graphics/SVG/1.1/DTD/svg11.dtd">
<svg version="1.1" id="Layer_1" xmlns="http://www.w3.org/2000/svg" xmlns:xlink="http://www.w3.org/1999/xlink" x="0px" y="0px"
	 width="540px" height="540px" viewBox="0 0 540 540" enable-background="new 0 0 540 540" xml:space="preserve">
<g>
	<path fill="#CCCCCC" d="M269.999,421.26c47.435,0,98.44-1.89,140.905-6.454c32.734-3.519,65.309-9.297,71.423-17.319
		c0.651-0.856,0.985-1.724,0.985-2.59c0-0.868-0.334-1.732-0.985-2.59c-5.901-7.743-36.433-13.394-67.974-16.94
		c-44.262,20.912-95.828,29.781-144.354,29.781c-48.529,0-100.097-8.869-144.358-29.781c-31.542,3.546-62.072,9.194-67.973,16.94
		c-0.651,0.856-0.982,1.722-0.982,2.59c0,0.866,0.331,1.732,0.982,2.59c6.116,8.022,38.688,13.802,71.426,17.319
		C171.557,419.37,222.564,421.26,269.999,421.26z"/>
	<path fill="#FFCA45" d="M269.999,130.428c47.435,0,98.44,9.012,140.905,30.753c32.734,16.766,65.309,44.32,71.423,82.573
		c0.651,4.083,0.985,8.212,0.985,12.345c0,4.131-0.334,8.263-0.985,12.341c-6.112,38.253-38.683,65.808-71.422,82.574
		c-42.464,21.745-93.474,30.756-140.906,30.756c-47.436,0-98.446-9.011-140.907-30.756c-32.739-16.767-65.308-44.32-71.424-82.574
		c-0.651-4.08-0.982-8.21-0.982-12.341c0-4.133,0.331-8.264,0.982-12.347c6.116-38.251,38.688-65.808,71.426-82.571
		C171.557,139.439,222.564,130.428,269.999,130.428z"/>
	<path fill="#FBB53D" d="M269.999,126.175c40.544,0,83.69,6.583,121.887,22.071c6.946,2.861,13.734,6.023,20.323,9.489
		c14.567,7.669,28.871,17.36,41.108,29.076c14.637,14.421,25.701,31.987,29.01,52.691c0.651,4.083,0.985,8.212,0.985,12.345
		c0,4.134-0.334,8.263-0.985,12.344c-6.112,38.25-38.683,65.808-71.422,82.571c-42.464,21.744-93.474,30.755-140.906,30.755v-4.372
		c106.18,0,192.29-49.299,192.29-110.087c0-60.79-86.109-110.086-192.29-110.086V126.175L269.999,126.175z M269.999,343.443
		l97.737-100.501c33.66,7.351,51.031,33.46,42.332,64.4c16.266-12.808,25.691-27.996,25.691-44.285
		c0-29.968-31.883-56.224-79.625-70.763l-86.137,88.571L269.999,343.443L269.999,343.443z M269.999,377.517
		c-47.436,0-98.446-9.011-140.907-30.755c-32.739-16.763-65.308-44.318-71.424-82.573c-0.651-4.081-0.982-8.208-0.982-12.342
		c0-4.133,0.331-8.264,0.982-12.346c3.309-20.677,14.348-38.23,28.959-52.64c12.248-11.738,26.572-21.444,41.161-29.125
		c6.567-3.458,13.341-6.611,20.265-9.468c38.211-15.504,81.382-22.091,121.942-22.091v26.794
		c-106.18,0-192.289,49.294-192.289,110.084c0,60.791,86.112,110.087,192.293,110.087V377.517L269.999,377.517z M269.999,280.865
		l-86.14-88.573c-47.739,14.539-79.626,40.795-79.626,70.763c0,16.288,9.432,31.477,25.695,44.283
		c-8.698-30.936,8.671-57.047,42.332-64.397l97.738,100.503L269.999,280.865L269.999,280.865z"/>
	
		<linearGradient id="SVGID_1_" gradientUnits="userSpaceOnUse" x1="-137.9995" y1="320.5586" x2="-137.9995" y2="58.9459" gradientTransform="matrix(1 0 0 1 408 -71)">
		<stop  offset="0" style="stop-color:#231F20"/>
		<stop  offset="1" style="stop-color:#6D6E70"/>
	</linearGradient>
	<path fill="url(#SVGID_1_)" d="M269.999,118.74c49.233,0,102.128,9.454,146.231,32.037c36.223,18.547,70.887,48.919,77.64,91.127
		c0.748,4.694,1.13,9.442,1.13,14.194c0,4.751-0.382,9.497-1.13,14.189c-6.748,42.208-41.415,72.582-77.64,91.132
		c-44.104,22.582-96.998,32.036-146.231,32.036v-27.271c109.183,0,197.726-49.3,197.726-110.086
		c0-60.79-88.543-110.086-197.726-110.086V118.74L269.999,118.74z M269.999,336.486l100.5-100.504
		c34.615,7.353,52.476,33.459,43.527,64.402c16.727-12.813,26.427-27.997,26.427-44.286c0-29.969-32.79-56.225-81.879-70.763
		l-88.575,88.574V336.486L269.999,336.486z M269.999,393.456c-49.235,0-102.13-9.456-146.233-32.036
		c-36.224-18.55-70.89-48.924-77.638-91.132C45.378,265.596,45,260.85,45,256.099c0-4.753,0.378-9.5,1.128-14.194
		c6.75-42.21,41.417-72.581,77.641-91.127c44.103-22.585,96.997-32.037,146.23-32.037v27.273
		c-109.184,0-197.728,49.296-197.728,110.086c0,60.788,88.544,110.086,197.728,110.086V393.456L269.999,393.456z M269.999,273.91
		l-88.576-88.574c-49.088,14.538-81.879,40.794-81.879,70.763c0,16.29,9.698,31.473,26.423,44.286
		c-8.944-30.943,8.916-57.05,43.527-64.402l100.505,100.504V273.91L269.999,273.91z"/>
</g>
</svg>
