<?xml version="1.0" encoding="utf-8"?>
<!-- Generator: Adobe Illustrator 16.0.0, SVG Export Plug-In . SVG Version: 6.00 Build 0)  -->
<!DOCTYPE svg PUBLIC "-//W3C//DTD SVG 1.1//EN" "http://www.w3.org/Graphics/SVG/1.1/DTD/svg11.dtd">
<svg version="1.1" id="Layer_1" xmlns="http://www.w3.org/2000/svg" xmlns:xlink="http://www.w3.org/1999/xlink" x="0px" y="0px"
	 width="540px" height="540px" viewBox="0 0 540 540" enable-background="new 0 0 540 540" xml:space="preserve">
<g>
	<path fill="#F8F284" d="M224.471,429.753c0.329-0.924,0.714-1.795,1.19-2.631c0.196-0.43,0.459-0.882,0.723-1.263l0.714-1.123
		c0.924-1.465,1.794-2.937,2.62-4.438c1.583-2.947,3.005-6.084,3.378-9.092c0.196-1.502,0.074-2.93-0.371-4.195
		c-0.488-1.264-1.347-2.465-2.404-3.588c-0.301-0.295-0.574-0.56-0.863-0.853l-0.938-0.866c-0.706-0.631-1.385-1.322-2.029-2.082
		c-1.272-1.466-2.417-3.158-3.179-5.074c-0.79-1.9-1.215-4-1.134-6.072c0.026-2.063,0.495-4.108,1.196-5.948
		c0.725-1.836,1.724-3.569,2.818-5.133c0.533-0.763,1.116-1.498,1.729-2.19c-0.655-0.504-1.277-1.084-1.883-1.664
		c-1.294-1.305-2.485-2.736-3.427-4.396c-0.93-1.669-1.648-3.592-1.905-5.561c-0.265-2.031-0.026-4.059,0.531-5.938
		c0.564-1.875,1.478-3.593,2.502-5.089c1.172-1.698,2.128-2.719,3.061-4.008c1.832-2.473,3.452-5.18,3.597-7.461
		c0.07-1.122-0.22-2.251-0.809-3.495c-0.563-1.214-1.402-2.531-2.318-3.831c-1.832-2.632-3.812-5.37-5.609-8.21
		c-1.729-2.839-3.555-5.339-5.364-8.473c-0.848-1.578-1.718-3.372-2.003-5.621c-0.08-1.103-0.022-2.268,0.235-3.329
		c0.265-1.084,0.688-2.071,1.172-2.967c0.956-1.724,2.146-3.135,3.341-4.438c1.213-1.3,2.464-2.443,3.753-3.61
		c1.573-1.373,3.193-2.68,4.825-3.961c-51.952-75.411-186.39-79.844-186.39-79.844c46.232,34.522,25.711,103.294,44.465,154.015
		c38.909,115.378,136.661,74.634,136.661,74.634c0.21-0.177,0.371-0.393,0.56-0.606C222.583,437.443,223.044,433.46,224.471,429.753
		z"/>
	<path fill="#FAEA23" d="M224.471,429.753c0.329-0.924,0.714-1.795,1.19-2.631c0.196-0.43,0.459-0.882,0.723-1.263l0.714-1.123
		c0.924-1.465,1.794-2.937,2.62-4.438c1.583-2.947,3.005-6.084,3.378-9.092c0.196-1.502,0.074-2.93-0.371-4.195
		c-0.488-1.264-1.347-2.465-2.404-3.588c-0.301-0.295-0.574-0.56-0.863-0.853l-0.938-0.866c-0.706-0.631-1.385-1.322-2.029-2.082
		c-1.272-1.466-2.417-3.158-3.179-5.074c-0.79-1.9-1.215-4-1.134-6.072c0.026-2.063,0.495-4.108,1.196-5.948
		c0.725-1.836,1.724-3.569,2.818-5.133c0.533-0.763,1.116-1.498,1.729-2.19c-0.655-0.504-1.277-1.084-1.883-1.664
		c-1.294-1.305-2.485-2.736-3.427-4.396c-0.93-1.669-1.648-3.592-1.905-5.561c-0.265-2.031-0.026-4.059,0.531-5.938
		c0.564-1.875,1.478-3.593,2.502-5.089c1.172-1.698,2.128-2.719,3.061-4.008c1.832-2.473,3.452-5.18,3.597-7.461
		c0.07-1.122-0.22-2.251-0.809-3.495c-0.563-1.214-1.402-2.531-2.318-3.831c-1.832-2.632-3.812-5.37-5.609-8.21
		c-1.729-2.839-3.555-5.339-5.364-8.473c-0.848-1.578-1.718-3.372-2.003-5.621c-0.08-1.103-0.022-2.268,0.235-3.329
		c0.265-1.084,0.688-2.071,1.172-2.967c0.956-1.724,2.146-3.135,3.341-4.438c1.213-1.3,2.464-2.443,3.753-3.61
		c2.555-2.206,5.18-4.29,7.833-6.302c2.642-1.972,5.341-3.925,8.006-5.813c2.624-1.923,5.208-3.904,7.698-5.927
		c5.036-4.092,9.776-8.434,14.125-13.188c4.364-4.725,8.278-9.813,11.629-15.301c6.7-10.959,10.92-23.295,13.964-35.956
		c1.488-6.356,2.74-12.733,3.883-19.198c1.175-6.47,2.267-12.918,3.364-19.418c1.146-6.572,2.804-13.058,5.219-19.27
		c2.443-6.233,5.541-12.177,9.363-17.604c1.158-1.648,2.428-3.228,3.709-4.784c-5.303-21.031-5.794-42.366,3.046-64.353
		c0,0-160.902,105.483-160.365,234.216c0.171,42.604,11.236,104.908,69.309,141.128
		C222.347,440.214,222.563,434.751,224.471,429.753z"/>
	<g>
		<g>
			<g>
				<path fill="#CDB72E" d="M329.551,118.955c-2.846,1.627-5.602,3.533-8.172,5.638c-5.145,4.161-9.671,9.083-13.516,14.524
					c-3.82,5.433-6.921,11.376-9.36,17.604c-2.409,6.212-4.076,12.696-5.219,19.269c-1.102,6.5-2.189,12.956-3.366,19.418
					c-1.145,6.463-2.39,12.842-3.88,19.198c-3.04,12.661-7.267,24.999-13.966,35.957c-3.354,5.487-7.266,10.576-11.631,15.301
					c-4.347,4.746-9.089,9.095-14.124,13.186c-2.484,2.03-5.067,4.006-7.698,5.929c-2.662,1.884-5.364,3.838-8.007,5.811
					c-2.651,2.014-5.277,4.097-7.833,6.303c-1.287,1.165-2.537,2.31-3.752,3.607c-1.189,1.307-2.384,2.717-3.339,4.439
					c-0.479,0.896-0.907,1.885-1.171,2.969c-0.257,1.063-0.316,2.229-0.237,3.33c0.28,2.249,1.153,4.041,2.004,5.621
					c1.809,3.134,3.635,5.631,5.363,8.473c1.797,2.839,3.784,5.578,5.609,8.208c0.914,1.299,1.752,2.619,2.319,3.833
					c0.59,1.244,0.882,2.373,0.811,3.495c-0.146,2.279-1.767,4.988-3.598,7.461c-0.936,1.291-1.896,2.31-3.061,4.007
					c-1.019,1.495-1.938,3.221-2.501,5.09c-0.559,1.883-0.795,3.912-0.532,5.938c0.265,1.971,0.982,3.898,1.906,5.563
					c0.938,1.664,2.132,3.092,3.426,4.396c0.607,0.574,1.23,1.159,1.886,1.664c-0.613,0.693-1.198,1.434-1.729,2.189
					c-1.096,1.563-2.095,3.299-2.819,5.133c-0.705,1.847-1.171,3.893-1.195,5.947c-0.082,2.072,0.343,4.172,1.132,6.073
					c0.761,1.917,1.901,3.606,3.177,5.074c0.646,0.757,1.326,1.448,2.03,2.084l0.938,0.862c0.291,0.295,0.559,0.561,0.866,0.854
					c1.059,1.12,1.917,2.323,2.404,3.584c0.446,1.271,0.569,2.696,0.37,4.199c-0.37,3.013-1.793,6.147-3.378,9.091
					c-0.822,1.504-1.691,2.975-2.619,4.439l-0.713,1.121c-0.263,0.382-0.531,0.832-0.725,1.263c-0.472,0.84-0.863,1.707-1.188,2.632
					c-2.729,7.152-2.072,15.264,1.434,21.878c1.74,3.372,4.146,6.288,6.976,8.638c2.834,2.41,6.063,4.254,9.402,5.653
					c6.749,2.771,13.941,3.825,21.031,4.058c14.239,0.397,28.272-2.205,41.808-5.959c-6.847,1.537-13.805,2.696-20.757,3.478
					c-6.974,0.782-13.989,1.104-20.938,0.601c-6.92-0.516-13.842-1.856-20.042-4.677c-3.104-1.417-6.026-3.194-8.503-5.403
					c-2.52-2.24-4.574-4.885-6.002-7.875c-2.911-5.892-3.244-13.025-0.845-19.039c0.318-0.742,0.649-1.435,1.047-2.121
					c0.194-0.358,0.383-0.648,0.624-1.014l0.719-1.086c0.977-1.504,1.938-3.021,2.839-4.622c1.761-3.145,3.441-6.517,4.091-10.502
					c0.301-1.975,0.22-4.167-0.495-6.213c-0.705-2.077-1.955-3.778-3.26-5.212c-0.338-0.348-0.682-0.709-1.009-1.031l-1.011-0.938
					c-0.596-0.549-1.122-1.106-1.637-1.725c-1.011-1.16-1.821-2.48-2.348-3.822c-1.116-2.724-0.956-5.725,0.215-8.547
					c0.57-1.436,1.358-2.799,2.292-4.082c0.467-0.611,0.977-1.263,1.52-1.867c0.505-0.576,1.122-1.197,1.622-1.649l2.49-2.188
					l-2.862-1.758c-0.51-0.31-1.164-0.761-1.723-1.26c-0.553-0.426-1.104-0.914-1.6-1.438c-1.042-1.049-1.913-2.172-2.583-3.393
					c-1.349-2.383-1.637-4.977-0.854-7.515c0.409-1.267,1.042-2.521,1.858-3.694c0.698-1.06,1.97-2.443,2.963-3.812
					c1.02-1.388,2.029-2.854,2.894-4.499c0.84-1.655,1.59-3.534,1.735-5.709c0.16-2.164-0.404-4.327-1.239-6.046
					c-0.805-1.695-1.767-3.21-2.745-4.596c-1.883-2.754-3.774-5.364-5.471-8.082c-1.712-2.801-3.688-5.614-5.155-8.22
					c-0.729-1.287-1.238-2.52-1.342-3.573c-0.134-1.041,0.113-2.029,0.748-3.206c1.251-2.28,3.569-4.549,5.922-6.627
					c2.347-2.102,4.902-4.118,7.495-6.087c2.605-1.956,5.219-3.893,7.883-5.832c2.69-1.953,5.347-3.982,7.914-6.104
					c10.347-8.404,19.688-18.428,26.549-30.051c3.446-5.776,6.271-11.919,8.516-18.223c2.251-6.318,3.947-12.767,5.365-19.253
					c2.822-12.966,4.528-26.028,6.375-39.048c1.847-12.788,5.905-25.41,12.949-36.354c3.525-5.466,7.79-10.447,12.695-14.759
					c4.924-4.295,10.356-8.097,16.479-10.522C335.395,115.835,332.42,117.307,329.551,118.955z"/>
			</g>
			<g>
				<path fill="#CDB72E" d="M411.683,108.577c-0.955,20.626,4.28,40.986,14.743,57.721c2.608,4.183,5.58,8.149,8.833,11.827
					c3.199,3.716,6.68,7.211,10.403,10.399c3.717,3.244,7.732,6.105,11.827,8.837c4.396,2.932,8.828,6.181,12.873,9.713
					c8.265,7.011,15.325,15.649,20.488,25.449c5.104,9.814,7.803,20.923,7.92,31.859c0.018,5.47-0.546,10.889-1.525,16.154
					c-1.09,5.289-2.661,10.4-4.529,15.356c-3.875,9.855-9.058,19.042-15.324,27.338c4.017-9.563,7.683-19.168,9.96-29.015
					c1.16-4.896,2.029-9.84,2.459-14.771c0.473-4.921,0.547-9.831,0.075-14.662c-0.474-4.816-1.269-9.562-2.68-14.147
					c-1.376-4.601-3.371-8.951-5.61-13.169c-4.573-8.462-11.087-15.758-18.318-22.329c-3.677-3.302-7.51-6.234-11.665-9.11
					c-4.415-3.061-8.596-6.486-12.525-10.181c-3.953-3.699-7.635-7.683-10.926-11.956c-3.254-4.311-6.17-8.879-8.697-13.658
					C409.578,151.142,406.615,128.731,411.683,108.577z"/>
			</g>
		</g>
	</g>
	<g>
		<g>
			<g>
				<path fill="#FBE508" d="M309.222,208.25c0,0,38.413-15.308,62.67-10.813c24.273,4.494,37.059,22.227,37.059,22.227
					s-9.439-16.208-35.043-27.027C348.291,181.819,286.994,201.634,309.222,208.25L309.222,208.25z"/>
			</g>
			<g>
				<path fill="#FBE508" d="M344.485,268.833c-5.046,1.031-10.142,1.61-15.282,1.831c-9.494,0.414-19.095-0.236-28.897-0.87
					c-0.056-0.854-0.108-1.74-0.093-2.625c-0.018-1.917,0.062-3.914,0.252-5.868c0.296-4.005,0.854-8.043,1.326-12.193
					c-2.318,3.496-4.038,7.318-5.486,11.286c-0.94,2.771-1.734,5.628-2.138,8.713c-2.605,0.123-5.505-0.29-8.692-1.611
					c2.715,2.405,5.577,3.753,8.515,4.475c0,0.472-0.036,0.905-0.021,1.396l0.021,0.251c-4.198,2.496-10.146,4.149-17.533,1.092
					c4.815,4.344,10.18,5.432,15.688,5.088c-4.836,3.298-11.521,6.594-20.487,8.709c13.428,0.431,26.391-3.568,37.01-9.477
					c-3.657,4.081-9.38,8.805-18.186,12.462c11.231-1.305,21.368-6.266,29.427-12.611c1.123,0,2.23-0.032,3.351-0.074
					c-2.317,3.354-5.771,6.818-10.953,9.498c8.601-0.784,15.698-4.923,21.025-10.582c1.487-0.269,2.974-0.573,4.42-0.977
					c-1.231,1.717-2.933,3.402-5.382,5.036c5.454-1.573,9.288-4.192,11.974-7.263c0.612-0.237,1.229-0.451,1.81-0.747
					c5.164-2.336,9.91-5.687,13.4-9.977C354.543,266.122,349.566,267.771,344.485,268.833z"/>
			</g>
		</g>
	</g>
</g>
</svg>
