<?xml version="1.0" encoding="utf-8"?>
<!-- Generator: Adobe Illustrator 16.0.0, SVG Export Plug-In . SVG Version: 6.00 Build 0)  -->
<!DOCTYPE svg PUBLIC "-//W3C//DTD SVG 1.1//EN" "http://www.w3.org/Graphics/SVG/1.1/DTD/svg11.dtd">
<svg version="1.1" id="Layer_1" xmlns="http://www.w3.org/2000/svg" xmlns:xlink="http://www.w3.org/1999/xlink" x="0px" y="0px"
	 width="540px" height="540px" viewBox="0 0 540 540" enable-background="new 0 0 540 540" xml:space="preserve">
<g>
	<g>
		<path fill="#7EC7AB" d="M182.873,157.945c-1.218-0.301-2.495-0.422-3.729-0.194c-1.232,0.218-2.39,0.845-3.205,1.788
			c-0.828,0.939-1.328,2.109-1.682,3.301c-0.277,1.216-0.478,2.456-0.479,3.708c-0.034,1.25,0.058,2.5,0.181,3.741
			c0.125,1.254,0.323,2.468,0.61,3.698c0.269,1.225,0.471,2.473,0.795,3.68l1.032,3.595l0.415,1.443l-1.128-1.034
			c-1.548-1.416-3.019-2.92-4.673-4.188l-2.405-1.956c-0.869-0.583-1.729-1.249-2.6-1.738c-1.718-1.053-3.581-2.006-5.464-2.414
			c-1.88-0.423-3.744-0.21-4.989,0.893c-1.197,1.124-2,2.937-2.085,4.799c-0.044,1.622,0.388,3.706,1.019,5.536
			c1.308,3.761,3.361,7.318,5.665,10.659c2.348,3.321,5.063,6.393,7.98,9.241c0.771,0.728,1.418,1.375,2.243,2.068
			c0.793,0.704,1.587,1.387,2.373,1.995c1.556,1.255,3.214,2.524,4.887,3.702c3.35,2.384,6.897,4.515,10.52,6.435
			c1.808,0.972,3.662,1.819,5.523,2.563c0.934,0.366,1.862,0.667,2.776,0.914c0.42,0.063,0.918,0.228,1.271,0.237l0.535,0.048
			c0.065-0.034,0.126-0.031,0.208-0.003l0.125-0.048c-0.211,0.071-0.425,0.207-0.577,0.37l0.536-0.364l-0.136,0.066l-0.063,0.039
			c0.203-0.174-0.353,0.291-0.286,0.232l0.048-0.051l0.1-0.097l0.196-0.196c0.147-0.138,0.271-0.269,0.252-0.328
			c0.051-0.207,0.13-0.165,0.261-0.541c0.26-0.565,0.479-1.195,0.666-1.867c0.39-1.323,0.658-2.736,0.899-4.152
			c0.454-2.845,0.687-5.762,0.793-8.678c0.216-5.84-0.099-11.729-1.091-17.512c-1.011-5.795-2.813-11.444-5.518-16.703
			c-1.331-2.631-2.934-5.138-4.839-7.394c-0.969-1.109-1.965-2.212-3.128-3.127C185.556,159.198,184.31,158.342,182.873,157.945z
			 M182.873,157.945c1.439,0.378,2.702,1.219,3.867,2.12c1.18,0.902,2.191,1.995,3.18,3.099c0.969,1.121,1.854,2.313,2.691,3.534
			c0.813,1.24,1.616,2.488,2.341,3.785c1.446,2.59,2.682,5.301,3.739,8.079c0.521,1.393,1.035,2.79,1.47,4.225
			c0.478,1.435,0.818,2.834,1.203,4.302c1.383,5.814,2.079,11.779,2.241,17.77c0.078,2.998,0.031,6.004-0.257,9.03
			c-0.16,1.515-0.347,3.029-0.692,4.572c-0.163,0.768-0.378,1.551-0.681,2.356c-0.076,0.339-0.457,0.986-0.729,1.441
			c-0.167,0.287-0.293,0.428-0.411,0.552l-0.183,0.208l-0.092,0.104l-0.046,0.051c0.063-0.047-0.505,0.42-0.313,0.251l-0.094,0.058
			l-0.194,0.102l0.535-0.363c-0.19,0.186-0.441,0.344-0.691,0.437l0.122-0.048c-0.427,0.144-0.88,0.261-1.333,0.341l-1.042,0.008
			c-0.701-0.008-1.227-0.146-1.848-0.232c-1.134-0.254-2.217-0.567-3.26-0.93c-2.08-0.74-4.093-1.573-6.034-2.524
			c-3.916-1.847-7.583-4.109-11.145-6.534c-1.781-1.235-3.514-2.467-5.203-3.899c-0.87-0.699-1.662-1.401-2.437-2.104
			c-0.78-0.672-1.623-1.516-2.373-2.244c-1.551-1.52-3.012-3.13-4.407-4.797c-1.374-1.689-2.653-3.449-3.848-5.272
			c-2.361-3.658-4.393-7.575-5.556-11.884c-0.56-2.195-0.988-4.309-0.729-6.902c0.303-2.302,1.361-4.622,3.354-6.262
			c2.104-1.631,4.888-1.624,7.031-0.975c2.211,0.643,4.087,1.779,5.875,3.029c0.93,0.61,1.694,1.29,2.538,1.937l2.371,2.181
			c1.61,1.406,2.992,3.012,4.459,4.534l-0.715,0.407l-0.84-3.701c-0.279-1.229-0.432-2.475-0.657-3.712
			c-0.236-1.229-0.397-2.5-0.478-3.752c-0.077-1.259-0.125-2.522-0.038-3.782c0.008-0.632,0.11-1.256,0.179-1.884
			c0.057-0.628,0.248-1.237,0.369-1.855c0.373-1.203,0.897-2.384,1.75-3.326c0.842-0.949,2.024-1.569,3.27-1.772
			C180.381,157.491,181.662,157.63,182.873,157.945z"/>
		<path fill="#7EC7AB" d="M367.278,228.299c0.375-5.527-3.145-10.248-15.667-6.086c-3.254,1.074-6.441,2.585-8.635,3.661
			c1.405-1.997,3.402-4.908,4.996-7.95c6.081-11.692,1.976-15.917-3.536-16.429c-5.877-0.541-17.772,7.057-26.555,21.128
			c-7.988,12.791-12.707,30.495-10.578,33.556c0,0,0.027,0.037,0.038,0.05c0.019,0.025,0.048,0.047,0.048,0.047
			c2.68,2.593,20.907,0.742,34.804-5.113C357.478,244.728,366.872,234.2,367.278,228.299z"/>
		<path fill="#7EC7AB" d="M314.14,291.478c-1.535-0.53-3.068-1.078-4.646-1.477c-1.556-0.463-3.159-0.747-4.75-1.055
			c-1.605-0.258-3.212-0.492-4.829-0.592c-1.613-0.188-3.244-0.129-4.859-0.181c-1.62,0.097-3.244,0.078-4.85,0.315
			c-1.612,0.144-3.21,0.414-4.795,0.734c-1.604,0.238-3.139,0.799-4.698,1.197c-1.52,0.561-3.06,1.043-4.535,1.692
			c-1.462,0.68-2.968,1.261-4.355,2.079c-1.425,0.754-2.832,1.526-4.158,2.438c-1.375,0.833-2.687,1.764-3.945,2.755
			c-1.309,0.933-2.523,1.98-3.717,3.05c-0.59,0.522-1.233,1.074-1.753,1.592l-1.688,1.762c-1.165,1.156-2.217,2.363-3.202,3.591
			c-2.046,2.392-3.899,5.05-5.712,7.685l-1.463,2.131l-1.458-2.27c-2.008-3.131-4.198-6.063-6.587-8.789
			c-1.243-1.271-2.535-2.66-3.773-3.762c-1.427-1.191-2.865-2.557-4.279-3.461c-5.631-4.166-12.337-6.95-19.15-8.061
			c-6.856-1.039-13.894-0.609-20.559,1.172c-1.673,0.406-3.309,0.97-4.917,1.556l-1.199,0.463l-0.6,0.228
			c-0.271,0.11,0.287-0.116,0.2-0.075l-0.078,0.036l-0.157,0.076l-0.321,0.153c-0.813,0.406-1.771,0.822-2.468,1.224
			c-0.548,0.395-1.098,0.768-1.656,1.119l-1.729,1.406c-1.082,1.014-2.13,2.061-2.956,3.271c-1.713,2.367-2.857,5.076-3.422,7.938
			c-0.6,2.863-0.338,5.896,0.16,8.895c0.439,3.026,1.736,6.013,3.066,8.944c0.813,1.431,1.587,2.88,2.49,4.277
			c0.969,1.312,1.934,2.896,2.88,3.989c1.186,1.397,2.421,3.045,3.552,4.127c1.163,1.195,2.188,2.445,3.521,3.685
			c2.486,2.506,5.159,4.901,7.924,7.202c5.52,4.622,11.479,8.806,17.526,12.828c6.071,3.963,12.443,7.56,18.889,10.414
			c3.173,1.459,6.548,2.689,9.333,3.148l0.962,0.178c-0.103,0,0.073,0.002,0.097,0.002l0.087,0.002
			c-0.94,0.061-0.21,0.017-0.396,0.027l0.352-0.027l0.702-0.055c0.932-0.076,1.949-0.125,2.582-0.304l2.225-0.435l2.538-0.68
			c6.826-1.896,13.702-4.808,20.376-7.939c6.697-3.16,13.229-6.738,19.568-10.635c6.347-3.885,12.423-8.224,18.105-13.018
			c5.672-4.755,10.813-10.316,14.651-16.65c3.845-6.263,6.448-13.771,5.264-21.215c-0.549-3.679-2.039-7.235-4.397-10.145
			C320.788,295.118,317.629,292.885,314.14,291.478z M314.14,291.478c3.51,1.345,6.727,3.527,9.148,6.434
			c2.435,2.896,4.013,6.477,4.639,10.211c0.619,3.732,0.427,7.605-0.471,11.29c-0.852,3.702-2.223,7.294-4.063,10.624
			c-3.638,6.74-8.563,12.594-13.936,18.011c-5.391,5.39-11.3,10.199-17.353,14.822c-6.081,4.585-12.4,8.872-18.978,12.789
			c-6.612,3.886-13.324,7.584-20.786,10.42l-2.845,1.013c-1.009,0.323-2.166,0.604-3.254,0.891c-1.184,0.332-2.049,0.428-2.982,0.58
			l-0.699,0.109l-0.348,0.059l-0.916,0.053c-0.764,0.009-1.216-0.071-1.841-0.11c-4.689-0.407-8.521-1.614-12.31-2.952
			c-7.521-2.744-14.445-6.308-21.194-10.193c-6.763-3.862-13.132-8.354-19.255-13.256c-3.06-2.451-6.044-5.028-8.907-7.812
			c-1.438-1.313-2.904-2.884-4.308-4.435c-1.517-1.6-2.501-3.004-3.722-4.493c-1.458-1.8-2.417-3.466-3.638-5.214
			c-1.104-1.774-2.088-3.66-3.076-5.525c-1.729-3.909-3.354-7.951-3.979-12.407c-0.659-4.393-0.662-9.028,0.473-13.512
			c1.11-4.474,3.197-8.729,6.098-12.294c1.42-1.813,3.108-3.376,4.863-4.813c0.927-0.67,1.818-1.341,2.795-1.966
			c1.063-0.593,2.14-1.169,3.218-1.721c0.978-0.444,1.781-0.709,2.681-1.075l0.941-0.363l0.736-0.221l1.475-0.436
			c1.972-0.551,3.954-1.049,5.969-1.381c8.011-1.509,16.348-1.27,24.222,0.748c7.884,2.088,15.117,5.941,21.118,11.336
			c1.622,1.326,2.792,2.691,4.131,4.043c1.433,1.541,2.563,3.039,3.808,4.582c2.271,3.183,4.343,6.459,6.143,9.82l-2.922-0.14
			c2.085-2.566,4.161-5.106,6.544-7.479c1.159-1.225,2.343-2.377,3.574-3.42l1.825-1.621c0.675-0.588,1.324-1.022,1.972-1.556
			c1.286-1.038,2.587-2.046,3.98-2.935c1.347-0.951,2.736-1.836,4.188-2.617c1.405-0.857,2.891-1.572,4.378-2.268
			c1.461-0.758,3.03-1.271,4.553-1.888c1.531-0.579,3.125-0.992,4.686-1.478c1.605-0.324,3.178-0.791,4.797-1.03
			c1.607-0.298,3.222-0.537,4.853-0.654c1.621-0.21,3.26-0.164,4.888-0.229c1.629,0.078,3.263,0.05,4.882,0.268
			c1.629,0.131,3.232,0.395,4.838,0.68c1.591,0.338,3.195,0.651,4.745,1.146C311.092,290.345,312.614,290.918,314.14,291.478z"/>
		<path fill="#005126" d="M360.838,368.505l7.32-21.936c0,0,78.514-12.993,44.464,56.547c-32.887,67.172-80.013,50.971-83.34,51.498
			l6.673-21.955c0,0,40.065,7.313,56.951-33.345C404.583,371.199,402.065,361.601,360.838,368.505z"/>
		<path fill="#005126" d="M246.54,409.559c-60.354,0-110.654-26.833-122.073-62.462c6.644,36.283,34.777,152.342,122.073,147.538
			c0,0,100.031,15.149,122.719-149.813C359.287,381.575,308.16,409.559,246.54,409.559z"/>
		<path fill="#7EC7AB" d="M371.055,331.724c0,0-0.021,0.629-0.068,1.846c-0.025,0.611-0.06,1.367-0.093,2.265
			c-0.105,0.894-0.23,1.931-0.369,3.099c-0.327,2.34-0.952,5.187-1.945,8.465c-1.132,3.23-2.582,6.908-4.79,10.732
			c-4.39,7.641-11.448,15.957-21.211,23.455c-9.747,7.525-22.153,14.107-36.426,19.231c-14.285,5.095-30.521,8.561-47.905,9.815
			c-17.4,1.244-35.909,0.361-54.651-3.546c-18.635-3.992-37.682-10.93-54.196-22.991c-4.1-3.025-8.032-6.342-11.685-10.016
			c-3.606-3.709-6.89-7.801-9.706-12.236c-5.647-8.889-9.193-19.248-9.191-30.269l0.158-3.771c0.124-1.332,0.315-2.731,0.481-4.092
			c0.448-2.665,1.031-5.259,1.834-7.809c1.596-5.09,3.915-9.899,6.726-14.338c2.815-4.439,6.104-8.523,9.705-12.238
			c3.643-3.684,7.583-6.991,11.683-10.02c8.238-6.013,17.171-10.751,26.305-14.543c9.182-3.687,18.549-6.472,27.896-8.455
			c18.724-3.904,37.29-4.789,54.654-3.536c17.391,1.259,33.621,4.726,47.912,9.825c14.27,5.13,26.671,11.724,36.418,19.248
			c9.762,7.501,16.813,15.824,21.202,23.466c2.208,3.824,3.655,7.502,4.787,10.731c0.996,3.276,1.62,6.126,1.945,8.467
			c0.14,1.171,0.264,2.204,0.37,3.099c0.032,0.896,0.064,1.651,0.091,2.264C371.032,331.095,371.055,331.724,371.055,331.724z
			 M371.055,331.724c0,0-0.027-0.631-0.08-1.847c-0.025-0.608-0.064-1.362-0.105-2.262c-0.111-0.894-0.241-1.925-0.385-3.099
			c-0.343-2.334-0.983-5.174-1.995-8.439c-1.146-3.217-2.614-6.876-4.843-10.678c-4.411-7.598-11.492-15.877-21.374-23.129
			c-9.832-7.284-22.242-13.722-36.563-18.312c-14.299-4.63-30.451-7.574-47.609-8.303c-17.16-0.726-35.363,0.701-53.498,5.049
			c-18.034,4.462-36.233,11.735-51.667,23.346c-7.63,5.835-14.578,12.731-19.623,20.847c-5.085,8.138-8.097,17.215-8.077,26.941
			c-0.041,9.184,2.982,18.684,8.059,26.688c5.052,8.109,11.984,15.023,19.619,20.855c15.437,11.609,33.632,18.897,51.672,23.354
			c18.117,4.346,36.374,5.771,53.499,5.047c17.165-0.73,33.313-3.672,47.616-8.301c14.321-4.59,26.73-11.027,36.565-18.309
			c9.882-7.251,16.96-15.531,21.379-23.127c2.227-3.804,3.697-7.461,4.844-10.68c1.014-3.262,1.652-6.104,1.995-8.438
			c0.144-1.17,0.274-2.203,0.385-3.098c0.041-0.898,0.078-1.65,0.104-2.262C371.026,332.353,371.055,331.724,371.055,331.724z"/>
		<g>
			<path fill="#7EC7AB" d="M220.992,150.391c-0.052-0.102-0.44,1.233-2.651,2.07c-2.191,0.801-5.833,0.347-9.54-1.688
				c-3.705-2.023-7.855-5.274-11.272-10.257c-1.707-2.481-3.259-5.385-4.293-8.787c-1.051-3.379-1.471-7.338-0.714-11.424
				c0.715-4.085,2.652-8.165,5.42-11.556c2.817-3.448,6.06-6.183,10.14-8.495c4.271-2.382,9.259-3.699,14.422-3.599
				c5.14,0.069,10.235,1.469,14.772,3.792c9.12,4.653,16.305,12.542,20.788,21.987c2.198,4.75,3.693,9.945,4.205,15.365
				c0.521,5.414-0.066,11.045-1.727,16.348c-3.306,10.76-11.191,19.228-19.591,24.708l-2.735,1.796l-0.867,0.643l-0.979,0.811
				c-1.28,1.122-2.438,2.398-3.502,3.787c-2.146,2.768-3.846,6.053-5.158,9.553c-2.652,7.03-3.867,14.781-4.506,22.214
				c-0.634,7.461-0.669,14.702-0.566,21.417c0.174,6.717,0.544,12.921,0.84,18.451c0.359,5.547,0.67,10.383,0.929,14.365
				c0.278,3.998,0.359,7.172,0.404,9.33c0.039,2.159-0.037,3.309-0.037,3.309s-0.3-1.107-0.858-3.182
				c-0.599-2.061-1.479-5.08-2.594-8.926c-1.117-3.849-2.465-8.537-3.773-13.986c-1.378-5.439-2.737-11.643-3.83-18.528
				c-1.151-6.879-2.051-14.444-2.179-22.631c-0.091-8.173,0.479-17.023,3.246-26.221c1.447-4.568,3.482-9.224,6.495-13.58
				c1.512-2.168,3.286-4.231,5.282-6.109l1.544-1.368l1.782-1.4l2.814-1.973c6.443-4.395,11.41-10.255,13.601-17.017
				c2.193-6.738,1.584-14.43-1.371-21.293c-2.867-6.875-7.955-12.905-13.851-16.45c-2.957-1.745-6.083-2.877-9.164-3.198
				c-3.055-0.328-6.157,0.182-8.879,1.298c-1.337,0.534-2.965,1.458-4.259,2.328c-1.341,0.891-2.586,1.838-3.667,2.875
				c-2.179,2.065-3.708,4.449-4.53,7.027c-1.646,5.165-0.52,10.975,1.686,15.544c2.229,4.594,5.176,8.28,8.095,10.651
				c2.904,2.379,5.79,3.535,7.792,3.268C220.18,151.433,220.979,150.307,220.992,150.391z"/>
			<path fill="#7EC7AB" d="M301.981,209.762c0,0,0.322,0.645,1.431,0.956c1.081,0.342,2.796,0.258,4.82-0.26
				c2.021-0.532,4.4-1.625,6.5-3.408c2.114-1.787,3.587-4.452,3.342-7.372c-0.113-1.47-0.629-3.02-1.446-4.56
				c-0.826-1.516-1.917-3.184-3.159-4.353c-2.313-2.287-5.914-3.352-9.606-2.895c-3.728,0.428-7.505,2.442-10.238,5.339
				c-2.796,2.873-4.438,6.708-4.523,10.707c-0.023,2.001,0.229,4.054,0.818,6.082c0.25,1.019,0.681,2.014,1.063,3.016l1.566,3.252
				c0.466,0.888,1.201,2.844,1.521,4.252c0.377,1.461,0.54,2.934,0.604,4.377c0.117,2.894-0.301,5.626-0.914,8.174
				c-1.214,5.117-3.356,9.503-5.631,13.396c-2.241,3.921-4.702,7.334-7.091,10.355c-4.732,6.08-9.214,10.587-12.315,13.75
				c-1.561,1.569-2.787,2.803-3.624,3.645c-0.815,0.864-1.246,1.324-1.246,1.324s1.133-2.296,3.499-6.052
				c2.332-3.771,5.771-9.063,9.52-15.483c1.824-3.238,3.751-6.752,5.47-10.525c1.678-3.784,3.185-7.858,3.944-11.986
				c0.765-4.16,0.488-8.221-1.235-11.625l-1.732-3.439c-0.548-1.313-1.118-2.617-1.514-4.024c-0.832-2.771-1.382-5.751-1.227-8.79
				c0.226-6.094,2.963-12.069,7.188-16.202c4.22-4.161,9.788-6.609,15.472-6.977c5.713-0.463,11.538,1.964,14.985,6.201
				c1.661,2.035,2.745,4.036,3.556,6.241c0.804,2.185,1.271,4.531,1.123,6.846c-0.148,2.308-0.927,4.523-2.158,6.178
				c-1.204,1.68-2.685,2.88-4.143,3.759c-2.934,1.763-5.806,2.3-8.116,2.444c-2.322,0.139-4.177-0.338-5.256-0.972
				C302.115,210.478,301.994,209.723,301.981,209.762z"/>
			<path fill="#7EC7AB" d="M305.739,107.776c-0.005-0.131-1.192,1.21-4.244,1.075c-3.007-0.17-7.113-2.509-10.525-6.834
				c-3.414-4.298-6.662-10.417-7.781-18.256c-0.546-3.9-0.563-8.246,0.513-12.761c1.058-4.5,3.388-9.101,6.891-12.943
				c3.485-3.87,8.028-6.925,12.966-9.098c2.519-1.111,4.942-1.953,7.8-2.691l1.876-0.447l2.292-0.407
				c1.475-0.195,2.948-0.35,4.46-0.39c6.039-0.227,12.429,1.221,18.107,4.182c5.717,2.93,10.642,7.342,14.537,12.468
				c7.813,10.283,11.811,23.461,11.305,36.895c-0.287,6.714-1.742,13.522-4.542,19.87c-2.8,6.341-6.932,12.162-11.976,16.93
				c-5.018,4.819-10.971,8.426-17.085,11.123c-3.063,1.348-6.202,2.407-9.342,3.327c-1.578,0.413-3.155,0.84-4.734,1.151
				l-2.111,0.452c-0.68,0.159-1.532,0.322-2.073,0.476l-1.567,0.451l-1.722,0.59c-1.132,0.445-2.249,0.918-3.345,1.461
				c-2.18,1.097-4.289,2.397-6.297,3.878c-4.031,2.958-7.616,6.67-10.844,10.692c-6.448,8.083-11.403,17.349-15.512,26.416
				c-4.112,9.099-7.416,18.096-10.265,26.499c-2.766,8.434-5.117,16.277-7.16,23.265c-2.001,7.023-3.74,13.145-5.177,18.187
				c-1.411,5.063-2.677,9.018-3.55,11.703c-0.885,2.688-1.462,4.079-1.462,4.079s0.21-1.486,0.602-4.276
				c0.327-2.794,0.808-6.89,1.419-12.104c0.611-5.218,1.327-11.57,2.441-18.83c1.052-7.273,2.431-15.472,4.434-24.356
				c1.944-8.899,4.46-18.507,8.083-28.487c3.671-9.941,8.326-20.363,15.422-30.236c7.058-9.731,17.047-19.265,31.003-23.149
				c0.876-0.251,1.478-0.374,2.229-0.564l2.211-0.526c1.315-0.284,2.59-0.675,3.878-1.028c2.544-0.771,5.055-1.634,7.438-2.706
				c4.776-2.132,9.146-4.934,12.815-8.38c7.393-6.839,11.694-16.536,12.323-26.658c0.692-10.101-2.116-20.465-7.499-28.369
				c-5.367-7.968-13.497-12.926-22.021-13.226c-1.061-0.06-2.137-0.029-3.189,0.018l-1.458,0.126
				c-0.537,0.061-1.22,0.193-1.816,0.287c-2.021,0.353-4.32,0.932-6.314,1.574c-4.081,1.32-7.681,3.277-10.5,5.822
				c-5.698,5.069-7.96,12.541-7.823,19.251c0.143,6.744,2.067,12.723,4.543,17.038c2.497,4.312,5.609,7.063,8.235,7.673
				C304.268,108.651,305.765,107.677,305.739,107.776z"/>
		</g>
	</g>
</g>
</svg>
