<?xml version="1.0" encoding="utf-8"?>
<!-- Generator: Adobe Illustrator 16.0.0, SVG Export Plug-In . SVG Version: 6.00 Build 0)  -->
<!DOCTYPE svg PUBLIC "-//W3C//DTD SVG 1.1//EN" "http://www.w3.org/Graphics/SVG/1.1/DTD/svg11.dtd">
<svg version="1.1" id="Layer_1" xmlns="http://www.w3.org/2000/svg" xmlns:xlink="http://www.w3.org/1999/xlink" x="0px" y="0px"
	 width="540px" height="454.656px" viewBox="0 0 540 454.656" enable-background="new 0 0 540 454.656" xml:space="preserve">
<g>
	<polygon fill="#C9342F" points="479.75,182.999 317.026,60.965 145.844,187.238 132.277,187.238 132.277,177.077 314.492,38.08 
		488.221,167.75 	"/>
	<path fill="#F90203" d="M495,172.835v16.952c0,0-61.855,106.775-337.311,112.72l34.757-27.119
		C192.451,275.387,443.307,277.93,495,172.835z"/>
	<path fill="#F90203" d="M494.897,209.28v19.162c0,0-71.027,120.736-387.214,127.445l39.872-30.66
		C147.553,325.227,435.559,328.088,494.897,209.28z"/>
	<path fill="#F90203" d="M494.545,244.854v22.461c0,0-82.473,141.412-449.545,149.262l46.296-35.922
		C91.295,380.654,425.639,384.021,494.545,244.854z"/>
	<g>
		<rect x="297.951" y="104.038" fill="#F96769" width="16.953" height="16.952"/>
		<rect x="321.549" y="104.038" fill="#F96769" width="16.934" height="16.952"/>
		<rect x="297.951" y="125.82" fill="#F96769" width="16.953" height="16.934"/>
		<rect x="321.549" y="125.82" fill="#F96769" width="16.934" height="16.934"/>
	</g>
</g>
</svg>
