<?xml version="1.0" encoding="utf-8"?>
<!-- Generator: Adobe Illustrator 16.0.0, SVG Export Plug-In . SVG Version: 6.00 Build 0)  -->
<!DOCTYPE svg PUBLIC "-//W3C//DTD SVG 1.1//EN" "http://www.w3.org/Graphics/SVG/1.1/DTD/svg11.dtd">
<svg version="1.1" id="Layer_1" xmlns="http://www.w3.org/2000/svg" xmlns:xlink="http://www.w3.org/1999/xlink" x="0px" y="0px"
	 width="540px" height="540px" viewBox="0 0 540 540" enable-background="new 0 0 540 540" xml:space="preserve">
<g>
	<path fill="#4B58A7" d="M224.471,429.752c0.329-0.924,0.715-1.794,1.189-2.631c0.197-0.429,0.459-0.881,0.723-1.262l0.715-1.122
		c0.923-1.464,1.793-2.938,2.619-4.439c1.582-2.946,3.006-6.082,3.378-9.091c0.196-1.501,0.072-2.929-0.371-4.195
		c-0.489-1.264-1.349-2.465-2.405-3.587c-0.301-0.296-0.575-0.561-0.864-0.854l-0.938-0.866c-0.705-0.63-1.385-1.323-2.029-2.083
		c-1.274-1.464-2.416-3.156-3.179-5.074c-0.789-1.9-1.213-4-1.133-6.073c0.027-2.061,0.495-4.107,1.197-5.947
		c0.724-1.837,1.724-3.571,2.819-5.134c0.531-0.761,1.116-1.497,1.728-2.189c-0.654-0.503-1.276-1.084-1.883-1.665
		c-1.294-1.305-2.485-2.736-3.426-4.396c-0.929-1.67-1.648-3.591-1.906-5.561c-0.263-2.029-0.025-4.058,0.531-5.939
		c0.564-1.875,1.478-3.591,2.502-5.088c1.17-1.699,2.125-2.718,3.059-4.006c1.831-2.476,3.452-5.182,3.598-7.462
		c0.07-1.122-0.22-2.252-0.809-3.495c-0.564-1.214-1.402-2.533-2.319-3.833c-1.832-2.63-3.812-5.369-5.61-8.208
		c-1.73-2.839-3.555-5.341-5.364-8.473c-0.848-1.579-1.719-3.372-2.002-5.621c-0.081-1.103-0.023-2.268,0.235-3.329
		c0.264-1.083,0.688-2.072,1.171-2.967c0.955-1.725,2.147-3.135,3.34-4.439c1.213-1.298,2.464-2.443,3.751-3.61
		c1.575-1.373,3.195-2.681,4.826-3.961c-51.951-75.41-186.388-79.844-186.388-79.844c46.233,34.522,25.712,103.292,44.465,154.015
		c38.911,115.378,136.662,74.632,136.662,74.632c0.209-0.177,0.372-0.392,0.558-0.605
		C222.584,437.445,223.045,433.461,224.471,429.752z"/>
	<path fill="#6674B3" d="M224.471,429.752c0.329-0.924,0.715-1.794,1.189-2.631c0.197-0.429,0.459-0.881,0.723-1.262l0.715-1.122
		c0.923-1.464,1.793-2.938,2.619-4.439c1.582-2.946,3.006-6.082,3.378-9.091c0.196-1.501,0.072-2.929-0.371-4.195
		c-0.489-1.264-1.349-2.465-2.405-3.587c-0.301-0.296-0.575-0.561-0.864-0.854l-0.938-0.866c-0.705-0.63-1.385-1.323-2.029-2.083
		c-1.274-1.464-2.416-3.156-3.179-5.074c-0.789-1.9-1.213-4-1.133-6.073c0.027-2.061,0.495-4.107,1.197-5.947
		c0.724-1.837,1.724-3.571,2.819-5.134c0.531-0.761,1.116-1.497,1.728-2.189c-0.654-0.503-1.276-1.084-1.883-1.665
		c-1.294-1.305-2.485-2.736-3.426-4.396c-0.929-1.67-1.648-3.591-1.906-5.561c-0.263-2.029-0.025-4.058,0.531-5.939
		c0.564-1.875,1.478-3.591,2.502-5.088c1.17-1.699,2.125-2.718,3.059-4.006c1.831-2.476,3.452-5.182,3.598-7.462
		c0.07-1.122-0.22-2.252-0.809-3.495c-0.564-1.214-1.402-2.533-2.319-3.833c-1.832-2.63-3.812-5.369-5.61-8.208
		c-1.73-2.839-3.555-5.341-5.364-8.473c-0.848-1.579-1.719-3.372-2.002-5.621c-0.081-1.103-0.023-2.268,0.235-3.329
		c0.264-1.083,0.688-2.072,1.171-2.967c0.955-1.725,2.147-3.135,3.34-4.439c1.213-1.298,2.464-2.443,3.751-3.61
		c2.556-2.206,5.181-4.29,7.834-6.301c2.643-1.972,5.34-3.925,8.007-5.812c2.624-1.924,5.208-3.905,7.698-5.927
		c5.035-4.092,9.778-8.435,14.125-13.187c4.364-4.724,8.279-9.814,11.631-15.302c6.7-10.958,10.919-23.295,13.965-35.956
		c1.487-6.356,2.737-12.733,3.878-19.198c1.179-6.47,2.27-12.918,3.368-19.42c1.146-6.571,2.804-13.058,5.219-19.269
		c2.441-6.232,5.541-12.177,9.363-17.604c1.158-1.648,2.427-3.226,3.709-4.784c-5.304-21.031-5.793-42.366,3.045-64.353
		c0,0-160.903,105.484-160.366,234.217c0.171,42.602,11.236,104.907,69.307,141.128C222.348,440.214,222.563,434.75,224.471,429.752
		z"/>
	<g>
		<g>
			<g>
				<path fill="#282E78" d="M329.551,118.955c-2.845,1.627-5.602,3.532-8.172,5.638c-5.145,4.161-9.672,9.084-13.516,14.524
					c-3.82,5.434-6.92,11.375-9.36,17.604c-2.41,6.211-4.078,12.698-5.22,19.269c-1.102,6.501-2.189,12.955-3.366,19.419
					c-1.144,6.463-2.39,12.842-3.881,19.197c-3.038,12.661-7.265,24.999-13.964,35.956c-3.355,5.488-7.266,10.577-11.631,15.302
					c-4.346,4.745-9.088,9.094-14.124,13.186c-2.485,2.03-5.069,4.005-7.699,5.928c-2.662,1.884-5.365,3.837-8.006,5.811
					c-2.652,2.012-5.278,4.096-7.833,6.303c-1.289,1.166-2.539,2.31-3.752,3.607c-1.19,1.307-2.385,2.717-3.34,4.439
					c-0.479,0.898-0.908,1.886-1.171,2.968c-0.257,1.063-0.317,2.229-0.236,3.329c0.279,2.25,1.153,4.043,2.003,5.622
					c1.808,3.134,3.636,5.631,5.363,8.472c1.798,2.84,3.784,5.579,5.61,8.209c0.914,1.299,1.751,2.619,2.319,3.834
					c0.589,1.244,0.881,2.373,0.811,3.494c-0.147,2.28-1.768,4.989-3.599,7.463c-0.934,1.291-1.895,2.309-3.059,4.004
					c-1.021,1.496-1.938,3.222-2.502,5.09c-0.558,1.885-0.794,3.912-0.531,5.938c0.263,1.971,0.982,3.9,1.907,5.563
					c0.938,1.667,2.132,3.093,3.425,4.397c0.607,0.573,1.229,1.158,1.885,1.664c-0.613,0.693-1.197,1.434-1.729,2.189
					c-1.096,1.563-2.096,3.299-2.819,5.134c-0.705,1.846-1.171,3.892-1.196,5.948c-0.082,2.071,0.344,4.173,1.132,6.073
					c0.762,1.918,1.9,3.608,3.178,5.073c0.645,0.757,1.325,1.449,2.029,2.085l0.938,0.862c0.291,0.296,0.559,0.561,0.866,0.856
					c1.06,1.12,1.917,2.322,2.405,3.583c0.445,1.27,0.569,2.696,0.369,4.199c-0.369,3.013-1.793,6.148-3.376,9.09
					c-0.822,1.504-1.691,2.976-2.619,4.44l-0.714,1.123c-0.262,0.379-0.531,0.829-0.723,1.26c-0.472,0.84-0.864,1.707-1.188,2.632
					c-2.728,7.152-2.073,15.263,1.434,21.877c1.74,3.372,4.146,6.29,6.975,8.638c2.834,2.412,6.063,4.256,9.403,5.653
					c6.75,2.771,13.942,3.826,21.032,4.06c14.24,0.397,28.273-2.206,41.808-5.96c-6.847,1.537-13.805,2.697-20.758,3.478
					c-6.974,0.782-13.991,1.104-20.939,0.6c-6.92-0.515-13.841-1.855-20.043-4.677c-3.102-1.418-6.024-3.195-8.501-5.401
					c-2.521-2.242-4.573-4.886-6.002-7.876c-2.911-5.892-3.243-13.027-0.844-19.039c0.32-0.741,0.649-1.435,1.047-2.123
					c0.194-0.358,0.381-0.647,0.624-1.013l0.719-1.085c0.977-1.505,1.937-3.021,2.839-4.622c1.761-3.145,3.442-6.517,4.092-10.501
					c0.301-1.975,0.219-4.167-0.495-6.213c-0.705-2.077-1.955-3.778-3.261-5.213c-0.339-0.348-0.681-0.708-1.008-1.03l-1.012-0.938
					c-0.595-0.548-1.123-1.105-1.637-1.723c-1.012-1.16-1.822-2.482-2.347-3.824c-1.117-2.724-0.956-5.724,0.214-8.546
					c0.569-1.436,1.358-2.798,2.293-4.082c0.467-0.612,0.976-1.263,1.519-1.868c0.504-0.575,1.122-1.199,1.622-1.649l2.49-2.188
					l-2.863-1.758c-0.509-0.31-1.165-0.761-1.722-1.26c-0.553-0.426-1.105-0.913-1.602-1.439c-1.042-1.047-1.912-2.17-2.582-3.39
					c-1.348-2.383-1.636-4.977-0.853-7.517c0.407-1.267,1.041-2.519,1.859-3.693c0.698-1.059,1.969-2.442,2.963-3.813
					c1.019-1.386,2.027-2.853,2.893-4.498c0.84-1.656,1.588-3.534,1.735-5.708c0.161-2.165-0.404-4.327-1.238-6.044
					c-0.805-1.698-1.767-3.212-2.746-4.598c-1.884-2.753-3.774-5.363-5.469-8.08c-1.713-2.802-3.689-5.613-5.155-8.22
					c-0.73-1.288-1.239-2.521-1.343-3.574c-0.134-1.041,0.112-2.03,0.748-3.205c1.25-2.281,3.568-4.55,5.923-6.628
					c2.345-2.102,4.901-4.118,7.495-6.086c2.604-1.957,5.219-3.894,7.883-5.832c2.69-1.954,5.346-3.984,7.914-6.104
					c10.347-8.404,19.689-18.427,26.55-30.05c3.444-5.777,6.271-11.919,8.516-18.222c2.25-6.319,3.946-12.766,5.364-19.253
					c2.821-12.966,4.529-26.028,6.375-39.048c1.847-12.788,5.907-25.411,12.951-36.354c3.525-5.465,7.79-10.447,12.696-14.759
					c4.924-4.296,10.356-8.096,16.479-10.523C335.397,115.835,332.421,117.306,329.551,118.955z"/>
			</g>
			<g>
				<path fill="#282E78" d="M411.685,108.576c-0.956,20.627,4.279,40.986,14.743,57.721c2.609,4.184,5.578,8.15,8.833,11.828
					c3.2,3.715,6.681,7.211,10.404,10.399c3.716,3.244,7.729,6.105,11.827,8.837c4.397,2.932,8.827,6.181,12.873,9.712
					c8.265,7.012,15.325,15.65,20.488,25.45c5.105,9.813,7.802,20.922,7.92,31.858c0.018,5.469-0.55,10.888-1.526,16.154
					c-1.09,5.289-2.661,10.4-4.532,15.356c-3.875,9.856-9.055,19.043-15.321,27.339c4.016-9.563,7.681-19.168,9.959-29.014
					c1.161-4.896,2.03-9.84,2.46-14.771c0.472-4.921,0.548-9.829,0.075-14.66c-0.472-4.817-1.269-9.562-2.681-14.148
					c-1.375-4.601-3.37-8.951-5.61-13.169c-4.574-8.462-11.089-15.758-18.318-22.329c-3.679-3.303-7.513-6.234-11.666-9.11
					c-4.414-3.06-8.597-6.486-12.527-10.181c-3.952-3.699-7.634-7.683-10.924-11.956c-3.254-4.312-6.168-8.88-8.698-13.658
					C409.579,151.142,406.615,128.732,411.685,108.576z"/>
			</g>
		</g>
	</g>
	<g>
		<g>
			<g>
				<path fill="#33449C" d="M309.222,208.251c0,0,38.414-15.308,62.674-10.814c24.273,4.494,37.056,22.227,37.056,22.227
					s-9.438-16.208-35.042-27.028C348.294,181.819,286.995,201.635,309.222,208.251L309.222,208.251z"/>
			</g>
			<g>
				<path fill="#33449C" d="M344.486,268.833c-5.045,1.031-10.139,1.61-15.282,1.831c-9.494,0.414-19.094-0.236-28.899-0.869
					c-0.054-0.854-0.106-1.74-0.092-2.625c-0.017-1.917,0.063-3.914,0.253-5.868c0.295-4.005,0.854-8.042,1.326-12.193
					c-2.318,3.496-4.039,7.317-5.486,11.285c-0.941,2.771-1.734,5.628-2.14,8.714c-2.604,0.123-5.504-0.29-8.692-1.611
					c2.716,2.405,5.577,3.753,8.515,4.474c0,0.472-0.037,0.906-0.021,1.396l0.021,0.251c-4.198,2.496-10.146,4.149-17.533,1.091
					c4.816,4.343,10.18,5.432,15.688,5.089c-4.836,3.296-11.521,6.592-20.487,8.708c13.428,0.43,26.391-3.569,37.009-9.476
					c-3.658,4.081-9.381,8.805-18.187,12.462c11.232-1.305,21.369-6.266,29.429-12.611c1.123,0,2.23-0.032,3.35-0.075
					c-2.32,3.356-5.771,6.819-10.953,9.498c8.602-0.783,15.699-4.923,21.024-10.581c1.489-0.269,2.976-0.573,4.42-0.977
					c-1.229,1.717-2.931,3.403-5.379,5.036c5.455-1.572,9.286-4.192,11.971-7.263c0.612-0.236,1.23-0.451,1.81-0.747
					c5.166-2.335,9.911-5.686,13.4-9.976C354.543,266.123,349.567,267.771,344.486,268.833z"/>
			</g>
		</g>
	</g>
</g>
</svg>
