<?xml version="1.0" encoding="utf-8"?>
<!-- Generator: Adobe Illustrator 16.0.0, SVG Export Plug-In . SVG Version: 6.00 Build 0)  -->
<!DOCTYPE svg PUBLIC "-//W3C//DTD SVG 1.1//EN" "http://www.w3.org/Graphics/SVG/1.1/DTD/svg11.dtd">
<svg version="1.1" id="Layer_1" xmlns="http://www.w3.org/2000/svg" xmlns:xlink="http://www.w3.org/1999/xlink" x="0px" y="0px"
	 width="540px" height="540px" viewBox="0 0 540 540" enable-background="new 0 0 540 540" xml:space="preserve">
<g>
	<g>
		<path fill="#404041" d="M259.28,494.631c-3.532-0.166-5.438-0.31-7.804-0.489V321.11c-21.537-7.794-35.948-28.266-35.948-51.207
			c0-29.628,24.11-54.478,54.478-54.478c11.869,0,23.169,3.777,32.683,10.928c13.845,10.433,21.779,26.31,21.779,43.55
			c0,22.931-14.407,43.402-35.948,51.207v173.031l-1.087,0.084c-2.229,0.171-4.465,0.301-6.716,0.407
			C273.327,494.98,266.673,494.98,259.28,494.631z M259.737,240.911c-8.782,3.119-15.612,9.948-18.733,18.727
			c-2.413,6.808-2.413,13.711,0,20.523c3.125,8.801,9.952,15.623,18.729,18.73c6.783,2.412,13.8,2.388,20.528,0.004
			c15.651-5.571,24.567-22.816,18.732-39.258c-3.121-8.785-9.945-15.612-18.732-18.727
			C273.631,238.546,266.563,238.478,259.737,240.911z"/>
	</g>
	<g>
		<g>
			<path fill="#CCCE27" d="M364.739,336.807l0.217-0.308c11.658-16.563,18.783-35.943,20.595-56.048
				c0.672-7.298,0.672-13.804,0-21.102c-5.039-55.774-49.204-99.935-104.999-105.003l-1.08-0.097V87.786l1.255,0.072
				c48.17,2.801,92.555,24.235,124.993,60.352c32.724,36.442,49.17,83.467,46.325,132.413c-1.538,26.351-8.604,51.498-20.992,74.762
				v35.161c28.217-37.583,42.393-84.048,39.988-131.247c-5.443-103.189-87.319-185.06-190.447-190.44l-1.118-0.056V45.105
				l1.24,0.059C401.098,50.817,495,151.576,495,269.9c0,33.434-7.212,65.655-21.431,95.763c-14.8,31.32-37.032,59.268-64.293,80.808
				l-1.912,1.518v-98.718c15.388-26.535,23.088-57.502,20.955-89.956c-4.666-70.607-56.052-129.872-125.157-144.616v19.485
				c58.893,14.381,101.494,64.483,106.125,124.965c0.467,6.255,0.454,9.458,0.454,11.932h-0.018
				c-0.033,2.922-0.169,5.992-0.437,9.563c-1.717,22.385-8.922,44.263-20.861,63.301v117.18
				c-6.979,4.313-14.008,8.227-21.991,12.032l-1.691,0.799L364.739,336.807L364.739,336.807z"/>
		</g>
		<g>
			<path fill="#CCCE27" d="M173.572,473.16c-7.307-3.484-14.515-7.417-21.433-11.681l-0.558-0.35V343.951
				c-11.936-19.031-19.152-40.907-20.866-63.301c-0.6-7.931-0.6-13.549,0-21.496c4.626-60.479,47.224-110.582,106.118-124.966
				v-19.482c-72.822,15.536-125.518,80.569-125.518,155.199c0,27.817,7.338,55.265,21.313,79.367v98.714l-1.911-1.51
				c-62.372-49.294-94.984-128.021-83.408-208.721C62.614,131.231,151.763,50.235,259.28,45.167l1.241-0.059v23.696l-1.12,0.056
				C165.19,73.782,86.04,144.955,71.204,238.108c-8.563,53.691,5.183,109.046,37.743,152.442v-35.172
				c-13.946-26.165-21.312-55.713-21.312-85.474c0-96.481,75.39-176.447,171.635-182.044l1.251-0.071v66.462l-1.079,0.097
				c-55.792,5.068-99.95,49.224-104.997,105.003c-0.668,7.303-0.668,13.812,0,21.099c1.822,20.107,8.939,39.488,20.598,56.052
				l0.213,0.308v137.153L173.572,473.16z"/>
		</g>
	</g>
	<g>
		<path fill="#CCCE27" d="M322.109,321.555l0.335-0.336c13.522-13.83,20.979-32.051,20.979-51.311
			c0-40.488-32.929-73.423-73.421-73.423c-28.146,0-54.176,16.466-66.323,41.948c-13.148,27.6-7.569,60.867,13.879,82.789
			l0.336,0.342v167.229l-1.46-0.363c-7.242-1.766-14.448-3.926-21.432-6.401l-0.787-0.281V330.513
			c-13.736-17.141-21.302-38.636-21.317-60.58c0-53.68,43.32-97.123,97.2-97.123c53.485,0,97.007,43.557,97.007,97.095
			c0,21.949-7.568,43.456-21.316,60.61v151.232l-0.787,0.282c-6.979,2.475-14.19,4.635-21.432,6.401l-1.456,0.364V321.555H322.109
			L322.109,321.555z"/>
	</g>
</g>
</svg>
