<?xml version="1.0" encoding="utf-8"?>
<!-- Generator: Adobe Illustrator 16.0.0, SVG Export Plug-In . SVG Version: 6.00 Build 0)  -->
<!DOCTYPE svg PUBLIC "-//W3C//DTD SVG 1.1//EN" "http://www.w3.org/Graphics/SVG/1.1/DTD/svg11.dtd">
<svg version="1.1" id="Layer_1" xmlns="http://www.w3.org/2000/svg" xmlns:xlink="http://www.w3.org/1999/xlink" x="0px" y="0px"
	 width="540px" height="540px" viewBox="0 0 540 540" enable-background="new 0 0 540 540" xml:space="preserve">
<g>
	<path fill="#FFCD41" d="M436.169,287.985l-0.003-0.33c-0.063-0.004-0.058-0.094-0.126-0.062L436.169,287.985z"/>
	<line fill="none" x1="435.201" y1="285.707" x2="435.677" y2="285.511"/>
	<polygon fill="#FFCD41" points="278.691,276.123 278.653,275.904 278.127,276.383 	"/>
	<line fill="none" x1="278.32" y1="259.051" x2="279.314" y2="258.446"/>
	<polygon fill="#FFCD41" points="278.782,274.415 279.074,274.882 279.205,274.571 	"/>
	<line fill="none" x1="279.944" y1="278.468" x2="278.976" y2="277.253"/>
	<line fill="none" x1="279.488" y1="282.407" x2="279.012" y2="282.305"/>
	<line fill="none" x1="280.311" y1="282.484" x2="280.09" y2="283.165"/>
	<polygon fill="#FFCD41" points="314.423,284.251 314.383,284.139 313.743,284.418 	"/>
	<path fill="#FFCD41" d="M353.336,120.571c0.064,0.113-0.076,0.107-0.106,0.176l0.612-0.078L353.336,120.571z"/>
	<line fill="none" x1="362.289" y1="96.125" x2="362.68" y2="96.846"/>
	<path fill="#FFCD41" d="M333.833,136.725l3.282,1.388l0.081,0.255c0.195,0.101,0.41,0.02,0.634,0.04l0.992,0.421l1.334-1.045
		c0.274-0.184,0.518-0.374,0.762-0.599l3.306-2.598l0.432-1.198c0.25-0.656,0.575-1.359,0.84-2.03l0.127,0.417l0.561-0.432
		l-0.037-0.555l0.396,0.18l0.84-2.145l-0.525,0.148l0.479-1.406l0.562,0.283l-0.024-0.428l0.59,0.487
		c-0.81-0.573,0.23-1.399,0.179-1.669l0.091,0.124c0.587-0.581-0.428-0.039-0.244-0.514l1.241-0.1l1.157-2.701l0.156-2.18
		l0.622-0.353c0.486,0.383,1.412,0.022,1.287,0.901c-0.371-0.483,0.125-0.484,0.288-0.688l-0.616,0.06
		c-0.73,0.103,0.415-1.096-0.523-0.885l1.184-2.573l0.645,0.435l0.237-2.089l-0.955-0.208l-0.038-0.568l1.489-0.21
		c0.639,0.483-0.566,1.074,0.288,1.094l-0.509,1.861c0.374,0.865,0.272-0.433,0.829-0.042l0.229-1.807l-0.556-0.374
		c-0.332-1.015,0.838-0.727,0.954-0.88l0.017,0.428l0.303-1.237c0.89,0.207-0.233,0.854,0.173,1.274l0.761-0.127l-0.026-1.223
		l0.262,0.223l0.025-0.592l-0.938,0.236c-0.684-0.618,0.067-0.448,0.179-1.208l-0.531,0.138l-0.193-0.968l1.025-0.185l-0.331,0.445
		c0.178,0.903,1.065,0.099,1.195,0.718l-0.045-1.229l-0.688,0.03c-0.82-1.438,1.154-0.213,1.319-1.196
		c-0.856-0.146-0.606-1.644-1.757-1.363l0.064-0.798l0.928,0.411l0.139-0.325l0.438,0.746l1.461-0.746l-0.479-0.661l0.672-0.181
		c-0.417,0.389-0.759-0.293-0.776-0.663l0.963-0.542l0.28,0.647l0.24-0.502l-0.941-0.891l0.447-0.557l0.128,0.612l0.949-0.55
		l-0.354-0.332l0.439,0.09l-0.077-0.771l0.296,0.063c-0.068-0.339-0.554-0.927,0.137-1.043l-0.638,0.68l-0.306-0.767
		c0.711,0.309,0.365-0.683,0.521-1.002l0.719-0.28l-0.421-0.318c0.977,0.23,0.099-0.713,0.477-1.019l0.836,0.183l-1.199-0.982
		c0.434-0.637,0.845,0.483,1.391,0.439l-0.065-1.16l-0.702-0.456l0.646-0.16l-0.786-0.486l0.229-1.256l-0.516-0.958l-0.992-0.658
		c0.006-0.07,0.035-0.123,0.041-0.183c0.08,0.164,0.178,0.482,0.584,0.37l0.015-0.38c0.908-0.291,0.986,1.462,1.753,1.159
		l-0.152-0.479l0.825,0.299l-0.025-1.111l-0.276,0.213l-0.256-1.446l0.873,0.251l-0.126-0.64l0.248,0.122
		c0.54-1.714,1.056-3.9,0.309-5.592l1.28-1.519l-0.484-0.305l0.637-0.316l-0.08-1.704l0.445-0.064l-0.274-0.696l0.468-0.229
		l-0.374-0.112c-0.103-0.482-0.12-1.109,0.514-0.969l-0.412-0.178l-0.01-2.605l-0.699,0.351l-0.289-0.531l0.675,0.046
		c0.789-1.11,0.004-2.732,0.088-4.155l-0.415-0.309l0.061-2.997l-1.113-0.473c-0.584-0.499,0.736-0.352,1.033-0.929l-0.355-0.919
		l0.097-0.011l-0.299-1.168l0.067,0.062l0.27-1.091l-0.747-0.983l0.176-0.123l-0.416,0.087l0.192-0.726l0.475,0.232
		c0.238-0.781-0.397-0.129-0.641-0.421c-3.107-2.687-1.157-0.962-1.975-1.821c0.987,0.461-1.389-1.354,2.221,1.536
		c2.201,1.491-2.368-2.141-2.013-1.878l-0.505,0.367l-0.88-0.433l-0.736,0.367l0.685,0.551l-0.666-0.061l-0.354,0.271l-0.418-0.623
		l-1.038,0.36l-0.345-1.146l-0.619,0.449l-0.33-0.371l-1.997,0.786l-0.129-0.391l-0.364,0.23c-0.688-1.282-2.488-0.45-3.659-1.091
		l-0.82,0.4c0.104-0.709-0.692,0.088-0.993-0.361l0.128,0.714c-0.72-0.456-1.275,0.994-1.694,0.124l0.377-0.606
		c-0.545-1.275-4.678,3.487-3.463,2.309l0.808,0.701l-1.146,0.771l-0.178,0.785l-0.172-0.408l-0.164,1.595l-1.232,1.658
		c0.483,0.589-0.624,0.91,0.167,1.269l-0.279,0.002l0.525,1.015l-0.482-0.295l-0.801,0.737l0.251,0.502l0.067,0.416l0.058,0.866
		l-0.554-0.205l-0.301,1.001c-0.056,0.021-0.101,0.071-0.121,0.241l-0.414,0.478l-0.388-0.251l0.322,1.114
		c-0.795,0.904-1.046,2.847-0.998,3.38l-0.086-0.254l-0.108,0.777l-0.592,0.65l0.378,0.073c-0.953,0.591-0.301,2.044-1.105,2.879
		l-0.253-0.554l0.077,2.545l-0.38-0.409l-0.021,1.275c0.376-0.016,0.498,0.543,0.313,0.828l-0.101-0.026l-0.157,1.15l-0.318-0.287
		l-0.973,1.111l0.322,0.439l-0.529,0.331l0.77,1.487l-0.038,0.107l-0.716-0.304l0.326,1.321l-0.834,2.253l-0.736-0.52l-0.95,2.146
		c0.842-0.161,0.297,0.759,0.663,1.114l-0.085,0.207l-0.809,0.375l-0.74,2.403l-0.128-0.077l-0.275,2.56l-0.05,0.124l-0.296-0.25
		l0.065,0.841l-0.076,0.191l-0.161-0.196l-0.386,1.684l-0.002,0.021l-0.273-0.328l-0.066,1.195l-0.178,0.5l-0.335-0.281
		l-0.019,1.194l-0.021,0.045l-0.434,0.186l-0.044,1.114l-0.147,0.396l-0.607,0.309l-2.262,7.377l-0.385,1.042
		c-0.645,0.056-0.188-0.752-0.716-0.64l-0.126,1.422l-0.105-0.005l-0.414,0.915l0.155,0.034c0.243,0.542-1.067,0.618-0.408,1.115
		l-0.534,0.151l-0.089,1.248l-0.091-0.1c-0.526,0.555,0.207,1.636-0.395,1.7l0.142,1.024l-0.158,0.46l-0.399-0.173
		c-0.458,1.506-0.993,3.541-1.365,4.886l-0.563,1.513l10.259,4.334C332.774,136.365,333.287,136.498,333.833,136.725z
		 M345.072,131.928l-0.954-0.115L345.072,131.928z"/>
	<line fill="none" x1="344.116" y1="131.817" x2="345.072" y2="131.928"/>
	<polygon fill="#FFCD41" points="352.461,121.19 352.225,121.315 352.406,121.635 	"/>
	<line fill="none" x1="353.682" y1="118.416" x2="353.72" y2="119.695"/>
	<line fill="none" x1="356.204" y1="116.355" x2="355.96" y2="116.061"/>
	<line fill="none" x1="355.944" y1="115.266" x2="355.441" y2="115.598"/>
	<line fill="none" x1="359.119" y1="109.146" x2="358.83" y2="109.739"/>
	<polygon fill="#FFCD41" points="359.992,106.748 359.735,106.456 359.622,106.703 	"/>
	<polygon fill="#FFCD41" points="334.02,97.428 333.985,97.514 334.562,97.654 	"/>
	<polygon fill="#FFCD41" points="209.348,434.61 209.346,434.624 209.729,435.331 	"/>
	<polygon fill="#FFCD41" points="207.561,401.481 207.592,401.483 207.738,401.366 	"/>
	<polygon fill="#FFCD41" points="202.366,400.7 202.386,400.803 202.553,400.707 	"/>
	<polygon fill="#FFCD41" points="202.029,400.69 202.366,400.7 202.247,400.399 	"/>
	<path fill="#FFCD41" d="M200.401,459.06c0.045,0.115-0.083,0.105-0.118,0.178l0.622-0.076L200.401,459.06z"/>
	<path fill="#FFCD41" d="M213.338,419.483l-0.003-2.607l-0.719,0.359l-0.291-0.537l0.668,0.05c0.805-1.099,0.002-2.72,0.088-4.147
		l-0.394-0.308l0.025-2.998l-1.082-0.483c-0.582-0.484,0.736-0.332,1.018-0.925l-0.354-0.919l0.092,0.003l-0.278-1.183l0.029,0.046
		l0.265-1.068l-0.719-0.985l0.193-0.125l-0.41,0.082l0.181-0.703l0.479,0.216c0.255-0.773-0.385-0.115-0.638-0.413
		c-3.127-2.655-1.171-0.952-1.975-1.807c1,0.441-1.414-1.348,2.22,1.511c2.221,1.487-2.369-2.111-2.031-1.86l-0.49,0.377
		l-0.882-0.434l-0.757,0.365l0.704,0.547l-0.688-0.063l-0.358,0.276l-0.398-0.643l-1.026,0.366l-0.336-1.157l-0.625,0.453
		l-0.326-0.363l-1.987,0.787l-0.144-0.396l-0.391,0.229c-0.687-1.276-2.468-0.447-3.674-1.105l-0.807,0.41
		c0.128-0.708-0.688,0.09-1-0.366l0.138,0.72c-0.7-0.458-1.25,0.992-1.671,0.127l0.373-0.611c-0.563-1.271-4.664,3.524-3.463,2.318
		l0.808,0.7L191.552,404l-0.154,0.774l-0.161-0.388l-0.189,1.593l-1.237,1.666c0.498,0.571-0.613,0.897,0.183,1.248l-0.278,0.021
		l0.521,0.998l-0.485-0.287l-0.815,0.738l0.267,0.506l0.037,0.414l0.063,0.867l-0.546-0.213l-0.308,1.014
		c-0.031,0.021-0.099,0.063-0.118,0.229l-0.397,0.48l-0.383-0.242l0.303,1.104c-0.776,0.891-1.047,2.849-0.987,3.371l-0.074-0.255
		l-0.109,0.784l-0.61,0.654l0.39,0.066c-0.972,0.592-0.298,2.039-1.128,2.875l-0.243-0.555l0.088,2.55l-0.391-0.394l-0.024,1.25
		c0.395-0.016,0.519,0.555,0.331,0.84l-0.093-0.032l-0.176,1.162l-0.303-0.304l-0.977,1.117l0.313,0.437l-0.528,0.331l0.75,1.479
		l-0.029,0.109l-0.723-0.307l0.339,1.324l-0.847,2.25l-0.732-0.522l-0.941,2.149c0.824-0.164,0.282,0.748,0.643,1.106l-0.071,0.205
		l-0.82,0.383l-0.729,2.403l-0.125-0.075l-0.297,2.558l-0.046,0.127l-0.289-0.265l0.075,0.858l-0.074,0.188l-0.178-0.218
		l-0.387,1.71v0.003l-0.271-0.32l-0.047,1.193l-0.199,0.503l-0.317-0.28l-0.03,1.199l-0.02,0.023l-0.433,0.203l-0.044,1.1
		l-0.146,0.398l-0.606,0.305l-2.265,7.383l-0.389,1.044c-0.648,0.06-0.167-0.754-0.713-0.642l-0.128,1.423l-0.095,0.002
		l-0.417,0.914l0.159,0.026c0.228,0.545-1.083,0.631-0.427,1.105l-0.545,0.168l-0.081,1.236l-0.091-0.102
		c-0.536,0.566,0.217,1.641-0.398,1.705l0.158,1.021l-0.174,0.455l-0.398-0.18c-0.439,1.479-0.96,3.44-1.318,4.801l-0.605,1.604
		l10.27,4.334c0.559,0.313,1.054,0.437,1.614,0.671l3.282,1.379l0.087,0.256c0.193,0.107,0.409,0.012,0.628,0.058l0.992,0.407
		l1.351-1.049c0.254-0.185,0.488-0.361,0.729-0.584l3.306-2.604l0.442-1.213c0.241-0.654,0.564-1.354,0.84-2.014l0.111,0.42
		l0.57-0.433l-0.057-0.56l0.399,0.179l0.839-2.136l-0.519,0.162l0.502-1.4l0.535,0.279l0.012-0.436l0.574,0.51
		c-0.807-0.586,0.229-1.418,0.178-1.678l0.092,0.115c0.59-0.582-0.438-0.028-0.245-0.521l1.248-0.088l1.15-2.705l0.146-2.166
		l0.636-0.363c0.484,0.386,1.386,0.027,1.288,0.912c-0.372-0.484,0.115-0.484,0.28-0.689l-0.609,0.07
		c-0.737,0.091,0.42-1.102-0.525-0.885l1.185-2.58l0.62,0.438l0.266-2.082l-0.949-0.22l-0.038-0.567l1.496-0.204
		c0.635,0.486-0.57,1.065,0.281,1.092l-0.5,1.857c0.37,0.873,0.271-0.432,0.819-0.048l0.23-1.808l-0.559-0.369
		c-0.334-1.012,0.838-0.721,0.951-0.881l0.015,0.43l0.304-1.237c0.874,0.208-0.232,0.866,0.187,1.259l0.745-0.117l-0.032-1.228
		l0.262,0.228l0.025-0.59l-0.941,0.232c-0.668-0.618,0.063-0.449,0.188-1.203l-0.545,0.133l-0.175-0.981l1.019-0.179l-0.338,0.44
		c0.168,0.916,1.071,0.104,1.188,0.724l-0.026-1.233l-0.701,0.03c-0.837-1.447,1.167-0.225,1.325-1.196
		c-0.858-0.14-0.606-1.653-1.75-1.363l0.062-0.802l0.927,0.414l0.147-0.323l0.422,0.745l1.484-0.751l-0.479-0.659l0.668-0.18
		c-0.407,0.387-0.754-0.307-0.774-0.676l0.97-0.539l0.271,0.656l0.246-0.5l-0.938-0.89l0.442-0.562l0.135,0.607l0.95-0.535
		l-0.353-0.339l0.438,0.086l-0.074-0.771l0.296,0.068c-0.083-0.345-0.563-0.922,0.136-1.043l-0.644,0.668l-0.298-0.763
		c0.715,0.306,0.356-0.688,0.52-1.005l0.72-0.279l-0.431-0.303c0.985,0.22,0.125-0.719,0.483-1.036l0.833,0.198l-1.204-0.996
		c0.432-0.631,0.83,0.477,1.381,0.447l-0.062-1.164l-0.725-0.447l0.669-0.165l-0.798-0.49l0.244-1.247l-0.514-0.947l-1.001-0.666
		c0.004-0.067,0.036-0.127,0.054-0.2c0.078,0.177,0.175,0.495,0.57,0.38l0.018-0.382c0.909-0.28,0.985,1.45,1.75,1.149l-0.171-0.481
		l0.823,0.309l-0.007-1.104l-0.273,0.213l-0.272-1.453l0.871,0.264l-0.13-0.64l0.26,0.123c0.527-1.701,1.063-3.896,0.313-5.591
		l1.266-1.527l-0.494-0.29l0.656-0.319l-0.1-1.699l0.44-0.078l-0.274-0.69l0.468-0.231l-0.355-0.123
		c-0.109-0.469-0.142-1.088,0.495-0.975L213.338,419.483z M191.178,470.303l0.953,0.121L191.178,470.303z"/>
	<path fill="#FFCD41" d="M184.747,425.161l-0.002-0.283c-0.025,0.011-0.024-0.076-0.087-0.051L184.747,425.161z"/>
	<line fill="none" x1="192.139" y1="470.415" x2="191.178" y2="470.303"/>
	<polygon fill="#FFCD41" points="199.475,460.124 199.524,459.681 199.285,459.807 	"/>
	<line fill="none" x1="200.738" y1="456.909" x2="200.782" y2="458.19"/>
	<line fill="none" x1="203.271" y1="454.845" x2="203.007" y2="454.548"/>
	<line fill="none" x1="203.001" y1="453.75" x2="202.497" y2="454.087"/>
	<line fill="none" x1="206.177" y1="447.642" x2="205.87" y2="448.228"/>
	<polygon fill="#FFCD41" points="207.051,445.235 206.781,444.95 206.689,445.196 	"/>
	<polygon fill="#FFCD41" points="195.975,400.146 196.248,400.292 196.31,400.022 	"/>
	<line fill="none" x1="183.96" y1="423.292" x2="184.364" y2="423.131"/>
	<polygon fill="#FFCD41" points="181.041,436.026 181.603,436.165 181.063,435.936 	"/>
	<path fill="#FFCD41" d="M381.746,174.225l2.465,2.588l-0.026,0.279c0.146,0.171,0.379,0.178,0.545,0.296l0.742,0.781l1.643-0.404
		c0.311-0.075,0.609-0.132,0.949-0.242l4.075-1.032l0.864-0.924c0.481-0.505,1.061-1.013,1.588-1.502l-0.068,0.428l0.687-0.179
		l0.179-0.52l0.295,0.32l1.649-1.604l-0.568-0.08l1.043-1.094l0.374,0.482l0.179-0.394l0.35,0.688
		c-0.535-0.856,0.752-1.195,0.814-1.464l0.021,0.146c0.776-0.285-0.366-0.207,0.014-0.567l1.158,0.428l2.167-2.012l0.991-1.93
		l0.738-0.082l0.787,1.362l0.587-0.521l-0.614-0.199c-0.723-0.208,0.82-0.83-0.124-1.016l2.124-1.863l0.396,0.646l1.074-1.82
		l-0.788-0.58l0.197-0.532l1.442,0.413c0.385,0.719-0.95,0.755-0.179,1.112c0.179,0.675-0.737,1.589-1.194,1.506
		c-0.026,0.938,0.4-0.292,0.748,0.286l0.938-1.566l-0.355-0.567c0.106-1.055,1.055-0.309,1.216-0.433l-0.149,0.407l0.794-1.009
		c0.713,0.559-0.584,0.685-0.348,1.229l0.723,0.193l0.483-1.138l0.141,0.313l0.236-0.534l-0.942-0.156
		c-0.356-0.842,0.242-0.395,0.681-1.025l-0.544-0.094l0.212-0.972l1.011,0.259l-0.485,0.268c-0.198,0.89,0.952,0.521,0.802,1.127
		l0.484-1.128c-0.289,0.595-0.392-0.209-0.67-0.255c-0.177-1.663,1.146,0.266,1.697-0.565c-0.735-0.483,0.121-1.752-1.052-1.949
		l0.394-0.7l0.658,0.735l0.278-0.228l0.094,0.869l1.653-0.111l-0.189-0.798l0.685,0.099c-0.543,0.198-0.572-0.576-0.438-0.903
		l1.105-0.105l-0.024,0.69l0.434-0.353l-0.511-1.214l0.642-0.313l-0.136,0.611l1.095-0.128l-0.177-0.449l0.367,0.263l0.232-0.728
		l0.239,0.171c0.081-0.333-0.126-1.062,0.563-0.898l-0.885,0.366l0.055-0.826c0.523,0.557,0.603-0.479,0.882-0.713l0.773,0.029
		l-0.271-0.443c0.814,0.584,0.384-0.621,0.854-0.741l0.671,0.503l-0.697-1.393c0.646-0.407,0.586,0.779,1.096,0.959l0.408-1.089
		l-0.46-0.687l0.65,0.11l-0.497-0.763l0.704-1.041l-0.081-1.1l-0.64-1.003c0.029-0.061,0.081-0.098,0.129-0.15
		c-0.007,0.182-0.057,0.51,0.374,0.58l0.146-0.35c0.973,0.104,0.329,1.737,1.146,1.77l0.063-0.501l0.62,0.597l0.444-1l-0.363,0.054
		l0.355-1.416l0.717,0.59l0.123-0.652l0.196,0.223c1.178-1.337,2.536-3.14,2.536-4.993l1.768-0.882l-0.331-0.472l0.731-0.024
		l0.596-1.595l0.438,0.113l0.023-0.742l0.525-0.031l-0.28-0.258l0.848-0.681l-0.296-0.329l1.041-2.389l-0.79,0.054l-0.053-0.613
		l0.604,0.316c1.16-0.701,1.095-2.493,1.739-3.766l-0.253-0.454l1.268-2.713l-0.815-0.877c-0.326-0.689,0.811-0.03,1.307-0.438
		l0.06-0.993l0.079,0.043l0.199-1.189l0.026,0.065l0.686-0.895l-0.267-1.177l0.226-0.036l-0.412-0.09l0.452-0.582l0.348,0.406
		c0.543-0.618-0.303-0.273-0.415-0.638c0.173-0.087-1.846-3.55-1.063-2.469c0.722,0.818-0.737-1.813,1.399,2.295
		c1.421,2.258-1.298-2.908-1.076-2.542l-0.621,0.148l-0.618-0.747l-0.841,0.025l0.41,0.783l-0.6-0.325l-0.432,0.111l-0.13-0.756
		l-1.057-0.077l0.133-1.196l-0.744,0.171l-0.146-0.473c-0.84-0.726-1.599,0.679-2.149-0.08l0.032-0.423l-0.462,0.054
		c-0.077-1.439-2.069-1.413-2.886-2.472l-0.916,0.05l-0.778-0.743l-0.127,0.717c-0.48-0.699-1.585,0.399-1.604-0.569l0.566-0.417
		c0.024-1.379-5.683,1.239-4.112,0.678l0.465,0.971l-1.363,0.25l-0.474,0.633l0.013-0.425l-0.792,1.381l-1.803,1.02
		c0.229,0.744-0.941,0.59-0.359,1.224l-0.248-0.098l0.06,1.133l-0.324-0.461l-1.045,0.355l0.026,0.567l-0.111,0.386l-0.301,0.816
		l-0.432-0.402l-0.68,0.81c-0.05,0.002-0.112,0.017-0.216,0.15l-0.571,0.271l-0.245-0.381l-0.152,1.143l-2.265,2.695l0.024-0.279
		l-0.4,0.67l-0.825,0.351l0.326,0.213l-2.165,2.198l-0.01-0.604l-0.957,2.363l-0.179-0.536l-0.604,1.305l0.029,0.725l-0.075-0.063
		l-0.616,0.992l-0.179-0.382l-1.346,0.606l0.115,0.534l-0.619,0.093l0.089,1.658l-0.078,0.087l-0.519-0.561l-0.244,1.334
		l-1.675,1.729l-0.458-0.759l-1.734,1.57c0.847,0.188-0.05,0.803,0.149,1.287l-0.229,0.24c-0.318,0.18-0.54-0.165-0.835-0.072
		l-1.627,1.911l-0.07-0.125l-1.32,2.231l-0.101,0.093l-0.146-0.354c-0.483,0.244-0.273,0.484-0.207,0.719l-0.228,0.236l-0.078-0.28
		l-1.036,1.412l-0.106-0.398l-0.521,1.059l-0.394,0.389l-0.178-0.385l-0.504,1.067l-0.047,0.05l-0.479,0.002l-0.511,1.016
		l-0.269,0.274l-0.688,0.042l-5.229,6.048l-0.58,0.587l-0.403-0.872c0.474,0.413-0.199,0.479-0.678,1.248l-0.096-0.036l-0.738,0.661
		l0.123,0.102c-0.014,0.589-1.247,0.133-0.841,0.849l-0.542-0.07l-0.584,1.11l-0.046-0.126l-1.046,1.387l-0.299,0.999l-0.323,0.351
		l-0.302-0.331c-1.061,1.238-2.423,2.951-3.301,4.046l-1.05,1.068l7.619,8.081C380.921,173.471,381.322,173.78,381.746,174.225z
		 M393.979,174.393l-0.839-0.49L393.979,174.393z"/>
	<polygon fill="#FFCD41" points="424.185,148.588 424.184,148.603 424.245,149.396 	"/>
	<polygon fill="#FFCD41" points="431.496,114.735 431.493,114.838 431.655,114.81 	"/>
	<polygon fill="#FFCD41" points="406.116,167.332 405.975,167.449 406.545,167.628 	"/>
	<polygon fill="#FFCD41" points="431.207,114.596 431.496,114.735 431.525,114.423 	"/>
	<polygon fill="#FFCD41" points="405.524,129.97 405.561,129.859 405.555,129.61 	"/>
	<line fill="none" x1="393.143" y1="173.9" x2="393.979" y2="174.393"/>
	<polygon fill="#FFCD41" points="405.08,167.56 404.791,167.567 404.856,167.942 	"/>
	<line fill="none" x1="407.299" y1="165.501" x2="406.816" y2="166.691"/>
	<line fill="none" x1="410.461" y1="164.643" x2="410.34" y2="164.268"/>
	<line fill="none" x1="410.649" y1="163.531" x2="410.042" y2="163.635"/>
	<line fill="none" x1="416.024" y1="159.224" x2="415.504" y2="159.634"/>
	<polygon fill="#FFCD41" points="417.805,157.384 417.675,157.019 417.48,157.196 	"/>
	<polygon fill="#FFCD41" points="426.24,111.677 425.897,111.643 426.07,111.896 	"/>
	<line fill="none" x1="405.567" y1="127.933" x2="405.97" y2="127.936"/>
	<polygon fill="#FFCD41" points="397.806,138.333 397.746,138.417 398.197,138.757 	"/>
	<polygon fill="#FFCD41" points="129.012,378.038 129.065,377.94 129.044,377.68 	"/>
	<polygon fill="#FFCD41" points="154.697,362.636 154.989,362.774 155.018,362.466 	"/>
	<polygon fill="#FFCD41" points="147.702,396.612 147.702,396.625 147.75,397.419 	"/>
	<polygon fill="#FFCD41" points="129.635,415.379 129.502,415.489 130.065,415.655 	"/>
	<polygon fill="#FFCD41" points="154.989,362.774 154.982,362.886 155.141,362.844 	"/>
	<path fill="#FFCD41" d="M161.414,365.968c0.732,0.818-0.777-1.805,1.448,2.275c0.404,0.484-0.688-1.652-1.153-2.519l-0.586,0.144
		l-0.614-0.741l-0.837,0.024l0.392,0.78l-0.568-0.313l-0.447,0.092l-0.125-0.738l-1.085-0.078l0.144-1.197l-0.733,0.166
		l-0.151-0.473c-0.834-0.732-1.588,0.678-2.136-0.079l0.028-0.424l-0.458,0.058c-0.103-1.442-2.068-1.408-2.876-2.486l-0.936,0.042
		l-0.776-0.737l-0.137,0.716c-0.476-0.698-1.559,0.397-1.598-0.569l0.585-0.422c0.012-1.386-5.69,1.313-4.108,0.709l0.449,0.978
		l-1.349,0.253l-0.483,0.637l-0.002-0.434l-0.797,1.398l-1.794,1.02c0.223,0.73-0.938,0.585-0.346,1.211l-0.268-0.096l0.064,1.137
		l-0.33-0.479l-1.043,0.363l0.041,0.565l-0.128,0.399l-0.298,0.818l-0.431-0.421l-0.679,0.815c-0.046,0.008-0.114,0.024-0.199,0.166
		l-0.575,0.273l-0.235-0.386l-0.174,1.146l-2.254,2.684l0.017-0.281l-0.409,0.681l-0.84,0.343l0.343,0.228l-2.174,2.2l-0.008-0.618
		l-0.98,2.366l-0.173-0.53l-0.581,1.326l0.021,0.708l-0.077-0.055l-0.616,0.991l-0.179-0.395l-1.328,0.616l0.134,0.533l-0.637,0.084
		l0.088,1.661l-0.087,0.076l-0.512-0.556l-0.225,1.328l-1.701,1.74l-0.451-0.779l-1.735,1.582c0.824,0.187-0.022,0.813,0.169,1.287
		l-0.265,0.239c-0.323,0.169-0.529-0.169-0.817-0.075l-1.618,1.907l-0.091-0.124l-1.289,2.204l-0.094,0.112l-0.179-0.35
		c-0.453,0.248-0.273,0.471-0.188,0.709l-0.229,0.25l-0.067-0.263l-1.02,1.394l-0.03,0.02l-0.112-0.41l-0.536,1.066l-0.388,0.387
		l-0.165-0.387l-0.517,1.07l-0.03,0.056l-0.48,0.002l-0.475,0.981l-0.298,0.316l-0.688,0.035l-5.226,6.016l-0.598,0.623
		l-0.387-0.871c0.438,0.41-0.229,0.479-0.698,1.248l-0.076-0.041l-0.747,0.668l0.124,0.098c-0.012,0.597-1.248,0.113-0.826,0.845
		l-0.565-0.078l-0.564,1.108l-0.063-0.127l-1.06,1.388l-0.271,1.019l-0.33,0.34l-0.297-0.33c-1.026,1.197-2.339,2.826-3.233,3.93
		l-1.138,1.173l7.667,8.083c0.374,0.512,0.785,0.827,1.193,1.27l2.468,2.58l-0.025,0.276c0.147,0.168,0.372,0.177,0.542,0.285
		l0.752,0.791l1.653-0.424c0.3-0.064,0.605-0.126,0.923-0.229l4.098-1.039l0.873-0.916c0.479-0.512,1.045-1.02,1.575-1.522
		l-0.049,0.432l0.668-0.172l0.185-0.528l0.3,0.332l1.646-1.604l-0.551-0.103l1.024-1.096l0.388,0.486l0.155-0.391l0.353,0.688
		c-0.533-0.856,0.761-1.204,0.819-1.478l0.025,0.146c0.782-0.287-0.371-0.201,0.005-0.563l1.163,0.422l2.164-2.013l0.991-1.952
		l0.73-0.065l0.791,1.354l0.589-0.524l-0.619-0.188c-0.722-0.221,0.819-0.841-0.12-1.025l2.124-1.877l0.398,0.658l1.063-1.808
		l-0.779-0.581l0.194-0.542l1.452,0.415c0.396,0.713-0.959,0.762-0.188,1.111c0.179,0.675-0.741,1.594-1.195,1.502
		c-0.011,0.941,0.405-0.279,0.759,0.289l0.931-1.562l-0.353-0.565c0.108-1.051,1.052-0.327,1.21-0.432l-0.15,0.399l0.791-0.998
		c0.719,0.534-0.581,0.683-0.35,1.229l0.733,0.196l0.46-1.147l0.16,0.32l0.24-0.535l-0.941-0.162
		c-0.359-0.847,0.234-0.394,0.655-1.037l-0.536-0.084l0.222-0.961l1.013,0.244l-0.483,0.269c-0.211,0.892,0.941,0.522,0.79,1.137
		l0.475-1.146c-0.277,0.607-0.373-0.193-0.654-0.234c-0.185-1.659,1.141,0.258,1.697-0.576c-0.737-0.484,0.117-1.757-1.059-1.949
		l0.394-0.711l0.668,0.738l0.26-0.232l0.086,0.86l1.677-0.083l-0.175-0.8l0.676,0.094c-0.542,0.206-0.575-0.579-0.433-0.899
		l1.104-0.118l-0.026,0.696l0.436-0.346l-0.5-1.199l0.631-0.328l-0.135,0.606l1.108-0.114l-0.2-0.451l0.385,0.279l0.229-0.736
		l0.245,0.17c0.075-0.342-0.126-1.064,0.558-0.892l-0.879,0.368l0.03-0.841c0.544,0.575,0.613-0.474,0.884-0.708l0.789,0.048
		l-0.265-0.458c0.794,0.585,0.386-0.618,0.849-0.736l0.672,0.5l-0.695-1.4c0.661-0.397,0.567,0.783,1.094,0.97
		c-0.19-0.688,0.791-0.403,0.41-1.087l-0.479-0.691l0.658,0.103l-0.523-0.755l0.72-1.043l-0.076-1.086l-0.65-1
		c0.036-0.059,0.081-0.114,0.112-0.156c0.026,0.178-0.021,0.511,0.389,0.572l0.169-0.355c0.955,0.119,0.309,1.741,1.106,1.775
		l0.066-0.502l0.623,0.602l0.449-0.997l-0.351,0.065l0.342-1.432l0.702,0.59l0.132-0.638l0.184,0.216
		c1.19-1.346,2.554-3.133,2.536-4.996l1.784-0.884l-0.327-0.47l0.704-0.025l0.619-1.588l0.423,0.109l0.044-0.743l0.523-0.026
		l-0.291-0.255l0.852-0.684l-0.302-0.332l1.042-2.37l-0.8,0.025l-0.044-0.604l0.604,0.315c1.163-0.688,1.112-2.484,1.746-3.748
		l-0.235-0.463l1.263-2.724l-0.814-0.866c-0.33-0.688,0.807-0.024,1.313-0.438l0.041-0.984l0.076,0.025l0.229-1.186l0.014,0.063
		l0.688-0.882l-0.276-1.189l0.227-0.027l-0.421-0.102l0.466-0.572l0.361,0.397c0.532-0.606-0.32-0.272-0.433-0.646
		C160.671,364.729,161.811,367.063,161.414,365.968z M116.671,421.954l0.829,0.486L116.671,421.954z"/>
	<polygon fill="#FFCD41" points="159.444,365.581 159.489,365.61 159.666,365.567 	"/>
	<path fill="#FFCD41" d="M161.706,365.724l0.03,0.003C161.401,365.125,161.505,365.332,161.706,365.724z"/>
	<line fill="none" x1="116.671" y1="421.954" x2="117.5" y2="422.44"/>
	<polygon fill="#FFCD41" points="128.385,415.987 128.603,415.591 128.319,415.612 	"/>
	<line fill="none" x1="130.831" y1="413.541" x2="130.359" y2="414.72"/>
	<line fill="none" x1="133.984" y1="412.692" x2="133.841" y2="412.297"/>
	<line fill="none" x1="134.173" y1="411.571" x2="133.569" y2="411.671"/>
	<line fill="none" x1="139.546" y1="407.261" x2="139.028" y2="407.669"/>
	<polygon fill="#FFCD41" points="141.311,405.42 141.183,405.04 141.018,405.227 	"/>
	<polygon fill="#FFCD41" points="149.381,359.677 149.563,359.938 149.727,359.716 	"/>
	<line fill="none" x1="129.036" y1="375.991" x2="129.459" y2="375.998"/>
	<polygon fill="#FFCD41" points="121.677,386.815 121.297,386.399 121.228,386.485 	"/>
	<path fill="#FFCD41" d="M434.49,204.368l-0.021-0.383c-0.51,0.038-0.426,0.332-0.465,0.571l-0.286,0.126l0.025-0.271l-1.537,0.865
		l0.07-0.414l-0.93,0.756l-0.497,0.199l0.02-0.416l-0.911,0.781l-0.055,0.023l-0.434-0.188l-0.859,0.713l-0.384,0.149l-0.636-0.246
		l-7.209,3.407l-0.804,0.329c-0.519-0.439,0.451-0.627-0.018-0.965c0.266,0.578-0.373,0.351-1.124,0.878l-0.053-0.075l-0.941,0.309
		l0.062,0.144c-0.243,0.542-1.188-0.38-1.104,0.428l-0.48-0.28l-0.952,0.79l0.005-0.131c-0.776-0.031-1.078,1.252-1.552,0.833
		l-0.647,0.811l-0.442,0.182l-0.141-0.414c-1.384,0.667-3.203,1.609-4.439,2.265l-1.573,0.631l3.733,10.519
		c0.126,0.615,0.397,1.076,0.592,1.652l1.188,3.338l-0.128,0.235c0.063,0.22,0.268,0.299,0.384,0.481l0.37,1.02l1.707,0.279
		c0.29,0.063,0.592,0.127,0.896,0.146l4.163,0.694l1.2-0.494c0.641-0.271,1.395-0.488,2.062-0.754l-0.226,0.38l0.67,0.11l0.375-0.4
		l0.151,0.414l2.144-0.808l-0.461-0.289l1.371-0.593l0.161,0.605l0.303-0.302l0.032,0.774c-0.116-0.996,1.187-0.791,1.351-1.004
		l-0.024,0.15c0.816,0.042-0.27-0.341,0.21-0.53l0.905,0.865l2.782-0.968l1.697-1.374c0.589-0.188,0.229,0.749,0.7,0.229
		c0.03,0.623,0.914,1.049,0.188,1.567l0.737-0.244l-0.488-0.437c-0.58-0.478,1.091-0.428,0.317-0.969l2.7-0.858l0.106,0.763
		l1.688-1.244l-0.472-0.841l0.39-0.4c0.271,0.431,0.479,1.168,1.155,0.952c0.077,0.802-1.174,0.313-0.635,0.941l-1.691,0.893
		c-0.384,0.858,0.506-0.081,0.584,0.586l1.484-1.068l-0.082-0.658c0.517-0.92,1.08,0.133,1.288,0.104l-0.306,0.305l1.102-0.608
		c0.454,0.804-0.788,0.393-0.794,0.991l0.576,0.474c0.841-0.208-0.01-0.773,0.9-0.849v0.348l0.442-0.383l-0.801-0.531l1.043-0.671
		l-0.484-0.303l0.585-0.788l0.83,0.625l-0.537,0.063l0.262,1.358l0.891-0.854c-0.494,0.437-0.258-0.334-0.484-0.484
		c0.488-1.604,0.942,0.701,1.772,0.15c-0.471-0.725,0.803-1.551-0.18-2.198l0.638-0.495l0.323,0.94l0.331-0.104l-0.273,0.825
		l1.551,0.584l0.181-0.801l0.591,0.372l-0.055-1.013l1.05,0.34l-0.286,0.634l0.535-0.15l0.005-1.306l0.731-0.032l-0.382,0.494
		c0.607-0.354,0.466,0.79,1.056,0.333v-0.484l0.242,0.393l0.506-0.582l0.146,0.258l0.871-0.595l-0.94-0.017
		c-0.482-0.39,0.292-0.636,0.378-0.743c0.255,0.729,0.747-0.198,1.076-0.309l0.697,0.35l-0.037-0.5
		c0.484,0.848,0.576-0.416,1.062-0.348l0.413,0.728l-0.077-1.552c0.764-0.111,0.229,0.945,0.598,1.313l0.818-0.829l-0.131-0.826
		l0.563,0.377l-0.174-0.898l1.086-0.674l-0.28,0.751c0.871-0.394-0.045-1.252,0.638-1.783l-0.185-1.18
		c0.05-0.038,0.115-0.064,0.179-0.087c-0.068,0.161-0.255,0.435,0.11,0.671l0.28-0.254l0.325,2.075l0.256-0.438l0.33,0.801
		l0.815-0.738l-0.343-0.077l0.886-1.17l0.411,0.809l0.389-0.533l0.076,0.286c1.625-0.761,3.597-1.856,4.341-3.552l1.986-0.081
		l-0.127-0.565l0.686,0.267l1.195-1.208l0.351,0.283l0.336-0.673l0.473,0.188l-0.146-0.333c0.271-0.426,0.711-0.862,1.044-0.3
		l-0.132-0.428l1.933-1.756l-0.771-0.281l0.215-0.576l0.423,0.537l3.121-2.746l-0.063-0.512l2.27-1.981l-0.39-1.129
		c-0.037-0.754,0.738,0.316,1.362,0.129l0.44-0.879l0.067,0.068l0.674-1l-0.003,0.069l0.984-0.541l0.234-1.188l0.218,0.063
		l-0.333-0.246l0.636-0.334l0.177,0.499c0.737-0.353-0.184-0.382-0.128-0.768c-0.192-4.097-0.104-1.501-0.021-2.666
		c0.35,1.039,0.02-1.96,0.393,2.664c0.198,0.636,0.039-1.792-0.026-2.774l-0.592-0.093l-0.266-0.941l-0.785-0.316l0.071,0.876
		l-0.434-0.534l-0.433-0.081l0.188-0.729l-0.941-0.515c0.354-0.314,0.952-0.414,0.624-1.029l-0.77-0.148l0.053-0.49
		c-0.481-1.002-1.713-0.017-1.911-0.944l0.183-0.364l-0.415-0.135c0.48-1.352-1.35-2.131-1.661-3.436
		c-0.488,0.485-0.503-0.304-0.846-0.334c0.599-0.399-0.542-0.452-0.42-0.992l-0.438,0.6c-0.144-0.842-1.57-0.271-1.203-1.16
		l0.688-0.155c0.568-1.259-5.737-1.043-4.046-0.966l0.024,1.07l-1.349-0.326l-0.688,0.397l0.18-0.382l-1.3,0.938l-2.062,0.212
		c-0.111,0.749-1.089,0.15-0.825,0.967l-0.181-0.188l-0.395,1.063l-0.117-0.566c-0.204-0.682-0.891,0.205-1.094-0.089l-0.198,0.534
		l-0.279,0.303l-0.61,0.643l-0.216-0.548l-0.948,0.455c-0.036-0.017-0.09-0.021-0.235,0.073l-0.631,0.023l-0.075-0.456l-0.626,0.977
		l-3.131,1.553l0.118-0.231l-0.632,0.45l-0.919-0.017l0.208,0.33l-2.865,1.137l0.241-0.576l-1.837,1.778l0.023-0.557l-1.044,0.979
		l-0.282,0.653l-0.045-0.098l-0.942,0.637l-0.021-0.428l-1.457,0.026l-0.105,0.537l-0.613-0.174l-0.579,1.553l-0.128,0.041
		l-0.236-0.717l-0.728,1.124l-2.264,0.898l-0.104-0.877l-2.236,0.736c0.704,0.52-0.336,0.728-0.362,1.238l-0.321,0.126
		c-0.379,0.025-0.423-0.381-0.722-0.392l-2.269,1.077l-0.023-0.146l-2.111,1.524L434.49,204.368z M421.067,232.206l0.555,0.764
		L421.067,232.206z"/>
	<line fill="none" x1="421.067" y1="232.206" x2="421.622" y2="232.969"/>
	<path fill="#FFCD41" d="M99.494,341.944l0.024-0.482l0.23,0.394l0.501-0.586l0.162,0.269l0.873-0.596l-0.941-0.024
		c-0.487-0.383,0.274-0.627,0.375-0.737c0.241,0.73,0.735-0.188,1.084-0.303l0.697,0.354l-0.074-0.525
		c0.506,0.863,0.604-0.407,1.083-0.33l0.413,0.736l-0.07-1.553c0.758-0.105,0.212,0.944,0.622,1.317l0.802-0.84l-0.152-0.819
		l0.565,0.37l-0.172-0.903l1.086-0.677l-0.272,0.758c0.852-0.38-0.073-1.246,0.644-1.781l-0.222-1.183
		c0.084-0.022,0.127-0.058,0.194-0.084c-0.063,0.179-0.255,0.447,0.112,0.685l0.294-0.26l0.31,2.07l0.255-0.438l0.33,0.805
		l0.816-0.738l-0.344-0.096l0.889-1.156l0.405,0.818l0.385-0.535l0.085,0.279c1.616-0.749,3.589-1.848,4.333-3.54l1.987-0.076
		l-0.127-0.567l0.679,0.265l1.195-1.201l0.357,0.273l0.323-0.655l0.496,0.18l-0.162-0.331c0.279-0.399,0.712-0.851,1.048-0.282
		l-0.155-0.434l1.928-1.754l-0.74-0.278l0.194-0.582l0.44,0.53l3.103-2.737l-0.062-0.508l2.269-1.979l-0.395-1.136
		c-0.032-0.752,0.742,0.318,1.356,0.131l0.449-0.887l0.056,0.07l0.673-1.012l-0.003,0.081l0.985-0.544l0.237-1.19l0.221,0.069
		l-0.373-0.265l0.682-0.334l0.152,0.508c0.725-0.354-0.179-0.381-0.143-0.771c0.2,0.011-0.216-3.976,0.045-2.669
		c0.319,1.025,0.077-1.959,0.351,2.647c0.379,2.647-0.017-3.169,0.053-2.738l-0.634-0.125l-0.257-0.94l-0.79-0.319l0.062,0.888
		l-0.403-0.536l-0.437-0.073l0.188-0.738l-0.955-0.495c0.36-0.326,0.965-0.438,0.629-1.042l-0.764-0.147l0.053-0.484
		c-0.464-0.993-1.713-0.022-1.932-0.942l0.206-0.354l-0.421-0.135c0.481-1.358-1.349-2.119-1.653-3.44
		c-0.497,0.501-0.497-0.279-0.853-0.317c0.598-0.397-0.533-0.463-0.421-0.994l-0.416,0.592c-0.152-0.842-1.604-0.274-1.23-1.164
		l0.685-0.141c0.573-1.254-5.718-1.147-4.021-1.041l0.031,1.095l-1.357-0.341l-0.68,0.405l0.17-0.382l-1.28,0.938l-2.075,0.213
		c-0.078,0.767-1.09,0.147-0.809,0.967l-0.192-0.188l-0.389,1.042l-0.117-0.562c-0.185-0.69-0.89,0.21-1.099-0.1l-0.18,0.535
		l-0.278,0.317l-0.609,0.631l-0.217-0.535l-0.96,0.445c-0.049-0.015-0.098-0.007-0.24,0.076l-0.631,0.019l-0.076-0.445l-0.611,0.97
		l-3.149,1.554l0.132-0.229l-0.649,0.438l-0.898-0.008l0.21,0.324l-2.87,1.129l0.243-0.562l-1.825,1.774l0.023-0.557l-1.078,0.965
		l-0.268,0.652l-0.043-0.077l-0.959,0.649v-0.433l-1.478,0.026l-0.103,0.536l-0.588-0.165l-0.584,1.554l-0.126,0.052l-0.24-0.728
		l-0.755,1.125l-2.239,0.893l-0.105-0.874l-2.198,0.737c0.655,0.52-0.378,0.729-0.396,1.234l-0.321,0.125
		c-0.367,0.026-0.423-0.368-0.709-0.391l-2.267,1.089l-0.021-0.138l-2.13,1.512l-0.099,0.045l0.001-0.388
		c-0.554,0.038-0.433,0.338-0.48,0.588l-0.307,0.103l0.062-0.243l-1.535,0.851l0.063-0.408l-0.913,0.737l-0.513,0.23l-0.017-0.437
		l-0.887,0.794l-0.05,0.005l-0.433-0.18l-0.896,0.729l-0.325,0.146l-0.652-0.248l-7.087,3.358l-0.934,0.372
		c-0.483-0.433,0.451-0.637,0.011-0.959c0.242,0.575-0.395,0.344-1.14,0.871l-0.075-0.069l-0.944,0.296l0.075,0.146
		c-0.243,0.539-1.195-0.393-1.107,0.438l-0.457-0.277l-0.978,0.773l0.006-0.127c-0.771-0.024-1.073,1.246-1.553,0.838l-0.632,0.808
		l-0.46,0.183l-0.145-0.429c-1.49,0.711-3.474,1.771-4.713,2.386l-1.33,0.524l3.733,10.491c0.116,0.602,0.363,1.052,0.582,1.611
		l1.183,3.377l-0.119,0.247c0.061,0.23,0.284,0.331,0.403,0.523l0.353,1.003l1.645,0.28c0.313,0.057,0.605,0.112,0.952,0.153
		l4.146,0.675l1.189-0.47c0.66-0.269,1.4-0.484,2.06-0.752l-0.217,0.382l0.674,0.108l0.396-0.393l0.125,0.402l2.141-0.811
		l-0.457-0.304l1.377-0.586l0.169,0.605l0.297-0.298l0.026,0.779c-0.135-1.002,1.197-0.802,1.362-1.014l-0.033,0.152
		c0.817,0.035-0.255-0.345,0.217-0.527l0.904,0.855l2.784-0.977l1.693-1.354c0.582-0.199,0.224,0.735,0.698,0.229
		c0.053,0.608,0.917,1.04,0.188,1.563l0.748-0.256l-0.483-0.433c-0.58-0.481,1.069-0.438,0.291-0.963l2.7-0.863l0.106,0.746
		l1.691-1.239l-0.485-0.841l0.417-0.407c0.263,0.438,0.471,1.177,1.148,0.958c0.068,0.806-1.177,0.315-0.618,0.941L85.4,345.74
		c-0.377,0.849,0.513-0.098,0.611,0.572l1.475-1.046l-0.079-0.672c0.514-0.924,1.083,0.139,1.271,0.104l-0.318,0.299l1.15-0.599
		c0.42,0.803-0.818,0.383-0.831,0.986l0.58,0.475c0.857-0.2-0.019-0.774,0.899-0.84l0.005,0.339l0.466-0.364l-0.815-0.543
		l1.025-0.685l-0.463-0.3l0.595-0.788l0.795,0.627l-0.556,0.051l0.29,1.369l0.891-0.859c-0.508,0.449-0.256-0.318-0.502-0.481
		c0.511-1.604,0.942,0.706,1.791,0.158c-0.49-0.738,0.805-1.554-0.193-2.204l0.637-0.493l0.322,0.949l0.351-0.107l-0.271,0.84
		l1.552,0.574l0.156-0.793l0.585,0.376l-0.022-1.024l1.043,0.34l-0.297,0.637l0.545-0.134l0.008-1.319l0.72-0.024l-0.363,0.492
		L99.494,341.944z M68.021,347.672l0.55,0.763L68.021,347.672z"/>
	<polygon fill="#FFCD41" points="126.955,308.98 126.905,309.073 127.089,309.136 	"/>
	<polygon fill="#FFCD41" points="129.893,313.351 129.925,313.369 130.094,313.407 	"/>
	<polygon fill="#FFCD41" points="126.747,308.739 126.955,308.98 127.11,308.695 	"/>
	<polygon fill="#FFCD41" points="97.053,312.446 97.124,312.366 97.242,312.124 	"/>
	<polygon fill="#FFCD41" points="82.514,346.858 82.355,346.916 82.794,347.304 	"/>
	<polygon fill="#FFCD41" points="81.125,346.916 81.483,346.654 81.206,346.554 	"/>
	<line fill="none" x1="84.345" y1="345.669" x2="83.427" y2="346.554"/>
	<line fill="none" x1="87.601" y1="345.748" x2="87.552" y2="346.153"/>
	<line fill="none" x1="87.612" y1="345.073" x2="88.192" y2="345.207"/>
	<line fill="none" x1="94.848" y1="343.447" x2="94.196" y2="343.607"/>
	<polygon fill="#FFCD41" points="97.205,342.463 97.24,342.074 96.999,342.173 	"/>
	<polygon fill="#FFCD41" points="123.152,304.202 123.409,304.072 123.073,303.89 	"/>
	<line fill="none" x1="97.899" y1="310.592" x2="98.271" y2="310.77"/>
	<polygon fill="#FFCD41" points="86.793,317.534 86.61,316.98 86.515,317.031 	"/>
	<path fill="#FFCD41" d="M494.998,292.137l-0.521-0.352l0.134-0.971l-0.605-0.597l-0.288,0.84l-0.157-0.66l-0.372-0.253l0.462-0.586
		l-0.662-0.854l0.992-0.691l-0.638-0.438l0.229-0.433c-0.024-1.11-1.553-0.725-1.363-1.652l0.323-0.253l-0.332-0.287
		c1.002-1.049-0.357-2.494-0.126-3.815c-0.632,0.261-0.326-0.472-0.638-0.636c0.711-0.125-0.308-0.638,0.026-1.071l-0.638,0.36
		c0.197-0.813-1.354-0.881-0.646-1.554l0.705,0.147c1.036-0.918-4.78-3.346-3.293-2.563l-0.405,0.989l-1.088-0.839l-0.808,0.088
		l0.306-0.28l-1.54,0.332l-1.974-0.638l-1.143,0.559l-0.093-0.251l-0.789,0.818l0.122-0.579c0.096-0.697-0.874-0.153-0.956-0.516
		l-0.396,0.402l-0.388,0.167l-0.797,0.33l0.026-0.576l-1.052,0.033c-0.051-0.024-0.094-0.055-0.271-0.033l-0.58-0.241l0.128-0.433
		l-0.969,0.637c-1.09-0.441-3.027-0.071-3.509,0.149l0.22-0.156l-0.787,0.161l-0.803-0.387l0.065,0.389
		c-0.866-0.701-2.04,0.377-3.1-0.126l0.461-0.41l-2.399,0.879l0.273-0.483l-1.21,0.394c0.127,0.349-0.375,0.649-0.688,0.54
		l-0.018-0.094l-1.126,0.23l0.178-0.384c-0.109-0.731-1.253-0.497-1.354-0.582l-0.326,0.438l-0.468-0.382l-1.169,1.19l-0.124-0.002
		l0.058-0.767l-1.142,0.73l-2.408-0.075l0.248-0.854l-2.34-0.22c0.433,0.744-0.585,0.526-0.825,0.966h-0.229l-0.607-0.646
		l-2.522,0.073l0.036-0.128l-2.521,0.533l-0.135-0.014l0.146-0.364c-0.501-0.188-0.529,0.14-0.647,0.34l-0.329-0.01l0.128-0.216
		l-1.723,0.174h-0.016l0.214-0.355l-1.13,0.319l-0.548-0.021l0.158-0.383l-1.188,0.346v0.011l-0.317-0.355l-1.075,0.304
		l-0.395-0.021l-0.521-0.481l-7.806,0.223l-1.017-0.026c-0.28-0.607,0.651-0.402,0.382-0.878c0.009,0.611-0.483,0.145-1.398,0.331
		l-0.025-0.088l-0.969-0.115l-0.016,0.173c-0.438,0.383-0.941-0.839-1.195-0.045l-0.317-0.455l-1.194,0.332l0.058-0.136
		c-0.691-0.326-1.483,0.733-1.743,0.165l-0.916,0.479l-0.487-0.019l0.036-0.433c-1.64,0.036-3.841,0.187-5.224,0.262l-1.478-0.04
		l-0.816,11.07c-0.138,0.636-0.08,1.146-0.143,1.763l-0.24,3.538l-0.229,0.167c-0.035,0.23,0.128,0.429,0.177,0.636l-0.094,1.068
		l1.4,0.916c0.271,0.188,0.5,0.354,0.813,0.517l3.521,2.317l1.28,0.034c0.688,0.024,1.459,0.106,2.163,0.146l-0.353,0.242
		l0.584,0.39l0.519-0.224l-0.043,0.432l2.303,0.129l-0.314-0.477l1.5,0.025l-0.093,0.612l0.396-0.146l-0.278,0.722
		c0.291-0.962,1.396-0.235,1.624-0.382l-0.076,0.126c0.739,0.382-0.104-0.422,0.396-0.389l0.498,1.151l2.926,0.229l2.112-0.559
		l0.551,0.482c-0.219,0.589,0.415,1.329-0.48,1.505c0.336-0.504,0.511-0.034,0.759,0.025l-0.266-0.536
		c-0.316-0.679,1.194,0.048,0.688-0.785l2.816,0.313l-0.203,0.73l2.032-0.438l-0.094-0.969l0.534-0.21l0.669,1.338
		c-0.264,0.781-1.208-0.18-0.939,0.629l-1.923,0.128c-0.706,0.612,0.48,0.117,0.313,0.762l1.768-0.363l0.179-0.655
		c0.842-0.636,0.952,0.572,1.146,0.617l-0.397,0.146l1.259-0.088c0.084,0.9-0.885,0.043-1.146,0.57l0.349,0.675
		c0.86,0.146,0.313-0.723,1.169-0.433l-0.121,0.331l0.544-0.174l-0.506-0.808c0.382-0.841,0.432-0.086,1.189-0.212l-0.273-0.471
		l0.853-0.483l0.485,0.896l-0.534-0.17c-0.789,0.452,0.258,1.036-0.291,1.354l1.151-0.431l-0.262-0.652
		c1.115-1.245,0.574,1.038,1.573,0.884c-0.162-0.878,1.364-1.104,0.732-2.093l0.788-0.215l-0.099,1l0.348,0.035l-0.583,0.653
		l1.194,1.149l0.471-0.655l0.375,0.566l0.384-0.939l0.818,0.736l-0.522,0.471l0.544,0.075l0.548-1.191l0.671,0.262l-0.535,0.314
		l0.815,0.724l0.219-0.437l0.045,0.445l0.7-0.322l0.041,0.297c0.302-0.167,0.701-0.8,1.025-0.191l-0.844-0.396
		c-0.284-0.545,0.535-0.453,0.639-0.528c-0.05,0.771,0.764,0.126,1.123,0.155l0.496,0.607l0.16-0.503
		c0.103,0.99,0.699-0.126,1.107,0.128l0.094,0.84l0.549-1.449l0.021,1.444l1.068-0.432l0.209-0.823l0.369,0.58l0.195-0.899
		l1.289-0.183l-0.564,0.584c0.932-0.019,0.441-1.169,1.297-1.383l0.305-1.148c0.064,0.002,0.127-0.007,0.2,0
		c-0.126,0.127-0.418,0.309-0.179,0.658l0.383-0.094c0.545,0.759-1.086,1.383-0.559,2.005l0.405-0.3l-0.025,0.874l1.044-0.345
		l-0.279-0.217l1.272-0.697l0.063,0.911l0.558-0.342l-0.033,0.283c1.776-0.04,4.02-0.24,5.378-1.5l1.858,0.716l0.117-0.551
		l0.496,0.508l1.588-0.628l0.219,0.396l0.571-0.467l0.382,0.355l-0.015-0.375c0.418-0.271,0.993-0.484,1.078,0.157l0.03-0.458
		l2.474-0.818l-0.576-0.563l0.426-0.442l0.146,0.65c1.332,0.381,2.607-0.859,3.976-1.248l0.163-0.483l2.854-0.906l0.095-1.195
		c0.296-0.691,0.565,0.592,1.214,0.685l0.771-0.637l0.026,0.087l1.017-0.644l-0.046,0.065l1.121-0.104l0.706-0.985l0.178,0.142
		l-0.226-0.356l0.731-0.054l-0.072,0.523c0.828-0.022,0.005-0.421,0.186-0.761c1.544-3.796,0.538-1.401,1.105-2.426
		c-0.115,1.082,0.836-1.776-0.736,2.575C493.152,297.229,495.107,291.733,494.998,292.137z M423.066,296.79l0.216,0.939
		L423.066,296.79z"/>
	<line fill="none" x1="423.066" y1="296.79" x2="423.276" y2="297.726"/>
	<path fill="#FFCD41" d="M57.312,262.169l-0.311-0.472l1.5,0.025l-0.094,0.611l0.395-0.153l-0.278,0.73
		c0.291-0.961,1.396-0.253,1.64-0.388l-0.079,0.131c0.739,0.379-0.104-0.427,0.409-0.401l0.483,1.15l2.924,0.232l2.111-0.552
		l0.548,0.481c-0.213,0.583,0.42,1.341-0.456,1.502c0.351-0.497,0.506-0.025,0.759,0.044l-0.262-0.555
		c-0.327-0.673,1.178,0.049,0.682-0.776l2.803,0.311l-0.203,0.735l2.048-0.45l-0.081-0.952l0.514-0.229l0.671,1.335
		c-0.251,0.79-1.189-0.178-0.94,0.626l-1.926,0.129c-0.688,0.626,0.481,0.115,0.313,0.764l1.779-0.36l0.168-0.648
		c0.862-0.646,0.951,0.566,1.146,0.605l-0.398,0.153l1.266-0.088c0.088,0.906-0.865,0.035-1.146,0.564l0.364,0.681
		c0.844,0.147,0.28-0.716,1.151-0.419l-0.122,0.326l0.559-0.174l-0.523-0.81c0.384-0.835,0.447-0.085,1.207-0.207l-0.297-0.459
		l0.857-0.488l0.483,0.9l-0.52-0.18c-0.785,0.456,0.255,1.056-0.306,1.36l1.163-0.426l-0.257-0.654
		c1.104-1.246,0.559,1.02,1.572,0.864c-0.165-0.86,1.355-1.096,0.712-2.072l0.781-0.212l-0.087,1.007l0.342,0.031l-0.565,0.644
		l1.19,1.174l0.471-0.678l0.402,0.584l0.354-0.942l0.833,0.751l-0.52,0.451l0.546,0.075l0.55-1.175l0.668,0.24l-0.547,0.322
		l0.823,0.727l0.206-0.449l0.064,0.46l0.688-0.326l0.053,0.302c0.291-0.181,0.695-0.814,1.033-0.21l-0.846-0.383
		c-0.293-0.558,0.521-0.462,0.622-0.54c-0.046,0.78,0.778,0.128,1.126,0.168l0.49,0.612l0.168-0.504
		c0.118,0.98,0.716-0.136,1.113,0.126l0.095,0.841l0.544-1.451l0.022,1.451l1.106-0.433l0.189-0.815l0.356,0.565l0.21-0.896
		l1.267-0.186l-0.561,0.589c0.941-0.021,0.438-1.187,1.3-1.389l0.306-1.167c0.06,0.004,0.136,0,0.199,0.005
		c-0.133,0.134-0.405,0.309-0.178,0.659l0.374-0.104c0.555,0.759-1.089,1.383-0.539,2.018l0.394-0.301l-0.006,0.862l1.022-0.34
		l-0.278-0.212l1.294-0.7l0.037,0.905l0.569-0.338l-0.043,0.279c1.799-0.032,4.041-0.232,5.399-1.491l1.852,0.72l0.122-0.565
		l0.513,0.521l1.569-0.636l0.232,0.389l0.566-0.46l0.383,0.352l-0.035-0.381c0.423-0.263,1.019-0.496,1.082,0.169l0.033-0.451
		l2.479-0.839l-0.558-0.554l0.41-0.453l0.16,0.67c1.312,0.371,2.593-0.871,3.961-1.263l0.176-0.483l2.844-0.903l0.106-1.188
		c0.286-0.699,0.558,0.584,1.202,0.662l0.754-0.628l0.038,0.087l1.019-0.644l-0.03,0.05l1.108-0.103l0.687-0.986l0.185,0.141
		l-0.223-0.366l0.741-0.035l-0.071,0.519c0.823-0.026-0.019-0.422,0.188-0.75c1.51-3.819,0.531-1.405,1.095-2.442
		c-0.106,1.083,0.781-1.788-0.728,2.589c-0.088,0.654,0.743-1.617,1.096-2.53l-0.519-0.364l0.143-0.953l-0.603-0.597l-0.284,0.836
		l-0.165-0.661l-0.365-0.253l0.45-0.594l-0.644-0.839l0.957-0.698l-0.627-0.451l0.271-0.414c-0.037-1.11-1.58-0.721-1.387-1.642
		l0.325-0.25l-0.334-0.297c0.99-1.051-0.369-2.482-0.121-3.817c-0.661,0.255-0.351-0.476-0.671-0.647
		c0.732-0.106-0.302-0.626,0.028-1.054l-0.627,0.36c0.205-0.828-1.336-0.89-0.646-1.553l0.7,0.148
		c1.015-0.939-4.842-3.289-3.313-2.542l-0.409,1l-1.095-0.839l-0.793,0.086l0.314-0.289l-1.56,0.343l-1.96-0.632l-1.146,0.546
		l-0.112-0.251l-0.789,0.813l0.117-0.562c0.094-0.704-0.876-0.16-0.956-0.521l-0.404,0.399l-0.381,0.168l-0.803,0.335l0.023-0.587
		l-1.055,0.042c-0.026-0.031-0.094-0.068-0.267-0.042l-0.575-0.242l0.129-0.427l-0.977,0.637c-1.085-0.439-3.025-0.078-3.5,0.151
		l0.212-0.165l-0.774,0.146l-0.802-0.369l0.063,0.386c-0.866-0.712-2.03,0.376-3.079-0.127l0.438-0.416l-2.385,0.891l0.257-0.497
		l-1.206,0.396c0.142,0.342-0.378,0.648-0.688,0.541l-0.017-0.098l-1.124,0.228l0.172-0.385c-0.112-0.714-1.236-0.494-1.36-0.574
		l-0.3,0.453l-0.483-0.393l-1.15,1.191l-0.144-0.006l0.064-0.771l-1.133,0.737l-2.41-0.079l0.255-0.854l-2.343-0.227
		c0.433,0.749-0.613,0.521-0.842,0.983l-0.246-0.011l-0.605-0.65l-2.521,0.078l0.051-0.138l-2.537,0.531l-0.125-0.004l0.138-0.355
		c-0.494-0.185-0.531,0.146-0.663,0.33l-0.31,0.009l0.127-0.231l-1.693,0.178l-0.026-0.002l0.201-0.357l-1.133,0.326l-0.549-0.016
		l0.177-0.396l-1.163,0.364l-0.02-0.001l-0.333-0.347l-1.081,0.309l-0.395-0.018l-0.501-0.486l-7.888,0.223l-0.939-0.038
		c-0.291-0.604,0.66-0.398,0.381-0.872c0.007,0.623-0.495,0.164-1.387,0.332l-0.025-0.086l-0.993-0.111l-0.006,0.17
		c-0.441,0.395-0.942-0.836-1.196-0.052l-0.313-0.442l-1.188,0.33l0.045-0.129c-0.69-0.333-1.475,0.717-1.742,0.148l-0.912,0.48
		l-0.486-0.022l0.05-0.43c-1.562,0.045-3.634,0.179-5.041,0.265l-1.654-0.038l-0.803,11.125c-0.133,0.615-0.095,1.117-0.133,1.726
		l-0.276,3.54l-0.21,0.178c-0.038,0.224,0.128,0.41,0.171,0.618l-0.078,1.064l1.425,0.941c0.265,0.188,0.508,0.359,0.804,0.52
		l3.497,2.307l1.301,0.044c0.691,0.024,1.459,0.104,2.166,0.142l-0.353,0.245l0.597,0.391l0.513-0.218l-0.05,0.414L57.312,262.169z
		 M53.444,260.044l0.213,0.934L53.444,260.044z"/>
	<polygon fill="#FFCD41" points="122.96,248.378 122.895,248.447 123.011,248.551 	"/>
	<polygon fill="#FFCD41" points="122.878,248.065 122.96,248.378 123.214,248.189 	"/>
	<polygon fill="#FFCD41" points="123.909,253.566 123.909,253.595 124.049,253.692 	"/>
	<path fill="#FFCD41" d="M94.162,239.519l0.278-0.088c-0.022-0.042,0.062-0.077,0.019-0.118L94.162,239.519z"/>
	<path fill="#FFCD41" d="M125.336,255.337l0.013,0.006C125.565,254.698,125.495,254.906,125.336,255.337z"/>
	<line fill="none" x1="79.718" y1="267.005" x2="79.08" y2="266.904"/>
	<polygon fill="#FFCD41" points="82.286,267.073 82.455,266.723 82.204,266.714 	"/>
	<polygon fill="#FFCD41" points="121.694,242.435 121.454,242.147 121.409,242.461 	"/>
	<line fill="none" x1="95.68" y1="238.165" x2="95.989" y2="238.485"/>
	<polygon fill="#FFCD41" points="82.734,240.041 82.791,239.464 82.682,239.468 	"/>
	<path fill="#FFCD41" d="M409.25,366.893c-0.128,0.04-0.128-0.09-0.187-0.141l0.026,0.636L409.25,366.893z"/>
	<polygon fill="#FFCD41" points="432.769,378.028 432.753,378.01 432.031,378.323 	"/>
	<path fill="#FFCD41" d="M467.711,368.475c0.506-0.674-0.878-1.349,0.026-1.682l0.584,0.403c1.308-0.435-3.009-4.994-1.963-3.67
		l-0.772,0.744l-0.668-1.227l-0.761-0.225l0.416-0.151l-1.583-0.312l-1.534-1.371c-0.636,0.439-0.855-0.701-1.258,0.051
		l-0.004-0.282l-1.046,0.435l0.332-0.464l-0.678-0.878l-0.529,0.229l-0.409,0.002l-0.863-0.021l0.265-0.524l-0.995-0.385
		c0.003-0.053-0.055-0.103-0.212-0.138l-0.439-0.462l0.285-0.354l-1.132,0.205c-0.83-0.861-2.737-1.296-3.287-1.276l0.28-0.064
		l-0.774-0.178l-0.584-0.682l-0.112,0.386c-0.489-0.998-2.011-0.479-2.776-1.353l0.582-0.202l-2.538-0.162l0.438-0.346l-1.269-0.13
		c-0.021,0.38-0.602,0.445-0.847,0.22l0.033-0.087l-1.116-0.245l0.291-0.299l-0.995-1.068l-0.483,0.282l-0.279-0.552l-1.553,0.62
		l-0.107-0.053l0.355-0.687l-1.337,0.215l-2.173-1.044l0.577-0.675l-2.023-1.139c0.075,0.843-0.765,0.231-1.147,0.566l-0.225-0.104
		l-0.292-0.854l-2.346-0.943l0.104-0.119l-2.551-0.536l-0.117-0.043l0.284-0.275c-0.375-0.374-0.543-0.089-0.737,0.057l-0.28-0.141
		l0.219-0.146l-1.652-0.543h-0.021l0.349-0.241l-1.185-0.157l-0.478-0.229l0.311-0.292l-1.207-0.142l-0.024-0.024l-0.161-0.442
		l-1.104-0.159l-0.359-0.174l-0.26-0.64l-7.296-2.982l-0.851-0.41l0.69-0.638l-1.408-0.256l0.005-0.094l-0.861-0.491l-0.069,0.143
		c-0.557,0.188-0.523-1.146-1.044-0.521l-0.127-0.538l-1.233-0.182l0.109-0.089c-0.486-0.582-1.653,0.051-1.657-0.573l-1.029,0.067
		l-0.445-0.208l0.203-0.389c-1.45-0.6-3.436-1.316-4.777-1.805l-1.42-0.688l-5.245,9.825c-0.373,0.508-0.533,0.995-0.815,1.531
		l-1.68,3.142l-0.275,0.066c-0.121,0.2-0.053,0.434-0.093,0.64l-0.517,0.938l0.931,1.43c0.142,0.276,0.294,0.537,0.535,0.823
		l2.27,3.524l1.146,0.548c0.636,0.313,1.311,0.688,1.951,1.02l-0.415,0.077l0.362,0.585l0.56,0.025l-0.215,0.368l2.045,1.039
		l-0.087-0.549l1.359,0.625l-0.33,0.534l0.431,0.022l-0.543,0.547c0.651-0.774,1.374,0.338,1.654,0.301l-0.128,0.091l0.533-0.2
		l-0.026,1.246l2.575,1.4l2.161,0.343l0.311,0.653c-0.433,0.453-0.166,1.375-1.028,1.196c0.502-0.319,0.482,0.144,0.657,0.329
		l-0.011-0.6c-0.032-0.743,1.073,0.511,0.918-0.438l2.468,1.412l-0.491,0.589l2.08,0.421l0.281-0.915l0.569,0.019l0.076,1.5
		l-1.108,0.179l-1.821-0.652c-0.891,0.291,0.404,0.301-0.025,0.819l1.789,0.388l0.433-0.529c1.04-0.231,0.632,0.902,0.792,1.035
		l-0.431-0.041l1.194,0.436c-0.287,0.866-0.84-0.33-1.284,0.064l0.053,0.756l1.234,0.078l-0.246,0.237l0.586,0.076l-0.146-0.94
		c0.68-0.638,0.441,0.101,1.196,0.295l-0.091-0.543l0.969-0.084l0.104,1.014l-0.413-0.378c-0.919,0.097-0.206,1.067-0.819,1.118
		l1.232,0.097l0.023-0.688c1.502-0.713,0.12,1.151,1.096,1.424c0.207-0.856,1.685-0.465,1.501-1.615l0.793,0.128l-0.492,0.885
		l0.305,0.173l-0.789,0.366l0.626,1.546l0.7-0.43l0.113,0.688c-0.352-0.453,0.383-0.729,0.721-0.711l0.463,1.006l-0.676,0.221
		l0.475,0.281l0.991-0.854l0.498,0.501l-0.606,0.064l0.438,0.994l0.365-0.33l-0.126,0.451l0.789-0.012l-0.112,0.279
		c0.346-0.039,0.99-0.469,1.038,0.242l-0.624-0.715l0.81-0.23c-0.372,0.684,0.639,0.434,0.943,0.599l0.207,0.749l0.362-0.388
		c-0.316,0.942,0.685,0.149,0.946,0.558l-0.256,0.801l1.103-1.092c0.575,0.481-0.554,0.787-0.564,1.336l1.151,0.029l0.519-0.663
		l0.112,0.675l0.544-0.744l1.221,0.341l1.02-0.435l0.737-0.936c0.044,0.023,0.105,0.046,0.18,0.076
		c-0.169,0.078-0.486,0.127-0.433,0.544l0.388,0.051c0.204,0.928-1.552,0.843-1.324,1.631l0.513-0.11l-0.381,0.781l1.094,0.107
		l-0.177-0.317l1.45-0.124l-0.317,0.857l0.646-0.092l-0.145,0.26c1.641,0.675,3.791,1.398,5.544,0.798l1.407,1.413l0.331-0.46
		l0.255,0.668l1.702,0.065l0.026,0.434l0.735-0.188l0.203,0.483l0.128-0.337l0.934,0.586l0.192-0.408l2.608,0.236l-0.285-0.739
		l0.582-0.265l-0.127,0.664c1.043,0.883,2.722,0.257,4.133,0.459l0.348-0.383l2.982,0.328l0.558-1.045
		c0.544-0.535,0.281,0.748,0.837,1.09l0.941-0.263l-0.005,0.084l1.199-0.178l-0.065,0.046l1.062,0.348l1.044-0.631l0.087,0.205
		l-0.04-0.423l0.688,0.25l-0.264,0.466c0.751,0.309,0.146-0.391,0.472-0.622c0.125,0.138,2.782-2.847,2.005-1.774
		c-0.544,0.939,1.484-1.274-1.728,2.063c-1.694,2.063,2.327-2.157,2.063-1.825l-0.34-0.551l0.524-0.83l-0.317-0.785l-0.587,0.637
		l0.084-0.68l-0.208-0.369l0.673-0.354l-0.271-1.051l1.177-0.23l-0.403-0.672l0.406-0.294c0.396-1.025-1.157-1.277-0.604-2.052
		l0.394-0.101l-0.182-0.408c1.32-0.563,0.661-2.416,1.398-3.536l-0.331-0.854c0.692,0.178-0.025-0.691,0.444-0.958L467.711,368.475z
		 M398.652,357.653l0.186-0.939L398.652,357.653z"/>
	<line fill="none" x1="398.652" y1="357.653" x2="398.841" y2="356.717"/>
	<polygon fill="#FFCD41" points="408.57,365.724 408.25,365.889 408.69,365.985 	"/>
	<line fill="none" x1="411.338" y1="367.44" x2="410.056" y2="367.366"/>
	<line fill="none" x1="413.47" y1="369.913" x2="413.166" y2="370.14"/>
	<line fill="none" x1="414.269" y1="369.962" x2="413.99" y2="369.448"/>
	<line fill="none" x1="420.072" y1="373.696" x2="419.533" y2="373.332"/>
	<polygon fill="#FFCD41" points="422.467,374.424 422.388,374.778 422.703,374.534 	"/>
	<path fill="#FFCD41" d="M143.136,198.703l0.016,0.011C143.614,198.22,143.452,198.368,143.136,198.703z"/>
	<polygon fill="#FFCD41" points="109.371,195.301 109.355,195.296 108.638,195.609 	"/>
	<path fill="#FFCD41" d="M85.853,184.172c-0.131,0.045-0.106-0.08-0.185-0.138l0.024,0.633L85.853,184.172z"/>
	<polygon fill="#FFCD41" points="143.78,191.387 143.703,191.406 143.759,191.564 	"/>
	<polygon fill="#FFCD41" points="142.533,196.492 142.533,196.515 142.638,196.685 	"/>
	<path fill="#FFCD41" d="M121.012,171.646l0.279,0.028c0.001-0.041,0.099-0.042,0.071-0.104L121.012,171.646z"/>
	<polygon fill="#FFCD41" points="143.812,191.056 143.78,191.387 144.09,191.308 	"/>
	<path fill="#FFCD41" d="M70.418,170.31l2.299,3.534l1.139,0.544c0.618,0.31,1.299,0.687,1.93,1.011l-0.415,0.092l0.37,0.586
		l0.573,0.021l-0.227,0.366l2.037,1.041l-0.092-0.545l1.357,0.633l-0.332,0.521l0.427,0.02l-0.544,0.542
		c0.655-0.76,1.395,0.34,1.653,0.31l-0.127,0.091l0.529-0.197l-0.025,1.251l2.591,1.392l2.159,0.34l0.313,0.662
		c-0.434,0.458-0.153,1.379-1.031,1.195c0.502-0.309,0.5,0.151,0.667,0.328l-0.007-0.595c-0.021-0.745,1.064,0.515,0.938-0.434
		l2.448,1.406l-0.486,0.591l2.067,0.43l0.309-0.926l0.548,0.014l0.077,1.512l-1.109,0.166l-1.813-0.646
		c-0.883,0.294,0.398,0.315-0.021,0.822l1.78,0.386l0.433-0.516c1.015-0.241,0.625,0.897,0.79,1.023l-0.438-0.029l1.195,0.432
		c-0.291,0.866-0.84-0.319-1.278,0.051l0.046,0.767l1.229,0.081l-0.235,0.22l0.579,0.083l-0.166-0.959
		c0.706-0.626,0.472,0.103,1.199,0.297l-0.088-0.538l0.986-0.097l0.078,1.032l-0.415-0.388c-0.897,0.092-0.18,1.052-0.816,1.119
		l1.243,0.093l0.015-0.693c1.509-0.706,0.106,1.16,1.092,1.416c0.215-0.852,1.689-0.463,1.502-1.605l0.791,0.122l-0.482,0.886
		l0.309,0.157l-0.79,0.373l0.616,1.539l0.704-0.42l0.132,0.688c-0.379-0.46,0.356-0.734,0.706-0.712l0.46,1.001l-0.652,0.211
		l0.464,0.304l0.986-0.874l0.508,0.507l-0.631,0.061l0.461,0.995l0.377-0.317l-0.128,0.445l0.762-0.017l-0.077,0.289
		c0.347-0.035,0.966-0.458,1.033,0.236l-0.638-0.695l0.796-0.241c-0.356,0.681,0.657,0.431,0.948,0.607l0.228,0.753l0.346-0.388
		c-0.311,0.936,0.706,0.151,0.968,0.563l-0.252,0.797l1.087-1.107c0.583,0.495-0.551,0.793-0.558,1.348l1.164,0.034l0.503-0.661
		l0.111,0.667l0.548-0.738l1.216,0.341l1.026-0.424l0.734-0.942c0.063,0.027,0.122,0.046,0.185,0.08
		c-0.176,0.063-0.489,0.113-0.432,0.531l0.409,0.041c0.194,0.941-1.563,0.848-1.326,1.631l0.483-0.106l-0.365,0.789l1.083,0.1
		l-0.16-0.305l1.454-0.132l-0.32,0.86l0.638-0.082l-0.133,0.245c1.644,0.687,3.79,1.407,5.542,0.805l1.392,1.409l0.333-0.477
		l0.271,0.681l1.686,0.07l0.045,0.436l0.695-0.199l0.197,0.484l0.161-0.351l0.904,0.588l0.224-0.407l2.607,0.239l-0.305-0.748
		l0.542-0.23l-0.083,0.674c1.015,0.868,2.7,0.232,4.103,0.441l0.364-0.38l2.978,0.33l0.579-1.055
		c0.538-0.522,0.271,0.762,0.823,1.096l0.951-0.262l-0.019,0.091l1.202-0.172l-0.065,0.032l1.073,0.358l1.038-0.62l0.104,0.2
		l-0.049-0.429l0.7,0.249l-0.285,0.468c0.76,0.305,0.179-0.395,0.483-0.616c2.906-2.898,1.068-1.081,1.981-1.807
		c-0.538,0.953,1.442-1.302-1.691,2.083c-0.337,0.57,1.339-1.17,2.011-1.873l-0.329-0.519l0.526-0.84l-0.317-0.787l-0.595,0.642
		l0.111-0.688l-0.224-0.355l0.659-0.356l-0.268-1.052l1.17-0.23l-0.379-0.657l0.383-0.299c0.423-1.021-1.156-1.281-0.601-2.055
		l0.429-0.103l-0.204-0.4c1.318-0.564,0.667-2.433,1.421-3.542l-0.332-0.854c0.688,0.179-0.026-0.694,0.452-0.959l-0.729,0.072
		c0.529-0.665-0.879-1.361,0.035-1.681l0.565,0.406c1.327-0.432-3.073-4.962-1.987-3.646l-0.79,0.737l-0.657-1.21l-0.746-0.235
		l0.398-0.132l-1.563-0.316l-1.552-1.372c-0.632,0.444-0.854-0.701-1.26,0.049l0.016-0.279l-1.043,0.433l0.336-0.465l-0.688-0.875
		l-0.529,0.209l-0.394,0.017l-0.876-0.024l0.238-0.526l-0.955-0.385c-0.017-0.045-0.066-0.098-0.23-0.142l-0.438-0.457l0.281-0.355
		l-1.128,0.197c-0.813-0.853-2.747-1.29-3.271-1.266l0.272-0.063l-0.779-0.184l-0.586-0.674l-0.104,0.377
		c-0.515-1-1.999-0.468-2.766-1.352l0.573-0.194l-2.545-0.15l0.44-0.357l-1.271-0.126c-0.021,0.378-0.601,0.456-0.847,0.226
		l0.036-0.083l-1.142-0.253l0.312-0.291l-1.027-1.074l-0.448,0.283l-0.284-0.558l-1.548,0.621l-0.106-0.054l0.355-0.683
		l-1.333,0.217l-2.174-1.042l0.583-0.673l-2.054-1.143c0.092,0.845-0.781,0.215-1.167,0.541l-0.198-0.096l-0.298-0.849l-2.325-0.948
		l0.103-0.103l-2.567-0.548l-0.089-0.044l0.279-0.273c-0.395-0.375-0.546-0.091-0.761,0.058l-0.278-0.146l0.228-0.15l-1.657-0.545
		h-0.021l0.358-0.229l-1.181-0.17l-0.489-0.229l0.293-0.298l-1.174-0.127l-0.045-0.024l-0.138-0.45l-1.127-0.165l-0.341-0.166
		l-0.273-0.644l-7.279-2.979l-0.85-0.41l0.688-0.646l-1.41-0.247l0.005-0.103l-0.859-0.493l-0.07,0.146
		c-0.563,0.178-0.526-1.144-1.066-0.524l-0.117-0.54l-1.228-0.187l0.113-0.083c-0.494-0.585-1.653,0.055-1.66-0.566l-1.043,0.067
		l-0.434-0.192l0.203-0.392c-1.469-0.603-3.437-1.313-4.774-1.804l-1.326-0.636l-0.107-0.056l-5.213,9.825
		c-0.383,0.525-0.542,1.011-0.822,1.553l-1.67,3.128l-0.268,0.079c-0.118,0.192-0.049,0.414-0.089,0.63l-0.518,0.942l0.937,1.424
		C70.051,169.774,70.21,170.028,70.418,170.31z M75.451,173.999l-0.169,0.941L75.451,173.999z"/>
	<polygon fill="#FFCD41" points="85.192,183.007 84.856,183.171 85.291,183.267 	"/>
	<line fill="none" x1="87.956" y1="184.713" x2="86.669" y2="184.64"/>
	<line fill="none" x1="90.093" y1="187.185" x2="89.763" y2="187.423"/>
	<line fill="none" x1="90.894" y1="187.25" x2="90.601" y2="186.726"/>
	<line fill="none" x1="96.681" y1="190.968" x2="96.141" y2="190.625"/>
	<polygon fill="#FFCD41" points="99.013,192.064 99.306,191.812 99.092,191.697 	"/>
	<polygon fill="#FFCD41" points="144.742,185.342 145.022,185.425 144.939,185.074 	"/>
	<line fill="none" x1="122.961" y1="171.022" x2="123.088" y2="171.43"/>
	<polygon fill="#FFCD41" points="110.537,166.968 110.346,167.514 110.62,167.004 	"/>
	<path fill="#FFCD41" d="M411.509,435.21l-0.992,0.367l-0.133-1.389l-0.59-0.527l0.422,0.039l-1.302-0.914l-0.85-1.881
		c-0.758,0.143-0.5-0.982-1.195-0.465l0.128-0.24l-1.142-0.049l0.485-0.279l-0.265-1.066l-0.56-0.012l-0.383-0.155l-0.801-0.383
		l0.438-0.375l-0.721-0.746c0.003-0.056-0.012-0.108-0.15-0.226l-0.215-0.586l0.408-0.224l-1.132-0.271l-2.474-2.484l0.271,0.043
		l-0.636-0.465l-0.275-0.859l-0.242,0.313l-2.005-2.367l0.631,0.06l-2.265-1.17l0.536-0.139l-1.277-0.697l-0.688-0.053l0.072-0.066
		l-0.935-0.688l0.396-0.149l-0.514-1.399l-0.537,0.077l-0.039-0.633l-1.646-0.055l-0.076-0.098l0.585-0.465l-1.298-0.344
		l-1.553-1.828l0.792-0.39l-1.415-1.858c-0.277,0.806-0.802-0.1-1.279,0.041l-0.265-0.278c-0.105-0.333,0.229-0.535,0.162-0.812
		l-1.756-1.791l0.148-0.078l-2.134-1.516l-0.063-0.08l0.354-0.132c-0.185-0.483-0.438-0.299-0.678-0.258l-0.23-0.238l0.273-0.051
		l-1.296-1.16l-0.016-0.009l0.408-0.077l-1.012-0.614l-0.36-0.431l0.42-0.128l-1.049-0.615l-0.024-0.023l0.046-0.476l-0.951-0.592
		l-0.274-0.301l0.027-0.688l-5.467-5.639l-0.638-0.742c0.256-0.627,0.738,0.215,0.916-0.302c-0.468,0.399-0.468-0.279-1.194-0.813
		l0.031-0.092l-0.582-0.789l-0.119,0.126c-0.598-0.075-0.017-1.245-0.771-0.896l0.123-0.546l-1.061-0.666l0.128-0.041l-1.279-1.183
		l-0.955-0.346l-0.331-0.382l0.335-0.278c-1.069-1.096-2.561-2.519-3.569-3.485l-1.104-1.283l-8.757,6.912
		c-0.548,0.319-0.893,0.694-1.351,1.058l-2.822,2.214l-0.272-0.047c-0.178,0.127-0.186,0.361-0.331,0.52l-0.831,0.666l0.279,1.684
		c0.015,0.313,0.043,0.624,0.128,0.939l0.686,4.133l0.856,0.981c0.447,0.539,0.913,1.152,1.379,1.716l-0.432-0.094l0.112,0.689
		l0.503,0.23l-0.354,0.25l1.456,1.787l0.146-0.536l0.994,1.119l-0.533,0.332l0.398,0.205l-0.738,0.26
		c0.9-0.433,1.133,0.88,1.393,0.954l-0.145,0.025c0.215,0.805,0.246-0.346,0.57,0.041l-0.527,1.146l1.81,2.312l1.843,1.176
		l0.002,0.727l-1.411,0.688l0.445,0.625l0.264-0.592c0.271-0.696,0.752,0.89,1.03-0.024l1.661,2.271l-0.687,0.342l1.706,1.197
		l0.649-0.705l0.53,0.242l-0.533,1.399c-0.754,0.331-0.685-1.015-1.107-0.282c-0.684,0.127-1.521-0.875-1.396-1.328
		c-0.929-0.096,0.253,0.438-0.355,0.737l1.46,1.071l0.61-0.303c1.049,0.19,0.229,1.077,0.316,1.247l-0.383-0.188l0.941,0.878
		c-0.611,0.682-0.637-0.638-1.215-0.462l-0.248,0.715l1.094,0.566l-0.33,0.108l0.529,0.313l0.23-0.929
		c0.882-0.296,0.369,0.269,0.962,0.747l0.127-0.531l0.941,0.303l-0.327,0.984l-0.229-0.52c-0.853-0.28-0.593,0.895-1.195,0.693
		c0.157,0.789,0.803,0.043,1.094,0.578c-0.585-0.332,0.222-0.354,0.292-0.631c1.67-0.025-0.381,1.106,0.422,1.731
		c0.549-0.688,1.738,0.278,2.039-0.86l0.667,0.434l-0.798,0.615l0.215,0.278l-0.87,0.024l-0.055,1.653l0.815-0.104l-0.174,0.678
		l0.96-0.354l-0.022,1.094l-0.688-0.076l0.33,0.477l1.248-0.41l0.256,0.681l-0.594-0.195l0.022,1.104l0.468-0.148l-0.292,0.334
		l0.704,0.314l-0.196,0.236c0.349,0.109,1.069-0.041,0.839,0.625l-0.277-0.891l0.84,0.115c-0.62,0.464,0.413,0.647,0.625,0.929
		l-0.112,0.79l0.47-0.234c-0.653,0.742,0.579,0.432,0.688,0.903l-0.571,0.636l1.438-0.57c0.351,0.683-0.813,0.492-1.054,0.987
		l1.066,0.524l0.721-0.407l-0.179,0.658l0.808-0.441l0.992,0.788l1.091,0.026l1.066-0.563c0.058,0.042,0.096,0.098,0.146,0.147
		c-0.199-0.026-0.521-0.104-0.607,0.315l0.314,0.194c-0.179,0.938-1.733,0.16-1.858,0.949l0.515,0.118l-0.687,0.56l0.971,0.534
		l-0.039-0.35l1.406,0.479l-0.648,0.644l0.629,0.181l-0.229,0.169c1.217,1.298,2.892,2.822,4.732,2.975l0.729,1.854l0.484-0.286
		l-0.026,0.734l1.531,0.738l-0.152,0.424l0.743,0.105l-0.023,0.508l0.27-0.268l0.629,0.904l0.347-0.276l2.273,1.26l0.024-0.79
		l0.62-0.002l-0.372,0.566c0.585,1.225,2.385,1.336,3.605,2.078l0.481-0.197l2.584,1.502l0.942-0.729
		c0.691-0.271-0.046,0.801,0.308,1.319l0.983,0.147l-0.076,0.086l1.162,0.314l-0.064,0.014l0.818,0.756l1.2-0.158l0.024,0.234
		l0.13-0.406l0.526,0.5l-0.432,0.322l0.687-0.367c3.804-1.5,1.4-0.582,2.507-0.883c-0.854,0.651,1.875-0.615-2.374,1.23
		c-0.522,0.396,1.704-0.533,2.607-0.905l-0.08-0.61l0.795-0.557l0.048-0.841l-0.817,0.353l0.383-0.578l-0.064-0.433l0.764-0.065
		l0.162-1.07l1.182,0.266l-0.111-0.772l0.485-0.097c0.804-0.771-0.536-1.642,0.274-2.119l0.432,0.076l-0.017-0.465
		c1.424,0.024,1.571-1.941,2.724-2.664l0.035-0.906l0.804-0.707l-0.693-0.213c0.737-0.418-0.25-1.597,0.711-1.525l0.367,0.607
		C413.252,439.493,411.075,433.575,411.509,435.21z M352.015,402.569l0.533-0.789L352.015,402.569z"/>
	<polygon fill="#FFCD41" points="395.156,418.019 395.226,418.059 395.512,418.077 	"/>
	<polygon fill="#FFCD41" points="408.205,444.954 408.038,445.251 408.353,445.299 	"/>
	<polygon fill="#FFCD41" points="408.038,445.251 407.947,445.229 407.943,445.392 	"/>
	<polygon fill="#FFCD41" points="357.955,415.278 357.824,415.14 357.609,415.678 	"/>
	<path fill="#FFCD41" d="M404.493,451.673v0.023C405.123,451.417,404.913,451.498,404.493,451.673z"/>
	<polygon fill="#FFCD41" points="404.842,449.411 404.826,449.448 404.848,449.631 	"/>
	<polygon fill="#FFCD41" points="374.99,434.965 374.99,434.952 374.177,434.946 	"/>
	<line fill="none" x1="352.015" y1="402.569" x2="352.542" y2="401.776"/>
	<polygon fill="#FFCD41" points="357.455,413.972 357.812,414.237 357.812,413.946 	"/>
	<line fill="none" x1="359.657" y1="416.642" x2="358.524" y2="416.054"/>
	<line fill="none" x1="360.612" y1="419.766" x2="360.236" y2="419.856"/>
	<line fill="none" x1="361.32" y1="420.146" x2="361.27" y2="419.553"/>
	<line fill="none" x1="365.121" y1="425.877" x2="364.762" y2="425.334"/>
	<polygon fill="#FFCD41" points="366.799,427.812 367.17,427.716 367.018,427.509 	"/>
	<polygon fill="#FFCD41" points="411.552,440.282 411.613,439.922 411.334,440.095 	"/>
	<line fill="none" x1="397.177" y1="418.211" x2="397.127" y2="418.643"/>
	<polygon fill="#FFCD41" points="387.514,409.569 387.437,409.487 387.059,409.925 	"/>
	<polygon fill="#FFCD41" points="182.636,151.795 182.602,151.835 182.645,152.011 	"/>
	<polygon fill="#FFCD41" points="172.953,120.379 173.062,120.429 173.312,120.446 	"/>
	<polygon fill="#FFCD41" points="185.835,147.618 185.739,147.606 185.733,147.77 	"/>
	<polygon fill="#FFCD41" points="135.716,117.631 135.605,117.507 135.397,118.037 	"/>
	<polygon fill="#FFCD41" points="186.005,147.334 185.835,147.618 186.148,147.679 	"/>
	<line fill="none" x1="151.966" y1="137.299" x2="152.765" y2="137.318"/>
	<path fill="#FFCD41" d="M127.179,98.75l0.683,4.134l0.841,0.958c0.463,0.547,0.913,1.163,1.36,1.721l-0.422-0.097l0.094,0.688
		l0.512,0.229l-0.356,0.254l1.473,1.784l0.134-0.546l1.004,1.114l-0.547,0.334l0.402,0.208l-0.738,0.278
		c0.918-0.435,1.132,0.865,1.408,0.953l-0.179,0.027c0.23,0.795,0.246-0.37,0.58,0.025l-0.519,1.146l1.799,2.313l1.839,1.188
		l0.025,0.724l-1.429,0.69l0.463,0.633l0.245-0.607c0.282-0.704,0.769,0.892,1.043-0.024l1.652,2.275l-0.683,0.353l1.713,1.217
		l0.643-0.73l0.531,0.246l-0.543,1.403c-0.758,0.326-0.671-1.021-1.094-0.292c-0.687,0.136-1.544-0.868-1.399-1.318
		c-0.94-0.104,0.239,0.433-0.347,0.742l1.471,1.066l0.597-0.305c1.042,0.197,0.202,1.069,0.306,1.256l-0.383-0.208l0.927,0.88
		c-0.607,0.676-0.622-0.635-1.176-0.46l-0.271,0.708l1.081,0.568l-0.303,0.123l0.488,0.315l0.256-0.934
		c0.867-0.287,0.353,0.258,0.961,0.747l0.136-0.53l0.932,0.307l-0.322,0.97l-0.23-0.508c-0.869-0.279-0.606,0.895-1.207,0.695
		c0.172,0.774,0.798,0.046,1.095,0.569c-0.555-0.324,0.232-0.359,0.311-0.617c1.67-0.025-0.361,1.114,0.432,1.736
		c0.527-0.688,1.721,0.271,2.019-0.876l0.68,0.442l-0.813,0.606l0.225,0.288l-0.862,0.012l-0.068,1.653l0.809-0.101l-0.149,0.681
		l0.941-0.354l0.022,1.101l-0.69-0.076l0.315,0.46l1.247-0.395l0.256,0.664l-0.595-0.189l0.018,1.097l0.464-0.136l-0.296,0.337
		l0.716,0.299l-0.197,0.228c0.319,0.109,1.07-0.027,0.852,0.641l-0.296-0.896l0.816,0.111c-0.604,0.471,0.433,0.638,0.637,0.933
		l-0.109,0.779l0.483-0.229c-0.66,0.737,0.58,0.438,0.649,0.919l-0.562,0.626l1.452-0.569c0.336,0.688-0.841,0.504-1.062,1.001
		l1.051,0.5l0.737-0.396l-0.185,0.656l0.823-0.456l0.977,0.809l1.104,0.021l1.043-0.576c0.049,0.051,0.092,0.104,0.135,0.156
		c-0.19-0.01-0.498-0.092-0.591,0.323l0.317,0.196c-0.192,0.941-1.755,0.146-1.862,0.949l0.503,0.103l-0.658,0.563l0.953,0.552
		l-0.019-0.36l1.369,0.462l-0.638,0.668l0.64,0.188l-0.246,0.164c1.245,1.292,2.914,2.819,4.761,2.978l0.714,1.851l0.501-0.28
		l-0.063,0.712l1.535,0.748l-0.13,0.433l0.724,0.088l-0.007,0.521l0.279-0.258l0.609,0.907l0.339-0.283l2.315,1.271l0.006-0.793
		l0.626,0.002l-0.382,0.565c0.595,1.227,2.391,1.333,3.595,2.075l0.475-0.2l2.6,1.501l0.925-0.731
		c0.737-0.263-0.045,0.798,0.344,1.337l0.963,0.143l-0.045,0.083l1.188,0.315l-0.082,0.006l0.836,0.771l1.186-0.166l0.025,0.235
		l0.111-0.419l0.532,0.507l-0.42,0.323l0.688-0.366c3.828-1.455,1.399-0.563,2.521-0.849c-0.862,0.646,1.868-0.601-2.394,1.195
		c-2.368,1.237,3-1.044,2.613-0.857l-0.103-0.637l0.809-0.547l0.055-0.843l-0.817,0.352l0.372-0.565l-0.064-0.438l0.746-0.063
		l0.2-1.066l1.177,0.26l-0.112-0.771l0.488-0.104c0.801-0.768-0.533-1.632,0.278-2.121l0.417,0.079l-0.023-0.458
		c1.433,0.024,1.59-1.943,2.736-2.674l0.038-0.904l0.802-0.697l-0.703-0.228c0.743-0.413-0.25-1.579,0.711-1.517l0.367,0.596
		c1.381,0.137-0.788-5.783-0.33-4.146l-1.026,0.37l-0.118-1.381l-0.593-0.523l0.426,0.015l-1.309-0.911l-0.868-1.888
		c-0.743,0.151-0.49-0.992-1.181-0.469l0.107-0.258l-1.115-0.02l0.501-0.294l-0.273-1.056l-0.578-0.026l-0.374-0.155l-0.79-0.372
		l0.437-0.38l-0.735-0.76c0.002-0.055-0.013-0.101-0.147-0.202l-0.213-0.597l0.397-0.204l-1.123-0.276l-2.478-2.493l0.276,0.053
		l-0.646-0.47l-0.278-0.848l-0.231,0.306l-1.988-2.364l0.598,0.037l-2.266-1.164l0.538-0.141l-1.248-0.706l-0.728-0.044l0.068-0.076
		l-0.936-0.694l0.398-0.133l-0.494-1.392l-0.559,0.074l-0.021-0.625l-1.654-0.05l-0.091-0.1l0.605-0.469l-1.313-0.348l-1.546-1.827
		l0.79-0.388l-1.423-1.866c-0.253,0.808-0.801-0.102-1.277,0.044l-0.224-0.272c-0.142-0.332,0.211-0.536,0.142-0.809l-1.749-1.802
		l0.126-0.076l-2.099-1.484l-0.091-0.103l0.383-0.127c-0.219-0.499-0.479-0.304-0.716-0.27l-0.21-0.24l0.255-0.053l-1.294-1.154
		l-0.017-0.006l0.407-0.073l-0.994-0.616l-0.362-0.421l0.397-0.144l-1.048-0.614l-0.017-0.021l0.034-0.473l-0.942-0.599
		l-0.273-0.299l0.03-0.718l-5.443-5.625l-0.645-0.75c0.243-0.619,0.732,0.211,0.907-0.313c-0.476,0.405-0.464-0.273-1.195-0.804
		l0.057-0.083l-0.603-0.8l-0.109,0.12c-0.583-0.065-0.016-1.247-0.771-0.902l0.115-0.543l-1.042-0.664l0.111-0.037l-1.277-1.188
		l-0.962-0.344l-0.328-0.39l0.34-0.27c-1.111-1.181-2.723-2.681-3.707-3.663l-0.979-1.14l-8.727,6.894
		c-0.536,0.328-0.896,0.705-1.354,1.074l-2.802,2.216l-0.254-0.037c-0.197,0.127-0.224,0.37-0.355,0.532l-0.843,0.681l0.262,1.628
		C127.064,98.097,127.097,98.406,127.179,98.75z M130.328,104.136l-0.553,0.784L130.328,104.136z"/>
	<line fill="none" x1="129.773" y1="104.918" x2="130.328" y2="104.136"/>
	<polygon fill="#FFCD41" points="135.227,116.33 135.594,116.587 135.595,116.304 	"/>
	<line fill="none" x1="137.433" y1="118.984" x2="136.295" y2="118.405"/>
	<line fill="none" x1="138.399" y1="122.116" x2="137.996" y2="122.198"/>
	<line fill="none" x1="139.103" y1="122.492" x2="139.032" y2="121.899"/>
	<line fill="none" x1="142.912" y1="128.233" x2="142.547" y2="127.681"/>
	<polygon fill="#FFCD41" points="144.584,130.17 144.964,130.064 144.802,129.866 	"/>
	<polygon fill="#FFCD41" points="189.353,142.659 189.414,142.309 189.136,142.467 	"/>
	<line fill="none" x1="174.924" y1="121.013" x2="174.992" y2="120.594"/>
	<polygon fill="#FFCD41" points="165.251,111.867 164.873,112.296 165.306,111.935 	"/>
	<path fill="#FFCD41" d="M331.404,478.664l0.45-1.317l-0.33-0.709l0.375,0.21l-0.816-1.358l-0.042-2.072
		c-0.744-0.164-0.05-1.102-0.89-0.903l0.218-0.172l-1.023-0.498l0.554-0.062c0.707-0.141-0.127-0.891,0.2-1.09l-0.506-0.238
		l-0.289-0.301l-0.588-0.658l0.583-0.176l-0.389-0.992c0.026-0.049,0.026-0.104-0.049-0.239l0.076-0.636l0.438-0.025l-0.921-0.699
		c0.07-1.188-0.911-2.898-1.28-3.285l0.244,0.158l-0.396-0.687l0.076-0.894l-0.33,0.178l-0.873-2.957l0.536,0.281l-1.604-1.986
		l0.546,0.094l-0.861-1.15l-0.637-0.334l0.098-0.025l-0.587-1.004l0.417,0.025c0.645-0.324,0.076-1.34,0.109-1.467l-0.513-0.15
		l0.218-0.586l-1.496-0.716l-0.046-0.126l0.739-0.184l-1.029-0.84l-0.706-2.315l0.892-0.026l-0.563-2.293
		c-0.565,0.646-0.685-0.383-1.181-0.471l-0.104-0.34c0.021-0.357,0.41-0.393,0.458-0.666l-0.889-2.366l0.167-0.007l-1.336-2.24
		l-0.024-0.111l0.38,0.024c0.023-0.534-0.293-0.458-0.524-0.515l-0.107-0.299l0.275,0.064l-0.737-1.607l0.401,0.101l-0.646-0.968
		l-0.183-0.542l0.433,0.026l-0.695-0.971l-0.023-0.036l0.252-0.415l-0.652-0.941l-0.109-0.362l0.312-0.631l-2.72-7.405l-0.287-0.896
		c0.481-0.471,0.604,0.502,0.968,0.082c-0.587,0.193-0.328-0.42-0.769-1.213l0.071-0.061l-0.217-0.979l-0.161,0.064
		c-0.489-0.297,0.503-1.148-0.332-1.134l0.332-0.458l-0.689-1.038l0.136,0.021c0.09-0.757-1.162-1.18-0.706-1.604l-0.739-0.713
		l-0.144-0.479l0.435-0.094c-0.551-1.516-1.399-3.543-1.928-4.842l-0.432-1.444l-10.77,2.774c-0.64,0.074-1.115,0.279-1.69,0.438
		l-3.454,0.89l-0.236-0.142c-0.222,0.046-0.318,0.24-0.513,0.339l-1.058,0.271l-0.414,1.629c-0.107,0.306-0.193,0.616-0.259,0.938
		l-1.081,4.061l0.394,1.236c0.192,0.674,0.371,1.424,0.563,2.125l-0.347-0.272l-0.188,0.67l0.381,0.425l-0.419,0.098l0.604,2.203
		l0.344-0.433l0.448,1.427l-0.624,0.098l0.279,0.341l-0.787-0.03c1.02-0.05,0.688,1.246,0.897,1.428l-0.156-0.033
		c-0.11,0.814,0.378-0.229,0.513,0.26l-0.931,0.83l0.718,2.855l1.179,1.812c0.152,0.597-0.718,0.161-0.255,0.676
		c-0.635-0.021-1.146,0.815-1.599,0.042l0.188,0.75l0.465-0.447c0.535-0.525,0.345,1.146,0.957,0.389l0.604,2.772l-0.746,0.045
		l1.049,1.798l0.901-0.394l0.354,0.428l-1.05,1.069c-0.823-0.014-0.203-1.195-0.883-0.705l-0.739-1.783
		c-0.807-0.451,0.036,0.497-0.625,0.539l0.911,1.568l0.673-0.036c0.856,0.597-0.242,1.069-0.22,1.282l-0.272-0.342l0.494,1.192
		c-0.843,0.354-0.305-0.838-0.899-0.899l-0.531,0.545c0.141,0.858,0.771,0.045,0.784,0.973l-0.36-0.025l0.337,0.481l0.604-0.755
		l0.584,1.088l0.348-0.438l0.733,0.666l-0.697,0.758l-0.002-0.563l-1.4,0.155l0.788,0.96c-0.391-0.534,0.354-0.229,0.521-0.441
		c1.553,0.638-0.772,0.862-0.287,1.763c0.757-0.433,1.468,0.941,2.204,0.01l0.432,0.682l-0.989,0.229l0.078,0.352l-0.789-0.32
		l-0.723,1.481l0.78,0.229l-0.423,0.563l1.023,0.061l-0.449,1.006l-0.604-0.351l0.084,0.539l1.318,0.144l-0.025,0.717l-0.471-0.418
		l-0.436,1.027l0.482,0.04l-0.399,0.216l0.536,0.549l-0.28,0.136l0.513,0.919l0.104-0.941c0.44-0.453,0.604,0.352,0.69,0.443
		c-0.737,0.181,0.136,0.756,0.226,1.1l-0.401,0.664l0.501-0.025c-0.882,0.427,0.371,0.639,0.236,1.1l-0.756,0.355l1.552,0.074
		c0.033,0.754-0.941,0.109-1.367,0.481l0.747,0.89l0.843-0.074l-0.418,0.537l0.916-0.091l0.577,1.148l-0.727-0.351
		c0.306,0.883,1.235,0.047,1.704,0.789l1.202-0.078c0.025,0.057,0.04,0.127,0.075,0.191c-0.169-0.078-0.428-0.289-0.686,0.057
		l0.229,0.305c-0.576,0.787-1.677-0.57-2.106,0.127l0.432,0.285l-0.841,0.26l0.669,0.882l0.109-0.33l1.077,0.992l-0.841,0.328
		l0.483,0.431l-0.286,0.061c0.629,1.688,1.532,3.74,3.164,4.645l-0.108,1.99l0.576-0.07l-0.326,0.641l1.097,1.289l-0.299,0.332
		l0.628,0.389l-0.23,0.471l0.349-0.129c0.398,0.306,0.799,0.789,0.218,1.082l0.431-0.118l1.582,2.077l0.345-0.719l0.559,0.252
		l-0.568,0.377l2.44,3.339l0.525,0.008l1.756,2.433l1.162-0.297c0.774,0.051-0.361,0.725-0.231,1.356l0.839,0.523l-0.077,0.049
		l0.941,0.761l-0.087-0.022l0.463,1.029l1.156,0.345l-0.072,0.213l0.278-0.318l0.27,0.684l-0.501,0.12
		c0.279,0.749,0.385-0.154,0.779-0.067c4.088,0.18,1.485,0.035,2.649,0.229c-1.068,0.253,1.945,0.178-2.671,0.153
		c-0.652,0.143,1.776,0.205,2.748,0.229l0.17-0.589l0.948-0.179l0.38-0.754l-0.893-0.021l0.582-0.354l0.127-0.437l0.711,0.263
		l0.586-0.905c0.278,0.391,0.334,1.011,0.964,0.706l0.23-0.738l0.472,0.098c1.054-0.381,0.18-1.712,1.113-1.827l0.355,0.23
		l0.176-0.411c1.293,0.608,2.241-1.149,3.572-1.349c-0.452-0.521,0.326-0.465,0.406-0.815c0.331,0.638,0.495-0.489,1.027-0.315
		l-0.548-0.481c0.822-0.078,0.41-1.558,1.261-1.112l0.078,0.688c1.2,0.688,1.652-5.599,1.397-3.923L331.404,478.664z
		 M291.13,424.823l0.812-0.483L291.13,424.823z"/>
	<polygon fill="#FFCD41" points="324.449,456.391 324.509,456.477 324.737,456.599 	"/>
	<path fill="#FFCD41" d="M319.386,490.958l-0.024,0.021C320.058,490.972,319.84,490.977,319.386,490.958z"/>
	<polygon fill="#FFCD41" points="291.473,438.856 291.423,438.682 290.988,439.095 	"/>
	<polygon fill="#FFCD41" points="320.616,489.033 320.567,489.059 320.528,489.23 	"/>
	<polygon fill="#FFCD41" points="325.206,486.502 325.137,486.444 325.061,486.6 	"/>
	<polygon fill="#FFCD41" points="325.491,486.309 325.206,486.502 325.488,486.683 	"/>
	<line fill="none" x1="291.13" y1="424.823" x2="291.942" y2="424.338"/>
	<polygon fill="#FFCD41" points="291.545,437.465 291.762,437.849 291.886,437.594 	"/>
	<line fill="none" x1="292.473" y1="440.786" x2="291.687" y2="439.792"/>
	<line fill="none" x1="292.096" y1="444.04" x2="291.719" y2="443.964"/>
	<line fill="none" x1="292.771" y1="444.094" x2="292.585" y2="444.669"/>
	<line fill="none" x1="293.763" y1="451.468" x2="293.658" y2="450.807"/>
	<polygon fill="#FFCD41" points="294.499,453.896 294.897,453.97 294.851,453.712 	"/>
	<polygon fill="#FFCD41" points="330.447,483.389 330.635,483.086 330.325,483.136 	"/>
	<line fill="none" x1="325.997" y1="457.771" x2="326.214" y2="457.399"/>
	<polygon fill="#FFCD41" points="320.814,445.489 320.304,445.716 320.861,445.585 	"/>
	<path fill="#FFCD41" d="M207.868,63.559l-0.352-0.263l-0.164,0.672l0.375,0.417l-0.432,0.092l0.619,2.213l0.331-0.432l0.462,1.423
		l-0.62,0.103l0.271,0.322l-0.768-0.024c1.008-0.036,0.689,1.253,0.896,1.436l-0.148-0.037c-0.127,0.815,0.354-0.235,0.493,0.264
		l-0.935,0.837l0.723,2.842l1.196,1.819c0.147,0.585-0.756,0.151-0.28,0.667c-0.611-0.014-1.137,0.816-1.57,0.044l0.174,0.763
		l0.473-0.457c0.525-0.533,0.321,1.124,0.941,0.395l0.611,2.754l-0.759,0.042l1.072,1.813l0.871-0.403l0.375,0.433l-1.059,1.071
		c-0.804,0.01-0.2-1.195-0.889-0.702l-0.732-1.78c-0.815-0.47,0.05,0.503-0.637,0.534l0.93,1.57l0.666-0.029
		c0.875,0.603-0.23,1.072-0.229,1.266l-0.271-0.333l0.5,1.181c-0.837,0.369-0.332-0.837-0.89-0.895l-0.528,0.536
		c0.119,0.859,0.766,0.054,0.743,0.973l-0.338-0.026l0.318,0.486l0.637-0.75l0.564,1.086l0.347-0.433l0.733,0.65l-0.691,0.764
		l-0.011-0.566l-1.374,0.159l0.767,0.963c-0.384-0.528,0.354-0.23,0.519-0.454c1.568,0.655-0.76,0.885-0.308,1.76
		c0.777-0.421,1.47,0.94,2.211,0.02l0.43,0.684l-0.954,0.228l0.081,0.347l-0.807-0.34l-0.725,1.499l0.794,0.232l-0.418,0.559
		l1.009,0.046l-0.453,1.015l-0.596-0.354l0.104,0.558l1.301,0.133l-0.026,0.712l-0.475-0.402l-0.422,1.015l0.474,0.051l-0.398,0.194
		l0.532,0.562l-0.278,0.129l0.518,0.917l0.105-0.929c0.44-0.461,0.618,0.345,0.708,0.433c-0.746,0.187,0.129,0.753,0.202,1.108
		l-0.422,0.655h0.536c-0.897,0.411,0.354,0.623,0.231,1.094l-0.772,0.353l1.571,0.066c0.026,0.758-0.979,0.12-1.376,0.489
		l0.753,0.879l0.822-0.074l-0.416,0.54l0.902-0.101l0.597,1.146l-0.742-0.352c0.331,0.89,1.256,0.057,1.734,0.797l1.195-0.087
		c0.016,0.067,0.041,0.129,0.037,0.184c-0.149-0.076-0.412-0.29-0.657,0.051l0.235,0.326c-0.572,0.779-1.677-0.571-2.099,0.122
		l0.41,0.301l-0.829,0.248l0.654,0.88l0.107-0.339l1.096,1.001l-0.861,0.327l0.503,0.426l-0.28,0.062
		c0.604,1.679,1.516,3.745,3.146,4.641l-0.095,1.978l0.587-0.054l-0.328,0.646l1.083,1.283l-0.294,0.328l0.628,0.399l-0.222,0.46
		l0.354-0.127c0.391,0.31,0.8,0.79,0.185,1.072l0.446-0.115l1.584,2.08l0.351-0.723l0.557,0.252l-0.565,0.37l2.442,3.345
		l0.503,0.013l1.787,2.417l1.145-0.291c0.777,0.055-0.358,0.728-0.241,1.362l0.841,0.528l-0.076,0.043l0.94,0.764l-0.081-0.007
		l0.468,1.025l1.146,0.339l-0.07,0.217l0.27-0.33l0.271,0.676l-0.523,0.115c0.283,0.766,0.385-0.153,0.762-0.063
		c4.122,0.185,1.529,0.049,2.685,0.229c-1.063,0.25,1.953,0.188-2.669,0.161c-0.67,0.135,1.769,0.194,2.732,0.224l0.168-0.596
		l0.969-0.179l0.379-0.748l-0.894-0.015l0.58-0.377l0.126-0.421l0.723,0.249l0.57-0.898c0.285,0.382,0.352,0.996,0.98,0.702
		l0.224-0.737l0.484,0.106c1.038-0.382,0.178-1.725,1.115-1.845l0.354,0.242l0.158-0.429c1.315,0.606,2.239-1.146,3.573-1.335
		c-0.453-0.533,0.368-0.471,0.413-0.82c0.335,0.628,0.49-0.484,1.023-0.32l-0.562-0.479c0.854-0.076,0.412-1.56,1.256-1.114
		l0.101,0.698c1.217,0.687,1.585-5.614,1.355-3.933l-1.074-0.073l0.451-1.316l-0.332-0.713l0.354,0.203l-0.809-1.369l-0.042-2.067
		c-0.737-0.153-0.051-1.102-0.876-0.898l0.213-0.172l-1.036-0.484l0.566-0.074c0.694-0.135-0.118-0.896,0.187-1.09l-0.514-0.241
		l-0.28-0.293l-0.554-0.665l0.541-0.167l-0.374-0.993c0.025-0.042,0.035-0.096-0.056-0.246l0.059-0.636l0.444-0.025l-0.922-0.705
		c0.077-1.167-0.89-2.879-1.264-3.277l0.229,0.162l-0.382-0.675l0.083-0.896l-0.339,0.179l-0.868-2.963l0.546,0.281l-1.605-1.977
		l0.545,0.085l-0.861-1.154l-0.637-0.331l0.085-0.031l-0.563-1.012l0.402,0.029c0.649-0.327,0.074-1.332,0.126-1.466l-0.534-0.146
		l0.219-0.599l-1.487-0.714l-0.053-0.13l0.751-0.186l-1.043-0.833l-0.705-2.316l0.898-0.024l-0.551-2.291
		c-0.565,0.639-0.681-0.396-1.184-0.484l-0.107-0.342c0.014-0.346,0.408-0.383,0.453-0.667l-0.863-2.359l0.144-0.014l-1.333-2.225
		l-0.025-0.123l0.377,0.024c0.025-0.53-0.278-0.456-0.531-0.501l-0.093-0.326l0.263,0.073l-0.72-1.604l0.406,0.103l-0.673-0.976
		l-0.147-0.532l0.407,0.027l-0.701-0.967l-0.012-0.046l0.229-0.406l-0.648-0.941l-0.115-0.366l0.314-0.635l-2.709-7.344
		l-0.292-0.963c0.481-0.457,0.594,0.505,0.961,0.085c-0.595,0.192-0.317-0.412-0.755-1.212l0.064-0.053l-0.212-0.981l-0.145,0.066
		c-0.519-0.303,0.473-1.149-0.347-1.14l0.339-0.442l-0.716-1.042l0.148,0.012c0.095-0.754-1.162-1.178-0.689-1.599l-0.738-0.727
		l-0.143-0.463l0.432-0.105c-0.537-1.417-1.298-3.285-1.84-4.579l-0.5-1.664l-10.844,2.776c-0.622,0.075-1.069,0.28-1.631,0.417
		l-3.502,0.891l-0.229-0.136c-0.2,0.045-0.319,0.241-0.496,0.323l-1.037,0.283l-0.434,1.646c-0.104,0.313-0.198,0.59-0.241,0.942
		l-1.064,4.052l0.38,1.246C207.497,62.106,207.695,62.864,207.868,63.559z M208.676,62.351l-0.816,0.496L208.676,62.351z"/>
	<path fill="#FFCD41" d="M236.1,128.975l-0.005,0.015C236.789,128.985,236.573,128.985,236.1,128.975z"/>
	<polygon fill="#FFCD41" points="241.943,124.505 241.864,124.46 241.791,124.624 	"/>
	<polygon fill="#FFCD41" points="242.202,124.309 241.943,124.505 242.199,124.686 	"/>
	<polygon fill="#FFCD41" points="237.311,127.054 237.299,127.056 237.262,127.243 	"/>
	<polygon fill="#FFCD41" points="241.148,94.385 241.208,94.466 241.441,94.586 	"/>
	<line fill="none" x1="210.473" y1="89.479" x2="210.353" y2="88.828"/>
	<polygon fill="#FFCD41" points="211.241,91.927 211.63,91.988 211.546,91.74 	"/>
	<polygon fill="#FFCD41" points="247.155,121.393 247.36,121.09 247.039,121.137 	"/>
	<line fill="none" x1="242.7" y1="95.762" x2="242.902" y2="95.395"/>
	<path fill="#FFCD41" d="M369.76,210.024c0.159,0.107,0.327,0.202,0.486,0.313C370.906,209.797,370.461,209.848,369.76,210.024z"/>
	<path fill="#FFCD41" d="M222.765,145.107c-1.252-0.78-0.178-3.635-2.174-3.129c-0.618,3.102,3.609,5.733,6.885,5.695
		c0.262,0.217,0.3,0.381,0.45,0.582c-0.661-1.146-0.991-2.275-0.679-3.445C225.749,144.703,223.547,142.438,222.765,145.107z"/>
	<path fill="#FFCD41" d="M228.346,148.926c-0.149-0.229-0.298-0.45-0.429-0.683"/>
	<path fill="#FFCD41" d="M350.66,315.107c0.092-0.449,0.2-0.86,0.153-1.399"/>
	<path fill="#FFCD41" d="M139.46,292.557c0.395-0.275,1.016-0.2,1.544-0.285C140.606,291.563,140.121,291.426,139.46,292.557z"/>
	<path fill="#FFCD41" d="M166.821,184.71c-0.291,0.197-0.562,0.632-0.801,1.585"/>
	<path fill="#FFCD41" d="M228.704,142.576c-0.867,0.779-1.251,1.506-1.463,2.227C227.975,144.846,228.564,144.424,228.704,142.576z"
		/>
	<path fill="#FFCD41" d="M295.072,158.368c-0.232,0.315-0.495,0.354-0.746,0.59"/>
	<path fill="#FFCD41" d="M227.418,342.313c-0.165,0.088-0.284,0.331-0.444,0.473c0.448,0.205,0.818,0.384,1.326,0.624
		L227.418,342.313z"/>
	<path fill="#FFE130" d="M342.161,367.584c8.931,5.368,13.996-6.741,22.643-8.224c-3.714-3.589,1.618-3.485,1.553-5.989
		c3.253,4.309,2.561-3.65,6.386-2.724l-4.546-2.99c5.675-1.094-0.713-10.988,5.961-8.763c2.984-0.923,2.322,3.181,2.201,4.636
		c7.099,1.003,2.84-10.465,9.541-9.291c-1.555-1.482-4.998-2.613-4.788-6.297c3.465-0.636,8.555-3.816,9.057-3.041
		c0.123-2.551-1.146-3.806,1.652-5.152c1.146,0.792,0.834,1.852,1.014,2.844c2.927-3.038,2.673-6.771,1.755-10.804
		c4.389-0.682,4.799-8.111,7.911-12.219c-4.567-3.454,2.896-7.447-3.479-8.513l1.978-0.57c-1.681-1.907-5.675-3.448-5.796-5.447
		l4.151,0.766c5.626,0.638,0.901-6.124,3.454-6.808c-3.457,2.063-0.149-2.49-3.403-2.416l-1.568-2.365
		c-1.462-3.757-2.113-0.211-3.167-4.844c-0.766-2.527,4.749-1.833,4.298-0.741c1.72-2.731-0.184-4.759-1.779-6.841
		c-0.024-0.114-0.021-0.205-0.077-0.342c0.196-0.703-0.017-1.6-0.242-2.542c0.143-0.151,0.079-0.351-0.128-0.587
		c-0.178-0.814-0.222-1.614,0.25-2.278l3.368-0.328c-0.37-1.808-5.317-5.165-6.584-4.454c0.04-6.766-6.845-15.591-10.131-17.878
		c1.094,0.44,2.122,0.05,0.671-0.222c-1.739-1.813-5.456-2.564-3.748-3.77c-2.31-1.027,0.892-2.826-0.681-5.732
		c0.572-0.439-3.024,1.442-2.159,1.942c1.261-7.784-10.146-8.038-11.665-15.205c-0.331,0.943,2.36-0.038,3.722-0.385
		c-4.381-2.891-8.778-5.426-15-5.218l3.697-1.777c-2.672-2.261-6.338-4.276-9.439-2.889c0.774,2.697,1.247-1.316,2.337-0.156
		c-0.064,3.82-5.225,3.385-6.336,1.386l0.377-0.606c-2.512-2.142-3.67-0.755-6.605-2.188c-0.688-2.521,2.01,0.037,2.477-2.058
		c2.239-4.807-5.241-6.642-5.521-7.494c-1.282,0.626-2.74,0.846-3.235,2.201c-2.964,0.018,0.258-3.359-1.512-4.021
		c-3.851,2.056-7.146,3.539-10.644,6.43c1.96-0.539-0.615-4.939,2.553-6.413c-5.766-0.508-10.256,4.917-13.623,7.628
		c-1.3-1.146-6.101,0.05-7.578-0.032c-0.587-2.91,1.289,0.439,1.787-1.692l-2.237-3.735c3.363,0.19-0.23-5.07,1.769-6.748
		c-2.984,0.644-9.798,0.78-14.422,0.271c3.69,5.556-5.427,3.799-4.162,9.044c-4.443,1.714-3.334-3.873-5.499-4.716l-13.325,6.426
		l-0.256-1.106c-3.127,3.468-10.149,5.343-11.375,11.48l-0.736-2.98c-5.067,0.495,2.899,6.303-3.368,5.928l-0.424-2.796
		c-1.45,3.12-7.447,2.065-6.489,7.688c-1.209-0.828-1.062-1.765-1.307-2.67c-1.231,3.392-3.97,6.156-2.771,10.538
		c-1.672-0.677-2.62-1.91-2.78-3.721c-3.704,1.5,1.582,5.646-1.504,7.129c-0.641,0.624-3.402,0.751-3.187,0.206
		c1.167,2.631-1.299,6.493-1.357,8.393c-1.742-0.546-2.859,0.188-5.481,0.908c-7.871,14.17-16.048,33.576-6.807,49.158
		c-4.403,4.069-4.517-3.229-7.64-0.776c4.543-0.961,2.211,2.833,5.38,7.711l-0.55,0.463c1.624,1.838-0.625,4.428,1.507,6.247
		l1.02-0.688c2.999,0.978-1,7.806,4.513,5.473l-1.043,3.536c5.882-1.712,2.031,4.19,7.538,3.259l-0.914,0.449
		c2.035,4.963,10.039,1.398,8.927,5.98c3.588,0.811,7.96,1.046,10.305-2.378c-0.003,1.65-1.524,3.749-2.621,4.809
		c12.621,1.337,27.735,11.974,37.142,0.484l0.21,2.55c4.998-6.161,15.803-0.484,15.933-10.887l-0.86-4.25
		c1.834,0.394,3.367,2.672,5.086,2.994c-0.697-2.804,4.361-4.073,2.031-6.996l2.242,2.329c2.169-2.196-1.23-7.518,1.042-8.523
		l1.186,1.233c12.571-9.599,4.014-38.219-9.815-42.354c-3.384-1.498,2.854-4.374,1.378-5.278
		c-11.087-10.526-32.958-5.763-28.508,12.868c-1.729,9.876,8.637,16.334,8.659,16.308c0.174-2.661,0.823-4.826,1.675-6.71
		c0.142,0.791,0.234,1.413,0.395,2.337c4.001,4.433,8.133,13.509,7.126,14.396c1.696,1.327,0.306-1.346-9.11,2.358
		c0.119,0.224-2.499,0.553-5.146,0.854c-4.589-2.037-9.229-3.537-14.478-4.2c0.468,1.738-1.717,3.486-3.208,3.765l0.308-1.288
		l-3.16,2.146c-1.899-0.27,0.723-3.446,2.331-3.478c-5.818-3.83-11.626-5.39-11.196-9.448c-4.18,1.314-0.655-1.563-5.436-0.631
		l2.037-0.318c-4.604-1.84-2.825-4.406,3.159-7.314c10.173-19.873,15.125-40.561,38.681-46.478
		c18.268-7.888,38.113-5.928,57.604,15.379c8.521-1.488,9.08,5.494,17.162,6.465l-2.032,0.879c4.557,1.385,2.662,6.394,2.164,11.63
		c2.313-1.042,1.552,1.578,5.012-0.885c4.106,0.377-3.867,5.518-1.046,7.141c-1.303,0.586,2.335-0.94,1.242,0.053
		c6.577,4.714-2.5-0.14-4.271,8.473c4.121,9.279,8.046,20.888,1.501,29.688c0.117-0.636,3.411,0.339,2.938,1.35
		c-6.742-1.846-0.011,4.012-3.332,4.638l-1.486-2.502c-4.162,2.823-3.581,8.405-8.709,10.447c-0.853,5.281-8.731,5.295-8.778,9.818
		c-1.299-2.541-2.943-0.063-4.553-0.392c2.417,8.539-8.947,3.764-9.604,10.515l-0.667-1.255
		c-11.964,8.827-23.791,12.664-36.593,19.411c-7.66,2.434-16.667-3.112-23.999-0.229c-1.464,1.043-0.399,2.852-1.646,3.563
		c-2.027-0.211,0.178-2.52-0.546-3.481c-4.289,3.708-8.575-2.133-13.072-2.464c-0.875,1.261-2.226,1.102-2.334,3.111
		c-3.198-6.862-12.732-2.57-15.771-9.247c-1.796,7.01-4.986,1.839-7.465,1.729c-0.798-0.99,0.271-2.508,1.349-3.398
		c-3.995-1.813-6.262-2.912-8.709-8.116c-2.277-1.06-5.556,1.353-6.911-1.64c2.263-4.766-4.116-4.858-4.779-8.289
		c-2.73,3.33-7.799,2.204-8.27-1.432l5.316-2.777c-9.104-5.555-10.602-21.129-21.489-28.412l2.89-2.034
		c-2.379-0.042-0.79-21.093-4.934-30.49c2.279-2.976,4.112-7.737,4.505-10.818c-2.561-4.911-1.271-6.037-5.116-10.123
		c0.178-1.666,3.13-1.835,4.459-2.059c2.686-4.851,7.861-8.012,5.131-13.645l2.759,1.089c-0.788-4.606-1.38-12.339,4.058-14.38
		c-1.396-2.417,0.816-6.87-3.298-7.16c0.732-1.956,4.74,2.033,3.485-1.45l2.239,4.046c6.94-7.779,12.001-15.104,19.566-22.925
		c5.297,2.716,8.065-6.176,15.111-5.812c2.119-4.06,9.068-2.891,9.695-9.401l1.116,2.722c4.683-1.148,10.892-3.176,17.461-2.806
		c3.74,0.08,2.918-4.3,5.628-6.276l0.654,2.874c2.927-2.188,3.194-6.822,4.082-9.931c2.838,1.665,2.899-0.452,5.695,1.195
		c-2.338,1.926-4.079,5.368-5.128,9.525c3.967,0.792,7.256-7.282,10.144-2.76c3.497,0.905,6.06-0.47,6.158-4.409
		c-0.67,1.312,2.29,2.166,0.484,4.031c2.376-0.279,3.896-0.704,5.347-2.165c-0.453-0.106-1.038-0.454-1.515-0.353
		c1.195-2.983,3.757-2.817,3.221-7.277c-1.338,1.145-1.398,1.856-3.097,1.507c0.63-3.11,5.188-3.986,6.25-1.203
		c1.209,3.18-3.027,5.161-1.042,7.06l7.575-7.657c-1.652,2.532-4.18,0.391-3.375-2.69l-2.969,1.87l0.229-3.213
		c-4.936,1.177-8.43-2.239-13.418,0.714l2.037,3.181c-2.972,0.323-5.539,4.911-8.484,1.248c1.207-1.263,0.127-2.853-0.048-4.653
		c-0.641,0.637-1.298,1.922-2.156,1.541l0.891-5.667c-0.688,7.423-7.836,3.674-9.09,5.014l0.298-1.071
		c-4.784-1.77,1.197,2.965-1.757,3.441c-2.674-0.567-1.852-5.835-4.61-7.797c-4.684,1.233-11.476,6.652-17.595,4.039
		c-3.792,2.197-7.625,5.5-10.246,8.978c-3.466,1.165-1.875-5.6-4.449-1.746c-0.297-2.011-1.582-3.695-2.62-5.297
		c0.446,2.24-6.817,2.713-1.979,5.992c-5.457,1.271-11.576,3.313-15.896,7.669c1.462-1.333,0.166-4.697-2.206-5.278
		c-0.671,4.528-3.589,8.658-8.297,10.662c2.212,2.793,3.536,1.949,5.208,5.067c-0.284,0.801-0.131,2.862-1.177,3.398
		c-2.83-2.514-6.21-7.191-9.746-4.27c-2.867-5.36,6.36-4.587,1.171-7.787c-1.429-5.268,6.144-10.089,9.278-8.736
		c0.956-6.578-3.181,1.298-5.178-3.269c-3.074,2.673-3.476,5.237-7.606,9.914c1.522,2.011,3.25,0.994,2.485,4.381
		c-0.527,7.426-7.308,1.507-8.559,2.299l1.111-2.787c-3.896,1.115-2.521,4.495-5.48,6.823c-5.581-4.064,3.991-4.657,2.266-8.631
		l-5.435-1.618c-5.104,3.771,2.549,5.059-3.283,8.148l-1.23-2.225l-1.46,4.082c1.885,1.764,5.116,3.543,6.916,0.806
		c3.273,5.984-1.223,2.891-3.496,7.719c1.834,3.64,1.071-1.92,3.9,0.407c2.829,1.817,0.859,4.486-0.132,6.752
		c-2.413,3.076-4.421-0.842-7.409-1.024c0.008-0.968,1.597-3.82,3.056-2.227c0.218-6.464-7.455-2.943-7.236-7.479
		c-4.354,2.007-0.771,4.542-1.095,6.998c1.138-0.738,2.649,2.632,4.268,2.679c4.255,11.129-9.035-0.91-10.808,6.127
		c6.034,2.213,3.772,12.056,12.035,11.437c0.316,1.84,0.823,4.079-0.445,5.06c-3.169-3.426-4.273,0.866-6.66-3.57l-1.095,1.988
		l-3.031-5.451c-3.865,0.91-8.599,3.72-11.17,4.235c0.151,3.961,4.339,0.692,3.496,4.762c-1.523-2.171-4.325-0.623-4.726,1.137
		c2.685-2.756,5.756,2.259,6.13,4.656c-0.948,3.224-5.672,4.531-6.489,3.741l-2.499-4.462c2.216,3.557-1.944,0.551-1.455,3.571
		c2.056,1.494,5.123,4.186,7.844,5.879c0.387,2.343-3.112,2.939-2.807,3.829l-1.518-4.054c-0.396,4.686-6.728-0.894-6.492,4.249
		l2.925,2.036c-0.789,0.765-2.413,0.881-3.385-0.313c2.195,1.298,0.724,3.825,1.567,5.119l-2.229-0.146
		c1.138,2.25,5.693,5.522,1.035,7.06c5.576-0.86,0.382-2.32,3.249-5.107c4.197-1.177,3.195,3.898,3.696,4.714
		c-5.672-1.245-1.22,4.731-1.571,6.902l-4.666,2.705l3.689,1.364c-7.5-0.011,1.083,4.693-1.526,6.975
		c-2.113-1.501-5.089-1.595-6.402,0.174c5.877-1.987,6.32,4.518,10.257,3.973c-1.937,4.313-7.027-1.446-10.898-0.38
		c4.265,2.485-2.772,5.003,2.747,6.719c1.697-3.212,3.521,0.646,5.958,1.354c-0.417,4.043-2.441-0.738-4.414,2.107
		c0.779,1.748,5.064,3.971,6.624,1.391c-1.167,2.36,4.146,4.922,0.758,7.563c-3.448,1.146-1.621-4.896-4.083-3.354
		c-0.313,5.642,8.573,2.705,9.763,7.694c1.858-2.216,7.986-0.35,10.069,1.832c-1.468,5.418-2.085-2.228-6.489,0.016l0.695,2.155
		c-6.037,3.493-10.023-6.112-14.914-2.919l2.062,2.393c-1.297-0.343-3.277-0.586-4.918-0.283c1.359,2.491,1.362,13.572,2.636,13.167
		c3.587-0.536-1.92-2.219,0.884-2.673c2.226,3.111,7.969,1.646,7.676,6.459c-3.229-1.126-4.083,2.781-6.314,2.726
		c-0.486,2.563,4.11-1.134,3.568,2.453l-2.076,0.593c4.035,10.455,11.979,22.597,24.504,25.031
		c-1.857,3.467,0.01,6.466,1.493,12.464c-0.567-2.709,2.741-2.388,4.035-1.695l-1.357,4.683c0.469,4.069,6.233,4.724,9.967,5.17
		l-1.484,2.725c0.292,3.982,3.877,0.432,5.316,0.501l-0.566,3.452l2.216-1.818c3.269,0.738,5.595,3.791,2.417,7.178
		c1.511,0.026,2.99,0.006,2.63-1.918c0.711,3.799,7.413,8.988,12.904,10.412c-1.654-2.213-0.633-3.4,0.743-5.966
		c3.228-3.739,0.489,1.441,3.831-0.03c-0.914,1.582,0.245,4.353-2.719,4.289c3.119,9.235,14.85,9.357,23.161,13.112
		c2.005-0.103,1.696-1.073,2.901-2.04c4.242,6.516,12.554,2.368,18.231,5.688c-1.104-2.336,1.475-7.539,4.63-7.699
		c3.75-3.961,0.967,5.72,4.229,8.242c1.78-1.859,4.874-2.305,6.201-2.023l-0.128,0.693c2.049-2.201,5.114-3.168,7.549-1.75
		l-0.355,0.324c1.908,0.115,4.439,2.395,6.441,1.771c0.429-3.912,5.658-2.245,6.257-5.782l0.666,1.45l-0.413-3.201l4.247,1.268
		l-1.483,3.798c4.711,1.521,0.896-3.032,2.638-5.286c2.202-3.079,2.772,0.093,4.462,1.043c-0.788,1.906-2.247-0.159-2.785,0.615
		c-1.036,2.978,1.91,0.537,2.411,2.318c0.636-0.072-0.036-3.97,2.169-3.824c1.88-0.146,5.724-2.332,6.237,1.196
		c0.987-2.237,2.885-2.403,3.53-4.249c-1.648-0.178-4.524-0.285-5.479-2.355c1.165-0.795,3.365-2.439,4.249-1.081l-0.748,1.132
		c0.748-1.132,4.807-1.204,1.832-3.719l4.147,3.484c0.64-3.059,2.979-3.959,4.87-5.48c1.616,3.228,1.553,7.711,5.886,6.572
		l1.768-4.899c1.554-1.212,2.368-0.737,3.087,1.313c6.971-1.398,1.172-11.929,7.104-11.75c0.338,4.795,2.071,4.201,4.713,3.991
		c-0.28-0.661-0.853-1.961-0.1-2.591c-1.604-1.326,0.368,3.241-2.672,1.705C338.955,369.461,341.675,368.851,342.161,367.584z"/>
</g>
</svg>
