<?xml version="1.0" encoding="utf-8"?>
<!-- Generator: Adobe Illustrator 16.0.0, SVG Export Plug-In . SVG Version: 6.00 Build 0)  -->
<!DOCTYPE svg PUBLIC "-//W3C//DTD SVG 1.1//EN" "http://www.w3.org/Graphics/SVG/1.1/DTD/svg11.dtd">
<svg version="1.1" id="Layer_1" xmlns="http://www.w3.org/2000/svg" xmlns:xlink="http://www.w3.org/1999/xlink" x="0px" y="0px"
	 width="540px" height="540px" viewBox="0 0 540 540" enable-background="new 0 0 540 540" xml:space="preserve">
<g>
	<g>
		<path fill="#0BFDC2" d="M159.827,413.46c0,0-9.19,0.691-22.057-3.401c-6.396-2.046-13.586-5.324-21.068-10.564
			c-3.722-2.593-7.534-5.705-11.343-9.435c-3.778-3.708-7.574-8.031-11.33-13.048c-3.74-5.047-7.426-10.824-11.02-17.082
			c-3.561-6.275-7.015-13.053-10.239-20.116c-3.231-7.03-6.229-14.382-8.937-21.708c-2.711-7.348-5.138-14.675-7.223-21.729
			c-2.07-7.036-3.854-13.772-5.349-19.896c-1.475-6.146-2.675-11.648-3.575-16.29C45.868,250.932,45,245.218,45,245.218
			s3.166,1.509,8.586,4.151c5.41,2.66,13.324,6.512,22.659,11.223c4.696,2.341,9.901,4.972,15.424,7.764
			c5.519,2.77,11.33,5.733,17.252,8.785c5.925,3.065,11.901,6.199,17.717,9.339c5.756,3.165,11.324,6.275,16.35,9.301
			c5.039,3.045,9.776,6.229,14.196,9.604c4.423,3.354,8.501,6.875,12.225,10.512c3.71,3.644,7.063,7.375,10.014,11.18
			c2.925,3.811,5.457,7.675,7.575,11.602c4.246,7.845,6.742,15.791,7.601,23.591c0.829,7.804,0.025,15.479-2.357,22.901
			c0,0,1.431-8.251-11.965-21.684c-3.36-3.379-7.611-7.157-12.934-11.25c-5.34-4.092-11.713-8.487-19.297-13.17
			c-3.792-2.328-7.836-4.712-12.103-7.135c-4.294-2.451-8.834-4.925-13.593-7.441c-4.8-2.518-9.782-5.044-14.965-7.582
			c-5.201-2.525-10.558-5.081-16.209-7.633c0,0,1.286,6.063,3.925,15.242c1.322,4.565,3.006,9.894,5.103,15.604
			c2.055,5.675,4.526,11.749,7.406,17.809c2.833,6.062,6.089,12.126,9.725,17.856c3.604,5.762,7.586,11.223,11.939,16.148
			c4.356,4.919,9.061,9.323,14.148,12.976C148.494,408.563,153.978,411.481,159.827,413.46z"/>
		<path fill="#36969E" d="M343.535,378.504c0,0-2.729-9.993,0.785-24.925c0.875-3.729,2.135-7.822,3.965-12.172
			c1.805-4.38,4.145-8.971,7.186-13.727c3.023-4.702,6.695-9.579,11.139-14.431c4.451-4.847,9.635-9.676,15.68-14.342
			c6.025-4.659,12.613-9.204,19.467-13.525c6.803-4.304,13.836-8.452,20.76-12.263c6.896-3.845,13.633-7.402,19.963-10.598
			c6.332-3.212,12.277-6.093,17.592-8.606c5.328-2.524,10.193-4.726,14.461-6.598c4.271-1.884,7.98-3.471,10.98-4.711
			c5.98-2.482,9.488-3.761,9.488-3.761s-0.93,5.188-2.652,13.601c-0.875,4.189-1.975,9.222-3.301,14.791
			c-1.355,5.598-2.918,11.724-4.713,18.168c-1.779,6.438-3.826,13.149-6.063,19.853c-2.264,6.727-4.684,13.432-7.225,19.903
			c-2.533,6.467-5.199,12.646-7.813,18.358c-2.664,5.71-5.279,10.94-7.803,15.461c-2.523,4.463-5.152,8.65-7.861,12.457
			c-2.713,3.828-5.521,7.299-8.393,10.463c-5.76,6.303-11.832,11.347-18.162,15.144c-6.313,3.858-12.934,6.521-19.771,7.974
			c-6.828,1.453-13.953,1.709-21.227,0.761c0,0,8.189,0.24,21.447-10.896c3.309-2.775,6.912-6.368,10.777-10.96
			c3.852-4.619,7.961-10.271,12.281-17.22c2.131-3.473,4.32-7.325,6.547-11.526c2.213-4.237,4.455-8.848,6.723-13.915
			c2.256-5.046,4.488-10.562,6.705-16.525c2.209-6.023,4.385-12.512,6.539-19.495c0,0-4.807,1.324-12.566,4.184
			c-3.875,1.448-8.598,3.274-13.869,5.486c-5.291,2.265-11.176,4.897-17.371,7.972c-6.184,3.07-12.734,6.563-19.24,10.483
			c-6.502,3.899-12.951,8.203-18.9,12.934c-5.934,4.686-11.35,9.727-15.752,15.099C348.934,366.781,345.539,372.486,343.535,378.504
			z"/>
		<path fill="#04C899" d="M232.176,370.681c0,0-3.071-1.451-7.503-4.49c-4.459-3.017-10.297-7.651-15.975-14.007
			c-2.829-3.188-5.58-6.842-8.105-11.028c-2.536-4.161-4.772-8.844-6.566-14.025c-1.808-5.188-3.13-10.965-3.748-17.33
			c-0.602-6.375-0.5-13.346,0.564-20.975c1.032-7.657,2.948-15.984,5.55-24.804c1.306-4.399,2.799-8.922,4.411-13.525
			c1.641-4.576,3.425-9.249,5.328-13.962c1.897-4.702,3.924-9.413,6.041-14.124c2.126-4.708,4.324-9.385,6.609-14.026
			c2.275-4.629,4.593-9.18,6.923-13.599c2.356-4.446,4.684-8.736,7.04-12.909c4.656-8.296,9.211-15.948,13.427-22.729
			c4.174-6.775,8.016-12.683,11.215-17.467c6.419-9.585,10.496-15.184,10.496-15.184s3.397,5.258,8.866,14.145
			c2.752,4.431,6.043,9.865,9.693,16.053c3.631,6.17,7.668,13.124,11.824,20.601c4.166,7.481,8.5,15.472,12.75,23.697
			c2.125,4.102,4.244,8.252,6.27,12.41c2.068,4.144,4.063,8.295,5.986,12.415c3.863,8.214,7.395,16.25,10.465,23.758
			c3.061,7.508,5.646,14.513,7.58,20.705c1.939,6.205,3.342,12.146,4.223,17.809c0.887,5.658,1.262,11.056,1.125,16.189
			c-0.098,5.127-0.668,10.012-1.697,14.624c-1.023,4.592-2.479,8.94-4.375,13.058c-1.879,4.09-4.145,7.943-6.869,11.578
			c-2.678,3.614-5.756,6.973-9.217,10.058c-3.461,3.112-7.309,5.99-11.496,8.586c-4.209,2.617-8.803,4.974-13.723,7.06
			c0,0,2.5-1.313,5.262-4.869c2.773-3.549,5.793-9.275,6.887-18.175c0.559-4.423,0.568-9.869-0.229-16.379
			c-0.783-6.534-2.451-14.218-5.313-23.256c-1.432-4.522-3.189-9.42-5.293-14.726c-2.127-5.305-4.604-11.009-7.535-17.141
			c-2.887-6.135-6.221-12.699-9.998-19.703c-3.809-7.013-8.074-14.42-12.792-22.264c0,0-4.997,6.142-11.854,16.172
			c-3.434,5.006-7.316,10.936-11.238,17.507c-3.896,6.535-7.822,13.692-11.385,21.102c-3.559,7.426-6.708,15.031-9.125,22.592
			c-2.439,7.571-4.126,15.026-4.781,22.213c-0.666,7.187-0.333,14.06,1.312,20.493C224.803,359.245,227.706,365.234,232.176,370.681
			z"/>
	</g>
</g>
</svg>
