<?xml version="1.0" encoding="utf-8"?>
<!-- Generator: Adobe Illustrator 16.0.0, SVG Export Plug-In . SVG Version: 6.00 Build 0)  -->
<!DOCTYPE svg PUBLIC "-//W3C//DTD SVG 1.1//EN" "http://www.w3.org/Graphics/SVG/1.1/DTD/svg11.dtd">
<svg version="1.1" id="Layer_1" xmlns="http://www.w3.org/2000/svg" xmlns:xlink="http://www.w3.org/1999/xlink" x="0px" y="0px"
	 width="540px" height="540px" viewBox="0 0 540 540" enable-background="new 0 0 540 540" xml:space="preserve">
<g>
	<g>
		<path fill="#009444" d="M494.996,337.742c-0.278,4.655-22.078,17.694-46.554,11.288c-16.613-4.352-32.639-11.104-40.27-14.516
			c13.137-1.806,46.45-5.694,58.346-2.343c0,0-19.524-8.646-59.936-2.621c7.549-6.661,27.983-22.76,48.062-21.58
			C479.896,309.452,495.271,333.086,494.996,337.742z"/>
		<g>
			<path fill="#009444" d="M451.056,226.359c-4.854-6.375-48.418-4.027-77.129,28.583c-19.492,22.136-35.846,47.126-43.436,59.318
				c20.447-10.041,71.631-36.464,85.355-52.643c0,0-19.52,31.054-82.859,61.236c17.134,2.248,61.696,5.565,89.16-15.372
				C456.689,281.14,455.915,232.734,451.056,226.359z"/>
			<path fill="#86A046" d="M418.024,423.713c-4.867,4.057-38.023-5.407-54.42-35.576c-11.135-20.477-19.343-42.603-23.051-53.332
				c13.981,11.327,48.793,40.68,56.524,55.555c0,0-9.586-27.354-53.091-61.739c13.595,1.278,48.514,6.55,66,27.504
				C431.981,382.493,422.883,419.657,418.024,423.713z"/>
		</g>
	</g>
	<g>
		<path fill="#009444" d="M45.004,337.742c0.271,4.655,22.078,17.694,46.552,11.288c16.607-4.352,32.633-11.104,40.265-14.516
			c-13.138-1.806-46.452-5.694-58.339-2.343c0,0,19.519-8.646,59.93-2.621c-7.543-6.661-27.983-22.76-48.061-21.58
			C60.097,309.452,44.728,333.086,45.004,337.742z"/>
		<g>
			<path fill="#009444" d="M93.429,226.359c4.859-6.374,48.424-4.031,77.136,28.583c19.496,22.136,35.844,47.125,43.435,59.321
				c-20.446-10.047-71.631-36.47-85.354-52.648c0,0,19.513,31.057,82.86,61.239c-17.136,2.242-61.698,5.573-89.159-15.369
				C87.792,281.14,88.567,232.734,93.429,226.359z"/>
			<path fill="#86A046" d="M126.466,423.713c4.867,4.057,38.022-5.407,54.418-35.576c11.13-20.476,19.343-42.605,23.048-53.332
				c-13.982,11.327-48.788,40.68-56.521,55.552c0,0,9.586-27.352,53.092-61.736c-13.602,1.278-48.519,6.547-66,27.51
				C112.506,382.493,121.606,419.657,126.466,423.713z"/>
		</g>
	</g>
	<g>
		<path fill="#603913" d="M214.223,230.301c7.75-19.941-19.695-51.205-44.345-82.435c-10.321-13.078-19.442-23.989-25.811-31.93
			l-2.632,2.249c0,0,11.765,16.979,24.603,33.196c13.121,16.581,29.434,38.629,25.195,41.583
			c-4.232,2.953-16.473-16.146-32.369-37.426c-12.479-16.7-25.529-32.124-25.529-32.124l-2.542,1.771
			c0,0,11.437,15.549,23.399,32.554c14.635,20.789,30.18,40.43,25.947,43.376c-4.238,2.953-17.765-18.123-31.994-37.482
			c-12.511-17.028-25.6-33.126-25.6-33.126l-2.213,1.335c0,0,12.033,17.256,24.103,34.592
			c13.597,19.527,29.012,38.928,24.639,41.978c-4.38,3.05-17.417-18.159-31.853-37.585c-12.505-16.824-25.349-32.46-25.349-32.46
			l-2.153,1.711c0,0,10.754,15.243,23.616,34.504c20.065,30.043,40.622,68.343,61.421,69.094
			c3.265,3.64,36.356,40.905,72.317,99.459c33.848,55.101,41.127,92.936,64.733,76.933c0,0.007,0.007,0.01,0.007,0.015
			c0.058-0.043,0.109-0.088,0.174-0.129c0.058-0.041,0.117-0.076,0.176-0.117c0-0.007,0-0.01-0.006-0.013
			c23.187-16.598-9.786-36.528-49.758-87.371C240.403,279.039,216.946,235.453,214.223,230.301z"/>
		<path fill="#603913" d="M433.14,167.826c7.149-31.074-2.661-43.727-6.834-47.525c0-0.006,0.019-0.024,0.019-0.024
			s-0.306-0.298-0.929-0.743c-0.51-0.396-0.82-0.582-0.82-0.582s-0.012,0.021-0.018,0.021c-4.709-2.926-19.244-8.688-47.604,6.254
			c-34.946,18.41-64.934,49.734-45.473,97.481c0,0-27.077,47.505-76.935,105.928c-44.539,52.193-80.337,71.916-56.468,90.499
			c0,0.005,0,0.014-0.006,0.014c0.059,0.048,0.123,0.084,0.187,0.132c0.066,0.046,0.111,0.096,0.178,0.144
			c0-0.003,0.004-0.01,0.011-0.013c24.333,17.965,33.659-21.827,71.888-78.804c42.789-63.773,81.224-102.679,81.224-102.679
			C402.784,243.776,424.28,206.318,433.14,167.826z"/>
	</g>
</g>
</svg>
