<?xml version="1.0" encoding="utf-8"?>
<!-- Generator: Adobe Illustrator 16.0.0, SVG Export Plug-In . SVG Version: 6.00 Build 0)  -->
<!DOCTYPE svg PUBLIC "-//W3C//DTD SVG 1.1//EN" "http://www.w3.org/Graphics/SVG/1.1/DTD/svg11.dtd">
<svg version="1.1" id="Layer_1" xmlns="http://www.w3.org/2000/svg" xmlns:xlink="http://www.w3.org/1999/xlink" x="0px" y="0px"
	 width="540px" height="540px" viewBox="0 0 540 540" enable-background="new 0 0 540 540" xml:space="preserve">
<g>
	<path fill="#1791B1" d="M391.02,335.961c0-87.834-71.203-159.04-159.036-159.04c-87.84-0.001-159.041,71.205-159.041,159.04
		C72.943,423.795,144.145,495,231.985,495C319.817,495.002,391.02,423.795,391.02,335.961z"/>
	<g>
		<path fill="#FFFFFF" d="M96.674,457.877c0,0-52.088-101.91,85.75-183.787C320.265,192.217,447.586,109.856,399.038,45
			c0,0,94.934,73.421-6.535,169.88C291.037,311.344,74.901,317.971,96.674,457.877z"/>
		<path fill="#FFFFFF" d="M98.814,460.844c0,0-12.806-95.154,119.072-121.512c131.882-26.359,255.575-56.033,235.242-120.885
			c0,0,54.645,84.555-52.524,132.59C293.438,399.078,120.579,344.075,98.814,460.844z"/>
		<path fill="#FFFFFF" d="M103.115,460.791c0,0,12.747-69.244,110.677-57.568c97.924,11.672,190.899,19.176,191.5-30.656
			c0,0,18.824,71.383-66.814,80.451C252.837,462.078,144.885,384.363,103.115,460.791z"/>
	</g>
	<g>
		<path fill="#77CBDA" d="M96.674,472.613c0,0-52.088-101.912,85.75-183.786c137.841-81.871,265.161-164.235,216.613-229.091
			c0,0,94.934,73.422-6.536,169.88C291.037,326.08,74.901,332.707,96.674,472.613z"/>
		<path fill="#77CBDA" d="M98.814,475.58c0,0-12.806-95.152,119.072-121.511c131.882-26.362,255.575-56.037,235.242-120.886
			c0,0,54.645,84.553-52.524,132.59C293.438,413.816,120.579,358.815,98.814,475.58z"/>
		<path fill="#77CBDA" d="M103.115,475.527c0,0,12.747-69.246,110.677-57.563c97.924,11.666,190.899,19.17,191.5-30.66
			c0,0,18.824,71.379-66.814,80.449C252.837,476.816,144.885,399.104,103.115,475.527z"/>
	</g>
</g>
</svg>
