<?xml version="1.0" encoding="utf-8"?>
<!-- Generator: Adobe Illustrator 16.0.0, SVG Export Plug-In . SVG Version: 6.00 Build 0)  -->
<!DOCTYPE svg PUBLIC "-//W3C//DTD SVG 1.1//EN" "http://www.w3.org/Graphics/SVG/1.1/DTD/svg11.dtd">
<svg version="1.1" id="Layer_1" xmlns="http://www.w3.org/2000/svg" xmlns:xlink="http://www.w3.org/1999/xlink" x="0px" y="0px"
	 width="540px" height="540px" viewBox="0 0 540 540" enable-background="new 0 0 540 540" xml:space="preserve">
<g>
	<path fill="#CB1E8B" d="M391.021,335.961c0-87.835-71.204-159.042-159.038-159.042c-87.841,0-159.04,71.207-159.04,159.042
		c0,87.838,71.203,159.039,159.04,159.039C319.817,495.002,391.021,423.797,391.021,335.961z"/>
	<g>
		<path fill="#FFFFFF" d="M96.673,457.877c0,0-52.088-101.91,85.751-183.789C320.264,192.219,447.586,109.854,399.039,45
			c0,0,94.934,73.422-6.538,169.881C291.039,311.344,74.9,317.97,96.673,457.877z"/>
		<path fill="#FFFFFF" d="M98.811,460.846c0,0-12.809-95.154,119.073-121.512C349.766,312.973,473.46,283.3,453.127,218.447
			c0,0,54.646,84.555-52.525,132.59C293.439,399.078,120.579,344.074,98.811,460.846z"/>
		<path fill="#FFFFFF" d="M103.11,460.793c0,0,12.747-69.246,110.678-57.57c97.924,11.672,190.904,19.178,191.504-30.654
			c0,0,18.821,71.385-66.818,80.451C252.833,462.08,144.884,384.365,103.11,460.793z"/>
	</g>
	<g>
		<path fill="#E9A0C4" d="M96.673,472.613c0,0-52.088-101.912,85.751-183.787c137.84-81.872,265.162-164.235,216.615-229.09
			c0,0,94.934,73.422-6.538,169.881C291.039,326.08,74.9,332.707,96.673,472.613z"/>
		<path fill="#E9A0C4" d="M98.811,475.58c0,0-12.809-95.152,119.073-121.512c131.882-26.365,255.576-56.035,235.243-120.887
			c0,0,54.646,84.555-52.525,132.589C293.439,413.818,120.579,358.814,98.811,475.58z"/>
		<path fill="#E9A0C4" d="M103.11,475.529c0,0,12.747-69.246,110.678-57.563c97.924,11.664,190.904,19.172,191.504-30.662
			c0,0,18.821,71.383-66.818,80.451C252.833,476.816,144.884,399.104,103.11,475.529z"/>
	</g>
</g>
</svg>
