<?xml version="1.0" encoding="utf-8"?>
<!-- Generator: Adobe Illustrator 15.0.0, SVG Export Plug-In . SVG Version: 6.00 Build 0)  -->
<!DOCTYPE svg PUBLIC "-//W3C//DTD SVG 1.1//EN" "http://www.w3.org/Graphics/SVG/1.1/DTD/svg11.dtd">
<svg version="1.1" id="Layer_1" xmlns="http://www.w3.org/2000/svg" xmlns:xlink="http://www.w3.org/1999/xlink" x="0px" y="0px"
	 width="317.181px" height="334.214px" viewBox="0 0 317.181 334.214" enable-background="new 0 0 317.181 334.214"
	 xml:space="preserve">
<g>
	<path fill="#FFD96F" d="M100.29,112.44c7.319,10.455,11.082,25.018,9.671,41.738c-1.207,17.001-7.645,33.343-17.176,46.251
		c11.503-10.778,26.176-17.672,42.323-18.615c16.664-0.951,32.047,4.652,44.17,14.887c-9.703-12.743-15.018-28.877-14.143-46.396
		c1.021-17.236,8.043-33.232,18.787-45.9c-12.806,10.517-28.614,17.602-44.865,18.932C123.283,124.791,109.87,120.483,100.29,112.44
		z"/>
	<g>
		<path fill="#FEBF37" d="M95.872,108.478c-1.055-1.496-2.246-2.75-3.246-4.225c-8.718-7.257-20.109-10.2-32.764-7.636
			c-26.52,6.224-50.925,38.05-56.376,71.635c-4.101,35.576,13.832,63.191,42.145,61.537c13.411-0.675,26.533-7.324,37.443-18.015
			c1.387-2.007,2.791-3.722,4.355-5.646c-10.192-12.406-15.575-29.305-13.942-48.313C75.493,139.036,83.779,121.813,95.872,108.478z
			"/>
		<path fill="#FEBF37" d="M190.114,98.891c12.068,11.827,19.264,29.173,18.375,49.277c-0.787,20.55-9.67,39.705-23.453,54.026
			c1.701,1.668,3.238,3.591,4.754,5.472c12.709,10.512,29.291,16.858,47.775,16.61c43.537-0.407,79.375-35.88,79.615-78.369
			c0.241-40.738-33.64-71.627-75.06-70.187c-17.637,0.937-33.881,7.498-47.024,17.884C193.553,95.41,191.768,97.264,190.114,98.891z
			"/>
	</g>
	<g>
		<path fill="#FEE5AE" d="M96.458,107.83c12.481-13.088,28.886-22.24,46.673-24.473c18.325-1.951,34.618,3.921,46.383,15.134
			c1.854-1.757,3.776-3.432,5.582-4.886c10.842-12.33,17.946-27.306,19.229-42.702c3.102-33.323-23.549-54.439-58.271-49.071
			C123.821,8.304,93.199,37.07,86.368,67.691c-2.633,14.128-0.172,26.796,6.258,36.562C94.013,105.286,95.24,106.555,96.458,107.83z
			"/>
		<path fill="#FEE5AE" d="M184.524,202.675c-13.658,14.107-31.818,23.033-51.123,23.646c-18.65,0.578-34.633-7.154-45.563-19.539
			c-1.511,1.668-3.103,3.336-4.764,4.99c-9.077,12.998-14.639,29.132-15.045,46.658c-0.056,40.819,28.456,74.522,65.343,75.77
			c39.365,0.799,72.469-33.818,72.517-77.555c0.2-18.829-5.898-35.858-16.101-48.981
			C187.922,206.142,186.158,204.482,184.524,202.675z"/>
	</g>
</g>
</svg>
