<?xml version="1.0" encoding="utf-8"?>
<!-- Generator: Adobe Illustrator 16.0.0, SVG Export Plug-In . SVG Version: 6.00 Build 0)  -->
<!DOCTYPE svg PUBLIC "-//W3C//DTD SVG 1.1//EN" "http://www.w3.org/Graphics/SVG/1.1/DTD/svg11.dtd">
<svg version="1.1" id="Layer_1" xmlns="http://www.w3.org/2000/svg" xmlns:xlink="http://www.w3.org/1999/xlink" x="0px" y="0px"
	 width="540px" height="540px" viewBox="0 0 540 540" enable-background="new 0 0 540 540" xml:space="preserve">
<g>
	<g>
		<path fill="#CE2A2C" d="M240.713,403.519c-0.079-0.001-0.144,0.017-0.208-0.004c2.751-7.861,5.675-16.291,8.772-25.284
			c5.042,1.292,10.271,2.115,15.635,2.44c0,2.901,0,5.743,0.005,8.519c0.004,3.924-2.65,7.482-7.479,10.293
			C252.606,402.292,246.882,403.645,240.713,403.519L240.713,403.519z M213.286,400.702v-10.181
			c3.561-5.179,7.245-10.54,11.048-16.085c1.144-1.67,2.303-3.359,3.474-5.073c3.953,2.321,8.111,4.328,12.441,5.988
			c-1.461,4.727-2.881,9.307-4.258,13.744c-1.26,4.064-5.022,7.316-10.774,9.472C221.417,399.995,217.384,400.708,213.286,400.702
			L213.286,400.702z M213.286,374.181c2.142-3.301,4.332-6.68,6.57-10.13c-2.286-1.724-4.478-3.564-6.57-5.51V374.181z
			 M213.286,358.54v15.64c-2.187,3.36-4.322,6.648-6.413,9.859c-2.646,4.064-7.577,6.875-14.305,8.203
			c-1.346,0.263-2.693,0.458-4.042,0.577v-16.378c3.678-3.258,7.421-6.579,11.235-9.968c3.705-3.296,7.475-6.649,11.307-10.072
			C211.793,357.13,212.534,357.841,213.286,358.54L213.286,358.54z M213.286,390.521c-2.243,3.253-4.433,6.436-6.571,9.539
			c0.075,0.02,0.157,0.047,0.229,0.06c2.118,0.386,4.238,0.577,6.342,0.582V390.521L213.286,390.521z M188.524,363.935
			c3.413-3.143,6.887-6.343,10.409-9.596l5.656-5.221c-2.031-2.574-3.912-5.267-5.636-8.073c-3.502,1.924-6.976,3.829-10.429,5.721
			V363.935L188.524,363.935z M188.524,335.337v-10.442l2.509-0.736c0.92,2.731,1.981,5.398,3.172,7.995L188.524,335.337
			L188.524,335.337z M188.524,274.932v-8.721l3.631,1.526c-0.923,2.415-1.739,4.881-2.437,7.395L188.524,274.932L188.524,274.932z
			 M188.524,251.371v-13.719l7.813,6.103c3.411,2.664,4.292,7.385,2.074,11.098c-0.146,0.249-0.296,0.498-0.441,0.747
			L188.524,251.371z M188.524,237.651v13.719c-9.728-4.354-19.78-8.846-30.161-13.442c-3.852-1.706-7.756-3.44-11.714-5.203v-27.748
			l0.496,0.386C161.822,216.793,175.595,227.55,188.524,237.651L188.524,237.651z M188.524,266.21
			c-13.331-5.609-27.275-11.5-41.873-17.638v19.202l4.788,0.811c12.687,2.151,25.046,4.289,37.089,6.346v-8.72L188.524,266.21
			L188.524,266.21z M188.524,324.895v10.442c-2.893,1.624-5.764,3.234-8.616,4.833c-9.928,5.578-19.668,10.97-29.2,16.295
			c-1.283,0.717-2.635,1.327-4.06,1.837v-21.193c3.174-0.92,6.352-1.842,9.532-2.765
			C166.917,331.225,177.698,328.072,188.524,324.895L188.524,324.895z M188.524,346.767c-4.013,2.196-7.993,4.37-11.935,6.521
			c-10.192,5.555-20.174,10.999-29.938,16.311v8.372c4.154,1.249,8.608,1.821,13.196,1.702c7.815-0.193,14.071-2.321,18.286-6.19
			c3.404-3.123,6.866-6.304,10.393-9.547L188.524,346.767L188.524,346.767z M188.524,376.443v16.38
			c-5.396,0.481-10.775-0.194-15.796-2.047c-0.104-0.038-0.182-0.07-0.269-0.117C177.669,386.058,183.024,381.319,188.524,376.443
			L188.524,376.443z M146.65,326.184c5.89-1.728,11.789-3.457,17.698-5.191c7.955-2.336,15.938-4.69,23.945-7.073
			c-0.511-2.56-0.91-5.158-1.181-7.796c-13.326,0.91-26.813,1.823-40.465,2.741L146.65,326.184L146.65,326.184z M146.65,297.336
			V280.76c13.931,2.202,27.478,4.34,40.658,6.435c-0.309,2.501-0.506,5.035-0.586,7.599c-10.772,0.688-21.65,1.378-32.618,2.071
			L146.65,297.336z M146.65,204.978v27.748c-14.87-6.621-30.485-13.625-46.855-20.898c-14.058-6.243-25.832-16.409-34.671-31.301
			c-8.841-14.893-11.741-30.71-6.807-43.501c0.064-0.167,0.14-0.361,0.182-0.549C91.391,161.942,120.646,184.726,146.65,204.978
			L146.65,204.978z M146.65,248.573c-4.499-1.893-9.06-3.81-13.683-5.747c-26.891-11.275-56.144-23.589-87.946-36.975
			c-0.03,0.14-0.012,0.279-0.015,0.418c-0.228,11.896,5.994,24.074,16.546,34.415c10.554,10.342,22.366,16.379,35.004,18.528
			c17.274,2.938,33.965,5.818,50.093,8.562V248.573L146.65,248.573z M146.65,280.76v16.576c-13.117,0.827-26.42,1.665-39.862,2.486
			c-10.53,0.643-21.263-2.083-32.022-8.578c-10.761-6.495-18.573-15.225-21.504-24.962c-0.032-0.109-0.059-0.225-0.098-0.311
			c27.469,4.337,53.575,8.47,78.412,12.404L146.65,280.76L146.65,280.76z M146.65,308.864v17.319
			c-6.886,2.019-13.755,4.026-20.604,6.024c-8.213,2.393-17.449,1.999-27.481-1.511c-10.031-3.51-18.272-9.346-23.101-16.786
			c-0.071-0.106-0.129-0.195-0.192-0.306c22.095-1.456,43.77-2.885,65.033-4.313L146.65,308.864L146.65,308.864z M146.65,337.108
			v21.193c-5.333,1.909-11.635,2.359-18.708,1.295c-8.962-1.349-16.94-4.874-22.746-10.307c-0.055-0.051-0.123-0.108-0.195-0.16
			C118.806,345.148,132.69,341.15,146.65,337.108L146.65,337.108z M146.65,369.598v8.373c-2.922-0.877-5.697-2.088-8.26-3.634
			c-0.076-0.046-0.156-0.075-0.227-0.128C140.973,372.688,143.801,371.147,146.65,369.598z"/>
		<path fill="#CE2A2C" d="M393.351,377.971v-8.373c2.85,1.55,5.677,3.09,8.486,4.614c-0.073,0.052-0.149,0.083-0.229,0.128
			C399.051,375.883,396.272,377.094,393.351,377.971L393.351,377.971z M393.351,358.302v-21.193
			c13.959,4.042,27.845,8.04,41.646,12.019c-0.07,0.053-0.138,0.109-0.192,0.16c-5.806,5.432-13.784,8.961-22.745,10.309
			C404.989,360.66,398.682,360.207,393.351,358.302L393.351,358.302z M393.351,326.184v-17.319l6.344,0.427
			c21.262,1.428,42.938,2.858,65.033,4.313c-0.063,0.111-0.122,0.198-0.192,0.305c-4.829,7.444-13.07,13.28-23.103,16.788
			c-10.033,3.508-19.266,3.903-27.479,1.51C407.106,330.21,400.235,328.199,393.351,326.184L393.351,326.184z M393.351,297.336
			V280.76l15.075-2.385c24.836-3.934,50.941-8.066,78.41-12.404c-0.039,0.085-0.067,0.201-0.097,0.311
			c-2.934,9.738-10.742,18.467-21.505,24.962c-10.762,6.495-21.492,9.224-32.021,8.578
			C419.77,299.001,406.469,298.163,393.351,297.336L393.351,297.336z M393.351,267.774c16.126-2.745,32.823-5.623,50.093-8.561
			c12.638-2.149,24.451-8.187,35.004-18.528c10.554-10.342,16.774-22.52,16.547-34.416c-0.003-0.139,0.017-0.278-0.015-0.418
			c-31.801,13.385-61.055,25.7-87.948,36.976c-4.622,1.937-9.184,3.854-13.681,5.747V267.774L393.351,267.774z M393.351,232.726
			v-27.748c26.003-20.252,55.261-43.034,88.15-68.504c0.042,0.191,0.12,0.382,0.184,0.55c4.935,12.791,2.03,28.608-6.809,43.501
			s-20.614,25.058-34.67,31.302C423.835,219.098,408.219,226.104,393.351,232.726z M393.351,204.978v27.748
			c-3.958,1.763-7.861,3.497-11.716,5.203c-10.38,4.598-20.432,9.09-30.16,13.442v-13.719c12.93-10.101,26.702-20.858,41.378-32.288
			L393.351,204.978L393.351,204.978z M393.351,248.573c-14.598,6.138-28.547,12.028-41.873,17.638v8.721
			c12.042-2.058,24.398-4.193,37.085-6.346l4.791-0.811L393.351,248.573L393.351,248.573z M393.351,280.76v16.576l-7.456-0.472
			c-10.966-0.693-21.844-1.383-32.617-2.071c-0.082-2.563-0.275-5.098-0.584-7.599C365.873,285.1,379.418,282.962,393.351,280.76
			L393.351,280.76z M393.351,308.864v17.319c-5.891-1.728-11.79-3.457-17.699-5.191c-7.955-2.336-15.938-4.69-23.945-7.073
			c0.51-2.56,0.911-5.158,1.182-7.796C366.211,307.033,379.698,307.946,393.351,308.864L393.351,308.864z M393.351,337.108
			c-3.175-0.918-6.351-1.842-9.532-2.764c-10.738-3.12-21.515-6.269-32.341-9.45v10.442c2.893,1.624,5.766,3.234,8.615,4.834
			c9.926,5.577,19.668,10.969,29.201,16.294c1.282,0.717,2.635,1.327,4.06,1.837L393.351,337.108L393.351,337.108z M393.351,369.598
			v8.373c-4.153,1.247-8.607,1.817-13.194,1.702c-7.815-0.194-14.073-2.325-18.287-6.191c-3.402-3.122-6.867-6.305-10.392-9.547
			v-17.172c4.014,2.198,7.993,4.371,11.935,6.521C373.606,358.842,383.587,364.286,393.351,369.598L393.351,369.598z
			 M351.478,392.823c5.395,0.481,10.774-0.194,15.795-2.047c0.104-0.038,0.185-0.07,0.269-0.117
			c-5.21-4.602-10.564-9.34-16.066-14.216L351.478,392.823L351.478,392.823z M351.478,237.651v13.719l-9.446,4.227
			c-0.145-0.249-0.294-0.5-0.439-0.747c-2.218-3.714-1.337-8.436,2.071-11.098L351.478,237.651L351.478,237.651z M351.478,266.21
			v8.721l-1.192,0.2c-0.698-2.515-1.516-4.981-2.438-7.396L351.478,266.21L351.478,266.21z M351.478,324.895v10.442l-5.683-3.184
			c1.193-2.597,2.249-5.264,3.175-7.995L351.478,324.895L351.478,324.895z M351.478,346.764v17.174
			c-3.414-3.143-6.884-6.341-10.41-9.596l-5.656-5.221c2.033-2.573,3.912-5.267,5.638-8.074
			C344.551,342.972,348.027,344.876,351.478,346.764L351.478,346.764z M351.478,376.443c-3.678-3.259-7.421-6.579-11.236-9.969
			c-3.705-3.294-7.474-6.646-11.307-10.07c-0.728,0.726-1.469,1.437-2.219,2.137v15.64c2.184,3.362,4.32,6.65,6.41,9.861
			c2.646,4.063,7.577,6.875,14.307,8.203c1.345,0.264,2.692,0.457,4.042,0.578L351.478,376.443L351.478,376.443z M326.716,400.702
			v-10.181c2.24,3.254,4.431,6.436,6.571,9.539c-0.075,0.02-0.158,0.047-0.231,0.06
			C330.938,400.506,328.818,400.697,326.716,400.702z M299.288,403.519c0.079-0.001,0.142,0.017,0.207-0.004
			c-2.749-7.861-5.676-16.291-8.771-25.284c-5.044,1.292-10.271,2.115-15.636,2.44c0,2.901,0,5.743-0.005,8.519
			c-0.006,3.924,2.65,7.482,7.48,10.293C287.395,402.292,293.119,403.645,299.288,403.519L299.288,403.519z M326.716,358.54v15.64
			c-2.146-3.301-4.334-6.682-6.572-10.132C322.43,362.324,324.623,360.482,326.716,358.54L326.716,358.54z M326.716,390.521
			c-3.563-5.179-7.246-10.54-11.049-16.085c-1.145-1.67-2.305-3.359-3.476-5.073c-3.951,2.321-8.109,4.328-12.438,5.986
			c1.459,4.729,2.881,9.309,4.258,13.746c1.259,4.064,5.023,7.316,10.772,9.472c3.802,1.423,7.834,2.135,11.931,2.131
			L326.716,390.521L326.716,390.521z"/>
	</g>
	<path fill="#FA745D" d="M270,227.59c38.602,0,69.908,31.306,69.908,69.907c0,38.603-31.307,69.911-69.908,69.911l0,0v-15.833l0,0
		c29.862,0,54.076-24.218,54.076-54.078c0-29.861-24.216-54.076-54.076-54.076l0,0V227.59L270,227.59z M270,367.41
		c-38.603-0.003-69.909-31.309-69.909-69.91c0-38.602,31.306-69.907,69.909-69.907v15.831c-29.863,0-54.077,24.215-54.077,54.077
		c0,29.863,24.215,54.076,54.077,54.077V367.41z"/>
	<polygon fill="#D02B25" points="270,269.521 318.103,317.621 293.969,317.621 270,293.654 246.031,317.621 221.9,317.621 	"/>
</g>
</svg>
