<?xml version="1.0" encoding="utf-8"?>
<!-- Generator: Adobe Illustrator 16.0.0, SVG Export Plug-In . SVG Version: 6.00 Build 0)  -->
<!DOCTYPE svg PUBLIC "-//W3C//DTD SVG 1.1//EN" "http://www.w3.org/Graphics/SVG/1.1/DTD/svg11.dtd">
<svg version="1.1" id="Layer_1" xmlns="http://www.w3.org/2000/svg" xmlns:xlink="http://www.w3.org/1999/xlink" x="0px" y="0px"
	 width="540px" height="540px" viewBox="0 0 540 540" enable-background="new 0 0 540 540" xml:space="preserve">
<g>
	<g>
		<g>
			<path fill="#502674" d="M468.766,132.421l-19.445,62.535l-310.818-4.104l19.553-62.864L468.766,132.421"/>
		</g>
		<g>
			<path fill="#502674" d="M495,233.976l-24.25,77.983L45,305.461l24.064-77.381L495,233.976"/>
		</g>
		<g>
			<path fill="#502674" d="M401.778,349.263l-19.527,62.796l-311.337-4.494l18.673-68.255l311.333,4.521"/>
		</g>
	</g>
	<g>
		<g>
			<path fill="#9D6CAF" d="M399.645,48.764l67.256,77.525l-76.999-1.073l-32.155-35.573l33.011-6.277l0.979-0.186l0.223-0.977
				L399.645,48.764"/>
		</g>
		<g>
			<path fill="#9D6CAF" d="M477.651,228.042l-234.164-3.407L155.4,197.26l234.278,3.444L477.651,228.042"/>
		</g>
		<g>
			<path fill="#9D6CAF" d="M384.141,342.58l-233.922-3.072L61.993,312.08l234.973,3.391L384.141,342.58"/>
		</g>
		<g>
			<path fill="#9D6CAF" d="M149.95,414.959l32.145,35.514l-33.041,6.365l-0.984,0.182l-0.221,0.979l-7.638,33.238l-67.199-77.432
				L149.95,414.959"/>
		</g>
	</g>
</g>
</svg>
