<?xml version="1.0" encoding="utf-8"?>
<!-- Generator: Adobe Illustrator 16.0.0, SVG Export Plug-In . SVG Version: 6.00 Build 0)  -->
<!DOCTYPE svg PUBLIC "-//W3C//DTD SVG 1.1//EN" "http://www.w3.org/Graphics/SVG/1.1/DTD/svg11.dtd">
<svg version="1.1" id="Layer_1" xmlns="http://www.w3.org/2000/svg" xmlns:xlink="http://www.w3.org/1999/xlink" x="0px" y="0px"
	 width="540px" height="540px" viewBox="0 0 540 540" enable-background="new 0 0 540 540" xml:space="preserve">
<g>
	<g>
		<path fill="#404041" d="M259.28,494.631c-3.532-0.166-5.438-0.309-7.804-0.488V321.111c-21.537-7.795-35.948-28.266-35.948-51.207
			c0-29.629,24.11-54.479,54.478-54.479c11.869,0,23.169,3.777,32.683,10.929c13.845,10.433,21.779,26.31,21.779,43.55
			c0,22.931-14.407,43.402-35.948,51.207v173.031l-1.087,0.084c-2.229,0.17-4.465,0.301-6.716,0.406
			C273.327,494.98,266.673,494.98,259.28,494.631z M259.737,240.912c-8.782,3.118-15.612,9.947-18.733,18.727
			c-2.413,6.808-2.413,13.711,0,20.524c3.125,8.801,9.952,15.623,18.729,18.73c6.783,2.412,13.8,2.387,20.528,0.004
			c15.651-5.572,24.567-22.816,18.732-39.258c-3.121-8.785-9.945-15.612-18.732-18.727
			C273.631,238.546,266.563,238.479,259.737,240.912z"/>
	</g>
	<g>
		<g>
			<path fill="#BA1F75" d="M364.739,336.807l0.217-0.307c11.658-16.564,18.783-35.943,20.595-56.049
				c0.672-7.297,0.672-13.803,0-21.101c-5.039-55.774-49.204-99.936-104.999-105.003l-1.08-0.098V87.787l1.255,0.072
				c48.17,2.801,92.555,24.235,124.993,60.352c32.724,36.442,49.17,83.467,46.325,132.413c-1.538,26.35-8.604,51.498-20.992,74.762
				v35.16c28.217-37.582,42.393-84.047,39.988-131.247c-5.443-103.189-87.319-185.06-190.447-190.44l-1.118-0.056V45.106l1.24,0.059
				C401.098,50.818,495,151.577,495,269.901c0,33.433-7.212,65.656-21.431,95.763c-14.8,31.32-37.032,59.268-64.293,80.807
				l-1.912,1.518v-98.717c15.388-26.535,23.088-57.502,20.955-89.956c-4.666-70.607-56.052-129.872-125.157-144.616v19.484
				c58.893,14.381,101.494,64.483,106.125,124.966c0.467,6.255,0.454,9.458,0.454,11.932h-0.018
				c-0.033,2.922-0.169,5.992-0.437,9.563c-1.717,22.385-8.922,44.262-20.861,63.301v117.18
				c-6.979,4.313-14.008,8.227-21.991,12.031l-1.691,0.799L364.739,336.807L364.739,336.807z"/>
		</g>
		<g>
			<path fill="#BA1F75" d="M173.572,473.16c-7.307-3.484-14.515-7.416-21.433-11.68l-0.558-0.35v-117.18
				c-11.936-19.031-19.152-40.906-20.866-63.301c-0.6-7.93-0.6-13.548,0-21.496c4.626-60.479,47.224-110.581,106.118-124.966
				v-19.481c-72.822,15.536-125.518,80.569-125.518,155.198c0,27.817,7.338,55.264,21.313,79.368v98.713l-1.911-1.51
				c-62.372-49.293-94.984-128.02-83.408-208.72C62.614,131.232,151.763,50.236,259.28,45.167l1.241-0.059v23.696l-1.12,0.057
				C165.19,73.783,86.04,144.956,71.204,238.109c-8.563,53.692,5.183,109.045,37.743,152.442v-35.172
				c-13.946-26.164-21.312-55.713-21.312-85.473c0-96.48,75.39-176.447,171.635-182.044l1.251-0.07v66.462l-1.079,0.097
				c-55.792,5.068-99.95,49.225-104.997,105.003c-0.668,7.304-0.668,13.811,0,21.098c1.822,20.107,8.939,39.488,20.598,56.053
				l0.213,0.307v137.154L173.572,473.16z"/>
		</g>
	</g>
	<g>
		<path fill="#BA1F75" d="M322.109,321.555l0.335-0.336c13.522-13.83,20.979-32.051,20.979-51.31
			c0-40.487-32.929-73.423-73.421-73.423c-28.146,0-54.176,16.466-66.323,41.948c-13.148,27.601-7.569,60.867,13.879,82.789
			l0.336,0.342v167.23l-1.46-0.363c-7.242-1.766-14.448-3.926-21.432-6.402l-0.787-0.281V330.514
			c-13.736-17.141-21.302-38.637-21.317-60.581c0-53.68,43.32-97.122,97.2-97.122c53.485,0,97.007,43.557,97.007,97.095
			c0,21.95-7.568,43.456-21.316,60.61v151.232l-0.787,0.283c-6.979,2.475-14.19,4.635-21.432,6.4l-1.456,0.365V321.555H322.109
			L322.109,321.555z"/>
	</g>
</g>
</svg>
