<?xml version="1.0" encoding="utf-8"?>
<!-- Generator: Adobe Illustrator 16.0.0, SVG Export Plug-In . SVG Version: 6.00 Build 0)  -->
<!DOCTYPE svg PUBLIC "-//W3C//DTD SVG 1.1//EN" "http://www.w3.org/Graphics/SVG/1.1/DTD/svg11.dtd">
<svg version="1.1" id="Layer_1" xmlns="http://www.w3.org/2000/svg" xmlns:xlink="http://www.w3.org/1999/xlink" x="0px" y="0px"
	 width="540px" height="540px" viewBox="0 0 540 540" enable-background="new 0 0 540 540" xml:space="preserve">
<g>
	<path fill="#B22B2B" d="M328.128,211.967c-12.808-11.813-23.411-22.736-32.14-32.891V91.179
		c14.607,23.992,36.652,43.416,41.514,70.782v22.456C336.104,192.778,333.124,201.887,328.128,211.967L328.128,211.967z
		 M295.991,341.705v-127.68c24.585,24.644,45.586,49.374,31.282,83.209C320.859,312.404,309.072,326.914,295.991,341.705z
		 M295.991,179.076C236.182,109.488,264.903,76.335,282.753,45c-0.655,18.21,5.149,32.895,13.238,46.179V179.076L295.991,179.076z
		 M295.991,214.025c-20.332-20.38-43.114-40.706-50.41-66.067c-41.678,62.13,62.164,97.307-6.355,161.899
		c12.596-22.529-0.698-84.167-49.238-101.387c35.926,56.815-121.935,163.662,54.76,284.169
		c-31.834-66.2,14.748-109.671,51.243-150.936V214.025z"/>
	<path fill="#66AD3D" d="M345.902,269.831C383.652,354.63,222.86,380.111,265.253,495c30.593-23.585,76.733-90.362,85.229-122.527
		c2.084,26.542-21.61,69.455-46.224,101.59C385.646,444.518,406.219,335.93,345.902,269.831z"/>
</g>
</svg>
