<?xml version="1.0" encoding="utf-8"?>
<!-- Generator: Adobe Illustrator 16.0.0, SVG Export Plug-In . SVG Version: 6.00 Build 0)  -->
<!DOCTYPE svg PUBLIC "-//W3C//DTD SVG 1.1//EN" "http://www.w3.org/Graphics/SVG/1.1/DTD/svg11.dtd">
<svg version="1.1" id="Layer_1" xmlns="http://www.w3.org/2000/svg" xmlns:xlink="http://www.w3.org/1999/xlink" x="0px" y="0px"
	 width="540px" height="540px" viewBox="0 0 540 540" enable-background="new 0 0 540 540" xml:space="preserve">
<g>
	<path fill="#0067AC" d="M406.349,158.406c-8.194-13.047-18.056-25.338-29.61-36.531c-10.562-10.246-21.988-19.039-34.045-26.414
		V56.907c30.553,10.36,59.338,27.475,84.034,51.415c12.241,11.863,22.813,24.788,31.777,38.47L406.349,158.406L406.349,158.406z
		 M342.694,355.326l122.225,27.219l-0.159-0.186c38.206-65.837,40.145-146.751,6.186-213.998L429.877,213.1
		c10.417,40.343,7.751,83.415-8.096,122.447L361.617,270l103.302-112.542l-122.225,27.218V355.326z M342.694,95.461
		c-76.227-46.699-177.262-36.162-242.08,30.68c-1.56,1.618-3.085,3.236-4.545,4.904l-1.462-1.413
		c4.482-5.635,9.3-11.092,14.385-16.374c62.438-64.382,154.055-83.372,233.702-56.353V95.461L342.694,95.461z M342.694,184.677
		v170.649l-26.891-5.986l-34.929,111.125c-7.752-0.769-15.403-2.022-22.936-3.748l-31.045-98.782l97.703-169.23L342.694,184.677z"/>
	<path fill="#EC1C24" d="M197.303,184.677l26.891,5.986L259.12,79.532c7.753,0.769,15.413,2.032,22.937,3.753l31.052,98.783
		L215.4,351.293l-18.1,4.033V184.677H197.303z M197.303,483.094v-38.562c76.233,46.701,177.254,36.17,242.079-30.681
		c1.551-1.611,3.092-3.234,4.545-4.901l1.471,1.41c-4.491,5.644-9.308,11.101-14.381,16.374
		C368.571,491.117,276.942,510.113,197.303,483.094z M75.084,157.459l122.217,27.218v170.649L75.076,382.545L178.386,270
		l-60.165-65.544c-15.84,39.031-18.512,82.096-8.103,122.455L69.057,371.64c-33.959-67.247-32.028-148.168,6.191-213.997
		L75.084,157.459L75.084,157.459z M197.303,444.532c-12.042-7.381-23.484-16.16-34.05-26.405
		c-11.551-11.201-21.419-23.485-29.599-36.539l-52.149,11.616c8.941,13.68,19.529,26.605,31.763,38.475
		c24.695,23.94,53.488,41.042,84.033,51.415v-38.562H197.303z"/>
</g>
</svg>
