<?xml version="1.0" encoding="utf-8"?>
<!-- Generator: Adobe Illustrator 16.0.0, SVG Export Plug-In . SVG Version: 6.00 Build 0)  -->
<!DOCTYPE svg PUBLIC "-//W3C//DTD SVG 1.1//EN" "http://www.w3.org/Graphics/SVG/1.1/DTD/svg11.dtd">
<svg version="1.1" id="Layer_1" xmlns="http://www.w3.org/2000/svg" xmlns:xlink="http://www.w3.org/1999/xlink" x="0px" y="0px"
	 width="540px" height="540px" viewBox="0 0 540 540" enable-background="new 0 0 540 540" xml:space="preserve">
<g>
	<path fill="#CCCCCC" d="M241.579,489.976c-87.891-15.879-142.731-42.882-173.801-66.615l-10.719-8.175l138.279-10.468
		l75.377,63.671l67.273-64.176l144.951,10.973l-10.719,8.175c-31.079,23.737-85.972,50.76-173.877,66.65l-0.126,0.016L270.009,495
		L241.579,489.976z"/>
	<path fill="#4C4C4C" d="M270.001,45l212.941,72.446l-10.721,36.807c-31.075,106.688-85.968,228.17-173.877,299.619l-0.128,0.108
		l-28.216,22.37V458.23l19.392-15.379c85.429-69.43,139.017-188.962,169.206-292.571l6.919-23.771L270.001,59.993V45z
		 M241.575,453.801C153.691,382.374,98.848,260.906,67.776,154.25l-10.719-36.808L270.001,45v14.995L74.483,126.511l6.925,23.771
		c30.177,103.594,83.724,223.101,169.121,292.507l19.476,15.446v18.119L241.575,453.801z"/>
	<path fill="#C8522C" d="M267.331,423.08c-67.771-54.849-124.394-154.125-161.072-280.038L270.003,87.34l7.611,25.576l-7.611,19.747
		l-12.118,43.658l-39.429-22.307l22.294,39.435l-43.656,12.11l43.656,12.116l-22.294,39.433l39.429-22.303L267.331,423.08z"/>
	<path fill="#F37A30" d="M272.665,423.084c67.775-54.849,124.398-154.127,161.076-280.042L270.007,87.34v45.323l12.111,43.658
		l39.428-22.307l-22.294,39.435l43.655,12.11l-43.655,12.116l22.294,39.433l-39.428-22.303L272.665,423.084z"/>
</g>
</svg>
