<?xml version="1.0" encoding="utf-8"?>
<!-- Generator: Adobe Illustrator 15.0.0, SVG Export Plug-In . SVG Version: 6.00 Build 0)  -->
<!DOCTYPE svg PUBLIC "-//W3C//DTD SVG 1.1//EN" "http://www.w3.org/Graphics/SVG/1.1/DTD/svg11.dtd">
<svg version="1.1" id="Layer_1" xmlns="http://www.w3.org/2000/svg" xmlns:xlink="http://www.w3.org/1999/xlink" x="0px" y="0px"
	 width="362.999px" height="255.116px" viewBox="0 0 362.999 255.116" enable-background="new 0 0 362.999 255.116"
	 xml:space="preserve">
<g>
	<path fill="#BB7DA7" d="M342.001,228.393c0,0-18.364,13.832-74.282-8.376c-55.924-22.201-82.718,1.674-82.718,6.078v-0.523V16.395
		c0-4.404,27.102-28.281,83.023-6.078c55.918,22.202,73.977,8.426,73.977,8.426V228.393z"/>
	<g>
		<path fill="#BB7DA7" d="M94.605,10.317c-5.914,2.348-9.604,4.272-17.604,5.875V160.19l-13.087-9.867l-13.913,9.867V22.329
			c-19,2.565-29-3.585-29-3.585v209.649c0,0,18.362,13.832,74.285-8.376c55.922-22.201,82.715,1.674,82.715,6.078v-0.523V16.395
			C178.001,11.991,150.527-11.886,94.605,10.317z"/>
	</g>
</g>
<g>
	<path fill="#783E67" d="M353.001,29.05v209h-343v-209h-8v220c0,0,102.356,0,153.396,0c4.506,0,13.748,6.066,27.754,6.066
		c14.573,0,21.166-6.066,25.646-6.066c51.449,0,154.202,0,154.202,0v-220H353.001z"/>
</g>
</svg>
