<?xml version="1.0" encoding="utf-8"?>
<!-- Generator: Adobe Illustrator 16.0.0, SVG Export Plug-In . SVG Version: 6.00 Build 0)  -->
<!DOCTYPE svg PUBLIC "-//W3C//DTD SVG 1.1//EN" "http://www.w3.org/Graphics/SVG/1.1/DTD/svg11.dtd">
<svg version="1.1" id="Layer_1" xmlns="http://www.w3.org/2000/svg" xmlns:xlink="http://www.w3.org/1999/xlink" x="0px" y="0px"
	 width="540px" height="540px" viewBox="0 0 540 540" enable-background="new 0 0 540 540" xml:space="preserve">
<g>
	<g>
		<polygon fill="#6D171D" points="331.242,44.998 390.231,132.896 272.625,128.37 		"/>
		<g>
			<polygon fill="#C92228" points="305.514,74.567 218.898,140.761 495,331.248 495,205.034 			"/>
			
				<linearGradient id="SVGID_1_" gradientUnits="userSpaceOnUse" x1="418.9954" y1="835.8828" x2="524.7943" y2="835.8828" gradientTransform="matrix(1 0 0 1 -33.4395 -505.7813)">
				<stop  offset="0.2581" style="stop-color:#144851"/>
				<stop  offset="0.4809" style="stop-color:#11414A"/>
				<stop  offset="0.7983" style="stop-color:#082F38"/>
				<stop  offset="1" style="stop-color:#002028"/>
			</linearGradient>
			<polygon fill="url(#SVGID_1_)" points="495,331.248 408.36,387.576 410.03,272.627 			"/>
		</g>
		<g>
			<polygon fill="#ED3232" points="305.514,74.567 218.898,140.761 495,331.248 390.231,196.149 			"/>
			<polygon fill="#6D171D" points="495,331.248 408.36,387.576 410.03,272.627 			"/>
		</g>
		<g>
			<polygon opacity="0.8" fill="#E96D24" enable-background="new    " points="462.465,308.374 377.608,250.258 208.76,495.002 
				334.969,495.002 			"/>
			<polygon opacity="0.8" fill="#D0762A" enable-background="new    " points="462.465,308.374 377.608,250.258 356.948,372.631 
				334.969,495.002 			"/>
			<polygon fill="#6D171D" points="208.76,495.002 152.254,410.037 267.378,410.037 			"/>
		</g>
		<g>
			<polygon fill="#ED3232" points="230.158,464.564 289.75,377.609 45.001,208.761 45.001,334.967 			"/>
			
				<linearGradient id="SVGID_2_" gradientUnits="userSpaceOnUse" x1="81.4905" y1="669.0645" x2="159.2624" y2="710.632" gradientTransform="matrix(1 0 0 1 -33.4395 -505.7813)">
				<stop  offset="0.2581" style="stop-color:#144851"/>
				<stop  offset="0.4809" style="stop-color:#11414A"/>
				<stop  offset="0.7983" style="stop-color:#082F38"/>
				<stop  offset="1" style="stop-color:#002028"/>
			</linearGradient>
			<polygon fill="url(#SVGID_2_)" points="45.001,208.761 133.565,148.728 128.575,266.583 			"/>
		</g>
		<g opacity="0.9">
			<polygon fill="#C92228" points="230.158,464.564 289.75,377.609 45.001,208.761 152.427,355.355 			"/>
			<polygon fill="#6D171D" points="45.001,208.761 133.565,148.728 128.575,266.583 			"/>
		</g>
		<g opacity="0.8">
			<g>
				<polygon fill="#D0762A" points="76.802,231.119 162.392,289.748 331.242,44.998 205.034,44.998 				"/>
			</g>
		</g>
		<g opacity="0.8">
			<g>
				<polygon fill="#E96D24" points="188.964,156.851 162.392,289.748 331.242,44.998 205.034,44.998 				"/>
			</g>
		</g>
	</g>
</g>
</svg>
