<?xml version="1.0" encoding="utf-8"?>
<!-- Generator: Adobe Illustrator 16.0.0, SVG Export Plug-In . SVG Version: 6.00 Build 0)  -->
<!DOCTYPE svg PUBLIC "-//W3C//DTD SVG 1.1//EN" "http://www.w3.org/Graphics/SVG/1.1/DTD/svg11.dtd">
<svg version="1.1" id="Layer_1" xmlns="http://www.w3.org/2000/svg" xmlns:xlink="http://www.w3.org/1999/xlink" x="0px" y="0px"
	 width="540px" height="540px" viewBox="0 0 540 540" enable-background="new 0 0 540 540" xml:space="preserve">
<g>
	<path fill="#EA1B25" d="M224.474,429.751c0.327-0.923,0.714-1.794,1.188-2.63c0.197-0.429,0.46-0.881,0.723-1.262l0.714-1.123
		c0.926-1.464,1.794-2.937,2.62-4.437c1.583-2.948,3.005-6.083,3.379-9.091c0.196-1.504,0.073-2.932-0.37-4.199
		c-0.49-1.262-1.35-2.464-2.406-3.586c-0.301-0.296-0.574-0.56-0.864-0.854l-0.938-0.865c-0.705-0.632-1.385-1.326-2.029-2.084
		c-1.273-1.464-2.416-3.156-3.178-5.073c-0.789-1.9-1.214-4.001-1.133-6.074c0.025-2.06,0.494-4.106,1.195-5.946
		c0.725-1.837,1.724-3.569,2.82-5.134c0.532-0.761,1.115-1.496,1.729-2.189c-0.656-0.502-1.277-1.084-1.883-1.664
		c-1.294-1.306-2.486-2.738-3.426-4.396c-0.931-1.669-1.649-3.591-1.907-5.561c-0.264-2.029-0.026-4.059,0.531-5.939
		c0.564-1.877,1.477-3.591,2.502-5.088c1.169-1.698,2.125-2.719,3.058-4.007c1.832-2.475,3.451-5.179,3.599-7.458
		c0.068-1.123-0.22-2.255-0.811-3.496c-0.564-1.213-1.401-2.533-2.318-3.833c-1.832-2.631-3.812-5.368-5.608-8.208
		c-1.73-2.839-3.557-5.34-5.365-8.473c-0.847-1.578-1.717-3.372-2.003-5.621c-0.081-1.103-0.022-2.267,0.237-3.33
		c0.264-1.083,0.689-2.07,1.171-2.965c0.956-1.725,2.145-3.136,3.339-4.44c1.212-1.298,2.463-2.442,3.752-3.61
		c1.575-1.373,3.195-2.681,4.825-3.96c-51.951-75.415-186.389-79.85-186.389-79.85c46.233,34.522,25.713,103.294,44.462,154.014
		c38.91,115.378,136.665,74.636,136.665,74.636c0.208-0.178,0.37-0.394,0.558-0.608C222.584,437.443,223.047,433.46,224.474,429.751
		z"/>
	<path fill="#F48186" d="M224.474,429.751c0.327-0.923,0.714-1.794,1.188-2.63c0.197-0.429,0.46-0.881,0.723-1.262l0.714-1.123
		c0.926-1.464,1.794-2.937,2.62-4.437c1.583-2.948,3.005-6.083,3.379-9.091c0.196-1.504,0.073-2.932-0.37-4.199
		c-0.49-1.262-1.35-2.464-2.406-3.586c-0.301-0.296-0.574-0.56-0.864-0.854l-0.938-0.865c-0.705-0.632-1.385-1.326-2.029-2.084
		c-1.273-1.464-2.416-3.156-3.178-5.073c-0.789-1.9-1.214-4.001-1.133-6.074c0.025-2.06,0.494-4.106,1.195-5.946
		c0.725-1.837,1.724-3.569,2.82-5.134c0.532-0.761,1.115-1.496,1.729-2.189c-0.656-0.502-1.277-1.084-1.883-1.664
		c-1.294-1.306-2.486-2.738-3.426-4.396c-0.931-1.669-1.649-3.591-1.907-5.561c-0.264-2.029-0.026-4.059,0.531-5.939
		c0.564-1.877,1.477-3.591,2.502-5.088c1.169-1.698,2.125-2.719,3.058-4.007c1.832-2.475,3.451-5.179,3.599-7.458
		c0.068-1.123-0.22-2.255-0.811-3.496c-0.564-1.213-1.401-2.533-2.318-3.833c-1.832-2.631-3.812-5.368-5.608-8.208
		c-1.73-2.839-3.557-5.34-5.365-8.473c-0.847-1.578-1.717-3.372-2.003-5.621c-0.081-1.103-0.022-2.267,0.237-3.33
		c0.264-1.083,0.689-2.07,1.171-2.965c0.956-1.725,2.145-3.136,3.339-4.44c1.212-1.298,2.463-2.442,3.752-3.61
		c2.556-2.206,5.181-4.29,7.833-6.301c2.644-1.971,5.341-3.925,8.007-5.813c2.624-1.922,5.21-3.903,7.698-5.928
		c5.037-4.091,9.777-8.434,14.125-13.186c4.365-4.725,8.279-9.813,11.628-15.301c6.701-10.96,10.921-23.296,13.963-35.957
		c1.49-6.355,2.74-12.733,3.883-19.197c1.176-6.47,2.268-12.919,3.368-19.419c1.145-6.571,2.801-13.057,5.217-19.27
		c2.441-6.232,5.542-12.178,9.361-17.604c1.161-1.649,2.427-3.226,3.71-4.785c-5.305-21.03-5.794-42.366,3.043-64.353
		c0,0-160.901,105.485-160.362,234.218c0.171,42.604,11.236,104.907,69.308,141.128
		C222.348,440.216,222.562,434.751,224.474,429.751z"/>
	<g>
		<g>
			<g>
				<path fill="#CA2128" d="M329.549,118.952c-2.844,1.627-5.598,3.534-8.172,5.639c-5.142,4.16-9.668,9.083-13.512,14.523
					c-3.824,5.434-6.92,11.375-9.363,17.604c-2.408,6.212-4.075,12.697-5.219,19.27c-1.101,6.501-2.188,12.956-3.363,19.419
					c-1.146,6.463-2.393,12.842-3.881,19.197c-3.039,12.662-7.266,24.999-13.965,35.957c-3.355,5.487-7.264,10.577-11.629,15.301
					c-4.347,4.746-9.091,9.095-14.125,13.186c-2.487,2.029-5.069,4.005-7.7,5.928c-2.662,1.884-5.364,3.836-8.005,5.811
					c-2.654,2.013-5.278,4.096-7.834,6.303c-1.288,1.165-2.538,2.311-3.751,3.609c-1.191,1.305-2.385,2.715-3.342,4.438
					c-0.479,0.896-0.908,1.884-1.171,2.968c-0.257,1.063-0.317,2.228-0.237,3.329c0.28,2.249,1.154,4.043,2.004,5.621
					c1.809,3.133,3.635,5.632,5.363,8.473c1.798,2.837,3.785,5.577,5.61,8.208c0.913,1.299,1.75,2.619,2.32,3.834
					c0.587,1.244,0.881,2.373,0.808,3.494c-0.146,2.28-1.765,4.988-3.598,7.462c-0.933,1.287-1.895,2.31-3.061,4.004
					c-1.018,1.497-1.935,3.221-2.499,5.089c-0.558,1.886-0.796,3.912-0.533,5.94c0.263,1.97,0.981,3.898,1.906,5.563
					c0.938,1.664,2.134,3.09,3.428,4.395c0.607,0.575,1.229,1.16,1.883,1.665c-0.613,0.693-1.198,1.435-1.729,2.189
					c-1.095,1.563-2.095,3.297-2.819,5.134c-0.704,1.844-1.171,3.892-1.196,5.946c-0.082,2.073,0.343,4.171,1.133,6.076
					c0.761,1.916,1.899,3.608,3.178,5.072c0.646,0.756,1.327,1.449,2.03,2.084l0.938,0.865c0.289,0.295,0.559,0.557,0.866,0.853
					c1.059,1.122,1.916,2.325,2.403,3.585c0.447,1.269,0.569,2.696,0.369,4.2c-0.369,3.013-1.794,6.146-3.376,9.088
					c-0.822,1.505-1.692,2.977-2.619,4.441l-0.713,1.122c-0.263,0.382-0.533,0.832-0.725,1.264
					c-0.472,0.838-0.865,1.707-1.188,2.629c-2.729,7.151-2.071,15.266,1.435,21.88c1.741,3.372,4.145,6.29,6.974,8.637
					c2.833,2.411,6.063,4.254,9.402,5.654c6.751,2.77,13.943,3.824,21.033,4.059c14.239,0.397,28.273-2.207,41.807-5.959
					c-6.845,1.535-13.805,2.696-20.757,3.475c-6.975,0.785-13.991,1.104-20.939,0.602c-6.921-0.516-13.842-1.858-20.042-4.677
					c-3.102-1.417-6.025-3.194-8.503-5.401c-2.519-2.244-4.574-4.887-6.002-7.878c-2.911-5.892-3.243-13.027-0.843-19.038
					c0.318-0.742,0.649-1.436,1.046-2.123c0.194-0.359,0.382-0.648,0.625-1.014l0.718-1.086c0.977-1.504,1.938-3.022,2.84-4.623
					c1.761-3.144,3.44-6.516,4.09-10.501c0.301-1.973,0.221-4.168-0.494-6.211c-0.703-2.078-1.954-3.78-3.261-5.211
					c-0.338-0.35-0.68-0.71-1.009-1.031l-1.011-0.939c-0.596-0.546-1.123-1.106-1.637-1.721c-1.012-1.163-1.821-2.481-2.346-3.824
					c-1.117-2.725-0.956-5.727,0.214-8.548c0.569-1.434,1.357-2.796,2.293-4.082c0.465-0.612,0.974-1.263,1.519-1.868
					c0.503-0.575,1.122-1.198,1.621-1.65l2.49-2.187l-2.862-1.756c-0.51-0.312-1.165-0.763-1.723-1.263
					c-0.553-0.423-1.106-0.913-1.601-1.439c-1.042-1.047-1.912-2.169-2.582-3.391c-1.349-2.383-1.638-4.977-0.854-7.516
					c0.409-1.268,1.042-2.519,1.859-3.695c0.699-1.06,1.969-2.442,2.962-3.812c1.019-1.388,2.029-2.852,2.894-4.499
					c0.839-1.655,1.589-3.534,1.735-5.709c0.16-2.165-0.405-4.328-1.24-6.043c-0.804-1.698-1.767-3.212-2.745-4.598
					c-1.884-2.752-3.775-5.364-5.47-8.082c-1.711-2.8-3.69-5.613-5.155-8.218c-0.73-1.29-1.239-2.52-1.343-3.573
					c-0.134-1.042,0.112-2.03,0.748-3.208c1.25-2.279,3.57-4.548,5.922-6.627c2.347-2.102,4.903-4.118,7.498-6.087
					c2.603-1.956,5.217-3.893,7.881-5.831c2.691-1.954,5.348-3.984,7.914-6.104c10.347-8.403,19.69-18.427,26.548-30.049
					c3.447-5.776,6.271-11.919,8.516-18.222c2.25-6.319,3.946-12.768,5.364-19.253c2.824-12.966,4.53-26.028,6.376-39.049
					c1.846-12.788,5.904-25.411,12.947-36.354c3.527-5.466,7.792-10.448,12.697-14.759c4.924-4.295,10.357-8.097,16.477-10.523
					C335.397,115.833,332.422,117.305,329.549,118.952z"/>
			</g>
			<g>
				<path fill="#CA2128" d="M411.684,108.575c-0.957,20.627,4.277,40.987,14.744,57.722c2.607,4.183,5.578,8.15,8.83,11.828
					c3.201,3.715,6.682,7.211,10.406,10.4c3.715,3.243,7.732,6.104,11.826,8.837c4.396,2.932,8.828,6.181,12.875,9.712
					c8.262,7.012,15.324,15.65,20.486,25.45c5.107,9.814,7.805,20.923,7.92,31.859c0.018,5.469-0.547,10.888-1.523,16.155
					c-1.09,5.289-2.662,10.399-4.531,15.356c-3.877,9.856-9.057,19.044-15.324,27.341c4.016-9.563,7.684-19.17,9.961-29.016
					c1.16-4.896,2.029-9.839,2.459-14.77c0.471-4.92,0.547-9.831,0.074-14.66c-0.471-4.816-1.266-9.562-2.68-14.148
					c-1.373-4.601-3.371-8.95-5.611-13.169c-4.574-8.461-11.086-15.758-18.318-22.329c-3.676-3.303-7.508-6.233-11.666-9.11
					c-4.414-3.059-8.596-6.486-12.523-10.18c-3.953-3.699-7.635-7.683-10.926-11.957c-3.254-4.311-6.168-8.879-8.699-13.658
					C409.58,151.139,406.615,128.729,411.684,108.575z"/>
			</g>
		</g>
	</g>
	<g>
		<g>
			<g>
				<path fill="#EE3231" d="M309.219,208.249c0,0,38.418-15.308,62.672-10.813c24.275,4.493,37.059,22.227,37.059,22.227
					s-9.441-16.208-35.043-27.028C348.291,181.816,286.994,201.634,309.219,208.249L309.219,208.249z"/>
			</g>
			<g>
				<path fill="#EE3231" d="M344.487,268.832c-5.049,1.032-10.145,1.609-15.285,1.831c-9.49,0.413-19.092-0.237-28.897-0.87
					c-0.054-0.854-0.108-1.74-0.091-2.625c-0.02-1.917,0.061-3.913,0.251-5.868c0.295-4.005,0.853-8.042,1.325-12.193
					c-2.318,3.496-4.039,7.318-5.486,11.285c-0.939,2.77-1.734,5.628-2.139,8.713c-2.605,0.123-5.504-0.29-8.691-1.611
					c2.715,2.405,5.577,3.753,8.514,4.474c0,0.472-0.036,0.906-0.021,1.396l0.021,0.251c-4.199,2.495-10.146,4.15-17.533,1.091
					c4.817,4.345,10.18,5.432,15.688,5.089c-4.836,3.296-11.521,6.592-20.486,8.71c13.427,0.43,26.39-3.569,37.006-9.478
					c-3.654,4.081-9.378,8.804-18.182,12.462c11.23-1.304,21.369-6.265,29.426-12.609c1.123,0,2.232-0.032,3.35-0.075
					c-2.318,3.354-5.771,6.819-10.953,9.498c8.602-0.785,15.699-4.922,21.027-10.581c1.486-0.269,2.973-0.576,4.418-0.977
					c-1.23,1.718-2.932,3.404-5.381,5.036c5.457-1.572,9.289-4.192,11.973-7.263c0.613-0.237,1.23-0.452,1.811-0.748
					c5.164-2.335,9.908-5.684,13.4-9.975C354.543,266.12,349.565,267.771,344.487,268.832z"/>
			</g>
		</g>
	</g>
</g>
</svg>
