<?xml version="1.0" encoding="utf-8"?>
<!-- Generator: Adobe Illustrator 16.0.0, SVG Export Plug-In . SVG Version: 6.00 Build 0)  -->
<!DOCTYPE svg PUBLIC "-//W3C//DTD SVG 1.1//EN" "http://www.w3.org/Graphics/SVG/1.1/DTD/svg11.dtd">
<svg version="1.1" id="Layer_1" xmlns="http://www.w3.org/2000/svg" xmlns:xlink="http://www.w3.org/1999/xlink" x="0px" y="0px"
	 width="540px" height="540px" viewBox="0 0 540 540" enable-background="new 0 0 540 540" xml:space="preserve">
<g>
	<path fill="#05A100" d="M159.824,413.457c0,0-9.188,0.693-22.055-3.4c-6.397-2.046-13.586-5.325-21.071-10.563
		c-3.718-2.592-7.532-5.702-11.34-9.438c-3.777-3.707-7.575-8.028-11.328-13.048c-3.742-5.043-7.429-10.823-11.021-17.079
		c-3.562-6.273-7.016-13.052-10.239-20.119c-3.232-7.027-6.23-14.381-8.938-21.708c-2.71-7.348-5.137-14.674-7.221-21.727
		c-2.071-7.036-3.855-13.774-5.352-19.893c-1.474-6.145-2.673-11.647-3.574-16.288C45.866,250.932,45,245.216,45,245.216
		s3.167,1.514,8.586,4.153c5.411,2.663,13.325,6.514,22.659,11.225c4.695,2.341,9.901,4.97,15.424,7.762
		c5.519,2.771,11.33,5.733,17.252,8.785c5.925,3.067,11.903,6.201,17.718,9.34c5.754,3.164,11.323,6.274,16.35,9.301
		c5.038,3.04,9.776,6.228,14.194,9.603c4.424,3.354,8.501,6.875,12.225,10.512c3.712,3.644,7.063,7.376,10.015,11.182
		c2.925,3.809,5.456,7.676,7.574,11.599c4.246,7.845,6.742,15.79,7.602,23.591c0.83,7.8,0.026,15.48-2.359,22.9
		c0,0,1.432-8.25-11.964-21.683c-3.361-3.378-7.609-7.157-12.934-11.25c-5.338-4.09-11.713-8.486-19.296-13.173
		c-3.791-2.323-7.836-4.706-12.104-7.13c-4.292-2.451-8.832-4.924-13.59-7.442c-4.802-2.521-9.783-5.044-14.966-7.582
		c-5.201-2.524-10.558-5.085-16.211-7.636c0,0,1.286,6.066,3.925,15.245c1.322,4.564,3.007,9.894,5.104,15.604
		c2.055,5.676,4.525,11.746,7.406,17.806c2.832,6.064,6.088,12.13,9.726,17.861c3.604,5.761,7.585,11.224,11.939,16.146
		s9.063,9.324,14.147,12.977C148.492,408.562,153.978,411.485,159.824,413.457z"/>
	<path fill="#00D105" d="M343.533,378.502c0,0-2.725-9.994,0.787-24.923c0.875-3.729,2.135-7.824,3.963-12.175
		c1.805-4.378,4.145-8.971,7.188-13.726c3.021-4.702,6.697-9.582,11.141-14.431c4.451-4.851,9.631-9.677,15.678-14.344
		c6.027-4.657,12.613-9.204,19.467-13.527c6.803-4.304,13.836-8.449,20.764-12.268c6.893-3.838,13.629-7.4,19.961-10.596
		c6.332-3.211,12.275-6.09,17.594-8.605c5.326-2.521,10.191-4.724,14.461-6.597c4.268-1.883,7.979-3.473,10.979-4.712
		c5.979-2.481,9.486-3.763,9.486-3.763s-0.926,5.191-2.652,13.601c-0.873,4.192-1.973,9.223-3.299,14.794
		c-1.357,5.6-2.918,11.726-4.715,18.168c-1.777,6.437-3.826,13.151-6.061,19.853c-2.264,6.727-4.688,13.433-7.227,19.901
		c-2.529,6.47-5.199,12.646-7.813,18.355c-2.66,5.716-5.279,10.943-7.803,15.466c-2.521,4.464-5.152,8.65-7.857,12.457
		c-2.715,3.826-5.523,7.299-8.396,10.464c-5.754,6.304-11.83,11.347-18.158,15.145c-6.314,3.856-12.938,6.516-19.773,7.969
		c-6.824,1.456-13.955,1.713-21.225,0.764c0,0,8.189,0.239,21.449-10.896c3.305-2.774,6.91-6.37,10.773-10.961
		c3.854-4.618,7.965-10.271,12.283-17.218c2.135-3.474,4.32-7.326,6.547-11.527c2.213-4.237,4.453-8.848,6.725-13.917
		c2.254-5.046,4.486-10.559,6.705-16.525c2.211-6.023,4.383-12.511,6.537-19.494c0,0-4.807,1.324-12.566,4.184
		c-3.875,1.441-8.596,3.274-13.867,5.482c-5.291,2.269-11.178,4.898-17.373,7.976c-6.184,3.069-12.734,6.563-19.24,10.479
		c-6.502,3.899-12.951,8.2-18.9,12.934c-5.932,4.686-11.348,9.726-15.752,15.099C348.932,366.782,345.537,372.489,343.533,378.502z"
		/>
	<path fill="#096002" d="M232.176,370.684c0,0-3.073-1.451-7.505-4.491c-4.459-3.017-10.296-7.651-15.974-14.006
		c-2.832-3.186-5.581-6.842-8.107-11.029c-2.535-4.158-4.771-8.843-6.564-14.025c-1.811-5.187-3.131-10.967-3.748-17.327
		c-0.603-6.377-0.5-13.346,0.562-20.979c1.035-7.658,2.949-15.98,5.55-24.805c1.307-4.398,2.798-8.921,4.412-13.524
		c1.641-4.576,3.426-9.251,5.328-13.962c1.897-4.702,3.924-9.413,6.042-14.126c2.126-4.708,4.325-9.384,6.61-14.025
		c2.274-4.629,4.591-9.179,6.923-13.599c2.355-4.445,4.682-8.735,7.036-12.908c4.658-8.297,9.213-15.948,13.427-22.728
		c4.174-6.775,8.017-12.687,11.216-17.471c6.417-9.582,10.495-15.18,10.495-15.18s3.398,5.256,8.865,14.141
		c2.752,4.432,6.041,9.866,9.693,16.053c3.635,6.171,7.668,13.125,11.826,20.602c4.164,7.48,8.5,15.473,12.75,23.696
		c2.125,4.104,4.244,8.252,6.266,12.412c2.07,4.143,4.064,8.296,5.99,12.415c3.861,8.215,7.395,16.247,10.463,23.756
		c3.061,7.51,5.646,14.516,7.582,20.708c1.939,6.204,3.342,12.143,4.219,17.81c0.893,5.658,1.262,11.056,1.125,16.188
		c-0.094,5.131-0.668,10.013-1.693,14.626c-1.023,4.589-2.48,8.938-4.377,13.055c-1.879,4.09-4.145,7.945-6.867,11.578
		c-2.682,3.616-5.756,6.973-9.219,10.058c-3.463,3.112-7.309,5.99-11.496,8.585c-4.211,2.618-8.805,4.977-13.725,7.061
		c0,0,2.5-1.312,5.264-4.872c2.775-3.545,5.793-9.275,6.885-18.172c0.559-4.425,0.57-9.871-0.229-16.381
		c-0.777-6.534-2.449-14.216-5.313-23.256c-1.432-4.521-3.189-9.418-5.291-14.724c-2.125-5.306-4.605-11.013-7.533-17.138
		c-2.887-6.139-6.223-12.702-9.998-19.708c-3.813-7.017-8.074-14.419-12.792-22.265c0,0-4.995,6.143-11.853,16.172
		c-3.434,5.009-7.317,10.938-11.237,17.508c-3.898,6.533-7.824,13.69-11.389,21.104c-3.556,7.42-6.706,15.03-9.124,22.591
		c-2.44,7.567-4.126,15.026-4.783,22.214c-0.665,7.186-0.332,14.054,1.31,20.49C224.804,359.246,227.706,365.237,232.176,370.684z"
		/>
</g>
</svg>
