<?xml version="1.0" encoding="utf-8"?>
<!-- Generator: Adobe Illustrator 16.0.0, SVG Export Plug-In . SVG Version: 6.00 Build 0)  -->
<!DOCTYPE svg PUBLIC "-//W3C//DTD SVG 1.1//EN" "http://www.w3.org/Graphics/SVG/1.1/DTD/svg11.dtd">
<svg version="1.1" id="Layer_1" xmlns="http://www.w3.org/2000/svg" xmlns:xlink="http://www.w3.org/1999/xlink" x="0px" y="0px"
	 width="540px" height="540px" viewBox="0 0 540 540" enable-background="new 0 0 540 540" xml:space="preserve">
<g>
	<g>
		<g>
			<path fill="#9CB83D" d="M468.764,132.422l-19.443,62.534l-310.817-4.104l19.554-62.862L468.764,132.422"/>
		</g>
		<g>
			<path fill="#9CB83D" d="M495,233.975l-24.25,77.983L45,305.461l24.064-77.382L495,233.975"/>
		</g>
		<g>
			<path fill="#9CB83D" d="M401.78,349.262l-19.529,62.796l-311.335-4.496l18.673-68.254l311.331,4.521"/>
		</g>
	</g>
	<g>
		<g>
			<path fill="#D2E057" d="M399.645,48.765l67.254,77.524l-76.998-1.072l-32.156-35.574l33.01-6.276l0.979-0.187l0.223-0.977
				L399.645,48.765"/>
		</g>
		<g>
			<path fill="#D2E057" d="M477.649,228.042l-234.162-3.408l-88.086-27.376l234.277,3.444L477.649,228.042"/>
		</g>
		<g>
			<path fill="#D2E057" d="M384.141,342.579l-233.922-3.071l-88.224-27.43l234.972,3.392L384.141,342.579"/>
		</g>
		<g>
			<path fill="#D2E057" d="M149.951,414.958l32.145,35.514l-33.042,6.364l-0.984,0.183l-0.221,0.979l-7.638,33.238l-67.199-77.434
				L149.951,414.958"/>
		</g>
	</g>
</g>
</svg>
