<?xml version="1.0" encoding="utf-8"?>
<!-- Generator: Adobe Illustrator 16.0.0, SVG Export Plug-In . SVG Version: 6.00 Build 0)  -->
<!DOCTYPE svg PUBLIC "-//W3C//DTD SVG 1.1//EN" "http://www.w3.org/Graphics/SVG/1.1/DTD/svg11.dtd">
<svg version="1.1" id="Layer_1" xmlns="http://www.w3.org/2000/svg" xmlns:xlink="http://www.w3.org/1999/xlink" x="0px" y="0px"
	 width="540px" height="540px" viewBox="0 0 540 540" enable-background="new 0 0 540 540" xml:space="preserve">
<g>
	<g>
		<g>
			<path fill="#A3206A" d="M468.766,132.421l-19.447,62.534l-310.815-4.104l19.552-62.862L468.766,132.421"/>
		</g>
		<g>
			<path fill="#A3206A" d="M495,233.975l-24.252,77.984l-425.748-6.498l24.063-77.381L495,233.975"/>
		</g>
		<g>
			<path fill="#A3206A" d="M401.778,349.262l-19.525,62.797l-311.34-4.497l18.675-68.252l311.332,4.521"/>
		</g>
	</g>
	<g>
		<g>
			<path fill="#DD74B0" d="M399.645,48.763l67.256,77.526l-77-1.072l-32.156-35.574l33.014-6.278l0.977-0.186l0.225-0.976
				L399.645,48.763"/>
		</g>
		<g>
			<path fill="#DD74B0" d="M477.651,228.043l-234.167-3.408l-88.086-27.378l234.281,3.444L477.651,228.043"/>
		</g>
		<g>
			<path fill="#DD74B0" d="M384.141,342.58l-233.923-3.07l-88.229-27.43l234.978,3.391L384.141,342.58"/>
		</g>
		<g>
			<path fill="#DD74B0" d="M149.948,414.959l32.146,35.515l-33.041,6.364l-0.986,0.184l-0.22,0.979l-7.636,33.237L73.01,413.807
				L149.948,414.959"/>
		</g>
	</g>
</g>
</svg>
