<?xml version="1.0" encoding="utf-8"?>
<!-- Generator: Adobe Illustrator 16.0.0, SVG Export Plug-In . SVG Version: 6.00 Build 0)  -->
<!DOCTYPE svg PUBLIC "-//W3C//DTD SVG 1.1//EN" "http://www.w3.org/Graphics/SVG/1.1/DTD/svg11.dtd">
<svg version="1.1" id="Layer_1" xmlns="http://www.w3.org/2000/svg" xmlns:xlink="http://www.w3.org/1999/xlink" x="0px" y="0px"
	 width="540px" height="540px" viewBox="0 0 540 540" enable-background="new 0 0 540 540" xml:space="preserve">
<g>
	<g>
		<path fill="#0086C1" d="M64.5,289.497C64.5,402.988,156.498,495,270.002,495C383.493,495,475.5,402.988,475.5,289.497H64.5z
			 M256.141,462.876c-78.013,0-141.255-63.245-141.255-141.258h31.326c0,72.716,54.951,132.592,125.59,140.38
			C266.658,462.573,261.437,462.876,256.141,462.876z"/>
		<path fill="#00A046" d="M282.098,269.2c-22.793-33.109-43.19-71.193-52.645-104.426c27.114,33.412,54.632,54.252,77.431,87.36
			c0.944,1.378,1.963,2.704,3.007,4.01c23.009-33.796,27.34-78.778,7.395-117.744C294.566,94.004,224.552,84.159,184.246,45
			c-34.014,63.033-32.525,122.111-9.799,166.507c20.16,39.397,65.932,59.141,108.675,59.059
			C282.778,270.115,282.42,269.672,282.098,269.2z"/>
		<path fill="#008A46" d="M373.591,269.593c16.31-23.694,30.897-50.946,37.667-74.727c-19.398,23.911-39.092,38.825-55.406,62.512
			c-0.677,0.986-1.404,1.935-2.145,2.873c-16.468-24.186-19.563-56.373-5.3-84.25c16.26-31.768,66.36-38.813,95.201-66.832
			c24.337,45.104,23.273,87.374,7.009,119.142c-14.425,28.191-47.174,42.317-77.757,42.259
			C373.101,270.244,373.354,269.925,373.591,269.593z"/>
	</g>
	<g>
		<path fill="#00A2DB" d="M64.5,289.497c0,32.3,7.471,62.843,20.75,90.034c14.958,3.086,30.228,5.644,45.774,7.633
			c-10.285-19.595-16.135-41.882-16.135-65.546h31.326c0,25.011,6.503,48.5,17.901,68.874c15.612,1.158,31.452,1.758,47.489,1.758
			c96.149,0,185.335-21.332,258.879-57.719c3.244-14.507,5.01-29.561,5.01-45.038L64.5,289.497L64.5,289.497z"/>
	</g>
</g>
</svg>
