<?xml version="1.0" encoding="utf-8"?>
<!-- Generator: Adobe Illustrator 16.0.0, SVG Export Plug-In . SVG Version: 6.00 Build 0)  -->
<!DOCTYPE svg PUBLIC "-//W3C//DTD SVG 1.1//EN" "http://www.w3.org/Graphics/SVG/1.1/DTD/svg11.dtd">
<svg version="1.1" id="Layer_1" xmlns="http://www.w3.org/2000/svg" xmlns:xlink="http://www.w3.org/1999/xlink" x="0px" y="0px"
	 width="540px" height="540px" viewBox="0 0 540 540" enable-background="new 0 0 540 540" xml:space="preserve">
<g>
	<path fill="#99CE75" d="M196.819,363.762c-3.685,0.537-7.405,0.807-11.128,0.977c-1.862,0.081-3.726,0.14-5.59,0.15
		c-1.865,0.017-3.732,0.02-5.598-0.03c-3.734-0.073-7.474-0.271-11.208-0.568c-3.736-0.281-7.462-0.727-11.193-1.218
		c-3.72-0.535-7.437-1.16-11.142-1.895c-3.699-0.763-7.391-1.619-11.059-2.6c-3.662-1.01-7.307-2.12-10.927-3.345
		c-3.609-1.251-7.179-2.668-10.715-4.179c-3.55-1.494-7.014-3.215-10.433-5.054c-3.417-1.838-6.794-3.794-10.028-6.003
		c-3.247-2.188-6.424-4.505-9.478-7.012c-3.021-2.547-5.928-5.251-8.697-8.104c-2.771-2.863-5.336-5.929-7.727-9.135
		c-2.401-3.2-4.566-6.583-6.55-10.065c-1.972-3.485-3.636-7.142-5.155-10.833c-1.523-3.698-2.666-7.526-3.707-11.354L45,278.034
		l4.514-2.909c0.643-0.41,1.083-0.659,1.596-0.963c0.506-0.307,0.981-0.555,1.469-0.83c0.974-0.549,1.944-1.046,2.912-1.538
		c0.968-0.506,1.948-0.966,2.93-1.408c0.981-0.44,1.951-0.915,2.938-1.326c1.978-0.816,3.937-1.691,5.94-2.409
		c1.985-0.769,3.991-1.478,6.016-2.106l3.027-0.973c1.005-0.332,2.035-0.58,3.053-0.877c1.018-0.284,2.036-0.561,3.057-0.829
		c1.019-0.285,2.047-0.516,3.081-0.737c2.063-0.443,4.11-0.93,6.173-1.335l6.223-1.018c1.031-0.186,2.075-0.308,3.117-0.42
		c1.042-0.122,2.081-0.235,3.123-0.337l3.121-0.32c1.036-0.117,2.088-0.127,3.13-0.196c2.084-0.119,4.17-0.183,6.247-0.276
		c2.085-0.029,4.168,0.028,6.244,0.071c2.077,0.052,4.144,0.042,6.215,0.278c2.066,0.186,4.127,0.344,6.181,0.555
		c2.054,0.143,4.099,0.571,6.13,0.886c2.033,0.336,4.057,0.698,6.071,1.088c-2.051,0.263-4.088,0.505-6.116,0.712l-3.036,0.32
		c-0.506,0.05-1.01,0.087-1.512,0.149l-1.509,0.232c-2.011,0.316-4.012,0.582-6.009,0.873l-1.496,0.214
		c-0.497,0.056-0.994,0.139-1.488,0.239l-2.966,0.56c-1.973,0.393-3.945,0.705-5.901,1.098c-1.952,0.449-3.893,0.924-5.835,1.342
		c-0.967,0.23-1.944,0.398-2.901,0.676l-2.874,0.789c-0.956,0.269-1.911,0.524-2.869,0.771c-0.956,0.244-1.911,0.499-2.85,0.813
		l-5.645,1.775c-1.87,0.614-3.716,1.301-5.568,1.945c-1.864,0.604-3.651,1.432-5.483,2.111c-0.904,0.367-1.826,0.685-2.718,1.085
		l-2.68,1.171c-0.888,0.401-1.792,0.763-2.664,1.19c-0.873,0.425-1.75,0.843-2.625,1.256c-1.771,0.791-3.458,1.722-5.179,2.591
		c-0.858,0.437-1.677,0.929-2.517,1.39l-1.249,0.696l-1.221,0.727c-0.817,0.473-1.631,0.955-2.397,1.448
		c-0.387,0.246-0.799,0.488-1.147,0.734c-0.351,0.234-0.775,0.515-0.979,0.665l3.027-8.365c1.065,3.21,2.257,6.361,3.61,9.427
		c1.389,3.053,2.87,6.058,4.62,8.905c1.717,2.868,3.528,5.679,5.578,8.333c0.485,0.68,1.041,1.313,1.555,1.972l0.787,0.978
		l0.823,0.957c0.556,0.628,1.072,1.292,1.644,1.908l1.698,1.865c2.319,2.44,4.775,4.779,7.346,7c2.559,2.241,5.248,4.354,8.028,6.37
		c2.784,2.005,5.67,3.915,8.622,5.733c2.953,1.821,6.011,3.501,9.105,5.146c3.1,1.634,6.273,3.157,9.495,4.61
		c3.217,1.465,6.49,2.84,9.811,4.125c3.309,1.327,6.667,2.559,10.063,3.701c3.391,1.178,6.815,2.285,10.275,3.316
		c3.449,1.071,6.94,2.021,10.447,2.972c3.509,0.938,7.044,1.816,10.601,2.662l5.351,1.222l5.386,1.153
		C189.537,362.405,193.156,363.122,196.819,363.762z"/>
	<path fill="#99CE75" d="M177.651,279.633c-2.38-2.102-4.562-4.418-6.667-6.795c-2.121-2.377-4.1-4.872-6.021-7.413
		c-1.903-2.559-3.748-5.174-5.46-7.879l-1.301-2.021l-1.227-2.069l-1.221-2.078l-1.168-2.107l-1.155-2.125l-1.078-2.159
		l-1.083-2.167c-0.354-0.728-0.682-1.465-1.023-2.197c-0.661-1.475-1.339-2.947-1.931-4.459c-0.596-1.506-1.255-2.995-1.8-4.53
		c-0.551-1.529-1.089-3.067-1.613-4.612l-1.44-4.688c-0.478-1.565-0.835-3.169-1.243-4.758c-0.426-1.586-0.728-3.205-1.058-4.819
		c-0.331-1.613-0.675-3.228-0.888-4.868c-0.225-1.634-0.509-3.269-0.679-4.916l-0.447-4.959c-0.139-1.657-0.145-3.325-0.206-4.988
		c-0.02-0.833-0.062-1.665-0.063-2.499l0.063-2.501l0.077-2.504c0.021-0.835,0.05-1.671,0.139-2.503l0.464-5.002
		c0.058-0.836,0.227-1.66,0.342-2.49l0.392-2.484l0.403-2.485l0.54-2.456c0.373-1.636,0.736-3.276,1.151-4.902
		c0.984-3.205,1.835-6.461,3.11-9.564c0.604-1.565,1.167-3.143,1.839-4.676l2.112-4.544c0.366-0.749,0.692-1.523,1.093-2.252
		l1.207-2.188l2.439-4.352l3.136-5.587l5.791,2.021l0.829,0.29l0.722,0.265c0.47,0.179,0.931,0.363,1.387,0.55
		c0.907,0.37,1.799,0.749,2.681,1.142c1.761,0.776,3.489,1.596,5.177,2.475c1.698,0.862,3.362,1.774,5.015,2.701l2.453,1.43
		l2.407,1.501l2.373,1.552l2.333,1.599l2.301,1.649c0.759,0.558,1.496,1.151,2.244,1.723c0.749,0.57,1.474,1.176,2.204,1.77
		c0.731,0.592,1.453,1.193,2.164,1.813c1.443,1.205,2.807,2.509,4.18,3.789c1.335,1.324,2.691,2.616,3.966,3.999
		c1.295,1.357,2.511,2.788,3.739,4.195c1.188,1.449,2.384,2.879,3.476,4.4c0.553,0.753,1.117,1.495,1.654,2.253
		c0.529,0.769,1.048,1.541,1.563,2.315c0.527,0.766,1.003,1.563,1.489,2.354c0.479,0.796,0.99,1.566,1.431,2.383
		c0.883,1.635,1.814,3.221,2.582,4.907c0.396,0.834,0.809,1.649,1.179,2.495l1.064,2.543c0.369,0.833,0.673,1.701,0.973,2.568
		c0.31,0.858,0.592,1.731,0.886,2.591c-1.183-1.405-2.263-2.849-3.445-4.213l-1.742-2.051c-0.579-0.684-1.199-1.335-1.79-1.998
		c-1.177-1.336-2.424-2.607-3.645-3.878c-1.263-1.241-2.484-2.503-3.782-3.691l-1.932-1.78c-0.648-0.588-1.315-1.151-1.97-1.729
		c-0.651-0.577-1.314-1.142-1.998-1.682l-2.011-1.658c-1.374-1.064-2.722-2.146-4.138-3.146c-1.371-1.045-2.801-2.019-4.21-3.005
		c-1.438-0.954-2.874-1.895-4.329-2.81c-0.717-0.468-1.449-0.916-2.189-1.354c-0.735-0.441-1.461-0.894-2.213-1.309
		c-1.486-0.854-2.988-1.678-4.482-2.501l-2.27-1.191l-2.292-1.142c-1.54-0.733-3.076-1.464-4.62-2.175
		c-1.554-0.69-3.11-1.364-4.68-1.989c-1.569-0.634-3.146-1.217-4.711-1.788c-0.783-0.282-1.568-0.549-2.342-0.803l-1.149-0.364
		l-0.552-0.167l-0.258-0.074l-0.193-0.054l8.925-3.562l-1.901,3.925l-0.963,1.948c-0.324,0.646-0.565,1.331-0.854,1.994
		l-1.681,3.997c-0.544,1.336-0.955,2.723-1.458,4.07l-0.727,2.034c-0.26,0.67-0.406,1.379-0.618,2.065l-1.207,4.141
		c-0.349,1.396-0.63,2.807-0.97,4.205l-0.485,2.099l-0.354,2.131c-0.217,1.419-0.531,2.826-0.706,4.256l-0.502,4.296
		c-0.104,0.714-0.152,1.435-0.191,2.157l-0.138,2.164l-0.152,2.165c-0.032,0.722-0.026,1.447-0.043,2.174l-0.032,2.175
		c-0.007,0.726-0.058,1.456-0.019,2.183l0.125,4.37c0.043,1.456,0.198,2.918,0.286,4.379c0.064,0.729,0.072,1.465,0.162,2.192
		l0.242,2.192c0.259,2.933,0.792,5.842,1.227,8.777l0.803,4.385l0.958,4.372c0.664,2.918,1.387,5.834,2.232,8.729
		c0.201,0.725,0.388,1.457,0.599,2.18l0.665,2.171l0.665,2.173l0.72,2.16l0.707,2.172l0.765,2.152
		c0.506,1.44,1.028,2.874,1.573,4.31c0.522,1.442,1.09,2.863,1.669,4.289c0.539,1.443,1.151,2.855,1.737,4.284l1.836,4.265
		l1.926,4.252C174.845,273.997,176.191,276.822,177.651,279.633z"/>
	<path fill="#99CE75" d="M114.583,407.815c-1.775-0.034-3.528-0.246-5.256-0.525c-1.731-0.276-3.45-0.621-5.141-1.053
		c-1.707-0.4-3.371-0.909-5.043-1.433c-1.656-0.545-3.304-1.13-4.93-1.771c-1.61-0.67-3.24-1.327-4.817-2.086
		c-0.799-0.367-1.583-0.754-2.362-1.157c-0.786-0.397-1.569-0.795-2.33-1.229c-1.55-0.833-3.056-1.746-4.56-2.672
		c-1.486-0.954-2.962-1.924-4.399-2.967c-1.446-1.023-2.846-2.128-4.231-3.239c-1.374-1.137-2.727-2.299-4.033-3.527
		c-1.327-1.203-2.575-2.499-3.826-3.788c-1.223-1.327-2.432-2.66-3.572-4.065c-1.153-1.391-2.244-2.845-3.304-4.313
		c-0.532-0.737-1.031-1.504-1.531-2.262c-0.5-0.761-0.999-1.517-1.453-2.313l-1.378-2.364c-0.435-0.801-0.846-1.62-1.261-2.436
		l-0.616-1.221l-0.56-1.252l-1.095-2.516l-2.107-4.839l3.092-3.161c0.676-0.691,1.271-1.261,1.9-1.874
		c0.628-0.593,1.262-1.183,1.898-1.76c1.274-1.151,2.566-2.276,3.903-3.361c0.66-0.549,1.326-1.084,2.016-1.61
		c0.678-0.529,1.354-1.055,2.054-1.562c1.382-1.026,2.822-1.99,4.258-2.949c0.705-0.491,1.471-0.922,2.206-1.377
		c0.747-0.447,1.469-0.91,2.249-1.323l2.302-1.237c0.779-0.399,1.586-0.752,2.374-1.129c0.775-0.384,1.613-0.701,2.429-1.02
		l1.221-0.478c0.406-0.153,0.844-0.271,1.264-0.404c0.843-0.262,1.666-0.532,2.535-0.717c0.865-0.186,1.729-0.342,2.588-0.476
		c-0.585,0.673-1.159,1.313-1.733,1.936c-0.292,0.295-0.561,0.63-0.832,0.958l-0.818,0.953c-0.547,0.624-1.072,1.271-1.592,1.914
		c-0.514,0.655-1.049,1.258-1.552,1.917c-0.51,0.645-1,1.304-1.518,1.92l-1.487,1.944c-1,1.273-1.972,2.575-2.942,3.867l-1.46,1.928
		c-0.477,0.654-0.952,1.311-1.439,1.944l-2.875,3.871l-2.854,3.855l-1.41,1.92c-0.459,0.626-0.952,1.293-1.34,1.864l0.984-8.001
		l1.201,1.929l0.589,0.963l0.631,0.942l1.245,1.892l1.309,1.847c0.414,0.631,0.875,1.232,1.331,1.835
		c0.463,0.598,0.88,1.226,1.354,1.82c0.956,1.183,1.847,2.405,2.846,3.56c0.932,1.199,1.977,2.32,2.951,3.5l1.539,1.71
		c0.499,0.587,1.027,1.148,1.558,1.706c0.535,0.555,1.033,1.142,1.581,1.695c0.542,0.55,1.079,1.11,1.61,1.678
		c1.104,1.096,2.174,2.237,3.313,3.316c1.1,1.116,2.254,2.185,3.389,3.295l3.487,3.248l3.566,3.24
		c1.204,1.077,2.399,2.185,3.637,3.241c1.227,1.08,2.456,2.165,3.712,3.241c1.24,1.096,2.509,2.168,3.773,3.272l3.848,3.313
		C111.956,405.508,113.254,406.646,114.583,407.815z"/>
	<path fill="#99CE75" d="M104.391,262.938c-1.46-1.248-2.78-2.64-4.034-4.077c-0.637-0.715-1.245-1.45-1.831-2.199
		c-0.597-0.747-1.183-1.502-1.732-2.277c-0.563-0.771-1.113-1.552-1.647-2.344l-1.555-2.405c-1.011-1.626-1.939-3.294-2.86-4.977
		l-1.287-2.568c-0.408-0.865-0.834-1.73-1.228-2.606c-0.771-1.76-1.512-3.541-2.177-5.349c-0.664-1.813-1.284-3.644-1.832-5.5
		c-0.263-0.931-0.553-1.859-0.79-2.8l-0.698-2.827c-0.407-1.9-0.821-3.805-1.105-5.738c-0.339-1.921-0.541-3.866-0.757-5.816
		c-0.094-0.974-0.142-1.953-0.213-2.933c-0.075-0.977-0.125-1.959-0.129-2.94c-0.015-0.982-0.05-1.964-0.043-2.947l0.081-2.954
		c0.016-0.982,0.095-1.967,0.177-2.949c0.089-0.983,0.137-1.968,0.259-2.946c0.264-1.956,0.464-3.917,0.869-5.856
		c0.189-0.968,0.339-1.943,0.563-2.903l0.698-2.88c0.215-0.962,0.51-1.902,0.794-2.849c0.282-0.946,0.57-1.887,0.87-2.825
		l1.613-5.061l4.521-0.406c1.11-0.1,2.078-0.172,3.109-0.227c1.01-0.048,2.021-0.111,3.026-0.134
		c2.017-0.064,4.028-0.087,6.043-0.054c1.007,0.022,2.014,0.038,3.021,0.082c1.011,0.052,2.014,0.085,3.022,0.154l3.021,0.233
		l3.021,0.338c1.003,0.1,2.015,0.252,3.018,0.413c1.006,0.163,2.005,0.307,3.007,0.508c1.004,0.192,2,0.408,2.992,0.617
		c0.999,0.235,1.99,0.489,2.977,0.76c0.983,0.247,1.971,0.57,2.941,0.893c0.973,0.323,1.939,0.632,2.892,1.053
		c0.952,0.401,1.898,0.753,2.814,1.237c0.917,0.471,1.814,0.968,2.684,1.482c-1.029,0.102-2.035,0.189-3.019,0.253
		c-0.487,0.018-0.985,0.095-1.48,0.154l-1.466,0.156c-0.966,0.095-1.938,0.219-2.901,0.363c-0.965,0.153-1.911,0.222-2.87,0.398
		c-0.958,0.162-1.908,0.306-2.852,0.432l-2.839,0.487c-0.943,0.132-1.888,0.316-2.829,0.486l-2.818,0.5l-5.617,1.051
		c-0.935,0.16-1.868,0.357-2.803,0.533c-0.934,0.165-1.865,0.352-2.796,0.538c-0.932,0.171-1.861,0.353-2.791,0.545
		c-0.93,0.174-1.856,0.354-2.781,0.547l-2.769,0.552l-2.672,0.563l6.133-5.467c-0.265,1.671-0.659,3.303-0.89,4.968
		c-0.267,1.66-0.528,3.311-0.717,4.98c-0.232,1.656-0.373,3.329-0.538,4.993c-0.094,0.833-0.123,1.674-0.188,2.508
		c-0.051,0.837-0.138,1.673-0.155,2.51l-0.108,2.52c-0.034,0.838-0.031,1.682-0.05,2.521c-0.063,1.685,0.007,3.374,0,5.063
		c0.062,1.694,0.081,3.39,0.188,5.09c0.061,1.702,0.218,3.401,0.321,5.112c0.161,1.705,0.288,3.423,0.493,5.138
		c0.074,0.861,0.179,1.719,0.29,2.579c0.105,0.86,0.189,1.728,0.322,2.588c0.22,1.729,0.483,3.457,0.739,5.201
		c0.152,0.864,0.271,1.74,0.405,2.617l0.461,2.616l0.463,2.635c0.165,0.878,0.355,1.75,0.506,2.643l1.079,5.322l0.573,2.687
		l0.596,2.702L104.391,262.938z"/>
	<path fill="#99CE75" d="M343.181,363.762c3.662-0.64,7.28-1.356,10.885-2.091l5.385-1.153l5.351-1.222
		c3.552-0.846,7.089-1.722,10.596-2.66c3.51-0.953,7.002-1.902,10.452-2.974c3.46-1.031,6.882-2.139,10.271-3.315
		c3.4-1.144,6.756-2.375,10.066-3.701c3.321-1.285,6.596-2.661,9.811-4.124c3.223-1.455,6.395-2.981,9.494-4.612
		c3.095-1.641,6.153-3.322,9.104-5.146c2.954-1.821,5.837-3.731,8.624-5.733c2.78-2.014,5.471-4.13,8.028-6.371
		c2.567-2.221,5.025-4.557,7.344-7l1.697-1.865c0.574-0.616,1.088-1.281,1.644-1.908l0.823-0.957l0.788-0.975
		c0.513-0.662,1.069-1.292,1.556-1.972c2.051-2.654,3.856-5.465,5.575-8.333c1.751-2.852,3.236-5.853,4.622-8.908
		c1.354-3.065,2.543-6.217,3.61-9.427l3.025,8.368c-0.203-0.154-0.627-0.431-0.977-0.668c-0.348-0.246-0.763-0.488-1.146-0.734
		c-0.77-0.494-1.579-0.975-2.4-1.448l-1.216-0.725l-1.253-0.698c-0.837-0.464-1.658-0.956-2.515-1.39
		c-1.72-0.867-3.41-1.798-5.179-2.591c-0.88-0.409-1.755-0.831-2.625-1.256c-0.87-0.428-1.776-0.785-2.667-1.188l-2.681-1.171
		c-0.888-0.402-1.812-0.72-2.718-1.087c-1.83-0.68-3.619-1.509-5.485-2.111c-1.851-0.646-3.695-1.331-5.56-1.945l-5.648-1.775
		c-0.941-0.313-1.892-0.568-2.85-0.813c-0.957-0.249-1.914-0.503-2.87-0.771l-2.875-0.789c-0.956-0.278-1.934-0.445-2.903-0.675
		c-1.941-0.419-3.88-0.895-5.832-1.343c-1.957-0.395-3.928-0.706-5.902-1.098l-2.966-0.56c-0.494-0.101-0.993-0.184-1.49-0.239
		l-1.496-0.213c-1.995-0.292-3.996-0.557-6.009-0.874l-1.509-0.232c-0.504-0.062-1.007-0.098-1.513-0.149l-3.037-0.32
		c-2.028-0.208-4.064-0.451-6.118-0.71c2.011-0.391,4.04-0.754,6.07-1.088c2.035-0.315,4.077-0.743,6.131-0.886
		c2.054-0.211,4.11-0.37,6.183-0.556c2.068-0.236,4.136-0.226,6.213-0.278c2.075-0.042,4.162-0.099,6.244-0.07
		c2.076,0.093,4.164,0.155,6.25,0.275c1.041,0.069,2.095,0.08,3.129,0.196l3.118,0.32c1.044,0.101,2.083,0.217,3.125,0.338
		c1.044,0.112,2.085,0.234,3.117,0.42l6.22,1.019c2.064,0.404,4.113,0.893,6.176,1.336c1.032,0.221,2.064,0.451,3.081,0.737
		c1.02,0.268,2.041,0.543,3.055,0.828c1.018,0.297,2.047,0.545,3.055,0.877l3.024,0.972c2.025,0.63,4.036,1.339,6.019,2.107
		c2.005,0.718,3.958,1.593,5.941,2.409c0.988,0.411,1.955,0.887,2.937,1.326c0.979,0.442,1.961,0.902,2.931,1.408
		c0.966,0.492,1.938,0.989,2.91,1.538c0.488,0.278,0.964,0.523,1.469,0.833c0.512,0.301,0.956,0.55,1.596,0.96L495,278.04
		l-1.486,5.46c-1.042,3.828-2.185,7.656-3.71,11.354c-1.52,3.692-3.184,7.348-5.154,10.833c-1.984,3.482-4.147,6.865-6.55,10.066
		c-2.387,3.206-4.958,6.27-7.726,9.134c-2.769,2.854-5.68,5.558-8.696,8.106c-3.057,2.505-6.235,4.827-9.481,7.01
		c-3.233,2.209-6.61,4.164-10.025,6.004c-3.421,1.838-6.88,3.559-10.433,5.055c-3.539,1.512-7.105,2.931-10.716,4.177
		c-3.621,1.226-7.263,2.336-10.923,3.345c-3.67,0.98-7.363,1.836-11.059,2.602c-3.71,0.734-7.427,1.358-11.146,1.892
		c-3.73,0.492-7.453,0.938-11.195,1.221c-3.732,0.296-7.47,0.494-11.201,0.566c-1.869,0.05-3.734,0.047-5.601,0.032
		c-1.865-0.014-3.731-0.071-5.591-0.152C350.585,364.568,346.864,364.299,343.181,363.762z"/>
	<path fill="#99CE75" d="M362.348,279.633c1.457-2.811,2.808-5.636,4.126-8.46l1.927-4.252l1.835-4.265
		c0.587-1.429,1.197-2.841,1.74-4.284c0.576-1.427,1.146-2.849,1.667-4.289c0.544-1.437,1.065-2.869,1.573-4.31l0.768-2.152
		l0.705-2.172l0.724-2.16l0.66-2.173l0.665-2.168c0.213-0.725,0.4-1.456,0.598-2.184c0.85-2.892,1.568-5.81,2.233-8.729l0.961-4.371
		l0.801-4.385c0.435-2.935,0.969-5.843,1.228-8.777l0.24-2.192c0.091-0.728,0.094-1.463,0.162-2.192
		c0.093-1.462,0.241-2.923,0.284-4.379l0.125-4.37c0.042-0.727-0.011-1.455-0.017-2.183l-0.035-2.175
		c-0.015-0.727-0.009-1.45-0.041-2.175l-0.153-2.164l-0.136-2.164c-0.041-0.723-0.088-1.443-0.192-2.157l-0.503-4.296
		c-0.172-1.431-0.488-2.837-0.707-4.256l-0.353-2.131l-0.486-2.1c-0.338-1.397-0.62-2.806-0.969-4.204l-1.205-4.141
		c-0.21-0.687-0.358-1.395-0.619-2.065l-0.727-2.034c-0.505-1.349-0.914-2.735-1.456-4.07l-1.683-3.998
		c-0.284-0.661-0.526-1.347-0.852-1.993l-0.965-1.948l-1.899-3.925l8.926,3.562l-0.192,0.054l-0.259,0.074l-0.554,0.167
		l-1.146,0.364c-0.773,0.254-1.562,0.521-2.342,0.802c-1.567,0.572-3.144,1.155-4.71,1.789c-1.573,0.625-3.126,1.298-4.679,1.989
		c-1.544,0.71-3.082,1.44-4.623,2.175l-2.292,1.14l-2.268,1.192c-1.497,0.824-2.997,1.646-4.485,2.5
		c-0.748,0.414-1.476,0.867-2.212,1.309c-0.738,0.438-1.469,0.887-2.188,1.354c-1.454,0.915-2.892,1.856-4.33,2.81
		c-1.409,0.986-2.839,1.961-4.214,3.006c-1.414,1-2.762,2.081-4.138,3.146l-2.008,1.658c-0.683,0.54-1.347,1.104-2,1.682
		c-0.653,0.578-1.324,1.142-1.969,1.729l-1.932,1.779c-1.295,1.188-2.52,2.45-3.779,3.692c-1.223,1.271-2.472,2.542-3.646,3.877
		c-0.593,0.662-1.212,1.314-1.791,1.998l-1.742,2.051c-1.185,1.365-2.262,2.808-3.445,4.213c0.29-0.86,0.574-1.731,0.883-2.591
		c0.304-0.867,0.607-1.734,0.974-2.568l1.065-2.543c0.367-0.844,0.785-1.659,1.18-2.495c0.771-1.687,1.697-3.272,2.582-4.907
		c0.439-0.816,0.951-1.587,1.428-2.382c0.489-0.792,0.962-1.59,1.491-2.355c0.518-0.773,1.033-1.548,1.566-2.314
		c0.534-0.76,1.101-1.502,1.65-2.254c1.087-1.521,2.29-2.95,3.478-4.399c1.229-1.408,2.445-2.838,3.737-4.195
		c1.271-1.385,2.627-2.677,3.969-4.001c1.373-1.277,2.735-2.581,4.177-3.788c0.71-0.62,1.436-1.22,2.166-1.813
		c0.729-0.595,1.452-1.201,2.204-1.77c0.748-0.571,1.483-1.166,2.244-1.724l2.299-1.649l2.336-1.599l2.371-1.551l2.407-1.502
		l2.453-1.43c1.651-0.927,3.316-1.839,5.014-2.7c1.69-0.879,3.418-1.696,5.179-2.476c0.882-0.393,1.767-0.771,2.68-1.141
		c0.454-0.187,0.913-0.372,1.387-0.55l0.722-0.266l0.83-0.29l5.788-2.021l3.135,5.587l2.442,4.353l1.203,2.188
		c0.403,0.728,0.729,1.504,1.093,2.251l2.114,4.545c0.674,1.532,1.237,3.111,1.839,4.676c1.275,3.102,2.128,6.359,3.111,9.564
		c0.416,1.626,0.777,3.265,1.15,4.901l0.541,2.456l0.403,2.485l0.393,2.484c0.117,0.832,0.281,1.653,0.34,2.49l0.466,5.002
		c0.087,0.833,0.114,1.669,0.136,2.504l0.078,2.503l0.063,2.502c-0.002,0.833-0.039,1.667-0.061,2.499
		c-0.064,1.662-0.068,3.331-0.21,4.987l-0.445,4.959c-0.171,1.648-0.457,3.282-0.68,4.917c-0.214,1.64-0.557,3.253-0.889,4.867
		c-0.328,1.615-0.635,3.233-1.06,4.82c-0.403,1.588-0.763,3.191-1.241,4.758l-1.441,4.688c-0.524,1.544-1.065,3.082-1.616,4.611
		c-0.54,1.534-1.201,3.024-1.795,4.53c-0.59,1.512-1.269,2.984-1.934,4.459c-0.342,0.732-0.668,1.47-1.023,2.196l-1.081,2.168
		l-1.08,2.16l-1.152,2.124l-1.168,2.108l-1.223,2.076l-1.227,2.07l-1.301,2.021c-1.709,2.705-3.555,5.322-5.459,7.879
		c-1.926,2.543-3.903,5.036-6.021,7.414C366.909,275.215,364.73,277.531,362.348,279.633z"/>
	<path fill="#99CE75" d="M425.415,407.815c1.328-1.169,2.625-2.308,3.924-3.418l3.846-3.313c1.265-1.104,2.532-2.178,3.774-3.273
		c1.258-1.075,2.488-2.163,3.711-3.239c1.239-1.063,2.438-2.171,3.639-3.243l3.567-3.24l3.485-3.247
		c1.132-1.11,2.288-2.179,3.389-3.296c1.141-1.078,2.206-2.221,3.311-3.314c0.53-0.568,1.068-1.13,1.61-1.679
		c0.548-0.551,1.047-1.141,1.582-1.696c0.53-0.558,1.057-1.123,1.557-1.706l1.538-1.708c0.975-1.182,2.019-2.305,2.949-3.502
		c1.004-1.153,1.893-2.377,2.849-3.56c0.471-0.591,0.893-1.22,1.353-1.818c0.46-0.604,0.92-1.206,1.33-1.836l1.313-1.848
		l1.243-1.891l0.63-0.943l0.59-0.963l1.201-1.929l0.984,8.001c-0.389-0.569-0.882-1.237-1.337-1.862l-1.409-1.92l-2.854-3.856
		l-2.877-3.872c-0.488-0.636-0.96-1.289-1.437-1.944l-1.463-1.927c-0.969-1.291-1.943-2.594-2.939-3.868l-1.487-1.944
		c-0.521-0.615-1.011-1.273-1.519-1.92c-0.506-0.659-1.036-1.261-1.554-1.917c-0.522-0.642-1.047-1.289-1.591-1.914l-0.818-0.951
		c-0.274-0.332-0.539-0.665-0.834-0.96c-0.575-0.621-1.15-1.261-1.733-1.935c0.859,0.134,1.722,0.291,2.588,0.476
		c0.867,0.186,1.69,0.459,2.536,0.716c0.415,0.136,0.853,0.252,1.262,0.405l1.221,0.477c0.815,0.318,1.65,0.638,2.429,1.02
		c0.786,0.377,1.593,0.731,2.374,1.129l2.304,1.237c0.778,0.409,1.503,0.878,2.248,1.324c0.736,0.454,1.504,0.885,2.206,1.377
		c1.438,0.958,2.876,1.923,4.257,2.949c0.704,0.506,1.378,1.03,2.057,1.562c0.688,0.526,1.354,1.061,2.015,1.61
		c1.336,1.084,2.629,2.209,3.906,3.362c0.636,0.575,1.268,1.165,1.894,1.758c0.633,0.613,1.226,1.183,1.902,1.874l3.091,3.162
		l-2.106,4.839l-1.096,2.515l-0.561,1.252l-0.616,1.221c-0.409,0.815-0.822,1.635-1.261,2.438l-1.376,2.362
		c-0.457,0.795-0.956,1.553-1.454,2.313c-0.501,0.759-1.002,1.523-1.528,2.261c-1.063,1.469-2.152,2.923-3.305,4.313
		c-1.141,1.405-2.352,2.741-3.572,4.065c-1.255,1.29-2.499,2.585-3.826,3.788c-1.307,1.229-2.66,2.392-4.034,3.527
		c-1.39,1.115-2.788,2.215-4.23,3.24c-1.44,1.044-2.915,2.014-4.4,2.967c-1.504,0.925-3.009,1.834-4.559,2.673
		c-0.767,0.434-1.547,0.834-2.332,1.228c-0.775,0.404-1.564,0.789-2.364,1.156c-1.572,0.762-3.205,1.417-4.818,2.088
		c-1.623,0.642-3.272,1.225-4.928,1.771c-1.673,0.522-3.336,1.031-5.04,1.432c-1.691,0.431-3.412,0.776-5.146,1.054
		C428.942,407.569,427.19,407.78,425.415,407.815z"/>
	<path fill="#99CE75" d="M435.604,262.938l1.264-5.495l0.597-2.702l0.572-2.687l1.08-5.322c0.15-0.894,0.339-1.765,0.503-2.643
		l0.466-2.636l0.458-2.615c0.139-0.877,0.259-1.753,0.406-2.617c0.258-1.744,0.521-3.472,0.737-5.201
		c0.137-0.86,0.217-1.728,0.324-2.588c0.112-0.86,0.218-1.719,0.292-2.579c0.202-1.715,0.332-3.431,0.491-5.138
		c0.105-1.712,0.264-3.411,0.321-5.112c0.109-1.7,0.127-3.397,0.188-5.09c-0.005-1.688,0.064-3.378,0-5.063
		c-0.017-0.839-0.014-1.684-0.047-2.521l-0.107-2.519c-0.021-0.838-0.108-1.674-0.154-2.51c-0.066-0.834-0.095-1.676-0.191-2.508
		c-0.163-1.664-0.304-3.337-0.536-4.993c-0.188-1.67-0.452-3.321-0.716-4.98c-0.226-1.665-0.621-3.298-0.888-4.969l6.135,5.468
		l-2.675-0.563l-2.769-0.552c-0.926-0.193-1.853-0.373-2.783-0.547c-0.928-0.192-1.857-0.374-2.792-0.545
		c-0.931-0.187-1.861-0.373-2.796-0.538c-0.933-0.176-1.867-0.373-2.803-0.534l-5.62-1.051l-2.815-0.499
		c-0.944-0.17-1.886-0.354-2.828-0.487l-2.841-0.486c-0.945-0.126-1.896-0.27-2.854-0.432c-0.959-0.174-1.904-0.245-2.87-0.398
		c-0.966-0.145-1.936-0.269-2.903-0.363l-1.466-0.156c-0.491-0.06-0.988-0.139-1.48-0.154c-0.982-0.063-1.986-0.151-3.016-0.253
		c0.872-0.515,1.767-1.012,2.685-1.482c0.92-0.484,1.864-0.833,2.816-1.238c0.95-0.42,1.919-0.729,2.891-1.052
		c0.971-0.322,1.957-0.646,2.94-0.893c0.985-0.271,1.978-0.524,2.975-0.76c0.998-0.209,1.992-0.425,2.994-0.617
		c1.005-0.201,2.006-0.343,3.007-0.508c1.004-0.161,2.012-0.313,3.015-0.413l3.023-0.338l3.02-0.233
		c1.013-0.072,2.013-0.104,3.021-0.155c1.013-0.043,2.016-0.062,3.021-0.083c2.016-0.031,4.031-0.011,6.043,0.055
		c1.011,0.022,2.019,0.086,3.029,0.134c1.027,0.054,1.998,0.127,3.111,0.226l4.521,0.407l1.613,5.06
		c0.298,0.939,0.587,1.881,0.87,2.825c0.283,0.946,0.583,1.886,0.794,2.85l0.697,2.88c0.225,0.959,0.375,1.935,0.564,2.906
		c0.402,1.937,0.604,3.897,0.869,5.854c0.121,0.978,0.172,1.962,0.259,2.945c0.079,0.983,0.163,1.968,0.175,2.949l0.083,2.955
		c0.005,0.983-0.029,1.964-0.044,2.947c-0.006,0.981-0.054,1.963-0.13,2.939c-0.068,0.98-0.117,1.959-0.214,2.934
		c-0.216,1.948-0.416,3.895-0.755,5.816c-0.285,1.934-0.699,3.837-1.107,5.737l-0.698,2.828c-0.234,0.939-0.524,1.868-0.786,2.8
		c-0.547,1.856-1.168,3.686-1.836,5.499c-0.664,1.81-1.401,3.589-2.172,5.349c-0.397,0.877-0.822,1.741-1.228,2.607l-1.292,2.568
		c-0.92,1.684-1.848,3.352-2.858,4.976l-1.555,2.406c-0.534,0.791-1.081,1.573-1.649,2.344c-0.546,0.775-1.138,1.53-1.733,2.275
		c-0.587,0.75-1.193,1.486-1.828,2.201C438.386,260.298,437.067,261.689,435.604,262.938z"/>
	<path fill="#99CE75" d="M271.293,420.19c1.386-1.399,2.841-2.727,4.329-4.014c1.486-1.292,3.002-2.561,4.534-3.799
		c3.094-2.458,6.28-4.803,9.559-7.026c3.271-2.244,6.653-4.325,10.09-6.334c3.446-1.996,6.981-3.855,10.575-5.609
		c3.608-1.739,7.292-3.336,11.037-4.811c3.75-1.465,7.578-2.761,11.461-3.923c3.884-1.168,7.848-2.104,11.855-2.902
		c4.004-0.79,8.061-1.423,12.164-1.787c4.102-0.373,8.233-0.55,12.381-0.52c4.146,0.045,8.301,0.384,12.44,0.898
		c2.07,0.242,4.13,0.604,6.194,0.952c2.046,0.425,4.102,0.834,6.124,1.378c2.04,0.482,4.04,1.11,6.052,1.697
		c1.986,0.669,3.987,1.301,5.939,2.067c1.978,0.708,3.888,1.574,5.814,2.399c0.954,0.435,1.893,0.894,2.839,1.348l1.417,0.676
		l1.39,0.731c3.734,1.89,7.302,4.079,10.81,6.336c1.698,1.203,3.458,2.34,5.093,3.614l2.493,1.874l2.418,1.957
		c3.229,2.608,6.289,5.387,9.256,8.255l6.726,6.494l-7.281,5.659l-0.734,0.569l-0.653,0.494c-0.424,0.31-0.854,0.637-1.275,0.929
		c-0.844,0.602-1.691,1.188-2.535,1.746c-1.696,1.143-3.396,2.221-5.121,3.256c-0.855,0.532-1.728,1.032-2.597,1.532
		c-0.868,0.5-1.736,1.009-2.622,1.478l-2.64,1.426l-2.684,1.339c-1.778,0.91-3.614,1.694-5.421,2.544
		c-1.832,0.789-3.67,1.576-5.519,2.325c-1.866,0.702-3.71,1.469-5.597,2.113l-2.833,0.96l-1.417,0.473l-1.433,0.427
		c-3.81,1.175-7.671,2.191-11.558,3.07c-1.951,0.403-3.896,0.854-5.862,1.177c-1.97,0.31-3.934,0.645-5.899,0.929l-5.939,0.682
		c-1.979,0.189-3.971,0.284-5.954,0.402l-1.486,0.09c-0.496,0.022-0.998,0.02-1.495,0.025l-2.981,0.03l-2.979,0.032l-2.977-0.118
		l-2.973-0.122l-1.484-0.072l-1.48-0.15l-5.908-0.597c-3.912-0.603-7.829-1.089-11.664-2.038l-2.883-0.638l-1.438-0.318
		l-1.423-0.396c-1.893-0.523-3.783-1.055-5.663-1.604c-0.948-0.251-1.87-0.587-2.793-0.909l-2.77-0.97
		c-1.839-0.662-3.702-1.238-5.48-2.055l-5.375-2.281c-0.904-0.36-1.772-0.794-2.645-1.228l-2.605-1.303l-2.594-1.306
		c-0.867-0.429-1.729-0.857-2.56-1.361l-5.009-2.912c-0.831-0.491-1.667-0.958-2.484-1.472l-2.4-1.602l-4.776-3.218
		c-0.798-0.528-1.553-1.125-2.313-1.712l-2.275-1.755C274.281,422.556,272.78,421.379,271.293,420.19
		c3.491,1.577,6.842,3.351,10.309,4.881l5.208,2.24l2.588,1.126c0.87,0.357,1.761,0.67,2.638,1.008l5.259,1.992
		c0.861,0.356,1.758,0.643,2.648,0.92l2.666,0.855l2.658,0.862c0.882,0.298,1.76,0.591,2.669,0.813l5.374,1.445
		c1.773,0.521,3.597,0.864,5.397,1.264l2.698,0.587c0.9,0.198,1.795,0.403,2.712,0.524c1.818,0.283,3.627,0.583,5.433,0.89
		l1.356,0.218l1.367,0.152l2.729,0.299l2.721,0.301c0.903,0.121,1.823,0.11,2.732,0.188c1.82,0.106,3.635,0.245,5.449,0.331
		l5.451,0.052l1.359,0.012l1.358-0.06l2.719-0.099l2.709-0.092l2.706-0.233l2.699-0.229c0.45-0.04,0.897-0.066,1.348-0.121
		l1.343-0.181c1.788-0.265,3.58-0.449,5.363-0.722l5.328-0.928l5.281-1.154c0.883-0.176,1.748-0.437,2.621-0.662l2.613-0.671
		c3.479-0.945,6.916-2.005,10.31-3.209c3.392-1.203,6.738-2.527,10.051-3.919c1.646-0.716,3.283-1.468,4.911-2.221
		c1.602-0.81,3.242-1.547,4.816-2.409c3.187-1.649,6.307-3.416,9.346-5.272c1.514-0.934,3.008-1.896,4.455-2.889
		c0.728-0.491,1.44-0.991,2.134-1.497c0.356-0.252,0.679-0.503,1.019-0.752l0.477-0.367l0.391-0.304l-0.556,12.152
		c-1.358-1.237-2.657-2.547-4.024-3.771c-1.376-1.208-2.718-2.46-4.149-3.6l-2.121-1.746l-2.173-1.658
		c-1.425-1.138-2.949-2.13-4.424-3.196c-3.013-2.024-6.052-4.021-9.242-5.729l-1.184-0.662l-1.206-0.615
		c-0.809-0.405-1.609-0.827-2.42-1.224c-1.643-0.749-3.271-1.538-4.941-2.224c-1.649-0.737-3.352-1.344-5.037-1.998
		c-1.712-0.573-3.413-1.195-5.152-1.677c-3.467-1.035-6.991-1.902-10.568-2.562c-3.573-0.659-7.19-1.168-10.843-1.426
		c-3.648-0.301-7.328-0.422-11.023-0.364c-3.69,0.075-7.397,0.307-11.105,0.686c-3.709,0.382-7.412,0.957-11.113,1.622
		c-3.698,0.68-7.381,1.529-11.051,2.488c-3.67,0.943-7.32,2.032-10.946,3.238c-7.259,2.378-14.409,5.245-21.451,8.451
		c-3.509,1.625-7.004,3.313-10.455,5.124C278.048,416.237,274.651,418.151,271.293,420.19z"/>
	<path fill="#3B9A47" d="M268.634,86.149c2.943,2.159,5.693,4.588,8.384,7.078c2.693,2.493,5.243,5.147,7.713,7.893
		c4.898,5.519,9.359,11.501,13.15,17.996c1.873,3.252,3.591,6.631,5.086,10.133c1.492,3.506,2.741,7.142,3.72,10.889
		c1.968,7.483,2.669,15.472,1.812,23.409c-0.896,7.929-3.36,15.727-7.072,22.768c-1.832,3.542-3.981,6.881-6.319,10.054
		c-1.141,1.61-2.397,3.113-3.639,4.635c-1.305,1.449-2.568,2.958-3.938,4.33c-2.672,2.845-5.543,5.429-8.447,7.971
		c-2.942,2.474-5.976,4.835-9.092,7.026l-4.438,3.154l-2.215,1.577c-0.723,0.525-1.521,1.058-2.16,1.576l-4.026,3.113
		c-1.346,1.028-2.662,2.189-3.992,3.276c-5.281,4.453-10.23,9.236-14.79,14.296c-4.523,5.089-8.598,10.515-12.072,16.231
		c-3.506,5.696-6.385,11.715-8.447,17.949c-2.075,6.225-3.389,12.661-3.716,19.155c-0.327,6.488,0.186,13.028,1.682,19.419
		c1.503,6.384,3.794,12.652,6.897,18.61c3.11,5.946,6.785,11.712,11.151,17.038c4.318,5.358,9.13,10.395,14.249,15.186l-7.587,0.521
		c0.155-0.146,0.449-0.476,0.688-0.735c0.252-0.267,0.506-0.59,0.762-0.885c0.521-0.587,1.015-1.225,1.514-1.865
		c0.508-0.622,0.987-1.284,1.467-1.947c0.476-0.661,0.982-1.306,1.427-2.003c0.919-1.371,1.851-2.733,2.707-4.16l1.316-2.119
		l1.224-2.181l1.226-2.19l1.129-2.249l1.13-2.253c0.386-0.749,0.702-1.524,1.054-2.293l1.039-2.307l0.522-1.154
		c0.164-0.387,0.311-0.786,0.463-1.177l1.851-4.73c0.58-1.593,1.093-3.212,1.646-4.822c0.268-0.807,0.553-1.613,0.806-2.423
		l0.681-2.467c0.464-1.643,0.95-3.284,1.389-4.945l1.128-5.021l0.58-2.517c0.16-0.84,0.294-1.693,0.441-2.543l0.898-5.107
		c0.173-0.854,0.278-1.712,0.373-2.569l0.307-2.582c0.197-1.727,0.431-3.452,0.653-5.19c0.12,1.735,0.254,3.479,0.345,5.221
		l0.155,2.622c0.057,0.876,0.104,1.756,0.087,2.626c-0.003,1.752,0.006,3.504-0.021,5.265c-0.012,0.882-0.007,1.762-0.034,2.641
		l-0.179,2.634l-0.39,5.288c-0.2,1.755-0.454,3.502-0.679,5.263l-0.366,2.637c-0.148,0.873-0.335,1.741-0.499,2.617
		c-0.348,1.739-0.663,3.492-1.044,5.236l-1.332,5.184c-0.114,0.432-0.218,0.868-0.343,1.296l-0.4,1.28l-0.802,2.565
		c-0.279,0.853-0.52,1.717-0.829,2.561l-0.945,2.522l-0.952,2.527l-1.065,2.492l-1.071,2.492l-1.186,2.449
		c-0.757,1.649-1.646,3.238-2.521,4.843c-0.422,0.809-0.918,1.585-1.385,2.375c-0.466,0.793-0.94,1.581-1.458,2.358
		c-0.506,0.779-1.007,1.562-1.564,2.339c-0.28,0.391-0.527,0.771-0.838,1.171c-0.313,0.405-0.558,0.758-0.98,1.261l-3.27,3.915
		l-4.317-3.392c-5.914-4.645-11.567-9.708-16.787-15.295l-3.798-4.312l-3.575-4.539c-2.289-3.108-4.52-6.292-6.446-9.687
		c-3.914-6.743-7.151-14.018-9.202-21.706c-2.063-7.677-3.107-15.712-2.843-23.721c0.244-8.01,1.637-15.967,4.063-23.536
		c2.437-7.564,5.83-14.742,9.877-21.432c4.081-6.68,8.833-12.849,13.988-18.573l3.972-4.185c1.348-1.368,2.766-2.651,4.148-3.979
		c1.366-1.348,2.837-2.561,4.271-3.818l2.163-1.876c0.726-0.617,1.483-1.19,2.222-1.789c1.503-1.176,2.942-2.382,4.502-3.526
		l4.699-3.402c0.8-0.589,1.53-1.034,2.296-1.549l2.27-1.504l4.551-2.992c2.897-1.867,5.641-3.917,8.376-5.957
		c2.665-2.112,5.311-4.257,7.728-6.592c1.259-1.135,2.384-2.364,3.572-3.549c1.104-1.248,2.274-2.445,3.308-3.738
		c2.137-2.543,4.106-5.208,5.792-8.016c1.695-2.808,3.182-5.721,4.405-8.746c1.21-3.023,2.144-6.163,2.767-9.378
		c0.638-3.215,0.984-6.506,1.02-9.835c0.031-3.328-0.226-6.688-0.724-10.048c-0.503-3.36-1.282-6.708-2.268-10.023
		c-0.978-3.319-2.179-6.603-3.563-9.835c-1.369-3.235-2.919-6.419-4.622-9.539c-1.7-3.123-3.519-6.204-5.49-9.201
		C277.817,97.401,273.491,91.581,268.634,86.149z"/>
	<path fill="#3B9A47" d="M167.629,376.527c-2.967,1.142-5.854,2.46-8.72,3.805c-2.861,1.362-5.671,2.814-8.438,4.334
		c-1.382,0.767-2.753,1.541-4.124,2.322c-1.367,0.785-2.718,1.592-4.063,2.414c-1.335,0.83-2.674,1.657-3.983,2.524
		c-1.325,0.849-2.616,1.74-3.913,2.622c-1.285,0.902-2.563,1.808-3.823,2.744c-1.269,0.914-2.498,1.883-3.738,2.834
		c-1.222,0.976-2.461,1.926-3.655,2.929c-1.209,0.983-2.387,2.007-3.562,3.03c-1.17,1.026-2.318,2.073-3.455,3.132
		c-1.126,1.075-2.255,2.137-3.343,3.238c-1.108,1.084-2.178,2.206-3.24,3.33c-1.072,1.11-2.076,2.292-3.117,3.427l-0.354-5.482
		c0.485,0.354,1.119,0.793,1.704,1.183c0.598,0.402,1.206,0.796,1.822,1.188c1.23,0.779,2.481,1.536,3.75,2.273
		c2.53,1.478,5.115,2.88,7.741,4.196c5.255,2.628,10.678,4.912,16.18,6.928c5.514,1.986,11.126,3.663,16.809,4.961
		c5.676,1.327,11.418,2.325,17.189,2.921c11.538,1.202,23.171,1.009,34.569-0.737c11.407-1.673,22.563-4.863,33.243-9.26
		c10.702-4.349,20.916-9.945,30.6-16.398l3.061-2.416l3.299-2.724c2.209-1.884,4.393-3.801,6.511-5.778
		c4.243-3.947,8.27-8.108,12.081-12.431c3.817-4.313,7.376-8.836,10.641-13.539c3.257-4.703,6.254-9.575,8.839-14.629
		c2.618-5.038,4.925-10.22,6.749-15.55l0.686-1.997l0.618-2.014c0.437-1.337,0.764-2.702,1.148-4.05
		c0.668-2.721,1.305-5.454,1.747-8.208c0.959-5.504,1.414-11.073,1.39-16.635c-0.063-5.557-0.61-11.105-1.709-16.563
		c-2.148-10.915-6.355-21.463-12.276-31.111c-2.936-4.837-6.258-9.481-9.903-13.894c-3.659-4.413-7.664-8.568-11.875-12.54
		c-4.222-3.97-8.69-7.709-13.353-11.237c-1.18-0.865-2.328-1.771-3.535-2.606l-3.687-2.617c-1.235-0.9-2.438-1.741-3.705-2.688
		c-1.274-0.987-2.575-1.958-3.821-2.958c-4.939-3.967-9.646-8.305-13.906-13.114c-2.15-2.379-4.12-4.949-6.02-7.558
		c-1.829-2.673-3.608-5.388-5.104-8.285l-0.579-1.072l-0.53-1.102c-0.347-0.737-0.716-1.463-1.045-2.209
		c-0.629-1.511-1.271-3.004-1.796-4.557c-1.088-3.073-1.975-6.228-2.554-9.439c-0.591-3.201-0.956-6.445-1.041-9.685
		c-0.063-3.239,0.118-6.465,0.521-9.644c0.783-6.37,2.545-12.517,4.901-18.327c2.339-5.822,5.335-11.305,8.727-16.46
		c3.399-5.153,7.146-10.036,11.249-14.575c2.057-2.264,4.167-4.468,6.363-6.577c2.188-2.122,4.458-4.159,6.836-6.045
		c-4.17,4.406-7.981,9.111-11.471,14.014c-3.489,4.898-6.701,9.97-9.444,15.259c-2.748,5.277-5.049,10.752-6.769,16.344
		c-1.7,5.593-2.812,11.32-3.073,17.025c-0.134,2.852-0.065,5.697,0.212,8.501c0.294,2.809,0.794,5.58,1.498,8.288
		c0.685,2.715,1.636,5.354,2.752,7.916c1.097,2.567,2.431,5.038,3.889,7.432c1.432,2.407,3.131,4.668,4.857,6.896
		c1.805,2.177,3.654,4.321,5.698,6.313c4.015,4.04,8.425,7.74,13.114,11.115c1.16,0.833,2.331,1.611,3.492,2.428
		c1.198,0.809,2.525,1.634,3.78,2.454l3.837,2.477c1.324,0.833,2.594,1.753,3.893,2.627c5.158,3.565,10.154,7.402,14.941,11.538
		c9.552,8.273,18.207,17.836,25.231,28.675c3.509,5.416,6.561,11.167,9.103,17.163c2.559,5.985,4.554,12.245,5.943,18.649
		c1.389,6.405,2.129,12.951,2.29,19.503c0.114,6.546-0.288,13.106-1.377,19.546c-0.507,3.224-1.223,6.403-1.993,9.564
		c-0.431,1.569-0.814,3.149-1.306,4.696l-0.707,2.33l-0.773,2.302c-2.074,6.145-4.674,12.071-7.617,17.797
		c-2.964,5.712-6.353,11.169-10.016,16.402c-3.665,5.229-7.634,10.219-11.87,14.958c-4.229,4.732-8.729,9.2-13.413,13.444
		c-2.336,2.123-4.734,4.17-7.165,6.18l-3.747,3.007l-1.804,1.382l-0.899,0.692l-0.451,0.343l-0.116,0.088
		c0.423-0.296-0.696,0.504-0.627,0.45l-0.252,0.153c-10.599,6.78-21.893,12.599-33.743,17.111
		c-11.867,4.441-24.283,7.59-36.918,8.96c-12.624,1.375-25.424,1.144-37.897-0.855c-3.117-0.484-6.222-1.078-9.296-1.767
		c-3.075-0.677-6.124-1.466-9.141-2.347c-6.034-1.762-11.937-3.919-17.685-6.389c-5.749-2.475-11.319-5.333-16.699-8.492
		c-2.69-1.583-5.33-3.255-7.916-5.02c-1.292-0.879-2.562-1.801-3.823-2.739c-0.63-0.473-1.257-0.952-1.879-1.444
		c-0.64-0.506-1.217-0.972-1.915-1.565l-3.246-2.766l2.892-2.715c1.19-1.121,2.344-2.275,3.562-3.36
		c1.208-1.096,2.419-2.186,3.665-3.227c1.225-1.072,2.507-2.073,3.774-3.091c1.275-1.001,2.563-1.983,3.868-2.949
		c1.313-0.951,2.62-1.902,3.957-2.811c1.323-0.931,2.684-1.805,4.032-2.689c1.374-0.85,2.73-1.72,4.125-2.529
		c1.38-0.835,2.781-1.625,4.184-2.412c1.41-0.771,2.817-1.554,4.248-2.281c1.42-0.753,2.863-1.457,4.3-2.167
		c2.888-1.392,5.799-2.733,8.767-3.931c2.962-1.21,5.953-2.342,8.975-3.371C161.484,378.21,164.534,377.271,167.629,376.527z"/>
</g>
</svg>
