<?xml version="1.0" encoding="utf-8"?>
<!-- Generator: Adobe Illustrator 16.0.0, SVG Export Plug-In . SVG Version: 6.00 Build 0)  -->
<!DOCTYPE svg PUBLIC "-//W3C//DTD SVG 1.1//EN" "http://www.w3.org/Graphics/SVG/1.1/DTD/svg11.dtd">
<svg version="1.1" id="Layer_1" xmlns="http://www.w3.org/2000/svg" xmlns:xlink="http://www.w3.org/1999/xlink" x="0px" y="0px"
	 width="540px" height="540px" viewBox="0 0 540 540" enable-background="new 0 0 540 540" xml:space="preserve">
<g>
	<g>
		<g>
			<g>
				<g>
					<path fill="#004218" d="M264.8,254.383c60.068-30.602,39.533-85.753,4.367-98.827c-18.157-6.76-31.353-2.778-44.085,1.07
						c-29.208,11.815-58.018,25.998-84.471,42.049c-37.581,22.83-64.791,46.079-80.392,66.973
						c-5.581,7.475-9.675,14.666-12.206,21.427c-0.412,1.152-0.721,2.381-0.985,3.66c0-0.002,0.001-0.002,0-0.004
						c-0.005,0.027-0.01,0.062-0.018,0.091c0.009-0.029,0.013-0.06,0.018-0.087c-1.262,4.22-1.873,8.244-1.831,12.063
						c0.279-1.02,0.802-1.16,1.077-1.185l0.587,0.157c1.893,0.742,1.488,0.34-0.587-0.157c-0.628,0.235-0.907,0.663-1.08,1.254
						c0-0.024,0.003-0.047,0.003-0.071c-0.011,0.032-0.022,0.068-0.029,0.102c-0.026,0.098-0.074,0.215-0.089,0.321
						c-0.084,0.572-0.113,1.313-0.023,2.382l0.06,0.588l0.296,2.002l0.116,0.602l-0.021-0.12l1.187,5.856
						c5.909,22.775,6.25,24.146,11.663,37.646c11.096,24.452,11.325,24.906,25.359,46.208l2.018,2.792l10.697,13.447
						c-3.762-4.335-5.916-9.354-6.559-14.883c-0.653-5.673,0.299-11.915,2.799-18.587c2.487-6.57,6.467-13.551,11.879-20.816
						c15.176-20.306,41.618-42.902,78.165-65.089C208.393,279.649,236.416,265.844,264.8,254.383z M64.799,261.102
						c0.142-0.098,0.295-0.131,0.435-0.225c-0.211,0.147-0.455,0.273-0.655,0.427C64.65,261.249,64.724,261.154,64.799,261.102z
						 M51.963,332.962c3.853,13.023,8.52,23.217,11.056,28.313C58.775,352.842,54.911,343.108,51.963,332.962z M71.669,344.791
						c4.683,10.833,9.276,22.8,13.109,34.858C81.003,367.79,76.4,355.765,71.669,344.791z M87.913,386.871l-0.861,0.237
						c0.441-0.118,0.803-0.301,1.178-0.469C88.104,386.703,88.045,386.812,87.913,386.871z"/>
				</g>
				<g>
					<path fill="#2D2C2C" d="M250.74,492.893c-2.134-0.179-4.043-0.4-5.961-0.62c0.812,0.104,1.533,0.198,2.412,0.313
						L250.74,492.893z"/>
					<path fill="#2D2C2C" d="M109.927,104.516c-2.308,2.318-4.855,4.927-8.425,8.615
						C104.373,110.019,107.152,107.205,109.927,104.516z"/>
				</g>
			</g>
			<path fill="#59BA47" d="M494.942,252.499l-1.117-12.359c-1.748-14.096-1.98-14.994-7.859-38.098
				c-1.953-6.344-5.086-14.654-7.348-20.889c-5.533-13.397-6.232-14.634-17.92-35.075l-2.133-3.346l1.357,3.132
				c8.607,21.753-10.922,54.026-54.387,87.794l-5.709,4.347c-1.635,1.219-3.297,2.439-4.998,3.66
				c-8.732,6.269-18.289,12.583-28.623,18.869c-96.843,58.816-225.845,92.652-288.125,75.576
				c-19.64-5.385-30.282-15.188-32.671-27.914l0.116,0.601c0.009,0.034,0.021,0.075,0.027,0.109l1.138,5.628
				c3.123,13.986,3.435,14.873,11.663,37.646c10.59,23.602,10.872,24.025,25.358,46.208l2.019,2.794
				c-2.646-3.573-7.09-11.543-12.188-21.879c-0.859-1.781-20.428-41.621-27.038-66.597c6.409,23.813,27.801,71.056,39.225,88.476
				l10.697,13.446c5.293,6.144,13.726,10.99,25.488,14.201c60.542,16.597,185.944-16.28,280.049-73.461
				c10.045-6.095,19.346-12.248,27.83-18.351C473.446,305.653,496.309,274.96,494.942,252.499z"/>
			<g>
				
					<linearGradient id="SVGID_1_" gradientUnits="userSpaceOnUse" x1="83.7209" y1="17272.1211" x2="91.3459" y2="17272.1211" gradientTransform="matrix(1 0 0 1 -25.0796 -16912.8359)">
					<stop  offset="0" style="stop-color:#CA5AFE;stop-opacity:0.3"/>
					<stop  offset="0.1432" style="stop-color:#D46AFA;stop-opacity:0.4956"/>
					<stop  offset="0.3058" style="stop-color:#DB74F7;stop-opacity:0.7177"/>
					<stop  offset="0.5124" style="stop-color:#DD77F6"/>
					<stop  offset="1" style="stop-color:#57284C;stop-opacity:0"/>
				</linearGradient>
				<path fill="url(#SVGID_1_)" d="M60.866,357.771c1.037,1.594,2.155,3.306,3.382,5.185l2.019,2.792
					c-1.815-2.453-4.482-6.98-7.625-12.925C59.436,354.597,60.176,356.24,60.866,357.771z"/>
				<path fill="#59BA47" d="M382.5,319.937c10.047-6.095,19.348-12.248,27.83-18.351c43.65-31.369,66.516-62.059,65.146-84.522
					l-1.117-12.359c-1.748-14.096-1.979-14.993-7.859-38.098c-1.303-4.23-3.127-9.326-4.869-14.107
					c2.865,21.41-16.854,50.674-56.096,81.16l-5.709,4.347c-1.635,1.219-3.297,2.439-4.998,3.66
					c-8.732,6.269-18.289,12.583-28.623,18.869c-96.843,58.816-225.845,92.65-288.125,75.576
					c-19.64-5.385-30.282-15.189-32.671-27.916l0.116,0.601c0.009,0.035,0.021,0.075,0.027,0.108l1.138,5.63
					c3.1,13.88,3.435,14.87,11.479,37.134c2.971,5.641,5.746,10.495,8.096,14.074l2.074,2.605
					c-6.491-13.982-17.263-38.367-21.836-55.644c3.781,14.054,12.783,36.265,21.874,55.688l8.586,10.795
					c5.293,6.146,13.726,10.994,25.485,14.205C162.993,409.992,288.395,377.112,382.5,319.937z"/>
				<g>
					<path fill="#59BA47" d="M45.552,308.906l1.138,5.628c0.533,2.398,0.985,4.406,1.411,6.211c0.534,1.023,1.124,2.023,1.793,2.996
						c-1.315-3.866-2.479-7.594-3.393-11.036c0.893,3.317,2.085,7.106,3.494,11.188c5.221,7.461,14.498,13.304,28.082,17.032
						c62.28,17.075,191.283-16.766,288.124-75.579c10.336-6.288,19.891-12.599,28.625-18.87c1.701-1.22,3.361-2.44,4.998-3.661
						l5.709-4.346c38.158-29.643,57.85-58.13,56.273-79.365c-1.43,20.63-20.928,47.093-56.273,74.553l-5.709,4.347
						c-1.635,1.219-3.297,2.439-4.998,3.66c-8.732,6.27-18.289,12.583-28.625,18.869c-96.841,58.816-225.843,92.652-288.124,75.578
						c-19.64-5.385-30.282-15.189-32.671-27.916l0.116,0.601C45.534,308.833,45.546,308.872,45.552,308.906z"/>
					
						<linearGradient id="SVGID_2_" gradientUnits="userSpaceOnUse" x1="77.0471" y1="17258.6465" x2="86.3489" y2="17258.6465" gradientTransform="matrix(1 0 0 1 -25.0796 -16912.8359)">
						<stop  offset="0" style="stop-color:#CA5AFE;stop-opacity:0.3"/>
						<stop  offset="0.0787" style="stop-color:#D46AFA;stop-opacity:0.4956"/>
						<stop  offset="0.168" style="stop-color:#DB74F7;stop-opacity:0.7177"/>
						<stop  offset="0.2816" style="stop-color:#DD77F6"/>
						<stop  offset="0.8154" style="stop-color:#57284C;stop-opacity:0"/>
						<stop  offset="0.9333" style="stop-color:#602D57;stop-opacity:0.2163"/>
					</linearGradient>
					<path fill="url(#SVGID_2_)" d="M51.968,334.235c0.215,0.634,0.441,1.293,0.681,1.986c2.661,7.104,5.66,14.371,8.547,21.034
						c0.026,0.044,0.049,0.089,0.074,0.13C57.833,349.422,54.632,341.485,51.968,334.235z"/>
				</g>
			</g>
			<path fill="#2D2C2C" d="M483.248,339.528c0.264-0.682,0.506-1.356,0.73-2.026C483.742,338.147,483.496,338.829,483.248,339.528z"
				/>
			<path fill="#C7E07C" d="M408.323,410.803c-13.023,7.909-26.775,15.276-40.887,21.988
				c-48.551,23.072-101.303,38.395-143.223,42.018c-19.235,1.679-36.18,0.876-49.428-2.744l-4.166-1.282
				c-2.628-0.899-5.027-1.934-7.196-3.046l2.617,1.348l5.23,2.551c0.963,0.438,1.875,0.851,2.739,1.239
				c0.693,1.689,3.645,2.816,8.052,3.537c7.259,3.051,12.267,4.603,26.627,9.086c10.707,2.673,16.604,3.942,23.142,4.984
				c10.472,1.919,21.51,3.158,32.325,3.053c0.95-0.01,1.878-0.037,2.808-0.066c2.736,0.045,5.395,0.066,7.77,0.065
				c5.043-0.216,11.725-0.673,16.807-1.078c-0.039,0.005-0.061,0.008-0.102,0.013l0.188-0.02c0.039-0.003,0.086-0.008,0.127-0.012
				c0.059-0.008,0.084-0.013,0.141-0.021l0.445-0.044c0.133-0.014,0.289-0.055,0.42-0.067c1.158-0.145,2.012-0.281,2.576-0.413
				c22-2.754,48.367-10.659,72.906-22.32c7.73-3.69,15.277-7.727,22.438-12.069c5.113-3.119,9.793-6.237,14.043-9.352
				c13.539-10.537,17.158-14.025,27.645-24.505c12.939-13.798,18.871-22.472,27.066-34.478c9.299-15.202,10.73-18.335,18.639-35.694
				c1.764-4.063,3.582-9.453,5.184-13.943C475.276,360.224,449.475,385.812,408.323,410.803z M178.635,473.425
				c1.085,0.354,2.263,0.731,3.446,1.106C180.886,474.148,179.845,473.816,178.635,473.425z M217.45,475.79
				c0.743-0.16,1.454-0.293,2.068-0.39l1.548-0.221C219.918,475.334,218.677,475.534,217.45,475.79z M221.137,475.17l0.638-0.091
				l0.903-0.099C222.192,475.035,221.677,475.099,221.137,475.17z M358.906,437.366c1.684-1.016,3.813-2.124,5.813-3.16
				c-1.791,0.961-3.48,1.911-5.057,2.854c-0.492,0.252-0.975,0.503-1.451,0.745C358.448,437.657,358.668,437.511,358.906,437.366z"
				/>
			<path fill="#C7E07C" d="M396.692,421.74c2.938-3.132,5.498-5.992,7.822-8.693c-11.896,7.053-24.324,13.678-37.076,19.744
				c-48.549,23.075-101.302,38.396-143.222,42.021c-15.723,1.368-29.912,1.082-41.804-1.043c-0.213,0.038-0.422,0.075-0.635,0.119
				c0.209-0.046,0.408-0.084,0.608-0.123c-0.55-0.1-1.085-0.206-1.627-0.311c-0.596,0.031-1.188,0.057-1.779,0.083
				c0.993,0.319,2.04,0.654,3.103,0.994c-1.076-0.342-2.039-0.648-3.103-0.994c-1.479,0.067-2.943,0.123-4.388,0.154
				c1.195,1.241,3.825,2.126,7.468,2.719c7.261,3.051,12.268,4.603,26.628,9.086c10.707,2.673,16.604,3.942,23.142,4.984
				c2.282,0.419,4.597,0.8,6.927,1.145c0.1,0,0.208,0,0.307,0c5.042-0.215,11.717-0.671,16.808-1.079
				c-0.043,0.006-0.061,0.007-0.104,0.015l0.187-0.021c0.037-0.001,0.088-0.005,0.129-0.009c0.057-0.007,0.079-0.013,0.136-0.019
				l0.444-0.047c0.138-0.014,0.29-0.053,0.424-0.065c1.159-0.146,2.009-0.286,2.574-0.417c22-2.75,48.368-10.657,72.907-22.316
				c7.73-3.689,15.281-7.73,22.439-12.069c5.109-3.121,9.793-6.237,14.039-9.354C382.58,435.708,386.205,432.223,396.692,421.74z
				 M217.45,475.79c0.743-0.16,1.454-0.293,2.068-0.39l1.548-0.221C219.918,475.334,218.677,475.534,217.45,475.79z M221.137,475.17
				l0.638-0.091l0.903-0.099C222.192,475.035,221.677,475.099,221.137,475.17z M359.664,437.062
				c-0.49,0.251-0.973,0.502-1.449,0.744c0.23-0.145,0.453-0.293,0.691-0.437c1.684-1.014,3.813-2.125,5.813-3.16
				C362.932,435.167,361.239,436.117,359.664,437.062z"/>
			<g opacity="0.69">
				
					<linearGradient id="SVGID_3_" gradientUnits="userSpaceOnUse" x1="383.2952" y1="17352.9668" x2="389.803" y2="17352.9668" gradientTransform="matrix(1 0 0 1 -25.0796 -16912.8359)">
					<stop  offset="0" style="stop-color:#FFFFFF;stop-opacity:0"/>
					<stop  offset="0.2614" style="stop-color:#FFFFFF;stop-opacity:0.8577"/>
					<stop  offset="0.3048" style="stop-color:#FFFFFF"/>
					<stop  offset="1" style="stop-color:#FFFFFF;stop-opacity:0"/>
				</linearGradient>
				<path fill="url(#SVGID_3_)" d="M358.906,441.491c-0.24,0.146-0.463,0.294-0.691,0.438c0.475-0.244,0.959-0.489,1.451-0.743
					c1.574-0.942,3.266-1.896,5.057-2.854C362.723,439.367,360.59,440.478,358.906,441.491z"/>
				<path fill="#C7E07C" d="M187.849,478.702c10.7,1.353,22.968,1.4,36.365,0.236c41.92-3.625,94.67-18.949,143.223-42.023
					c10.021-4.767,19.836-9.893,29.355-15.287c2.895-3.088,5.42-5.91,7.721-8.581c-11.896,7.053-24.324,13.678-37.074,19.744
					c-48.551,23.075-101.304,38.396-143.224,42.021c-15.723,1.368-29.912,1.082-41.804-1.043c-0.212,0.038-0.421,0.075-0.635,0.119
					c0.209-0.046,0.408-0.084,0.608-0.123c-0.547-0.1-1.085-0.206-1.626-0.311c-0.597,0.031-1.188,0.057-1.779,0.083
					c0.993,0.319,2.04,0.654,3.103,0.994c-1.073-0.342-2.039-0.648-3.103-0.994c-1.479,0.067-2.943,0.123-4.388,0.154
					c1.195,1.241,3.825,2.126,7.47,2.719C184.081,477.258,185.927,477.991,187.849,478.702z M358.906,437.366
					c1.684-1.016,3.813-2.124,5.813-3.16c-1.791,0.961-3.48,1.911-5.057,2.854c-0.492,0.252-0.975,0.503-1.451,0.745
					C358.448,437.657,358.668,437.511,358.906,437.366z M221.773,475.079l0.903-0.099c-0.485,0.059-1,0.12-1.541,0.191
					L221.773,475.079z M219.518,475.4l1.547-0.221c-1.147,0.153-2.391,0.354-3.616,0.609
					C218.193,475.63,218.905,475.497,219.518,475.4z"/>
				
					<linearGradient id="SVGID_4_" gradientUnits="userSpaceOnUse" x1="242.5295" y1="17392.4453" x2="246.1458" y2="17392.4453" gradientTransform="matrix(1 0 0 1 -25.0796 -16912.8359)">
					<stop  offset="0" style="stop-color:#FFFFFF;stop-opacity:0"/>
					<stop  offset="0.2614" style="stop-color:#FFFFFF;stop-opacity:0.8577"/>
					<stop  offset="0.3048" style="stop-color:#FFFFFF"/>
					<stop  offset="1" style="stop-color:#FFFFFF;stop-opacity:0"/>
				</linearGradient>
				<path fill="url(#SVGID_4_)" d="M217.45,479.915c1.227-0.257,2.466-0.458,3.616-0.611l-1.548,0.22
					C218.905,479.623,218.193,479.756,217.45,479.915z"/>
				
					<linearGradient id="SVGID_5_" gradientUnits="userSpaceOnUse" x1="246.217" y1="17392.0371" x2="247.7581" y2="17392.0371" gradientTransform="matrix(1 0 0 1 -25.0796 -16912.8359)">
					<stop  offset="0" style="stop-color:#FFFFFF;stop-opacity:0"/>
					<stop  offset="0.2614" style="stop-color:#FFFFFF;stop-opacity:0.8577"/>
					<stop  offset="0.3048" style="stop-color:#FFFFFF"/>
					<stop  offset="1" style="stop-color:#FFFFFF;stop-opacity:0"/>
				</linearGradient>
				<path fill="url(#SVGID_5_)" d="M221.137,479.296c0.54-0.072,1.055-0.136,1.541-0.189l-0.903,0.099L221.137,479.296z"/>
			</g>
			<path fill="#118B40" d="M380.813,80.696l-0.414-2.196l-0.459-1.591l-0.318-0.979l-0.139-0.341
				c-10.721-15.403-46.068-24.636-47.564-25.032c-27.412-7.035-51.656-4.034-52.938,1.67l0.076,0.169l0.168,0.501l0.232,0.839
				l0.211,1.136l0.119,1.458l-0.08,1.765l-0.338,2.065l-0.691,2.376l-1.131,2.65l-1.594,2.883l-2.084,3.122l-2.617,3.314
				l-3.121,3.432c-1.145,1.163-2.343,2.343-3.615,3.515c-1.284,1.175-2.622,2.365-4.046,3.548c-1.395,1.171-2.872,2.341-4.406,3.524
				c-0.501,0.45-0.922,0.918-1.355,1.396c0.075-0.088,0.073-0.242,0.15-0.327l1.203-1.07l-1.562,1.162l-1.567,1.164l-1.614,1.141
				l-1.604,1.11l-1.636,1.121l-1.635,1.088l-1.652,1.062l-1.655,1.047l-1.644,1.011l-0.58,0.358l-1.051,0.631l-1.602,0.95
				l-1.568,0.91l-1.53,0.867l-1.468,0.832l-1.443,0.795l-1.375,0.758l-1.331,0.694l-1.265,0.663l-1.205,0.625l-1.13,0.576
				l-1.051,0.534l-0.994,0.499l-0.915,0.433l-0.829,0.404l-0.721,0.358l-0.667,0.306l-0.555,0.277l-0.476,0.221l-0.357,0.169
				l-0.251,0.123l-0.167,0.081l-0.052,0.031c-22.906,10.69-47.502,17.921-67.621,20.077c-7.085,0.693-13.532,0.659-18.666,0.377
				c-3.173-0.286-6.112-0.768-8.745-1.481c-21.527-5.903-16.506-24.891,9.698-45.133c1.534-1.184,3.141-2.367,4.813-3.555
				l-0.339,0.23c0.013-0.008,0.025-0.019,0.035-0.027c-7.542,5.396-8.651,6.308-17.269,13.418
				c-4.249,3.599-7.18,6.345-10.903,10.077c0.059-0.054,0.115-0.105,0.171-0.162c-2.752,2.662-5.575,5.511-8.475,8.659
				c-4.118,4.647-9.402,11.02-13.308,15.855c-11.509,15.927-13.527,19.597-22.044,35.091c-3.149,6.482-6.932,15.341-9.734,21.976
				c-7.054,18.193,0.148,32.506,23.42,38.872c11.318,3.11,25.455,4.071,41.431,3.148c40.717-2.382,93.383-17.03,142.091-39.788
				l0.12-0.035l0.304-0.154l0.513-0.25l0.71-0.32l0.891-0.423l1.081-0.528l1.251-0.594l1.442-0.681l1.57-0.784l1.771-0.875
				l1.91-0.946l2.039-1.019l2.188-1.126l2.322-1.197l2.441-1.279l2.545-1.358l2.674-1.445l2.781-1.525l2.852-1.607l2.963-1.672
				l3.006-1.765l3.088-1.836l2.018-1.217l1.152-0.692l3.164-1.953l3.199-2.03l3.16-2.048l3.178-2.115l3.168-2.146l3.127-2.165
				l3.09-2.2l3.023-2.229l2.994-2.251c2.969-2.282,5.811-4.549,8.508-6.794c2.768-2.312,5.352-4.599,7.818-6.854
				c2.477-2.29,4.793-4.561,6.979-6.811c2.152-2.241,4.166-4.44,6.035-6.628c1.813-2.153,3.512-4.276,5.047-6.378
				c1.484-2.026,2.842-4.047,4.043-6.02c1.162-1.898,2.188-3.772,3.072-5.605c0.848-1.739,1.561-3.44,2.16-5.107l1.354-4.584
				l0.66-4.001l0.146-3.406L380.813,80.696z M214.926,113.173l0.756-0.499c-0.377,0.292-0.751,0.572-1.136,0.928
				C214.683,113.475,214.79,113.297,214.926,113.173z"/>
			<path fill="#118B40" d="M121.387,180.124c40.72-2.382,93.386-17.03,142.092-39.788l0.12-0.034l0.304-0.155l0.514-0.248
				l0.711-0.321l0.89-0.42l1.081-0.532l1.251-0.592l1.444-0.681l1.57-0.785l1.771-0.873l1.912-0.946l2.039-1.019l2.186-1.126
				l2.322-1.197l2.441-1.28l2.547-1.356l2.674-1.445l2.781-1.526l2.852-1.606l2.961-1.672l3.008-1.763l3.086-1.837l2.018-1.217
				l1.152-0.693l3.164-1.954l3.199-2.027l3.162-2.048l3.176-2.118l3.168-2.146l3.127-2.163l3.084-2.199l3.023-2.231l2.994-2.251
				c2.969-2.282,5.813-4.549,8.506-6.794c2.768-2.313,5.354-4.601,7.818-6.854c2.479-2.291,4.793-4.561,6.98-6.811
				c2.152-2.243,4.166-4.441,6.035-6.628c1.426-1.691,2.75-3.361,4.01-5.021c-14.584-9.435-35.494-14.906-36.637-15.208
				c-27.416-7.036-51.66-4.034-52.941,1.67l0.076,0.169l0.17,0.502l0.23,0.839l0.213,1.136l0.117,1.458l-0.08,1.765l-0.336,2.065
				l-0.691,2.376l-1.133,2.65l-1.594,2.883l-2.084,3.122l-2.615,3.314l-3.122,3.432c-1.141,1.163-2.343,2.343-3.615,3.515
				c-1.284,1.175-2.622,2.366-4.046,3.549c-1.395,1.17-2.872,2.341-4.403,3.524c-0.504,0.449-0.925,0.918-1.358,1.396
				c0.075-0.088,0.073-0.242,0.151-0.328l1.205-1.07l-1.563,1.162l-1.567,1.164l-1.613,1.142l-1.604,1.109l-1.634,1.12l-1.637,1.089
				l-1.653,1.062l-1.655,1.047l-1.644,1.011l-0.58,0.358l-1.05,0.631l-1.603,0.95l-1.567,0.91l-1.528,0.868l-1.47,0.832
				l-1.443,0.794l-1.375,0.758l-1.33,0.694l-1.265,0.662l-1.206,0.626l-1.129,0.576l-1.052,0.533l-0.993,0.499l-0.915,0.433
				l-0.831,0.404l-0.721,0.358l-0.667,0.306l-0.555,0.276l-0.474,0.221l-0.359,0.169l-0.25,0.122l-0.168,0.083l-0.052,0.029
				c-22.906,10.69-47.5,17.922-67.62,20.078c-7.086,0.693-13.531,0.659-18.667,0.377c-3.173-0.286-6.112-0.767-8.744-1.48
				c-21.527-5.904-16.507-24.891,9.698-45.133c0.479-0.369,0.978-0.74,1.471-1.11c-0.026,0-0.049,0-0.077-0.001
				c-4.947,3.585-6.888,5.182-14.155,11.179c-4.249,3.599-7.181,6.345-10.904,10.077c0.059-0.054,0.116-0.105,0.171-0.162
				c-2.752,2.662-5.575,5.51-8.474,8.659c-4.119,4.647-9.403,11.021-13.309,15.855C76.796,144.79,74.778,148.46,66.26,163.954
				c-0.83,1.708-1.704,3.583-2.591,5.533c4.095,3.103,9.498,5.634,16.275,7.487C91.276,180.084,105.413,181.048,121.387,180.124z
				 M214.926,113.173l0.756-0.499c-0.377,0.292-0.751,0.572-1.136,0.928C214.683,113.475,214.79,113.297,214.926,113.173z"/>
			<g>
				<path fill="#118B40" d="M214.548,118.871c0.383-0.356,0.757-0.639,1.135-0.929l-0.756,0.499
					C214.79,118.562,214.683,118.743,214.548,118.871z"/>
				<path opacity="0.52" fill="#118B40" enable-background="new    " d="M123.894,129.504c-7.845-2.154-12.15-6.049-13.202-11.104
					c-1.377,7.616,2.813,13.521,13.202,16.368c2.634,0.713,5.573,1.197,8.745,1.482c5.135,0.281,11.581,0.314,18.667-0.379
					c20.121-2.155,44.713-9.386,67.622-20.074l0.049-0.033l0.167-0.082l0.251-0.121l0.358-0.172l0.474-0.218l0.556-0.279
					l0.667-0.307l0.72-0.358l0.83-0.403l0.916-0.434l0.992-0.499l1.051-0.533l1.129-0.575l1.208-0.622l1.262-0.664l1.33-0.696
					l1.375-0.757l1.443-0.796l1.47-0.83l1.528-0.868l1.57-0.91l1.601-0.95l1.05-0.63l0.58-0.361l1.644-1.01l1.655-1.048l1.653-1.061
					l1.637-1.088l1.634-1.121l1.604-1.109l1.613-1.142l1.567-1.166l1.564-1.16c1.528-1.185,3.008-2.354,4.402-3.526
					c1.424-1.184,2.764-2.375,4.046-3.548c1.272-1.169,2.472-2.354,3.615-3.517l3.124-3.43l2.613-3.314l2.084-3.123l1.594-2.88
					l1.133-2.651l0.689-2.379l0.338-2.063l0.082-1.766l-0.121-1.458l-0.156-0.847l-0.139,0.868l-0.689,2.376l-1.135,2.65
					l-1.594,2.883l-2.084,3.122l-2.613,3.314l-3.124,3.431c-1.141,1.163-2.343,2.343-3.615,3.516
					c-1.283,1.174-2.622,2.365-4.046,3.548c-1.395,1.17-2.872,2.341-4.402,3.524c-0.502,0.45-0.926,0.918-1.359,1.396
					c0.078-0.088,0.075-0.242,0.151-0.327l1.206-1.07l-1.563,1.162l-1.568,1.164l-1.613,1.142l-1.604,1.11l-1.634,1.12l-1.637,1.089
					l-1.653,1.062l-1.654,1.047l-1.645,1.011l-0.58,0.358l-1.05,0.631l-1.601,0.95l-1.57,0.91l-1.528,0.867l-1.47,0.832
					l-1.443,0.794l-1.375,0.758l-1.33,0.693l-1.262,0.663l-1.208,0.625l-1.129,0.576l-1.05,0.534l-0.993,0.499L223,108.553
					l-0.83,0.404l-0.72,0.358l-0.667,0.306l-0.556,0.277l-0.473,0.221l-0.36,0.169l-0.251,0.122l-0.169,0.081l-0.049,0.031
					c-22.908,10.691-47.502,17.922-67.622,20.078c-7.086,0.693-13.531,0.658-18.667,0.377
					C129.467,130.697,126.527,130.216,123.894,129.504z M214.926,113.173l0.756-0.499c-0.377,0.292-0.751,0.572-1.136,0.928
					C214.683,113.475,214.79,113.297,214.926,113.173z"/>
				<path fill="#118B40" d="M254.715,95.192c0.433-0.477,0.854-0.948,1.356-1.397l-1.203,1.07
					C254.787,94.951,254.79,95.105,254.715,95.192z"/>
			</g>
		</g>
	</g>
</g>
</svg>
