<?xml version="1.0" encoding="utf-8"?>
<!-- Generator: Adobe Illustrator 16.0.0, SVG Export Plug-In . SVG Version: 6.00 Build 0)  -->
<!DOCTYPE svg PUBLIC "-//W3C//DTD SVG 1.1//EN" "http://www.w3.org/Graphics/SVG/1.1/DTD/svg11.dtd">
<svg version="1.1" id="Layer_1" xmlns="http://www.w3.org/2000/svg" xmlns:xlink="http://www.w3.org/1999/xlink" x="0px" y="0px"
	 width="540px" height="540px" viewBox="0 0 540 540" enable-background="new 0 0 540 540" xml:space="preserve">
<g>
	<g>
		<path fill="#404041" d="M259.279,494.632c-3.532-0.166-5.438-0.31-7.804-0.489V321.111c-21.536-7.794-35.948-28.266-35.948-51.207
			c0-29.628,24.111-54.478,54.478-54.478c11.87,0,23.17,3.777,32.685,10.929c13.844,10.433,21.778,26.31,21.778,43.549
			c0,22.931-14.407,43.402-35.948,51.207v173.031l-1.087,0.083c-2.229,0.172-4.465,0.301-6.716,0.407
			C273.327,494.981,266.672,494.981,259.279,494.632z M259.736,240.912c-8.781,3.119-15.612,9.948-18.733,18.727
			c-2.414,6.808-2.414,13.712,0,20.523c3.125,8.801,9.952,15.623,18.729,18.73c6.782,2.412,13.8,2.388,20.529,0.004
			c15.651-5.571,24.567-22.816,18.732-39.258c-3.121-8.785-9.945-15.612-18.732-18.727
			C273.632,238.547,266.562,238.479,259.736,240.912z"/>
	</g>
	<g>
		<g>
			<path fill="#592C8C" d="M364.739,336.808l0.217-0.308c11.658-16.563,18.783-35.943,20.596-56.048
				c0.671-7.298,0.671-13.804,0-21.102c-5.04-55.773-49.205-99.935-105-105.003l-1.08-0.097V87.788l1.255,0.071
				c48.17,2.802,92.555,24.235,124.993,60.352c32.724,36.442,49.17,83.467,46.325,132.412c-1.538,26.351-8.604,51.498-20.992,74.762
				v35.161c28.217-37.583,42.393-84.048,39.988-131.247c-5.443-103.189-87.319-185.06-190.447-190.44l-1.118-0.056V45.106
				l1.24,0.059C401.098,50.818,495,151.577,495,269.901c0,33.434-7.212,65.655-21.431,95.763
				c-14.8,31.32-37.032,59.268-64.293,80.808l-1.912,1.517v-98.717c15.388-26.535,23.088-57.502,20.955-89.955
				c-4.666-70.607-56.052-129.872-125.157-144.616v19.484c58.893,14.381,101.494,64.483,106.125,124.966
				c0.467,6.254,0.454,9.458,0.454,11.932h-0.018c-0.033,2.922-0.169,5.992-0.437,9.563c-1.717,22.385-8.922,44.263-20.861,63.301
				v117.18c-6.979,4.313-14.008,8.227-21.991,12.032l-1.691,0.799L364.739,336.808L364.739,336.808z"/>
		</g>
		<g>
			<path fill="#592C8C" d="M173.571,473.161c-7.307-3.485-14.515-7.417-21.433-11.681l-0.558-0.35V343.952
				c-11.936-19.031-19.152-40.907-20.866-63.301c-0.6-7.931-0.6-13.549,0-21.496c4.626-60.478,47.224-110.581,106.118-124.965
				v-19.482c-72.822,15.536-125.518,80.569-125.518,155.199c0,27.817,7.338,55.264,21.313,79.367v98.714l-1.911-1.51
				c-62.372-49.294-94.984-128.021-83.408-208.721C62.613,131.232,151.763,50.236,259.279,45.168l1.241-0.059v23.696l-1.12,0.056
				c-94.211,4.921-173.361,76.094-188.196,169.247c-8.563,53.691,5.183,109.046,37.743,152.441V355.38
				C95,329.215,87.634,299.667,87.634,269.907c0-96.481,75.39-176.448,171.635-182.044l1.251-0.071v66.462l-1.079,0.097
				c-55.792,5.068-99.95,49.224-104.997,105.003c-0.668,7.303-0.668,13.811,0,21.098c1.822,20.107,8.938,39.488,20.598,56.052
				l0.213,0.308v137.153L173.571,473.161z"/>
		</g>
	</g>
	<g>
		<path fill="#592C8C" d="M322.109,321.556l0.335-0.336c13.523-13.83,20.979-32.051,20.979-51.311
			c0-40.488-32.928-73.423-73.422-73.423c-28.146,0-54.176,16.466-66.323,41.948c-13.148,27.6-7.57,60.867,13.879,82.789
			l0.336,0.342v167.229l-1.46-0.364c-7.242-1.765-14.448-3.925-21.431-6.401l-0.787-0.281V330.514
			c-13.736-17.141-21.302-38.636-21.317-60.58c0-53.68,43.321-97.122,97.2-97.122c53.486,0,97.008,43.556,97.008,97.095
			c0,21.949-7.568,43.456-21.316,60.61v151.231l-0.787,0.283c-6.979,2.475-14.19,4.635-21.432,6.401l-1.456,0.363v-167.24H322.109
			L322.109,321.556z"/>
	</g>
</g>
</svg>
