<?xml version="1.0" encoding="utf-8"?>
<!-- Generator: Adobe Illustrator 16.0.0, SVG Export Plug-In . SVG Version: 6.00 Build 0)  -->
<!DOCTYPE svg PUBLIC "-//W3C//DTD SVG 1.1//EN" "http://www.w3.org/Graphics/SVG/1.1/DTD/svg11.dtd">
<svg version="1.1" id="Layer_1" xmlns="http://www.w3.org/2000/svg" xmlns:xlink="http://www.w3.org/1999/xlink" x="0px" y="0px"
	 width="540px" height="540px" viewBox="0 0 540 540" enable-background="new 0 0 540 540" xml:space="preserve">
<g>
	<path fill="#1D94C8" d="M379.498,45c-21.848,38.349,31.736,57.724,57.855,115.005c10.584,23.208,16.484,49.005,16.484,76.168
		c0,61.229-29.975,115.465-76.023,148.877c-15.729-70.718-31.477-142.143-47.197-211.921C319.355,123.148,332.777,56.839,379.498,45
		z"/>
	<path fill="#11669A" d="M162.185,385.052c-46.056-33.412-76.022-87.648-76.022-148.881c0-89.812,64.458-164.599,149.614-180.645
		L162.185,385.052z"/>
	<path fill="#70BBD4" d="M270.303,139.581H269.1L239.08,294.47h61.236L270.303,139.581L270.303,139.581z M323.486,412.082
		c-16.92,5.147-34.879,7.928-53.487,7.928c-18.612,0-36.556-2.78-53.489-7.921l11.766-59.986h83.447L323.486,412.082z"/>
	<path fill="#CCCBCB" d="M269.997,464.089c72.218,0,130.784,6.924,130.784,15.456c0,8.537-58.566,15.455-130.784,15.455
		c-72.215,0-130.781-6.921-130.781-15.455C139.216,471.013,197.782,464.089,269.997,464.089z"/>
</g>
</svg>
