<?xml version="1.0" encoding="utf-8"?>
<!-- Generator: Adobe Illustrator 16.0.0, SVG Export Plug-In . SVG Version: 6.00 Build 0)  -->
<!DOCTYPE svg PUBLIC "-//W3C//DTD SVG 1.1//EN" "http://www.w3.org/Graphics/SVG/1.1/DTD/svg11.dtd">
<svg version="1.1" id="Layer_1" xmlns="http://www.w3.org/2000/svg" xmlns:xlink="http://www.w3.org/1999/xlink" x="0px" y="0px"
	 width="540px" height="540px" viewBox="0 0 540 540" enable-background="new 0 0 540 540" xml:space="preserve">
<path fill="#ADD1E2" d="M270.055,270.165l-0.002-0.272c-0.053-0.002-0.047-0.078-0.107-0.051L270.055,270.165z"/>
<polygon fill="#ADD1E2" points="269.834,270.139 270.166,270.152 270.062,269.848 "/>
<polygon fill="#ADD1E2" points="269.904,269.953 269.928,270.047 270.096,269.963 "/>
<polygon fill="#ADD1E2" points="269.912,270.039 269.967,270.052 270.088,269.948 "/>
<polygon fill="#ADD1E2" points="270.166,269.861 269.834,269.988 270.104,270.139 "/>
<line fill="none" x1="269.806" y1="270.081" x2="270.194" y2="269.919"/>
<polygon fill="#ADD1E2" points="270.229,269.982 270.196,269.804 269.771,270.196 "/>
<line fill="none" x1="269.595" y1="270.247" x2="270.405" y2="269.753"/>
<polygon fill="#ADD1E2" points="269.828,269.809 270.066,270.191 270.172,269.938 "/>
<line fill="none" x1="270.396" y1="270.499" x2="269.604" y2="269.501"/>
<line fill="none" x1="270.194" y1="270.042" x2="269.806" y2="269.958"/>
<line fill="none" x1="270.091" y1="269.723" x2="269.909" y2="270.277"/>
<polygon fill="#ADD1E2" points="270.278,269.979 270.246,269.886 269.722,270.114 "/>
<g>
	<path fill="#ADD1E2" d="M353.334,120.573c0.063,0.112-0.082,0.106-0.107,0.174l0.613-0.076L353.334,120.573z"/>
	<line fill="none" x1="362.287" y1="96.128" x2="362.678" y2="96.848"/>
	<path fill="#ADD1E2" d="M333.832,136.726l3.281,1.389l0.086,0.255c0.193,0.1,0.41,0.017,0.629,0.041l0.994,0.42l1.332-1.047
		c0.279-0.185,0.52-0.371,0.762-0.601l3.307-2.598l0.432-1.198c0.248-0.657,0.576-1.361,0.84-2.031l0.127,0.417l0.561-0.431
		l-0.037-0.555l0.398,0.181l0.84-2.142l-0.523,0.147l0.48-1.407l0.559,0.283l-0.025-0.426l0.59,0.49
		c-0.811-0.573,0.229-1.402,0.178-1.671l0.092,0.124c0.584-0.58-0.428-0.04-0.246-0.515l1.242-0.1l1.158-2.7l0.154-2.179
		l0.625-0.354c0.484,0.381,1.41,0.021,1.283,0.903c-0.369-0.481,0.127-0.485,0.289-0.688l-0.615,0.057
		c-0.73,0.103,0.416-1.094-0.523-0.882l1.182-2.575l0.646,0.437l0.234-2.088l-0.953-0.209l-0.037-0.566l1.488-0.209
		c0.639,0.482-0.564,1.072,0.289,1.091l-0.51,1.863c0.375,0.863,0.273-0.434,0.83-0.043l0.229-1.809l-0.557-0.372
		c-0.332-1.015,0.838-0.725,0.951-0.879l0.021,0.426l0.303-1.235c0.889,0.207-0.232,0.854,0.174,1.273l0.76-0.127l-0.029-1.222
		l0.266,0.222l0.023-0.594l-0.938,0.24c-0.684-0.618,0.068-0.45,0.178-1.209l-0.531,0.139l-0.188-0.967l1.02-0.188l-0.33,0.447
		c0.18,0.903,1.066,0.099,1.195,0.717l-0.045-1.226l-0.688,0.03c-0.822-1.438,1.15-0.213,1.318-1.197
		c-0.855-0.146-0.605-1.643-1.756-1.366l0.063-0.797l0.932,0.409l0.137-0.324l0.441,0.749l1.461-0.749l-0.482-0.661l0.67-0.182
		c-0.416,0.39-0.76-0.292-0.775-0.663l0.967-0.541l0.277,0.646l0.238-0.501l-0.939-0.891l0.447-0.557l0.127,0.611l0.949-0.551
		l-0.352-0.33l0.439,0.092l-0.076-0.771l0.295,0.062c-0.07-0.341-0.551-0.927,0.135-1.044l-0.635,0.68l-0.305-0.769
		c0.713,0.311,0.361-0.68,0.52-1.002l0.717-0.28l-0.418-0.317c0.975,0.229,0.1-0.713,0.473-1.02l0.838,0.186l-1.199-0.982
		c0.434-0.636,0.844,0.486,1.387,0.441l-0.063-1.16l-0.701-0.454l0.646-0.16l-0.787-0.489l0.229-1.257l-0.518-0.959l-0.99-0.658
		c0.004-0.068,0.033-0.121,0.043-0.185c0.08,0.164,0.178,0.484,0.582,0.372l0.016-0.38c0.908-0.292,0.986,1.463,1.752,1.161
		l-0.152-0.479l0.826,0.3l-0.025-1.111l-0.279,0.212l-0.254-1.446l0.873,0.251l-0.129-0.636l0.25,0.12
		c0.539-1.714,1.055-3.902,0.309-5.594l1.279-1.519l-0.484-0.304l0.639-0.317l-0.08-1.705l0.445-0.063l-0.277-0.698l0.471-0.232
		l-0.377-0.11c-0.1-0.484-0.121-1.112,0.514-0.971l-0.412-0.178l-0.01-2.604l-0.699,0.351l-0.287-0.53l0.678,0.047
		c0.785-1.11,0.002-2.732,0.086-4.155l-0.414-0.311l0.059-2.997l-1.113-0.472c-0.584-0.499,0.736-0.351,1.033-0.927l-0.354-0.919
		l0.096-0.011l-0.299-1.169l0.066,0.063l0.27-1.091l-0.748-0.982l0.176-0.122l-0.418,0.088l0.195-0.724l0.471,0.234
		c0.24-0.781-0.395-0.13-0.637-0.421c-3.107-2.687-1.156-0.962-1.973-1.821c0.986,0.461-1.391-1.355,2.219,1.536
		c2.203,1.489-2.367-2.142-2.012-1.88l-0.506,0.367l-0.879-0.433l-0.738,0.367l0.686,0.551l-0.666-0.061l-0.354,0.271l-0.42-0.622
		l-1.035,0.359l-0.35-1.147l-0.615,0.449l-0.33-0.371l-1.996,0.786l-0.129-0.394l-0.367,0.229c-0.688-1.281-2.486-0.45-3.658-1.088
		l-0.82,0.4c0.105-0.71-0.691,0.091-0.992-0.359l0.125,0.713c-0.719-0.456-1.273,0.993-1.689,0.123l0.375-0.607
		c-0.547-1.274-4.678,3.488-3.465,2.31l0.809,0.701l-1.148,0.771l-0.178,0.784l-0.17-0.409l-0.164,1.594l-1.232,1.658
		c0.482,0.591-0.625,0.911,0.168,1.27l-0.279,0.002l0.525,1.014l-0.482-0.294l-0.801,0.735l0.248,0.503l0.068,0.415l0.059,0.865
		l-0.553-0.205l-0.303,1.004c-0.053,0.021-0.1,0.068-0.121,0.241l-0.412,0.479l-0.389-0.253l0.324,1.114
		c-0.797,0.903-1.047,2.848-1,3.379l-0.086-0.255l-0.109,0.777l-0.588,0.652l0.375,0.07c-0.953,0.593-0.301,2.045-1.105,2.882
		l-0.252-0.557l0.076,2.545l-0.383-0.408l-0.021,1.274c0.379-0.013,0.504,0.545,0.316,0.827l-0.102-0.027l-0.156,1.151l-0.316-0.288
		l-0.975,1.112l0.32,0.438l-0.525,0.331l0.768,1.486l-0.039,0.106l-0.715-0.304l0.324,1.322l-0.836,2.252l-0.734-0.52l-0.945,2.146
		c0.84-0.161,0.297,0.759,0.66,1.115l-0.084,0.207l-0.811,0.374l-0.738,2.401l-0.127-0.075l-0.275,2.558l-0.051,0.124l-0.295-0.25
		l0.064,0.844l-0.076,0.193l-0.16-0.198l-0.389,1.684v0.02l-0.273-0.329l-0.068,1.196l-0.178,0.501l-0.332-0.282l-0.018,1.195
		l-0.021,0.045l-0.434,0.187l-0.045,1.113l-0.146,0.396l-0.607,0.309l-2.262,7.377l-0.385,1.044
		c-0.645,0.056-0.188-0.754-0.715-0.641l-0.127,1.422l-0.104-0.004l-0.412,0.915l0.152,0.034c0.244,0.543-1.066,0.618-0.406,1.116
		l-0.535,0.153l-0.088,1.248l-0.088-0.101c-0.531,0.555,0.207,1.636-0.396,1.699l0.145,1.024l-0.158,0.46l-0.4-0.172
		c-0.457,1.508-0.994,3.543-1.365,4.885l-0.564,1.514l10.258,4.334C332.77,136.369,333.283,136.499,333.832,136.726z
		 M345.069,131.928l-0.955-0.112L345.069,131.928z"/>
	<line fill="none" x1="344.114" y1="131.819" x2="345.069" y2="131.928"/>
	<polygon fill="#ADD1E2" points="352.457,121.191 352.219,121.319 352.405,121.637 	"/>
	<line fill="none" x1="353.678" y1="118.418" x2="353.719" y2="119.698"/>
	<line fill="none" x1="356.198" y1="116.355" x2="355.959" y2="116.063"/>
	<line fill="none" x1="355.938" y1="115.268" x2="355.434" y2="115.6"/>
	<line fill="none" x1="359.117" y1="109.149" x2="358.826" y2="109.741"/>
	<polygon fill="#ADD1E2" points="359.987,106.749 359.729,106.459 359.619,106.706 	"/>
	<polygon fill="#ADD1E2" points="334.012,97.429 333.979,97.516 334.559,97.657 	"/>
	<polygon fill="#ADD1E2" points="209.343,434.608 209.341,434.623 209.723,435.328 	"/>
	<polygon fill="#ADD1E2" points="207.555,401.479 207.587,401.48 207.734,401.363 	"/>
	<polygon fill="#ADD1E2" points="202.358,400.701 202.383,400.803 202.549,400.707 	"/>
	<polygon fill="#ADD1E2" points="202.024,400.688 202.358,400.701 202.242,400.4 	"/>
	<path fill="#ADD1E2" d="M200.395,459.059c0.045,0.117-0.082,0.105-0.118,0.178l0.621-0.076L200.395,459.059z"/>
	<path fill="#ADD1E2" d="M213.334,419.483l-0.003-2.604l-0.718,0.357l-0.292-0.539l0.669,0.051c0.806-1.1,0.001-2.721,0.088-4.147
		l-0.395-0.308l0.025-2.998l-1.081-0.483c-0.58-0.481,0.735-0.331,1.017-0.922l-0.354-0.921l0.093,0.005l-0.279-1.183l0.03,0.048
		l0.264-1.069l-0.719-0.988l0.191-0.121l-0.407,0.078l0.181-0.703l0.479,0.219c0.256-0.774-0.385-0.118-0.638-0.416
		c-3.127-2.653-1.172-0.95-1.975-1.807c0.999,0.444-1.414-1.345,2.218,1.512c2.223,1.486-2.368-2.112-2.031-1.862l-0.488,0.377
		l-0.883-0.433l-0.758,0.367l0.704,0.545l-0.687-0.062l-0.359,0.272l-0.398-0.64l-1.025,0.367l-0.341-1.159l-0.622,0.453
		l-0.327-0.365l-1.986,0.791l-0.145-0.395l-0.391,0.229c-0.687-1.274-2.468-0.447-3.675-1.105l-0.805,0.41
		c0.127-0.707-0.69,0.091-1.002-0.364l0.139,0.718c-0.704-0.458-1.251,0.994-1.675,0.129l0.376-0.615
		c-0.563-1.268-4.664,3.525-3.465,2.32l0.809,0.701l-1.146,0.779l-0.154,0.775l-0.161-0.389l-0.189,1.595l-1.237,1.663
		c0.498,0.574-0.614,0.898,0.184,1.25l-0.277,0.02l0.521,0.998l-0.487-0.287l-0.815,0.738l0.27,0.506l0.036,0.412l0.063,0.869
		l-0.546-0.213l-0.307,1.014c-0.032,0.023-0.099,0.064-0.12,0.23l-0.396,0.48l-0.384-0.241l0.302,1.101
		c-0.777,0.893-1.047,2.85-0.988,3.372l-0.074-0.255l-0.109,0.788l-0.611,0.653l0.391,0.063c-0.971,0.593-0.298,2.04-1.128,2.876
		l-0.244-0.554l0.089,2.55l-0.392-0.393l-0.024,1.248c0.396-0.017,0.519,0.557,0.332,0.842l-0.095-0.033l-0.177,1.162l-0.303-0.305
		l-0.978,1.117l0.314,0.441l-0.527,0.33l0.75,1.479l-0.03,0.112l-0.721-0.306l0.338,1.324l-0.847,2.25l-0.732-0.523l-0.941,2.15
		c0.823-0.166,0.282,0.746,0.643,1.105l-0.073,0.205l-0.819,0.383l-0.728,2.402l-0.125-0.072l-0.297,2.555l-0.047,0.129
		l-0.291-0.269l0.076,0.856l-0.075,0.189l-0.178-0.218l-0.386,1.711v0.002l-0.271-0.319l-0.047,1.195l-0.201,0.5l-0.315-0.277
		l-0.031,1.195l-0.02,0.024l-0.434,0.202l-0.044,1.103l-0.146,0.396l-0.606,0.307l-2.263,7.383l-0.391,1.044
		c-0.646,0.06-0.168-0.753-0.714-0.642l-0.125,1.422l-0.096,0.003l-0.417,0.913l0.159,0.027c0.226,0.543-1.082,0.631-0.428,1.106
		l-0.545,0.168l-0.083,1.235l-0.09-0.102c-0.533,0.565,0.218,1.641-0.396,1.709l0.157,1.019l-0.175,0.456l-0.397-0.178
		c-0.439,1.477-0.959,3.437-1.319,4.801l-0.604,1.603l10.269,4.334c0.56,0.313,1.056,0.438,1.616,0.671l3.283,1.381l0.086,0.256
		c0.193,0.104,0.409,0.008,0.629,0.056l0.991,0.41l1.354-1.05c0.254-0.184,0.489-0.365,0.729-0.584l3.307-2.604l0.441-1.212
		c0.24-0.656,0.564-1.356,0.837-2.015l0.112,0.42l0.571-0.437l-0.057-0.554l0.4,0.175l0.841-2.135l-0.519,0.164l0.502-1.401
		l0.537,0.28l0.008-0.438l0.577,0.508c-0.81-0.584,0.229-1.416,0.176-1.674l0.092,0.112c0.591-0.581-0.439-0.024-0.245-0.521
		l1.248-0.09l1.147-2.701l0.148-2.164l0.637-0.368c0.483,0.385,1.383,0.026,1.286,0.913c-0.372-0.482,0.114-0.482,0.279-0.688
		l-0.607,0.06c-0.737,0.094,0.421-1.103-0.524-0.883l1.183-2.578l0.621,0.436l0.267-2.081l-0.952-0.221l-0.04-0.567l1.496-0.205
		c0.636,0.487-0.57,1.066,0.284,1.094l-0.502,1.856c0.37,0.873,0.271-0.431,0.817-0.048l0.232-1.807l-0.56-0.371
		c-0.335-1.014,0.837-0.723,0.95-0.881l0.015,0.429l0.305-1.237c0.873,0.207-0.235,0.868,0.187,1.26l0.743-0.115l-0.031-1.228
		l0.262,0.226l0.024-0.588l-0.94,0.23c-0.669-0.618,0.063-0.448,0.188-1.202l-0.544,0.132l-0.177-0.979l1.019-0.182l-0.338,0.442
		c0.168,0.916,1.071,0.103,1.188,0.722l-0.027-1.23l-0.7,0.029c-0.837-1.449,1.167-0.227,1.325-1.196
		c-0.859-0.14-0.606-1.65-1.751-1.363l0.064-0.802l0.924,0.415l0.147-0.324l0.422,0.746l1.485-0.752l-0.48-0.657l0.669-0.182
		c-0.408,0.387-0.756-0.305-0.775-0.676l0.968-0.537l0.271,0.654l0.245-0.5l-0.939-0.891l0.444-0.561l0.136,0.607l0.948-0.536
		l-0.353-0.339l0.438,0.086l-0.073-0.77l0.296,0.066c-0.083-0.341-0.563-0.922,0.137-1.044l-0.646,0.671l-0.297-0.764
		c0.714,0.307,0.355-0.689,0.519-1.004l0.72-0.28l-0.433-0.303c0.986,0.223,0.126-0.72,0.484-1.037l0.832,0.198l-1.203-0.996
		c0.432-0.631,0.83,0.48,1.38,0.447l-0.063-1.164l-0.724-0.447l0.67-0.164l-0.798-0.489l0.244-1.245l-0.514-0.949l-1-0.668
		c0.002-0.064,0.036-0.127,0.054-0.201c0.076,0.18,0.173,0.496,0.566,0.382l0.019-0.384c0.909-0.279,0.985,1.453,1.751,1.152
		l-0.172-0.482l0.824,0.308l-0.007-1.104l-0.275,0.214l-0.271-1.454l0.871,0.263l-0.132-0.639l0.26,0.122
		c0.528-1.698,1.064-3.896,0.315-5.59l1.264-1.528l-0.494-0.291l0.657-0.319l-0.102-1.697l0.439-0.078l-0.273-0.69l0.466-0.233
		l-0.355-0.119c-0.107-0.473-0.142-1.092,0.496-0.979L213.334,419.483z M191.173,470.302l0.952,0.121L191.173,470.302z"/>
	<path fill="#ADD1E2" d="M184.741,425.16l-0.001-0.283c-0.024,0.01-0.022-0.076-0.088-0.053L184.741,425.16z"/>
	<line fill="none" x1="192.134" y1="470.412" x2="191.173" y2="470.302"/>
	<polygon fill="#ADD1E2" points="199.472,460.123 199.519,459.677 199.28,459.806 	"/>
	<line fill="none" x1="200.73" y1="456.908" x2="200.777" y2="458.188"/>
	<line fill="none" x1="203.265" y1="454.842" x2="203.003" y2="454.548"/>
	<line fill="none" x1="202.995" y1="453.748" x2="202.493" y2="454.088"/>
	<line fill="none" x1="206.171" y1="447.641" x2="205.864" y2="448.227"/>
	<polygon fill="#ADD1E2" points="207.047,445.236 206.775,444.949 206.684,445.193 	"/>
	<polygon fill="#ADD1E2" points="195.97,400.145 196.242,400.293 196.304,400.021 	"/>
	<line fill="none" x1="183.955" y1="423.293" x2="184.361" y2="423.131"/>
	<polygon fill="#ADD1E2" points="181.037,436.023 181.597,436.164 181.058,435.936 	"/>
	<path fill="#ADD1E2" d="M381.739,174.226l2.469,2.589l-0.025,0.278c0.146,0.171,0.379,0.179,0.547,0.297l0.742,0.781l1.641-0.406
		c0.313-0.075,0.611-0.133,0.949-0.243l4.078-1.03l0.861-0.924c0.482-0.506,1.061-1.014,1.59-1.503l-0.07,0.43l0.686-0.179
		l0.178-0.521l0.297,0.32l1.65-1.604l-0.57-0.081l1.045-1.094l0.371,0.483l0.18-0.396l0.344,0.684
		c-0.535-0.858,0.752-1.196,0.818-1.466l0.021,0.146c0.775-0.288-0.365-0.208,0.012-0.568l1.16,0.428l2.166-2.013l0.988-1.93
		l0.738-0.083l0.789,1.361l0.586-0.52l-0.615-0.198c-0.723-0.208,0.822-0.832-0.121-1.016l2.123-1.865l0.395,0.646l1.076-1.82
		l-0.789-0.577l0.195-0.533l1.445,0.412c0.383,0.719-0.947,0.756-0.178,1.113c0.178,0.674-0.738,1.587-1.197,1.507
		c-0.023,0.94,0.402-0.292,0.75,0.287l0.939-1.565l-0.359-0.567c0.107-1.055,1.055-0.309,1.217-0.431l-0.146,0.407l0.789-1.01
		c0.715,0.56-0.58,0.686-0.346,1.229l0.723,0.194l0.482-1.137l0.143,0.313l0.236-0.534l-0.941-0.158
		c-0.357-0.84,0.242-0.394,0.68-1.023l-0.541-0.096l0.211-0.97l1.012,0.256l-0.486,0.269c-0.197,0.888,0.951,0.519,0.803,1.126
		l0.482-1.127c-0.287,0.596-0.389-0.209-0.668-0.255c-0.178-1.664,1.146,0.265,1.697-0.566c-0.738-0.481,0.121-1.75-1.051-1.948
		l0.393-0.701l0.658,0.734l0.279-0.227l0.094,0.868l1.654-0.109l-0.191-0.799l0.688,0.103c-0.541,0.196-0.572-0.577-0.436-0.905
		l1.105-0.105l-0.025,0.691l0.432-0.354l-0.51-1.214l0.639-0.313l-0.135,0.611l1.096-0.125l-0.178-0.45l0.367,0.262l0.234-0.727
		l0.242,0.171c0.076-0.333-0.127-1.063,0.564-0.9l-0.887,0.365l0.055-0.824c0.523,0.556,0.605-0.479,0.885-0.713l0.77,0.031
		l-0.27-0.445c0.818,0.586,0.381-0.62,0.854-0.741l0.674,0.503l-0.703-1.393c0.65-0.407,0.59,0.779,1.1,0.96l0.408-1.086
		l-0.463-0.69l0.65,0.109l-0.496-0.761l0.705-1.042l-0.08-1.101l-0.643-1.004c0.031-0.058,0.084-0.098,0.131-0.15
		c-0.004,0.183-0.057,0.51,0.375,0.578l0.145-0.351c0.973,0.104,0.33,1.736,1.145,1.771l0.059-0.5l0.621,0.598l0.445-1.001
		l-0.361,0.054l0.354-1.416l0.721,0.591l0.123-0.653l0.193,0.223c1.182-1.337,2.535-3.142,2.537-4.993l1.766-0.881l-0.328-0.47
		l0.73-0.026l0.594-1.593l0.438,0.112l0.027-0.742l0.521-0.035l-0.279-0.257l0.846-0.679l-0.293-0.33l1.043-2.389l-0.793,0.054
		l-0.053-0.613l0.604,0.316c1.16-0.702,1.094-2.492,1.742-3.765l-0.248-0.454l1.264-2.714l-0.818-0.876
		c-0.324-0.69,0.811-0.03,1.307-0.439l0.061-0.991l0.078,0.045l0.201-1.19l0.025,0.065l0.686-0.896l-0.266-1.177l0.227-0.038
		l-0.414-0.089l0.453-0.582l0.348,0.407c0.539-0.618-0.301-0.272-0.418-0.64c0.178-0.088-1.846-3.55-1.063-2.47
		c0.723,0.817-0.736-1.813,1.4,2.294c1.422,2.257-1.299-2.907-1.076-2.541l-0.619,0.147l-0.621-0.747l-0.84,0.027l0.41,0.781
		l-0.604-0.323l-0.428,0.11l-0.133-0.755l-1.057-0.077l0.135-1.196l-0.744,0.169l-0.146-0.472c-0.84-0.725-1.6,0.679-2.152-0.08
		l0.037-0.424l-0.463,0.054c-0.078-1.438-2.072-1.412-2.889-2.473l-0.916,0.05l-0.775-0.745l-0.127,0.717
		c-0.479-0.699-1.588,0.4-1.604-0.568l0.566-0.415c0.027-1.379-5.686,1.238-4.113,0.676l0.463,0.971l-1.359,0.25l-0.475,0.634
		l0.014-0.425l-0.795,1.384l-1.801,1.02c0.229,0.746-0.941,0.591-0.359,1.224l-0.248-0.098l0.063,1.131l-0.332-0.461l-1.041,0.355
		l0.02,0.566l-0.102,0.393l-0.303,0.814l-0.432-0.402l-0.678,0.81c-0.051,0.002-0.115,0.015-0.217,0.151l-0.572,0.269l-0.246-0.38
		l-0.156,1.146l-2.264,2.696l0.025-0.279l-0.404,0.671l-0.822,0.35l0.326,0.214l-2.164,2.197l-0.01-0.604l-0.959,2.361l-0.178-0.529
		l-0.604,1.306l0.025,0.724l-0.076-0.063l-0.617,0.994l-0.176-0.382l-1.35,0.607l0.119,0.534l-0.619,0.097l0.082,1.659l-0.074,0.088
		l-0.52-0.562l-0.246,1.334l-1.676,1.729l-0.455-0.76l-1.736,1.57c0.846,0.191-0.051,0.805,0.152,1.287l-0.23,0.241
		c-0.32,0.178-0.539-0.163-0.836-0.071l-1.627,1.911l-0.07-0.122l-1.318,2.231l-0.1,0.093l-0.146-0.354
		c-0.482,0.246-0.277,0.487-0.207,0.72l-0.229,0.236l-0.078-0.276l-1.041,1.412l-0.104-0.398l-0.521,1.057l-0.393,0.393
		l-0.178-0.389l-0.504,1.067l-0.049,0.049l-0.479,0.002l-0.506,1.017l-0.275,0.271l-0.688,0.044l-5.232,6.047l-0.578,0.589
		l-0.4-0.873c0.471,0.413-0.203,0.477-0.686,1.246l-0.09-0.034l-0.738,0.661l0.121,0.102c-0.014,0.587-1.246,0.13-0.838,0.847
		l-0.547-0.067l-0.58,1.109l-0.045-0.126l-1.053,1.389l-0.297,0.997l-0.32,0.353l-0.305-0.33c-1.063,1.235-2.42,2.951-3.299,4.045
		l-1.047,1.069l7.613,8.08C380.916,173.473,381.317,173.783,381.739,174.226z M393.977,174.396l-0.842-0.49L393.977,174.396z"/>
	<polygon fill="#ADD1E2" points="424.176,148.59 424.174,148.604 424.239,149.397 	"/>
	<polygon fill="#ADD1E2" points="431.492,114.738 431.489,114.839 431.649,114.812 	"/>
	<polygon fill="#ADD1E2" points="406.11,167.334 405.969,167.45 406.541,167.631 	"/>
	<polygon fill="#ADD1E2" points="431.201,114.598 431.492,114.738 431.516,114.423 	"/>
	<polygon fill="#ADD1E2" points="405.522,129.972 405.555,129.862 405.547,129.613 	"/>
	<line fill="none" x1="393.137" y1="173.902" x2="393.977" y2="174.396"/>
	<polygon fill="#ADD1E2" points="405.076,167.561 404.785,167.571 404.854,167.945 	"/>
	<line fill="none" x1="407.291" y1="165.502" x2="406.813" y2="166.694"/>
	<line fill="none" x1="410.457" y1="164.644" x2="410.332" y2="164.27"/>
	<line fill="none" x1="410.643" y1="163.532" x2="410.033" y2="163.635"/>
	<line fill="none" x1="416.02" y1="159.226" x2="415.502" y2="159.637"/>
	<polygon fill="#ADD1E2" points="417.801,157.387 417.666,157.019 417.475,157.199 	"/>
	<polygon fill="#ADD1E2" points="426.233,111.678 425.893,111.645 426.061,111.898 	"/>
	<line fill="none" x1="405.561" y1="127.934" x2="405.961" y2="127.938"/>
	<polygon fill="#ADD1E2" points="397.801,138.334 397.74,138.42 398.192,138.759 	"/>
	<polygon fill="#ADD1E2" points="129.01,378.037 129.061,377.939 129.039,377.68 	"/>
	<polygon fill="#ADD1E2" points="154.692,362.637 154.982,362.773 155.013,362.465 	"/>
	<polygon fill="#ADD1E2" points="147.696,396.613 147.696,396.623 147.745,397.418 	"/>
	<polygon fill="#ADD1E2" points="129.631,415.375 129.497,415.488 130.061,415.654 	"/>
	<polygon fill="#ADD1E2" points="154.982,362.773 154.978,362.885 155.136,362.845 	"/>
	<path fill="#ADD1E2" d="M161.41,365.967c0.732,0.818-0.777-1.803,1.449,2.279c0.405,0.481-0.688-1.653-1.155-2.521l-0.584,0.143
		l-0.612-0.74l-0.838,0.024l0.392,0.783l-0.566-0.317l-0.447,0.096l-0.126-0.738l-1.086-0.077l0.144-1.198l-0.733,0.166l-0.15-0.473
		c-0.835-0.734-1.587,0.676-2.138-0.083l0.028-0.42l-0.459,0.055c-0.102-1.442-2.066-1.407-2.875-2.487l-0.936,0.045l-0.771-0.74
		l-0.139,0.719c-0.473-0.698-1.56,0.398-1.599-0.569l0.586-0.421c0.012-1.387-5.691,1.312-4.108,0.708l0.449,0.979l-1.352,0.247
		l-0.481,0.636l-0.001-0.435l-0.798,1.399l-1.794,1.021c0.224,0.731-0.938,0.584-0.347,1.207l-0.266-0.092l0.063,1.137l-0.332-0.479
		l-1.042,0.364l0.042,0.564l-0.128,0.4l-0.3,0.818l-0.428-0.424l-0.68,0.815c-0.046,0.011-0.115,0.026-0.198,0.168l-0.577,0.274
		l-0.234-0.387l-0.176,1.146l-2.252,2.684l0.014-0.278l-0.407,0.675l-0.839,0.346l0.346,0.225l-2.174,2.199l-0.009-0.617
		l-0.981,2.369l-0.171-0.53l-0.581,1.327l0.021,0.707l-0.078-0.056l-0.617,0.993l-0.179-0.396l-1.326,0.615l0.133,0.534
		l-0.637,0.081l0.088,1.663l-0.083,0.076l-0.512-0.56l-0.223,1.326l-1.701,1.739l-0.452-0.772l-1.735,1.58
		c0.824,0.188-0.021,0.811,0.17,1.287l-0.266,0.236c-0.322,0.169-0.527-0.165-0.816-0.077l-1.619,1.909l-0.091-0.127l-1.289,2.209
		l-0.095,0.109l-0.179-0.354c-0.453,0.253-0.271,0.472-0.187,0.711l-0.229,0.25l-0.068-0.258l-1.016,1.387l-0.032,0.021l-0.11-0.41
		l-0.534,1.066l-0.391,0.389l-0.162-0.389l-0.516,1.07l-0.032,0.057l-0.479,0.004l-0.476,0.979l-0.298,0.313l-0.688,0.037
		l-5.226,6.016l-0.597,0.624l-0.388-0.874c0.438,0.41-0.229,0.48-0.699,1.247l-0.078-0.038l-0.748,0.663l0.125,0.103
		c-0.011,0.594-1.248,0.114-0.826,0.842l-0.564-0.074l-0.565,1.111l-0.061-0.127l-1.062,1.385l-0.271,1.019l-0.33,0.344
		l-0.297-0.331c-1.027,1.196-2.339,2.826-3.234,3.928l-1.136,1.174l7.667,8.084c0.372,0.513,0.785,0.824,1.191,1.269l2.466,2.578
		l-0.025,0.28c0.148,0.165,0.375,0.173,0.542,0.281l0.753,0.791l1.654-0.426c0.3-0.063,0.604-0.127,0.923-0.229l4.097-1.041
		l0.873-0.913c0.479-0.515,1.044-1.019,1.574-1.524l-0.049,0.434l0.669-0.174l0.183-0.523l0.304,0.33l1.644-1.604l-0.55-0.101
		l1.022-1.094l0.39,0.487l0.154-0.396l0.354,0.694c-0.535-0.859,0.76-1.207,0.818-1.477l0.024,0.143
		c0.782-0.286-0.371-0.2,0.004-0.561l1.163,0.42l2.164-2.012l0.992-1.951l0.728-0.066l0.793,1.354l0.59-0.526l-0.619-0.188
		c-0.721-0.222,0.82-0.839-0.119-1.025l2.125-1.877l0.397,0.658l1.063-1.807l-0.78-0.582l0.196-0.544l1.452,0.415
		c0.396,0.713-0.959,0.763-0.188,1.111c0.178,0.676-0.74,1.594-1.195,1.502c-0.011,0.942,0.404-0.28,0.762,0.293l0.929-1.564
		l-0.353-0.564c0.106-1.051,1.052-0.326,1.209-0.432l-0.15,0.398l0.791-0.998c0.719,0.535-0.581,0.685-0.35,1.229l0.732,0.196
		l0.459-1.146l0.16,0.32l0.24-0.535l-0.941-0.164c-0.358-0.846,0.235-0.395,0.656-1.037l-0.535-0.084l0.22-0.961l1.014,0.243
		l-0.484,0.271c-0.211,0.893,0.942,0.522,0.79,1.137l0.475-1.146c-0.276,0.611-0.371-0.188-0.653-0.233
		c-0.188-1.654,1.138,0.26,1.694-0.573c-0.735-0.484,0.118-1.758-1.058-1.949l0.395-0.711l0.666,0.738l0.262-0.23l0.086,0.861
		l1.676-0.084l-0.173-0.805l0.674,0.099c-0.542,0.205-0.575-0.579-0.432-0.901l1.104-0.119l-0.025,0.699l0.434-0.349l-0.5-1.196
		l0.631-0.33l-0.136,0.607l1.11-0.114l-0.201-0.45l0.384,0.276l0.229-0.737l0.244,0.17c0.075-0.344-0.127-1.063,0.56-0.893
		l-0.879,0.367l0.03-0.84c0.544,0.57,0.614-0.476,0.885-0.709l0.788,0.045l-0.266-0.457c0.794,0.585,0.385-0.615,0.852-0.736
		l0.672,0.497l-0.696-1.396c0.662-0.398,0.566,0.776,1.092,0.965c-0.188-0.688,0.792-0.399,0.411-1.088l-0.477-0.69l0.656,0.104
		l-0.521-0.758l0.719-1.045l-0.077-1.088l-0.648-0.997c0.033-0.057,0.081-0.116,0.111-0.157c0.025,0.182-0.021,0.512,0.39,0.572
		l0.168-0.355c0.957,0.119,0.309,1.744,1.107,1.774l0.066-0.497l0.624,0.598l0.449-0.998l-0.353,0.066l0.345-1.434l0.701,0.597
		l0.135-0.642l0.184,0.218c1.19-1.347,2.552-3.134,2.536-4.998l1.783-0.883l-0.325-0.472l0.704-0.024l0.619-1.584l0.422,0.104
		l0.044-0.74l0.521-0.026l-0.291-0.255l0.854-0.688l-0.303-0.332l1.044-2.369l-0.803,0.025l-0.044-0.607l0.604,0.318
		c1.163-0.687,1.109-2.484,1.746-3.748l-0.235-0.463l1.262-2.723l-0.813-0.866c-0.331-0.688,0.806-0.024,1.313-0.44l0.04-0.982
		l0.076,0.023l0.23-1.188l0.006,0.064l0.687-0.883l-0.273-1.191l0.223-0.026l-0.419-0.101l0.464-0.569l0.362,0.396
		c0.533-0.604-0.319-0.271-0.433-0.644C160.669,364.727,161.806,367.064,161.41,365.967z M116.665,421.951l0.83,0.487
		L116.665,421.951z"/>
	<polygon fill="#ADD1E2" points="159.44,365.58 159.485,365.606 159.659,365.566 	"/>
	<path fill="#ADD1E2" d="M161.7,365.724l0.03,0.003C161.394,365.125,161.498,365.33,161.7,365.724z"/>
	<line fill="none" x1="116.665" y1="421.951" x2="117.496" y2="422.441"/>
	<polygon fill="#ADD1E2" points="128.384,415.986 128.6,415.59 128.313,415.611 	"/>
	<line fill="none" x1="130.827" y1="413.539" x2="130.353" y2="414.72"/>
	<line fill="none" x1="133.981" y1="412.691" x2="133.838" y2="412.296"/>
	<line fill="none" x1="134.167" y1="411.568" x2="133.564" y2="411.668"/>
	<line fill="none" x1="139.544" y1="407.261" x2="139.024" y2="407.668"/>
	<polygon fill="#ADD1E2" points="141.308,405.418 141.178,405.039 141.014,405.226 	"/>
	<polygon fill="#ADD1E2" points="149.377,359.677 149.559,359.939 149.723,359.715 	"/>
	<line fill="none" x1="129.029" y1="375.99" x2="129.454" y2="375.994"/>
	<polygon fill="#ADD1E2" points="121.675,386.815 121.29,386.397 121.224,386.483 	"/>
	<path fill="#ADD1E2" d="M434.485,204.37l-0.021-0.382c-0.514,0.039-0.428,0.333-0.469,0.569l-0.285,0.129l0.027-0.271l-1.537,0.866
		l0.07-0.413l-0.93,0.755l-0.498,0.199l0.023-0.415l-0.914,0.78l-0.053,0.022l-0.436-0.191l-0.859,0.713l-0.383,0.149l-0.637-0.246
		l-7.209,3.408l-0.801,0.329c-0.521-0.439,0.447-0.627-0.018-0.964c0.264,0.577-0.373,0.351-1.123,0.876l-0.057-0.076l-0.939,0.31
		l0.061,0.144c-0.246,0.544-1.188-0.377-1.105,0.428l-0.48-0.28l-0.953,0.789l0.004-0.132c-0.773-0.032-1.074,1.253-1.549,0.832
		l-0.646,0.811l-0.445,0.184l-0.145-0.413c-1.381,0.667-3.199,1.61-4.438,2.264l-1.574,0.63l3.736,10.52
		c0.127,0.617,0.395,1.077,0.588,1.653l1.191,3.34l-0.131,0.234c0.063,0.221,0.266,0.3,0.383,0.48l0.371,1.021l1.703,0.28
		c0.293,0.064,0.594,0.127,0.898,0.147l4.164,0.693l1.195-0.493c0.648-0.27,1.4-0.488,2.068-0.755l-0.23,0.381l0.674,0.109
		l0.377-0.4l0.15,0.413l2.141-0.808l-0.457-0.289l1.371-0.594l0.158,0.605l0.305-0.3l0.029,0.773
		c-0.119-0.997,1.189-0.792,1.352-1.005l-0.023,0.149c0.816,0.043-0.271-0.339,0.209-0.525l0.906,0.862l2.777-0.968l1.699-1.374
		c0.586-0.188,0.229,0.751,0.703,0.227c0.025,0.624,0.908,1.053,0.184,1.569l0.738-0.245l-0.488-0.436
		c-0.576-0.477,1.092-0.426,0.316-0.968l2.699-0.859l0.107,0.763l1.689-1.243l-0.473-0.842l0.391-0.398
		c0.27,0.428,0.479,1.168,1.158,0.953c0.076,0.804-1.174,0.313-0.637,0.94l-1.691,0.896c-0.383,0.857,0.506-0.083,0.586,0.583
		l1.48-1.068l-0.082-0.658c0.516-0.92,1.078,0.136,1.287,0.104l-0.305,0.304l1.102-0.608c0.453,0.806-0.787,0.394-0.789,0.991
		l0.574,0.472c0.84-0.207-0.01-0.772,0.902-0.85v0.348l0.438-0.38l-0.797-0.531l1.043-0.672l-0.48-0.304l0.586-0.786l0.828,0.625
		l-0.535,0.062l0.258,1.36l0.887-0.855c-0.49,0.436-0.258-0.333-0.477-0.483c0.482-1.604,0.939,0.7,1.77,0.15
		c-0.469-0.726,0.805-1.551-0.178-2.199l0.639-0.494l0.322,0.942l0.332-0.105l-0.279,0.824l1.553,0.585l0.18-0.801l0.594,0.371
		l-0.055-1.012l1.051,0.34l-0.287,0.633l0.533-0.15l0.006-1.307l0.73-0.035l-0.383,0.496c0.609-0.354,0.467,0.791,1.059,0.335
		v-0.484l0.242,0.395l0.506-0.583l0.145,0.258l0.869-0.595l-0.938-0.017c-0.484-0.39,0.291-0.634,0.375-0.742
		c0.256,0.728,0.746-0.199,1.08-0.311l0.695,0.352l-0.039-0.501c0.48,0.848,0.576-0.415,1.063-0.349l0.416,0.726l-0.082-1.552
		c0.762-0.109,0.229,0.944,0.6,1.314l0.818-0.83l-0.133-0.824l0.564,0.376l-0.172-0.897l1.082-0.672l-0.279,0.75
		c0.871-0.394-0.045-1.254,0.639-1.784l-0.186-1.179c0.051-0.038,0.115-0.064,0.178-0.088c-0.064,0.162-0.256,0.438,0.109,0.674
		l0.283-0.256l0.324,2.075l0.256-0.438l0.33,0.802l0.816-0.738l-0.348-0.073l0.887-1.171l0.41,0.81l0.389-0.531l0.078,0.287
		c1.627-0.761,3.598-1.857,4.34-3.552l1.986-0.083l-0.127-0.567l0.688,0.267l1.195-1.207l0.35,0.282l0.334-0.671l0.473,0.188
		l-0.143-0.331c0.271-0.425,0.707-0.862,1.043-0.302l-0.137-0.426l1.934-1.756l-0.768-0.283l0.211-0.574l0.43,0.536l3.121-2.746
		l-0.064-0.511l2.266-1.981l-0.387-1.127c-0.035-0.756,0.736,0.313,1.361,0.129l0.443-0.88l0.066,0.068l0.674-1l-0.004,0.068
		l0.986-0.541l0.23-1.188l0.223,0.065l-0.334-0.248l0.639-0.333l0.17,0.501c0.742-0.354-0.186-0.382-0.125-0.768
		c-0.193-4.097-0.104-1.501-0.025-2.665c0.352,1.038,0.023-1.961,0.396,2.662c0.197,0.636,0.039-1.792-0.027-2.773l-0.596-0.093
		l-0.262-0.941l-0.789-0.314l0.076,0.876l-0.436-0.535l-0.438-0.082l0.188-0.729l-0.939-0.515c0.354-0.314,0.945-0.413,0.617-1.03
		l-0.77-0.147l0.057-0.49c-0.482-1.002-1.715-0.017-1.912-0.945l0.184-0.362l-0.416-0.138c0.479-1.352-1.35-2.131-1.662-3.433
		c-0.49,0.487-0.506-0.305-0.85-0.336c0.6-0.4-0.535-0.451-0.418-0.993l-0.436,0.599c-0.145-0.841-1.57-0.27-1.201-1.158
		l0.686-0.155c0.574-1.262-5.734-1.044-4.045-0.966l0.023,1.068l-1.348-0.325l-0.689,0.398l0.182-0.382l-1.295,0.94l-2.061,0.212
		c-0.115,0.751-1.092,0.15-0.826,0.967l-0.186-0.189l-0.387,1.063l-0.123-0.567c-0.205-0.68-0.891,0.206-1.096-0.09l-0.193,0.535
		l-0.281,0.304l-0.611,0.641l-0.209-0.548l-0.947,0.456c-0.035-0.015-0.09-0.019-0.236,0.072l-0.629,0.022l-0.078-0.456
		l-0.625,0.976l-3.131,1.55l0.115-0.231l-0.629,0.45l-0.918-0.016l0.207,0.331l-2.865,1.136l0.24-0.576l-1.84,1.779l0.025-0.558
		l-1.047,0.979l-0.279,0.653l-0.047-0.096l-0.943,0.636l-0.016-0.426l-1.465,0.025l-0.104,0.537l-0.613-0.173l-0.576,1.552
		l-0.127,0.042l-0.236-0.714l-0.727,1.123l-2.262,0.897l-0.102-0.875l-2.238,0.734c0.705,0.52-0.34,0.727-0.361,1.237l-0.322,0.125
		c-0.381,0.026-0.428-0.38-0.727-0.391l-2.264,1.076l-0.027-0.146l-2.107,1.524L434.485,204.37z M421.063,232.208l0.557,0.763
		L421.063,232.208z"/>
	<line fill="none" x1="421.063" y1="232.208" x2="421.619" y2="232.972"/>
	<path fill="#ADD1E2" d="M99.49,341.941l0.021-0.482l0.234,0.393l0.501-0.584l0.162,0.266l0.873-0.595l-0.941-0.023
		c-0.486-0.382,0.276-0.627,0.377-0.737c0.24,0.73,0.73-0.188,1.083-0.303l0.697,0.354l-0.073-0.526
		c0.504,0.863,0.604-0.407,1.084-0.331l0.413,0.736l-0.074-1.555c0.76-0.104,0.214,0.943,0.624,1.318l0.802-0.84l-0.153-0.818
		l0.566,0.365l-0.17-0.899L106.6,337l-0.271,0.761c0.853-0.382-0.072-1.247,0.645-1.782l-0.222-1.181
		c0.084-0.022,0.127-0.06,0.193-0.088c-0.061,0.179-0.255,0.451,0.112,0.688l0.295-0.262l0.309,2.068l0.255-0.434l0.332,0.804
		l0.817-0.737l-0.343-0.096l0.889-1.159l0.404,0.82l0.385-0.535l0.084,0.279c1.617-0.748,3.588-1.849,4.333-3.538l1.988-0.077
		l-0.127-0.57l0.679,0.268l1.196-1.198l0.356,0.272l0.324-0.652l0.495,0.176l-0.16-0.329c0.28-0.403,0.712-0.853,1.048-0.283
		l-0.153-0.435l1.927-1.753l-0.741-0.277l0.196-0.585l0.439,0.535l3.104-2.743l-0.063-0.508l2.271-1.979l-0.399-1.133
		c-0.031-0.757,0.742,0.314,1.358,0.127l0.448-0.891l0.056,0.074l0.673-1.009l-0.004,0.079l0.985-0.542l0.236-1.19l0.221,0.066
		l-0.371-0.26l0.679-0.336l0.152,0.508c0.724-0.354-0.179-0.383-0.144-0.771c0.201,0.007-0.217-3.979,0.045-2.672
		c0.32,1.029,0.079-1.959,0.352,2.648c0.38,2.647-0.017-3.171,0.053-2.737l-0.633-0.128l-0.256-0.94l-0.791-0.315l0.062,0.886
		l-0.403-0.535l-0.437-0.073l0.188-0.737l-0.953-0.496c0.358-0.324,0.965-0.437,0.626-1.04l-0.765-0.146l0.054-0.484
		c-0.462-0.992-1.712-0.023-1.933-0.942l0.205-0.354l-0.422-0.135c0.484-1.359-1.348-2.123-1.653-3.444
		c-0.498,0.501-0.498-0.28-0.853-0.317c0.597-0.396-0.534-0.46-0.421-0.992l-0.417,0.592c-0.153-0.84-1.604-0.274-1.229-1.164
		l0.686-0.143c0.57-1.254-5.719-1.147-4.022-1.039l0.031,1.091l-1.356-0.337l-0.681,0.405l0.171-0.383l-1.281,0.938l-2.073,0.215
		c-0.077,0.766-1.093,0.149-0.81,0.968l-0.192-0.188l-0.391,1.043l-0.116-0.56c-0.186-0.691-0.89,0.205-1.1-0.1l-0.178,0.533
		l-0.28,0.319l-0.608,0.632l-0.221-0.533l-0.958,0.439c-0.05-0.015-0.097-0.005-0.239,0.077l-0.634,0.019l-0.073-0.443l-0.61,0.969
		l-3.15,1.552l0.131-0.229l-0.647,0.434l-0.899-0.003l0.206,0.323l-2.867,1.133l0.243-0.565l-1.825,1.777l0.021-0.556l-1.076,0.961
		l-0.266,0.654l-0.043-0.078l-0.96,0.65v-0.43l-1.479,0.025l-0.102,0.535l-0.591-0.165l-0.583,1.555l-0.127,0.048l-0.238-0.725
		l-0.755,1.122l-2.24,0.896l-0.104-0.875l-2.197,0.737c0.655,0.516-0.381,0.726-0.398,1.23l-0.32,0.128
		c-0.369,0.025-0.427-0.372-0.711-0.394l-2.267,1.087l-0.021-0.133l-2.129,1.509l-0.1,0.045l0.001-0.383
		c-0.555,0.035-0.434,0.333-0.482,0.585l-0.305,0.104l0.062-0.242l-1.536,0.847l0.063-0.407l-0.914,0.739l-0.513,0.229l-0.016-0.438
		l-0.887,0.794l-0.05,0.008l-0.434-0.182l-0.896,0.732l-0.326,0.141l-0.651-0.242l-7.088,3.355l-0.934,0.372
		c-0.482-0.434,0.451-0.636,0.007-0.959c0.247,0.573-0.393,0.347-1.137,0.872l-0.077-0.067l-0.942,0.293l0.071,0.145
		c-0.239,0.539-1.194-0.39-1.104,0.439l-0.458-0.279l-0.979,0.777l0.007-0.132c-0.773-0.024-1.075,1.247-1.552,0.842l-0.633,0.809
		l-0.459,0.178l-0.142-0.425c-1.493,0.711-3.477,1.769-4.715,2.383l-1.328,0.525l3.729,10.488c0.118,0.604,0.362,1.055,0.584,1.614
		l1.185,3.375l-0.12,0.248c0.06,0.23,0.279,0.332,0.401,0.522l0.354,1.004l1.645,0.282c0.313,0.057,0.607,0.11,0.952,0.151
		l4.147,0.676l1.186-0.471c0.661-0.27,1.405-0.483,2.063-0.749l-0.219,0.382l0.675,0.107l0.395-0.393l0.126,0.402l2.141-0.809
		l-0.458-0.304l1.376-0.585l0.166,0.607l0.297-0.301l0.031,0.782c-0.139-1.004,1.195-0.803,1.361-1.015l-0.032,0.152
		c0.817,0.036-0.255-0.346,0.214-0.529l0.905,0.856l2.784-0.978l1.694-1.352c0.578-0.198,0.219,0.734,0.698,0.229
		c0.055,0.607,0.917,1.043,0.185,1.563l0.753-0.255l-0.484-0.432c-0.582-0.479,1.069-0.438,0.289-0.965l2.7-0.86l0.105,0.745
		l1.695-1.237l-0.487-0.841l0.414-0.408c0.263,0.438,0.473,1.179,1.153,0.961c0.063,0.802-1.177,0.313-0.618,0.942l-1.725,0.89
		c-0.378,0.852,0.512-0.098,0.61,0.575l1.475-1.046l-0.082-0.67c0.513-0.928,1.084,0.137,1.271,0.104l-0.313,0.295l1.151-0.598
		c0.42,0.803-0.819,0.385-0.836,0.988l0.583,0.475c0.857-0.2-0.022-0.774,0.897-0.842l0.006,0.341l0.467-0.364l-0.814-0.544
		l1.024-0.685l-0.463-0.299l0.594-0.789l0.798,0.63l-0.557,0.05l0.291,1.369l0.891-0.858c-0.51,0.448-0.258-0.322-0.501-0.482
		c0.51-1.604,0.942,0.706,1.792,0.156c-0.491-0.737,0.803-1.552-0.194-2.2l0.633-0.494l0.324,0.948l0.351-0.107l-0.272,0.841
		l1.553,0.576l0.155-0.797l0.583,0.38l-0.02-1.026l1.042,0.339l-0.294,0.638l0.544-0.137l0.008-1.318l0.722-0.026l-0.365,0.494
		L99.49,341.941z M68.016,347.671l0.552,0.764L68.016,347.671z"/>
	<polygon fill="#ADD1E2" points="126.949,308.98 126.899,309.076 127.085,309.135 	"/>
	<polygon fill="#ADD1E2" points="129.887,313.351 129.921,313.369 130.092,313.408 	"/>
	<polygon fill="#ADD1E2" points="126.741,308.74 126.949,308.98 127.103,308.697 	"/>
	<polygon fill="#ADD1E2" points="97.052,312.447 97.118,312.368 97.239,312.124 	"/>
	<polygon fill="#ADD1E2" points="82.51,346.857 82.351,346.917 82.79,347.304 	"/>
	<line fill="none" x1="68.016" y1="347.671" x2="68.569" y2="348.435"/>
	<polygon fill="#ADD1E2" points="81.124,346.917 81.48,346.656 81.201,346.553 	"/>
	<line fill="none" x1="84.341" y1="345.667" x2="83.423" y2="346.553"/>
	<line fill="none" x1="87.598" y1="345.748" x2="87.548" y2="346.155"/>
	<line fill="none" x1="87.607" y1="345.074" x2="88.188" y2="345.207"/>
	<line fill="none" x1="94.844" y1="343.447" x2="94.192" y2="343.608"/>
	<polygon fill="#ADD1E2" points="97.204,342.462 97.234,342.076 96.995,342.173 	"/>
	<polygon fill="#ADD1E2" points="123.147,304.202 123.405,304.074 123.067,303.89 	"/>
	<line fill="none" x1="97.894" y1="310.593" x2="98.268" y2="310.77"/>
	<polygon fill="#ADD1E2" points="86.787,317.535 86.606,316.98 86.512,317.032 	"/>
	<path fill="#ADD1E2" d="M494.994,292.137l-0.52-0.351l0.129-0.972l-0.605-0.597l-0.285,0.843l-0.162-0.661l-0.369-0.253
		l0.461-0.587l-0.662-0.855l0.994-0.691l-0.641-0.436l0.23-0.434c-0.025-1.107-1.553-0.723-1.365-1.649l0.32-0.253l-0.332-0.289
		c0.998-1.048-0.357-2.495-0.127-3.814c-0.629,0.261-0.324-0.475-0.637-0.638c0.711-0.123-0.309-0.636,0.023-1.071l-0.637,0.36
		c0.195-0.813-1.352-0.878-0.645-1.552l0.703,0.146c1.035-0.918-4.781-3.345-3.293-2.562l-0.406,0.991l-1.088-0.841l-0.805,0.091
		l0.303-0.279l-1.539,0.331l-1.973-0.638l-1.146,0.559l-0.094-0.25l-0.789,0.817l0.119-0.58c0.096-0.695-0.873-0.151-0.953-0.515
		l-0.396,0.402l-0.383,0.17l-0.799,0.331l0.027-0.578l-1.055,0.033c-0.051-0.024-0.088-0.056-0.271-0.033l-0.576-0.239l0.127-0.434
		l-0.965,0.636c-1.09-0.444-3.025-0.071-3.51,0.15l0.217-0.155l-0.787,0.158l-0.803-0.389l0.066,0.393
		c-0.867-0.704-2.039,0.374-3.098-0.126l0.461-0.413l-2.402,0.878l0.275-0.482l-1.209,0.396c0.127,0.347-0.377,0.646-0.688,0.539
		l-0.021-0.096l-1.125,0.229l0.18-0.383c-0.109-0.732-1.252-0.496-1.357-0.582l-0.32,0.44l-0.473-0.383l-1.17,1.189l-0.123-0.003
		l0.057-0.764l-1.141,0.729l-2.41-0.077l0.248-0.851l-2.342-0.222c0.436,0.741-0.58,0.528-0.82,0.966h-0.23l-0.605-0.645
		l-2.523,0.068l0.035-0.127l-2.521,0.532l-0.127-0.005l0.143-0.365c-0.496-0.188-0.527,0.145-0.645,0.344l-0.332-0.016l0.131-0.215
		l-1.723,0.177h-0.018l0.215-0.354l-1.131,0.318l-0.547-0.025l0.158-0.38l-1.188,0.346v0.01l-0.32-0.354l-1.076,0.303l-0.393-0.02
		l-0.518-0.483l-7.809,0.225l-1.014-0.023c-0.279-0.608,0.65-0.403,0.381-0.876c0.014,0.61-0.486,0.143-1.398,0.331l-0.025-0.089
		l-0.973-0.114l-0.01,0.172c-0.441,0.383-0.941-0.841-1.195-0.044l-0.32-0.456l-1.193,0.329l0.057-0.134
		c-0.688-0.326-1.484,0.729-1.742,0.163l-0.916,0.479l-0.484-0.021l0.031-0.434c-1.635,0.038-3.84,0.188-5.221,0.263l-1.477-0.035
		l-0.814,11.068c-0.137,0.637-0.08,1.146-0.143,1.763l-0.24,3.537l-0.229,0.167c-0.039,0.233,0.127,0.434,0.174,0.64l-0.094,1.068
		l1.398,0.916c0.277,0.185,0.502,0.355,0.813,0.516l3.523,2.315l1.283,0.037c0.688,0.025,1.455,0.108,2.164,0.146l-0.355,0.241
		l0.586,0.39l0.516-0.222l-0.039,0.43l2.301,0.128l-0.316-0.472l1.502,0.021l-0.092,0.613l0.398-0.148l-0.281,0.724
		c0.289-0.961,1.398-0.234,1.623-0.382l-0.074,0.127c0.736,0.383-0.104-0.423,0.395-0.389l0.5,1.15l2.926,0.229l2.111-0.558
		l0.551,0.482c-0.219,0.587,0.416,1.329-0.48,1.503c0.332-0.501,0.51-0.033,0.756,0.03l-0.262-0.542
		c-0.322-0.677,1.195,0.052,0.688-0.781l2.814,0.313l-0.205,0.73l2.035-0.439l-0.092-0.969l0.535-0.207l0.668,1.337
		c-0.264,0.78-1.211-0.184-0.943,0.627l-1.922,0.128c-0.705,0.613,0.479,0.116,0.313,0.761l1.766-0.361l0.178-0.661
		c0.842-0.632,0.955,0.576,1.145,0.621l-0.395,0.146l1.256-0.087c0.084,0.9-0.889,0.039-1.145,0.57l0.352,0.672
		c0.861,0.148,0.311-0.72,1.168-0.429l-0.125,0.33l0.541-0.173l-0.506-0.809c0.383-0.842,0.432-0.083,1.195-0.212l-0.279-0.468
		l0.859-0.484l0.482,0.901l-0.535-0.171c-0.789,0.449,0.258,1.034-0.291,1.354l1.152-0.429l-0.26-0.654
		c1.113-1.246,0.572,1.037,1.57,0.885c-0.16-0.878,1.365-1.104,0.732-2.095l0.789-0.212l-0.098,0.998l0.348,0.038l-0.582,0.648
		l1.193,1.154l0.473-0.656l0.371,0.568l0.389-0.942l0.818,0.738l-0.525,0.468l0.549,0.074l0.545-1.19l0.672,0.262l-0.537,0.313
		l0.816,0.727l0.219-0.438l0.045,0.446l0.699-0.322l0.039,0.296c0.305-0.168,0.701-0.802,1.025-0.192l-0.842-0.395
		c-0.289-0.547,0.535-0.453,0.637-0.526c-0.049,0.769,0.764,0.126,1.125,0.154l0.496,0.605l0.158-0.503
		c0.104,0.99,0.699-0.128,1.107,0.128l0.094,0.841l0.549-1.452l0.021,1.449l1.068-0.433l0.209-0.818l0.371,0.581l0.193-0.899
		l1.289-0.184l-0.564,0.584c0.932-0.02,0.441-1.169,1.299-1.381l0.301-1.151c0.064,0.005,0.127-0.005,0.201,0
		c-0.125,0.128-0.418,0.312-0.18,0.659l0.383-0.091c0.549,0.758-1.082,1.381-0.555,2.002l0.402-0.298l-0.025,0.873l1.041-0.345
		l-0.275-0.217l1.275-0.696l0.061,0.911l0.559-0.342l-0.039,0.282c1.777-0.038,4.02-0.239,5.383-1.499l1.855,0.715l0.121-0.55
		l0.494,0.509l1.59-0.629l0.215,0.394l0.572-0.467l0.383,0.355l-0.016-0.372c0.42-0.271,0.996-0.481,1.078,0.158l0.035-0.461
		l2.473-0.818l-0.578-0.561l0.428-0.446l0.148,0.65c1.328,0.384,2.604-0.857,3.973-1.245l0.16-0.483l2.854-0.906l0.096-1.195
		c0.299-0.69,0.564,0.593,1.217,0.687l0.77-0.635l0.025,0.086l1.018-0.643l-0.049,0.061l1.125-0.104l0.701-0.987l0.18,0.144
		l-0.227-0.356l0.73-0.057l-0.074,0.525c0.83-0.021,0.006-0.42,0.186-0.759c1.545-3.801,0.537-1.402,1.107-2.427
		c-0.113,1.078,0.832-1.776-0.738,2.573C493.149,297.229,495.102,291.733,494.994,292.137z M423.059,296.791l0.215,0.938
		L423.059,296.791z"/>
	<line fill="none" x1="423.059" y1="296.791" x2="423.274" y2="297.726"/>
	<path fill="#ADD1E2" d="M57.308,262.171l-0.311-0.47l1.498,0.021l-0.092,0.613l0.396-0.152l-0.279,0.729
		c0.29-0.961,1.396-0.252,1.639-0.391l-0.081,0.134c0.742,0.379-0.104-0.426,0.409-0.402l0.484,1.15l2.921,0.232l2.115-0.553
		l0.547,0.479c-0.213,0.583,0.42,1.341-0.456,1.504c0.35-0.496,0.505-0.025,0.757,0.045l-0.262-0.556
		c-0.326-0.671,1.178,0.049,0.682-0.774l2.804,0.309l-0.203,0.735l2.048-0.451l-0.081-0.952l0.512-0.229l0.671,1.333
		c-0.251,0.788-1.189-0.178-0.941,0.627l-1.926,0.129c-0.688,0.625,0.482,0.116,0.313,0.763l1.779-0.36l0.168-0.648
		c0.862-0.646,0.95,0.564,1.14,0.607l-0.396,0.15l1.265-0.088c0.091,0.908-0.865,0.035-1.144,0.564l0.363,0.68
		c0.844,0.146,0.281-0.715,1.152-0.419l-0.125,0.324l0.559-0.173l-0.52-0.81c0.382-0.835,0.446-0.086,1.207-0.206l-0.298-0.459
		l0.857-0.488l0.483,0.901l-0.516-0.177c-0.785,0.455,0.255,1.052-0.306,1.357l1.163-0.424l-0.255-0.655
		c1.103-1.245,0.558,1.021,1.571,0.863c-0.167-0.859,1.354-1.094,0.713-2.071l0.779-0.212l-0.088,1.006l0.344,0.033l-0.565,0.644
		l1.189,1.175l0.475-0.676l0.401,0.583l0.354-0.943l0.833,0.751l-0.52,0.454l0.545,0.072l0.549-1.176l0.669,0.242l-0.546,0.32
		l0.822,0.726l0.206-0.447l0.063,0.46l0.689-0.325l0.054,0.301c0.29-0.181,0.693-0.815,1.031-0.209l-0.848-0.382
		c-0.291-0.557,0.525-0.462,0.624-0.54c-0.047,0.779,0.779,0.127,1.125,0.166l0.487,0.613l0.172-0.506
		c0.119,0.98,0.715-0.136,1.113,0.127l0.093,0.842l0.547-1.453l0.021,1.454l1.106-0.436l0.193-0.817l0.356,0.567l0.21-0.897
		l1.269-0.188l-0.562,0.589c0.943-0.018,0.44-1.187,1.301-1.387l0.306-1.167c0.059,0.002,0.132,0,0.197,0.003
		c-0.132,0.137-0.403,0.31-0.175,0.66l0.371-0.104c0.555,0.761-1.087,1.383-0.539,2.018l0.394-0.298l-0.005,0.862l1.021-0.341
		l-0.277-0.214l1.292-0.699l0.038,0.906l0.569-0.339l-0.042,0.282c1.798-0.035,4.041-0.235,5.4-1.493l1.85,0.72l0.12-0.563
		l0.514,0.52l1.568-0.636l0.235,0.391l0.566-0.463l0.381,0.355l-0.034-0.383c0.423-0.262,1.019-0.495,1.081,0.17l0.035-0.451
		l2.478-0.84l-0.56-0.554l0.411-0.455l0.16,0.67c1.311,0.371,2.593-0.87,3.959-1.264l0.177-0.481l2.845-0.904l0.106-1.188
		c0.286-0.7,0.558,0.585,1.204,0.662l0.75-0.627l0.042,0.089l1.019-0.645l-0.029,0.049l1.105-0.101l0.688-0.987l0.183,0.142
		l-0.22-0.365l0.741-0.038l-0.071,0.519c0.823-0.026-0.018-0.421,0.188-0.75c1.511-3.821,0.529-1.408,1.095-2.443
		c-0.107,1.082,0.781-1.788-0.725,2.59c-0.092,0.652,0.742-1.618,1.096-2.532l-0.521-0.362l0.146-0.954l-0.604-0.597l-0.283,0.835
		l-0.165-0.661l-0.365-0.255l0.449-0.592l-0.642-0.836l0.955-0.701l-0.625-0.451l0.269-0.414c-0.036-1.112-1.579-0.72-1.386-1.641
		l0.327-0.25l-0.335-0.297c0.989-1.053-0.368-2.484-0.122-3.818c-0.661,0.255-0.349-0.474-0.67-0.649
		c0.733-0.105-0.3-0.625,0.029-1.055l-0.628,0.363c0.205-0.83-1.337-0.891-0.646-1.552l0.703,0.147
		c1.014-0.939-4.842-3.29-3.313-2.542l-0.407,1.002l-1.096-0.84l-0.794,0.087l0.315-0.29l-1.561,0.344l-1.959-0.63l-1.146,0.546
		l-0.112-0.251l-0.79,0.813l0.119-0.563c0.092-0.704-0.876-0.159-0.957-0.521l-0.405,0.398l-0.382,0.167l-0.8,0.339l0.023-0.59
		l-1.057,0.042c-0.024-0.032-0.093-0.066-0.265-0.042l-0.575-0.242l0.126-0.426l-0.974,0.637c-1.084-0.44-3.025-0.078-3.502,0.152
		l0.213-0.166l-0.775,0.147l-0.802-0.368l0.063,0.386c-0.865-0.71-2.03,0.375-3.08-0.127l0.44-0.416l-2.387,0.891l0.258-0.499
		l-1.208,0.396c0.141,0.343-0.377,0.649-0.688,0.541l-0.016-0.097l-1.126,0.226l0.173-0.387c-0.11-0.713-1.234-0.494-1.358-0.572
		l-0.303,0.453l-0.482-0.394l-1.151,1.19l-0.144-0.007l0.064-0.769l-1.133,0.735l-2.409-0.079l0.254-0.854l-2.341-0.226
		c0.431,0.749-0.613,0.521-0.842,0.982l-0.247-0.01l-0.605-0.651l-2.521,0.077l0.051-0.139l-2.539,0.529l-0.123-0.005l0.136-0.355
		c-0.493-0.187-0.528,0.146-0.662,0.333l-0.312,0.006l0.13-0.231l-1.694,0.179l-0.027-0.002l0.203-0.358l-1.133,0.325l-0.55-0.016
		l0.176-0.396l-1.163,0.364l-0.021-0.001L71.7,239.47l-1.083,0.309l-0.391-0.019l-0.502-0.484l-7.888,0.22l-0.941-0.039
		c-0.29-0.603,0.661-0.398,0.383-0.871c0.007,0.622-0.495,0.162-1.386,0.331l-0.026-0.086l-0.993-0.11l-0.007,0.169
		c-0.438,0.395-0.94-0.836-1.193-0.052l-0.315-0.443l-1.188,0.331l0.046-0.13c-0.689-0.333-1.475,0.717-1.738,0.148l-0.914,0.481
		l-0.488-0.023l0.05-0.429c-1.561,0.046-3.634,0.177-5.039,0.263l-1.654-0.039l-0.804,11.126c-0.135,0.615-0.098,1.119-0.135,1.727
		l-0.274,3.541l-0.21,0.177c-0.04,0.224,0.127,0.409,0.168,0.617l-0.076,1.064l1.424,0.941c0.264,0.189,0.508,0.357,0.804,0.519
		l3.496,2.306l1.304,0.045c0.69,0.022,1.459,0.104,2.167,0.142l-0.354,0.245l0.595,0.391l0.514-0.215l-0.051,0.41L57.308,262.171z
		 M53.44,260.044l0.213,0.934L53.44,260.044z"/>
	<path fill="#ADD1E2" d="M67.045,265.164c-0.079,0.088-0.126-0.025-0.185-0.043l0.274,0.555L67.045,265.164z"/>
	<polygon fill="#ADD1E2" points="122.956,248.381 122.891,248.449 123.008,248.552 	"/>
	<polygon fill="#ADD1E2" points="122.873,248.067 122.956,248.381 123.211,248.19 	"/>
	<polygon fill="#ADD1E2" points="123.905,253.567 123.905,253.596 124.045,253.691 	"/>
	<path fill="#ADD1E2" d="M94.156,239.52l0.275-0.089c-0.021-0.041,0.063-0.077,0.021-0.118L94.156,239.52z"/>
	<path fill="#ADD1E2" d="M125.332,255.336l0.014,0.005C125.561,254.7,125.491,254.909,125.332,255.336z"/>
	<line fill="none" x1="53.44" y1="260.044" x2="53.652" y2="260.972"/>
	<polygon fill="#ADD1E2" points="65.76,264.648 66.174,264.557 65.991,264.355 	"/>
	<line fill="none" x1="69.204" y1="264.819" x2="68.005" y2="265.257"/>
	<line fill="none" x1="72.173" y1="266.211" x2="71.97" y2="266.548"/>
	<line fill="none" x1="72.921" y1="265.939" x2="72.43" y2="265.587"/>
	<line fill="none" x1="79.714" y1="267.005" x2="79.076" y2="266.906"/>
	<polygon fill="#ADD1E2" points="82.282,267.074 82.451,266.723 82.201,266.714 	"/>
	<polygon fill="#ADD1E2" points="121.688,242.437 121.449,242.146 121.403,242.461 	"/>
	<line fill="none" x1="95.677" y1="238.165" x2="95.984" y2="238.486"/>
	<polygon fill="#ADD1E2" points="82.729,240.044 82.788,239.465 82.678,239.469 	"/>
	<path fill="#ADD1E2" d="M409.246,366.893c-0.129,0.041-0.129-0.091-0.188-0.141l0.025,0.637L409.246,366.893z"/>
	<polygon fill="#ADD1E2" points="432.766,378.027 432.748,378.011 432.022,378.324 	"/>
	<path fill="#ADD1E2" d="M467.707,368.474c0.502-0.672-0.881-1.349,0.021-1.683l0.584,0.404c1.311-0.434-3.008-4.992-1.959-3.67
		l-0.773,0.752l-0.67-1.231l-0.762-0.228l0.418-0.152l-1.582-0.312l-1.537-1.371c-0.635,0.44-0.854-0.697-1.256,0.05l-0.002-0.278
		l-1.047,0.432l0.332-0.463l-0.68-0.878l-0.529,0.228l-0.41,0.007l-0.863-0.025l0.268-0.521l-0.996-0.388
		c0.004-0.052-0.057-0.103-0.213-0.135l-0.439-0.466l0.285-0.354l-1.129,0.206c-0.828-0.857-2.742-1.296-3.289-1.276l0.279-0.063
		l-0.775-0.178l-0.582-0.679l-0.115,0.386c-0.488-0.999-2.008-0.479-2.775-1.354l0.584-0.201l-2.539-0.162l0.438-0.348l-1.268-0.132
		c-0.021,0.383-0.602,0.451-0.846,0.227l0.033-0.089l-1.117-0.245l0.293-0.3l-0.998-1.067l-0.48,0.286l-0.281-0.554l-1.551,0.62
		l-0.107-0.053l0.355-0.685l-1.34,0.215l-2.168-1.045l0.576-0.676l-2.029-1.139c0.08,0.841-0.764,0.229-1.148,0.568l-0.223-0.105
		l-0.295-0.854l-2.342-0.944l0.1-0.12l-2.545-0.534l-0.111-0.045l0.285-0.277c-0.377-0.375-0.545-0.087-0.744,0.055l-0.279-0.137
		l0.221-0.146l-1.654-0.541h-0.016l0.35-0.241l-1.184-0.159l-0.48-0.229l0.313-0.294l-1.211-0.138l-0.023-0.026l-0.158-0.442
		l-1.107-0.16l-0.359-0.173l-0.256-0.642l-7.295-2.978l-0.852-0.412l0.691-0.643l-1.408-0.256l0.004-0.095l-0.861-0.488
		l-0.068,0.145c-0.559,0.185-0.529-1.146-1.043-0.523l-0.127-0.535l-1.232-0.184l0.111-0.091c-0.492-0.577-1.654,0.051-1.664-0.572
		l-1.027,0.066l-0.445-0.208l0.201-0.388c-1.445-0.596-3.436-1.315-4.775-1.805l-1.418-0.688l-5.246,9.825
		c-0.369,0.513-0.533,0.993-0.818,1.534l-1.68,3.139l-0.27,0.07c-0.125,0.199-0.057,0.432-0.096,0.636l-0.514,0.939l0.924,1.431
		c0.145,0.274,0.297,0.534,0.535,0.82l2.268,3.524l1.146,0.55c0.637,0.311,1.309,0.688,1.953,1.017l-0.416,0.076l0.363,0.587
		l0.559,0.022l-0.213,0.372l2.041,1.033l-0.084-0.545l1.357,0.622l-0.334,0.535l0.436,0.023l-0.549,0.547
		c0.652-0.775,1.375,0.338,1.652,0.301l-0.127,0.091l0.533-0.2l-0.025,1.245l2.574,1.401l2.16,0.345l0.309,0.653
		c-0.428,0.451-0.162,1.373-1.025,1.196c0.504-0.319,0.484,0.144,0.658,0.331l-0.012-0.602c-0.031-0.743,1.074,0.512,0.92-0.438
		l2.463,1.412l-0.488,0.588l2.074,0.424l0.289-0.916l0.566,0.014l0.078,1.503l-1.109,0.179l-1.822-0.652
		c-0.891,0.289,0.404,0.297-0.025,0.819l1.787,0.383l0.432-0.524c1.043-0.233,0.637,0.901,0.793,1.031l-0.434-0.039l1.201,0.438
		c-0.289,0.866-0.84-0.33-1.283,0.063l0.053,0.756l1.232,0.078l-0.246,0.236l0.586,0.079l-0.146-0.944
		c0.676-0.635,0.438,0.101,1.193,0.293l-0.094-0.539l0.969-0.086l0.105,1.014l-0.416-0.379c-0.918,0.096-0.205,1.068-0.818,1.119
		l1.234,0.096l0.025-0.688c1.5-0.714,0.113,1.149,1.092,1.424c0.207-0.858,1.682-0.465,1.5-1.617l0.789,0.127l-0.488,0.889
		l0.305,0.171l-0.793,0.364l0.629,1.546l0.701-0.429l0.115,0.687c-0.35-0.452,0.381-0.729,0.721-0.711l0.461,1.007l-0.68,0.221
		l0.48,0.283l0.984-0.856l0.502,0.504l-0.607,0.062l0.441,0.998l0.359-0.328l-0.129,0.451l0.789-0.017l-0.107,0.28
		c0.346-0.037,0.984-0.469,1.035,0.242l-0.621-0.715l0.809-0.229c-0.375,0.678,0.635,0.433,0.941,0.601l0.205,0.745l0.367-0.387
		c-0.318,0.938,0.684,0.151,0.945,0.562l-0.256,0.797l1.102-1.094c0.576,0.481-0.553,0.787-0.563,1.336l1.146,0.033l0.518-0.667
		l0.117,0.677l0.539-0.744l1.221,0.34l1.02-0.435l0.738-0.938c0.043,0.027,0.105,0.046,0.178,0.078
		c-0.168,0.078-0.484,0.127-0.43,0.547l0.389,0.05c0.207,0.928-1.551,0.841-1.322,1.632l0.514-0.116l-0.383,0.786l1.096,0.107
		l-0.18-0.317l1.451-0.127l-0.322,0.858l0.648-0.094l-0.146,0.26c1.645,0.68,3.791,1.402,5.545,0.8l1.408,1.417l0.33-0.465
		l0.256,0.673l1.699,0.062l0.023,0.434l0.736-0.187l0.205,0.484l0.125-0.337l0.936,0.586l0.191-0.408l2.609,0.234l-0.281-0.736
		l0.578-0.27l-0.125,0.666c1.043,0.885,2.723,0.256,4.133,0.459l0.35-0.381l2.98,0.325l0.559-1.044
		c0.539-0.535,0.279,0.749,0.836,1.089l0.941-0.261l-0.004,0.083l1.203-0.178l-0.068,0.048l1.061,0.349l1.043-0.633l0.086,0.205
		l-0.037-0.422l0.688,0.25l-0.266,0.466c0.752,0.309,0.145-0.393,0.477-0.62c0.123,0.136,2.777-2.849,2.002-1.778
		c-0.545,0.939,1.484-1.274-1.727,2.067c-1.697,2.062,2.324-2.162,2.061-1.829l-0.34-0.548l0.523-0.831l-0.314-0.788l-0.588,0.64
		l0.086-0.683l-0.209-0.366l0.676-0.35l-0.27-1.05l1.176-0.233l-0.402-0.673l0.404-0.293c0.398-1.026-1.158-1.276-0.605-2.052
		l0.396-0.098l-0.184-0.408c1.32-0.565,0.66-2.416,1.4-3.541l-0.332-0.85c0.695,0.178-0.021-0.693,0.445-0.959L467.707,368.474z
		 M398.649,357.655l0.182-0.94L398.649,357.655z"/>
	<line fill="none" x1="398.649" y1="357.655" x2="398.834" y2="356.717"/>
	<polygon fill="#ADD1E2" points="408.565,365.724 408.244,365.889 408.688,365.983 	"/>
	<line fill="none" x1="411.334" y1="367.438" x2="410.055" y2="367.367"/>
	<line fill="none" x1="413.465" y1="369.91" x2="413.164" y2="370.137"/>
	<line fill="none" x1="414.264" y1="369.959" x2="413.985" y2="369.447"/>
	<line fill="none" x1="420.065" y1="373.693" x2="419.53" y2="373.332"/>
	<polygon fill="#ADD1E2" points="422.463,374.423 422.383,374.776 422.694,374.533 	"/>
	<path fill="#ADD1E2" d="M143.131,198.705l0.016,0.01C143.609,198.22,143.448,198.37,143.131,198.705z"/>
	<polygon fill="#ADD1E2" points="109.368,195.303 109.351,195.297 108.634,195.612 	"/>
	<path fill="#ADD1E2" d="M85.849,184.172c-0.131,0.045-0.106-0.08-0.185-0.138l0.024,0.632L85.849,184.172z"/>
	<polygon fill="#ADD1E2" points="143.774,191.39 143.696,191.407 143.755,191.564 	"/>
	<polygon fill="#ADD1E2" points="142.529,196.493 142.529,196.517 142.635,196.687 	"/>
	<path fill="#ADD1E2" d="M121.009,171.649l0.278,0.029c0.001-0.041,0.101-0.043,0.07-0.103L121.009,171.649z"/>
	<polygon fill="#ADD1E2" points="143.807,191.056 143.774,191.39 144.085,191.308 	"/>
	<path fill="#ADD1E2" d="M70.412,170.311l2.302,3.534l1.139,0.546c0.618,0.309,1.299,0.687,1.93,1.01l-0.415,0.094l0.368,0.585
		l0.57,0.021l-0.223,0.365l2.037,1.042l-0.092-0.547l1.358,0.632l-0.332,0.521l0.426,0.019l-0.544,0.544
		c0.657-0.761,1.392,0.339,1.653,0.311l-0.126,0.09l0.527-0.198l-0.022,1.25l2.59,1.393l2.16,0.339l0.31,0.662
		c-0.432,0.458-0.153,1.379-1.029,1.196c0.503-0.308,0.501,0.153,0.666,0.326l-0.006-0.594c-0.021-0.746,1.063,0.515,0.937-0.438
		l2.449,1.407l-0.487,0.592l2.069,0.429l0.308-0.923l0.547,0.013l0.078,1.512l-1.108,0.166l-1.814-0.646
		c-0.884,0.293,0.393,0.311-0.022,0.818l1.777,0.385l0.432-0.517c1.017-0.241,0.626,0.897,0.792,1.024l-0.438-0.03l1.195,0.431
		c-0.29,0.866-0.841-0.319-1.276,0.052l0.046,0.767l1.227,0.081l-0.234,0.22l0.579,0.083l-0.167-0.958
		c0.707-0.625,0.472,0.103,1.199,0.297l-0.089-0.539l0.986-0.095l0.078,1.032l-0.414-0.383c-0.898,0.092-0.18,1.054-0.816,1.119
		l1.242,0.093l0.017-0.693c1.508-0.706,0.106,1.161,1.093,1.417c0.21-0.853,1.688-0.463,1.5-1.607l0.791,0.12l-0.483,0.886
		l0.309,0.157l-0.789,0.372l0.612,1.538l0.706-0.419l0.133,0.69c-0.379-0.458,0.356-0.735,0.706-0.712l0.46,1l-0.652,0.212
		l0.463,0.303l0.983-0.874l0.51,0.507l-0.629,0.061l0.461,0.996l0.375-0.317l-0.125,0.448l0.76-0.018l-0.077,0.288
		c0.347-0.034,0.966-0.458,1.033,0.241l-0.638-0.699l0.797-0.241c-0.357,0.681,0.657,0.432,0.946,0.606l0.228,0.753l0.346-0.387
		c-0.31,0.935,0.706,0.15,0.968,0.562l-0.253,0.799l1.088-1.106c0.581,0.495-0.555,0.795-0.56,1.347l1.166,0.033l0.502-0.661
		l0.112,0.667l0.547-0.738l1.216,0.341l1.026-0.424l0.729-0.938c0.065,0.026,0.125,0.045,0.188,0.079
		c-0.179,0.063-0.493,0.113-0.434,0.53l0.409,0.041c0.192,0.942-1.561,0.85-1.326,1.632l0.485-0.106l-0.366,0.789l1.084,0.1
		l-0.16-0.305l1.453-0.131l-0.319,0.857l0.638-0.083l-0.134,0.246c1.643,0.687,3.789,1.408,5.544,0.806l1.389,1.409l0.333-0.477
		l0.271,0.681l1.687,0.069l0.044,0.438l0.699-0.199l0.197,0.483l0.161-0.351l0.904,0.59l0.222-0.407l2.607,0.239l-0.304-0.749
		l0.544-0.232l-0.084,0.675c1.015,0.868,2.699,0.234,4.104,0.441l0.362-0.381l2.979,0.331l0.577-1.055
		c0.538-0.524,0.271,0.761,0.822,1.095l0.952-0.262l-0.019,0.09l1.201-0.171l-0.063,0.034l1.073,0.358l1.036-0.621l0.104,0.2
		l-0.048-0.428l0.698,0.248l-0.284,0.469c0.76,0.306,0.178-0.395,0.483-0.617c2.906-2.897,1.069-1.078,1.981-1.806
		c-0.539,0.956,1.442-1.302-1.69,2.083c-0.338,0.57,1.338-1.17,2.01-1.874l-0.328-0.518l0.523-0.839L143,196.568l-0.598,0.642
		l0.111-0.687l-0.224-0.354l0.659-0.357l-0.267-1.055l1.17-0.232l-0.382-0.656l0.385-0.299c0.422-1.021-1.157-1.281-0.601-2.055
		l0.427-0.102l-0.204-0.402c1.316-0.563,0.667-2.432,1.419-3.543l-0.33-0.854c0.688,0.179-0.031-0.696,0.451-0.958l-0.729,0.069
		c0.531-0.665-0.879-1.361,0.036-1.681l0.564,0.407c1.326-0.434-3.07-4.962-1.988-3.647l-0.79,0.737l-0.657-1.212l-0.748-0.234
		l0.401-0.135l-1.565-0.316l-1.553-1.372c-0.635,0.446-0.854-0.7-1.259,0.051l0.012-0.28l-1.043,0.433l0.333-0.465l-0.687-0.873
		l-0.532,0.215l-0.393,0.018l-0.879-0.025l0.24-0.526l-0.958-0.385c-0.013-0.048-0.062-0.1-0.229-0.143l-0.438-0.458l0.281-0.355
		l-1.128,0.198c-0.814-0.853-2.748-1.29-3.272-1.264l0.274-0.064l-0.788-0.178l-0.585-0.673l-0.104,0.375
		c-0.514-1-1.998-0.466-2.767-1.352l0.576-0.195l-2.545-0.15l0.438-0.357l-1.27-0.129c-0.019,0.381-0.602,0.456-0.846,0.229
		l0.034-0.085l-1.139-0.253l0.309-0.293l-1.025-1.075l-0.448,0.287l-0.286-0.561l-1.546,0.622l-0.105-0.054l0.354-0.682
		l-1.324,0.212l-2.173-1.041l0.582-0.672l-2.052-1.143c0.093,0.846-0.782,0.215-1.17,0.542l-0.198-0.095l-0.297-0.849l-2.323-0.949
		l0.103-0.104l-2.568-0.548l-0.088-0.043l0.28-0.272c-0.397-0.374-0.551-0.092-0.762,0.056l-0.277-0.146l0.228-0.149l-1.658-0.544
		h-0.006l0.356-0.231l-1.179-0.168l-0.491-0.229l0.294-0.298l-1.174-0.126l-0.044-0.025l-0.141-0.456l-1.126-0.165l-0.342-0.166
		l-0.274-0.642l-7.278-2.981l-0.852-0.41l0.688-0.648l-1.409-0.245l0.005-0.102l-0.859-0.492l-0.068,0.145
		c-0.563,0.177-0.526-1.142-1.068-0.524l-0.116-0.538l-1.226-0.189l0.112-0.086c-0.495-0.584-1.654,0.056-1.661-0.566l-1.042,0.067
		l-0.435-0.192l0.204-0.393c-1.47-0.605-3.437-1.315-4.775-1.802l-1.325-0.636l-0.107-0.055l-5.212,9.824
		c-0.385,0.523-0.542,1.011-0.822,1.552l-1.67,3.128l-0.268,0.081c-0.12,0.191-0.049,0.413-0.09,0.628l-0.516,0.94l0.936,1.424
		C70.046,169.777,70.205,170.03,70.412,170.311z M75.444,174.001l-0.168,0.939L75.444,174.001z"/>
	<line fill="none" x1="75.277" y1="174.942" x2="75.444" y2="174.001"/>
	<polygon fill="#ADD1E2" points="85.188,183.008 84.851,183.171 85.286,183.267 	"/>
	<line fill="none" x1="87.951" y1="184.715" x2="86.665" y2="184.64"/>
	<line fill="none" x1="90.089" y1="187.185" x2="89.76" y2="187.425"/>
	<line fill="none" x1="90.892" y1="187.252" x2="90.597" y2="186.726"/>
	<line fill="none" x1="96.679" y1="190.969" x2="96.138" y2="190.628"/>
	<polygon fill="#ADD1E2" points="99.01,192.065 99.302,191.81 99.089,191.7 	"/>
	<polygon fill="#ADD1E2" points="144.737,185.344 145.016,185.427 144.936,185.077 	"/>
	<line fill="none" x1="122.958" y1="171.024" x2="123.082" y2="171.431"/>
	<polygon fill="#ADD1E2" points="110.534,166.97 110.343,167.515 110.614,167.005 	"/>
	<path fill="#ADD1E2" d="M411.5,435.209l-0.992,0.371l-0.131-1.392l-0.592-0.526l0.424,0.039l-1.301-0.912l-0.852-1.883
		c-0.758,0.144-0.5-0.982-1.195-0.466l0.127-0.241l-1.141-0.047l0.482-0.279l-0.266-1.065l-0.559-0.013l-0.383-0.155l-0.803-0.383
		l0.441-0.377l-0.723-0.744c0.004-0.056-0.014-0.11-0.148-0.226l-0.221-0.586l0.408-0.225l-1.125-0.27l-2.475-2.486l0.27,0.046
		l-0.639-0.466l-0.271-0.858l-0.24,0.312l-2.004-2.366l0.629,0.058l-2.266-1.17l0.535-0.141l-1.277-0.696l-0.688-0.055l0.074-0.067
		l-0.936-0.688l0.398-0.149l-0.521-1.399l-0.531,0.078l-0.041-0.629l-1.643-0.056l-0.078-0.101l0.586-0.465l-1.299-0.345
		l-1.551-1.829l0.789-0.385l-1.412-1.859c-0.279,0.805-0.801-0.098-1.283,0.041l-0.262-0.279c-0.104-0.33,0.23-0.534,0.16-0.813
		l-1.756-1.796l0.148-0.075l-2.133-1.514l-0.063-0.083l0.354-0.134c-0.184-0.483-0.438-0.295-0.68-0.258l-0.229-0.235l0.273-0.047
		l-1.297-1.164l-0.02-0.011l0.406-0.077l-1.008-0.615l-0.361-0.429l0.424-0.127l-1.049-0.614l-0.023-0.024l0.043-0.478l-0.951-0.589
		l-0.277-0.301l0.027-0.689l-5.463-5.643l-0.637-0.737c0.258-0.631,0.738,0.213,0.92-0.304c-0.473,0.403-0.469-0.279-1.195-0.813
		l0.027-0.09l-0.578-0.789l-0.123,0.121c-0.594-0.073-0.016-1.242-0.771-0.895l0.123-0.548l-1.061-0.665l0.125-0.039l-1.277-1.183
		l-0.955-0.347l-0.332-0.383l0.338-0.273c-1.066-1.098-2.559-2.52-3.57-3.488l-1.102-1.283l-8.756,6.912
		c-0.547,0.323-0.891,0.695-1.35,1.062l-2.822,2.213l-0.275-0.047c-0.178,0.127-0.184,0.362-0.33,0.519l-0.834,0.665l0.281,1.688
		c0.018,0.315,0.047,0.629,0.127,0.94l0.688,4.133l0.857,0.981c0.447,0.539,0.914,1.151,1.379,1.715l-0.434-0.096l0.113,0.692
		l0.502,0.229l-0.354,0.253l1.453,1.787l0.146-0.534l0.994,1.118l-0.533,0.33l0.396,0.203l-0.736,0.265
		c0.896-0.434,1.131,0.879,1.389,0.949l-0.141,0.027c0.213,0.805,0.246-0.346,0.568,0.039l-0.525,1.146l1.809,2.313l1.84,1.174
		l0.004,0.729l-1.41,0.684l0.443,0.623l0.266-0.586c0.268-0.699,0.75,0.89,1.027-0.026l1.662,2.271l-0.686,0.342l1.703,1.199
		l0.648-0.705l0.533,0.241l-0.535,1.398c-0.752,0.331-0.686-1.011-1.105-0.28c-0.688,0.128-1.521-0.876-1.395-1.326
		c-0.932-0.098,0.248,0.436-0.355,0.737l1.455,1.071l0.611-0.303c1.045,0.189,0.229,1.078,0.316,1.246l-0.383-0.187l0.941,0.877
		c-0.609,0.683-0.637-0.638-1.217-0.46l-0.248,0.711l1.094,0.568l-0.33,0.107l0.529,0.314l0.229-0.928
		c0.885-0.299,0.371,0.268,0.963,0.746l0.129-0.535l0.941,0.305l-0.328,0.986l-0.229-0.521c-0.854-0.28-0.588,0.896-1.195,0.692
		c0.156,0.789,0.803,0.043,1.094,0.578c-0.586-0.33,0.225-0.354,0.293-0.631c1.67-0.025-0.379,1.106,0.42,1.731
		c0.551-0.688,1.738,0.274,2.041-0.861l0.666,0.435l-0.793,0.612l0.215,0.28l-0.871,0.023l-0.055,1.655l0.813-0.106l-0.172,0.675
		l0.959-0.351l-0.023,1.094l-0.688-0.076l0.332,0.475l1.244-0.41l0.26,0.685l-0.596-0.198l0.023,1.104l0.467-0.147l-0.291,0.334
		l0.703,0.315l-0.195,0.236c0.348,0.108,1.068-0.041,0.842,0.625l-0.279-0.892l0.84,0.12c-0.619,0.462,0.412,0.646,0.625,0.928
		l-0.111,0.788l0.471-0.229c-0.654,0.737,0.576,0.432,0.688,0.902l-0.566,0.637l1.434-0.57c0.348,0.683-0.813,0.49-1.051,0.986
		l1.066,0.525l0.719-0.41l-0.18,0.658l0.809-0.441l0.992,0.789l1.092,0.026l1.068-0.563c0.057,0.043,0.096,0.096,0.143,0.146
		c-0.197-0.025-0.521-0.102-0.607,0.318l0.318,0.19c-0.18,0.94-1.736,0.166-1.859,0.954l0.516,0.117l-0.688,0.556l0.971,0.538
		l-0.041-0.347l1.404,0.477l-0.646,0.646l0.631,0.18l-0.229,0.171c1.215,1.295,2.893,2.819,4.732,2.97l0.729,1.856l0.484-0.286
		l-0.025,0.734l1.531,0.738l-0.15,0.412l0.742,0.105l-0.025,0.505l0.271-0.263l0.627,0.9l0.352-0.277l2.268,1.258l0.027-0.789h0.617
		l-0.369,0.568c0.584,1.224,2.385,1.332,3.605,2.076l0.48-0.199l2.588,1.502l0.939-0.726c0.693-0.271-0.043,0.802,0.311,1.321
		l0.98,0.148l-0.078,0.086l1.166,0.313l-0.063,0.012l0.816,0.757l1.201-0.156l0.023,0.23l0.131-0.408l0.525,0.504l-0.434,0.321
		l0.688-0.366c3.809-1.502,1.398-0.58,2.51-0.882c-0.857,0.651,1.873-0.614-2.375,1.229c-0.523,0.396,1.703-0.531,2.607-0.906
		l-0.084-0.613l0.801-0.556l0.047-0.839l-0.818,0.351l0.383-0.575l-0.064-0.435l0.762-0.063l0.162-1.074l1.18,0.266l-0.109-0.771
		l0.486-0.097c0.803-0.772-0.535-1.644,0.273-2.12l0.432,0.078l-0.016-0.465c1.424,0.023,1.572-1.945,2.723-2.667l0.035-0.905
		l0.803-0.707l-0.691-0.212c0.736-0.418-0.25-1.594,0.711-1.526l0.367,0.605C413.246,439.49,411.071,433.572,411.5,435.209z
		 M352.012,402.568l0.525-0.787L352.012,402.568z"/>
	<polygon fill="#ADD1E2" points="395.151,418.016 395.219,418.059 395.506,418.076 	"/>
	<polygon fill="#ADD1E2" points="408.198,444.951 408.033,445.248 408.346,445.298 	"/>
	<polygon fill="#ADD1E2" points="408.033,445.248 407.938,445.23 407.938,445.391 	"/>
	<polygon fill="#ADD1E2" points="357.949,415.277 357.817,415.14 357.604,415.679 	"/>
	<path fill="#ADD1E2" d="M404.485,451.672v0.023C405.119,451.416,404.91,451.496,404.485,451.672z"/>
	<polygon fill="#ADD1E2" points="404.834,449.41 404.821,449.447 404.84,449.63 	"/>
	<polygon fill="#ADD1E2" points="374.981,434.964 374.981,434.951 374.176,434.945 	"/>
	<line fill="none" x1="352.012" y1="402.568" x2="352.537" y2="401.777"/>
	<polygon fill="#ADD1E2" points="357.451,413.971 357.809,414.238 357.809,413.945 	"/>
	<line fill="none" x1="359.651" y1="416.643" x2="358.52" y2="416.053"/>
	<line fill="none" x1="360.608" y1="419.765" x2="360.231" y2="419.853"/>
	<line fill="none" x1="361.317" y1="420.146" x2="361.266" y2="419.55"/>
	<line fill="none" x1="365.115" y1="425.875" x2="364.76" y2="425.332"/>
	<polygon fill="#ADD1E2" points="366.797,427.811 367.166,427.715 367.014,427.508 	"/>
	<polygon fill="#ADD1E2" points="411.545,440.281 411.604,439.921 411.33,440.096 	"/>
	<line fill="none" x1="397.17" y1="418.212" x2="397.123" y2="418.641"/>
	<polygon fill="#ADD1E2" points="387.512,409.568 387.428,409.486 387.055,409.925 	"/>
	<polygon fill="#ADD1E2" points="182.633,151.797 182.599,151.837 182.643,152.013 	"/>
	<polygon fill="#ADD1E2" points="172.947,120.379 173.055,120.43 173.307,120.449 	"/>
	<polygon fill="#ADD1E2" points="185.829,147.621 185.735,147.61 185.728,147.772 	"/>
	<polygon fill="#ADD1E2" points="135.712,117.632 135.6,117.509 135.391,118.038 	"/>
	<polygon fill="#ADD1E2" points="186.003,147.336 185.829,147.621 186.144,147.681 	"/>
	<line fill="none" x1="151.962" y1="137.301" x2="152.762" y2="137.319"/>
	<path fill="#ADD1E2" d="M127.177,98.751l0.682,4.132l0.841,0.959c0.461,0.548,0.912,1.163,1.361,1.721l-0.422-0.097l0.094,0.688
		l0.512,0.23l-0.355,0.254l1.473,1.785l0.133-0.547l1.004,1.114l-0.546,0.334l0.402,0.208l-0.738,0.276
		c0.918-0.438,1.132,0.864,1.408,0.953l-0.175,0.024c0.229,0.796,0.246-0.368,0.58,0.027l-0.519,1.146l1.8,2.311l1.838,1.188
		l0.023,0.723l-1.428,0.691l0.464,0.632l0.245-0.607c0.283-0.706,0.767,0.892,1.043-0.024l1.653,2.276l-0.684,0.352l1.714,1.218
		l0.645-0.729l0.528,0.247l-0.543,1.402c-0.759,0.325-0.672-1.02-1.096-0.292c-0.684,0.138-1.542-0.868-1.397-1.318
		c-0.942-0.104,0.238,0.435-0.346,0.743l1.469,1.066l0.598-0.304c1.042,0.197,0.203,1.067,0.305,1.256l-0.383-0.208l0.924,0.879
		c-0.605,0.674-0.619-0.633-1.175-0.46l-0.268,0.708l1.079,0.569l-0.304,0.12l0.489,0.313l0.256-0.931
		c0.866-0.289,0.354,0.257,0.961,0.748l0.136-0.53l0.932,0.307l-0.323,0.969l-0.229-0.507c-0.868-0.278-0.607,0.895-1.206,0.696
		c0.169,0.774,0.797,0.047,1.093,0.57c-0.555-0.325,0.233-0.36,0.31-0.618c1.67-0.027-0.36,1.115,0.433,1.736
		c0.526-0.691,1.72,0.268,2.02-0.876l0.677,0.444l-0.813,0.607l0.223,0.289l-0.861,0.01l-0.069,1.656l0.81-0.102l-0.149,0.681
		l0.941-0.355l0.021,1.104l-0.691-0.075l0.315,0.46l1.247-0.396l0.255,0.664l-0.594-0.188l0.018,1.098l0.462-0.136l-0.297,0.339
		l0.716,0.298l-0.196,0.226c0.318,0.109,1.07-0.028,0.85,0.644l-0.294-0.899l0.815,0.111c-0.604,0.469,0.433,0.64,0.638,0.931
		l-0.108,0.777l0.483-0.229c-0.661,0.737,0.581,0.439,0.649,0.919l-0.561,0.626l1.453-0.57c0.336,0.689-0.841,0.504-1.063,1.003
		l1.051,0.5l0.737-0.396l-0.186,0.656l0.823-0.456l0.977,0.81l1.102,0.019l1.045-0.574c0.05,0.052,0.093,0.104,0.137,0.156
		c-0.191-0.009-0.499-0.094-0.594,0.322l0.318,0.196c-0.194,0.94-1.755,0.146-1.863,0.95l0.502,0.104l-0.656,0.563l0.951,0.553
		l-0.018-0.361l1.371,0.462l-0.641,0.668l0.642,0.188l-0.246,0.163c1.243,1.29,2.91,2.818,4.761,2.977l0.714,1.849l0.5-0.279
		l-0.063,0.712l1.532,0.749l-0.126,0.43l0.723,0.089l-0.007,0.522l0.275-0.259l0.61,0.907l0.342-0.283l2.314,1.271l0.007-0.795
		l0.625,0.002l-0.386,0.564c0.599,1.227,2.391,1.333,3.598,2.076l0.471-0.2l2.602,1.501l0.926-0.729
		c0.737-0.262-0.046,0.797,0.34,1.335l0.964,0.144l-0.044,0.085l1.189,0.315l-0.083,0.004l0.833,0.771l1.187-0.166l0.021,0.236
		l0.113-0.42l0.533,0.507l-0.42,0.322l0.688-0.365c3.824-1.457,1.399-0.563,2.521-0.851c-0.861,0.649,1.865-0.6-2.394,1.197
		c-2.368,1.236,3-1.044,2.614-0.857l-0.104-0.639l0.81-0.548l0.053-0.845l-0.817,0.352l0.371-0.565l-0.06-0.44l0.747-0.062
		l0.199-1.065l1.178,0.257l-0.116-0.769l0.491-0.104c0.802-0.768-0.534-1.632,0.277-2.123l0.417,0.079l-0.025-0.458
		c1.431,0.024,1.591-1.942,2.74-2.674l0.037-0.904l0.803-0.698l-0.703-0.227c0.739-0.414-0.251-1.58,0.711-1.518l0.369,0.597
		c1.378,0.14-0.79-5.784-0.332-4.143l-1.028,0.37l-0.114-1.381l-0.598-0.523l0.429,0.015l-1.308-0.911l-0.867-1.887
		c-0.747,0.15-0.495-0.991-1.18-0.47l0.106-0.257l-1.115-0.018l0.501-0.295l-0.276-1.058l-0.576-0.025l-0.373-0.156l-0.79-0.37
		l0.44-0.378l-0.737-0.759c0.002-0.056-0.012-0.103-0.146-0.203l-0.212-0.598l0.398-0.204l-1.123-0.275l-2.479-2.493l0.277,0.053
		l-0.645-0.471l-0.279-0.848l-0.231,0.307l-1.987-2.363l0.598,0.038l-2.265-1.164l0.54-0.143l-1.248-0.706l-0.727-0.044l0.066-0.076
		l-0.936-0.696l0.398-0.135l-0.495-1.391l-0.559,0.074l-0.02-0.624l-1.653-0.051l-0.093-0.1l0.606-0.469l-1.313-0.348l-1.547-1.828
		l0.79-0.389l-1.423-1.868c-0.253,0.808-0.8-0.102-1.276,0.043l-0.226-0.271c-0.141-0.331,0.211-0.535,0.146-0.807l-1.75-1.801
		l0.126-0.076l-2.098-1.485l-0.092-0.103l0.385-0.128c-0.218-0.499-0.478-0.304-0.715-0.268l-0.209-0.241l0.254-0.053l-1.294-1.156
		l-0.009-0.004l0.407-0.071l-0.995-0.616l-0.364-0.422l0.398-0.144l-1.049-0.614l-0.014-0.02l0.033-0.471l-0.942-0.601l-0.273-0.299
		l0.03-0.717l-5.442-5.626l-0.646-0.75c0.245-0.62,0.733,0.209,0.908-0.313c-0.474,0.405-0.464-0.271-1.196-0.804l0.06-0.084
		l-0.604-0.801l-0.108,0.118c-0.584-0.064-0.018-1.249-0.771-0.903l0.116-0.544l-1.042-0.665l0.111-0.038l-1.276-1.187l-0.964-0.345
		l-0.328-0.39l0.341-0.269c-1.112-1.18-2.724-2.683-3.707-3.663l-0.978-1.138l-8.729,6.892c-0.536,0.327-0.895,0.705-1.353,1.073
		l-2.802,2.217l-0.255-0.037c-0.196,0.128-0.223,0.369-0.354,0.527l-0.844,0.68l0.262,1.628
		C127.06,98.099,127.092,98.41,127.177,98.751z M130.322,104.137l-0.554,0.782L130.322,104.137z"/>
	<line fill="none" x1="129.771" y1="104.92" x2="130.322" y2="104.137"/>
	<polygon fill="#ADD1E2" points="135.223,116.332 135.589,116.59 135.59,116.304 	"/>
	<line fill="none" x1="137.427" y1="118.987" x2="136.292" y2="118.409"/>
	<line fill="none" x1="138.392" y1="122.119" x2="137.99" y2="122.2"/>
	<line fill="none" x1="139.098" y1="122.494" x2="139.026" y2="121.899"/>
	<line fill="none" x1="142.908" y1="128.236" x2="142.544" y2="127.683"/>
	<polygon fill="#ADD1E2" points="144.581,130.172 144.958,130.066 144.798,129.869 	"/>
	<polygon fill="#ADD1E2" points="189.349,142.66 189.411,142.309 189.134,142.469 	"/>
	<line fill="none" x1="174.919" y1="121.015" x2="174.986" y2="120.596"/>
	<polygon fill="#ADD1E2" points="165.247,111.869 164.87,112.299 165.302,111.938 	"/>
	<path fill="#ADD1E2" d="M331.399,478.664l0.451-1.318l-0.33-0.709l0.375,0.208l-0.814-1.36l-0.043-2.07
		c-0.746-0.166-0.051-1.1-0.891-0.898l0.219-0.178l-1.021-0.498l0.551-0.061c0.705-0.139-0.125-0.891,0.201-1.092l-0.508-0.238
		l-0.283-0.299l-0.588-0.658l0.58-0.176l-0.389-0.992c0.025-0.051,0.027-0.104-0.049-0.24l0.076-0.637l0.439-0.024l-0.922-0.703
		c0.066-1.185-0.91-2.897-1.277-3.284l0.24,0.158l-0.395-0.688l0.078-0.893l-0.332,0.178l-0.875-2.955l0.535,0.28l-1.604-1.985
		l0.539,0.092l-0.855-1.148l-0.639-0.337l0.102-0.024l-0.59-1l0.418,0.021c0.645-0.322,0.074-1.338,0.111-1.468l-0.514-0.149
		l0.219-0.585l-1.5-0.713l-0.043-0.129l0.738-0.18l-1.029-0.84l-0.707-2.315l0.893-0.027l-0.568-2.292
		c-0.561,0.646-0.68-0.383-1.18-0.472l-0.102-0.341c0.021-0.356,0.408-0.389,0.457-0.664l-0.887-2.365l0.164-0.007l-1.332-2.242
		l-0.027-0.112l0.379,0.026c0.025-0.536-0.289-0.461-0.523-0.517l-0.104-0.297l0.271,0.063l-0.738-1.608l0.402,0.102l-0.646-0.969
		l-0.178-0.535l0.434,0.025l-0.691-0.971l-0.027-0.034l0.254-0.417l-0.648-0.941l-0.115-0.359l0.313-0.635l-2.717-7.406
		l-0.289-0.895c0.484-0.471,0.605,0.502,0.969,0.08c-0.586,0.193-0.326-0.422-0.771-1.211l0.074-0.063l-0.215-0.979l-0.166,0.063
		c-0.484-0.295,0.51-1.146-0.328-1.134l0.328-0.459l-0.688-1.035l0.137,0.019c0.092-0.754-1.162-1.178-0.703-1.603l-0.738-0.715
		l-0.143-0.475l0.434-0.095c-0.549-1.519-1.4-3.545-1.924-4.841l-0.434-1.443l-10.768,2.771c-0.639,0.076-1.117,0.281-1.695,0.436
		l-3.451,0.893l-0.234-0.144c-0.225,0.045-0.322,0.238-0.514,0.336l-1.055,0.272l-0.418,1.629c-0.107,0.305-0.188,0.615-0.258,0.935
		l-1.082,4.062l0.393,1.234c0.199,0.676,0.371,1.424,0.563,2.125l-0.352-0.27l-0.188,0.671l0.383,0.42l-0.418,0.099l0.602,2.203
		l0.344-0.432l0.445,1.426l-0.621,0.098l0.279,0.34l-0.789-0.03c1.02-0.052,0.688,1.246,0.902,1.426l-0.158-0.032
		c-0.109,0.813,0.375-0.229,0.51,0.258l-0.93,0.83l0.721,2.854l1.176,1.812c0.156,0.599-0.719,0.164-0.256,0.676
		c-0.635-0.022-1.145,0.816-1.598,0.043l0.189,0.753l0.463-0.448c0.535-0.527,0.344,1.146,0.955,0.386l0.605,2.774l-0.748,0.044
		l1.051,1.798l0.9-0.395l0.354,0.428l-1.049,1.068c-0.824-0.013-0.203-1.194-0.885-0.707l-0.74-1.778
		c-0.807-0.453,0.037,0.499-0.623,0.536l0.91,1.57l0.674-0.037c0.855,0.598-0.242,1.069-0.221,1.281l-0.273-0.344l0.494,1.195
		c-0.842,0.354-0.305-0.838-0.9-0.896l-0.525,0.542c0.137,0.859,0.768,0.046,0.779,0.97l-0.357-0.025l0.338,0.48l0.602-0.75
		l0.584,1.086l0.346-0.439l0.732,0.666l-0.691,0.758l-0.004-0.563l-1.4,0.154l0.787,0.961c-0.389-0.531,0.354-0.229,0.521-0.438
		c1.553,0.635-0.775,0.861-0.289,1.76c0.758-0.432,1.469,0.941,2.203,0.008l0.432,0.686l-0.988,0.229l0.076,0.354l-0.787-0.322
		l-0.729,1.48l0.785,0.233l-0.426,0.563l1.023,0.055l-0.445,1.012l-0.604-0.352l0.082,0.537l1.314,0.144l-0.023,0.716l-0.471-0.418
		l-0.438,1.028l0.484,0.04l-0.4,0.215l0.533,0.549l-0.277,0.139l0.512,0.918l0.104-0.941c0.439-0.453,0.604,0.35,0.688,0.441
		c-0.734,0.181,0.137,0.756,0.229,1.099l-0.4,0.665l0.5-0.023c-0.887,0.424,0.373,0.639,0.234,1.1l-0.752,0.355l1.551,0.073
		c0.035,0.753-0.941,0.108-1.369,0.481l0.75,0.888l0.844-0.072l-0.422,0.536l0.916-0.091l0.578,1.147l-0.727-0.351
		c0.303,0.884,1.236,0.045,1.705,0.788l1.201-0.077c0.025,0.056,0.039,0.123,0.076,0.188c-0.172-0.076-0.43-0.289-0.688,0.06
		l0.23,0.301c-0.572,0.788-1.676-0.565-2.109,0.128l0.432,0.287l-0.84,0.26l0.67,0.883l0.111-0.332l1.078,0.994l-0.846,0.33
		l0.484,0.43l-0.291,0.063c0.631,1.688,1.535,3.74,3.166,4.643l-0.109,1.99l0.576-0.067l-0.326,0.64l1.102,1.288l-0.299,0.331
		l0.623,0.395l-0.229,0.465l0.348-0.129c0.396,0.306,0.797,0.789,0.221,1.08l0.426-0.115l1.58,2.076l0.348-0.717l0.557,0.252
		l-0.563,0.375l2.439,3.342l0.521,0.004l1.758,2.435l1.164-0.296c0.773,0.05-0.363,0.723-0.23,1.357l0.836,0.523l-0.076,0.045
		l0.941,0.765l-0.086-0.025l0.463,1.032l1.154,0.34l-0.074,0.215l0.281-0.317l0.271,0.685l-0.504,0.119
		c0.279,0.751,0.385-0.155,0.775-0.066c4.092,0.178,1.488,0.034,2.652,0.229c-1.07,0.253,1.947,0.182-2.668,0.151
		c-0.654,0.145,1.775,0.205,2.746,0.231l0.168-0.594l0.953-0.18l0.373-0.754l-0.891-0.02l0.578-0.354l0.127-0.437l0.711,0.266
		l0.586-0.909c0.279,0.394,0.334,1.013,0.961,0.709l0.232-0.737l0.477,0.095c1.051-0.379,0.18-1.71,1.109-1.824l0.355,0.23
		l0.174-0.411c1.299,0.606,2.238-1.154,3.574-1.349c-0.451-0.522,0.328-0.469,0.408-0.815c0.332,0.637,0.492-0.489,1.025-0.315
		l-0.545-0.48c0.82-0.078,0.41-1.562,1.262-1.111l0.076,0.688c1.199,0.688,1.654-5.6,1.395-3.922L331.399,478.664z M291.125,424.824
		l0.813-0.485L291.125,424.824z"/>
	<polygon fill="#ADD1E2" points="324.442,456.388 324.506,456.479 324.733,456.595 	"/>
	<path fill="#E73D72" d="M319.383,490.956l-0.025,0.021C320.053,490.971,319.836,490.976,319.383,490.956z"/>
	<polygon fill="#ADD1E2" points="291.467,438.854 291.416,438.681 290.983,439.094 	"/>
	<polygon fill="#E73D72" points="320.614,489.031 320.561,489.058 320.522,489.229 	"/>
	<polygon fill="#ADD1E2" points="325.201,486.5 325.135,486.443 325.053,486.599 	"/>
	<polygon fill="#ADD1E2" points="325.487,486.308 325.201,486.5 325.483,486.682 	"/>
	<line fill="none" x1="291.125" y1="424.824" x2="291.938" y2="424.334"/>
	<polygon fill="#ADD1E2" points="291.541,437.464 291.76,437.851 291.881,437.596 	"/>
	<line fill="none" x1="292.471" y1="440.785" x2="291.68" y2="439.791"/>
	<line fill="none" x1="292.09" y1="444.037" x2="291.713" y2="443.964"/>
	<line fill="none" x1="292.768" y1="444.093" x2="292.58" y2="444.668"/>
	<line fill="none" x1="293.756" y1="451.467" x2="293.651" y2="450.806"/>
	<polygon fill="#ADD1E2" points="294.496,453.895 294.891,453.969 294.85,453.711 	"/>
	<polygon fill="#ADD1E2" points="330.442,483.388 330.633,483.084 330.321,483.135 	"/>
	<line fill="none" x1="325.992" y1="457.767" x2="326.211" y2="457.398"/>
	<polygon fill="#ADD1E2" points="320.809,445.486 320.301,445.715 320.858,445.584 	"/>
	<path fill="#ADD1E2" d="M207.861,63.561l-0.349-0.261l-0.166,0.67l0.377,0.417l-0.434,0.092l0.621,2.214l0.332-0.433l0.461,1.423
		l-0.62,0.104l0.271,0.32l-0.766-0.025c1.008-0.037,0.688,1.254,0.896,1.435l-0.147-0.038c-0.131,0.814,0.354-0.236,0.49,0.264
		l-0.934,0.835l0.723,2.841l1.196,1.821c0.149,0.585-0.756,0.15-0.28,0.666c-0.61-0.014-1.134,0.815-1.568,0.045l0.175,0.762
		l0.471-0.457c0.526-0.534,0.321,1.124,0.944,0.396l0.609,2.755l-0.76,0.043l1.072,1.813l0.872-0.403l0.377,0.432l-1.063,1.072
		c-0.804,0.007-0.198-1.197-0.888-0.704l-0.732-1.78c-0.816-0.468,0.05,0.504-0.637,0.536l0.929,1.57l0.665-0.03
		c0.876,0.603-0.229,1.072-0.229,1.266l-0.271-0.335l0.499,1.182c-0.835,0.367-0.329-0.837-0.889-0.896l-0.528,0.537
		c0.119,0.858,0.767,0.054,0.743,0.972l-0.341-0.028l0.321,0.489l0.636-0.751l0.564,1.084l0.345-0.432l0.736,0.651l-0.694,0.763
		l-0.008-0.567l-1.374,0.159l0.765,0.963c-0.383-0.527,0.356-0.229,0.52-0.454c1.567,0.654-0.761,0.882-0.309,1.761
		c0.778-0.42,1.472,0.939,2.21,0.02l0.431,0.681l-0.953,0.227l0.083,0.347l-0.808-0.339l-0.725,1.497l0.793,0.234l-0.417,0.559
		l1.009,0.046l-0.453,1.015l-0.596-0.354l0.104,0.558l1.301,0.134l-0.027,0.712l-0.474-0.403l-0.423,1.016l0.473,0.051l-0.399,0.194
		l0.531,0.563l-0.277,0.13l0.52,0.917l0.103-0.929c0.441-0.46,0.617,0.346,0.71,0.434c-0.749,0.188,0.127,0.755,0.199,1.109
		l-0.42,0.654h0.534c-0.896,0.411,0.354,0.624,0.234,1.093l-0.771,0.354l1.573,0.064c0.025,0.76-0.98,0.119-1.377,0.491l0.754,0.878
		l0.821-0.07l-0.417,0.541l0.904-0.102l0.596,1.149l-0.742-0.353c0.331,0.888,1.257,0.057,1.733,0.798l1.197-0.088
		c0.016,0.065,0.041,0.129,0.038,0.185c-0.15-0.074-0.413-0.29-0.658,0.05l0.235,0.326c-0.569,0.776-1.678-0.571-2.098,0.12
		l0.412,0.301l-0.83,0.249l0.653,0.878l0.108-0.338l1.094,1l-0.863,0.331l0.503,0.423l-0.28,0.061
		c0.604,1.681,1.516,3.747,3.146,4.642l-0.095,1.976l0.584-0.054l-0.326,0.647l1.082,1.283l-0.295,0.327l0.628,0.401l-0.222,0.46
		l0.353-0.127c0.394,0.309,0.802,0.792,0.186,1.071l0.447-0.113l1.583,2.082l0.352-0.723l0.557,0.251l-0.566,0.369l2.442,3.347
		l0.503,0.013l1.788,2.415l1.146-0.292c0.775,0.054-0.357,0.726-0.243,1.361l0.841,0.529l-0.079,0.043l0.942,0.765l-0.08-0.008
		l0.465,1.026l1.149,0.339l-0.071,0.216l0.27-0.328l0.272,0.676l-0.525,0.114c0.283,0.767,0.385-0.151,0.764-0.063
		c4.121,0.187,1.528,0.049,2.683,0.229c-1.063,0.249,1.954,0.189-2.667,0.16c-0.671,0.137,1.768,0.196,2.731,0.224l0.168-0.597
		l0.968-0.18l0.378-0.749l-0.897-0.013l0.581-0.375l0.127-0.42l0.721,0.248l0.567-0.899c0.289,0.382,0.354,0.996,0.982,0.704
		l0.224-0.741l0.483,0.106c1.038-0.383,0.179-1.725,1.117-1.844l0.354,0.243l0.157-0.429c1.316,0.606,2.238-1.146,3.572-1.334
		c-0.453-0.531,0.368-0.469,0.413-0.819c0.335,0.627,0.489-0.487,1.023-0.317l-0.563-0.48c0.854-0.077,0.411-1.56,1.257-1.114
		l0.101,0.699c1.217,0.685,1.585-5.613,1.354-3.931l-1.07-0.072l0.452-1.317l-0.334-0.713l0.355,0.203l-0.809-1.369l-0.043-2.067
		c-0.735-0.154-0.051-1.104-0.878-0.901l0.213-0.17l-1.036-0.485l0.566-0.071c0.694-0.138-0.118-0.897,0.187-1.09l-0.509-0.242
		l-0.284-0.295l-0.553-0.663l0.542-0.166l-0.373-0.993c0.022-0.042,0.035-0.095-0.056-0.246l0.06-0.638l0.444-0.025l-0.921-0.706
		c0.078-1.167-0.89-2.88-1.265-3.276l0.229,0.162l-0.381-0.674l0.082-0.896l-0.338,0.177l-0.868-2.961l0.541,0.283l-1.604-1.979
		l0.544,0.086l-0.861-1.155l-0.636-0.333l0.085-0.032l-0.562-1.012l0.402,0.03c0.649-0.326,0.073-1.332,0.125-1.466l-0.534-0.147
		l0.219-0.6l-1.489-0.714l-0.051-0.129l0.75-0.188l-1.042-0.831l-0.705-2.315l0.898-0.025l-0.551-2.292
		c-0.564,0.639-0.681-0.396-1.185-0.482l-0.107-0.344c0.015-0.347,0.408-0.385,0.452-0.667l-0.863-2.357l0.143-0.014l-1.33-2.226
		l-0.026-0.121l0.379,0.026c0.022-0.532-0.28-0.456-0.532-0.502l-0.092-0.324l0.265,0.071l-0.72-1.606l0.406,0.104l-0.674-0.976
		l-0.147-0.531l0.407,0.027l-0.699-0.966l-0.013-0.046l0.23-0.407l-0.65-0.942l-0.113-0.364l0.313-0.636l-2.708-7.344l-0.292-0.962
		c0.481-0.457,0.595,0.504,0.96,0.085c-0.593,0.194-0.315-0.411-0.754-1.211l0.065-0.053l-0.212-0.982l-0.146,0.067
		c-0.519-0.305,0.474-1.152-0.347-1.141l0.338-0.442l-0.716-1.043l0.142,0.01c0.094-0.754-1.162-1.176-0.688-1.596l-0.742-0.727
		l-0.141-0.462l0.432-0.104c-0.539-1.417-1.299-3.286-1.841-4.579l-0.499-1.665l-10.844,2.777c-0.623,0.075-1.068,0.28-1.631,0.417
		l-3.502,0.892l-0.23-0.138c-0.202,0.046-0.321,0.242-0.498,0.321l-1.035,0.287l-0.432,1.647c-0.104,0.312-0.198,0.591-0.241,0.94
		l-1.066,4.054l0.38,1.243C207.492,62.107,207.688,62.866,207.861,63.561z M208.671,62.353l-0.815,0.496L208.671,62.353z"/>
	<path fill="#ADD1E2" d="M236.094,128.975l-0.001,0.015C236.784,128.987,236.571,128.987,236.094,128.975z"/>
	<polygon fill="#ADD1E2" points="241.937,124.507 241.857,124.462 241.787,124.626 	"/>
	<polygon fill="#ADD1E2" points="242.195,124.31 241.937,124.507 242.193,124.688 	"/>
	<polygon fill="#ADD1E2" points="237.306,127.056 237.294,127.057 237.257,127.244 	"/>
	<polygon fill="#ADD1E2" points="241.141,94.387 241.205,94.468 241.435,94.589 	"/>
	<line fill="none" x1="210.469" y1="89.48" x2="210.348" y2="88.829"/>
	<polygon fill="#ADD1E2" points="211.234,91.928 211.627,91.991 211.54,91.744 	"/>
	<polygon fill="#ADD1E2" points="247.15,121.393 247.353,121.09 247.034,121.137 	"/>
	<line fill="none" x1="242.695" y1="95.764" x2="242.897" y2="95.398"/>
	<path fill="#ADD1E2" d="M369.756,210.024c0.162,0.107,0.326,0.203,0.484,0.313C370.899,209.799,370.459,209.85,369.756,210.024z"/>
	<path fill="#ADD1E2" d="M222.761,145.108c-1.253-0.777-0.179-3.633-2.178-3.13c-0.616,3.104,3.61,5.734,6.886,5.696
		c0.261,0.216,0.301,0.382,0.452,0.58c-0.662-1.146-0.992-2.276-0.683-3.446C225.747,144.705,223.54,142.439,222.761,145.108z"/>
	<path fill="#ADD1E2" d="M228.343,148.927c-0.151-0.227-0.298-0.451-0.432-0.681"/>
	<path fill="#ADD1E2" d="M350.653,315.108c0.092-0.447,0.201-0.86,0.154-1.399"/>
	<path fill="#ADD1E2" d="M139.456,292.557c0.395-0.273,1.016-0.2,1.542-0.284C140.601,291.563,140.115,291.426,139.456,292.557z"/>
	<path fill="#ADD1E2" d="M166.818,184.712c-0.291,0.199-0.561,0.633-0.802,1.587"/>
	<path fill="#ADD1E2" d="M228.699,142.578c-0.867,0.777-1.255,1.507-1.463,2.227C227.972,144.847,228.558,144.426,228.699,142.578z"
		/>
	<path fill="#ADD1E2" d="M295.065,158.371c-0.232,0.313-0.498,0.354-0.746,0.59"/>
	<path fill="#ADD1E2" d="M227.413,342.313c-0.165,0.089-0.283,0.33-0.442,0.474c0.448,0.205,0.817,0.384,1.326,0.625
		L227.413,342.313z"/>
	<path fill="#3E96CD" d="M342.155,367.584c8.932,5.365,13.994-6.741,22.641-8.228c-3.715-3.586,1.619-3.484,1.553-5.985
		c3.258,4.305,2.563-3.654,6.387-2.724l-4.545-2.99c5.67-1.095-0.715-10.986,5.961-8.763c2.986-0.926,2.322,3.182,2.199,4.636
		c7.102,1.004,2.84-10.465,9.543-9.288c-1.557-1.483-4.998-2.617-4.787-6.296c3.465-0.641,8.555-3.816,9.057-3.041
		c0.121-2.551-1.146-3.811,1.65-5.158c1.146,0.796,0.834,1.854,1.014,2.848c2.928-3.038,2.674-6.77,1.758-10.804
		c4.391-0.684,4.799-8.111,7.912-12.22c-4.57-3.452,2.898-7.448-3.479-8.514l1.971-0.569c-1.674-1.909-5.67-3.449-5.793-5.445
		l4.15,0.764c5.629,0.635,0.904-6.124,3.453-6.809c-3.455,2.063-0.148-2.49-3.402-2.416l-1.568-2.361
		c-1.463-3.762-2.111-0.213-3.166-4.845c-0.766-2.529,4.746-1.833,4.299-0.741c1.717-2.73-0.184-4.758-1.777-6.84
		c-0.025-0.114-0.025-0.205-0.08-0.342c0.201-0.703-0.016-1.598-0.242-2.542c0.143-0.152,0.082-0.349-0.129-0.585
		c-0.178-0.816-0.219-1.617,0.252-2.281l3.369-0.329c-0.369-1.806-5.318-5.161-6.58-4.453c0.037-6.765-6.846-15.59-10.137-17.878
		c1.094,0.444,2.125,0.05,0.674-0.22c-1.742-1.813-5.459-2.564-3.75-3.771c-2.307-1.025,0.891-2.824-0.678-5.732
		c0.57-0.441-3.025,1.44-2.162,1.942c1.26-7.784-10.146-8.039-11.662-15.207c-0.332,0.943,2.355-0.039,3.719-0.384
		c-4.379-2.891-8.779-5.427-15-5.221l3.697-1.778c-2.674-2.259-6.34-4.274-9.441-2.89c0.777,2.698,1.246-1.315,2.338-0.155
		c-0.063,3.819-5.223,3.384-6.33,1.385l0.373-0.604c-2.51-2.143-3.668-0.756-6.607-2.188c-0.688-2.524,2.014,0.035,2.479-2.058
		c2.242-4.806-5.238-6.642-5.52-7.492c-1.287,0.624-2.742,0.847-3.234,2.199c-2.965,0.017,0.256-3.359-1.518-4.021
		c-3.848,2.056-7.141,3.542-10.639,6.429c1.961-0.541-0.615-4.94,2.549-6.414c-5.764-0.507-10.25,4.918-13.623,7.628
		c-1.295-1.144-6.098,0.05-7.578-0.033c-0.586-2.909,1.291,0.44,1.789-1.692l-2.236-3.733c3.363,0.19-0.23-5.071,1.768-6.75
		c-2.984,0.646-9.797,0.781-14.42,0.271c3.691,5.557-5.43,3.798-4.166,9.044c-4.438,1.715-3.33-3.874-5.498-4.717l-13.321,6.426
		l-0.255-1.107c-3.126,3.468-10.148,5.343-11.375,11.481l-0.737-2.982c-5.066,0.496,2.9,6.305-3.368,5.928l-0.422-2.796
		c-1.45,3.119-7.446,2.065-6.489,7.686c-1.21-0.825-1.063-1.766-1.307-2.668c-1.232,3.392-3.971,6.155-2.772,10.537
		c-1.671-0.678-2.617-1.909-2.777-3.722c-3.706,1.502,1.582,5.646-1.503,7.129c-0.644,0.624-3.405,0.75-3.19,0.206
		c1.168,2.631-1.299,6.494-1.355,8.393c-1.741-0.547-2.86,0.189-5.483,0.907c-7.871,14.17-16.046,33.577-6.807,49.158
		c-4.404,4.069-4.517-3.23-7.643-0.775c4.545-0.961,2.214,2.828,5.383,7.71l-0.55,0.464c1.625,1.837-0.626,4.427,1.507,6.246
		l1.019-0.688c2.999,0.979-1,7.808,4.514,5.475l-1.043,3.535c5.882-1.71,2.031,4.191,7.538,3.261l-0.915,0.448
		c2.036,4.965,10.038,1.398,8.927,5.98c3.588,0.812,7.958,1.046,10.304-2.378c-0.005,1.652-1.527,3.75-2.621,4.812
		c12.621,1.335,27.734,11.972,37.138,0.481l0.211,2.55c4.996-6.161,15.801-0.484,15.934-10.885l-0.861-4.25
		c1.834,0.394,3.371,2.673,5.086,2.992c-0.693-2.803,4.359-4.073,2.031-6.995l2.242,2.329c2.166-2.195-1.232-7.519,1.041-8.524
		l1.186,1.236c12.572-9.604,4.012-38.219-9.814-42.354c-3.385-1.497,2.855-4.375,1.379-5.278
		c-11.088-10.527-32.958-5.764-28.51,12.868c-1.728,9.876,8.637,16.334,8.662,16.304c0.174-2.659,0.822-4.827,1.674-6.708
		c0.141,0.791,0.232,1.415,0.393,2.336c4.002,4.43,8.133,13.506,7.125,14.397c1.699,1.326,0.307-1.345-9.109,2.358
		c0.121,0.224-2.498,0.552-5.146,0.853c-4.585-2.038-9.228-3.537-14.477-4.2c0.468,1.739-1.716,3.486-3.208,3.761l0.309-1.283
		l-3.161,2.146c-1.897-0.271,0.723-3.448,2.328-3.479c-5.814-3.826-11.623-5.39-11.196-9.446c-4.177,1.314-0.657-1.562-5.435-0.632
		l2.037-0.317c-4.604-1.841-2.825-4.408,3.16-7.315c10.171-19.871,15.125-40.561,38.68-46.477
		c18.268-7.888,38.109-5.927,57.602,15.377c8.523-1.486,9.078,5.494,17.164,6.465l-2.035,0.878c4.557,1.386,2.664,6.395,2.164,11.63
		c2.318-1.043,1.553,1.578,5.014-0.884c4.105,0.377-3.863,5.517-1.047,7.14c-1.299,0.585,2.338-0.938,1.246,0.053
		c6.58,4.716-2.5-0.141-4.271,8.469c4.123,9.276,8.049,20.891,1.5,29.687c0.119-0.636,3.414,0.344,2.941,1.351
		c-6.742-1.843-0.01,4.015-3.332,4.637l-1.488-2.503c-4.162,2.825-3.578,8.407-8.709,10.451c-0.854,5.279-8.729,5.293-8.779,9.818
		c-1.299-2.54-2.943-0.064-4.549-0.395c2.416,8.542-8.951,3.765-9.604,10.516l-0.672-1.255
		c-11.963,8.83-23.789,12.667-36.592,19.414c-7.658,2.433-16.666-3.115-23.998-0.231c-1.464,1.045-0.4,2.851-1.647,3.563
		c-2.025-0.213,0.179-2.52-0.546-3.48c-4.288,3.71-8.575-2.133-13.07-2.462c-0.875,1.259-2.227,1.102-2.335,3.108
		c-3.197-6.86-12.732-2.567-15.771-9.245c-1.797,7.01-4.987,1.839-7.469,1.729c-0.794-0.987,0.273-2.509,1.352-3.397
		c-3.996-1.813-6.262-2.913-8.709-8.118c-2.277-1.056-5.556,1.354-6.91-1.634c2.26-4.771-4.117-4.86-4.78-8.291
		c-2.734,3.331-7.798,2.204-8.271-1.431l5.317-2.778c-9.105-5.556-10.602-21.13-21.49-28.409l2.89-2.035
		c-2.378-0.042-0.787-21.092-4.934-30.49c2.277-2.975,4.111-7.739,4.506-10.819c-2.559-4.911-1.271-6.037-5.118-10.122
		c0.18-1.666,3.131-1.836,4.462-2.058c2.687-4.849,7.861-8.012,5.132-13.646l2.756,1.088c-0.787-4.605-1.378-12.337,4.06-14.378
		c-1.397-2.419,0.814-6.87-3.299-7.162c0.731-1.955,4.738,2.031,3.485-1.45l2.239,4.046c6.939-7.779,12-15.104,19.566-22.925
		c5.297,2.713,8.066-6.174,15.11-5.813c2.12-4.058,9.064-2.89,9.696-9.4l1.115,2.723c4.685-1.149,10.893-3.175,17.462-2.807
		c3.742,0.081,2.92-4.3,5.628-6.273l0.656,2.875c2.927-2.188,3.193-6.822,4.08-9.932c2.838,1.667,2.898-0.452,5.697,1.195
		c-2.344,1.925-4.082,5.368-5.129,9.525c3.967,0.792,7.254-7.282,10.145-2.761c3.496,0.907,6.061-0.468,6.16-4.409
		c-0.674,1.313,2.289,2.165,0.482,4.027c2.379-0.278,3.898-0.702,5.348-2.165c-0.451-0.106-1.035-0.454-1.514-0.353
		c1.195-2.984,3.756-2.815,3.221-7.277c-1.338,1.146-1.398,1.856-3.098,1.51c0.629-3.111,5.188-3.984,6.248-1.206
		c1.211,3.179-3.027,5.16-1.043,7.062l7.576-7.659c-1.652,2.532-4.174,0.391-3.373-2.69l-2.965,1.871l0.229-3.213
		c-4.936,1.177-8.434-2.239-13.42,0.714l2.035,3.183c-2.969,0.321-5.537,4.911-8.484,1.247c1.207-1.263,0.127-2.853-0.047-4.651
		c-0.643,0.636-1.299,1.922-2.158,1.539l0.895-5.664c-0.688,7.423-7.84,3.673-9.092,5.016l0.301-1.071
		c-4.785-1.77,1.198,2.965-1.757,3.443c-2.674-0.566-1.854-5.836-4.611-7.797c-4.682,1.233-11.475,6.655-17.597,4.036
		c-3.788,2.198-7.625,5.501-10.243,8.978c-3.466,1.166-1.876-5.6-4.449-1.746c-0.297-2.011-1.581-3.694-2.619-5.297
		c0.446,2.24-6.817,2.714-1.98,5.995c-5.455,1.271-11.575,3.313-15.895,7.671c1.462-1.333,0.166-4.698-2.207-5.28
		c-0.671,4.528-3.588,8.658-8.298,10.664c2.213,2.792,3.538,1.946,5.21,5.067c-0.285,0.801-0.132,2.862-1.177,3.399
		c-2.832-2.515-6.21-7.191-9.746-4.271c-2.868-5.359,6.361-4.588,1.17-7.787c-1.427-5.266,6.146-10.088,9.277-8.739
		c0.958-6.574-3.178,1.299-5.176-3.267c-3.077,2.671-3.478,5.238-7.607,9.913c1.523,2.011,3.25,0.993,2.486,4.381
		c-0.529,7.425-7.311,1.508-8.559,2.299l1.11-2.789c-3.895,1.114-2.521,4.497-5.48,6.823c-5.584-4.063,3.988-4.657,2.266-8.634
		l-5.435-1.616c-5.105,3.771,2.549,5.057-3.283,8.148l-1.232-2.227l-1.461,4.082c1.883,1.763,5.118,3.543,6.917,0.806
		c3.273,5.986-1.22,2.89-3.496,7.721c1.834,3.641,1.07-1.922,3.902,0.408c2.829,1.815,0.858,4.482-0.133,6.751
		c-2.413,3.074-4.422-0.844-7.409-1.023c0.007-0.968,1.594-3.819,3.055-2.226c0.215-6.465-7.457-2.945-7.236-7.479
		c-4.356,2.006-0.771,4.54-1.097,6.996c1.139-0.737,2.649,2.631,4.27,2.68c4.255,11.128-9.034-0.912-10.808,6.125
		c6.032,2.214,3.773,12.055,12.034,11.436c0.318,1.841,0.828,4.08-0.441,5.06c-3.171-3.425-4.273,0.866-6.66-3.567l-1.095,1.986
		l-3.032-5.451c-3.865,0.91-8.598,3.72-11.171,4.237c0.151,3.959,4.337,0.69,3.496,4.759c-1.522-2.169-4.325-0.62-4.725,1.138
		c2.685-2.755,5.755,2.258,6.127,4.655c-0.947,3.222-5.669,4.531-6.486,3.741l-2.499-4.462c2.213,3.556-1.943,0.55-1.455,3.571
		c2.056,1.492,5.124,4.183,7.842,5.879c0.39,2.343-3.109,2.939-2.804,3.826l-1.521-4.053c-0.393,4.685-6.726-0.894-6.49,4.249
		l2.926,2.037c-0.789,0.765-2.413,0.88-3.386-0.314c2.196,1.298,0.724,3.826,1.565,5.121l-2.228-0.147
		c1.137,2.25,5.694,5.523,1.034,7.062c5.577-0.86,0.378-2.322,3.25-5.106c4.193-1.176,3.195,3.897,3.698,4.713
		c-5.673-1.246-1.222,4.731-1.572,6.903l-4.667,2.706l3.688,1.362c-7.499-0.01,1.084,4.694-1.527,6.977
		c-2.111-1.502-5.084-1.594-6.4,0.173c5.877-1.988,6.32,4.521,10.257,3.973c-1.937,4.313-7.025-1.444-10.896-0.381
		c4.264,2.486-2.774,5.001,2.747,6.716c1.694-3.211,3.52,0.646,5.959,1.355c-0.417,4.043-2.443-0.737-4.417,2.108
		c0.78,1.75,5.065,3.97,6.625,1.389c-1.167,2.36,4.146,4.923,0.755,7.562c-3.446,1.146-1.62-4.896-4.082-3.354
		c-0.311,5.642,8.574,2.708,9.765,7.695c1.858-2.214,7.987-0.348,10.069,1.83c-1.467,5.421-2.085-2.223-6.492,0.021l0.698,2.151
		c-6.039,3.497-10.023-6.111-14.913-2.915l2.062,2.393c-1.296-0.346-3.275-0.586-4.917-0.283c1.361,2.491,1.362,13.569,2.637,13.164
		c3.588-0.535-1.919-2.215,0.883-2.673c2.227,3.117,7.969,1.649,7.676,6.46c-3.231-1.124-4.081,2.781-6.314,2.728
		c-0.484,2.562,4.111-1.134,3.57,2.448l-2.078,0.598c4.032,10.455,11.978,22.597,24.505,25.031
		c-1.857,3.467,0.009,6.466,1.492,12.462c-0.567-2.707,2.742-2.386,4.035-1.693l-1.357,4.683c0.47,4.069,6.233,4.723,9.968,5.168
		l-1.485,2.724c0.294,3.984,3.875,0.434,5.318,0.504l-0.567,3.451l2.216-1.82c3.267,0.738,5.597,3.792,2.417,7.181
		c1.509,0.026,2.987,0.005,2.626-1.919c0.712,3.796,7.416,8.989,12.907,10.41c-1.658-2.213-0.633-3.398,0.744-5.963
		c3.227-3.741,0.49,1.438,3.831-0.031c-0.915,1.579,0.246,4.354-2.72,4.288c3.12,9.237,14.851,9.356,23.162,13.112
		c2.003-0.104,1.695-1.074,2.9-2.039c4.24,6.513,12.555,2.367,18.23,5.688c-1.104-2.335,1.476-7.54,4.631-7.699
		c3.746-3.963,0.967,5.719,4.228,8.243c1.781-1.86,4.874-2.305,6.201-2.03l-0.129,0.699c2.047-2.199,5.115-3.166,7.549-1.754
		l-0.354,0.327c1.906,0.114,4.438,2.396,6.439,1.774c0.43-3.914,5.656-2.244,6.258-5.787l0.666,1.453l-0.414-3.203l4.248,1.269
		l-1.486,3.794c4.711,1.521,0.896-3.027,2.641-5.285c2.201-3.078,2.771,0.094,4.461,1.043c-0.789,1.908-2.246-0.154-2.783,0.615
		c-1.037,2.979,1.908,0.542,2.408,2.323c0.637-0.075-0.035-3.97,2.17-3.829c1.881-0.143,5.725-2.327,6.236,1.195
		c0.99-2.236,2.885-2.399,3.533-4.25c-1.65-0.178-4.525-0.281-5.48-2.354c1.164-0.794,3.365-2.439,4.25-1.084l-0.748,1.135
		c0.748-1.135,4.803-1.205,1.834-3.722l4.148,3.486c0.637-3.063,2.977-3.96,4.873-5.481c1.615,3.227,1.551,7.711,5.885,6.569
		l1.766-4.897c1.553-1.212,2.365-0.738,3.086,1.314c6.971-1.398,1.172-11.932,7.105-11.75c0.336,4.792,2.07,4.199,4.711,3.988
		c-0.281-0.66-0.852-1.963-0.098-2.59c-1.604-1.326,0.367,3.239-2.674,1.707C338.948,369.462,341.672,368.851,342.155,367.584z"/>
</g>
</svg>
