<?xml version="1.0" encoding="utf-8"?>
<!-- Generator: Adobe Illustrator 16.0.0, SVG Export Plug-In . SVG Version: 6.00 Build 0)  -->
<!DOCTYPE svg PUBLIC "-//W3C//DTD SVG 1.1//EN" "http://www.w3.org/Graphics/SVG/1.1/DTD/svg11.dtd">
<svg version="1.1" id="Layer_1" xmlns="http://www.w3.org/2000/svg" xmlns:xlink="http://www.w3.org/1999/xlink" x="0px" y="0px"
	 width="540px" height="540px" viewBox="0 0 540 540" enable-background="new 0 0 540 540" xml:space="preserve">
<g>
	<g>
		<path fill="#DD4747" d="M64.499,289.497C64.499,402.988,156.498,495,270.002,495c113.491,0,205.499-92.012,205.499-205.503H64.499
			z M256.141,462.876c-78.014,0-141.256-63.245-141.256-141.258h31.327c0,72.716,54.95,132.592,125.59,140.38
			C266.657,462.573,261.436,462.876,256.141,462.876z"/>
		<path fill="#E37029" d="M282.098,269.2c-22.794-33.109-43.191-71.193-52.645-104.427c27.114,33.412,54.632,54.252,77.431,87.36
			c0.944,1.378,1.964,2.703,3.007,4.01c23.009-33.797,27.34-78.778,7.396-117.744C294.566,94.005,224.551,84.159,184.245,45
			c-34.014,63.033-32.525,122.111-9.799,166.507c20.161,39.397,65.932,59.141,108.676,59.059
			C282.778,270.115,282.42,269.673,282.098,269.2z"/>
		<path fill="#E37029" d="M373.591,269.593c16.31-23.694,30.897-50.945,37.667-74.727c-19.397,23.911-39.092,38.824-55.405,62.512
			c-0.678,0.986-1.406,1.935-2.146,2.872c-16.468-24.185-19.563-56.372-5.3-84.249c16.259-31.768,66.359-38.813,95.201-66.832
			c24.337,45.104,23.273,87.374,7.009,119.142c-14.425,28.191-47.174,42.317-77.757,42.259
			C373.102,270.243,373.355,269.925,373.591,269.593z"/>
	</g>
	<g>
		<path fill="#E56161" d="M64.499,289.497c0,32.3,7.472,62.843,20.751,90.034c14.957,3.086,30.227,5.644,45.773,7.633
			c-10.285-19.596-16.135-41.882-16.135-65.546h31.327c0,25.011,6.503,48.5,17.901,68.875c15.612,1.156,31.451,1.756,47.488,1.756
			c96.151,0,185.336-21.331,258.88-57.718c3.243-14.506,5.01-29.561,5.01-45.038L64.499,289.497L64.499,289.497z"/>
	</g>
</g>
</svg>
