<?xml version="1.0" encoding="utf-8"?>
<!-- Generator: Adobe Illustrator 15.0.0, SVG Export Plug-In . SVG Version: 6.00 Build 0)  -->
<!DOCTYPE svg PUBLIC "-//W3C//DTD SVG 1.1//EN" "http://www.w3.org/Graphics/SVG/1.1/DTD/svg11.dtd">
<svg version="1.1" id="Layer_1" xmlns="http://www.w3.org/2000/svg" xmlns:xlink="http://www.w3.org/1999/xlink" x="0px" y="0px"
	 width="296.5px" height="287.322px" viewBox="0 0 296.5 287.322" enable-background="new 0 0 296.5 287.322" xml:space="preserve">
<g>
	<path fill="#C4D831" d="M248.437,236.71c-34.933,42.321-93.171,61.749-148.864,44.604C25.886,258.619-15.475,180.457,7.219,106.762
		c2.565-8.307,5.827-16.215,9.714-23.655C11.511,136.755,34.761,184.675,76.01,197.38c42.592,13.117,75.363-13.563,101.144-43.088
		c13.431-15.377,35.286-22.795,55.887-15.902C282.104,154.802,274.024,205.694,248.437,236.71z"/>
	<path fill="#DCE47D" d="M46.671,242.865C94.229,257.516,148.276,221,171.746,160.318c-24.92,26.973-56.071,49.277-95.735,37.063
		c-41.248-12.705-64.498-60.625-59.076-114.273c-3.887,7.439-7.147,15.348-9.714,23.655c-14.425,46.841-2.971,95.486,26.221,130.553
		C37.618,239.574,42.031,241.443,46.671,242.865z"/>
	<path fill="#C4D831" d="M47.011,51.82C81.936,9.499,140.174-9.929,195.862,7.218c73.693,22.695,115.056,100.858,92.361,174.552
		c-2.559,8.306-5.82,16.215-9.715,23.653c5.422-53.648-17.821-101.576-59.077-114.273c-42.592-13.117-75.354,13.565-101.143,43.089
		c-13.43,15.376-35.287,22.794-55.887,15.902C13.339,133.727,21.418,82.837,47.011,51.82z"/>
	<path fill="#DCE47D" d="M248.777,45.667c-47.563-14.652-101.61,21.864-125.08,82.547c24.92-26.973,56.063-49.278,95.734-37.063
		c41.256,12.698,64.499,60.625,59.077,114.274c3.895-7.439,7.156-15.35,9.715-23.654c14.424-46.842,2.969-95.495-26.221-130.554
		C257.825,48.956,253.413,47.088,248.777,45.667z"/>
</g>
</svg>
