<?xml version="1.0" encoding="utf-8"?>
<!-- Generator: Adobe Illustrator 15.0.0, SVG Export Plug-In . SVG Version: 6.00 Build 0)  -->
<!DOCTYPE svg PUBLIC "-//W3C//DTD SVG 1.1//EN" "http://www.w3.org/Graphics/SVG/1.1/DTD/svg11.dtd">
<svg version="1.1" id="Layer_1" xmlns="http://www.w3.org/2000/svg" xmlns:xlink="http://www.w3.org/1999/xlink" x="0px" y="0px"
	 width="315.276px" height="338.5px" viewBox="0 0 315.276 338.5" enable-background="new 0 0 315.276 338.5" xml:space="preserve">
<g>
	<path fill="#61AFC3" d="M98.386,113.722c7.319,10.455,11.082,25.018,9.671,41.738c-1.207,17.001-7.645,33.343-17.176,46.251
		c11.503-10.778,26.176-17.672,42.323-18.615c16.664-0.951,32.047,4.652,44.17,14.887c-9.703-12.743-15.018-28.877-14.143-46.396
		c1.021-17.236,8.043-33.232,18.787-45.9c-12.806,10.517-28.614,17.602-44.865,18.932
		C121.379,126.073,107.966,121.765,98.386,113.722z"/>
	<g>
		<path fill="#0093AE" d="M93.968,109.76c-1.055-1.496-2.246-2.75-3.246-4.225c-8.718-7.257-20.109-10.2-32.764-7.636
			c-26.52,6.224-50.925,38.05-56.376,71.635c-4.101,35.576,13.832,63.191,42.145,61.537c13.411-0.675,26.533-7.324,37.443-18.015
			c1.387-2.007,2.791-3.722,4.355-5.646c-10.192-12.406-15.575-29.305-13.942-48.313C73.589,140.318,81.874,123.095,93.968,109.76z"
			/>
		<path fill="#0093AE" d="M188.209,100.173c12.068,11.827,19.264,29.173,18.375,49.277c-0.787,20.55-9.67,39.705-23.453,54.026
			c1.701,1.668,3.238,3.591,4.754,5.472c12.709,10.512,29.291,16.858,47.775,16.61c43.537-0.407,79.375-35.88,79.615-78.369
			c0.241-40.738-33.64-71.627-75.06-70.187c-17.637,0.937-33.881,7.498-47.024,17.884
			C191.649,96.692,189.864,98.546,188.209,100.173z"/>
	</g>
	<g>
		<path fill="#ADD1E2" d="M94.554,109.112c12.481-13.088,28.886-22.24,46.673-24.473c18.325-1.951,34.618,3.921,46.383,15.134
			c1.854-1.757,3.776-3.432,5.582-4.886c10.842-12.33,17.946-27.306,19.229-42.702c3.102-33.323-23.549-54.439-58.271-49.071
			c-32.233,6.472-62.854,35.238-69.686,65.859c-2.633,14.128-0.172,26.796,6.258,36.562
			C92.109,106.568,93.335,107.837,94.554,109.112z"/>
		<path fill="#ADD1E2" d="M182.619,203.958c-13.658,14.107-31.818,23.033-51.123,23.646c-18.65,0.578-34.633-7.154-45.563-19.539
			c-1.511,1.668-3.103,3.336-4.764,4.99c-9.077,12.998-14.639,29.132-15.045,46.658c-0.056,40.82,28.456,74.521,65.343,75.769
			c39.365,0.801,72.469-33.818,72.517-77.554c0.2-18.829-5.898-35.858-16.101-48.981
			C186.018,207.424,184.254,205.764,182.619,203.958z"/>
	</g>
</g>
</svg>
