<?xml version="1.0" encoding="utf-8"?>
<!-- Generator: Adobe Illustrator 15.0.0, SVG Export Plug-In . SVG Version: 6.00 Build 0)  -->
<!DOCTYPE svg PUBLIC "-//W3C//DTD SVG 1.1//EN" "http://www.w3.org/Graphics/SVG/1.1/DTD/svg11.dtd">
<svg version="1.1" id="Layer_1" xmlns="http://www.w3.org/2000/svg" xmlns:xlink="http://www.w3.org/1999/xlink" x="0px" y="0px"
	 width="294.316px" height="302.262px" viewBox="0 0 294.316 302.262" enable-background="new 0 0 294.316 302.262"
	 xml:space="preserve">
<g>
	<g>
		<path fill="#11BA55" d="M143.079,22.925c18.563-6.052,37.489-8.042,55.79-6.46c-23.332-4.885-48.229-3.958-72.521,3.965
			c-53.412,17.406-89.341,63.664-96.201,115.88h17.115C54.921,85.124,90.531,40.065,143.079,22.925z M150.173,31.062
			c-49.181,16.034-82.869,57.617-91.201,105.25h16.465c9.035-46.625,42.4-87.087,90.762-102.852
			c17.765-5.793,35.883-7.706,53.41-6.195C197.258,22.583,173.437,23.48,150.173,31.062z M119.972,12.462
			c19.354-6.311,39.074-8.384,58.139-6.745c-24.311-5.089-50.268-4.124-75.588,4.131C44.931,28.629,6.841,79.586,1.637,136.311
			h17.736C25.486,80.637,63.255,30.952,119.972,12.462z"/>
	</g>
	<g>
		<path fill="#4DFF95" d="M259.504,217.738c-4.034,19.102-11.771,36.494-22.299,51.562c15.896-17.772,27.539-39.793,32.834-64.792
			c11.617-54.962-10.473-109.213-52.272-141.256l-8.548,14.819C249.715,110.295,270.945,163.669,259.504,217.738z M248.91,219.816
			c10.711-50.607-8.465-100.58-45.561-131.604l-8.218,14.254c35.859,31.142,54.212,80.267,43.695,130.04
			c-3.873,18.285-11.283,34.915-21.338,49.344C232.707,264.837,243.845,243.74,248.91,219.816z M280.115,202.965
			c-4.203,19.907-12.26,38.011-23.219,53.718c16.578-18.521,28.69-41.47,34.209-67.52c12.531-59.268-12.541-117.736-59.072-150.608
			l-8.867,15.357C268.314,87.042,292.465,144.602,280.115,202.965z"/>
	</g>
	<g>
		<path fill="#076D30" d="M35.508,222.937c-14.53-13.05-25.716-28.44-33.505-45.082c7.44,22.658,20.683,43.744,39.7,60.832
			c41.783,37.536,99.808,45.534,148.467,25.357l-8.557-14.82C133.447,268.193,76.623,259.884,35.508,222.937z M39.007,212.728
			c38.477,34.572,91.337,42.959,136.739,26.36l-8.215-14.257c-44.897,15.486-96.633,6.816-134.469-27.182
			C19.155,185.159,8.462,170.424,1,154.499C8.129,176.185,20.813,196.375,39.007,212.728z M38.003,248.187
			c-15.145-13.595-26.801-29.631-34.914-46.978c7.743,23.608,21.556,45.589,41.36,63.394
			c45.063,40.489,108.236,47.993,159.979,24.137l-8.865-15.357C144.277,295.92,82.362,288.059,38.003,248.187z"/>
	</g>
</g>
</svg>
