<?xml version="1.0" encoding="utf-8"?>
<!-- Generator: Adobe Illustrator 16.0.0, SVG Export Plug-In . SVG Version: 6.00 Build 0)  -->
<!DOCTYPE svg PUBLIC "-//W3C//DTD SVG 1.1//EN" "http://www.w3.org/Graphics/SVG/1.1/DTD/svg11.dtd">
<svg version="1.1" id="Layer_1" xmlns="http://www.w3.org/2000/svg" xmlns:xlink="http://www.w3.org/1999/xlink" x="0px" y="0px"
	 width="540px" height="540px" viewBox="0 0 540 540" enable-background="new 0 0 540 540" xml:space="preserve">
<g>
	<path fill="#FA6D72" d="M311.604,387.435c8.129,27.124,31.344,41.521,42.641,51.803c12.625,10.126,18.855,15.946,17.705,18.334
		c-1.043,2.237-11.279-1.107-27.02-10.191c-14.551-9.563-39.629-23.665-49.139-56.248c-3.475-16.269-1.172-34.563,11.813-48.26
		c13.258-12.859,29.51-15.349,42.459-20.115c13.381-4.107,24.117-11.043,30.025-21.534c5.986-9.897,1.549-22.082-2.014-33.934
		c-3.824-11.8-5.014-24.982-0.043-35.052c4.18-10.558,15.236-15.277,22.793-13.6c15.52,3.113,19.543,12.984,19.936,12.088
		c-0.174,0.867-5.799-8.321-20.137-9.567c-16.209-2.266-25.924,22.428-14.877,43.558c3.928,10.398,11.744,25.592,4.297,41.375
		c-6.496,14.443-21.123,24.463-35.213,29.506c-13.793,5.529-28.244,9.395-36.078,18.102
		C311.031,361.585,309.012,376.136,311.604,387.435z"/>
	<path fill="#E84243" d="M289.953,163.748c26.949,8.738,47.625,19.348,58.248,30.929c10.836,11.402,11.877,20.065,9.389,21.67
		c-2.938,2.014-9.1-4.25-20.992-11.15c-12.025-6.971-30.494-14.102-53.35-21.471c-48.202-13.117-95.829-46.308-124.866-76.806
		c-29.607-31.844-35.891-62.486-36.271-61.912c0.289-0.469,11.955,28.153,43.553,54.33
		C197.657,124.879,243.304,151.123,289.953,163.748z"/>
	<path fill="#E84243" d="M276.262,194.062c24.07,12.77,40.711,28.248,46.422,42.351c5.768,14.102,2.508,22.011,0.453,22.044
		c-2.881,0.346-4.25-8.051-11.965-18.173c-7.877-10.121-22.924-21.471-42.685-31.938c-41.175-19.22-86.136-48.273-115.027-75.383
		c-14.662-13.652-25.288-27.613-30.111-38.815c-4.899-11.259-3.768-18.628-4.108-18.52c0.322-0.109,0.322,7.312,6.373,17.367
		c5.941,10.07,17.6,22.083,33.085,33.787C190.251,150.492,233.519,174.048,276.262,194.062z"/>
	<path fill="#F1575D" d="M199.496,222.474c4.129,3.279,8.937,6.398,8.089,12.534c-0.663,5.028-4.752,6.752-7.415,10.359
		c-2.143,2.88-2.809,5.132-2.327,8.16c1.086,6.398,7.697,14.121,14.109,20.373c3.55,3.551,13.115,8.919,14.016,14.179
		c0.791,4.677-4.341,8.464-5.64,12.534c-1.55,4.895,2,11.712,6.515,16.607c19.311,20.082,38.364,25.473,37.9,25.494
		c0.323-0.307-19.164-0.346-44.022-19.242c-8.965-6.797-16.88-20.896-9.547-31.579c-10.476-8.206-24.944-20.933-29.736-34.962
		c-4.737-13.885,1.905-20.912,5.493-22.372c-8.423-3.781-17.219-14.732-22.875-21.817c-3.567-4.483-7.021-8.97-9.566-15.055
		c-1.171-3.062-2.361-6.688-1.712-11.439c0.882-6.431,8.159-10.141,14.119-10.539c-7.401,0.507-14.795-12.932-18.048-17.974
		c-16.301-25.196-22.374-42.042-22.914-41.896c0.322-0.431,10.824,15.06,29.689,36.351c4.771,5.208,10.628,10.103,17.146,14.86
		c3.55,2.573,6.841,4.033,9.373,7.872c4.828,7.316,1.511,9.349-5.368,10.899c-11.027,2.502-6.705,9.35-0.039,15.979
		C183.247,208.889,191.173,215.877,199.496,222.474z"/>
	<path fill="#E84243" d="M307.928,137.665c15.996,15.097,30.943,30.801,38.439,44.654c7.801,13.742,11.42,29.252,11.596,29.091
		c0,0-8.066-13.851-18.555-23.779c-10.264-10.231-26.674-21.381-43.645-37.393c-17.078-15.6-29.058-37.232-28.637-53.836
		c-0.127-16.339,5.672-24.551,5.254-24.585c0.316-0.109-0.885,9.852,3.365,23.163C279.705,108.503,291.826,122.586,307.928,137.665z
		"/>
	<path fill="#FBAFC4" d="M379.869,193c-5.094,0.829-15.055,10.661-19.742,5.08c-6.559-7.818,14.371-15.524,18.699-16.391
		c9.678-1.512,18.049,6.051,21.734,11.723c4.201,6.02,6.885,11.871,9.574,16.789c5.008,10.032,10.387,16.05,10.387,16.05
		c0.096,0.071-7.469-3.748-15.309-12.482c-6.32-7.042-14.244-21.035-24.777-20.822C380.25,192.946,380.069,192.965,379.869,193z"/>
	<path fill="#FBAFC4" d="M256.834,449.321c-3.335,15.479-2.326,23.35-6.447,24.539c-3.422,1.388-9.352-11.047-5.46-27.219
		c8.178-32.622,37.97-56.672,37.033-57.027C282.746,389.751,263.003,422.178,256.834,449.321z"/>
	<path fill="#FBAFC4" d="M286.639,467.371c1.172,17.453,2.199,26.172-1.799,27.528c-3.395,1.309-9.459-10.229-10.373-26.836
		c-3.137-34.632,18.855-69.717,18.986-68.883"/>
	<path fill="#FBAFC4" d="M325.906,466.547c6.018,12.03,9.619,17.472,6.795,20.713c-2.217,2.881-11.871-3.05-17.746-15.386
		c-10.693-25.02-11.578-55.457-12.881-55.457C303.049,415.602,316.502,444.857,325.906,466.547z"/>
	<path fill="#FBAFC4" d="M330.412,409.444c-10.211-10.473-12.945-17.361-11.117-18.875c2.057-1.695,8.582,4.739,16.879,13.143
		c15.977,17.961,42.223,32.079,42.473,31.851C379.004,436.024,348.172,428.927,330.412,409.444z"/>
</g>
</svg>
