<?xml version="1.0" encoding="utf-8"?>
<!-- Generator: Adobe Illustrator 16.0.0, SVG Export Plug-In . SVG Version: 6.00 Build 0)  -->
<!DOCTYPE svg PUBLIC "-//W3C//DTD SVG 1.1//EN" "http://www.w3.org/Graphics/SVG/1.1/DTD/svg11.dtd">
<svg version="1.1" id="Layer_1" xmlns="http://www.w3.org/2000/svg" xmlns:xlink="http://www.w3.org/1999/xlink" x="0px" y="0px"
	 width="540px" height="540px" viewBox="0 0 540 540" enable-background="new 0 0 540 540" xml:space="preserve">
<g>
	<path fill="#F26223" d="M224.473,429.756c0.328-0.925,0.715-1.794,1.189-2.63c0.197-0.431,0.46-0.883,0.722-1.265l0.715-1.122
		c0.924-1.465,1.793-2.937,2.618-4.438c1.584-2.946,3.006-6.082,3.379-9.091c0.196-1.501,0.073-2.932-0.371-4.198
		c-0.489-1.261-1.348-2.463-2.405-3.586c-0.301-0.295-0.574-0.559-0.864-0.853l-0.937-0.866c-0.706-0.629-1.385-1.323-2.03-2.083
		c-1.275-1.466-2.417-3.157-3.178-5.073c-0.791-1.9-1.214-4.001-1.134-6.075c0.025-2.06,0.494-4.107,1.196-5.948
		c0.723-1.836,1.724-3.57,2.819-5.131c0.532-0.763,1.116-1.498,1.728-2.19c-0.655-0.503-1.276-1.084-1.882-1.664
		c-1.296-1.305-2.486-2.739-3.426-4.397c-0.929-1.669-1.65-3.591-1.906-5.56c-0.263-2.03-0.026-4.058,0.532-5.941
		c0.564-1.874,1.477-3.591,2.502-5.089c1.17-1.697,2.126-2.716,3.059-4.004c1.832-2.476,3.451-5.183,3.598-7.461
		c0.07-1.123-0.22-2.252-0.81-3.496c-0.564-1.214-1.402-2.533-2.317-3.833c-1.833-2.63-3.812-5.369-5.61-8.21
		c-1.729-2.838-3.555-5.338-5.364-8.472c-0.847-1.577-1.718-3.371-2.003-5.621c-0.08-1.102-0.022-2.267,0.235-3.329
		c0.265-1.084,0.688-2.071,1.173-2.967c0.955-1.724,2.146-3.135,3.34-4.439c1.212-1.298,2.463-2.441,3.752-3.609
		c1.575-1.374,3.195-2.682,4.825-3.961c-51.952-75.41-186.391-79.846-186.391-79.846C87.46,247.83,66.939,316.602,85.692,367.324
		c38.91,115.376,136.663,74.635,136.663,74.635c0.208-0.179,0.37-0.393,0.557-0.608
		C222.583,437.448,223.045,433.463,224.473,429.756z"/>
	<path fill="#F69358" d="M224.473,429.756c0.328-0.925,0.715-1.794,1.189-2.63c0.197-0.431,0.46-0.883,0.722-1.265l0.715-1.122
		c0.924-1.465,1.793-2.937,2.618-4.438c1.584-2.946,3.006-6.082,3.379-9.091c0.196-1.501,0.073-2.932-0.371-4.198
		c-0.489-1.261-1.348-2.463-2.405-3.586c-0.301-0.295-0.574-0.559-0.864-0.853l-0.937-0.866c-0.706-0.629-1.385-1.323-2.03-2.083
		c-1.275-1.466-2.417-3.157-3.178-5.073c-0.791-1.9-1.214-4.001-1.134-6.075c0.025-2.06,0.494-4.107,1.196-5.948
		c0.723-1.836,1.724-3.57,2.819-5.131c0.532-0.763,1.116-1.498,1.728-2.19c-0.655-0.503-1.276-1.084-1.882-1.664
		c-1.296-1.305-2.486-2.739-3.426-4.397c-0.929-1.669-1.65-3.591-1.906-5.56c-0.263-2.03-0.026-4.058,0.532-5.941
		c0.564-1.874,1.477-3.591,2.502-5.089c1.17-1.697,2.126-2.716,3.059-4.004c1.832-2.476,3.451-5.183,3.598-7.461
		c0.07-1.123-0.22-2.252-0.81-3.496c-0.564-1.214-1.402-2.533-2.317-3.833c-1.833-2.63-3.812-5.369-5.61-8.21
		c-1.729-2.838-3.555-5.338-5.364-8.472c-0.847-1.577-1.718-3.371-2.003-5.621c-0.08-1.102-0.022-2.267,0.235-3.329
		c0.265-1.084,0.688-2.071,1.173-2.967c0.955-1.724,2.146-3.135,3.34-4.439c1.212-1.298,2.463-2.441,3.752-3.609
		c2.556-2.206,5.18-4.29,7.833-6.302c2.644-1.97,5.341-3.925,8.007-5.812c2.624-1.923,5.209-3.903,7.699-5.928
		c5.036-4.09,9.777-8.434,14.124-13.184c4.365-4.725,8.28-9.814,11.631-15.302c6.701-10.959,10.919-23.296,13.964-35.957
		c1.488-6.356,2.74-12.732,3.881-19.199c1.177-6.469,2.268-12.917,3.367-19.419c1.146-6.571,2.802-13.058,5.219-19.27
		c2.44-6.232,5.539-12.177,9.361-17.604c1.158-1.648,2.428-3.226,3.708-4.784c-5.304-21.031-5.792-42.366,3.046-64.354
		c0,0-160.903,105.485-160.365,234.217c0.17,42.604,11.236,104.91,69.308,141.129C222.348,440.218,222.563,434.755,224.473,429.756z
		"/>
	<g>
		<g>
			<g>
				<path fill="#CC5127" d="M329.551,118.956c-2.846,1.627-5.601,3.532-8.172,5.638c-5.143,4.16-9.67,9.084-13.514,14.524
					c-3.822,5.434-6.921,11.375-9.359,17.604c-2.41,6.212-4.078,12.697-5.22,19.27c-1.103,6.501-2.188,12.956-3.366,19.419
					c-1.145,6.464-2.391,12.843-3.881,19.198c-3.038,12.661-7.265,24.999-13.964,35.957c-3.354,5.488-7.265,10.577-11.63,15.302
					c-4.346,4.746-9.089,9.094-14.125,13.185c-2.485,2.029-5.068,4.005-7.699,5.928c-2.661,1.884-5.365,3.836-8.006,5.811
					c-2.653,2.012-5.28,4.096-7.834,6.303c-1.288,1.166-2.538,2.31-3.751,3.608c-1.189,1.307-2.386,2.717-3.341,4.439
					c-0.479,0.896-0.907,1.885-1.17,2.968c-0.257,1.063-0.319,2.229-0.237,3.329c0.28,2.249,1.153,4.042,2.004,5.621
					c1.809,3.133,3.636,5.633,5.364,8.473c1.797,2.838,3.784,5.578,5.609,8.208c0.914,1.299,1.751,2.62,2.321,3.834
					c0.587,1.243,0.881,2.373,0.809,3.494c-0.147,2.28-1.768,4.989-3.599,7.461c-0.933,1.29-1.896,2.311-3.06,4.005
					c-1.02,1.497-1.938,3.221-2.502,5.088c-0.557,1.886-0.794,3.914-0.531,5.939c0.263,1.97,0.981,3.899,1.906,5.563
					c0.938,1.666,2.133,3.091,3.426,4.396c0.607,0.574,1.231,1.16,1.884,1.664c-0.613,0.693-1.197,1.434-1.729,2.189
					c-1.096,1.564-2.096,3.299-2.82,5.134c-0.705,1.844-1.172,3.893-1.196,5.947c-0.081,2.073,0.344,4.172,1.132,6.073
					c0.762,1.918,1.902,3.609,3.178,5.073c0.646,0.757,1.328,1.449,2.029,2.084l0.94,0.865c0.289,0.296,0.557,0.558,0.865,0.854
					c1.059,1.122,1.916,2.324,2.404,3.586c0.445,1.267,0.569,2.695,0.367,4.2c-0.367,3.01-1.793,6.145-3.376,9.088
					c-0.822,1.504-1.692,2.975-2.62,4.44l-0.714,1.122c-0.263,0.38-0.532,0.832-0.724,1.261c-0.472,0.839-0.865,1.709-1.188,2.632
					c-2.729,7.151-2.072,15.266,1.434,21.88c1.741,3.371,4.146,6.288,6.975,8.637c2.834,2.412,6.064,4.254,9.404,5.654
					c6.75,2.771,13.941,3.823,21.032,4.057c14.241,0.4,28.273-2.208,41.808-5.956c-6.844,1.535-13.804,2.695-20.756,3.474
					c-6.975,0.784-13.99,1.104-20.94,0.601c-6.92-0.516-13.841-1.857-20.042-4.676c-3.103-1.418-6.025-3.195-8.503-5.402
					c-2.52-2.245-4.573-4.886-6.002-7.877c-2.913-5.892-3.244-13.027-0.844-19.042c0.319-0.74,0.649-1.433,1.047-2.119
					c0.194-0.36,0.381-0.65,0.625-1.015l0.718-1.087c0.977-1.503,1.938-3.022,2.84-4.621c1.76-3.146,3.441-6.518,4.091-10.501
					c0.301-1.977,0.219-4.168-0.496-6.212c-0.704-2.077-1.954-3.782-3.261-5.211c-0.337-0.35-0.681-0.711-1.01-1.032l-1.011-0.938
					c-0.596-0.548-1.123-1.106-1.637-1.723c-1.011-1.161-1.821-2.481-2.347-3.824c-1.117-2.725-0.957-5.727,0.213-8.547
					c0.57-1.435,1.358-2.797,2.294-4.081c0.466-0.614,0.975-1.264,1.519-1.871c0.503-0.575,1.122-1.195,1.622-1.647l2.49-2.188
					l-2.861-1.756c-0.511-0.313-1.165-0.761-1.724-1.262c-0.553-0.425-1.104-0.913-1.599-1.438c-1.042-1.05-1.912-2.173-2.583-3.391
					c-1.347-2.385-1.635-4.979-0.852-7.517c0.409-1.268,1.041-2.521,1.859-3.696c0.698-1.061,1.968-2.444,2.961-3.813
					c1.019-1.386,2.03-2.852,2.895-4.5c0.84-1.653,1.589-3.533,1.734-5.708c0.16-2.164-0.403-4.327-1.239-6.044
					c-0.805-1.697-1.767-3.21-2.746-4.597c-1.884-2.754-3.776-5.363-5.47-8.081c-1.711-2.802-3.69-5.615-5.155-8.22
					c-0.73-1.289-1.238-2.519-1.342-3.574c-0.133-1.042,0.113-2.03,0.749-3.206c1.251-2.28,3.568-4.548,5.923-6.627
					c2.345-2.103,4.902-4.118,7.494-6.086c2.605-1.957,5.22-3.894,7.884-5.833c2.691-1.953,5.347-3.983,7.913-6.104
					c10.348-8.403,19.69-18.425,26.552-30.049c3.445-5.776,6.271-11.918,8.515-18.222c2.25-6.318,3.946-12.766,5.364-19.253
					c2.823-12.966,4.528-26.029,6.376-39.048c1.846-12.788,5.905-25.412,12.948-36.354c3.525-5.465,7.791-10.447,12.696-14.759
					c4.925-4.296,10.355-8.096,16.478-10.523C335.397,115.836,332.421,117.307,329.551,118.956z"/>
			</g>
			<g>
				<path fill="#CC5127" d="M411.686,108.577c-0.956,20.627,4.278,40.987,14.743,57.722c2.607,4.183,5.577,8.15,8.832,11.829
					c3.199,3.715,6.68,7.21,10.404,10.399c3.716,3.243,7.731,6.104,11.829,8.836c4.394,2.931,8.826,6.18,12.871,9.711
					c8.263,7.012,15.326,15.65,20.488,25.45c5.104,9.814,7.804,20.923,7.918,31.859c0.021,5.468-0.544,10.888-1.524,16.154
					c-1.089,5.29-2.659,10.4-4.531,15.357c-3.874,9.855-9.055,19.042-15.323,27.339c4.017-9.563,7.684-19.169,9.96-29.015
					c1.16-4.896,2.029-9.84,2.46-14.771c0.471-4.92,0.547-9.83,0.074-14.66c-0.472-4.816-1.267-9.562-2.68-14.148
					c-1.375-4.602-3.371-8.951-5.611-13.168c-4.574-8.462-11.086-15.758-18.319-22.329c-3.677-3.303-7.508-6.234-11.664-9.11
					c-4.416-3.058-8.596-6.486-12.524-10.181c-3.956-3.699-7.636-7.682-10.926-11.956c-3.255-4.31-6.17-8.879-8.7-13.657
					C409.579,151.143,406.618,128.733,411.686,108.577z"/>
			</g>
		</g>
	</g>
	<g>
		<g>
			<g>
				<path fill="#F37B2F" d="M309.225,208.25c0,0,38.41-15.307,62.669-10.813c24.274,4.495,37.06,22.228,37.06,22.228
					s-9.443-16.21-35.044-27.028C348.294,181.82,286.995,201.637,309.225,208.25L309.225,208.25z"/>
			</g>
			<g>
				<path fill="#F37B2F" d="M344.487,268.835c-5.044,1.031-10.14,1.611-15.282,1.831c-9.492,0.414-19.093-0.236-28.898-0.869
					c-0.056-0.854-0.107-1.74-0.091-2.625c-0.02-1.917,0.062-3.912,0.251-5.867c0.296-4.005,0.854-8.043,1.325-12.194
					c-2.318,3.495-4.039,7.318-5.485,11.287c-0.941,2.77-1.735,5.627-2.141,8.711c-2.604,0.123-5.505-0.29-8.691-1.611
					c2.715,2.405,5.577,3.753,8.514,4.473c0,0.472-0.036,0.906-0.021,1.396l0.021,0.252c-4.198,2.495-10.146,4.15-17.533,1.091
					c4.817,4.343,10.181,5.431,15.687,5.088c-4.834,3.297-11.52,6.592-20.486,8.709c13.428,0.431,26.391-3.569,37.009-9.477
					c-3.655,4.082-9.379,8.804-18.185,12.463c11.232-1.305,21.37-6.266,29.427-12.611c1.122,0,2.231-0.032,3.35-0.074
					c-2.316,3.355-5.771,6.818-10.952,9.497c8.602-0.783,15.699-4.922,21.025-10.581c1.49-0.269,2.975-0.573,4.421-0.977
					c-1.232,1.719-2.931,3.405-5.382,5.036c5.455-1.572,9.288-4.192,11.973-7.263c0.612-0.237,1.23-0.452,1.809-0.747
					c5.164-2.335,9.91-5.685,13.4-9.977C354.542,266.124,349.568,267.773,344.487,268.835z"/>
			</g>
		</g>
	</g>
</g>
</svg>
