<?xml version="1.0" encoding="utf-8"?>
<!-- Generator: Adobe Illustrator 16.0.0, SVG Export Plug-In . SVG Version: 6.00 Build 0)  -->
<!DOCTYPE svg PUBLIC "-//W3C//DTD SVG 1.1//EN" "http://www.w3.org/Graphics/SVG/1.1/DTD/svg11.dtd">
<svg version="1.1" id="Layer_1" xmlns="http://www.w3.org/2000/svg" xmlns:xlink="http://www.w3.org/1999/xlink" x="0px" y="0px"
	 width="540px" height="540px" viewBox="0 0 540 540" enable-background="new 0 0 540 540" xml:space="preserve">
<g>
	<path fill="#F5AF83" d="M196.818,363.763c-3.683,0.538-7.405,0.807-11.128,0.978c-1.862,0.081-3.726,0.139-5.59,0.15
		c-1.865,0.016-3.732,0.019-5.596-0.03c-3.735-0.074-7.475-0.272-11.208-0.568c-3.736-0.282-7.461-0.728-11.195-1.219
		c-3.72-0.535-7.435-1.159-11.14-1.895c-3.7-0.763-7.39-1.619-11.059-2.599c-3.664-1.011-7.309-2.121-10.929-3.346
		c-3.609-1.251-7.179-2.667-10.713-4.178c-3.55-1.495-7.013-3.216-10.432-5.055c-3.418-1.837-6.795-3.793-10.029-6.002
		c-3.247-2.189-6.423-4.505-9.478-7.012c-3.021-2.548-5.927-5.251-8.697-8.105c-2.77-2.863-5.335-5.929-7.726-9.135
		c-2.401-3.199-4.567-6.582-6.55-10.065c-1.972-3.485-3.636-7.142-5.156-10.832c-1.522-3.698-2.666-7.526-3.707-11.355L45,278.035
		l4.513-2.909c0.644-0.41,1.083-0.659,1.596-0.963c0.506-0.306,0.981-0.555,1.468-0.829c0.974-0.55,1.944-1.047,2.912-1.538
		c0.968-0.507,1.948-0.966,2.93-1.409c0.982-0.44,1.95-0.915,2.937-1.327c1.978-0.815,3.937-1.69,5.942-2.409
		c1.985-0.77,3.99-1.477,6.015-2.106l3.027-0.972c1.007-0.332,2.036-0.581,3.054-0.877c1.018-0.284,2.037-0.561,3.055-0.829
		c1.019-0.285,2.048-0.517,3.081-0.737c2.065-0.444,4.111-0.93,6.173-1.335l6.223-1.018c1.031-0.187,2.075-0.308,3.118-0.421
		c1.042-0.121,2.08-0.234,3.122-0.336l3.12-0.32c1.037-0.117,2.088-0.128,3.13-0.197c2.083-0.118,4.168-0.182,6.247-0.275
		c2.085-0.029,4.168,0.028,6.245,0.071c2.077,0.052,4.144,0.042,6.214,0.278c2.067,0.185,4.128,0.343,6.181,0.555
		c2.053,0.143,4.1,0.57,6.129,0.886c2.033,0.336,4.057,0.698,6.073,1.088c-2.051,0.263-4.088,0.505-6.117,0.712l-3.036,0.319
		c-0.507,0.051-1.011,0.088-1.511,0.15l-1.509,0.232c-2.01,0.316-4.012,0.582-6.011,0.873l-1.495,0.213
		c-0.498,0.057-0.995,0.14-1.489,0.24l-2.965,0.56c-1.973,0.393-3.945,0.705-5.902,1.098c-1.952,0.449-3.893,0.924-5.835,1.342
		c-0.965,0.23-1.944,0.398-2.901,0.676l-2.872,0.789c-0.957,0.269-1.911,0.524-2.869,0.771c-0.956,0.244-1.911,0.498-2.849,0.813
		l-5.645,1.775c-1.872,0.614-3.718,1.301-5.569,1.945c-1.865,0.602-3.652,1.432-5.484,2.111c-0.903,0.367-1.825,0.686-2.718,1.084
		l-2.68,1.171c-0.888,0.402-1.792,0.764-2.665,1.191c-0.873,0.422-1.751,0.842-2.625,1.257c-1.771,0.79-3.458,1.722-5.179,2.59
		c-0.858,0.438-1.677,0.929-2.517,1.389l-1.25,0.698l-1.22,0.726c-0.818,0.473-1.631,0.957-2.396,1.45
		c-0.388,0.245-0.799,0.487-1.148,0.732c-0.351,0.234-0.775,0.517-0.979,0.665l3.027-8.363c1.065,3.21,2.257,6.361,3.611,9.425
		c1.389,3.055,2.869,6.059,4.62,8.907c1.715,2.869,3.528,5.679,5.579,8.333c0.485,0.679,1.04,1.313,1.554,1.972l0.787,0.978
		l0.823,0.955c0.555,0.628,1.073,1.293,1.643,1.908l1.697,1.865c2.319,2.44,4.776,4.781,7.347,7.002
		c2.558,2.242,5.248,4.354,8.028,6.369c2.785,2.006,5.67,3.917,8.622,5.734c2.952,1.821,6.011,3.501,9.104,5.147
		c3.1,1.634,6.273,3.158,9.496,4.609c3.216,1.465,6.49,2.839,9.811,4.124c3.308,1.327,6.666,2.561,10.062,3.701
		c3.39,1.179,6.816,2.284,10.275,3.316c3.449,1.071,6.94,2.021,10.447,2.973c3.509,0.938,7.043,1.817,10.6,2.661l5.351,1.222
		l5.386,1.154C189.536,362.406,193.155,363.124,196.818,363.763z"/>
	<path fill="#F5AF83" d="M177.65,279.634c-2.38-2.102-4.561-4.418-6.667-6.795c-2.122-2.377-4.101-4.872-6.021-7.413
		c-1.903-2.559-3.748-5.175-5.46-7.88l-1.301-2.02l-1.226-2.07l-1.22-2.077l-1.168-2.107l-1.155-2.125l-1.078-2.16l-1.082-2.167
		c-0.354-0.727-0.681-1.464-1.023-2.196c-0.66-1.475-1.338-2.948-1.931-4.459c-0.596-1.506-1.254-2.995-1.799-4.53
		c-0.551-1.53-1.089-3.067-1.613-4.612l-1.442-4.688c-0.476-1.565-0.833-3.169-1.243-4.758c-0.425-1.586-0.727-3.205-1.057-4.819
		c-0.332-1.614-0.675-3.228-0.889-4.868c-0.225-1.635-0.51-3.269-0.678-4.916l-0.449-4.96c-0.139-1.656-0.145-3.324-0.207-4.987
		c-0.02-0.833-0.061-1.665-0.063-2.499l0.064-2.502l0.077-2.503c0.023-0.835,0.05-1.671,0.141-2.503l0.463-5.003
		c0.058-0.835,0.227-1.659,0.342-2.49l0.392-2.484l0.403-2.484l0.539-2.457c0.373-1.636,0.736-3.275,1.151-4.901
		c0.984-3.205,1.834-6.462,3.11-9.564c0.603-1.565,1.167-3.144,1.839-4.676l2.113-4.545c0.365-0.748,0.692-1.522,1.092-2.251
		l1.206-2.188l2.438-4.353l3.136-5.587l5.791,2.022l0.829,0.29l0.722,0.265c0.47,0.178,0.931,0.363,1.389,0.55
		c0.906,0.37,1.798,0.749,2.681,1.142c1.76,0.776,3.489,1.596,5.177,2.475c1.698,0.861,3.362,1.773,5.014,2.7l2.454,1.43
		l2.407,1.502l2.375,1.551l2.331,1.6l2.302,1.649c0.76,0.558,1.496,1.151,2.245,1.723c0.749,0.57,1.475,1.176,2.204,1.77
		c0.731,0.592,1.452,1.193,2.165,1.813c1.443,1.205,2.807,2.509,4.179,3.788c1.334,1.324,2.69,2.617,3.966,4
		c1.295,1.357,2.511,2.788,3.74,4.195c1.187,1.449,2.382,2.878,3.476,4.4c0.552,0.753,1.117,1.494,1.654,2.253
		c0.529,0.769,1.048,1.541,1.563,2.315c0.527,0.766,1.003,1.563,1.489,2.354c0.48,0.795,0.99,1.566,1.432,2.383
		c0.883,1.635,1.814,3.221,2.581,4.907c0.397,0.834,0.808,1.649,1.178,2.495l1.066,2.543c0.369,0.833,0.672,1.7,0.972,2.568
		c0.309,0.858,0.592,1.73,0.886,2.59c-1.183-1.404-2.262-2.848-3.445-4.212l-1.742-2.051c-0.581-0.685-1.201-1.336-1.79-1.998
		c-1.177-1.336-2.425-2.607-3.645-3.878c-1.264-1.241-2.486-2.503-3.784-3.692l-1.931-1.779c-0.647-0.588-1.315-1.151-1.97-1.729
		c-0.651-0.576-1.314-1.141-1.999-1.681l-2.01-1.658c-1.374-1.064-2.722-2.146-4.138-3.146c-1.371-1.045-2.8-2.019-4.21-3.005
		c-1.439-0.955-2.874-1.896-4.329-2.81c-0.717-0.469-1.449-0.916-2.189-1.354c-0.736-0.441-1.461-0.895-2.213-1.31
		c-1.486-0.854-2.987-1.677-4.482-2.5l-2.268-1.191l-2.292-1.142c-1.54-0.734-3.077-1.464-4.621-2.175
		c-1.554-0.69-3.112-1.364-4.68-1.989c-1.571-0.634-3.146-1.217-4.712-1.788c-0.781-0.282-1.567-0.55-2.341-0.803l-1.148-0.364
		l-0.552-0.168l-0.257-0.073l-0.194-0.054l8.924-3.562l-1.9,3.925l-0.963,1.948c-0.324,0.646-0.565,1.33-0.852,1.994l-1.682,3.996
		c-0.544,1.336-0.957,2.724-1.458,4.071l-0.726,2.034c-0.261,0.67-0.406,1.379-0.619,2.065l-1.205,4.141
		c-0.349,1.395-0.631,2.807-0.969,4.205l-0.486,2.099l-0.354,2.13c-0.217,1.42-0.53,2.827-0.706,4.257l-0.502,4.296
		c-0.104,0.713-0.154,1.435-0.191,2.157l-0.139,2.164l-0.152,2.165c-0.033,0.722-0.027,1.447-0.043,2.174l-0.031,2.175
		c-0.007,0.726-0.058,1.455-0.019,2.182l0.124,4.371c0.043,1.456,0.2,2.918,0.286,4.379c0.065,0.729,0.072,1.465,0.163,2.192
		l0.242,2.192c0.259,2.933,0.791,5.841,1.228,8.777l0.802,4.385l0.956,4.372c0.665,2.917,1.389,5.834,2.232,8.729
		c0.203,0.725,0.39,1.456,0.6,2.18l0.664,2.171l0.665,2.173l0.718,2.16l0.709,2.172l0.764,2.152c0.506,1.44,1.029,2.874,1.574,4.31
		c0.522,1.442,1.088,2.863,1.668,4.288c0.539,1.444,1.15,2.856,1.738,4.285l1.836,4.265l1.926,4.252
		C174.843,273.999,176.189,276.823,177.65,279.634z"/>
	<path fill="#F5AF83" d="M114.582,407.816c-1.775-0.033-3.528-0.246-5.256-0.525c-1.732-0.275-3.45-0.621-5.141-1.052
		c-1.707-0.4-3.371-0.908-5.042-1.433c-1.657-0.546-3.304-1.131-4.93-1.771c-1.611-0.668-3.241-1.327-4.817-2.085
		c-0.799-0.367-1.583-0.754-2.362-1.156c-0.786-0.399-1.57-0.795-2.33-1.229c-1.55-0.833-3.056-1.747-4.56-2.672
		c-1.486-0.956-2.962-1.925-4.399-2.967c-1.448-1.023-2.848-2.13-4.232-3.239c-1.373-1.139-2.727-2.301-4.033-3.529
		c-1.327-1.203-2.575-2.498-3.826-3.788c-1.223-1.327-2.434-2.661-3.572-4.065c-1.154-1.389-2.246-2.847-3.304-4.313
		c-0.532-0.737-1.031-1.505-1.531-2.262c-0.5-0.76-0.999-1.515-1.452-2.313l-1.379-2.365c-0.435-0.801-0.845-1.621-1.261-2.437
		l-0.616-1.22l-0.56-1.252l-1.095-2.516l-2.107-4.839l3.092-3.162c0.676-0.692,1.27-1.262,1.9-1.875
		c0.628-0.591,1.261-1.183,1.898-1.759c1.273-1.151,2.565-2.278,3.903-3.361c0.661-0.55,1.327-1.083,2.016-1.61
		c0.678-0.528,1.354-1.058,2.054-1.564c1.381-1.023,2.822-1.989,4.257-2.948c0.705-0.49,1.471-0.921,2.207-1.378
		c0.747-0.446,1.466-0.909,2.249-1.322l2.302-1.237c0.779-0.399,1.586-0.754,2.375-1.131c0.773-0.382,1.613-0.701,2.428-1.018
		l1.222-0.476c0.405-0.153,0.843-0.273,1.264-0.405c0.842-0.263,1.667-0.532,2.536-0.717c0.865-0.186,1.729-0.341,2.588-0.476
		c-0.586,0.674-1.16,1.314-1.733,1.938c-0.292,0.293-0.562,0.63-0.833,0.957l-0.819,0.954c-0.547,0.624-1.074,1.269-1.592,1.914
		c-0.513,0.653-1.048,1.258-1.551,1.917c-0.51,0.646-1,1.304-1.518,1.92l-1.487,1.944c-1,1.272-1.972,2.574-2.942,3.867
		l-1.459,1.926c-0.475,0.654-0.954,1.313-1.441,1.944l-2.873,3.871l-2.854,3.854l-1.41,1.92c-0.46,0.625-0.953,1.293-1.34,1.863
		l0.985-7.999l1.201,1.929l0.589,0.963l0.631,0.942l1.245,1.892l1.311,1.846c0.413,0.632,0.875,1.232,1.329,1.835
		c0.463,0.597,0.88,1.226,1.354,1.82c0.956,1.183,1.848,2.405,2.846,3.558c0.931,1.201,1.977,2.32,2.951,3.5l1.539,1.71
		c0.5,0.587,1.028,1.146,1.558,1.706c0.536,0.556,1.033,1.143,1.581,1.696c0.542,0.549,1.079,1.11,1.611,1.677
		c1.104,1.096,2.173,2.239,3.312,3.316c1.099,1.116,2.253,2.185,3.389,3.295l3.486,3.248l3.566,3.24
		c1.204,1.077,2.4,2.185,3.637,3.241c1.226,1.08,2.456,2.166,3.712,3.24c1.24,1.094,2.509,2.168,3.773,3.272l3.849,3.313
		C111.954,405.509,113.252,406.648,114.582,407.816z"/>
	<path fill="#F5AF83" d="M104.389,262.938c-1.459-1.248-2.78-2.64-4.034-4.077c-0.638-0.715-1.247-1.451-1.832-2.2
		c-0.596-0.746-1.183-1.501-1.732-2.276c-0.564-0.771-1.113-1.552-1.647-2.344l-1.555-2.405c-1.013-1.626-1.941-3.294-2.862-4.977
		l-1.286-2.568c-0.408-0.866-0.833-1.73-1.228-2.606c-0.771-1.76-1.511-3.541-2.178-5.349c-0.663-1.814-1.283-3.644-1.831-5.5
		c-0.264-0.931-0.552-1.859-0.789-2.8l-0.699-2.827c-0.407-1.9-0.823-3.805-1.106-5.738c-0.339-1.922-0.541-3.866-0.758-5.816
		c-0.093-0.975-0.142-1.953-0.213-2.933c-0.075-0.978-0.125-1.959-0.129-2.94c-0.014-0.982-0.05-1.964-0.042-2.947l0.081-2.955
		c0.017-0.981,0.095-1.966,0.176-2.949c0.09-0.982,0.138-1.967,0.261-2.945c0.263-1.956,0.463-3.917,0.869-5.856
		c0.189-0.968,0.339-1.944,0.564-2.903l0.697-2.88c0.216-0.962,0.51-1.903,0.794-2.85c0.281-0.946,0.57-1.886,0.87-2.824
		l1.613-5.061l4.521-0.406c1.11-0.1,2.078-0.172,3.111-0.227c1.01-0.048,2.021-0.111,3.026-0.134
		c2.017-0.065,4.028-0.087,6.043-0.055c1.007,0.022,2.014,0.039,3.021,0.083c1.011,0.052,2.014,0.084,3.023,0.153l3.021,0.234
		l3.021,0.338c1.003,0.099,2.014,0.252,3.018,0.413c1.005,0.163,2.004,0.306,3.007,0.508c1.003,0.192,2,0.408,2.992,0.617
		c0.999,0.235,1.991,0.488,2.977,0.76c0.983,0.247,1.97,0.569,2.942,0.892c0.972,0.323,1.939,0.633,2.891,1.054
		c0.952,0.401,1.898,0.753,2.815,1.237c0.916,0.471,1.814,0.968,2.684,1.482c-1.029,0.102-2.035,0.189-3.019,0.253
		c-0.487,0.018-0.986,0.095-1.48,0.153l-1.466,0.157c-0.965,0.095-1.938,0.219-2.901,0.363c-0.964,0.153-1.911,0.222-2.869,0.397
		c-0.958,0.163-1.908,0.307-2.851,0.433l-2.841,0.487c-0.943,0.132-1.886,0.316-2.828,0.486l-2.817,0.5l-5.618,1.051
		c-0.934,0.159-1.868,0.357-2.803,0.532c-0.935,0.166-1.866,0.353-2.797,0.539c-0.931,0.17-1.861,0.353-2.791,0.545
		c-0.93,0.174-1.856,0.354-2.781,0.546l-2.769,0.553l-2.672,0.563l6.133-5.467c-0.265,1.671-0.659,3.303-0.89,4.968
		c-0.268,1.66-0.528,3.311-0.716,4.979c-0.233,1.657-0.374,3.33-0.539,4.994c-0.093,0.833-0.123,1.674-0.188,2.507
		c-0.051,0.838-0.138,1.674-0.154,2.51l-0.108,2.521c-0.034,0.838-0.03,1.681-0.05,2.521c-0.062,1.685,0.007,3.374,0,5.063
		c0.062,1.694,0.082,3.389,0.188,5.09c0.061,1.701,0.218,3.401,0.321,5.112c0.162,1.705,0.288,3.423,0.493,5.137
		c0.076,0.862,0.179,1.72,0.291,2.58c0.105,0.86,0.189,1.728,0.322,2.588c0.219,1.729,0.483,3.457,0.739,5.201
		c0.154,0.864,0.272,1.74,0.406,2.617l0.46,2.616l0.463,2.635c0.163,0.877,0.355,1.75,0.505,2.643l1.079,5.321l0.574,2.688
		l0.594,2.702L104.389,262.938z"/>
	<path fill="#F5AF83" d="M343.179,363.763c3.662-0.639,7.28-1.356,10.885-2.091l5.387-1.153l5.35-1.222
		c3.552-0.845,7.088-1.721,10.595-2.66c3.511-0.953,7.002-1.902,10.454-2.974c3.46-1.031,6.881-2.139,10.272-3.315
		c3.398-1.142,6.754-2.375,10.064-3.701c3.319-1.283,6.596-2.661,9.811-4.123c3.224-1.454,6.393-2.982,9.494-4.611
		c3.095-1.64,6.151-3.322,9.106-5.146c2.952-1.82,5.833-3.731,8.622-5.734c2.781-2.012,5.47-4.13,8.026-6.371
		c2.568-2.221,5.027-4.557,7.348-7l1.695-1.865c0.575-0.615,1.088-1.28,1.644-1.908l0.823-0.957l0.788-0.975
		c0.515-0.662,1.071-1.292,1.556-1.972c2.053-2.654,3.856-5.463,5.577-8.333c1.751-2.851,3.235-5.853,4.622-8.908
		c1.353-3.065,2.543-6.217,3.609-9.426l3.026,8.367c-0.202-0.154-0.628-0.431-0.978-0.668c-0.346-0.245-0.762-0.488-1.144-0.734
		c-0.771-0.494-1.58-0.975-2.399-1.448l-1.218-0.725l-1.255-0.698c-0.836-0.464-1.656-0.957-2.513-1.39
		c-1.72-0.867-3.409-1.798-5.179-2.59c-0.879-0.409-1.755-0.832-2.624-1.257c-0.87-0.428-1.776-0.785-2.668-1.191l-2.68-1.168
		c-0.889-0.402-1.813-0.72-2.718-1.086c-1.831-0.681-3.62-1.511-5.484-2.112c-1.851-0.647-3.695-1.331-5.563-1.945l-5.646-1.775
		c-0.94-0.314-1.89-0.568-2.85-0.813c-0.957-0.249-1.913-0.504-2.87-0.771l-2.874-0.789c-0.957-0.278-1.935-0.445-2.903-0.675
		c-1.944-0.419-3.883-0.895-5.833-1.343c-1.956-0.395-3.925-0.707-5.9-1.098l-2.966-0.56c-0.495-0.101-0.993-0.184-1.491-0.239
		l-1.497-0.213c-1.994-0.292-3.995-0.557-6.007-0.874l-1.513-0.232c-0.503-0.062-1.006-0.098-1.512-0.149l-3.038-0.32
		c-2.028-0.208-4.063-0.451-6.119-0.711c2.01-0.39,4.039-0.753,6.071-1.088c2.036-0.314,4.077-0.742,6.132-0.885
		c2.054-0.213,4.11-0.37,6.182-0.555c2.068-0.237,4.138-0.227,6.214-0.279c2.074-0.042,4.163-0.099,6.244-0.07
		c2.076,0.093,4.163,0.155,6.251,0.275c1.041,0.069,2.095,0.08,3.127,0.197l3.118,0.319c1.044,0.101,2.084,0.216,3.126,0.338
		c1.044,0.111,2.083,0.234,3.114,0.42l6.222,1.019c2.064,0.404,4.112,0.893,6.177,1.336c1.029,0.22,2.064,0.45,3.079,0.737
		c1.02,0.267,2.041,0.542,3.055,0.83c1.018,0.296,2.047,0.544,3.055,0.876l3.024,0.973c2.027,0.629,4.038,1.339,6.019,2.106
		c2.005,0.718,3.958,1.594,5.94,2.409c0.989,0.411,1.956,0.887,2.938,1.326c0.979,0.442,1.959,0.903,2.931,1.41
		c0.966,0.492,1.94,0.989,2.91,1.539c0.488,0.277,0.966,0.522,1.469,0.832c0.512,0.301,0.956,0.55,1.596,0.96l4.516,2.909
		l-1.486,5.459c-1.042,3.828-2.185,7.656-3.708,11.354c-1.521,3.692-3.186,7.347-5.155,10.831
		c-1.985,3.484-4.148,6.867-6.551,10.068c-2.386,3.206-4.957,6.269-7.728,9.134c-2.767,2.854-5.676,5.557-8.694,8.105
		c-3.055,2.506-6.234,4.828-9.481,7.011c-3.235,2.209-6.612,4.165-10.024,6.004c-3.422,1.838-6.88,3.558-10.432,5.055
		c-3.541,1.512-7.105,2.93-10.716,4.176c-3.621,1.227-7.264,2.337-10.924,3.346c-3.669,0.98-7.363,1.836-11.059,2.601
		c-3.711,0.734-7.429,1.359-11.145,1.893c-3.731,0.492-7.454,0.938-11.195,1.221c-3.733,0.296-7.47,0.494-11.201,0.566
		c-1.868,0.049-3.733,0.046-5.599,0.032c-1.864-0.014-3.732-0.071-5.592-0.152C350.584,364.569,346.862,364.301,343.179,363.763z"/>
	<path fill="#F5AF83" d="M362.346,279.634c1.456-2.811,2.808-5.635,4.126-8.46l1.928-4.252l1.834-4.265
		c0.587-1.429,1.197-2.841,1.741-4.285c0.575-1.427,1.144-2.848,1.667-4.288c0.543-1.437,1.065-2.869,1.572-4.31l0.77-2.153
		l0.707-2.171l0.72-2.16l0.662-2.174l0.664-2.167c0.215-0.725,0.4-1.456,0.597-2.184c0.849-2.892,1.568-5.811,2.233-8.729
		l0.96-4.371l0.803-4.386c0.434-2.934,0.969-5.843,1.228-8.776l0.24-2.192c0.091-0.728,0.094-1.463,0.16-2.192
		c0.093-1.462,0.24-2.923,0.285-4.379l0.125-4.371c0.041-0.726-0.012-1.455-0.017-2.182l-0.035-2.175
		c-0.018-0.727-0.009-1.45-0.042-2.175l-0.151-2.164l-0.138-2.164c-0.039-0.724-0.091-1.444-0.192-2.157l-0.505-4.296
		c-0.17-1.431-0.488-2.837-0.706-4.256l-0.354-2.131l-0.485-2.1c-0.34-1.397-0.622-2.807-0.967-4.204l-1.205-4.141
		c-0.211-0.687-0.361-1.395-0.618-2.065l-0.729-2.034c-0.504-1.349-0.914-2.735-1.455-4.071l-1.684-3.997
		c-0.284-0.661-0.526-1.347-0.851-1.993l-0.964-1.948l-1.899-3.925l8.926,3.562l-0.192,0.054l-0.259,0.074l-0.554,0.167
		l-1.146,0.364c-0.773,0.253-1.562,0.521-2.343,0.802c-1.566,0.572-3.143,1.155-4.71,1.788c-1.572,0.626-3.125,1.299-4.68,1.99
		c-1.542,0.709-3.082,1.44-4.622,2.175l-2.291,1.14l-2.269,1.192c-1.496,0.824-2.997,1.646-4.484,2.5
		c-0.749,0.414-1.477,0.867-2.212,1.309c-0.739,0.438-1.468,0.887-2.188,1.354c-1.455,0.915-2.892,1.856-4.33,2.81
		c-1.41,0.986-2.84,1.961-4.216,3.006c-1.412,1-2.76,2.081-4.138,3.146l-2.007,1.658c-0.683,0.54-1.346,1.104-2.001,1.682
		c-0.651,0.577-1.325,1.142-1.969,1.729l-1.93,1.78c-1.299,1.188-2.521,2.449-3.782,3.692c-1.223,1.27-2.471,2.541-3.645,3.877
		c-0.595,0.662-1.213,1.314-1.791,1.998l-1.742,2.05c-1.185,1.366-2.262,2.808-3.445,4.214c0.291-0.86,0.575-1.732,0.885-2.591
		c0.301-0.867,0.605-1.734,0.972-2.568l1.063-2.544c0.37-0.843,0.787-1.658,1.18-2.494c0.772-1.688,1.699-3.273,2.582-4.907
		c0.442-0.817,0.954-1.587,1.429-2.382c0.488-0.792,0.963-1.59,1.492-2.355c0.519-0.774,1.032-1.548,1.568-2.315
		c0.532-0.76,1.101-1.501,1.648-2.253c1.088-1.521,2.291-2.95,3.479-4.399c1.229-1.408,2.443-2.838,3.735-4.196
		c1.272-1.384,2.629-2.677,3.971-4c1.373-1.277,2.734-2.581,4.175-3.788c0.708-0.62,1.437-1.22,2.167-1.813
		c0.729-0.594,1.453-1.2,2.203-1.77c0.748-0.57,1.483-1.165,2.245-1.723l2.299-1.649l2.335-1.599l2.372-1.552l2.407-1.501
		l2.453-1.43c1.651-0.927,3.315-1.839,5.014-2.7c1.692-0.88,3.42-1.697,5.179-2.476c0.884-0.393,1.767-0.771,2.682-1.142
		c0.456-0.187,0.913-0.371,1.387-0.549l0.72-0.266l0.832-0.29l5.788-2.021l3.133,5.587l2.445,4.353l1.204,2.188
		c0.401,0.729,0.726,1.505,1.093,2.252l2.113,4.545c0.671,1.532,1.235,3.111,1.839,4.675c1.274,3.103,2.128,6.36,3.11,9.565
		c0.415,1.625,0.776,3.264,1.149,4.901l0.543,2.455l0.4,2.486l0.395,2.483c0.117,0.835,0.279,1.654,0.34,2.49l0.465,5.003
		c0.086,0.833,0.115,1.669,0.136,2.504l0.079,2.503l0.063,2.502c-0.002,0.833-0.038,1.667-0.061,2.499
		c-0.064,1.662-0.068,3.33-0.209,4.987l-0.446,4.959c-0.172,1.647-0.458,3.282-0.68,4.917c-0.215,1.64-0.557,3.253-0.891,4.867
		c-0.328,1.615-0.635,3.232-1.06,4.82c-0.401,1.588-0.762,3.191-1.24,4.758l-1.441,4.688c-0.524,1.544-1.067,3.082-1.618,4.611
		c-0.539,1.534-1.199,3.024-1.795,4.53c-0.589,1.512-1.267,2.984-1.932,4.459c-0.344,0.732-0.671,1.47-1.025,2.196l-1.08,2.168
		l-1.079,2.16l-1.151,2.124l-1.168,2.108l-1.222,2.076l-1.226,2.069l-1.302,2.021c-1.71,2.705-3.556,5.322-5.46,7.878
		c-1.926,2.544-3.902,5.037-6.019,7.415C366.907,275.216,364.729,277.532,362.346,279.634z"/>
	<path fill="#F5AF83" d="M425.413,407.816c1.329-1.168,2.626-2.308,3.924-3.418l3.846-3.313c1.266-1.104,2.533-2.177,3.775-3.273
		c1.259-1.075,2.489-2.162,3.711-3.239c1.238-1.063,2.438-2.17,3.639-3.241l3.566-3.24l3.485-3.247
		c1.132-1.11,2.289-2.179,3.389-3.296c1.141-1.079,2.205-2.221,3.31-3.315c0.53-0.568,1.069-1.129,1.61-1.678
		c0.548-0.551,1.047-1.141,1.582-1.696c0.53-0.558,1.057-1.125,1.557-1.706l1.538-1.707c0.974-1.18,2.02-2.306,2.948-3.502
		c1.005-1.153,1.894-2.377,2.85-3.559c0.471-0.592,0.894-1.221,1.353-1.819c0.462-0.604,0.92-1.206,1.33-1.836l1.312-1.848
		l1.245-1.891l0.63-0.942l0.59-0.963l1.201-1.929l0.985,8c-0.39-0.569-0.884-1.237-1.336-1.862l-1.41-1.92l-2.854-3.856
		l-2.877-3.872c-0.488-0.636-0.96-1.289-1.438-1.944l-1.463-1.926c-0.969-1.292-1.942-2.595-2.938-3.867l-1.488-1.944
		c-0.521-0.616-1.011-1.273-1.517-1.92c-0.507-0.658-1.036-1.261-1.556-1.917c-0.521-0.642-1.046-1.29-1.589-1.914l-0.819-0.951
		c-0.274-0.334-0.538-0.665-0.834-0.96c-0.577-0.622-1.151-1.261-1.733-1.935c0.858,0.133,1.722,0.291,2.588,0.476
		c0.867,0.186,1.689,0.458,2.535,0.714c0.414,0.137,0.854,0.252,1.263,0.405l1.22,0.476c0.815,0.318,1.651,0.638,2.429,1.02
		c0.787,0.379,1.594,0.731,2.374,1.13l2.305,1.238c0.777,0.407,1.503,0.879,2.249,1.325c0.736,0.454,1.504,0.885,2.205,1.376
		c1.439,0.96,2.876,1.923,4.256,2.949c0.706,0.507,1.38,1.031,2.059,1.562c0.688,0.526,1.355,1.062,2.013,1.61
		c1.336,1.085,2.63,2.21,3.908,3.363c0.636,0.575,1.266,1.165,1.892,1.758c0.635,0.613,1.227,1.183,1.903,1.875l3.091,3.162
		l-2.106,4.839l-1.095,2.516l-0.563,1.252l-0.615,1.22c-0.408,0.815-0.823,1.635-1.26,2.438l-1.378,2.362
		c-0.458,0.795-0.955,1.553-1.454,2.313c-0.5,0.759-1.002,1.523-1.528,2.261c-1.063,1.469-2.152,2.925-3.303,4.314
		c-1.141,1.405-2.352,2.742-3.572,4.065c-1.255,1.289-2.499,2.584-3.826,3.787c-1.307,1.229-2.66,2.392-4.036,3.529
		c-1.39,1.113-2.787,2.213-4.229,3.238c-1.441,1.044-2.915,2.014-4.402,2.967c-1.504,0.925-3.007,1.834-4.557,2.674
		c-0.768,0.435-1.547,0.833-2.332,1.228c-0.775,0.403-1.565,0.788-2.365,1.155c-1.573,0.764-3.205,1.417-4.818,2.088
		c-1.624,0.644-3.273,1.225-4.929,1.771c-1.673,0.522-3.335,1.031-5.037,1.432c-1.694,0.431-3.414,0.777-5.147,1.054
		C428.941,407.57,427.188,407.781,425.413,407.816z"/>
	<path fill="#F5AF83" d="M435.603,262.938l1.264-5.495l0.596-2.702l0.574-2.688l1.08-5.321c0.151-0.895,0.338-1.766,0.503-2.643
		l0.466-2.636l0.458-2.615c0.141-0.877,0.26-1.753,0.406-2.617c0.257-1.744,0.521-3.472,0.737-5.201
		c0.136-0.86,0.217-1.728,0.324-2.588c0.112-0.86,0.218-1.719,0.292-2.58c0.202-1.714,0.332-3.431,0.491-5.137
		c0.105-1.712,0.263-3.411,0.321-5.112c0.109-1.701,0.127-3.397,0.188-5.09c-0.006-1.689,0.063-3.378,0-5.063
		c-0.018-0.84-0.015-1.684-0.048-2.521l-0.105-2.52c-0.021-0.837-0.106-1.673-0.156-2.51c-0.063-0.833-0.093-1.675-0.188-2.507
		c-0.165-1.664-0.307-3.337-0.538-4.994c-0.188-1.669-0.454-3.32-0.714-4.979c-0.226-1.665-0.622-3.298-0.89-4.969l6.136,5.468
		l-2.676-0.563l-2.768-0.553c-0.925-0.192-1.854-0.372-2.784-0.546c-0.928-0.192-1.857-0.375-2.79-0.545
		c-0.931-0.187-1.862-0.373-2.798-0.539c-0.933-0.175-1.867-0.373-2.805-0.533l-5.619-1.051l-2.814-0.499
		c-0.945-0.17-1.887-0.354-2.828-0.487l-2.841-0.486c-0.947-0.126-1.894-0.27-2.855-0.433c-0.958-0.173-1.902-0.244-2.869-0.397
		c-0.966-0.145-1.938-0.269-2.903-0.363l-1.466-0.157c-0.491-0.059-0.989-0.138-1.48-0.153c-0.983-0.063-1.986-0.151-3.016-0.253
		c0.871-0.515,1.767-1.012,2.685-1.483c0.919-0.483,1.863-0.832,2.814-1.237c0.951-0.42,1.919-0.729,2.889-1.053
		c0.972-0.322,1.958-0.646,2.94-0.893c0.986-0.271,1.98-0.523,2.979-0.759c0.996-0.209,1.99-0.425,2.992-0.617
		c1.004-0.202,2.004-0.344,3.006-0.508c1.005-0.161,2.011-0.314,3.015-0.413l3.021-0.338l3.021-0.234
		c1.014-0.072,2.013-0.103,3.021-0.155c1.014-0.042,2.016-0.061,3.021-0.082c2.014-0.031,4.032-0.011,6.043,0.054
		c1.012,0.022,2.017,0.087,3.027,0.134c1.029,0.055,2.001,0.128,3.114,0.227l4.519,0.407l1.617,5.06
		c0.298,0.939,0.585,1.88,0.868,2.825c0.282,0.946,0.584,1.886,0.794,2.85l0.697,2.88c0.226,0.959,0.377,1.935,0.566,2.905
		c0.401,1.937,0.603,3.898,0.869,5.854c0.121,0.978,0.17,1.962,0.259,2.945c0.079,0.983,0.161,1.968,0.175,2.949l0.082,2.955
		c0.006,0.982-0.028,1.964-0.043,2.947c-0.006,0.981-0.054,1.963-0.131,2.939c-0.067,0.98-0.116,1.959-0.214,2.934
		c-0.215,1.948-0.416,3.895-0.754,5.815c-0.285,1.934-0.701,3.838-1.107,5.738l-0.7,2.828c-0.234,0.939-0.524,1.867-0.786,2.8
		c-0.545,1.855-1.167,3.686-1.835,5.499c-0.663,1.81-1.4,3.588-2.171,5.349c-0.401,0.877-0.826,1.741-1.228,2.607l-1.293,2.568
		c-0.919,1.684-1.848,3.352-2.859,4.976l-1.556,2.406c-0.532,0.791-1.078,1.573-1.648,2.343c-0.545,0.776-1.136,1.53-1.733,2.276
		c-0.587,0.75-1.195,1.485-1.827,2.2C438.383,260.298,437.066,261.69,435.603,262.938z"/>
	<path fill="#F5AF83" d="M271.291,420.191c1.387-1.399,2.841-2.727,4.33-4.014c1.486-1.292,3.001-2.56,4.533-3.799
		c3.096-2.458,6.28-4.803,9.56-7.026c3.271-2.243,6.653-4.325,10.09-6.333c3.446-1.997,6.981-3.856,10.575-5.609
		c3.608-1.739,7.293-3.337,11.036-4.812c3.75-1.463,7.578-2.759,11.462-3.921c3.883-1.168,7.847-2.105,11.854-2.903
		c4.005-0.789,8.062-1.422,12.164-1.786c4.102-0.373,8.235-0.55,12.381-0.521c4.146,0.044,8.302,0.384,12.44,0.897
		c2.069,0.243,4.131,0.604,6.195,0.952c2.046,0.426,4.102,0.835,6.124,1.38c2.04,0.482,4.039,1.11,6.052,1.697
		c1.987,0.669,3.987,1.301,5.94,2.065c1.979,0.71,3.888,1.574,5.813,2.4c0.956,0.434,1.895,0.894,2.843,1.347l1.414,0.674
		l1.391,0.731c3.732,1.89,7.304,4.08,10.811,6.337c1.696,1.204,3.456,2.339,5.091,3.614l2.494,1.874l2.42,1.957
		c3.227,2.608,6.289,5.387,9.255,8.255l6.723,6.494l-7.28,5.659l-0.731,0.569l-0.653,0.494c-0.424,0.31-0.854,0.636-1.275,0.928
		c-0.843,0.602-1.693,1.188-2.536,1.747c-1.695,1.142-3.396,2.221-5.12,3.256c-0.856,0.531-1.728,1.032-2.597,1.532
		s-1.738,1.009-2.623,1.478l-2.64,1.426l-2.683,1.338c-1.778,0.911-3.614,1.694-5.422,2.545c-1.832,0.789-3.669,1.576-5.52,2.324
		c-1.866,0.703-3.71,1.469-5.595,2.114l-2.834,0.96l-1.417,0.473l-1.433,0.425c-3.81,1.177-7.672,2.191-11.559,3.07
		c-1.95,0.401-3.895,0.854-5.86,1.177c-1.972,0.31-3.936,0.646-5.9,0.929l-5.94,0.683c-1.98,0.19-3.973,0.283-5.953,0.401
		l-1.486,0.09c-0.496,0.023-0.999,0.021-1.496,0.027l-2.982,0.03l-2.979,0.032l-2.977-0.119l-2.974-0.121l-1.484-0.072l-1.48-0.15
		l-5.909-0.597c-3.912-0.604-7.827-1.088-11.664-2.039l-2.881-0.638l-1.44-0.317l-1.422-0.396c-1.892-0.523-3.783-1.056-5.662-1.604
		c-0.949-0.252-1.872-0.587-2.794-0.909l-2.769-0.971c-1.839-0.662-3.705-1.237-5.48-2.054l-5.375-2.281
		c-0.904-0.36-1.772-0.794-2.645-1.228l-2.606-1.303l-2.594-1.306c-0.867-0.431-1.729-0.857-2.561-1.361l-5.008-2.913
		c-0.831-0.492-1.667-0.957-2.485-1.471l-2.402-1.602l-4.775-3.22c-0.797-0.526-1.553-1.125-2.313-1.71l-2.275-1.757
		C274.279,422.557,272.778,421.38,271.291,420.191c3.488,1.577,6.843,3.352,10.31,4.881l5.207,2.24l2.588,1.127
		c0.87,0.356,1.761,0.669,2.639,1.009l5.258,1.992c0.862,0.355,1.758,0.644,2.648,0.92l2.666,0.855l2.659,0.861
		c0.883,0.298,1.759,0.59,2.67,0.813l5.374,1.447c1.773,0.521,3.595,0.864,5.396,1.264l2.7,0.587
		c0.899,0.198,1.793,0.402,2.71,0.523c1.819,0.283,3.628,0.584,5.436,0.891l1.354,0.217l1.367,0.153l2.729,0.299l2.721,0.301
		c0.902,0.122,1.824,0.108,2.734,0.188c1.819,0.105,3.634,0.245,5.448,0.331l5.452,0.052l1.358,0.012l1.36-0.06l2.719-0.099
		l2.707-0.092l2.707-0.231l2.699-0.229c0.449-0.039,0.897-0.066,1.347-0.121l1.344-0.18c1.788-0.266,3.581-0.451,5.363-0.722
		l5.327-0.928l5.281-1.153c0.884-0.177,1.748-0.437,2.621-0.662l2.615-0.671c3.478-0.946,6.916-2.006,10.31-3.21
		c3.392-1.203,6.737-2.527,10.051-3.919c1.645-0.715,3.284-1.466,4.911-2.221c1.6-0.81,3.241-1.547,4.815-2.408
		c3.187-1.648,6.308-3.417,9.345-5.273c1.513-0.934,3.009-1.896,4.456-2.888c0.729-0.492,1.439-0.992,2.134-1.498
		c0.354-0.252,0.678-0.503,1.018-0.752l0.478-0.367l0.39-0.304l-0.555,12.152c-1.359-1.237-2.657-2.547-4.025-3.77
		c-1.376-1.209-2.718-2.461-4.148-3.601l-2.123-1.747l-2.171-1.657c-1.429-1.14-2.951-2.13-4.426-3.196
		c-3.013-2.024-6.053-4.021-9.242-5.729l-1.184-0.662l-1.205-0.615c-0.808-0.403-1.608-0.827-2.421-1.224
		c-1.641-0.748-3.271-1.538-4.941-2.223c-1.648-0.737-3.353-1.345-5.035-1.998c-1.712-0.573-3.415-1.196-5.153-1.678
		c-3.467-1.035-6.991-1.902-10.567-2.562c-3.574-0.659-7.191-1.168-10.843-1.426c-3.649-0.301-7.329-0.422-11.023-0.364
		c-3.691,0.075-7.398,0.307-11.106,0.686c-3.708,0.382-7.412,0.957-11.113,1.622c-3.698,0.681-7.38,1.529-11.051,2.488
		c-3.669,0.945-7.318,2.032-10.945,3.238c-7.259,2.378-14.409,5.245-21.45,8.451c-3.51,1.625-7.006,3.314-10.457,5.125
		C278.047,416.239,274.649,418.153,271.291,420.191z"/>
	<path fill="#CA5426" d="M268.632,86.149c2.944,2.16,5.694,4.589,8.384,7.079c2.692,2.493,5.243,5.147,7.712,7.893
		c4.898,5.519,9.36,11.501,13.15,17.996c1.874,3.252,3.592,6.631,5.086,10.133c1.492,3.506,2.743,7.142,3.72,10.889
		c1.968,7.483,2.671,15.472,1.813,23.409c-0.896,7.929-3.361,15.727-7.074,22.768c-1.83,3.541-3.979,6.881-6.317,10.054
		c-1.143,1.61-2.397,3.113-3.639,4.635c-1.305,1.449-2.566,2.958-3.938,4.33c-2.672,2.845-5.544,5.429-8.447,7.971
		c-2.94,2.474-5.974,4.835-9.092,7.026l-4.438,3.154l-2.215,1.577c-0.722,0.525-1.521,1.058-2.16,1.576l-4.028,3.113
		c-1.344,1.028-2.662,2.189-3.991,3.276c-5.281,4.453-10.23,9.236-14.79,14.296c-4.524,5.089-8.598,10.514-12.072,16.231
		c-3.506,5.696-6.385,11.715-8.447,17.949c-2.074,6.226-3.389,12.663-3.716,19.155c-0.327,6.488,0.185,13.029,1.682,19.419
		c1.504,6.384,3.794,12.653,6.897,18.609c3.112,5.947,6.785,11.712,11.151,17.039c4.318,5.357,9.129,10.393,14.249,15.186
		l-7.587,0.523c0.154-0.147,0.449-0.476,0.689-0.736c0.251-0.267,0.506-0.59,0.762-0.886c0.521-0.586,1.016-1.224,1.513-1.865
		c0.508-0.621,0.987-1.283,1.467-1.945c0.474-0.661,0.982-1.308,1.427-2.004c0.918-1.374,1.851-2.735,2.707-4.162l1.316-2.12
		l1.224-2.18l1.226-2.19l1.128-2.251l1.13-2.252c0.387-0.751,0.704-1.525,1.053-2.295l1.039-2.309l0.524-1.152
		c0.163-0.388,0.311-0.785,0.463-1.177l1.851-4.73c0.582-1.592,1.093-3.212,1.646-4.822c0.268-0.807,0.554-1.614,0.805-2.424
		l0.681-2.466c0.463-1.643,0.95-3.288,1.389-4.947l1.127-5.021l0.581-2.518c0.16-0.839,0.293-1.692,0.441-2.543l0.898-5.107
		c0.173-0.854,0.278-1.712,0.373-2.567l0.307-2.582c0.197-1.727,0.431-3.453,0.653-5.19c0.12,1.734,0.254,3.479,0.343,5.219
		l0.155,2.623c0.057,0.876,0.102,1.755,0.087,2.625c-0.003,1.752,0.006,3.503-0.021,5.266c-0.012,0.882-0.007,1.759-0.034,2.64
		l-0.179,2.633l-0.391,5.295c-0.2,1.756-0.455,3.502-0.679,5.263l-0.366,2.637c-0.148,0.874-0.335,1.741-0.499,2.617
		c-0.348,1.739-0.664,3.493-1.043,5.236l-1.331,5.185c-0.114,0.431-0.218,0.867-0.342,1.295l-0.401,1.281l-0.802,2.564
		c-0.278,0.853-0.52,1.718-0.829,2.561l-0.945,2.521l-0.954,2.526l-1.065,2.494l-1.072,2.492l-1.187,2.449
		c-0.757,1.649-1.644,3.238-2.521,4.842c-0.422,0.81-0.918,1.584-1.386,2.375c-0.465,0.791-0.94,1.58-1.458,2.359
		c-0.506,0.776-1.006,1.562-1.564,2.34c-0.278,0.39-0.525,0.771-0.836,1.171c-0.314,0.403-0.561,0.757-0.98,1.261l-3.27,3.916
		l-4.317-3.392c-5.915-4.646-11.568-9.708-16.79-15.296l-3.796-4.311l-3.575-4.54c-2.289-3.108-4.52-6.291-6.446-9.686
		c-3.914-6.743-7.15-14.018-9.202-21.706c-2.064-7.677-3.108-15.711-2.844-23.72c0.244-8.01,1.637-15.967,4.063-23.536
		c2.437-7.565,5.83-14.742,9.877-21.432c4.081-6.68,8.833-12.849,13.988-18.573l3.972-4.185c1.347-1.369,2.766-2.651,4.15-3.979
		c1.366-1.348,2.836-2.562,4.271-3.818l2.163-1.876c0.726-0.617,1.483-1.191,2.222-1.79c1.503-1.175,2.942-2.381,4.502-3.525
		l4.699-3.402c0.8-0.59,1.53-1.035,2.296-1.549l2.27-1.504l4.551-2.992c2.897-1.868,5.64-3.917,8.376-5.957
		c2.665-2.112,5.311-4.258,7.728-6.593c1.261-1.135,2.384-2.363,3.572-3.547c1.104-1.247,2.274-2.445,3.307-3.737
		c2.137-2.543,4.105-5.208,5.791-8.017c1.696-2.807,3.183-5.72,4.406-8.746c1.209-3.022,2.145-6.163,2.768-9.378
		c0.638-3.215,0.984-6.505,1.018-9.835c0.033-3.328-0.226-6.688-0.723-10.047c-0.503-3.361-1.279-6.709-2.266-10.024
		c-0.978-3.319-2.179-6.603-3.563-9.834c-1.368-3.236-2.918-6.419-4.621-9.54c-1.7-3.123-3.52-6.204-5.491-9.201
		C277.815,97.402,273.49,91.581,268.632,86.149z"/>
	<path fill="#CA5426" d="M167.627,376.528c-2.966,1.142-5.855,2.461-8.72,3.805c-2.863,1.362-5.671,2.815-8.438,4.335
		c-1.382,0.766-2.753,1.541-4.124,2.321c-1.367,0.785-2.718,1.592-4.063,2.414c-1.333,0.83-2.674,1.657-3.982,2.524
		c-1.327,0.849-2.618,1.741-3.915,2.621c-1.285,0.902-2.563,1.809-3.824,2.745c-1.267,0.914-2.498,1.881-3.736,2.834
		c-1.222,0.976-2.461,1.926-3.657,2.929c-1.208,0.983-2.385,2.007-3.56,3.03c-1.169,1.026-2.318,2.073-3.455,3.132
		c-1.127,1.075-2.254,2.137-3.345,3.238c-1.106,1.084-2.177,2.206-3.239,3.331c-1.073,1.11-2.077,2.291-3.118,3.426l-0.352-5.481
		c0.485,0.353,1.119,0.792,1.702,1.183c0.598,0.401,1.207,0.795,1.822,1.187c1.23,0.779,2.481,1.537,3.75,2.274
		c2.53,1.478,5.115,2.88,7.741,4.195c5.255,2.628,10.678,4.912,16.18,6.929c5.515,1.986,11.127,3.664,16.809,4.962
		c5.676,1.327,11.417,2.325,17.189,2.922c11.538,1.203,23.169,1.009,34.568-0.737c11.408-1.671,22.564-4.863,33.244-9.258
		c10.702-4.351,20.916-9.948,30.598-16.4l3.063-2.414l3.299-2.726c2.209-1.884,4.392-3.801,6.51-5.778
		c4.24-3.947,8.27-8.109,12.082-12.431c3.816-4.313,7.376-8.836,10.641-13.539c3.257-4.702,6.254-9.574,8.839-14.629
		c2.619-5.037,4.924-10.218,6.75-15.55l0.686-1.997l0.618-2.014c0.437-1.337,0.765-2.702,1.148-4.049
		c0.666-2.722,1.304-5.455,1.747-8.209c0.957-5.504,1.414-11.073,1.389-16.633c-0.064-5.558-0.61-11.106-1.708-16.563
		c-2.146-10.915-6.354-21.463-12.275-31.113c-2.935-4.836-6.257-9.481-9.903-13.893c-3.659-4.413-7.663-8.569-11.875-12.541
		c-4.221-3.97-8.689-7.709-13.355-11.237c-1.178-0.865-2.324-1.77-3.533-2.606l-3.687-2.616c-1.235-0.901-2.437-1.741-3.705-2.689
		c-1.274-0.987-2.576-1.958-3.822-2.958c-4.939-3.967-9.646-8.305-13.905-13.114c-2.151-2.379-4.12-4.949-6.02-7.558
		c-1.83-2.672-3.609-5.387-5.104-8.284l-0.579-1.073l-0.53-1.102c-0.345-0.737-0.715-1.462-1.045-2.209
		c-0.629-1.51-1.27-3.004-1.795-4.556c-1.086-3.074-1.975-6.229-2.554-9.439c-0.59-3.202-0.956-6.445-1.041-9.685
		c-0.063-3.239,0.118-6.466,0.521-9.644c0.784-6.371,2.546-12.518,4.903-18.327c2.339-5.823,5.335-11.305,8.727-16.461
		c3.398-5.153,7.145-10.035,11.25-14.575c2.057-2.264,4.166-4.467,6.364-6.577c2.188-2.122,4.458-4.158,6.835-6.045
		c-4.17,4.406-7.982,9.112-11.47,14.015c-3.489,4.897-6.702,9.969-9.445,15.258c-2.748,5.277-5.048,10.752-6.769,16.344
		c-1.7,5.594-2.812,11.32-3.073,17.026c-0.134,2.852-0.065,5.696,0.213,8.5c0.293,2.809,0.793,5.58,1.498,8.289
		c0.685,2.715,1.634,5.353,2.75,7.915c1.098,2.567,2.433,5.039,3.889,7.432c1.434,2.407,3.131,4.669,4.857,6.896
		c1.804,2.177,3.655,4.321,5.7,6.314c4.015,4.04,8.424,7.74,13.113,11.114c1.162,0.833,2.333,1.612,3.492,2.428
		c1.2,0.809,2.525,1.635,3.782,2.454l3.837,2.478c1.324,0.833,2.594,1.752,3.892,2.626c5.155,3.566,10.154,7.402,14.941,11.538
		c9.549,8.274,18.207,17.836,25.23,28.676c3.509,5.415,6.563,11.167,9.101,17.164c2.561,5.985,4.557,12.244,5.945,18.65
		c1.388,6.404,2.128,12.95,2.291,19.502c0.113,6.546-0.288,13.108-1.378,19.546c-0.509,3.225-1.223,6.401-1.995,9.565
		c-0.431,1.569-0.813,3.148-1.304,4.695l-0.708,2.33l-0.772,2.302c-2.073,6.145-4.676,12.072-7.617,17.797
		c-2.963,5.712-6.352,11.17-10.018,16.403c-3.663,5.229-7.633,10.217-11.868,14.957c-4.231,4.733-8.73,9.2-13.414,13.445
		c-2.337,2.123-4.736,4.169-7.165,6.179l-3.747,3.007l-1.805,1.382l-0.897,0.692l-0.453,0.343l-0.115,0.089
		c0.422-0.295-0.697,0.503-0.628,0.45l-0.251,0.153c-10.599,6.78-21.893,12.6-33.744,17.113c-11.867,4.441-24.283,7.59-36.918,8.96
		c-12.623,1.377-25.424,1.143-37.898-0.855c-3.116-0.482-6.222-1.078-9.296-1.766c-3.074-0.676-6.124-1.466-9.141-2.345
		c-6.034-1.764-11.937-3.921-17.684-6.39c-5.75-2.476-11.319-5.332-16.699-8.492c-2.69-1.583-5.331-3.254-7.917-5.02
		c-1.291-0.879-2.56-1.801-3.824-2.738c-0.629-0.474-1.256-0.955-1.879-1.447c-0.639-0.506-1.216-0.972-1.914-1.566l-3.247-2.765
		l2.892-2.715c1.192-1.122,2.344-2.275,3.562-3.361c1.208-1.095,2.419-2.187,3.666-3.227c1.225-1.073,2.506-2.072,3.775-3.091
		c1.274-1.001,2.563-1.984,3.867-2.949c1.315-0.952,2.622-1.903,3.957-2.81c1.325-0.931,2.684-1.806,4.034-2.688
		c1.374-0.851,2.73-1.721,4.125-2.53c1.38-0.833,2.782-1.625,4.184-2.411c1.409-0.772,2.815-1.556,4.247-2.282
		c1.42-0.754,2.865-1.457,4.299-2.168c2.888-1.391,5.799-2.734,8.767-3.93c2.962-1.209,5.953-2.342,8.976-3.371
		C161.482,378.211,164.533,377.271,167.627,376.528z"/>
</g>
</svg>
