<?xml version="1.0" encoding="utf-8"?>
<!-- Generator: Adobe Illustrator 16.0.0, SVG Export Plug-In . SVG Version: 6.00 Build 0)  -->
<!DOCTYPE svg PUBLIC "-//W3C//DTD SVG 1.1//EN" "http://www.w3.org/Graphics/SVG/1.1/DTD/svg11.dtd">
<svg version="1.1" id="Layer_1" xmlns="http://www.w3.org/2000/svg" xmlns:xlink="http://www.w3.org/1999/xlink" x="0px" y="0px"
	 width="540px" height="540px" viewBox="0 0 540 540" enable-background="new 0 0 540 540" xml:space="preserve">
<g>
	<path fill="#CE2829" d="M61.693,324.582l43.31-167.044h158.082l-5.94,22.904c-20.44,8.677-40.372,18.502-59.64,29.514
		C145.921,239.441,98.572,277.862,61.693,324.582L61.693,324.582z M360.937,252.173c35.517,23.93,79.094,62,134.063,134.958H308.14
		c-7.841-9.97-16.003-17.881-24.462-24.107C302.969,321.77,329.313,284.472,360.937,252.173z"/>
	<path fill="#F16224" d="M45,387.129c69.514-127.182,227.219-219.822,415.472-234.259
		c-97.545,51.171-172.869,134.427-209.217,234.259H45z"/>
</g>
</svg>
