<?xml version="1.0" encoding="utf-8"?>
<!-- Generator: Adobe Illustrator 16.0.0, SVG Export Plug-In . SVG Version: 6.00 Build 0)  -->
<!DOCTYPE svg PUBLIC "-//W3C//DTD SVG 1.1//EN" "http://www.w3.org/Graphics/SVG/1.1/DTD/svg11.dtd">
<svg version="1.1" id="Layer_1" xmlns="http://www.w3.org/2000/svg" xmlns:xlink="http://www.w3.org/1999/xlink" x="0px" y="0px"
	 width="540px" height="540px" viewBox="0 0 540 540" enable-background="new 0 0 540 540" xml:space="preserve">
<g>
	<g>
		<path fill="#ED202A" d="M494.996,337.743c-0.278,4.656-22.078,17.694-46.554,11.288c-16.613-4.35-32.639-11.102-40.27-14.514
			c13.136-1.805,46.45-5.696,58.346-2.344c0,0-19.522-8.645-59.936-2.62c7.549-6.663,27.986-22.762,48.062-21.582
			C479.896,309.453,495.27,333.088,494.996,337.743z"/>
		<g>
			<path fill="#ED202A" d="M451.056,226.36c-4.854-6.375-48.418-4.028-77.129,28.582c-19.492,22.137-35.846,47.127-43.436,59.319
				c20.447-10.041,71.631-36.465,85.355-52.644c0,0-19.52,31.054-82.859,61.237c17.134,2.248,61.696,5.565,89.16-15.372
				C456.688,281.141,455.914,232.735,451.056,226.36z"/>
			<path fill="#FBAB1C" d="M418.024,423.712c-4.867,4.059-38.025-5.405-54.42-35.573c-11.135-20.478-19.343-42.604-23.051-53.333
				c13.981,11.325,48.793,40.679,56.526,55.555c0,0-9.588-27.354-53.09-61.739c13.592,1.277,48.512,6.55,65.999,27.502
				C431.981,382.495,422.883,419.658,418.024,423.712z"/>
		</g>
	</g>
	<g>
		<path fill="#ED202A" d="M45.004,337.743c0.271,4.656,22.078,17.694,46.553,11.288c16.606-4.35,32.632-11.102,40.264-14.514
			c-13.136-1.805-46.451-5.696-58.339-2.344c0,0,19.519-8.645,59.93-2.62c-7.543-6.663-27.985-22.762-48.061-21.582
			C60.097,309.453,44.728,333.088,45.004,337.743z"/>
		<g>
			<path fill="#ED202A" d="M93.429,226.36c4.859-6.374,48.424-4.031,77.136,28.582c19.496,22.137,35.844,47.126,43.435,59.322
				c-20.444-10.047-71.631-36.471-85.354-52.65c0,0,19.514,31.057,82.86,61.24c-17.135,2.242-61.697,5.573-89.158-15.368
				C87.792,281.141,88.567,232.735,93.429,226.36z"/>
			<path fill="#FBAB1C" d="M126.466,423.712c4.867,4.059,38.024-5.405,54.418-35.573c11.13-20.478,19.343-42.606,23.048-53.333
				c-13.982,11.325-48.788,40.679-56.521,55.552c0,0,9.586-27.352,53.091-61.736c-13.601,1.277-48.518,6.547-65.999,27.508
				C112.506,382.495,121.606,419.658,126.466,423.712z"/>
		</g>
	</g>
	<g>
		<path fill="#A11E68" d="M214.223,230.302c7.75-19.941-19.695-51.205-44.347-82.435c-10.321-13.077-19.442-23.989-25.811-31.93
			l-2.631,2.249c0,0,11.763,16.979,24.601,33.197c13.122,16.581,29.434,38.629,25.194,41.583
			c-4.231,2.952-16.472-16.146-32.368-37.426c-12.479-16.7-25.528-32.124-25.528-32.124l-2.541,1.771
			c0,0,11.436,15.549,23.399,32.553c14.633,20.789,30.179,40.43,25.946,43.376c-4.238,2.953-17.764-18.122-31.993-37.481
			c-12.511-17.028-25.6-33.126-25.6-33.126l-2.213,1.336c0,0,12.033,17.256,24.103,34.592
			c13.597,19.526,29.011,38.928,24.638,41.978c-4.379,3.05-17.417-18.16-31.853-37.585c-12.505-16.824-25.348-32.459-25.348-32.459
			l-2.154,1.711c0,0,10.755,15.243,23.618,34.504c20.065,30.043,40.622,68.343,61.421,69.093
			c3.265,3.64,36.355,40.907,72.317,99.459c33.848,55.102,41.127,92.937,64.733,76.934c0,0.006,0.007,0.009,0.007,0.014
			c0.058-0.041,0.109-0.087,0.174-0.129c0.058-0.041,0.117-0.076,0.174-0.117c0-0.006,0-0.01-0.006-0.013
			c23.188-16.596-9.787-36.526-49.756-87.371C240.403,279.04,216.946,235.454,214.223,230.302z"/>
		<path fill="#A11E68" d="M433.14,167.826c7.149-31.073-2.661-43.727-6.834-47.525c0-0.006,0.019-0.023,0.019-0.023
			s-0.304-0.299-0.929-0.743c-0.51-0.396-0.82-0.582-0.82-0.582s-0.012,0.021-0.018,0.021c-4.709-2.926-19.244-8.688-47.604,6.255
			c-34.946,18.41-64.934,49.734-45.473,97.481c0,0-27.077,47.504-76.934,105.93c-44.54,52.192-80.336,71.916-56.467,90.497
			c0,0.005,0,0.014-0.007,0.014c0.06,0.048,0.123,0.086,0.188,0.132c0.065,0.048,0.111,0.098,0.177,0.146
			c0-0.004,0.005-0.01,0.011-0.013c24.333,17.965,33.659-21.827,71.889-78.806c42.789-63.772,81.222-102.678,81.222-102.678
			C402.784,243.777,424.28,206.319,433.14,167.826z"/>
	</g>
</g>
</svg>
