<?xml version="1.0" encoding="utf-8"?>
<!-- Generator: Adobe Illustrator 16.0.0, SVG Export Plug-In . SVG Version: 6.00 Build 0)  -->
<!DOCTYPE svg PUBLIC "-//W3C//DTD SVG 1.1//EN" "http://www.w3.org/Graphics/SVG/1.1/DTD/svg11.dtd">
<svg version="1.1" id="Layer_1" xmlns="http://www.w3.org/2000/svg" xmlns:xlink="http://www.w3.org/1999/xlink" x="0px" y="0px"
	 width="540px" height="540px" viewBox="0 0 540 540" enable-background="new 0 0 540 540" xml:space="preserve">
<g>
	<line fill="none" x1="327.86" y1="256.844" x2="327.86" y2="256.844"/>
	<polygon fill="#006E00" points="325.528,256.844 325.528,418.185 330.186,418.185 330.186,256.844 327.86,256.844 	"/>
	<rect x="337.287" y="254.349" fill="#006E00" width="4.658" height="161.347"/>
	<rect x="222.301" y="256.358" fill="#006E00" width="4.647" height="161.349"/>
	<line fill="none" x1="212.614" y1="256.844" x2="212.614" y2="256.844"/>
	<polygon fill="#006E00" points="210.291,256.844 210.291,418.185 214.94,418.185 214.94,256.844 212.614,256.844 	"/>
	<path fill="#59FF67" d="M175.525,84.151c-52.167,52.186-52.199,136.765,0,188.948l94.484,94.504l94.471-94.49
		c52.2-52.182,52.157-136.785-0.017-188.968C312.282,31.951,227.694,31.951,175.525,84.151 M296.663,314.528
		c-13.113,13.132-34.339,13.132-47.466,0c-13.099-13.097-13.099-34.327,0.025-47.427c13.099-13.125,34.327-13.097,47.398-0.024
		C309.765,280.207,309.765,301.398,296.663,314.528 M344.583,122.58c-5.314,5.322-13.972,5.327-19.33-0.015
		c-29.302-29.315-77.016-29.293-106.337,0.015c-5.356,5.341-14,5.356-19.357,0c-5.327-5.341-5.327-14.001,0-19.339
		c39.984-39.986,105.053-40,145.023-0.019C349.925,108.577,349.941,117.242,344.583,122.58"/>
	<rect x="185.746" y="398.972" fill="#01D000" width="184.385" height="96.028"/>
</g>
</svg>
