<?xml version="1.0" encoding="utf-8"?>
<!-- Generator: Adobe Illustrator 16.0.0, SVG Export Plug-In . SVG Version: 6.00 Build 0)  -->
<!DOCTYPE svg PUBLIC "-//W3C//DTD SVG 1.1//EN" "http://www.w3.org/Graphics/SVG/1.1/DTD/svg11.dtd">
<svg version="1.1" id="Layer_1" xmlns="http://www.w3.org/2000/svg" xmlns:xlink="http://www.w3.org/1999/xlink" x="0px" y="0px"
	 width="540px" height="540px" viewBox="0 0 540 540" enable-background="new 0 0 540 540" xml:space="preserve">
<g>
	<g>
		<path fill="#07ACED" d="M64.5,289.791c0,113.491,91.999,205.503,205.502,205.503c113.491,0,205.498-92.012,205.498-205.503H64.5z
			 M256.14,463.17c-78.012,0-141.254-63.245-141.254-141.258h31.326c0,72.716,54.951,132.592,125.59,140.38
			C266.658,462.867,261.436,463.17,256.14,463.17z"/>
		<path fill="#00A046" d="M282.098,269.494c-22.793-33.109-43.191-71.193-52.645-104.426c27.114,33.412,54.632,54.252,77.431,87.36
			c0.944,1.378,1.963,2.704,3.007,4.01c23.009-33.796,27.34-78.778,7.395-117.744c-22.719-44.394-92.734-54.24-133.04-93.399
			c-34.013,63.033-32.525,122.111-9.799,166.507c20.161,39.397,65.932,59.141,108.675,59.059
			C282.778,270.409,282.42,269.966,282.098,269.494z"/>
		<path fill="#008A46" d="M373.591,269.887c16.31-23.694,30.897-50.946,37.667-74.727c-19.398,23.911-39.092,38.825-55.406,62.512
			c-0.677,0.986-1.404,1.935-2.145,2.873c-16.468-24.186-19.563-56.373-5.3-84.25c16.26-31.768,66.36-38.812,95.201-66.832
			c24.337,45.104,23.273,87.374,7.009,119.142c-14.425,28.191-47.174,42.318-77.757,42.26
			C373.101,270.537,373.354,270.219,373.591,269.887z"/>
	</g>
	<g>
		<path fill="#2DC9F9" d="M64.503,289.22c0,32.301,7.472,62.844,20.751,90.035c14.958,3.086,30.227,5.642,45.774,7.632
			c-10.285-19.595-16.135-41.881-16.135-65.545h31.327c0,25.01,6.503,48.499,17.901,68.874c15.612,1.156,31.452,1.756,47.489,1.756
			c96.151,0,185.334-21.33,258.879-57.718c3.243-14.506,5.01-29.561,5.01-45.038L64.503,289.22L64.503,289.22z"/>
	</g>
</g>
</svg>
