<?xml version="1.0" encoding="utf-8"?>
<!-- Generator: Adobe Illustrator 16.0.0, SVG Export Plug-In . SVG Version: 6.00 Build 0)  -->
<!DOCTYPE svg PUBLIC "-//W3C//DTD SVG 1.1//EN" "http://www.w3.org/Graphics/SVG/1.1/DTD/svg11.dtd">
<svg version="1.1" id="Layer_1" xmlns="http://www.w3.org/2000/svg" xmlns:xlink="http://www.w3.org/1999/xlink" x="0px" y="0px"
	 width="540px" height="540px" viewBox="0 0 540 540" enable-background="new 0 0 540 540" xml:space="preserve">
<g>
	<line fill="none" x1="327.86" y1="256.842" x2="327.86" y2="256.842"/>
	<polygon fill="#FF0097" points="325.528,256.842 325.528,418.186 330.186,418.186 330.186,256.842 327.86,256.842 	"/>
	<rect x="337.287" y="254.349" fill="#FF0097" width="4.658" height="161.347"/>
	<rect x="222.301" y="256.358" fill="#FF0097" width="4.647" height="161.349"/>
	<line fill="none" x1="212.614" y1="256.842" x2="212.614" y2="256.842"/>
	<polygon fill="#FF0097" points="210.291,256.842 210.291,418.186 214.94,418.186 214.94,256.842 212.614,256.842 	"/>
	<path fill="#FF639C" d="M175.525,84.152c-52.167,52.186-52.199,136.764,0,188.948l94.484,94.503l94.471-94.489
		c52.2-52.182,52.157-136.786-0.017-188.968C312.281,31.951,227.694,31.951,175.525,84.152 M296.663,314.529
		c-13.113,13.129-34.339,13.129-47.466,0c-13.099-13.099-13.099-34.328,0.025-47.428c13.099-13.126,34.327-13.097,47.398-0.026
		C309.765,280.207,309.765,301.396,296.663,314.529 M344.582,122.577c-5.313,5.324-13.971,5.328-19.329-0.014
		c-29.302-29.315-77.016-29.293-106.336,0.014c-5.356,5.342-14,5.356-19.358,0c-5.326-5.342-5.326-14.001,0-19.338
		c39.984-39.986,105.053-40,145.023-0.019C349.925,108.576,349.941,117.241,344.582,122.577"/>
	<rect x="185.746" y="398.972" fill="#C03693" width="184.385" height="96.028"/>
</g>
</svg>
