<?xml version="1.0" encoding="utf-8"?>
<!-- Generator: Adobe Illustrator 16.0.0, SVG Export Plug-In . SVG Version: 6.00 Build 0)  -->
<!DOCTYPE svg PUBLIC "-//W3C//DTD SVG 1.1//EN" "http://www.w3.org/Graphics/SVG/1.1/DTD/svg11.dtd">
<svg version="1.1" id="Layer_1" xmlns="http://www.w3.org/2000/svg" xmlns:xlink="http://www.w3.org/1999/xlink" x="0px" y="0px"
	 width="540px" height="540px" viewBox="0 0 540 540" enable-background="new 0 0 540 540" xml:space="preserve">
<g>
	<circle fill="#7F2998" cx="108.847" cy="358.267" r="16.288"/>
	<path fill="#987BCB" d="M495,314.891c-143.389-68.669-156.866,40.625-215.43,100.52
		c-22.566-117.309,153.276-264.914-73.639-371.079c37.067,53.484,35.81,110.315,25.415,164.588
		c-22.595-51.506-70.438-88.615-186.347-90.58c153.383,92.796,55.85,249.045,202.359,321.063c-0.031,0.014-0.063,0.029-0.095,0.047
		c0.11,0.02,0.215,0.037,0.323,0.059c0.019,0.01,0.037,0.018,0.05,0.027c-0.145,0.021-0.287,0.055-0.437,0.08
		c16.899,9.334,31.663,14.543,44.917,16.746c2.209,0.639,4.396,1.287,6.677,1.9c-0.274-0.363-0.514-0.736-0.78-1.104
		c73.227,7.527,99.797-78.561,192.969-57.4c-33.104-30.871-59.767-42.723-82.882-43.447
		C428.272,335.479,453.568,318.234,495,314.891z"/>
	<path fill="#7F2998" d="M321.071,495.064c-2.034,3.393-55.539-7.195-109.777-39.771c-54.239-32.584-88.672-74.824-86.64-78.211
		c2.036-3.389,43.962,33.223,98.202,65.795C277.094,475.455,323.108,491.676,321.071,495.064z"/>
</g>
</svg>
