<?xml version="1.0" encoding="utf-8"?>
<!-- Generator: Adobe Illustrator 15.0.0, SVG Export Plug-In . SVG Version: 6.00 Build 0)  -->
<!DOCTYPE svg PUBLIC "-//W3C//DTD SVG 1.1//EN" "http://www.w3.org/Graphics/SVG/1.1/DTD/svg11.dtd">
<svg version="1.1" id="Layer_1" xmlns="http://www.w3.org/2000/svg" xmlns:xlink="http://www.w3.org/1999/xlink" x="0px" y="0px"
	 width="295.442px" height="289.076px" viewBox="0 0 295.442 289.076" enable-background="new 0 0 295.442 289.076"
	 xml:space="preserve">
<g>
	<path fill="#592C8C" d="M249.437,238.256c-34.933,42.321-93.171,61.749-148.864,44.604
		C26.886,260.164-14.475,182.002,8.219,108.307c2.565-8.307,5.827-16.215,9.714-23.655C12.511,138.3,35.761,186.221,77.01,198.926
		c42.592,13.117,75.363-13.563,101.144-43.088c13.431-15.377,35.286-22.795,55.887-15.902
		C283.104,156.348,275.024,207.239,249.437,238.256z"/>
	<path fill="#9D6CAF" d="M47.671,244.41c47.559,14.651,101.605-21.865,125.075-82.547c-24.92,26.973-56.071,49.277-95.735,37.063
		C35.762,186.221,12.512,138.3,17.934,84.652C14.048,92.091,10.787,100,8.22,108.307C-6.204,155.148,5.25,203.793,34.441,238.86
		C38.618,241.119,43.031,242.988,47.671,244.41z"/>
	<path fill="#592C8C" d="M48.011,53.365C82.936,11.044,141.174-8.384,196.862,8.763c73.693,22.695,115.056,100.858,92.361,174.552
		c-2.559,8.306-5.82,16.215-9.715,23.653c5.422-53.648-17.821-101.576-59.077-114.273c-42.592-13.117-75.354,13.565-101.143,43.089
		c-13.43,15.376-35.287,22.794-55.887,15.902C14.339,135.272,22.418,84.382,48.011,53.365z"/>
	<path fill="#9D6CAF" d="M249.777,47.212c-47.563-14.652-101.61,21.864-125.08,82.547c24.92-26.973,56.063-49.278,95.734-37.063
		c41.256,12.698,64.499,60.625,59.077,114.274c3.895-7.439,7.156-15.35,9.715-23.654c14.424-46.842,2.969-95.495-26.221-130.554
		C258.825,50.501,254.413,48.633,249.777,47.212z"/>
</g>
</svg>
