<?xml version="1.0" encoding="utf-8"?>
<!-- Generator: Adobe Illustrator 16.0.0, SVG Export Plug-In . SVG Version: 6.00 Build 0)  -->
<!DOCTYPE svg PUBLIC "-//W3C//DTD SVG 1.1//EN" "http://www.w3.org/Graphics/SVG/1.1/DTD/svg11.dtd">
<svg version="1.1" id="Layer_1" xmlns="http://www.w3.org/2000/svg" xmlns:xlink="http://www.w3.org/1999/xlink" x="0px" y="0px"
	 width="540px" height="540px" viewBox="0 0 540 540" enable-background="new 0 0 540 540" xml:space="preserve">
<g>
	<g>
		<path fill="#D33969" d="M419.384,173.875c-2.704-0.301-5.044,0.37-6.976,1.999c-2.712,2.286-4.369,6.24-5.436,10.978
			c-4.785-3.459-9.898-8.997-14.063-13.508c-3.071-3.325-5.728-6.198-7.849-7.917c-3.817-3.088-7.514-6.378-11.09-9.556
			c-6.002-5.341-12.211-10.866-19.164-15.589c-25.947-17.633-56.059-26.956-87.083-26.956c-84.987,0-154.128,69.143-154.128,154.129
			c0,55.342,32.034,109.582,79.714,134.971c6.246,3.324,13.072,6.322,20.864,9.161c16.58,6.034,29.515,9.353,39.541,10.136
			c1.508,0.119,2.882,0.193,4.134,0.193c4.383,0,8.503-2.299,8.503-2.299v-2.823c-0.142,0.338-5.398,3.693-12.459,2.666
			c-9.748-1.418-22.557-4.042-38.941-10.004c-7.695-2.8-14.424-5.757-20.575-9.034c-46.959-25.001-78.512-78.439-78.512-132.964
			c0-83.734,68.122-151.856,151.857-151.856c30.565,0,60.237,9.184,85.804,26.563c6.832,4.64,12.981,10.113,18.934,15.405
			c3.594,3.197,7.309,6.503,11.168,9.624c1.995,1.617,4.596,4.433,7.605,7.694c4.674,5.058,10.056,10.891,15.248,14.394
			c-0.937,5.273-1.293,11.254-1.629,16.877c-0.389,6.516-0.754,12.67-2.026,15.402l2.063,0.96c1.452-3.125,1.813-9.196,2.234-16.226
			c0.302-5.061,0.639-10.699,1.458-15.723c2.357,1.297,4.657,2.001,6.787,1.838c5.945-0.48,11.134-6.884,11.204-11.788
			C426.608,178.836,425.963,174.609,419.384,173.875z M415.19,190.141c-1.854,0.151-3.954-0.607-6.171-1.936
			c0.956-4.662,2.438-8.557,4.854-10.593c1.457-1.226,3.168-1.716,5.258-1.477c2.389,0.267,5.229,1.254,5.177,4.451
			C424.249,184.478,419.941,189.757,415.19,190.141z"/>
	</g>
	<g>
		<path fill="#D33969" d="M346.803,171.675c2.492-1.299,5.077-2.416,7.762-3.303c3.594-1.186,7.724-2.222,11.951-2.74
			c0.838-0.163,1.678-0.309,2.519-0.418c6.292-0.818,14.264-0.055,18.694,4.925c1.606,1.266,3.105,2.78,4.453,4.461
			c-0.298-3.151-1.267-6.185-3.238-8.86c-4.644-5.868-12.307-7.902-17.58-6.067c-1.723-0.101-3.59-0.077-5.647,0.165
			c-6.063,0.808-12.663,0.227-20.198-2.894c-7.721-2.483-16.347-4.93-25.607-6.72c-14.904-2.734-29.133-3.653-40.479-2.191
			c-3.222-0.002-6.391,0.07-9.429,0.097c-7.865,0.068-15.688-0.152-23.539-0.696c-1.803-0.125-3.636-0.283-5.486-0.435
			c-0.406-0.155-0.821-0.308-1.218-0.463c-7.26-2.813-14.75-4.973-22.403-6.403c-6.214-1.161-12.494-1.288-18.687-1.802
			c-5.154-0.432-10.304,0.062-15.448,0.301c-6.235,0.292-12.491,0.409-18.732,0.666c0.269,2.444,3.947,6.254,5.171,8.514
			c1.733,3.198,3.187,6.56,3.83,10.159c1.203,6.749-0.478,13.785-2.572,20.17c-2.065,6.303-4.987,12.33-7.872,18.289
			c-1.417,2.928-2.854,5.841-4.188,8.811c-9.422,20.988-14.851,44.951-15.546,67.963c-0.328,10.771,1.629,20.362,5.841,30.244
			c2.309,5.414,4.985,10.938,8.137,16.14c1.571,2.78,3.322,5.481,5.26,8.088c12.522,16.835,31.245,28.405,51.121,34.481
			c19.331,5.897,36.559,17.934,44.561,37.013c2.676,6.374,3.886,13.211,5.22,19.954c0.696,3.536,1.389,7.103,2.512,10.53
			c0.776,2.383,1.476,4.788,2.287,7.161c0.587,1.723,1.351,3.981,2.494,5.386c0.311,0.382,1.865-3.34,1.943-3.617
			c0.908-3.325,1.778-6.678,2.926-9.932c1.648-4.677,4.078-9.042,6.469-13.376c4.236-7.68,8.384-15.333,9.254-24.204
			c0.6-6.143-0.628-13.563-3.07-19.213c-0.562-1.302-1.49-2.987-2.673-4.552c0.038,0.004,0.08,0.017,0.12,0.023
			c12.098,2.51,25.172,0.694,36.895-2.478c6.58-1.78,12.949-4.466,19.125-7.331c1.932-0.895,3.877-1.764,5.695-2.879
			c2.776-1.698,5.967-3.812,7.771-6.605c0.757-1.172,0.682-1.663-0.713-2.002c-2.045-0.497-4.187-0.762-6.25-1.229
			c-11.023-2.491-21.227-7.497-31.916-11.034c-2.622-0.864-5.297-1.563-8.008-2.096c-4.744-0.938-9.598-1.37-14.44-1.27
			c-3.995,0.084-8.084,0.182-11.968,0.42c-9.756,0.6-19.077,4.132-28.818,4.941c-5.2,0.431-10.37,0.348-14.976-2.356
			c-4.516-2.645-8.744-5.796-12.325-9.632c-2.059-2.206-3.735-4.715-5.058-7.405c-3.443-8.517-2.835-17.835,0.764-25.423
			c1.654,3.759,4.672,6.987,7.308,10.043c4.983,5.783,10.856,11.229,17.899,14.373c3.344,1.489,10.006,3.955,13.559,2.215
			c5.49-2.69-2.373-13.479-2.683-17.94c-0.327-4.793,0.826-9.728,2.749-14.092c4.17-9.441,11.741-14.105,21.686-15.563
			c2.236,0.976,4.619,1.821,7.181,2.45c5.713,1.49,11.404,1.035,16.006,0.693c4.502-0.305,8.563-0.68,12.01-1.048
			c10.452-0.392,19.594-2.568,26.583-2.844c1.951,0.063,3.746,0.255,5.409,0.515c3.398,1.975,7.305,3.768,12.265,4.165
			c4.2,0.039,8.259-1.642,10.759-5.117c2.354-3.481,2.415-7.279,2.172-10.406c-0.83-6.298-3.097-11.252-5.15-15.244
			c-0.43-0.813-0.857-1.573-1.277-2.298c-1.415-3.343-3.275-6.477-5.512-9.222c1.501-1.818,3.254-3.955,5.232-6.374
			c6.101-7.685,14.896-18.344,20.816-32.533c0.163-0.812,0.303-1.607,0.387-2.375c0.58-5.338,1.174-11.07-2.021-15.615
			c-1.497-1.551-3.334-2.83-5.729-3.66c-4.113-1.418-8.692-1.785-13.268-1.407c-0.946,0.199-1.872,0.434-2.77,0.692
			c-9.623,2.789-18.51,8.184-25.679,15.169c-2.415,2.353-4.7,4.819-6.866,7.382c-0.441,0.67-0.881,1.345-1.305,2.025
			c-5.613,8.949-11.034,20.108-20.313,25.795c0.472-0.289,0.717-3.601,0.858-4.188c2.622-10.722,6.24-20.863,12.308-30.225
			c1.303-2.006,2.685-3.955,4.185-5.803c-1.132,0.691-2.269,1.429-3.403,2.224c-7.191,5.519-11.133,12.829-13.24,19.647
			c-1.465,3.499-2.074,7.659-6.435,8.952c-3.905,1.162-7.354,0.229-9.485-3.333c-2.859-4.782-4.021-9.745-2.996-15.222
			c1.558-8.321,3.906-13.33,3.785-13.348c0.121,0.059-3.412,4.251-6.438,12.667c-2.265,6.08-3.815,17.112,1.797,26.247
			c-0.658-0.643-1.33-1.327-2.026-2.102c-4.473-5.111-8.602-13.64-8.529-23.827c-0.441-10.261,1.873-19.558,5.445-25.212
			c1.51-2.395,3.191-3.992,4.651-5.091c1.103,0.284,2.194,0.583,3.276,0.911c3.673,1.109,7.535,3.549,11.378,3.523
			c1.063-0.006,1.483-1.245,0.823-1.989c-2.352-2.666-6.394-3.986-9.651-5.295c-0.144-0.056-0.293-0.103-0.433-0.158
			c0.377,0.002,0.752,0.011,1.129,0.01c5-0.016,9.996-0.102,14.979-0.079c-3.603,2.394-6.522,7.118-7.519,11.408
			c-0.579,2.082-0.854,4.245-0.771,6.35c0.42,11.15,13.919,12.533,20.007,4.675c4.68-6.036,3.926-17.33-2.33-22.203
			c3.658,0.177,7.311,0.481,10.961,0.988c7.188,1.804,15.715,5.062,13.539,11.311C346.803,171.601,346.809,171.637,346.803,171.675z
			 M257.285,352.572c0.527-4.651,1.316-9.35,5.995-11.423c4.056-1.798,8.057-2.313,12.455-2.511
			c1.965-0.084,3.927-0.039,5.892-0.052c3.595-0.021,7.159,0.043,10.719,0.385c3.653,0.106,7.339,0.463,11.077,1.129
			c6.975,1.23,13.87,2.839,20.857,4c6.604,1.103,14.021,1.557,20.07,4.567c1.146,0.568,0.539,2.273-0.625,2.3
			c-6.768,0.158-13.834-1.944-20.476-3.123c-4.397-0.777-8.742-1.746-13.097-2.683c-1.399-0.253-2.797-0.551-4.191-0.864
			c-0.712-0.145-1.424-0.299-2.137-0.436c-5.916-1.135-12.305-1.906-18.713-2.117c-0.58-0.01-1.159-0.01-1.741-0.01
			c-1.56,0-3.193-0.022-4.853-0.011c-2.615,0.083-5.199,0.268-7.736,0.573c3.216-0.05,6.414,0.013,9.699,0.536
			c6.144,0.971,11.924,2.607,17.84,4.489c6.262,1.994,12.623,3.656,19.203,4.105c4.641,0.312,9.676,0.133,13.918,2.255
			c1.151,0.576,0.584,2.396-0.642,2.379c-11.228-0.174-22.758-1.803-33.383-5.465c-6.574-2.268-13.437-4.317-20.397-5.621
			c2.178,0.905,4.326,2.011,6.474,3.218c7.624,4.274,15.104,8.034,23.28,11.146c0.43,0.164,0.563,0.912,0,1.013
			c-7.655,1.354-14.611-3.103-20.992-6.813c-5.65-3.283-11.538-6.618-17.885-8.384c-0.58,0.207-1.203,0.345-1.674,0.476
			c-0.081,0.025-0.154,0.055-0.235,0.078c5.394,4.755,9.224,11.849,11.977,18.123c3.581,8.163,5.108,16.46,6.329,25.2
			c0.025,0.193-0.215,0.258-0.288,0.083c-3.114-7.756-5.595-15.906-8.987-23.562c-1.688-3.815-3.615-7.523-6.028-10.939
			c-1.457-2.064-3.125-3.891-4.803-5.72c5.505,10.399,7.997,23.215,9.29,34.499c1.474,12.901,2.34,27.613-1.604,40.14
			c-0.198,0.63-1.109,0.656-1.299,0c-1.761-6.167,0.109-12.785,0.336-19.111c0.232-6.507,0.152-13.05-0.553-19.531
			c-0.797-7.307-2.115-14.59-4.212-21.646c-1.336-4.509-3.101-8.854-4.733-13.244c-0.269,1.58-0.549,3.162-0.634,4.735
			c-0.216,4.012-0.235,8.05,0.059,12.054c0.639,8.735,4.765,18.254,3.278,26.984c-0.11,0.66-1.161,0.782-1.445,0.187
			c-2.261-4.729-2.857-10.512-3.838-15.64c-0.798-4.148-1.576-8.306-1.798-12.527C256.8,361.411,256.789,356.95,257.285,352.572z
			 M171.829,144.626c-0.813-1.063,0.688-2.069,1.634-1.635c0.343,0.154,19.286-0.375,28.526,1.019
			c7.88,1.189,16.966,3.168,23.223,8.363c0.739,0.613-0.063,1.722-0.886,1.521c-4.25-1.041-8.163-2.985-12.363-4.229
			c-3.995-1.182-8.077-2.132-12.198-2.772c-7.538-1.172-15.375-1.894-23.037-2.241c2.503,0.365,4.955,0.757,7.487,1.561
			c3.619,1.15,7.18,2.427,10.685,3.888c5.388,2.243,12.067,5.09,15.654,9.874c0.373,0.5-0.241,1.18-0.782,1.017
			c-2.996-0.9-5.505-2.733-8.268-4.166c-3.301-1.715-6.638-3.358-10.099-4.73c-4.036-1.598-8.14-3.145-12.238-4.652
			c2.841,3.192,5.056,7.267,6.55,10.707c2.466,5.669,5.013,12.198,4.372,18.473c-0.109,1.078-1.422,1.226-1.823,0.247
			c-2.443-5.934-3.139-12.351-6.075-18.159C179.429,153.241,175.478,149.392,171.829,144.626z M321.246,229.453
			c8.917-2.504,22.758,3.42,27.427,11.201c-0.969-2.354-0.996-5.197-1.487-7.757c11.705,3.253,19.037,15.591,20.627,27.413
			c-4.412,2.305-13.406-3.314-25.522-15.38c-6.019-5.998-13.151-14.154-21.604-15.478L321.246,229.453L321.246,229.453z
			 M284.611,165.503c-5.207,5.441-9.266,15.722-8.772,27.028c-0.116,11.664,6.296,21.369,12.125,25.702
			c3.362,2.517,6.917,4.813,10.39,7.174c3.233,2.195,6.681,2.942,10.104,4.563c4.855,2.297,10.176,3.203,14.888,6.046
			c5.099,3.071,9.443,7.274,13.646,11.438c7.523,7.456,17.104,19.642,28.688,20.093c-1.134,0.589-2.488,0.918-4.086,0.887
			c-5.47-0.318-11.047-3.891-16.302-6.472c-5.257-2.314-9.267-5.185-12.579-8.028c-6.451-5.773-9.996-10.097-10.061-10.009
			c0.099-0.055,2.4,4.942,8.115,11.938c0.262,0.313,0.551,0.63,0.829,0.95c0.582,0.659-3.704,4.744-4.413,5.182
			c-4.244,2.628-7.632,4.797-12.67,5.007c-4.932,0.205-9.875-0.756-14.642-1.924c-16.226-3.787-26.913-16.837-33.495-25.604
			c-6.626-9.217-8.548-16.269-8.643-16.206c0.102-0.092,0.636,7.319,6.316,17.655c4.506,7.767,11.902,19.052,24.335,25.601
			c-19.02-5.591-30.658-19.203-30.651-18.808c0.052-0.044,1.98,4.076,6.898,9.579c0.339,0.376,0.696,0.76,1.072,1.147
			c-4.263-0.305-8.754,0.636-12.77,1.552c-6.111,1.396-12.243,3.284-17.892,6.015c-10.088,4.886-18.005,13.646-21.111,24.46
			c-1.491,5.186-1.706,10.836-0.808,16.319c0.205,5.068,1.474,10.194,4.03,14.938c3.543,6.917,9.217,12.536,15.877,15.751
			c1.743,0.863,3.53,1.515,5.337,2.007c-6.91-1.009-13.92-1.571-20.682-3.554c-9.332-2.732-18.299-6.928-26.317-12.429
			c-5.646-3.88-10.256-8.709-13.795-14.319c-6.178-9.804-7.634-25.12-7.119-36.37c0.629-13.814,4.471-27.278,8.795-40.342
			c3.762-11.366,9.078-22.513,16.545-31.921c4.047-5.098,8.386-9.996,12.854-14.728c11.292-11.963,26.461-22.275,43.062-26.034
			c9.576-2.169,19.624-1.457,29.22,0.16c2.9,0.487,5.815,1.057,8.698,1.738C288.094,162.484,286.364,163.68,284.611,165.503z
			 M316.878,163.544c0.36-0.399,0.829-0.644,1.403-0.62c3.326,0.151,2.843,5.725-0.881,5.495c-1.264-0.079-1.639-1.987-1.211-3.534
			C316.33,164.371,316.563,163.897,316.878,163.544z M318.861,179.089c-1.483,1.481-3.799,3.08-5.947,2.055
			c-2.721-1.298-3.098-4.593-2.924-7.193c0.042-0.614,0.136-1.229,0.25-1.84c1.02,3.672,3.85,5.744,7.667,6.061
			c0.575,0.047,1.235,0.027,1.934-0.055C319.52,178.431,319.198,178.754,318.861,179.089z"/>
		<path fill="#D33969" d="M282.967,229.551c8.118,2.702,14.838-1.275,14.514-1.282c-0.215,0.063-6.201-1.631-12.844-3.938
			c-6.74-2.021-12.74-3.935-12.871-4.069C271.54,220.099,274.854,227.019,282.967,229.551z"/>
		<path fill="#D33969" d="M275.135,230.377c-0.21-0.234,3.906,7.082,13.191,8.669c9.054,1.464,15.592-2.898,15.474-2.767
			c-0.065-0.072-7.028-1.336-14.524-2.631C281.809,232.521,275.295,230.433,275.135,230.377z"/>
		<path fill="#D33969" d="M281.46,241.339c-0.12-0.237,5.692,6.618,16.03,7.444c9.828,0.474,17.173-2.523,17.268-2.389
			c0.107-0.127-7.826-2.638-16.797-3.073C289.266,242.759,281.59,241.254,281.46,241.339z"/>
		<path fill="#D33969" d="M256.295,224.431c-8.904-1.941-16.781-6.533-25.412-9.192c-4.052-1.248-8.146-2.313-12.157-3.69
			c-3.819-1.312-7.479-4.352-11.459-4.861c-0.189-0.026-0.358,0.034-0.505,0.136c-0.828,0.091-1.563,1.035-0.981,1.838
			c8.097,11.207-2.213,26.462,6.949,37.641c9.283,11.326,28.012,9.382,38.333,0.472c0.372-0.319,0.057-0.892-0.377-0.91
			c-3.679-0.146-6.541,1.278-9.929,2.57c-3.913,1.496-7.788,2.099-11.95,1.834c-3.834-0.245-7.292-1.585-10.072-3.783
			c-0.7-1.038-1.391-2.057-1.963-3.177c1.407,0.602,2.921,1.019,4.247,1.37c4.731,1.26,8.138,0.377,12.5-1.235
			c0.427-0.158,0.402-0.913-0.113-0.854c-3.461,0.393-8.114-0.541-11.453-1.292c-2.454-0.551-4.48-1.995-6.72-2.872
			c-0.396-2.254-0.469-4.549-0.441-6.853c0.002-0.114,0.008-0.231,0.011-0.348c1.696,1.204,3.436,2.169,4.48,2.721
			c4.974,2.623,11.172,4.71,16.768,3.174c0.399-0.11,0.432-0.747,0-0.84c-4.78-1.011-9.678-2.711-14.068-4.827
			c-2.322-1.115-4.515-2.519-6.442-4.229c-0.15-0.136-0.276-0.289-0.413-0.438c0.201-1.898,0.441-3.83,0.568-5.742
			c1.949,1.883,4.007,3.606,6.037,5.063c6.563,4.711,14.142,4.955,21.789,5.919c0.495,0.063,0.483-0.706,0-0.77
			c-7.248-0.971-16.086-4.894-21.649-9.592c-0.839-0.704-1.613-1.479-2.366-2.284c3.084,0.669,6.33,1.032,9.021,1.696
			c5.965,1.471,11.893,2.8,17.904,4.048c0.055,0.011,0.095,0.001,0.145,0.004c3.214,0.81,6.46,1.077,9.718,0.234
			C256.748,225.248,256.77,224.535,256.295,224.431z"/>
	</g>
	<path fill="#D33969" d="M418.275,233.636l-1.327,7.661l1.028-0.588c-0.065,0.037,0.011,1.377,0.006,1.496
		c-0.064,1.119-0.252,2.205-0.642,3.262c-1.041,2.818-3.578,4.409-6.523,3.166c-1.354-0.576-2.109-1.76-2.271-3.21l-1.144-20.199
		c0.548-0.524,1.054-1.406,1.364-2.86c0.745-3.446-0.349-4.834-2.006-5.283l-0.082-0.461h-2.776v0.61
		c-0.783,0.448-1.887,1.462-1.693,3.587c0.235,2.573,1.623,4.164,2.187,4.715c0.252,3.789,1.15,18.587-0.061,20.704
		c-1.673,2.923-4.749,4.267-7.81,2.583c-1.449-0.797-2.655-2.157-2.865-3.838c-0.44-3.534,0-3.386,0-3.386l0.886,1.911L393,234.667
		c0,0-1.251,7.809-0.586,10.83c0,0,0.93,4.937,6.173,5.673c0,0,3.558,0.795,6.958-2.49v3.377c0,0.573,0.468,1.039,1.045,1.039
		c0.576,0,1.042-0.467,1.042-1.039v-3.461c0.518,0.729,1.162,1.387,1.969,1.782c1.302,0.635,3.133,0.826,4.507,0.38
		c3.654-1.198,4.727-4.445,5.062-7.836c0.07-0.705,0.041-3.306-0.098-4.234C418.755,236.605,418.23,233.871,418.275,233.636z"/>
	<g>
		<g>
			<path fill="#D33969" d="M495,270c0-124.263-100.738-224.999-225.001-224.999C145.736,45.001,45,145.737,45,270
				c0,124.259,100.736,224.999,224.999,224.999C394.264,494.999,495,394.259,495,270z M59.754,270
				c0-116.114,94.129-210.245,210.245-210.245S480.243,153.886,480.243,270c0,116.117-94.128,210.244-210.244,210.244
				C153.886,480.244,59.754,386.117,59.754,270z"/>
		</g>
		<g>
			<path fill="#D33969" d="M68.861,270.002c0-110.909,90.232-201.138,201.141-201.138s201.141,90.229,201.141,201.138
				c0,110.905-90.231,201.136-201.141,201.136S68.861,380.907,68.861,270.002z M464.32,270.002
				c0-107.148-87.174-194.319-194.321-194.319c-107.147,0-194.319,87.171-194.319,194.319c0,107.146,87.173,194.318,194.319,194.318
				C377.146,464.32,464.32,377.147,464.32,270.002z"/>
		</g>
	</g>
	
		<text transform="matrix(0.8503 -0.5264 0.5264 0.8503 347.4873 408.043)" fill="#D33969" font-family="'BebasNeue'" font-size="36.3715">F</text>
	
		<text transform="matrix(0.8503 -0.5264 0.5264 0.8503 362.4141 398.5684)" fill="#D33969" font-family="'BebasNeue'" font-size="36.3715"> </text>
	<g enable-background="new    ">
		<path fill="#D33969" d="M356.477,371.587l3.4-2.104l13.396,21.641l-3.399,2.104L356.477,371.587z"/>
	</g>
	
		<text transform="matrix(0.8503 -0.5264 0.5264 0.8503 375.3486 388.4697)" fill="#D33969" font-family="'BebasNeue'" font-size="36.3715"> </text>
	
		<text transform="matrix(0.8503 -0.5264 0.5264 0.8503 381.1924 383.4238)" fill="#D33969" font-family="'BebasNeue'" font-size="36.3715">S</text>
	
		<text transform="matrix(0.8503 -0.5264 0.5264 0.8503 393.2656 370.166)" fill="#D33969" font-family="'BebasNeue'" font-size="36.3715"> </text>
	
		<text transform="matrix(0.8503 -0.5264 0.5264 0.8503 398.3945 364.3242)" fill="#D33969" font-family="'BebasNeue'" font-size="36.3715">H</text>
	
		<text transform="matrix(0.8503 -0.5264 0.5264 0.8503 410.8135 344.1621)" fill="#D33969" font-family="'BebasNeue'" font-size="36.3715"> </text>
	
		<text transform="matrix(0.8503 -0.5264 0.5264 0.8503 414.3125 337.2852)" fill="#D33969" font-family="'BebasNeue'" font-size="36.3715">I</text>
	
		<text transform="matrix(0.8503 -0.5264 0.5264 0.8503 417.8184 329.3174)" fill="#D33969" font-family="'BebasNeue'" font-size="36.3715"> </text>
	
		<text transform="matrix(0.8503 -0.5264 0.5264 0.8503 420.9551 322.2188)" fill="#D33969" font-family="'BebasNeue'" font-size="36.3715">N</text>
	
		<text transform="matrix(0.8503 -0.5264 0.5264 0.8503 426.75 299.002)" fill="#D33969" font-family="'BebasNeue'" font-size="36.3715"> </text>
	
		<text transform="matrix(0.8503 -0.5264 0.5264 0.8503 428.3662 291.4414)" fill="#D33969" font-family="'BebasNeue'" font-size="36.3715">G</text>
</g>
</svg>
