<?xml version="1.0" encoding="utf-8"?>
<!-- Generator: Adobe Illustrator 15.0.0, SVG Export Plug-In . SVG Version: 6.00 Build 0)  -->
<!DOCTYPE svg PUBLIC "-//W3C//DTD SVG 1.1//EN" "http://www.w3.org/Graphics/SVG/1.1/DTD/svg11.dtd">
<svg version="1.1" id="Layer_1" xmlns="http://www.w3.org/2000/svg" xmlns:xlink="http://www.w3.org/1999/xlink" x="0px" y="0px"
	 width="412.456px" height="276.257px" viewBox="0 0 412.456 276.257" enable-background="new 0 0 412.456 276.257"
	 xml:space="preserve">
<g>
	<g>
		<path fill="#66F291" d="M243.771,157.512c3.729,21.75,20.511,40.938,37.563,53.883c0.194,0.148,0.388,0.248,0.579,0.326
			c0.303,1.021,1.15,1.859,2.565,1.881c5.806,0.088,11.495-1.094,17.23-1.809c6.11-0.762,12.226-1.521,18.364-2.029
			c12.221-1.011,24.592-1.082,36.546,2.021c12.159,3.156,22.495,9.303,33.623,14.893c3.583,1.801,7.09,3.784,10.805,5.311
			c2.549,1.047,5.183,2.484,8.013,2.006c0.438-0.074,0.724-0.307,0.883-0.604c2.355-0.336,2.992-4.298,0.207-5.289
			c-0.931-0.33-1.851-0.677-2.767-1.031c-3.979-3.154-8.136-6.12-11.888-9.621c-4.212-3.93-8.204-8.073-12.481-11.932
			c-1.092-0.985-3.139-0.697-3.482,0.92c-0.271,1.267-0.597,2.515-0.853,3.775c-6.761-1.72-12.908-5.467-18.501-9.555
			c-6.513-4.762-12.564-10.209-18.05-16.123c-11.932-12.863-21.483-26.564-27.646-43.089c-0.84-2.252-4.242-1.993-4.291,0.581
			c-0.208,10.822,7.332,21.662,12.415,30.76c4.188,7.498,8.553,16.064,14.313,23.007c-3.196-1.051-6.51-2.094-9.684-3.34
			c-1.844-1.021-3.622-2.125-5.308-3.203c-5.299-3.39-10.091-7.312-15.025-11.183c-1.788-1.401-4.104,0.289-3.126,2.412
			c0.531,1.152,1.128,2.264,1.78,3.34c0.004,0.436,0.163,0.855,0.549,1.16c0.13,0.104,0.264,0.203,0.395,0.307
			c4.716,6.984,11.838,12.378,19.155,16.949c-9.282-1.869-18.77-6.506-24.008-13.543c-1.668-2.242-4.996-0.375-3.77,2.201
			c1.92,4.029,4.381,7.929,7.526,11.125c-4.441-0.703-8.765-2.711-12.611-4.813c-5.4-2.947-10.595-6.318-15.739-9.691
			c-12.113-7.938-23.427-18.183-29.278-31.691C246.717,153.377,243.382,155.255,243.771,157.512 M331.79,179.354
			c-0.093,0.045-0.181,0.099-0.265,0.158c-0.305-0.531-0.604-1.062-0.904-1.592C331.006,178.4,331.401,178.876,331.79,179.354
			 M356.065,203.893c0.113-0.082,0.214-0.181,0.283-0.299c0.348,0.26,0.688,0.53,1.037,0.786
			C356.944,204.223,356.504,204.059,356.065,203.893 M333.262,201.455c0.796,0.363,1.594,0.707,2.391,1.049
			c-0.074,0.055-0.146,0.112-0.212,0.176C334.714,202.271,333.986,201.867,333.262,201.455 M268.725,193.378
			c-0.278-0.304-0.545-0.618-0.818-0.924c0.046-0.075,0.085-0.153,0.114-0.237c0.267,0.358,0.529,0.719,0.784,1.082
			C268.779,193.326,268.748,193.35,268.725,193.378"/>
		<path fill="#66F291" d="M109.037,59.153c1.672,5.832,4.399,11.525,9.008,15.637c3.686,3.289,9.131,6.628,14.222,4.521
			c2.224-0.92,4.897-3.04,7.384-2.855c3.005,0.223,4.654,3.671,5.972,5.981c3.495,6.136,8.047,11.651,12.262,17.301
			c9.199,12.332,18.791,24.435,29.511,35.493c5.36,5.53,10.958,10.759,16.921,15.635c2.678,2.188,5.438,4.557,8.503,6.19
			c0.327,0.174,0.665,0.338,1.01,0.497c0.07,0.056,0.142,0.11,0.212,0.164c2.895,2.179,7.341,6.261,11.324,5.609
			c1.396-0.229,1.171-2.088,0.087-2.55c0.042-2.004-2.86-3.992-4.18-4.979c-0.758-0.566-1.542-1.123-2.338-1.674
			c-5.478-6.297-13.104-10.902-19.179-16.464c-9.285-8.5-16.496-18.476-23.549-28.83c-7.148-10.495-13.902-21.257-20.548-32.074
			c-2.88-4.685-5.546-9.491-7.495-14.64c-0.725-1.906-1.402-3.927-2.426-5.7c-0.861-1.496-1.853-2.634-2.419-4.297
			c-0.52-1.524-3.244-1.94-3.516,0c-0.922,6.621-3.719,16.246-11.074,18.354c-9.565,2.742-12.949-5.785-16.715-12.577
			C111.113,56.276,108.53,57.381,109.037,59.153 M196.717,139.092c2.244,2.029,4.589,3.953,6.955,5.854
			c-0.115,0.016-0.229,0.041-0.34,0.078C201.092,143.084,198.877,141.118,196.717,139.092 M188.058,130.428
			c0.184,0.122,0.368,0.241,0.553,0.36c1.084,1.237,2.186,2.46,3.325,3.65c-0.623-0.628-1.255-1.242-1.869-1.88
			C189.391,131.855,188.727,131.138,188.058,130.428 M150.686,75.898c-0.617-0.946-1.246-1.885-1.87-2.827
			c0.004-0.007,0.008-0.014,0.011-0.021c0.063-0.073,0.11-0.158,0.146-0.249c0.627,1.141,1.271,2.275,1.94,3.388
			C150.838,76.091,150.762,75.995,150.686,75.898"/>
		<path fill="#66F291" d="M133.778,140.708c5.311,10.212,16.932,12.858,26.157,18.353c-1.985,3.541-2.602,7.515-2.336,11.625
			c0.146,2.238,2.998,2.525,3.775,0.513c6.121-15.858,28.363,8.543,33.955,14.274c6.938,7.113,14.277,14.598,22.813,19.771
			c3.229,1.957,6.733,3.512,10.121,5.171c1.732,0.85,3.474,1.686,5.199,2.551c0.781,0.395,2.915,2.044,1.936,0.748
			c1.46,1.934,4.699,0.153,3.499-1.8c0.176-0.443,0.079-0.979-0.475-1.306c-17.078-10.08-32.115-22.971-44.107-38.801
			c-11.474-15.147-20.46-31.93-28.734-48.985c-0.777-1.601-3.144-0.736-3.184,0.862c-0.273,10.787,1.346,22.729,5.873,32.907
			c-10.454-6.211-22.799-9.31-31.46-18.223C135.234,136.744,132.789,138.803,133.778,140.708 M203.678,188.078
			c0.093-0.021,0.179-0.059,0.258-0.11c2.502,2.579,5.09,5.071,7.79,7.443C208.946,193.057,206.289,190.594,203.678,188.078
			 M184.054,163.514c0.12-0.008,0.237-0.027,0.352-0.058c0.309,0.46,0.607,0.926,0.919,1.384
			C184.905,164.393,184.476,163.957,184.054,163.514"/>
		<path fill="#66F291" d="M52.523,208.451c11.72-0.278,21.875-4.9,30.784-12.369c5.024-4.213,9.638-8.811,15.483-11.922
			c5.227-2.78,10.789-4.521,16.524-5.907c1.84-0.444,1.698-2.884,0.263-3.56c-0.115-0.168-0.279-0.305-0.507-0.367
			c-12.196-3.402-25.774,0.406-36.712,6.105c-11.189,5.834-21.184,14.147-27.43,25.243C50.26,206.867,51.098,208.486,52.523,208.451
			 M59.776,199.074c1.1-1.336,2.262-2.633,3.49-3.873C62.09,196.482,60.897,197.753,59.776,199.074"/>
		<path fill="#66F291" d="M98.38,203.061c11.982-0.088,24.501,2.232,36.188,4.715c11.64,2.472,23.121,5.593,34.25,9.834
			c10.041,3.826,18.022,10.9,27.744,15.275c9.398,4.23,18.15,2.397,27.331-1.334c2.34-0.951,1.525-4.64-0.813-4.109
			c-0.193-0.028-0.405-0.008-0.627,0.09c-8.205,3.582-18.68-3.702-25.272-7.887c-8.779-5.57-17.413-11.127-26.797-15.688
			c-11.439-5.563-23.359-9.647-36.187-10.015c-12.147-0.344-24.741,1.383-36.399,4.826C95.449,199.462,95.878,203.078,98.38,203.061
			 M112.576,200.186c0.399-0.07,0.802-0.14,1.202-0.209c-0.008,0.109-0.01,0.217-0.002,0.326
			C113.376,200.264,112.976,200.225,112.576,200.186"/>
		<path fill="#66F291" d="M73.561,222.434c0.115,0.465,0.395,0.896,0.875,1.197c4.31,2.689,9.194,4.545,13.82,6.612
			c4.623,2.065,9.268,4.188,14.04,5.89c9.179,3.271,18.792,4.773,28.495,5.434c10.328,0.703,20.61,0.486,30.942,0.103
			c5.096-0.19,10.181-0.356,15.238-1.033c3.402-0.454,6.679-0.991,9.422-3.022c0.214,0.035,0.426,0.072,0.642,0.102
			c1.091,0.146,1.145-1.471,0.243-1.802c-7.24-2.659-13.732-7.489-21.303-9.235c-8.073-1.861-16.256-3.467-24.521-4.193
			c-10.125-0.893-19.852-0.1-29.095,3.017c4.862-2.94,10.458-4.974,15.431-7.396c1.644-0.801,1.388-3.844-0.537-4.108
			c-9.805-1.349-19.515-3.384-29.458-3.425c-8.326-0.034-20.55,0.586-24.926,9.117C72.262,220.872,72.736,221.918,73.561,222.434
			 M100.971,224.004c-0.123,0.141-0.238,0.283-0.354,0.428c-0.306-0.125-0.609-0.246-0.916-0.361
			c0.041-0.014,0.083-0.026,0.125-0.041C100.206,224.021,100.588,224.014,100.971,224.004"/>
	</g>
	<path fill="#08B746" d="M15.561,167.102c3.313,9.619,8.799,18.599,15.523,26.213c3.31,3.746,6.916,7.312,11.033,10.175
		c2.519,1.75,6.797,5.013,10.065,4.78c0.861,0.062,1.264-0.608,1.226-1.28c0-0.015-0.006-0.029-0.005-0.046
		c1.403-1.135,1.956-3.225,2.774-4.789c1.151-2.206,2.368-4.399,3.76-6.467c2.557-3.795,5.516-7.287,8.846-10.428
		c3.404-3.212,7.061-6.138,10.865-8.861c6.565-3.75,13.488-6.801,19.887-10.834c6.004-3.782,9.152-8.807,9.742-15.918
		c0.463-5.563-0.369-11.688,2.244-16.853c2.169-4.286,5.932-7.435,7.785-11.876c0.401-0.959-0.855-1.636-1.61-1.238
		c-0.004,0.003-0.007,0.004-0.011,0.006c-0.155-0.019-0.323-0.006-0.501,0.047c-0.323-0.151-0.717-0.145-1.128,0.139
		c-0.271,0.207-0.552,0.395-0.828,0.591c-0.626,0.268-1.236,0.566-1.857,0.917c-0.244,0.137-0.427,0.362-0.539,0.617
		c-1.552,0.884-3.183,1.623-4.861,2.251c-4.822,1.268-9.694,2.192-14.729,2.56c-1.337,0.098-2.681,0.191-4.025,0.253
		c18.902-12.422,50.354-27.556,40.086-53.601c10.271-2.66,10.957-12.902,11.172-22.245c2.633,4.207,5.117,8.481,7.165,13.08
		c2.759,6.195,5.186,12.654,8.844,18.395c8.905,13.973,18.27,27.717,28.779,40.542c10.433,12.728,21.669,24.792,34.434,35.217
		c11.768,9.609,25.649,16.469,36.73,26.916c1.255,1.182,2.854-0.553,1.843-1.844c-5.735-7.293-11.432-17.06-12.493-26.711
		c7.652,11.666,15.455,23.865,26.595,32.402c10.688,8.19,24.041,15.657,37.712,16.721c1.335,0.104,1.544-1.666,0.625-2.308
		c-5.401-3.778-9.422-9.435-12.638-15.344c10.432,9.655,24.211,18.312,38.38,16.565c1.114-0.137,1.982-1.824,0.656-2.422
		c-10.184-4.592-19.094-11.563-27.003-19.384c-3.975-3.931-7.773-8.039-11.381-12.31c-0.926-1.096-9.518-11.112-9.384-11.293
		c4.642-6.326,10.628-13.455,17.683-17.127c1.369-0.715,4.538-2.418,5.935-0.877c1.278,1.407,1.616,3.438,1.994,5.239
		c0.473,2.245,0.971,4.451,1.977,6.454c3.97,13.211,14.976,23.477,24.012,33.321c10.496,11.437,23.865,21.048,38.163,27.176
		c0.876,0.375,1.706-0.226,1.545-1.188c-0.486-2.898-1.086-7.847,3.087-5.106c2.51,1.646,4.697,3.75,6.822,5.856
		c6.355,6.306,13.245,12.011,19.615,18.287c0.554,0.545,1.279-0.25,0.828-0.83c-0.229-0.295-0.479-0.569-0.719-0.856
		c0.026-0.004,0.049-0.017,0.075-0.021c0.188,0.197,0.382,0.385,0.592,0.549c0.405,0.318,0.91,0.113,0.968-0.4
		c0.323-2.84-2.296-6.359-3.725-8.65c-2.036-3.266-4.222-6.433-6.457-9.563c-3.754-5.258-7.27-10.539-10.679-16.021
		c-2.667-4.289-5.689-9.317-10.521-11.414c-3.994-1.733-7.819,0.265-10.72,3.021c-4.642-2.998-8.358-7.318-11.82-11.566
		c-4.061-4.983-7.725-10.258-11.265-15.619c-3.648-5.523-6.767-11.012-9.131-17.226c-2.238-5.883-4.163-11.998-7.169-17.553
		c-1.525-2.816-4.136-8.809-8.318-7.267c-2.364,0.872-4.283,3.448-6.233,4.916c-3.018,2.269-6.077,4.477-9.174,6.636
		c-9.537,6.654-21.815,13.876-26.171,25.284c-21.043-11.567-30.11-33.423-40.753-53.769c-1.688-3.226-3.752-7.32-7.187-9.002
		c-2.963-1.451-5.517,1.088-6.612,3.668c-1.512,3.562-1.569,7.482-1.109,11.294c-7.103,3.938-14.731,7.73-20.841,13.16
		c1.831-3.973,4.493-7.446,7.21-11.079c1.849-2.471,3.451-4.985,4.913-7.698c0.568-1.052,2.125-2.698,1.784-4.054
		c-0.966-3.84-5.403-7.139-8.413-9.338c-6.543-4.781-12.721-9.944-18.882-15.198c-6.008-5.122-12.549-10.095-17.944-15.874
		c-5.291-5.667-9.75-11.977-14.429-18.139c-2.124-2.798-4.228-5.662-6.571-8.28c-1.032-1.154-2.046-2.27-3.538-2.785
		c-2.755-0.948-5.222,3.63-6.57,5.86c-4.945-4.467-9.256-9.363-13.74-14.3c-2.448-2.696-5.196-4.722-8.655-2.48
		c-2.183,1.416-3.679,4.193-5.076,6.3c-1.934,2.911-3.811,5.859-5.697,8.8c-3.949,6.157-7.963,12.345-12.854,17.811
		C86.178,60.286,77.9,71.729,70.309,83.577c-7.713,12.038-14.432,24.239-24.313,34.722c-0.392,0.414-0.389,0.902-0.183,1.285
		c-4.985,3.687-9.108,8.142-13.113,12.958c-3.337,4.013-6.936,7.667-10.483,11.485c-3.029,3.258-6.517,6.99-7.82,11.359
		C13.215,159.339,14.25,163.297,15.561,167.102 M212.402,94.679c0.027-0.137,0.045-0.276,0.054-0.418
		c0.271,0.264,0.537,0.534,0.788,0.816c-0.097-0.024-0.191-0.045-0.291-0.058c-0.045-0.028-0.083-0.06-0.131-0.087
		C212.681,94.852,212.544,94.761,212.402,94.679 M376.923,209.977c0.156,0.037,0.309,0.084,0.469,0.115
		c0.271,0.055,0.561,0.021,0.817-0.082c0.02,0.245,0.045,0.489,0.072,0.729C377.829,210.482,377.377,210.23,376.923,209.977
		 M337.857,179.857c0.668,0.584,1.364,1.135,2.078,1.668c-0.092,0.053-0.175,0.121-0.24,0.207
		C339.085,181.111,338.473,180.492,337.857,179.857 M331.647,144.581c0.356,0.676,0.727,1.345,1.117,2.004
		c-0.053,0.017-0.106,0.032-0.155,0.06C332.289,145.955,331.972,145.268,331.647,144.581 M326.959,134.357
		c0.251,0.405,0.485,0.819,0.731,1.227c0.562,1.447,1.134,2.888,1.742,4.313C328.574,138.065,327.74,136.222,326.959,134.357
		 M320.396,195.846c0.055-0.063,0.101-0.137,0.141-0.213c0.706,0.52,1.419,1.027,2.14,1.525
		C321.911,196.729,321.153,196.287,320.396,195.846 M203.237,115.927c0.184-0.581,0.396-1.162,0.633-1.74
		c0.192-0.033,0.387-0.09,0.577-0.183C204.028,114.637,203.627,115.278,203.237,115.927 M183.658,70.545
		c2.672,2.284,5.365,4.543,8.026,6.825C188.91,75.212,186.215,72.959,183.658,70.545 M171.617,101.027
		c1.834,2.434,3.672,4.874,5.399,7.381C175.189,105.97,173.384,103.513,171.617,101.027 M130.293,70.235
		c1.009-0.651,1.955-1.322,2.781-1.926c0.422-0.308,0.813-0.638,1.18-0.985C133.246,68.531,131.953,69.526,130.293,70.235
		 M109.375,96.657c0.144-0.251,0.287-0.502,0.43-0.753c0,0.002-0.001,0.004-0.001,0.005c-0.042,0.256-0.032,0.508,0,0.755
		C109.66,96.659,109.518,96.657,109.375,96.657 M97.059,51.871c0.464-0.546,0.927-1.095,1.387-1.645
		c-0.397,0.579-0.798,1.158-1.194,1.736C97.188,51.929,97.123,51.901,97.059,51.871 M85.918,121.882
		c0.373-0.363,0.742-0.731,1.104-1.105c0.066,0.07,0.136,0.136,0.208,0.198C86.797,121.283,86.357,121.583,85.918,121.882
		 M83.688,68.487c-0.636,0.968-1.25,1.948-1.843,2.941c-0.099,0.008-0.199,0.025-0.302,0.048
		C82.256,70.478,82.961,69.475,83.688,68.487 M80.867,133.249c0.711,0.046,1.416,0.058,2.078,0.071
		c-0.609,0.158-1.22,0.309-1.828,0.456C81.055,133.592,80.971,133.417,80.867,133.249 M27.75,148.588
		c-0.271,0.295-0.459,0.605-0.576,0.922c-0.426,0.215-0.836,0.46-1.237,0.723c2.225-2.873,4.826-5.528,7.522-8.041
		C31.563,144.352,29.672,146.5,27.75,148.588"/>
	<path fill="#118B40" d="M4.283,164.648c0.247,0.826,1.09,1.43,1.954,0.768c6.813-5.201,11.492-12.525,17.503-18.545
		c6.233-6.248,12.391-12.593,19.19-18.219c-0.535,1.498-0.992,3.018-1.257,4.61c-0.197,1.19,1.276,2.431,2.244,1.306
		c4.042-4.697,8.812-8.753,12.271-13.876c10.674-9.137,20.865-19.005,33.474-25.14c2.383-0.894,4.729-1.875,7.024-2.939
		c1.228-0.57,0.354-2.61-0.918-2.178c-2.658,0.905-5.203,1.98-7.656,3.189c-2.638,0.961-5.317,1.801-8.004,2.512
		c-1.854,0.491-13.414,3.685-12.125-1.211C70.287,86.16,80.152,80.254,87.658,76.5c8.543-4.273,17.528-7.711,25.079-13.694
		c0.08-0.063,0.162-0.123,0.24-0.186c1.124-0.903-0.305-2.412-1.442-1.872c-0.073,0.035-0.146,0.072-0.222,0.107
		c-0.218-0.204-0.521-0.308-0.843-0.194c-4.59,1.628-8.844,4.163-13.43,5.844c-2.598,0.951-5.396,2.01-8.184,2.177
		c-0.457,0.027-0.979,0.066-1.5,0.05c-0.229-0.53-0.218-1.106-0.035-1.702c3.196-2.642,6.91-4.824,10.074-6.74
		c4.539-2.751,9.065-5.521,13.914-7.693c5.229-2.342,10.599-4.58,15.504-7.559c2.34-1.42,6.604-3.67,6.424-6.953
		c-0.036-0.685-0.532-1.214-1.231-1.232c-5.917-0.16-11.491,2.754-17.385,2.085c0.653-6.746,2.918-13.806,6.541-19.562
		c7.021,6.401,12.813,14.007,19.842,20.41c0.595,0.542,1.684,0.53,2.081-0.268c1.583-3.167,2.563-6.595,4.741-9.404
		c5.655,4.937,8.229,12.15,12.655,18.078c5.259,7.037,11.195,13.484,17.227,19.858c10.745,11.358,25.695,17.813,35.017,30.644
		c-2.287,3.041-4.094,6.424-5.674,9.884c-0.438,0.956,0.527,2.299,1.584,1.584c4.533-3.064,8.595-9.615,13.997-11.362
		c1.123,15.752,6.647,30.534,19.403,40.576c0.911,0.718,2.546-0.225,1.754-1.353c-4.603-6.548-8.406-13.927-11.135-21.443
		c-2.451-6.755-5.41-16.092-1.703-22.93c4.624,3.628,6.494,10.477,8.989,15.514c3.739,7.543,8.306,14.802,13,21.781
		c8.056,11.977,17.706,24.557,32.089,29.045c0.608,0.189,1.074-0.441,0.992-0.956c0.082-0.261,0.045-0.55-0.204-0.771
		c-1.007-0.894-1.988-1.812-2.96-2.74c6.856-7.681,13.229-16.771,22.135-22.206c3.568-2.177,8.087-3.385,11.356-5.919
		c2.584-2.003,4.739-5.363,7.895-6.489c9.792,27.313,23.897,57.557,49.523,73.197c0.782,0.479,1.697-0.303,1.489-1.146
		c-0.423-1.715-1.626-7.508,1.902-7.348c2.748,0.126,5.191,1.69,6.925,3.756c2.813,3.354,4.608,7.312,6.877,11.019
		c6.168,10.084,12.637,20.061,19.687,29.555c0.021,0.027,0.044,0.049,0.065,0.072c0.127,0.219,0.258,0.435,0.383,0.653
		c0.472,0.821,1.708,0.093,1.267-0.739c-0.058-0.107-0.118-0.211-0.177-0.32c0.014-0.148-0.025-0.313-0.14-0.482
		c-0.226-0.332-0.449-0.662-0.674-0.994c-5.1-9.279-11.165-18.002-16.533-27.127c-5.616-9.547-10.46-19.578-17.104-28.482
		c-0.364-0.489-0.94-0.592-1.42-0.184c-2.374,2.026-4.542,4.219-6.452,6.676c-0.852-2.322-2.735-4.412-4.188-6.295
		c-2.156-2.797-4.511-5.463-6.477-8.402c-4.141-6.19-7.835-12.746-11.405-19.278c-3.646-6.668-7.324-13.428-10.377-20.393
		c-1.957-4.466-3.081-10.842-6.753-14.285c-0.042-0.039-0.085-0.07-0.129-0.1c-0.216-0.298-0.605-0.467-0.959-0.214
		c-3.724,2.669-7.393,5.181-11.629,6.979c-0.323,0.137-0.549,0.59-0.531,0.925c0.162,3.21-5.777,5.346-8.105,6.434
		c-2.902,1.357-6,2.557-8.606,4.452c-4.021,2.921-7.442,7.327-10.749,11.009c-3.599,4.004-7.135,8.065-10.7,12.098
		c-8.699-9.03-16.098-19.371-23.057-29.759c-9.031-13.483-16.035-28.205-25.281-41.552c-0.379-0.547-1.104-0.834-1.716-0.45
		c-4.78,2.997-9.032,7.099-12.429,11.721c-3.189-2.809-6.794-4.956-10.274-7.381c-3.822-2.664-7.433-5.633-10.854-8.795
		c-6.301-5.825-12.355-11.969-18.296-18.161c-6.179-6.44-12.16-13.09-17.627-20.151c-4.477-5.783-7.952-12.91-13.458-17.792
		c-0.646-0.571-1.471-0.419-1.96,0.253c-1.609,2.208-3.29,4.361-4.923,6.552c-7.643-5.477-11.716-14.563-17.345-21.858
		c-0.591-0.767-1.653-0.883-2.226,0C84.323,59.418,51.234,116.776,3.798,162.471C2.996,163.246,3.492,164.305,4.283,164.648
		 M384.802,187.434c0.059-0.08,0.108-0.166,0.148-0.258c0.206,0.363,0.415,0.727,0.622,1.092
		C385.326,187.986,385.067,187.709,384.802,187.434 M362.289,179.236c0.074-0.006,0.146-0.002,0.223-0.012
		c0.373,0.438,0.753,0.864,1.116,1.311C363.172,180.113,362.733,179.672,362.289,179.236 M326.243,119.488
		c0.267,0.615,0.53,1.23,0.797,1.846c-0.026,0.058-0.047,0.12-0.061,0.187C326.735,120.843,326.482,120.163,326.243,119.488
		 M294.075,139.289c0.572-0.649,1.153-1.287,1.749-1.907c0.017,0.048,0.031,0.096,0.054,0.142
		C295.269,138.103,294.666,138.688,294.075,139.289 M269.564,144.393c0.531,0.672,1.069,1.34,1.611,2.008
		c-0.521-0.521-1.043-1.041-1.563-1.563C269.629,144.697,269.612,144.549,269.564,144.393 M202.103,83.984
		c0.554,0.405,1.106,0.81,1.673,1.194c-0.301-0.134-0.595-0.294-0.887-0.459C202.626,84.476,202.363,84.23,202.103,83.984
		 M103.904,44.074c0.448-0.977,0.914-1.947,1.373-2.918c-0.007,0.12,0.002,0.234,0.03,0.335
		C104.843,42.354,104.377,43.216,103.904,44.074"/>
	<path fill="#118B40" d="M32.149,199.457c7.753,8.156,16.553,15.203,25.421,22.09c11.591,8.999,23.423,17.322,37.146,22.799
		c15.975,6.371,32.97,8.674,50.11,8.285c21.579-0.49,43.712-3.82,64.407-9.99c19.687-5.871,38.867-14.115,59.199-17.602
		c10.51-1.803,21.425-2.422,31.958-0.403c9.823,1.884,19.285,5.606,28.063,10.369c14.836,8.048,28.628,19.44,37.928,33.721
		c0.655,1.139,1.361,2.253,2.052,3.359c0.021,0.036,0.048,0.064,0.074,0.096c0.572,0.988,1.131,1.986,1.66,2.999
		c0.108,0.209,0.317,0.205,0.464,0.1c0.035,0.118,0.078,0.232,0.113,0.351c0.332,1.098,2.04,0.635,1.722-0.475
		c-4.454-15.443-14.85-29.138-27.175-39.238c-10.509-8.61-23.063-15.524-36.661-17.118c13.011-4.663,26.241-7.748,40.272-6.775
		c11.276,0.781,25.313,3.086,32.477,12.863c0.146,0.2,0.346,0.274,0.539,0.272c0.343,0.211,0.831,0.207,1.021-0.222
		c2.163-4.91-9.792-9.414-12.623-10.701c-7.321-3.332-14.878-6.258-22.537-8.719c-13.407-4.311-28.695-4.199-42.5-2.313
		c-15.909,2.177-31.302,6.854-46.473,11.988c-20.533,6.947-40.839,14.25-62.178,18.396c-22.402,4.354-46.324,7.532-68.976,3.29
		c-20.642-3.866-41.778-11.121-59.985-21.664c-1.055-0.61-2.097-1.237-3.131-1.873c-2.482-1.819-5.021-3.555-7.688-5.083
		c-4.896-3.443-9.604-7.142-14.222-11.019c-7.23-6.073-15.269-12.687-18.516-21.867c-0.063-0.179-0.16-0.312-0.275-0.422
		c-0.057-0.39-0.129-0.777-0.215-1.162c-0.007-0.073-0.017-0.147-0.021-0.224c0.001-0.067,0.002-0.137,0.002-0.207
		c0.003-0.25-0.088-0.437-0.217-0.575c-0.068-0.267-0.135-0.532-0.205-0.804c-0.197-0.772-1.131-0.795-1.545-0.266
		c-0.325-0.061-0.662,0.046-0.834,0.432c-0.032,0.071-0.049,0.146-0.077,0.218l-0.013-0.005c-0.014,0.052-0.028,0.104-0.041,0.156
		c-0.106,0.299-0.188,0.599-0.238,0.9c-0.123,0.464-0.243,0.941-0.33,1.422c-0.012,0.043-0.035,0.072-0.044,0.121
		C18.355,184.275,26.239,193.24,32.149,199.457 M361.011,259.193c0.223,0.201,0.442,0.404,0.669,0.604
		c0.715,0.824,1.396,1.678,2.038,2.557c0.049,0.226,0.103,0.447,0.162,0.668C362.96,261.718,362.003,260.439,361.011,259.193
		 M350.505,243.887c1.121,1.113,2.227,2.245,3.3,3.413c-0.123-0.077-0.248-0.125-0.372-0.146c-0.979-1.045-1.942-2.104-2.905-3.162
		C350.525,243.957,350.514,243.922,350.505,243.887 M347.723,245.785c0.049-0.037,0.097-0.078,0.141-0.123
		c0.77,0.666,1.504,1.375,2.218,2.107C349.312,247.093,348.515,246.441,347.723,245.785 M336.329,232.166
		c0.574,0.385,1.146,0.771,1.707,1.171c-0.05,0.046-0.093,0.099-0.135,0.153c-0.183-0.129-0.366-0.258-0.546-0.389
		c-0.084-0.117-0.199-0.225-0.351-0.313c-0.026-0.017-0.054-0.032-0.078-0.05C336.729,232.55,336.531,232.357,336.329,232.166
		 M223.306,230.471c0.682-0.257,1.363-0.514,2.047-0.77c0.273-0.057,0.549-0.112,0.824-0.168c-0.008,0.021-0.018,0.045-0.023,0.066
		c-0.896,0.32-1.792,0.639-2.689,0.949C223.412,230.52,223.361,230.492,223.306,230.471 M119.849,237.602
		c0.569,0.131,1.14,0.258,1.712,0.383c-0.084-0.008-0.169-0.016-0.253-0.022c-0.211-0.021-0.386,0.015-0.535,0.08
		C120.467,237.887,120.157,237.744,119.849,237.602 M100.641,243.742c0.035-0.033,0.063-0.071,0.091-0.108
		c0.896,0.33,1.796,0.647,2.704,0.942c0.011,0.025,0.021,0.054,0.036,0.08C102.524,244.365,101.582,244.059,100.641,243.742
		 M88.996,238.158c1.642,0.73,3.252,1.527,4.834,2.379C92.166,239.91,90.551,239.087,88.996,238.158 M34.52,193.552
		c-0.063,0.005-0.125,0.017-0.188,0.03c-0.107-0.094-0.22-0.186-0.328-0.277c-0.178-0.26-0.354-0.521-0.545-0.77
		C33.809,192.877,34.162,193.216,34.52,193.552"/>
</g>
</svg>
