<?xml version="1.0" encoding="utf-8"?>
<!-- Generator: Adobe Illustrator 16.0.0, SVG Export Plug-In . SVG Version: 6.00 Build 0)  -->
<!DOCTYPE svg PUBLIC "-//W3C//DTD SVG 1.1//EN" "http://www.w3.org/Graphics/SVG/1.1/DTD/svg11.dtd">
<svg version="1.1" id="Layer_1" xmlns="http://www.w3.org/2000/svg" xmlns:xlink="http://www.w3.org/1999/xlink" x="0px" y="0px"
	 width="540px" height="540px" viewBox="0 0 540 540" enable-background="new 0 0 540 540" xml:space="preserve">
<g>
	<path fill="#A1C666" d="M159.824,413.463c0,0-9.188,0.691-22.055-3.401c-6.397-2.047-13.584-5.324-21.068-10.564
		c-3.719-2.593-7.534-5.705-11.342-9.438c-3.776-3.705-7.574-8.031-11.327-13.048c-3.742-5.046-7.428-10.824-11.021-17.079
		c-3.56-6.274-7.016-13.055-10.239-20.115c-3.231-7.031-6.229-14.385-8.937-21.708c-2.712-7.349-5.139-14.676-7.222-21.729
		c-2.071-7.036-3.856-13.771-5.351-19.892c-1.475-6.146-2.674-11.65-3.575-16.289c-1.819-9.264-2.688-14.98-2.688-14.98
		s3.167,1.512,8.587,4.152c5.41,2.662,13.325,6.513,22.657,11.224c4.696,2.341,9.902,4.968,15.425,7.761
		c5.52,2.771,11.33,5.735,17.252,8.787c5.925,3.066,11.904,6.199,17.719,9.34c5.754,3.162,11.322,6.274,16.35,9.301
		c5.039,3.04,9.776,6.228,14.194,9.601c4.424,3.354,8.501,6.874,12.226,10.512c3.711,3.644,7.063,7.376,10.014,11.181
		c2.925,3.812,5.458,7.679,7.575,11.6c4.247,7.847,6.742,15.792,7.601,23.592c0.831,7.802,0.026,15.481-2.358,22.901
		c0,0,1.431-8.25-11.965-21.685c-3.36-3.38-7.609-7.158-12.933-11.25c-5.339-4.089-11.712-8.484-19.296-13.171
		c-3.792-2.324-7.836-4.705-12.104-7.134c-4.294-2.452-8.833-4.925-13.592-7.438c-4.802-2.521-9.783-5.044-14.965-7.583
		c-5.201-2.523-10.556-5.085-16.212-7.637c0,0,1.286,6.066,3.925,15.244c1.322,4.563,3.008,9.896,5.104,15.604
		c2.057,5.677,4.527,11.749,7.406,17.809c2.833,6.063,6.088,12.13,9.727,17.858c3.604,5.762,7.584,11.224,11.938,16.146
		c4.357,4.924,9.063,9.326,14.147,12.979C148.492,408.563,153.981,411.484,159.824,413.463z"/>
	<path fill="#BADA85" d="M343.532,378.508c0,0-2.725-9.994,0.79-24.924c0.874-3.729,2.135-7.825,3.962-12.175
		c1.805-4.377,4.144-8.97,7.188-13.727c3.021-4.701,6.698-9.579,11.139-14.431c4.451-4.847,9.634-9.676,15.678-14.34
		c6.031-4.661,12.613-9.205,19.467-13.529c6.802-4.305,13.836-8.449,20.761-12.265c6.895-3.842,13.632-7.402,19.962-10.598
		c6.333-3.211,12.278-6.092,17.592-8.606c5.329-2.523,10.193-4.724,14.461-6.596c4.27-1.884,7.98-3.472,10.981-4.711
		c5.979-2.484,9.487-3.762,9.487-3.762s-0.927,5.189-2.652,13.601c-0.872,4.191-1.972,9.221-3.3,14.793
		c-1.357,5.598-2.918,11.728-4.714,18.168c-1.778,6.439-3.826,13.149-6.06,19.852c-2.264,6.73-4.688,13.435-7.228,19.903
		c-2.533,6.467-5.199,12.646-7.813,18.357c-2.657,5.711-5.277,10.941-7.802,15.461c-2.521,4.464-5.151,8.651-7.856,12.457
		c-2.714,3.829-5.522,7.3-8.396,10.466c-5.754,6.303-11.832,11.347-18.16,15.142c-6.311,3.859-12.936,6.519-19.771,7.972
		c-6.824,1.457-13.956,1.709-21.226,0.763c0,0,8.188,0.241,21.45-10.896c3.303-2.776,6.907-6.369,10.773-10.961
		c3.852-4.618,7.963-10.271,12.281-17.219c2.136-3.476,4.322-7.325,6.549-11.527c2.213-4.236,4.453-8.851,6.723-13.915
		c2.255-5.046,4.487-10.561,6.706-16.525c2.209-6.025,4.383-12.515,6.538-19.495c0,0-4.808,1.323-12.566,4.181
		c-3.877,1.449-8.598,3.275-13.866,5.486c-5.29,2.265-11.18,4.897-17.375,7.975c-6.181,3.07-12.73,6.563-19.237,10.481
		c-6.501,3.898-12.951,8.203-18.9,12.937c-5.934,4.683-11.348,9.727-15.752,15.096C348.933,366.781,345.537,372.488,343.532,378.508
		z"/>
	<path fill="#8CBB3F" d="M232.175,370.683c0,0-3.071-1.45-7.504-4.489c-4.459-3.02-10.296-7.652-15.974-14.008
		c-2.83-3.185-5.58-6.841-8.106-11.028c-2.535-4.16-4.772-8.844-6.563-14.03c-1.812-5.186-3.134-10.962-3.748-17.326
		c-0.603-6.376-0.5-13.346,0.561-20.976c1.034-7.657,2.948-15.982,5.55-24.804c1.306-4.4,2.798-8.922,4.412-13.525
		c1.64-4.575,3.426-9.25,5.329-13.961c1.897-4.702,3.925-9.415,6.04-14.125c2.126-4.709,4.324-9.386,6.611-14.026
		c2.274-4.63,4.59-9.179,6.923-13.599c2.354-4.445,4.682-8.737,7.037-12.91c4.656-8.295,9.212-15.948,13.426-22.727
		c4.174-6.777,8.018-12.686,11.217-17.468c6.417-9.586,10.496-15.187,10.496-15.187s3.399,5.257,8.864,14.144
		c2.752,4.429,6.043,9.865,9.693,16.052c3.633,6.169,7.669,13.123,11.825,20.601c4.161,7.479,8.505,15.473,12.75,23.696
		c2.126,4.104,4.245,8.252,6.267,12.409c2.069,4.145,4.063,8.297,5.993,12.416c3.857,8.214,7.392,16.249,10.46,23.757
		c3.06,7.508,5.646,14.515,7.581,20.705c1.94,6.203,3.342,12.143,4.221,17.813c0.891,5.655,1.261,11.056,1.125,16.186
		c-0.097,5.133-0.669,10.016-1.697,14.625c-1.023,4.595-2.48,8.944-4.377,13.061c-1.877,4.088-4.145,7.942-6.867,11.576
		c-2.681,3.613-5.755,6.973-9.217,10.058c-3.462,3.109-7.309,5.99-11.496,8.585c-4.209,2.62-8.803,4.977-13.724,7.063
		c0,0,2.501-1.313,5.263-4.873c2.775-3.546,5.794-9.275,6.886-18.174c0.558-4.423,0.569-9.869-0.228-16.38
		c-0.781-6.534-2.451-14.216-5.313-23.255c-1.433-4.521-3.19-9.418-5.293-14.725c-2.124-5.308-4.603-11.011-7.535-17.138
		c-2.889-6.139-6.22-12.701-9.998-19.706c-3.809-7.015-8.074-14.42-12.794-22.266c0,0-4.994,6.143-11.852,16.174
		c-3.433,5.007-7.317,10.937-11.236,17.507c-3.897,6.533-7.825,13.691-11.388,21.104c-3.557,7.419-6.706,15.029-9.125,22.592
		c-2.44,7.566-4.126,15.024-4.781,22.213c-0.666,7.185-0.333,14.055,1.31,20.49C224.805,359.246,227.706,365.237,232.175,370.683z"
		/>
</g>
</svg>
