<?xml version="1.0" encoding="utf-8"?>
<!-- Generator: Adobe Illustrator 16.0.0, SVG Export Plug-In . SVG Version: 6.00 Build 0)  -->
<!DOCTYPE svg PUBLIC "-//W3C//DTD SVG 1.1//EN" "http://www.w3.org/Graphics/SVG/1.1/DTD/svg11.dtd">
<svg version="1.1" id="Layer_1" xmlns="http://www.w3.org/2000/svg" xmlns:xlink="http://www.w3.org/1999/xlink" x="0px" y="0px"
	 width="540px" height="540px" viewBox="0 0 540 540" enable-background="new 0 0 540 540" xml:space="preserve">
<g>
	<path fill="#D28C2E" d="M196.819,363.765c-3.685,0.538-7.405,0.808-11.128,0.979c-1.862,0.081-3.727,0.139-5.59,0.149
		c-1.865,0.016-3.731,0.019-5.597-0.029c-3.735-0.074-7.475-0.271-11.209-0.568c-3.736-0.282-7.461-0.728-11.193-1.219
		c-3.721-0.535-7.437-1.159-11.142-1.895c-3.699-0.764-7.391-1.619-11.058-2.6c-3.664-1.011-7.308-2.121-10.928-3.346
		c-3.608-1.25-7.179-2.667-10.715-4.179c-3.551-1.495-7.013-3.216-10.432-5.055c-3.417-1.837-6.795-3.795-10.029-6.002
		c-3.247-2.188-6.423-4.505-9.478-7.012c-3.021-2.548-5.929-5.251-8.697-8.104c-2.771-2.864-5.335-5.93-7.727-9.136
		c-2.4-3.199-4.566-6.582-6.549-10.065c-1.972-3.484-3.636-7.142-5.157-10.832c-1.521-3.697-2.666-7.525-3.707-11.354l-1.486-5.46
		l4.514-2.909c0.644-0.41,1.084-0.659,1.596-0.963c0.507-0.306,0.982-0.556,1.47-0.829c0.974-0.55,1.942-1.047,2.912-1.538
		c0.968-0.507,1.948-0.966,2.93-1.41c0.981-0.439,1.95-0.914,2.938-1.326c1.979-0.814,3.938-1.689,5.942-2.408
		c1.985-0.77,3.99-1.478,6.014-2.106l3.027-0.972c1.006-0.332,2.036-0.581,3.054-0.878c1.019-0.283,2.037-0.562,3.057-0.828
		c1.019-0.285,2.047-0.518,3.081-0.737c2.063-0.444,4.111-0.93,6.173-1.335l6.222-1.019c1.032-0.187,2.076-0.308,3.119-0.421
		c1.042-0.121,2.08-0.233,3.123-0.336l3.122-0.319c1.036-0.117,2.087-0.128,3.13-0.197c2.083-0.118,4.169-0.183,6.247-0.275
		c2.085-0.028,4.168,0.028,6.244,0.071c2.078,0.052,4.145,0.042,6.215,0.278c2.066,0.185,4.127,0.343,6.181,0.555
		c2.053,0.143,4.099,0.57,6.128,0.886c2.034,0.336,4.058,0.698,6.072,1.088c-2.051,0.264-4.088,0.505-6.116,0.712l-3.036,0.319
		c-0.506,0.051-1.01,0.088-1.513,0.149l-1.508,0.232c-2.011,0.316-4.012,0.582-6.01,0.873l-1.495,0.213
		c-0.498,0.058-0.995,0.141-1.489,0.24l-2.965,0.561c-1.973,0.393-3.944,0.704-5.901,1.098c-1.953,0.449-3.893,0.924-5.836,1.342
		c-0.966,0.23-1.942,0.398-2.901,0.676l-2.873,0.789c-0.957,0.27-1.911,0.524-2.87,0.771c-0.956,0.244-1.911,0.498-2.851,0.813
		l-5.644,1.775c-1.871,0.614-3.717,1.302-5.569,1.945c-1.865,0.604-3.651,1.432-5.482,2.11c-0.904,0.367-1.826,0.687-2.719,1.086
		l-2.679,1.172c-0.888,0.399-1.792,0.762-2.665,1.188c-0.873,0.425-1.75,0.843-2.625,1.257c-1.771,0.79-3.458,1.723-5.178,2.59
		c-0.859,0.438-1.677,0.93-2.518,1.39l-1.249,0.698l-1.22,0.726c-0.817,0.474-1.631,0.955-2.396,1.448
		c-0.389,0.246-0.8,0.488-1.148,0.734c-0.351,0.233-0.776,0.514-0.979,0.664l3.026-8.363c1.065,3.209,2.258,6.359,3.611,9.426
		c1.388,3.054,2.87,6.058,4.62,8.904c1.716,2.869,3.527,5.68,5.578,8.334c0.485,0.68,1.041,1.313,1.554,1.973l0.788,0.977
		l0.822,0.957c0.555,0.628,1.072,1.293,1.644,1.908l1.697,1.865c2.319,2.439,4.775,4.778,7.347,7
		c2.557,2.241,5.248,4.354,8.028,6.37c2.785,2.005,5.67,3.915,8.622,5.732c2.952,1.822,6.011,3.502,9.104,5.147
		c3.101,1.633,6.274,3.157,9.496,4.607c3.217,1.467,6.489,2.84,9.811,4.126c3.31,1.327,6.667,2.56,10.063,3.701
		c3.391,1.177,6.816,2.284,10.276,3.316c3.449,1.069,6.939,2.021,10.447,2.973c3.509,0.938,7.043,1.815,10.6,2.66l5.353,1.223
		l5.385,1.153C189.537,362.408,193.157,363.126,196.819,363.765z"/>
	<path fill="#D28C2E" d="M177.652,279.636c-2.381-2.102-4.562-4.418-6.667-6.795c-2.121-2.377-4.101-4.872-6.021-7.413
		c-1.903-2.559-3.749-5.175-5.46-7.88l-1.301-2.021l-1.226-2.069l-1.221-2.077l-1.168-2.107l-1.154-2.125l-1.08-2.16l-1.082-2.167
		c-0.354-0.727-0.682-1.464-1.023-2.195c-0.661-1.476-1.339-2.948-1.932-4.46c-0.595-1.505-1.253-2.994-1.798-4.529
		c-0.552-1.53-1.09-3.067-1.613-4.612l-1.441-4.688c-0.477-1.565-0.834-3.169-1.242-4.758c-0.426-1.588-0.729-3.206-1.058-4.821
		c-0.331-1.613-0.675-3.229-0.888-4.867c-0.226-1.635-0.509-3.269-0.678-4.916l-0.448-4.96c-0.139-1.656-0.146-3.325-0.207-4.987
		c-0.02-0.834-0.062-1.666-0.063-2.499l0.063-2.502l0.077-2.503c0.022-0.835,0.051-1.671,0.141-2.503l0.462-5.003
		c0.059-0.835,0.228-1.659,0.343-2.49l0.393-2.483l0.403-2.485l0.539-2.456c0.373-1.636,0.736-3.274,1.152-4.9
		c0.985-3.205,1.835-6.463,3.11-9.564c0.603-1.565,1.167-3.144,1.839-4.676l2.112-4.545c0.365-0.749,0.691-1.522,1.093-2.251
		l1.208-2.188l2.438-4.353l3.137-5.587l5.792,2.021l0.828,0.29l0.722,0.265c0.471,0.179,0.931,0.363,1.388,0.551
		c0.906,0.37,1.798,0.749,2.68,1.141c1.762,0.777,3.49,1.597,5.178,2.476c1.698,0.861,3.362,1.773,5.014,2.7l2.454,1.431
		l2.407,1.502l2.374,1.551l2.332,1.599l2.301,1.65c0.759,0.558,1.497,1.15,2.244,1.723c0.749,0.57,1.475,1.176,2.205,1.771
		c0.73,0.592,1.453,1.192,2.164,1.813c1.442,1.205,2.806,2.509,4.18,3.788c1.334,1.324,2.689,2.617,3.965,4
		c1.295,1.357,2.511,2.788,3.74,4.195c1.187,1.449,2.382,2.878,3.476,4.398c0.552,0.754,1.116,1.495,1.654,2.254
		c0.529,0.769,1.048,1.541,1.563,2.315c0.528,0.765,1.004,1.563,1.489,2.354c0.48,0.796,0.99,1.566,1.432,2.384
		c0.883,1.634,1.814,3.221,2.582,4.906c0.396,0.833,0.808,1.648,1.178,2.494l1.066,2.544c0.369,0.833,0.672,1.7,0.971,2.567
		c0.311,0.859,0.593,1.731,0.886,2.591c-1.183-1.404-2.262-2.848-3.444-4.213l-1.742-2.051c-0.58-0.685-1.2-1.335-1.791-1.997
		c-1.177-1.336-2.424-2.607-3.645-3.878c-1.264-1.242-2.485-2.503-3.783-3.692l-1.93-1.778c-0.649-0.589-1.315-1.151-1.971-1.729
		c-0.652-0.576-1.314-1.142-1.998-1.682l-2.012-1.658c-1.374-1.063-2.721-2.146-4.138-3.146c-1.371-1.045-2.8-2.019-4.21-3.005
		c-1.438-0.955-2.874-1.896-4.328-2.81c-0.717-0.469-1.45-0.917-2.189-1.354c-0.736-0.44-1.462-0.895-2.214-1.31
		c-1.485-0.854-2.986-1.677-4.482-2.5l-2.27-1.191l-2.292-1.142c-1.54-0.734-3.075-1.464-4.621-2.175
		c-1.554-0.691-3.11-1.365-4.68-1.989c-1.57-0.634-3.146-1.218-4.711-1.788c-0.782-0.282-1.567-0.55-2.342-0.803l-1.147-0.364
		l-0.552-0.168l-0.258-0.073l-0.193-0.054l8.924-3.563l-1.9,3.926l-0.962,1.946c-0.324,0.647-0.565,1.331-0.854,1.995l-1.682,3.996
		c-0.543,1.335-0.956,2.725-1.458,4.071l-0.727,2.034c-0.26,0.669-0.405,1.379-0.618,2.064l-1.206,4.142
		c-0.351,1.395-0.632,2.808-0.971,4.204l-0.485,2.1l-0.354,2.13c-0.215,1.42-0.53,2.827-0.706,4.257l-0.501,4.296
		c-0.104,0.713-0.152,1.436-0.19,2.156l-0.14,2.165l-0.151,2.165c-0.033,0.722-0.026,1.446-0.043,2.174l-0.032,2.175
		c-0.007,0.727-0.058,1.455-0.02,2.183l0.125,4.371c0.044,1.456,0.199,2.918,0.286,4.379c0.065,0.729,0.072,1.465,0.164,2.191
		l0.241,2.192c0.259,2.933,0.791,5.841,1.229,8.778l0.802,4.385l0.957,4.372c0.665,2.917,1.388,5.834,2.231,8.729
		c0.202,0.726,0.39,1.456,0.601,2.181l0.665,2.171l0.665,2.173l0.719,2.16l0.708,2.172l0.763,2.151
		c0.506,1.44,1.029,2.874,1.574,4.311c0.521,1.442,1.089,2.863,1.668,4.288c0.539,1.443,1.151,2.855,1.738,4.285l1.836,4.265
		l1.926,4.252C174.845,274.001,176.192,276.825,177.652,279.636z"/>
	<path fill="#D28C2E" d="M114.583,407.819c-1.775-0.035-3.528-0.246-5.255-0.526c-1.732-0.274-3.451-0.621-5.142-1.053
		c-1.708-0.398-3.372-0.907-5.043-1.432c-1.657-0.547-3.305-1.131-4.93-1.771c-1.61-0.668-3.241-1.326-4.817-2.085
		c-0.8-0.367-1.584-0.755-2.361-1.156c-0.787-0.399-1.57-0.795-2.331-1.229c-1.551-0.832-3.057-1.746-4.561-2.672
		c-1.485-0.953-2.962-1.925-4.398-2.967c-1.447-1.022-2.848-2.128-4.232-3.238c-1.373-1.138-2.727-2.301-4.033-3.528
		c-1.327-1.204-2.574-2.5-3.826-3.788c-1.223-1.327-2.433-2.661-3.571-4.065c-1.154-1.389-2.245-2.846-3.306-4.313
		c-0.531-0.738-1.03-1.506-1.53-2.262c-0.5-0.762-0.999-1.518-1.453-2.313l-1.378-2.365c-0.436-0.801-0.847-1.62-1.262-2.436
		l-0.615-1.22l-0.561-1.253l-1.096-2.516l-2.106-4.839l3.092-3.16c0.677-0.692,1.271-1.263,1.9-1.876
		c0.627-0.591,1.26-1.183,1.898-1.759c1.273-1.152,2.565-2.278,3.902-3.361c0.661-0.55,1.326-1.083,2.017-1.609
		c0.678-0.528,1.354-1.059,2.054-1.563c1.381-1.023,2.822-1.989,4.258-2.949c0.704-0.489,1.471-0.921,2.206-1.376
		c0.747-0.445,1.467-0.911,2.248-1.322l2.301-1.237c0.779-0.397,1.587-0.753,2.375-1.129c0.773-0.382,1.612-0.701,2.428-1.021
		l1.222-0.476c0.406-0.154,0.844-0.273,1.264-0.406c0.844-0.262,1.667-0.532,2.536-0.717c0.865-0.187,1.729-0.343,2.588-0.477
		c-0.585,0.675-1.16,1.313-1.732,1.937c-0.292,0.294-0.562,0.631-0.833,0.959l-0.818,0.952c-0.546,0.625-1.073,1.271-1.592,1.914
		c-0.513,0.654-1.048,1.258-1.551,1.917c-0.511,0.646-1,1.305-1.519,1.92l-1.487,1.944c-0.999,1.273-1.973,2.576-2.942,3.868
		l-1.46,1.927c-0.477,0.654-0.953,1.312-1.44,1.943l-2.874,3.872l-2.854,3.855l-1.41,1.92c-0.459,0.624-0.953,1.292-1.34,1.862
		l0.983-7.999l1.2,1.928l0.59,0.963l0.631,0.943l1.244,1.891l1.311,1.846c0.414,0.632,0.875,1.232,1.33,1.836
		c0.464,0.599,0.88,1.228,1.353,1.82c0.957,1.183,1.849,2.406,2.848,3.559c0.931,1.202,1.976,2.321,2.95,3.501l1.54,1.711
		c0.499,0.586,1.028,1.146,1.558,1.706c0.537,0.557,1.034,1.145,1.582,1.696c0.542,0.549,1.079,1.11,1.61,1.677
		c1.104,1.097,2.174,2.238,3.313,3.316c1.099,1.116,2.254,2.184,3.389,3.294l3.487,3.25l3.566,3.239
		c1.203,1.077,2.4,2.185,3.638,3.243c1.226,1.077,2.457,2.165,3.711,3.238c1.24,1.096,2.51,2.169,3.772,3.273l3.85,3.312
		C111.956,405.512,113.254,406.651,114.583,407.819z"/>
	<path fill="#D28C2E" d="M104.39,262.939c-1.46-1.248-2.78-2.64-4.034-4.077c-0.637-0.715-1.246-1.45-1.832-2.199
		c-0.597-0.746-1.183-1.501-1.731-2.276c-0.564-0.771-1.113-1.552-1.648-2.344l-1.554-2.405c-1.012-1.626-1.94-3.294-2.861-4.977
		l-1.287-2.568c-0.407-0.866-0.834-1.73-1.227-2.606c-0.772-1.76-1.512-3.541-2.177-5.35c-0.664-1.813-1.284-3.643-1.832-5.499
		c-0.264-0.931-0.553-1.859-0.789-2.8l-0.698-2.827c-0.408-1.9-0.823-3.805-1.106-5.738c-0.34-1.922-0.54-3.868-0.758-5.816
		c-0.092-0.976-0.142-1.953-0.212-2.934c-0.075-0.978-0.125-1.959-0.129-2.939c-0.014-0.982-0.05-1.964-0.043-2.947l0.081-2.955
		c0.016-0.98,0.096-1.966,0.177-2.949c0.089-0.981,0.138-1.968,0.261-2.944c0.263-1.956,0.463-3.917,0.868-5.856
		c0.189-0.968,0.338-1.944,0.564-2.903l0.697-2.879c0.215-0.963,0.51-1.903,0.795-2.851c0.28-0.946,0.569-1.886,0.869-2.824
		l1.612-5.061l4.521-0.407c1.109-0.1,2.079-0.171,3.11-0.227c1.01-0.048,2.021-0.11,3.026-0.134
		c2.017-0.064,4.028-0.087,6.043-0.055c1.006,0.021,2.014,0.038,3.021,0.083c1.011,0.052,2.014,0.084,3.022,0.153l3.021,0.233
		l3.021,0.338c1.002,0.1,2.015,0.251,3.018,0.412c1.005,0.164,2.003,0.308,3.007,0.509c1.003,0.192,2,0.408,2.991,0.617
		c0.999,0.235,1.991,0.488,2.977,0.76c0.983,0.247,1.972,0.569,2.942,0.893c0.973,0.323,1.938,0.633,2.891,1.053
		c0.952,0.402,1.898,0.754,2.815,1.238c0.917,0.471,1.814,0.968,2.683,1.48c-1.028,0.104-2.035,0.189-3.019,0.253
		c-0.487,0.02-0.986,0.096-1.48,0.154l-1.466,0.157c-0.966,0.095-1.937,0.219-2.9,0.362c-0.964,0.153-1.912,0.223-2.87,0.397
		c-0.958,0.163-1.908,0.308-2.852,0.434l-2.841,0.486c-0.942,0.131-1.887,0.316-2.828,0.486l-2.817,0.499l-5.618,1.052
		c-0.934,0.159-1.867,0.357-2.803,0.532c-0.934,0.166-1.865,0.353-2.796,0.539c-0.931,0.17-1.861,0.353-2.791,0.545
		c-0.929,0.173-1.856,0.354-2.781,0.546l-2.769,0.553l-2.672,0.563l6.133-5.467c-0.265,1.671-0.659,3.303-0.889,4.968
		c-0.269,1.659-0.529,3.31-0.718,4.979c-0.232,1.657-0.373,3.33-0.54,4.994c-0.092,0.833-0.123,1.674-0.188,2.507
		c-0.05,0.837-0.137,1.675-0.154,2.511l-0.108,2.521c-0.035,0.838-0.032,1.681-0.051,2.521c-0.062,1.685,0.008,3.374,0,5.063
		c0.063,1.693,0.081,3.389,0.188,5.09c0.061,1.702,0.218,3.402,0.321,5.113c0.161,1.705,0.287,3.422,0.492,5.137
		c0.075,0.862,0.18,1.72,0.291,2.58c0.105,0.86,0.189,1.729,0.322,2.588c0.22,1.729,0.483,3.457,0.739,5.201
		c0.153,0.864,0.271,1.74,0.406,2.617l0.46,2.616l0.464,2.635c0.164,0.877,0.354,1.75,0.504,2.643l1.08,5.321l0.574,2.688
		l0.594,2.701L104.39,262.939z"/>
	<path fill="#D28C2E" d="M343.182,363.765c3.66-0.639,7.279-1.355,10.885-2.091l5.387-1.153l5.348-1.223
		c3.555-0.845,7.09-1.721,10.601-2.66c3.508-0.951,7-1.902,10.451-2.973c3.459-1.032,6.881-2.14,10.271-3.316
		c3.398-1.143,6.756-2.374,10.064-3.7c3.32-1.284,6.596-2.66,9.811-4.123c3.225-1.454,6.395-2.981,9.494-4.612
		c3.096-1.639,6.152-3.322,9.105-5.146c2.953-1.819,5.834-3.729,8.623-5.732c2.781-2.014,5.471-4.129,8.027-6.37
		c2.566-2.221,5.025-4.557,7.346-7l1.695-1.865c0.576-0.615,1.088-1.28,1.645-1.908l0.822-0.957l0.787-0.975
		c0.516-0.662,1.072-1.292,1.557-1.973c2.053-2.653,3.857-5.465,5.576-8.334c1.75-2.85,3.234-5.852,4.623-8.906
		c1.354-3.064,2.543-6.217,3.607-9.426l3.025,8.367c-0.201-0.154-0.627-0.432-0.977-0.668c-0.346-0.246-0.762-0.488-1.146-0.734
		c-0.771-0.494-1.58-0.975-2.398-1.448l-1.219-0.726l-1.252-0.697c-0.838-0.464-1.658-0.955-2.516-1.391
		c-1.721-0.866-3.408-1.797-5.178-2.59c-0.879-0.408-1.754-0.832-2.625-1.257c-0.869-0.428-1.777-0.784-2.668-1.188l-2.68-1.17
		c-0.889-0.401-1.813-0.721-2.719-1.086c-1.832-0.682-3.619-1.51-5.484-2.112c-1.852-0.646-3.695-1.331-5.563-1.945l-5.646-1.775
		c-0.939-0.313-1.891-0.567-2.852-0.813c-0.955-0.249-1.912-0.504-2.867-0.771l-2.877-0.789c-0.953-0.277-1.932-0.444-2.9-0.675
		c-1.943-0.419-3.883-0.895-5.834-1.343c-1.957-0.395-3.928-0.707-5.902-1.098l-2.965-0.561c-0.494-0.101-0.992-0.184-1.49-0.24
		l-1.498-0.212c-1.994-0.292-3.994-0.557-6.006-0.874l-1.512-0.231c-0.502-0.063-1.006-0.098-1.51-0.149l-3.039-0.319
		c-2.027-0.208-4.063-0.451-6.119-0.711c2.012-0.391,4.041-0.754,6.072-1.089c2.033-0.313,4.076-0.741,6.129-0.885
		c2.055-0.212,4.111-0.37,6.184-0.555c2.07-0.237,4.137-0.228,6.213-0.279c2.076-0.042,4.164-0.099,6.244-0.07
		c2.076,0.094,4.164,0.155,6.252,0.275c1.039,0.069,2.094,0.08,3.127,0.197l3.117,0.318c1.045,0.102,2.086,0.217,3.127,0.339
		c1.045,0.11,2.084,0.233,3.115,0.42l6.223,1.019c2.064,0.403,4.111,0.894,6.176,1.336c1.029,0.22,2.064,0.45,3.078,0.736
		c1.021,0.268,2.041,0.543,3.059,0.83c1.016,0.295,2.047,0.544,3.053,0.876l3.023,0.973c2.027,0.629,4.037,1.338,6.021,2.106
		c2.004,0.718,3.957,1.593,5.939,2.407c0.986,0.411,1.957,0.889,2.938,1.327c0.98,0.443,1.959,0.902,2.93,1.409
		c0.969,0.491,1.939,0.988,2.91,1.538c0.488,0.277,0.965,0.524,1.469,0.832c0.512,0.302,0.957,0.55,1.598,0.96l4.514,2.909
		l-1.486,5.46c-1.041,3.829-2.182,7.657-3.707,11.354c-1.521,3.692-3.186,7.349-5.154,10.834c-1.986,3.481-4.148,6.865-6.551,10.065
		c-2.387,3.207-4.957,6.271-7.727,9.134c-2.77,2.854-5.678,5.559-8.697,8.106c-3.055,2.506-6.232,4.826-9.479,7.011
		c-3.234,2.209-6.611,4.165-10.025,6.004c-3.422,1.837-6.881,3.559-10.432,5.055c-3.541,1.513-7.105,2.931-10.717,4.177
		c-3.623,1.226-7.266,2.336-10.924,3.346c-3.672,0.979-7.363,1.836-11.059,2.602c-3.711,0.733-7.428,1.358-11.145,1.893
		c-3.732,0.491-7.455,0.938-11.197,1.22c-3.731,0.297-7.472,0.495-11.202,0.567c-1.869,0.049-3.734,0.046-5.6,0.03
		c-1.865-0.013-3.73-0.069-5.592-0.15C350.584,364.571,346.865,364.303,343.182,363.765z"/>
	<path fill="#D28C2E" d="M362.35,279.636c1.455-2.811,2.807-5.635,4.125-8.46l1.928-4.252l1.834-4.265
		c0.586-1.43,1.197-2.842,1.742-4.285c0.574-1.428,1.143-2.85,1.666-4.288c0.543-1.438,1.065-2.869,1.571-4.311l0.771-2.152
		l0.705-2.171l0.721-2.16l0.662-2.173l0.664-2.168c0.213-0.726,0.402-1.456,0.598-2.185c0.85-2.893,1.568-5.811,2.232-8.729
		l0.961-4.371l0.803-4.387c0.436-2.934,0.969-5.843,1.229-8.776l0.24-2.192c0.092-0.728,0.094-1.463,0.16-2.191
		c0.094-1.463,0.24-2.924,0.285-4.38l0.125-4.37c0.041-0.726-0.01-1.455-0.016-2.183l-0.037-2.175
		c-0.016-0.728-0.008-1.451-0.041-2.175l-0.152-2.164l-0.135-2.165c-0.041-0.723-0.09-1.443-0.193-2.156l-0.504-4.296
		c-0.172-1.431-0.488-2.837-0.707-4.257l-0.354-2.131l-0.486-2.1c-0.338-1.396-0.619-2.807-0.967-4.204l-1.205-4.141
		c-0.209-0.687-0.359-1.395-0.619-2.064l-0.729-2.034c-0.504-1.35-0.914-2.736-1.455-4.071l-1.684-3.996
		c-0.283-0.662-0.525-1.348-0.852-1.995l-0.964-1.947l-1.9-3.926l8.927,3.563l-0.191,0.054l-0.258,0.073l-0.555,0.168l-1.148,0.363
		c-0.773,0.254-1.561,0.521-2.34,0.803c-1.566,0.572-3.146,1.155-4.712,1.788c-1.574,0.626-3.127,1.299-4.68,1.99
		c-1.543,0.709-3.082,1.439-4.623,2.175l-2.291,1.14l-2.27,1.191c-1.494,0.824-2.996,1.646-4.484,2.501
		c-0.748,0.414-1.477,0.867-2.213,1.309c-0.738,0.438-1.467,0.887-2.188,1.354c-1.453,0.915-2.893,1.855-4.328,2.81
		c-1.41,0.986-2.84,1.96-4.215,3.006c-1.412,1-2.762,2.081-4.139,3.146l-2.008,1.657c-0.682,0.54-1.348,1.104-2,1.683
		c-0.652,0.577-1.324,1.142-1.969,1.729l-1.93,1.78c-1.299,1.188-2.521,2.449-3.781,3.692c-1.225,1.27-2.473,2.541-3.646,3.876
		c-0.594,0.662-1.213,1.314-1.791,1.999l-1.74,2.05c-1.186,1.365-2.262,2.808-3.445,4.214c0.291-0.86,0.574-1.732,0.883-2.591
		c0.303-0.867,0.607-1.734,0.973-2.568l1.064-2.544c0.369-0.844,0.787-1.658,1.18-2.494c0.771-1.688,1.699-3.272,2.582-4.906
		c0.441-0.817,0.953-1.588,1.428-2.383c0.49-0.793,0.965-1.59,1.492-2.354c0.52-0.774,1.033-1.548,1.568-2.315
		c0.531-0.76,1.1-1.501,1.646-2.253c1.09-1.521,2.291-2.951,3.48-4.399c1.229-1.408,2.443-2.838,3.734-4.195
		c1.271-1.384,2.629-2.677,3.971-4c1.373-1.277,2.734-2.581,4.176-3.788c0.709-0.621,1.438-1.22,2.166-1.813
		c0.73-0.595,1.453-1.2,2.203-1.771c0.748-0.571,1.484-1.165,2.246-1.724l2.299-1.648l2.334-1.599l2.371-1.553l2.408-1.501
		l2.453-1.43c1.65-0.927,3.314-1.839,5.014-2.701c1.691-0.879,3.418-1.695,5.178-2.475c0.883-0.394,1.77-0.771,2.684-1.143
		c0.453-0.187,0.911-0.37,1.386-0.549l0.721-0.266l0.83-0.29l5.789-2.021l3.135,5.588l2.443,4.353l1.203,2.188
		c0.402,0.728,0.727,1.504,1.094,2.252l2.113,4.544c0.672,1.532,1.234,3.111,1.838,4.676c1.275,3.103,2.129,6.358,3.109,9.563
		c0.416,1.626,0.777,3.266,1.15,4.902l0.543,2.455l0.402,2.486l0.395,2.482c0.117,0.833,0.279,1.654,0.338,2.49l0.465,5.003
		c0.088,0.833,0.117,1.668,0.137,2.503l0.078,2.504l0.063,2.502c-0.002,0.833-0.037,1.667-0.061,2.498
		c-0.063,1.663-0.068,3.331-0.209,4.988l-0.443,4.959c-0.174,1.647-0.459,3.282-0.682,4.917c-0.215,1.64-0.557,3.253-0.891,4.867
		c-0.328,1.615-0.633,3.231-1.059,4.82c-0.402,1.59-0.762,3.191-1.24,4.759l-1.439,4.688c-0.525,1.544-1.068,3.082-1.619,4.611
		c-0.539,1.534-1.199,3.023-1.795,4.53c-0.59,1.512-1.268,2.983-1.932,4.459c-0.344,0.731-0.67,1.47-1.025,2.195l-1.078,2.168
		l-1.082,2.16l-1.15,2.124l-1.168,2.108l-1.225,2.076l-1.227,2.068l-1.301,2.021c-1.711,2.705-3.557,5.32-5.461,7.879
		c-1.927,2.543-3.903,5.036-6.021,7.414C366.91,275.218,364.73,277.534,362.35,279.636z"/>
	<path fill="#D28C2E" d="M425.415,407.819c1.33-1.168,2.627-2.309,3.926-3.418l3.846-3.313c1.266-1.104,2.533-2.177,3.773-3.271
		c1.26-1.076,2.488-2.163,3.711-3.241c1.238-1.063,2.438-2.169,3.641-3.242l3.564-3.238l3.486-3.248
		c1.133-1.109,2.289-2.179,3.391-3.295c1.139-1.08,2.203-2.221,3.309-3.315c0.531-0.566,1.07-1.128,1.609-1.678
		c0.549-0.553,1.047-1.143,1.582-1.696c0.533-0.56,1.059-1.126,1.559-1.706l1.537-1.709c0.975-1.182,2.021-2.307,2.949-3.503
		c1.004-1.153,1.895-2.376,2.85-3.56c0.473-0.593,0.895-1.221,1.354-1.818c0.461-0.604,0.918-1.205,1.33-1.837l1.313-1.848
		l1.242-1.891l0.631-0.942l0.592-0.963l1.201-1.929l0.982,8c-0.389-0.569-0.881-1.237-1.336-1.861l-1.41-1.92l-2.854-3.857
		l-2.877-3.872c-0.488-0.636-0.961-1.288-1.438-1.944l-1.463-1.926c-0.971-1.293-1.945-2.595-2.941-3.867l-1.486-1.944
		c-0.52-0.616-1.008-1.274-1.518-1.92c-0.508-0.659-1.035-1.261-1.555-1.917c-0.521-0.643-1.047-1.29-1.59-1.914l-0.818-0.952
		c-0.273-0.332-0.539-0.664-0.834-0.959c-0.576-0.622-1.148-1.261-1.732-1.935c0.857,0.133,1.723,0.292,2.588,0.477
		c0.867,0.187,1.688,0.457,2.537,0.715c0.412,0.137,0.852,0.251,1.26,0.404l1.221,0.479c0.814,0.316,1.652,0.636,2.43,1.018
		c0.785,0.379,1.592,0.731,2.375,1.131l2.303,1.237c0.779,0.407,1.504,0.879,2.25,1.324c0.734,0.453,1.502,0.885,2.205,1.376
		c1.438,0.96,2.875,1.923,4.256,2.948c0.705,0.507,1.379,1.032,2.059,1.563c0.688,0.526,1.354,1.062,2.014,1.61
		c1.336,1.084,2.629,2.209,3.906,3.362c0.635,0.575,1.268,1.165,1.893,1.758c0.635,0.612,1.227,1.184,1.902,1.873l3.092,3.162
		l-2.105,4.839l-1.096,2.517l-0.563,1.252l-0.615,1.22c-0.408,0.815-0.822,1.634-1.26,2.438l-1.377,2.361
		c-0.459,0.797-0.957,1.555-1.455,2.314c-0.5,0.758-1.002,1.521-1.527,2.26c-1.064,1.47-2.152,2.925-3.305,4.315
		c-1.143,1.404-2.352,2.74-3.572,4.064c-1.254,1.289-2.498,2.585-3.824,3.787c-1.309,1.229-2.66,2.392-4.037,3.528
		c-1.387,1.112-2.787,2.215-4.229,3.238c-1.441,1.044-2.914,2.015-4.402,2.968c-1.504,0.925-3.006,1.835-4.557,2.673
		c-0.77,0.434-1.547,0.834-2.332,1.229c-0.775,0.403-1.566,0.787-2.365,1.154c-1.572,0.763-3.205,1.417-4.818,2.088
		c-1.623,0.645-3.271,1.226-4.928,1.771c-1.674,0.521-3.336,1.031-5.039,1.431c-1.693,0.431-3.414,0.778-5.146,1.054
		C428.944,407.573,427.194,407.784,425.415,407.819z"/>
	<path fill="#D28C2E" d="M435.606,262.939l1.264-5.495l0.596-2.701l0.574-2.688l1.078-5.321c0.152-0.895,0.34-1.766,0.504-2.643
		l0.465-2.636l0.459-2.615c0.141-0.877,0.26-1.753,0.408-2.617c0.256-1.744,0.518-3.472,0.736-5.201
		c0.135-0.859,0.217-1.728,0.324-2.588c0.111-0.86,0.219-1.719,0.289-2.581c0.205-1.714,0.334-3.43,0.494-5.136
		c0.105-1.712,0.264-3.411,0.32-5.113c0.109-1.701,0.125-3.396,0.188-5.09c-0.006-1.688,0.064-3.378,0-5.063
		c-0.018-0.841-0.016-1.685-0.049-2.521l-0.104-2.52c-0.021-0.838-0.109-1.674-0.156-2.511c-0.066-0.833-0.094-1.675-0.189-2.507
		c-0.164-1.664-0.305-3.337-0.537-4.994c-0.189-1.67-0.453-3.319-0.715-4.979c-0.229-1.665-0.621-3.299-0.891-4.969l6.137,5.468
		l-2.676-0.563l-2.768-0.553c-0.926-0.192-1.854-0.373-2.785-0.546c-0.928-0.192-1.857-0.375-2.789-0.545
		c-0.932-0.188-1.863-0.373-2.797-0.539c-0.934-0.175-1.867-0.373-2.805-0.532l-5.619-1.052l-2.814-0.499
		c-0.945-0.17-1.887-0.355-2.828-0.487l-2.84-0.485c-0.947-0.126-1.896-0.271-2.855-0.434c-0.959-0.173-1.902-0.244-2.867-0.397
		c-0.969-0.145-1.939-0.269-2.904-0.362l-1.467-0.157c-0.49-0.06-0.988-0.138-1.48-0.154c-0.982-0.063-1.986-0.149-3.016-0.253
		c0.871-0.514,1.768-1.011,2.686-1.481c0.92-0.483,1.863-0.832,2.814-1.237c0.951-0.42,1.918-0.729,2.891-1.053
		c0.973-0.322,1.957-0.646,2.939-0.894c0.984-0.271,1.979-0.522,2.977-0.759c0.996-0.209,1.99-0.425,2.994-0.617
		c1.004-0.201,2.004-0.344,3.006-0.509c1.006-0.161,2.012-0.313,3.016-0.412l3.021-0.338l3.021-0.233
		c1.014-0.072,2.014-0.104,3.02-0.155c1.014-0.043,2.02-0.062,3.023-0.083c2.014-0.03,4.029-0.01,6.043,0.055
		c1.012,0.022,2.018,0.086,3.027,0.134c1.027,0.056,1.998,0.127,3.111,0.228l4.521,0.407l1.613,5.06
		c0.299,0.939,0.588,1.88,0.869,2.825c0.283,0.946,0.584,1.886,0.793,2.85l0.697,2.88c0.227,0.959,0.377,1.935,0.566,2.905
		c0.4,1.938,0.604,3.897,0.869,5.854c0.121,0.979,0.17,1.963,0.26,2.945c0.076,0.982,0.16,1.969,0.174,2.949l0.082,2.955
		c0.006,0.982-0.027,1.964-0.045,2.947c-0.006,0.98-0.053,1.963-0.131,2.938c-0.066,0.98-0.115,1.959-0.211,2.935
		c-0.219,1.946-0.418,3.895-0.756,5.815c-0.285,1.935-0.701,3.837-1.105,5.738l-0.701,2.828c-0.234,0.938-0.523,1.867-0.785,2.8
		c-0.545,1.855-1.168,3.687-1.836,5.499c-0.662,1.81-1.402,3.588-2.17,5.349c-0.4,0.877-0.824,1.741-1.229,2.607l-1.293,2.568
		c-0.92,1.684-1.848,3.352-2.859,4.976l-1.555,2.406c-0.533,0.791-1.078,1.571-1.648,2.343c-0.545,0.776-1.137,1.53-1.732,2.276
		c-0.586,0.75-1.193,1.484-1.828,2.199C438.386,260.301,437.069,261.69,435.606,262.939z"/>
	<path fill="#D28C2E" d="M271.293,420.194c1.387-1.399,2.842-2.728,4.33-4.014c1.486-1.293,3.002-2.56,4.533-3.8
		c3.094-2.458,6.281-4.803,9.561-7.026c3.27-2.242,6.652-4.324,10.09-6.335c3.445-1.994,6.979-3.854,10.572-5.608
		c3.611-1.737,7.295-3.336,11.037-4.813c3.752-1.463,7.578-2.758,11.463-3.92c3.883-1.169,7.848-2.104,11.855-2.902
		c4.006-0.789,8.063-1.424,12.164-1.787c4.102-0.373,8.232-0.55,12.381-0.521c4.145,0.047,8.304,0.385,12.44,0.899
		c2.07,0.243,4.133,0.604,6.193,0.951c2.047,0.425,4.105,0.836,6.125,1.379c2.039,0.482,4.041,1.109,6.051,1.696
		c1.988,0.671,3.99,1.303,5.941,2.067c1.979,0.709,3.887,1.573,5.813,2.4c0.953,0.434,1.895,0.894,2.84,1.348l1.416,0.674
		l1.393,0.731c3.732,1.891,7.301,4.078,10.809,6.338c1.697,1.202,3.457,2.339,5.092,3.613l2.494,1.873l2.418,1.958
		c3.229,2.607,6.289,5.388,9.256,8.256l6.725,6.493l-7.279,5.658l-0.732,0.569l-0.654,0.495c-0.424,0.31-0.854,0.636-1.275,0.928
		c-0.844,0.602-1.691,1.188-2.535,1.747c-1.697,1.142-3.396,2.22-5.119,3.255c-0.857,0.532-1.729,1.032-2.598,1.533
		c-0.869,0.5-1.736,1.009-2.623,1.478l-2.641,1.425l-2.686,1.34c-1.777,0.91-3.613,1.693-5.42,2.545
		c-1.832,0.789-3.67,1.574-5.52,2.323c-1.865,0.703-3.709,1.47-5.594,2.114l-2.834,0.96l-1.418,0.475l-1.434,0.425
		c-3.811,1.177-7.672,2.191-11.557,3.071c-1.951,0.4-3.896,0.853-5.861,1.177c-1.973,0.31-3.936,0.645-5.9,0.928l-5.939,0.683
		c-1.979,0.19-3.972,0.283-5.954,0.401l-1.486,0.09c-0.494,0.023-0.998,0.021-1.496,0.026l-2.98,0.03l-2.979,0.029l-2.977-0.118
		l-2.975-0.121l-1.484-0.072l-1.48-0.148l-5.908-0.598c-3.912-0.604-7.826-1.088-11.664-2.038l-2.881-0.638l-1.439-0.317
		l-1.424-0.396c-1.891-0.524-3.783-1.056-5.66-1.604c-0.947-0.251-1.871-0.588-2.795-0.911l-2.77-0.97
		c-1.838-0.662-3.703-1.237-5.48-2.055l-5.375-2.281c-0.902-0.359-1.771-0.793-2.645-1.229l-2.604-1.302l-2.596-1.305
		c-0.865-0.431-1.73-0.858-2.559-1.361l-5.01-2.913c-0.83-0.492-1.666-0.959-2.484-1.471l-2.4-1.602l-4.775-3.221
		c-0.799-0.526-1.553-1.125-2.313-1.71l-2.277-1.757C274.281,422.56,272.781,421.383,271.293,420.194
		c3.49,1.578,6.844,3.352,10.311,4.881l5.207,2.241l2.588,1.125c0.869,0.357,1.762,0.67,2.639,1.009l5.258,1.992
		c0.861,0.354,1.76,0.642,2.648,0.919l2.666,0.855l2.658,0.861c0.883,0.298,1.76,0.59,2.67,0.813l5.373,1.445
		c1.773,0.521,3.596,0.865,5.396,1.264l2.699,0.587c0.9,0.198,1.793,0.403,2.711,0.525c1.818,0.283,3.629,0.582,5.434,0.889
		l1.355,0.22l1.367,0.15l2.729,0.301l2.721,0.302c0.902,0.121,1.824,0.107,2.734,0.188c1.818,0.105,3.633,0.245,5.447,0.329
		l5.451,0.052l1.357,0.013l1.361-0.06l2.717-0.099l2.709-0.094l2.705-0.231l2.701-0.229c0.449-0.041,0.898-0.066,1.346-0.122
		l1.346-0.18c1.789-0.266,3.58-0.45,5.363-0.723l5.327-0.929l5.281-1.153c0.883-0.177,1.748-0.437,2.621-0.662l2.615-0.671
		c3.477-0.945,6.916-2.007,10.309-3.21c3.393-1.202,6.736-2.526,10.051-3.92c1.646-0.715,3.283-1.466,4.91-2.221
		c1.604-0.811,3.244-1.548,4.816-2.409c3.186-1.647,6.309-3.414,9.346-5.271c1.514-0.935,3.01-1.896,4.457-2.889
		c0.727-0.491,1.438-0.992,2.133-1.498c0.354-0.251,0.678-0.503,1.018-0.752l0.479-0.367l0.389-0.303l-0.555,12.152
		c-1.357-1.237-2.656-2.549-4.023-3.771c-1.377-1.209-2.719-2.461-4.148-3.6l-2.121-1.747l-2.172-1.656
		c-1.428-1.14-2.951-2.131-4.428-3.198c-3.012-2.022-6.051-4.019-9.24-5.728l-1.186-0.662l-1.203-0.616
		c-0.809-0.404-1.609-0.827-2.422-1.223c-1.641-0.749-3.271-1.538-4.941-2.225c-1.648-0.736-3.352-1.345-5.035-1.998
		c-1.713-0.571-3.414-1.193-5.154-1.677c-3.467-1.035-6.988-1.903-10.564-2.563c-3.574-0.659-7.194-1.168-10.847-1.426
		c-3.646-0.301-7.328-0.423-11.023-0.363c-3.689,0.075-7.396,0.306-11.105,0.685c-3.709,0.382-7.41,0.957-11.111,1.622
		c-3.699,0.68-7.383,1.53-11.051,2.487c-3.67,0.944-7.318,2.032-10.945,3.239c-7.262,2.379-14.41,5.244-21.451,8.451
		c-3.508,1.623-7.006,3.313-10.457,5.125C278.049,416.242,274.652,418.156,271.293,420.194z"/>
	<path fill="#723E00" d="M268.635,86.149c2.943,2.16,5.693,4.588,8.383,7.079c2.693,2.493,5.244,5.147,7.713,7.894
		c4.898,5.519,9.359,11.501,13.15,17.997c1.873,3.252,3.592,6.63,5.086,10.133c1.49,3.506,2.74,7.142,3.719,10.889
		c1.969,7.483,2.67,15.472,1.813,23.409c-0.895,7.928-3.357,15.727-7.072,22.768c-1.832,3.541-3.98,6.882-6.318,10.055
		c-1.143,1.609-2.396,3.112-3.639,4.635c-1.305,1.449-2.566,2.958-3.938,4.33c-2.672,2.845-5.545,5.429-8.447,7.971
		c-2.941,2.474-5.975,4.835-9.092,7.027l-4.438,3.153l-2.215,1.576c-0.723,0.526-1.522,1.06-2.16,1.577l-4.028,3.113
		c-1.344,1.028-2.661,2.188-3.99,3.274c-5.281,4.454-10.23,9.237-14.79,14.298c-4.523,5.089-8.599,10.514-12.073,16.23
		c-3.506,5.696-6.384,11.715-8.447,17.949c-2.075,6.227-3.39,12.661-3.717,19.155c-0.326,6.488,0.186,13.028,1.683,19.419
		c1.503,6.385,3.795,12.653,6.897,18.609c3.111,5.946,6.785,11.713,11.152,17.038c4.317,5.357,9.13,10.396,14.249,15.187
		l-7.588,0.523c0.155-0.146,0.448-0.477,0.688-0.736c0.251-0.268,0.506-0.59,0.762-0.885c0.521-0.588,1.016-1.225,1.515-1.866
		c0.507-0.621,0.986-1.283,1.467-1.945c0.474-0.662,0.98-1.308,1.427-2.004c0.918-1.374,1.851-2.735,2.707-4.161l1.315-2.119
		l1.225-2.18l1.226-2.189l1.127-2.251l1.132-2.251c0.386-0.75,0.701-1.525,1.052-2.294l1.04-2.309l0.522-1.152
		c0.163-0.388,0.312-0.785,0.462-1.177l1.852-4.73c0.581-1.592,1.093-3.213,1.646-4.822c0.269-0.808,0.555-1.613,0.806-2.423
		l0.681-2.468c0.464-1.642,0.95-3.286,1.389-4.944l1.128-5.021l0.58-2.518c0.161-0.84,0.293-1.692,0.441-2.543l0.898-5.107
		c0.174-0.854,0.277-1.712,0.373-2.569l0.307-2.582c0.196-1.726,0.431-3.451,0.653-5.189c0.12,1.734,0.255,3.479,0.345,5.221
		l0.155,2.623c0.058,0.876,0.104,1.755,0.088,2.625c-0.004,1.752,0.006,3.505-0.021,5.267c-0.012,0.882-0.007,1.761-0.035,2.64
		l-0.179,2.634l-0.389,5.289c-0.2,1.755-0.454,3.501-0.681,5.262l-0.366,2.638c-0.146,0.874-0.334,1.74-0.498,2.616
		c-0.349,1.737-0.664,3.493-1.044,5.236l-1.331,5.186c-0.114,0.431-0.219,0.866-0.344,1.295l-0.401,1.28l-0.803,2.564
		c-0.277,0.854-0.519,1.718-0.829,2.562l-0.943,2.521l-0.953,2.527l-1.065,2.491l-1.07,2.492l-1.187,2.449
		c-0.758,1.651-1.646,3.238-2.521,4.844c-0.422,0.811-0.918,1.584-1.386,2.373c-0.466,0.793-0.939,1.582-1.459,2.359
		c-0.506,0.778-1.006,1.563-1.563,2.341c-0.279,0.39-0.526,0.771-0.837,1.171c-0.313,0.404-0.561,0.758-0.98,1.261l-3.271,3.915
		l-4.317-3.392c-5.914-4.645-11.567-9.708-16.789-15.297l-3.796-4.313l-3.575-4.539c-2.289-3.107-4.52-6.292-6.446-9.687
		c-3.914-6.742-7.149-14.019-9.202-21.706c-2.063-7.677-3.106-15.712-2.844-23.722c0.244-8.01,1.638-15.967,4.063-23.535
		c2.438-7.565,5.83-14.742,9.877-21.433c4.081-6.68,8.833-12.849,13.989-18.573l3.971-4.185c1.347-1.369,2.767-2.651,4.149-3.979
		c1.366-1.348,2.837-2.562,4.271-3.817l2.163-1.876c0.727-0.617,1.483-1.191,2.222-1.79c1.503-1.175,2.942-2.382,4.503-3.525
		l4.697-3.402c0.8-0.591,1.531-1.035,2.296-1.55l2.271-1.504l4.551-2.991c2.897-1.868,5.64-3.918,8.376-5.957
		c2.665-2.112,5.31-4.259,7.728-6.594c1.26-1.135,2.385-2.362,3.572-3.548c1.104-1.248,2.273-2.445,3.309-3.738
		c2.137-2.543,4.105-5.208,5.789-8.017c1.697-2.807,3.186-5.72,4.406-8.745c1.211-3.022,2.145-6.163,2.768-9.379
		c0.639-3.215,0.984-6.505,1.02-9.834c0.033-3.328-0.227-6.688-0.725-10.048c-0.504-3.36-1.279-6.708-2.268-10.024
		c-0.979-3.318-2.178-6.603-3.563-9.834c-1.369-3.235-2.92-6.419-4.621-9.54c-1.699-3.124-3.52-6.205-5.49-9.2
		C277.818,97.402,273.49,91.582,268.635,86.149z"/>
	<path fill="#723E00" d="M167.629,376.531c-2.967,1.143-5.854,2.461-8.719,3.806c-2.862,1.361-5.671,2.815-8.438,4.334
		c-1.383,0.766-2.755,1.541-4.125,2.321c-1.366,0.787-2.719,1.594-4.063,2.415c-1.334,0.829-2.673,1.656-3.983,2.522
		c-1.325,0.852-2.616,1.741-3.913,2.623c-1.285,0.902-2.563,1.808-3.824,2.744c-1.269,0.913-2.497,1.882-3.737,2.833
		c-1.222,0.979-2.46,1.926-3.656,2.93c-1.208,0.982-2.385,2.007-3.561,3.029c-1.17,1.027-2.319,2.073-3.456,3.132
		c-1.127,1.075-2.256,2.138-3.345,3.238c-1.106,1.084-2.177,2.206-3.238,3.331c-1.072,1.11-2.077,2.29-3.118,3.427l-0.354-5.481
		c0.486,0.353,1.119,0.792,1.703,1.183c0.598,0.401,1.207,0.795,1.823,1.186c1.229,0.78,2.48,1.538,3.75,2.275
		c2.53,1.479,5.115,2.88,7.74,4.195c5.255,2.628,10.678,4.912,16.18,6.928c5.515,1.986,11.126,3.663,16.81,4.962
		c5.676,1.327,11.417,2.324,17.188,2.92c11.539,1.203,23.17,1.01,34.568-0.736c11.408-1.672,22.565-4.863,33.244-9.259
		c10.701-4.351,20.915-9.945,30.6-16.399l3.063-2.414l3.299-2.725c2.209-1.886,4.393-3.803,6.51-5.779
		c4.242-3.946,8.271-8.107,12.082-12.432c3.816-4.313,7.377-8.836,10.641-13.54c3.258-4.701,6.252-9.573,8.84-14.629
		c2.617-5.038,4.924-10.22,6.748-15.55l0.686-1.996l0.619-2.015c0.438-1.338,0.764-2.703,1.146-4.051
		c0.668-2.722,1.305-5.453,1.748-8.208c0.959-5.503,1.414-11.071,1.389-16.635c-0.063-5.557-0.609-11.104-1.709-16.563
		c-2.146-10.915-6.354-21.463-12.275-31.111c-2.934-4.837-6.256-9.48-9.904-13.894c-3.656-4.413-7.662-8.568-11.873-12.541
		c-4.223-3.97-8.689-7.708-13.354-11.237c-1.18-0.864-2.326-1.771-3.533-2.605l-3.688-2.616c-1.234-0.9-2.436-1.741-3.704-2.688
		c-1.274-0.987-2.577-1.959-3.823-2.958c-4.938-3.967-9.646-8.305-13.904-13.115c-2.151-2.379-4.12-4.948-6.021-7.558
		c-1.83-2.672-3.609-5.387-5.104-8.284l-0.579-1.072l-0.53-1.103c-0.346-0.737-0.716-1.462-1.045-2.209
		c-0.629-1.51-1.271-3.003-1.795-4.556c-1.087-3.073-1.975-6.229-2.553-9.439c-0.591-3.202-0.957-6.446-1.041-9.685
		c-0.063-3.239,0.119-6.466,0.521-9.645c0.784-6.37,2.546-12.517,4.902-18.328c2.339-5.82,5.335-11.304,8.727-16.46
		c3.399-5.152,7.146-10.036,11.249-14.575c2.057-2.263,4.167-4.468,6.364-6.576c2.188-2.121,4.457-4.158,6.835-6.044
		c-4.171,4.404-7.982,9.11-11.47,14.013c-3.49,4.898-6.702,9.97-9.445,15.259c-2.749,5.278-5.048,10.753-6.769,16.344
		c-1.7,5.594-2.813,11.32-3.073,17.026c-0.133,2.851-0.065,5.696,0.212,8.501c0.293,2.808,0.793,5.579,1.498,8.288
		c0.686,2.715,1.635,5.354,2.751,7.916c1.097,2.565,2.432,5.037,3.889,7.432c1.434,2.407,3.131,4.668,4.858,6.896
		c1.804,2.178,3.655,4.32,5.699,6.313c4.015,4.04,8.424,7.741,13.113,11.115c1.162,0.834,2.332,1.612,3.494,2.429
		c1.197,0.809,2.523,1.635,3.779,2.454l3.838,2.478c1.322,0.833,2.594,1.753,3.891,2.626c5.158,3.566,10.154,7.402,14.941,11.54
		c9.551,8.272,18.207,17.835,25.23,28.675c3.508,5.415,6.563,11.166,9.104,17.163c2.559,5.985,4.555,12.245,5.941,18.649
		c1.389,6.404,2.129,12.951,2.291,19.503c0.113,6.547-0.287,13.106-1.377,19.546c-0.508,3.225-1.223,6.401-1.994,9.564
		c-0.43,1.569-0.813,3.148-1.305,4.695l-0.707,2.331l-0.771,2.301c-2.074,6.146-4.676,12.072-7.619,17.797
		c-2.963,5.714-6.352,11.171-10.016,16.404c-3.664,5.229-7.635,10.218-11.869,14.957c-4.23,4.732-8.729,9.2-13.412,13.445
		c-2.338,2.122-4.736,4.169-7.166,6.179l-3.748,3.007l-1.803,1.383l-0.898,0.69l-0.453,0.345l-0.113,0.086
		c0.422-0.295-0.697,0.504-0.629,0.451l-0.25,0.153c-10.601,6.779-21.895,12.599-33.745,17.11
		c-11.866,4.441-24.283,7.59-36.918,8.961c-12.624,1.376-25.424,1.143-37.897-0.855c-3.117-0.482-6.223-1.078-9.297-1.768
		c-3.074-0.676-6.124-1.466-9.141-2.345c-6.034-1.764-11.936-3.921-17.684-6.39c-5.75-2.477-11.32-5.332-16.699-8.492
		c-2.69-1.585-5.331-3.256-7.918-5.021c-1.291-0.879-2.561-1.802-3.823-2.737c-0.629-0.476-1.257-0.954-1.878-1.445
		c-0.64-0.506-1.218-0.972-1.914-1.567l-3.247-2.765l2.892-2.715c1.191-1.122,2.343-2.275,3.563-3.359
		c1.208-1.096,2.419-2.187,3.665-3.228c1.225-1.072,2.507-2.072,3.774-3.091c1.275-1,2.563-1.983,3.867-2.949
		c1.314-0.951,2.621-1.902,3.957-2.812c1.325-0.931,2.686-1.804,4.034-2.688c1.374-0.852,2.729-1.721,4.125-2.53
		c1.379-0.833,2.782-1.625,4.185-2.411c1.409-0.771,2.815-1.556,4.248-2.28c1.419-0.756,2.863-1.458,4.299-2.17
		c2.889-1.391,5.799-2.731,8.767-3.93c2.962-1.208,5.953-2.342,8.976-3.371C161.485,378.214,164.535,377.274,167.629,376.531z"/>
</g>
</svg>
