<?xml version="1.0" encoding="utf-8"?>
<!-- Generator: Adobe Illustrator 16.0.0, SVG Export Plug-In . SVG Version: 6.00 Build 0)  -->
<!DOCTYPE svg PUBLIC "-//W3C//DTD SVG 1.1//EN" "http://www.w3.org/Graphics/SVG/1.1/DTD/svg11.dtd">
<svg version="1.1" id="Layer_1" xmlns="http://www.w3.org/2000/svg" xmlns:xlink="http://www.w3.org/1999/xlink" x="0px" y="0px"
	 width="540px" height="540px" viewBox="0 0 540 540" enable-background="new 0 0 540 540" xml:space="preserve">
<g>
	<polygon fill="#DE9009" points="479.75,225.67 317.028,103.637 145.843,229.91 132.278,229.91 132.278,219.749 314.49,80.751 
		488.221,210.422 	"/>
	<path fill="#F0DB00" d="M495,215.507v16.952c0,0-61.855,106.774-337.313,112.72l34.758-27.119
		C192.45,318.059,443.307,320.601,495,215.507z"/>
	<path fill="#F0DB00" d="M494.897,251.952v19.162c0,0-71.025,120.738-387.213,127.445l39.871-30.66
		C147.553,367.898,435.561,370.76,494.897,251.952z"/>
	<path fill="#F0DB00" d="M494.547,287.525v22.461c0,0-82.475,141.412-449.546,149.262l46.294-35.922
		C91.294,423.326,425.639,426.693,494.547,287.525z"/>
	<g>
		<rect x="297.951" y="146.709" fill="#D09A66" width="16.951" height="16.952"/>
		<rect x="321.547" y="146.709" fill="#D09A66" width="16.934" height="16.952"/>
		<rect x="297.951" y="168.492" fill="#D09A66" width="16.951" height="16.934"/>
		<rect x="321.547" y="168.492" fill="#D09A66" width="16.934" height="16.934"/>
	</g>
</g>
</svg>
