<?xml version="1.0" encoding="utf-8"?>
<!-- Generator: Adobe Illustrator 16.0.0, SVG Export Plug-In . SVG Version: 6.00 Build 0)  -->
<!DOCTYPE svg PUBLIC "-//W3C//DTD SVG 1.1//EN" "http://www.w3.org/Graphics/SVG/1.1/DTD/svg11.dtd">
<svg version="1.1" id="Layer_1" xmlns="http://www.w3.org/2000/svg" xmlns:xlink="http://www.w3.org/1999/xlink" x="0px" y="0px"
	 width="540px" height="540px" viewBox="0 0 540 540" enable-background="new 0 0 540 540" xml:space="preserve">
<g>
	<path fill="#B8D989" d="M311.604,387.435c8.129,27.124,31.344,41.521,42.641,51.803c12.625,10.126,18.855,15.946,17.703,18.334
		c-1.041,2.237-11.275-1.107-27.016-10.19c-14.553-9.564-39.629-23.666-49.139-56.249c-3.477-16.269-1.174-34.563,11.811-48.262
		c13.26-12.857,29.51-15.347,42.461-20.113c13.379-4.107,24.115-11.043,30.025-21.533c5.982-9.898,1.549-22.084-2.016-33.936
		c-3.822-11.8-5.014-24.982-0.043-35.053c4.18-10.558,15.238-15.277,22.793-13.6c15.521,3.113,19.543,12.984,19.936,12.088
		c-0.174,0.867-5.801-8.321-20.135-9.567c-16.211-2.266-25.926,22.429-14.881,43.558c3.93,10.398,11.746,25.593,4.301,41.375
		c-6.496,14.444-21.125,24.465-35.213,29.506c-13.793,5.531-28.242,9.396-36.078,18.103
		C311.033,361.585,309.014,376.136,311.604,387.435z"/>
	<path fill="#2C7D2E" d="M289.953,163.747c26.949,8.738,47.623,19.348,58.248,30.929c10.836,11.402,11.875,20.065,9.389,21.67
		c-2.939,2.014-9.1-4.25-20.992-11.15c-12.025-6.971-30.492-14.102-53.35-21.471c-48.202-13.117-95.829-46.308-124.866-76.806
		c-29.608-31.844-35.892-62.486-36.271-61.911c0.29-0.469,11.956,28.152,43.555,54.329
		C197.657,124.879,243.305,151.122,289.953,163.747z"/>
	<path fill="#2C7D2E" d="M276.264,194.061c24.068,12.77,40.709,28.248,46.422,42.351c5.766,14.102,2.506,22.011,0.453,22.044
		c-2.883,0.347-4.252-8.051-11.965-18.173c-7.879-10.121-22.924-21.471-42.687-31.938c-41.174-19.22-86.135-48.273-115.026-75.383
		c-14.663-13.654-25.287-27.614-30.111-38.817c-4.9-11.259-3.768-18.628-4.109-18.52c0.323-0.109,0.323,7.312,6.372,17.367
		c5.943,10.07,17.601,22.083,33.086,33.787C190.25,150.492,233.519,174.049,276.264,194.061z"/>
	<path fill="#71BF44" d="M199.495,222.474c4.13,3.279,8.938,6.398,8.091,12.534c-0.665,5.028-4.753,6.752-7.416,10.359
		c-2.143,2.881-2.811,5.132-2.326,8.16c1.085,6.398,7.696,14.121,14.106,20.374c3.551,3.55,13.117,8.919,14.019,14.181
		c0.79,4.676-4.343,8.461-5.643,12.533c-1.55,4.893,2.002,11.712,6.517,16.605c19.31,20.084,38.365,25.474,37.899,25.494
		c0.322-0.306-19.165-0.344-44.022-19.24c-8.965-6.799-16.88-20.896-9.547-31.58c-10.477-8.206-24.943-20.934-29.735-34.962
		c-4.739-13.885,1.904-20.912,5.493-22.372c-8.424-3.781-17.219-14.732-22.874-21.817c-3.568-4.483-7.023-8.97-9.569-15.055
		c-1.171-3.061-2.36-6.688-1.711-11.439c0.881-6.431,8.159-10.141,14.119-10.539c-7.403,0.507-14.795-12.932-18.048-17.974
		c-16.301-25.196-22.373-42.043-22.912-41.896c0.321-0.432,10.824,15.06,29.689,36.35c4.771,5.208,10.629,10.104,17.146,14.861
		c3.551,2.573,6.842,4.032,9.372,7.871c4.829,7.316,1.511,9.35-5.368,10.899c-11.025,2.501-6.705,9.35-0.039,15.979
		C183.247,208.888,191.174,215.878,199.495,222.474z"/>
	<path fill="#2C7D2E" d="M307.928,137.665c15.996,15.097,30.945,30.801,38.439,44.653c7.801,13.742,11.418,29.252,11.596,29.091
		c0,0-8.066-13.851-18.553-23.779c-10.264-10.231-26.676-21.381-43.646-37.393c-17.076-15.6-29.057-37.232-28.636-53.836
		c-0.126-16.339,5.673-24.551,5.253-24.585c0.316-0.109-0.883,9.852,3.367,23.163C279.703,108.502,291.824,122.586,307.928,137.665z
		"/>
	<path fill="#E5F0CB" d="M379.869,192.999c-5.096,0.829-15.055,10.661-19.742,5.079c-6.559-7.818,14.373-15.524,18.699-16.391
		c9.678-1.512,18.049,6.051,21.734,11.723c4.203,6.019,6.885,11.871,9.574,16.789c5.008,10.032,10.387,16.05,10.387,16.05
		c0.094,0.071-7.469-3.748-15.309-12.482c-6.322-7.042-14.244-21.035-24.779-20.822
		C380.248,192.946,380.069,192.965,379.869,192.999z"/>
	<path fill="#E5F0CB" d="M256.836,449.321c-3.336,15.479-2.327,23.35-6.449,24.539c-3.421,1.387-9.353-11.047-5.46-27.219
		c8.178-32.621,37.97-56.672,37.033-57.027C282.744,389.751,263.004,422.178,256.836,449.321z"/>
	<path fill="#E5F0CB" d="M286.639,467.371c1.174,17.453,2.199,26.172-1.799,27.528c-3.395,1.309-9.459-10.229-10.373-26.836
		c-3.137-34.632,18.855-69.717,18.984-68.883"/>
	<path fill="#E5F0CB" d="M325.905,466.547c6.02,12.029,9.621,17.472,6.797,20.713c-2.219,2.881-11.869-3.05-17.746-15.386
		c-10.693-25.02-11.576-55.456-12.881-55.456C303.051,415.602,316.504,444.857,325.905,466.547z"/>
	<path fill="#E5F0CB" d="M330.412,409.444c-10.213-10.472-12.945-17.361-11.117-18.875c2.057-1.695,8.582,4.739,16.879,13.143
		c15.975,17.961,42.223,32.08,42.475,31.851C379.004,436.024,348.174,428.927,330.412,409.444z"/>
</g>
</svg>
