<?xml version="1.0" encoding="utf-8"?>
<!-- Generator: Adobe Illustrator 16.0.0, SVG Export Plug-In . SVG Version: 6.00 Build 0)  -->
<!DOCTYPE svg PUBLIC "-//W3C//DTD SVG 1.1//EN" "http://www.w3.org/Graphics/SVG/1.1/DTD/svg11.dtd">
<svg version="1.1" id="Layer_1" xmlns="http://www.w3.org/2000/svg" xmlns:xlink="http://www.w3.org/1999/xlink" x="0px" y="0px"
	 width="540px" height="540px" viewBox="0 0 540 540" enable-background="new 0 0 540 540" xml:space="preserve">
<g>
	<path fill="#A34198" d="M224.473,429.751c0.328-0.922,0.714-1.793,1.188-2.63c0.197-0.43,0.46-0.88,0.724-1.262l0.714-1.123
		c0.925-1.464,1.793-2.936,2.62-4.438c1.583-2.947,3.006-6.083,3.378-9.09c0.196-1.503,0.073-2.931-0.371-4.198
		c-0.489-1.261-1.348-2.462-2.406-3.585c-0.301-0.296-0.574-0.56-0.864-0.854l-0.938-0.866c-0.706-0.631-1.385-1.324-2.029-2.084
		c-1.273-1.464-2.417-3.156-3.179-5.072c-0.789-1.9-1.214-4.002-1.133-6.074c0.025-2.061,0.494-4.107,1.196-5.948
		c0.724-1.836,1.724-3.57,2.82-5.132c0.531-0.763,1.115-1.499,1.727-2.192c-0.654-0.502-1.276-1.082-1.881-1.662
		c-1.296-1.305-2.485-2.737-3.426-4.398c-0.93-1.669-1.649-3.59-1.907-5.561c-0.264-2.029-0.026-4.058,0.531-5.938
		c0.564-1.875,1.477-3.592,2.502-5.089c1.169-1.698,2.126-2.718,3.059-4.006c1.831-2.475,3.451-5.181,3.598-7.461
		c0.068-1.123-0.22-2.252-0.811-3.496c-0.564-1.214-1.401-2.533-2.318-3.833c-1.832-2.63-3.812-5.369-5.609-8.208
		c-1.73-2.839-3.556-5.339-5.364-8.473c-0.848-1.578-1.719-3.372-2.003-5.621c-0.081-1.103-0.023-2.267,0.236-3.328
		c0.264-1.085,0.689-2.072,1.171-2.967c0.957-1.724,2.147-3.135,3.34-4.439c1.212-1.299,2.463-2.443,3.752-3.61
		c1.574-1.374,3.195-2.682,4.825-3.962c-51.949-75.409-186.387-79.843-186.387-79.843c46.232,34.522,25.712,103.294,44.464,154.014
		c38.91,115.378,136.661,74.632,136.661,74.632c0.21-0.176,0.371-0.391,0.558-0.605
		C222.584,437.444,223.045,433.461,224.473,429.751z"/>
	<path fill="#B070AD" d="M224.473,429.751c0.328-0.922,0.714-1.793,1.188-2.63c0.197-0.43,0.46-0.88,0.724-1.262l0.714-1.123
		c0.925-1.464,1.793-2.936,2.62-4.438c1.583-2.947,3.006-6.083,3.378-9.09c0.196-1.503,0.073-2.931-0.371-4.198
		c-0.489-1.261-1.348-2.462-2.406-3.585c-0.301-0.296-0.574-0.56-0.864-0.854l-0.938-0.866c-0.706-0.631-1.385-1.324-2.029-2.084
		c-1.273-1.464-2.417-3.156-3.179-5.072c-0.789-1.9-1.214-4.002-1.133-6.074c0.025-2.061,0.494-4.107,1.196-5.948
		c0.724-1.836,1.724-3.57,2.82-5.132c0.531-0.763,1.115-1.499,1.727-2.192c-0.654-0.502-1.276-1.082-1.881-1.662
		c-1.296-1.305-2.485-2.737-3.426-4.398c-0.93-1.669-1.649-3.59-1.907-5.561c-0.264-2.029-0.026-4.058,0.531-5.938
		c0.564-1.875,1.477-3.592,2.502-5.089c1.169-1.698,2.126-2.718,3.059-4.006c1.831-2.475,3.451-5.181,3.598-7.461
		c0.068-1.123-0.22-2.252-0.811-3.496c-0.564-1.214-1.401-2.533-2.318-3.833c-1.832-2.63-3.812-5.369-5.609-8.208
		c-1.73-2.839-3.556-5.339-5.364-8.473c-0.848-1.578-1.719-3.372-2.003-5.621c-0.081-1.103-0.023-2.267,0.236-3.328
		c0.264-1.085,0.689-2.072,1.171-2.967c0.957-1.724,2.147-3.135,3.34-4.439c1.212-1.299,2.463-2.443,3.752-3.61
		c2.556-2.207,5.181-4.291,7.833-6.302c2.644-1.971,5.342-3.925,8.007-5.812c2.624-1.924,5.209-3.906,7.698-5.927
		c5.036-4.092,9.777-8.434,14.125-13.187c4.365-4.724,8.28-9.814,11.63-15.302c6.7-10.958,10.921-23.295,13.963-35.956
		c1.489-6.355,2.739-12.733,3.881-19.199c1.177-6.469,2.269-12.917,3.368-19.419c1.146-6.571,2.804-13.058,5.218-19.269
		c2.442-6.234,5.542-12.178,9.362-17.605c1.161-1.648,2.429-3.226,3.71-4.784c-5.305-21.031-5.792-42.366,3.045-64.352
		c0,0-160.902,105.483-160.363,234.216c0.171,42.603,11.236,104.907,69.307,141.127C222.349,440.214,222.564,434.75,224.473,429.751
		z"/>
	<g>
		<g>
			<g>
				<path fill="#8A288D" d="M329.548,118.955c-2.846,1.627-5.599,3.532-8.171,5.638c-5.143,4.161-9.67,9.084-13.514,14.524
					c-3.821,5.434-6.92,11.376-9.362,17.604c-2.409,6.211-4.076,12.697-5.219,19.269c-1.102,6.501-2.188,12.955-3.365,19.419
					c-1.146,6.464-2.391,12.842-3.881,19.198c-3.039,12.661-7.265,24.998-13.964,35.957c-3.356,5.487-7.265,10.576-11.63,15.301
					c-4.348,4.745-9.089,9.095-14.125,13.186c-2.485,2.03-5.068,4.005-7.699,5.928c-2.662,1.885-5.365,3.838-8.006,5.811
					c-2.653,2.013-5.278,4.096-7.833,6.303c-1.289,1.166-2.539,2.31-3.753,3.607c-1.19,1.307-2.384,2.717-3.339,4.439
					c-0.479,0.897-0.908,1.886-1.171,2.969c-0.257,1.063-0.317,2.229-0.237,3.33c0.28,2.249,1.155,4.041,2.004,5.619
					c1.807,3.134,3.635,5.632,5.363,8.474c1.798,2.838,3.785,5.578,5.61,8.208c0.912,1.299,1.751,2.619,2.319,3.834
					c0.589,1.244,0.881,2.373,0.81,3.495c-0.147,2.279-1.766,4.988-3.598,7.461c-0.934,1.292-1.896,2.309-3.061,4.004
					c-1.02,1.498-1.937,3.222-2.5,5.09c-0.558,1.885-0.796,3.913-0.532,5.939c0.263,1.971,0.982,3.898,1.906,5.563
					c0.938,1.665,2.133,3.091,3.427,4.396c0.607,0.573,1.229,1.159,1.884,1.665c-0.613,0.694-1.198,1.434-1.729,2.189
					c-1.095,1.563-2.095,3.299-2.819,5.133c-0.705,1.846-1.171,3.893-1.196,5.948c-0.082,2.073,0.342,4.172,1.133,6.073
					c0.761,1.918,1.9,3.607,3.177,5.075c0.646,0.757,1.328,1.448,2.03,2.083l0.939,0.863c0.29,0.296,0.559,0.561,0.866,0.856
					c1.057,1.119,1.915,2.322,2.404,3.583c0.446,1.269,0.569,2.694,0.368,4.199c-0.368,3.013-1.793,6.148-3.376,9.09
					c-0.822,1.504-1.691,2.975-2.62,4.44l-0.714,1.122c-0.262,0.379-0.532,0.83-0.724,1.259c-0.472,0.841-0.865,1.708-1.188,2.634
					c-2.729,7.151-2.071,15.262,1.435,21.877c1.74,3.372,4.144,6.288,6.973,8.638c2.834,2.411,6.062,4.254,9.403,5.653
					c6.751,2.771,13.94,3.826,21.031,4.06c14.239,0.397,28.272-2.206,41.807-5.96c-6.845,1.536-13.803,2.697-20.756,3.477
					c-6.974,0.782-13.991,1.104-20.939,0.6c-6.92-0.514-13.841-1.855-20.042-4.676c-3.103-1.418-6.025-3.196-8.505-5.402
					c-2.517-2.242-4.572-4.885-6-7.876c-2.911-5.891-3.244-13.026-0.844-19.038c0.316-0.742,0.649-1.436,1.046-2.122
					c0.193-0.359,0.381-0.649,0.624-1.013l0.719-1.087c0.977-1.503,1.938-3.021,2.84-4.622c1.761-3.145,3.441-6.517,4.091-10.501
					c0.301-1.975,0.22-4.167-0.494-6.213c-0.703-2.077-1.954-3.779-3.26-5.211c-0.339-0.35-0.682-0.709-1.012-1.032l-1.009-0.938
					c-0.596-0.548-1.123-1.106-1.637-1.724c-1.01-1.159-1.821-2.48-2.346-3.823c-1.117-2.724-0.956-5.724,0.214-8.547
					c0.569-1.434,1.357-2.798,2.292-4.082c0.466-0.612,0.975-1.262,1.52-1.867c0.502-0.576,1.122-1.198,1.621-1.649l2.492-2.189
					l-2.862-1.757c-0.51-0.311-1.165-0.761-1.724-1.26c-0.553-0.426-1.105-0.914-1.599-1.439c-1.042-1.047-1.912-2.17-2.583-3.391
					c-1.349-2.383-1.637-4.977-0.853-7.517c0.409-1.265,1.041-2.519,1.858-3.693c0.7-1.059,1.97-2.442,2.963-3.811
					c1.021-1.387,2.029-2.854,2.894-4.5c0.839-1.655,1.589-3.534,1.735-5.708c0.16-2.164-0.403-4.327-1.24-6.045
					c-0.804-1.696-1.767-3.21-2.745-4.596c-1.883-2.754-3.776-5.364-5.471-8.082c-1.711-2.801-3.689-5.614-5.154-8.22
					c-0.73-1.288-1.239-2.52-1.343-3.574c-0.133-1.04,0.114-2.03,0.748-3.205c1.251-2.281,3.57-4.55,5.923-6.628
					c2.347-2.101,4.902-4.118,7.495-6.086c2.604-1.957,5.219-3.893,7.883-5.832c2.69-1.953,5.347-3.983,7.913-6.104
					c10.347-8.405,19.689-18.427,26.55-30.051c3.445-5.776,6.271-11.919,8.515-18.223c2.251-6.318,3.947-12.767,5.365-19.253
					c2.823-12.966,4.529-26.028,6.375-39.049c1.846-12.788,5.905-25.41,12.949-36.354c3.526-5.465,7.791-10.447,12.695-14.758
					c4.925-4.296,10.357-8.096,16.479-10.523C335.396,115.835,332.42,117.307,329.548,118.955z"/>
			</g>
			<g>
				<path fill="#8A288D" d="M411.682,108.577c-0.954,20.627,4.279,40.986,14.744,57.722c2.607,4.183,5.578,8.15,8.831,11.828
					c3.2,3.715,6.682,7.21,10.406,10.399c3.714,3.244,7.73,6.105,11.827,8.837c4.396,2.932,8.827,6.181,12.874,9.713
					c8.263,7.012,15.323,15.65,20.486,25.449c5.105,9.813,7.802,20.923,7.92,31.859c0.019,5.469-0.547,10.888-1.525,16.154
					c-1.09,5.289-2.661,10.401-4.53,15.357c-3.876,9.856-9.058,19.042-15.324,27.338c4.017-9.563,7.683-19.168,9.961-29.014
					c1.158-4.896,2.028-9.84,2.457-14.77c0.473-4.921,0.547-9.831,0.075-14.661c-0.474-4.816-1.268-9.562-2.68-14.148
					c-1.374-4.601-3.371-8.951-5.611-13.169c-4.573-8.462-11.087-15.758-18.316-22.329c-3.678-3.303-7.513-6.234-11.666-9.11
					c-4.414-3.06-8.596-6.486-12.527-10.181c-3.952-3.699-7.633-7.682-10.924-11.956c-3.254-4.312-6.17-8.88-8.7-13.659
					C409.579,151.142,406.615,128.732,411.682,108.577z"/>
			</g>
		</g>
	</g>
	<g>
		<g>
			<g>
				<path fill="#A34198" d="M309.224,208.25c0,0,38.411-15.308,62.67-10.813c24.274,4.493,37.057,22.226,37.057,22.226
					s-9.439-16.208-35.043-27.027C348.292,181.819,286.995,201.636,309.224,208.25L309.224,208.25z"/>
			</g>
			<g>
				<path fill="#A34198" d="M344.488,268.833c-5.049,1.03-10.144,1.61-15.284,1.831c-9.495,0.414-19.094-0.235-28.898-0.869
					c-0.054-0.854-0.107-1.74-0.091-2.625c-0.019-1.917,0.06-3.914,0.252-5.869c0.295-4.004,0.854-8.042,1.325-12.192
					c-2.317,3.496-4.038,7.317-5.486,11.285c-0.94,2.771-1.734,5.628-2.139,8.714c-2.604,0.123-5.504-0.29-8.692-1.611
					c2.716,2.405,5.577,3.753,8.515,4.474c0,0.472-0.037,0.907-0.021,1.396l0.021,0.251c-4.198,2.496-10.146,4.149-17.535,1.092
					c4.818,4.342,10.182,5.431,15.688,5.088c-4.836,3.297-11.521,6.592-20.487,8.708c13.429,0.431,26.391-3.569,37.009-9.476
					c-3.657,4.081-9.381,8.805-18.185,12.462c11.23-1.305,21.366-6.266,29.427-12.611c1.121,0,2.23-0.033,3.349-0.075
					c-2.318,3.356-5.771,6.819-10.952,9.499c8.6-0.784,15.697-4.923,21.025-10.582c1.487-0.268,2.974-0.573,4.419-0.976
					c-1.23,1.716-2.932,3.402-5.381,5.036c5.455-1.573,9.287-4.192,11.972-7.264c0.612-0.236,1.229-0.45,1.81-0.746
					c5.165-2.336,9.911-5.687,13.4-9.976C354.541,266.123,349.566,267.771,344.488,268.833z"/>
			</g>
		</g>
	</g>
</g>
</svg>
