<?xml version="1.0" encoding="utf-8"?>
<!-- Generator: Adobe Illustrator 16.0.0, SVG Export Plug-In . SVG Version: 6.00 Build 0)  -->
<!DOCTYPE svg PUBLIC "-//W3C//DTD SVG 1.1//EN" "http://www.w3.org/Graphics/SVG/1.1/DTD/svg11.dtd">
<svg version="1.1" id="Layer_1" xmlns="http://www.w3.org/2000/svg" xmlns:xlink="http://www.w3.org/1999/xlink" x="0px" y="0px"
	 width="540px" height="540px" viewBox="0 0 540 540" enable-background="new 0 0 540 540" xml:space="preserve">
<g>
	<path fill="#46BCD1" d="M295.564,423.076c8.154-56.492-24.781-95.138-66.324-129.642c-0.414-25.386-2.012-61.783-13.016-72.783
		c-9.895,1.838-35.048,17.487-48.464,24.99c-45.127-35.809-82.569-74.238-73.143-131.769
		c-35.063,44.757-40.221,99.434-26.463,150.714c-8.778,2.634-16.889,6.849-22.846,13.528c-3.07,3.434,17.378,13.339,35.216,21.168
		C120.026,387.682,213.028,455.014,295.564,423.076z"/>
	<path fill="#0D81A5" d="M112.412,164.291C67.626,64.223,217.75,15.736,257.007,73.087c-33.351-17.092-63.651,3.655-77.115,22.245
		c18.722,18.724,37.893,55.108,31.885,76.377C201.624,154.925,131.934,93.685,112.412,164.291z"/>
	<path fill="#478BCA" d="M244.437,116.92c-8.157,56.493,24.776,95.137,66.321,129.646c0.412,25.388,2.018,61.781,13.02,72.786
		c9.891-1.839,35.051-17.487,48.461-24.992c45.129,35.805,82.566,74.24,73.145,131.774c35.061-44.76,40.215-99.438,26.463-150.722
		c8.775-2.635,16.887-6.843,22.848-13.521c3.063-3.438-17.381-13.342-35.219-21.175C419.971,152.318,326.971,84.987,244.437,116.92z
		"/>
	<path fill="#243B81" d="M427.586,375.702c44.785,100.076-105.338,148.563-144.596,91.209c33.354,17.09,63.656-3.656,77.115-22.245
		c-18.721-18.722-37.889-55.111-31.887-76.376C338.377,385.076,408.07,446.321,427.586,375.702z"/>
</g>
</svg>
