<?xml version="1.0" encoding="utf-8"?>
<!-- Generator: Adobe Illustrator 16.0.0, SVG Export Plug-In . SVG Version: 6.00 Build 0)  -->
<!DOCTYPE svg PUBLIC "-//W3C//DTD SVG 1.1//EN" "http://www.w3.org/Graphics/SVG/1.1/DTD/svg11.dtd">
<svg version="1.1" id="Layer_1" xmlns="http://www.w3.org/2000/svg" xmlns:xlink="http://www.w3.org/1999/xlink" x="0px" y="0px"
	 width="540px" height="540px" viewBox="0 0 540 540" enable-background="new 0 0 540 540" xml:space="preserve">
<g>
	<g>
		<g>
			<path fill="#A9263B" d="M363.054,212.029c-5.644,13.438-19.237,28.425-47.118,31.801c-41.963,5.083-53.294,20.969-59.309,37.384
				l-10.208,27.903c0,0-51.538-94.906,8.043-135.456c-19.964-7.366-74.037-21.367-104.455,28.181
				c-37.803,61.576,19.076,133.087,112.174,189.6C345.726,347.7,421.273,243.419,363.054,212.029z"/>
			<path fill="#009245" d="M305.316,166.45c-39.949,16.938-51.673,54.296-51.673,54.296c0.744-16.629,5.953-30.675,11.841-41.551
				c-44.714,29.679-19.154,98.249-19.154,98.249c9.144-24.998,28.047-39.629,68.286-44.506
				c40.236-4.876,40.843-35.971,40.843-35.971s32.312-0.363,34.749,45.725c2.957,55.852-68.881,116.443-68.881,116.443
				c69.123-52.378,82.293-87.79,82.293-109.737C403.617,242.093,409.32,158.64,305.316,166.45z"/>
		</g>
		<g>
			<path fill="#009245" d="M257.817,112.302c17.989,6.922,29.161,16.146,36.031,24.028c0.161-56.8-76.621-69.373-76.621-69.373
				c2.087,101.341,73.133,91.419,73.133,91.419c0.056-0.187,0.094-0.358,0.145-0.542
				C265.542,135.75,257.817,112.302,257.817,112.302z"/>
			<path fill="#009245" d="M292.459,148.925c1.648-24.669,33.357-30.198,33.357-30.198c-0.916,44.122-31.845,39.797-31.845,39.797
				C293.949,158.442,292.01,155.682,292.459,148.925z"/>
		</g>
	</g>
	<g>
		<polygon fill="#463717" points="478.762,446.281 397.531,425.485 398.238,424.779 435.619,421.784 447.189,362.807 
			473.514,370.748 495,377.254 463.501,401.865 		"/>
		<path fill="#463717" d="M95.29,344.402c114.963-21.933,233.041-21.933,348.01,0c-4.579,23.977-9.151,47.955-13.729,71.936
			c-105.893-20.199-214.658-20.199-320.557,0C104.435,392.357,99.863,368.379,95.29,344.402z"/>
		<polygon fill="#463717" points="61.245,446.281 142.475,425.485 141.76,424.779 104.386,421.784 92.817,362.807 66.498,370.748 
			45,377.254 76.51,401.865 		"/>
		<path fill="#009245" d="M355.084,436.826c0,0,12.588-18.108,32.888-7.106c20.013,10.843,32,18.547,39.636,5.779
			c0,0-6.469,39.479-45.443,28.058c0,0-23.968-10.981-32.166-26.192c0,0,7.474,1.314,16.543,5.315
			c9.06,4.001,15.138,8.051,22.555,5.859c7.416-2.191,4.979-2.492,6.444-1.744c0,0-9.644,2.362-18.539-2.857
			C368.873,439.153,359.601,433.783,355.084,436.826z"/>
		<path fill="#009245" d="M191.208,444.231c0,0-12.585-18.105-32.894-7.104c-20.008,10.849-32.001,18.554-39.635,5.783
			c0,0,6.469,39.48,45.442,28.06c0,0,23.969-10.983,32.168-26.194c0,0-7.474,1.313-16.54,5.313
			c-9.066,3.997-15.144,8.053-22.558,5.86c-7.415-2.185-4.977-2.491-6.446-1.744c0,0,9.651,2.364,18.539-2.861
			C177.42,446.563,186.69,441.199,191.208,444.231z"/>
	</g>
</g>
</svg>
