<?xml version="1.0" encoding="utf-8"?>
<!-- Generator: Adobe Illustrator 16.0.0, SVG Export Plug-In . SVG Version: 6.00 Build 0)  -->
<!DOCTYPE svg PUBLIC "-//W3C//DTD SVG 1.1//EN" "http://www.w3.org/Graphics/SVG/1.1/DTD/svg11.dtd">
<svg version="1.1" id="Layer_1" xmlns="http://www.w3.org/2000/svg" xmlns:xlink="http://www.w3.org/1999/xlink" x="0px" y="0px"
	 width="540px" height="540px" viewBox="0 0 540 540" enable-background="new 0 0 540 540" xml:space="preserve">
<path fill="#FF5CD5" d="M461.213,269.917l-11.47,11.296c13.76,13.974,23.604,31.226,28.622,50.093
	c-20.973,24.442-51.564,38.516-83.186,39.229c-1.934-6.387-4.366-12.652-7.278-18.689c-11.018-22.867-28.521-41.533-49.638-54.238
	c24.41-2.348,48.146-11.56,67.892-27.309c38.322-30.569,56.047-81.227,45.158-129.054l-4.365-5.468
	c-21.071-10.125-44.535-14.321-67.861-12.131l1.504,16.029c19.114-1.792,38.325,1.308,55.825,8.978
	c6.15,32.233-2.354,65.559-22.302,90.908c-5.15-1.888-10.446-3.467-15.819-4.695c-26.121-5.956-53.091-3.346-77.183,6.487
	c16.475-21.75,25.959-48.121,25.961-76.356c0-49.021-28.543-95.559-72.719-115.758h-6.997
	c-23.835,10.876-43.301,29.349-56.29,52.438l14.033,7.457c10.723-19.063,26.489-34.378,45.754-44.499
	c29.286,15.428,50.142,43.206,57.344,74.958c-5.979,3.374-11.717,7.231-17.114,11.539c-19.218,15.334-33.252,35.721-41.098,58.264
	c-7.875-22.396-21.867-42.641-40.983-57.887c-38.332-30.564-91.665-36.578-135.866-15.323l-4.363,5.469
	c-5.13,22.553-4.075,46.13,3.049,68.184l15.319-4.949c-5.832-18.053-7.015-37.271-3.472-55.828
	c29.443-12.896,63.039-12.322,91.804,0.69c-0.549,4.905-0.839,9.912-0.839,14.807c0,28.789,9.854,55.795,26.931,77.909
	c-24.764-10.754-52.778-13.777-79.875-7.595C93.9,245.78,55.947,283.726,45,331.541l1.558,6.819
	c14.112,17.664,32.729,31.358,53.835,39.601l5.854-14.998c-17.25-6.733-32.601-17.632-44.61-31.633
	c8.457-31.726,30.599-58.072,59.597-72.247c3.966,4.132,8.226,8.026,12.726,11.614c19.226,15.329,42.22,24.46,65.943,27.096
	c-20.982,12.705-38.369,31.308-49.325,54.067c-21.269,44.166-15.265,97.495,15.295,135.866l6.306,3.035
	c24.552-0.021,48.483-7.026,69.213-20.259l-8.664-13.573c-17.034,10.877-36.543,16.943-56.646,17.659
	c-18.821-25.428-25.813-57.679-20.041-88.184c6.562-0.471,13.122-1.446,19.581-2.922c24.367-5.563,46.164-18.164,63.14-35.506
	c-2.641,23.625,1.182,47.969,11.806,70.024c21.273,44.16,66.714,72.718,115.767,72.749l6.305-3.038
	c14.65-18.408,23.979-40.498,26.977-63.883l-15.964-2.047c-2.459,19.165-9.775,37.337-21.222,52.796
	c-32.521-1.173-62.887-16.623-83.162-41.348c3.217-4.865,6.121-9.971,8.658-15.243c10.891-22.614,14.611-47.63,11.566-71.813
	c17.219,18.283,39.689,31.564,64.9,37.316c9.36,2.136,18.821,3.173,28.231,3.173c38.626-0.003,76.21-17.504,100.823-48.328
	l1.555-6.819C489.669,308.254,477.99,286.952,461.213,269.917z M394.716,250.56c2.494,0.571,4.963,1.25,7.411,1.986
	c-1.935,1.785-3.938,3.509-6.013,5.164c-28.91,23.059-67.576,30.136-102.476,19.735C320.578,252.8,358.58,242.318,394.716,250.56z
	 M321.125,163.712c3.081-2.459,6.289-4.754,9.6-6.873c0.16,2.426,0.249,4.865,0.249,7.315c0,38.361-19.996,74.223-51.881,94.707
	C276.838,222.653,292.323,186.695,321.125,163.712z M210.91,158.266c2.755,1.817,5.448,3.751,8.055,5.828
	c28.453,22.691,43.93,58.042,42.145,93.795c-31.008-20.631-50.372-55.939-50.372-93.696
	C210.737,162.212,210.808,160.236,210.91,158.266z M137.635,252.603c2.512-0.766,5.059-1.448,7.64-2.037
	c36.296-8.282,74.474,2.314,101.434,27.188c-34.96,10.509-73.735,3.459-102.709-19.646
	C141.804,256.356,139.691,254.507,137.635,252.603z M172.039,367.788c-3.81,0.869-7.659,1.537-11.521,2.009
	c1.318-3.71,2.836-7.368,4.564-10.957c16.63-34.546,50.172-58.163,87.762-62.804C239.993,331.724,209.473,359.242,172.039,367.788z
	 M273.417,411.005c-1.281,2.663-2.689,5.266-4.174,7.818c-1.484-2.538-2.885-5.139-4.173-7.813
	c-16.224-33.681-14.304-73.462,4.168-105.355C287.713,337.542,289.637,377.317,273.417,411.005z M287.223,296.24
	c36.937,5.098,69.77,28.538,86.174,62.594c1.688,3.502,3.194,7.091,4.514,10.737c-3.321-0.443-6.637-1.024-9.936-1.777
	C330.611,359.269,300.127,331.839,287.223,296.24z"/>
</svg>
