<?xml version="1.0" encoding="utf-8"?>
<!-- Generator: Adobe Illustrator 16.0.0, SVG Export Plug-In . SVG Version: 6.00 Build 0)  -->
<!DOCTYPE svg PUBLIC "-//W3C//DTD SVG 1.1//EN" "http://www.w3.org/Graphics/SVG/1.1/DTD/svg11.dtd">
<svg version="1.1" id="Layer_1" xmlns="http://www.w3.org/2000/svg" xmlns:xlink="http://www.w3.org/1999/xlink" x="0px" y="0px"
	 width="540px" height="540px" viewBox="0 0 540 540" enable-background="new 0 0 540 540" xml:space="preserve">
<g>
	<path fill="#C79E6A" d="M417.011,216.163c0,0,0.494,0.713,1.426,2.051c0.916,1.35,2.336,3.264,3.962,5.845
		c0.821,1.284,1.767,2.693,2.734,4.261c0.95,1.578,1.976,3.287,3.073,5.112c1.041,1.86,2.15,3.841,3.319,5.928
		c1.142,2.104,2.261,4.363,3.475,6.703c1.137,2.373,2.325,4.853,3.502,7.447c1.099,2.624,2.358,5.298,3.415,8.145
		c2.303,5.625,4.299,11.73,6.235,18.123c1.8,6.426,3.423,13.169,4.626,20.147c1.149,6.983,1.984,14.177,2.297,21.456
		c0.258,7.278,0.059,14.622-0.646,21.869c-0.798,7.235-2.1,14.351-3.85,21.174c-1.893,6.779-4.072,13.307-6.759,19.278
		c-0.607,1.522-1.343,2.958-2.044,4.39c-0.708,1.428-1.388,2.849-2.098,4.222c-1.55,2.67-2.93,5.348-4.505,7.757
		c-3.058,4.883-6.183,9.175-9.124,12.839c-1.504,1.801-2.896,3.516-4.232,5.052c-1.386,1.485-2.662,2.853-3.813,4.086
		c-1.141,1.258-2.216,2.311-3.177,3.2c-0.95,0.904-1.758,1.674-2.414,2.299c-1.315,1.247-2.017,1.911-2.017,1.911l-18.443-23.19
		c0,0,0.622-0.451,1.79-1.299c0.588-0.424,1.312-0.946,2.164-1.561c0.867-0.601,1.835-1.32,2.859-2.195
		c1.049-0.853,2.213-1.798,3.476-2.824c1.202-1.097,2.502-2.284,3.893-3.552c2.73-2.593,5.681-5.669,8.663-9.248
		c1.543-1.76,2.908-3.763,4.478-5.751c0.706-1.046,1.425-2.111,2.155-3.19c0.729-1.088,1.5-2.175,2.152-3.354
		c2.869-4.582,5.388-9.742,7.772-15.234c2.241-5.553,4.184-11.495,5.736-17.706c1.457-6.235,2.52-12.719,3.171-19.303
		c0.6-6.59,0.723-13.262,0.531-19.859c-0.242-6.601-0.916-13.107-1.798-19.402c-1.018-6.262-2.134-12.345-3.618-18.022
		c-0.646-2.868-1.513-5.59-2.232-8.269c-0.797-2.652-1.627-5.201-2.419-7.655c-0.873-2.421-1.665-4.769-2.505-6.968
		c-0.868-2.191-1.69-4.271-2.466-6.225c-0.836-1.932-1.616-3.741-2.339-5.413c-0.742-1.664-1.483-3.163-2.122-4.538
		c-1.256-2.758-2.417-4.854-3.145-6.31C417.407,216.937,417.011,216.163,417.011,216.163z"/>
	<path fill="#C79E6A" d="M390.435,245.631c0,0,0.48,0.724,1.383,2.078c0.888,1.368,2.27,3.311,3.842,5.926
		c0.796,1.3,1.711,2.728,2.647,4.314c0.916,1.6,1.908,3.326,2.968,5.173c1.006,1.881,2.071,3.883,3.198,5.996
		c1.101,2.126,2.17,4.407,3.338,6.771c1.089,2.397,2.226,4.899,3.348,7.516c1.044,2.646,2.253,5.348,3.25,8.213
		c2.188,5.672,4.058,11.819,5.863,18.248c1.666,6.459,3.157,13.234,4.215,20.237c1.004,7.005,1.692,14.215,1.856,21.498
		c0.11,7.283-0.24,14.621-1.089,21.853c-0.949,7.217-2.393,14.305-4.278,21.094c-2.031,6.735-4.344,13.22-7.152,19.133
		c-0.638,1.51-1.402,2.933-2.133,4.348c-0.736,1.412-1.443,2.821-2.183,4.179c-1.602,2.638-3.037,5.286-4.66,7.661
		c-3.157,4.821-6.371,9.049-9.386,12.65c-1.54,1.771-2.966,3.456-4.333,4.968c-1.422,1.458-2.723,2.797-3.901,4.007
		c-1.165,1.231-2.261,2.265-3.239,3.134c-0.969,0.885-1.792,1.638-2.46,2.248c-1.339,1.218-2.057,1.871-2.057,1.871l-17.966-23.56
		c0,0,0.632-0.441,1.82-1.265c0.595-0.411,1.328-0.92,2.19-1.515c0.879-0.584,1.865-1.284,2.906-2.137
		c1.065-0.832,2.245-1.751,3.53-2.756c1.226-1.07,2.549-2.23,3.965-3.471c2.783-2.536,5.794-5.551,8.851-9.069
		c1.576-1.727,2.985-3.701,4.593-5.657c0.729-1.031,1.47-2.082,2.222-3.147c0.749-1.073,1.543-2.143,2.221-3.308
		c2.961-4.525,5.583-9.634,8.078-15.074c2.354-5.504,4.417-11.404,6.098-17.586c1.584-6.202,2.776-12.666,3.563-19.235
		c0.732-6.575,0.994-13.243,0.938-19.846c-0.11-6.604-0.65-13.119-1.402-19.43c-0.891-6.284-1.881-12.39-3.25-18.096
		c-0.588-2.881-1.4-5.619-2.066-8.313c-0.742-2.667-1.517-5.233-2.262-7.702c-0.821-2.439-1.566-4.804-2.359-7.017
		c-0.825-2.209-1.605-4.305-2.338-6.272c-0.795-1.95-1.543-3.775-2.23-5.462c-0.709-1.679-1.416-3.192-2.026-4.578
		c-1.201-2.783-2.32-4.903-3.015-6.373C390.815,246.412,390.435,245.631,390.435,245.631z"/>
	<path fill="#C79E6A" d="M455.826,196.614c0,0,0.35,0.711,1.03,2.09c0.671,1.382,1.712,3.418,2.972,6.106
		c1.306,2.666,2.584,6.137,4.28,10.176c0.887,2.021,1.548,4.247,2.395,6.609c0.755,2.382,1.746,4.882,2.43,7.607
		c0.746,2.726,1.535,5.598,2.358,8.61c0.649,3.063,1.328,6.27,2.033,9.609c0.684,3.357,1.123,6.893,1.685,10.565
		c0.312,1.834,0.456,3.713,0.636,5.629c0.178,1.917,0.357,3.871,0.542,5.852c0.371,3.972,0.36,8.087,0.523,12.342
		c0.006,4.244-0.139,8.623-0.276,13.131c-0.611,8.977-1.617,18.458-3.614,28.21c-0.503,2.435-0.91,4.932-1.537,7.396
		c-0.648,2.462-1.303,4.947-1.962,7.456c-0.346,1.254-0.64,2.532-1.03,3.782c-0.402,1.249-0.805,2.503-1.211,3.763
		c-0.823,2.523-1.652,5.069-2.488,7.636c-0.976,2.52-1.961,5.06-2.953,7.622c-0.51,1.276-1.02,2.559-1.534,3.848
		c-0.577,1.26-1.157,2.524-1.739,3.793c-0.586,1.271-1.171,2.546-1.759,3.827l-0.888,1.922l-0.445,0.967l-0.224,0.483
		c-0.109,0.209,0.087-0.124-0.274,0.527l-0.115,0.225c-1.235,2.369-2.479,4.758-3.733,7.162l-0.941,1.806l-1.121,1.93
		c-0.764,1.292-1.528,2.589-2.296,3.888c-0.781,1.296-1.564,2.595-2.351,3.9c-0.815,1.231-1.636,2.47-2.458,3.708
		c-3.217,5.008-6.839,9.825-10.516,14.701c-7.505,9.645-16.171,18.735-25.647,27.27c-9.477,8.547-19.962,16.33-31.221,23.199
		c-2.851,1.656-5.655,3.421-8.583,4.986c-2.941,1.537-5.859,3.151-8.859,4.626c-3.021,1.424-6.063,2.83-9.138,4.189
		c-3.117,1.252-6.244,2.51-9.376,3.77c-12.652,4.717-25.856,8.43-39.406,10.616c-13.538,2.228-27.365,3.173-41.174,2.755
		c-27.604-1.003-55.086-7.604-79.583-19.34c-1.531-0.729-3.084-1.409-4.59-2.185l-4.479-2.375l-4.461-2.379l-0.677-0.378
		l-0.247-0.147l-0.495-0.3l-0.989-0.594l-1.977-1.193l-3.925-2.414l-0.982-0.604l-1.083-0.733l-2.162-1.468
		c-2.831-1.97-5.859-3.892-8.399-5.933c-10.627-7.94-20.428-16.728-28.956-26.344c-17.204-19.12-29.803-40.788-38.168-62.415
		c-8.188-21.735-12.317-43.363-13.147-63.277c-0.507-9.953-0.122-19.488,0.684-28.455c0.505-4.484,0.946-8.836,1.709-13.025
		c0.358-2.095,0.636-4.164,1.047-6.185c0.439-2.012,0.872-3.993,1.297-5.941c3.513-15.557,8.396-28.518,13.157-38.729
		c0.592-1.28,1.13-2.534,1.72-3.727c0.61-1.184,1.2-2.333,1.774-3.448c1.173-2.214,2.223-4.303,3.315-6.188
		c2.251-3.738,4.045-6.949,5.689-9.446c1.638-2.502,2.952-4.375,3.813-5.648c0.866-1.267,1.313-1.921,1.313-1.921
		s-1.119,2.962-3.217,8.515c-1.063,2.755-2.126,6.256-3.497,10.279c-0.66,2.025-1.208,4.26-1.895,6.591
		c-0.339,1.165-0.69,2.367-1.049,3.604c-0.341,1.242-0.621,2.543-0.946,3.866c-2.624,10.552-5.057,23.5-6.018,38.355
		c-0.967,14.833-0.637,31.576,2.458,49.28c0.184,1.104,0.37,2.215,0.556,3.332c0.229,1.108,0.458,2.223,0.689,3.343
		c0.487,2.233,0.887,4.499,1.45,6.753c0.581,2.247,1.165,4.513,1.758,6.801c0.593,2.285,1.378,4.536,2.062,6.831
		c2.923,9.118,6.426,18.352,10.889,27.399c8.898,18.084,21.051,35.607,36.38,50.842c7.701,7.57,16.155,14.583,25.3,20.8
		c2.274,1.683,4.497,2.889,6.735,4.341l1.674,1.052l0.837,0.53l1,0.557l4.027,2.239l2.007,1.136l1.005,0.569l0.501,0.283
		l0.251,0.146c-0.727-0.411-0.067-0.048-0.168-0.111l3.764,1.871l3.765,1.88c1.261,0.612,2.57,1.131,3.854,1.699
		c20.582,9.014,43.09,14.347,65.889,15.004c22.788,0.9,45.744-2.798,67.135-10.102c2.651-0.988,5.299-1.972,7.937-2.954
		c2.598-1.096,5.189-2.19,7.775-3.283c2.568-1.129,5.074-2.389,7.613-3.565c2.525-1.204,4.941-2.604,7.415-3.885
		c9.747-5.396,18.896-11.608,27.449-18.336c8.543-6.748,16.337-14.17,23.512-21.909c3.48-3.959,6.956-7.879,10.076-12.011
		c0.797-1.018,1.595-2.031,2.388-3.044c0.72-1.011,1.438-2.018,2.152-3.025c0.728-1,1.452-1.999,2.176-2.993l1.092-1.5l1.107-1.709
		c1.471-2.277,2.935-4.537,4.388-6.781c1.206-2.075,2.408-4.137,3.596-6.181c0.621-1.07,1.242-2.138,1.858-3.199
		c0.559-1.093,1.114-2.18,1.666-3.266c1.123-2.168,2.234-4.32,3.335-6.454c4.038-8.704,7.688-17.316,10.364-25.889
		c5.66-17.069,8.646-33.563,9.816-48.383c1.184-14.824,0.856-28.008-0.281-38.814c-0.146-2.73-0.631-5.251-0.911-7.671
		c-0.343-2.4-0.501-4.719-0.931-6.78c-0.782-4.159-1.284-7.767-1.997-10.657c-0.696-2.886-1.161-5.124-1.501-6.624
		C455.997,197.387,455.826,196.614,455.826,196.614z"/>
	<g>
		<path fill="#F6B53D" d="M346.032,211.34c0,0-41.765-34.255-48.01,21.255c-6.252,55.508-4.977,133.683-73.085,160.79
			c0,0,51.944-41.018,16.084-111.303c-18.853-36.952-54.499-99.354-5.712-129.278c44.386-27.225,95.481,13.964,110.049,56.215
			C345.619,209.78,345.891,210.544,346.032,211.34z"/>
		<path fill="#FF1320" d="M326.693,213.778c0,0-8.661,3.427-2.052,20.131c6.608,16.705,21.606,57.84-17.997,56.948
			c1.621-8.771,1.967-15.004,2.628-23.908c0.552-7.482,0.755-17.417,0.961-24.855c0.229-8.193,2.88-24.853,11.906-28.426
			C323.604,213.086,324.715,212.922,326.693,213.778z"/>
		<path fill="#F6B53D" d="M346.032,211.34c0,0,2.281-48.213-53.903-84.011c-56.184-35.797-138.825-25.945-170.966,23.482
			c0,0,75.565-74.111,167.149,3.541l1.051,18.375C289.362,172.725,336.897,199.238,346.032,211.34z"/>
		<path fill="#FF1320" d="M339.942,160.936c0,0,56.665-46.43-14.671-95.243c-71.337-48.812-17.545,2.439-24.242,14.592
			c-6.695,12.154-20.125-23.051-60.023-25.274c-39.897-2.222-7.461,8.955-0.436,24.183c7.025,15.229-5.334-5.894-38.491-8.781
			c-33.157-2.889-9.778,4.368-6.274,14.488c3.503,10.12-5.627-4.108-31.923-1.875s-2.017,7.968-10.579,18.358
			c-8.561,10.391-23.829,7.363-16.08,24.34c0,0,44.486-44.927,112.455-27.53C314.459,114.774,339.942,160.936,339.942,160.936z"/>
	</g>
	<path fill="#C79E6A" d="M304.295,318.32c0,0,0.161,1.276,0.463,3.668c0.252,2.394,0.568,5.959,0.581,10.501
		c0.048,4.548-0.231,10.102-1.159,16.444c-0.973,6.324-2.56,13.454-5.222,20.99c-1.351,3.754-2.902,7.639-4.791,11.543
		c-1.907,3.89-4.055,7.847-6.52,11.781c-5.012,7.794-11.161,15.596-18.676,22.581c-7.437,7.07-16.169,13.339-25.757,18.464
		l-3.634,1.866l-0.115,0.06c-0.092,0.041,0.044-0.015-0.234,0.107l-0.208,0.116l-0.417,0.233l-0.832,0.461
		c-0.57,0.314-1.077,0.617-1.706,0.923c-2.604,1.278-5.099,2.458-7.671,3.526c-5.145,2.168-10.54,3.878-16.062,5.213
		c-11.06,2.559-22.69,3.342-33.947,2.07c-11.267-1.193-22.12-4.333-31.848-8.815c-4.857-2.259-9.479-4.783-13.738-7.632
		c-4.283-2.805-8.252-5.846-11.859-9.065c-3.645-3.173-6.929-6.526-9.879-9.93c-2.99-3.37-5.569-6.87-7.91-10.279
		c-2.342-3.411-4.306-6.853-6.072-10.143c-1.702-3.331-3.182-6.537-4.407-9.605c-2.429-6.149-3.975-11.657-4.902-16.241
		c-0.955-4.577-1.358-8.208-1.55-10.684c-0.103-1.238-0.131-2.193-0.153-2.834c-0.023-0.642-0.034-0.972-0.034-0.972
		s0.707,1.11,2.036,3.193c1.317,2.067,3.248,5.065,5.772,8.728c2.545,3.65,5.674,7.967,9.516,12.578
		c1.925,2.302,3.98,4.706,6.26,7.11c2.211,2.453,4.706,4.859,7.29,7.315c2.59,2.456,5.424,4.834,8.354,7.228
		c2.967,2.358,6.126,4.636,9.417,6.846c1.647,1.104,3.367,2.142,5.102,3.175c1.723,1.053,3.503,2.047,5.318,3.015
		c3.662,1.867,7.422,3.679,11.352,5.233c3.952,1.485,7.979,2.932,12.161,4.012c4.188,1.03,8.44,2.02,12.808,2.561
		c8.71,1.171,17.735,1.306,26.78,0.22c4.54-0.446,9.056-1.323,13.575-2.342c2.27-0.497,4.524-1.123,6.627-1.713l3.467-1.063
		l3.221-1.312c8.494-3.678,16.506-8.265,23.596-13.692c3.536-2.721,6.916-5.563,10.034-8.569c3.114-3.011,5.989-6.152,8.652-9.346
		c2.66-3.201,5.059-6.483,7.255-9.762c2.156-3.303,4.12-6.592,5.864-9.846c3.424-6.536,6.039-12.867,7.928-18.654
		c1.936-5.783,3.139-11.014,3.974-15.365c0.43-2.175,0.709-4.141,0.985-5.852c0.211-1.709,0.425-3.17,0.552-4.369
		C304.168,319.6,304.295,318.32,304.295,318.32z"/>
</g>
</svg>
