<?xml version="1.0" encoding="utf-8"?>
<!-- Generator: Adobe Illustrator 16.0.0, SVG Export Plug-In . SVG Version: 6.00 Build 0)  -->
<!DOCTYPE svg PUBLIC "-//W3C//DTD SVG 1.1//EN" "http://www.w3.org/Graphics/SVG/1.1/DTD/svg11.dtd">
<svg version="1.1" id="Layer_1" xmlns="http://www.w3.org/2000/svg" xmlns:xlink="http://www.w3.org/1999/xlink" x="0px" y="0px"
	 width="540px" height="540px" viewBox="0 0 540 540" enable-background="new 0 0 540 540" xml:space="preserve">
<g>
	<path fill="#CA2127" d="M406.35,158.406c-8.196-13.047-18.057-25.338-29.61-36.531c-10.563-10.246-21.988-19.039-34.046-26.414
		V56.906c30.553,10.36,59.339,27.475,84.033,51.415c12.241,11.863,22.813,24.788,31.776,38.47L406.35,158.406L406.35,158.406z
		 M342.695,355.326l122.225,27.219l-0.159-0.184c38.207-65.837,40.142-146.751,6.184-213.998l-41.07,44.738
		c10.419,40.344,7.755,83.415-8.094,122.447L361.616,270L464.92,157.458l-122.225,27.218V355.326z M342.695,95.461
		c-76.228-46.699-177.263-36.162-242.081,30.681c-1.56,1.618-3.085,3.236-4.545,4.904l-1.463-1.412
		c4.482-5.635,9.301-11.092,14.384-16.374c62.438-64.382,154.056-83.372,233.702-56.354v38.555H342.695z M342.695,184.677v170.649
		l-26.892-5.984l-34.929,111.124c-7.752-0.767-15.403-2.022-22.935-3.745l-31.045-98.784l97.703-169.231L342.695,184.677z"/>
	<path fill="#CB5026" d="M197.303,184.677l26.891,5.986l34.926-111.132c7.753,0.769,15.414,2.032,22.938,3.754l31.051,98.783
		L215.4,351.293l-18.099,4.033L197.303,184.677L197.303,184.677z M197.303,483.094v-38.56
		c76.233,46.701,177.255,36.17,242.08-30.681c1.551-1.612,3.092-3.235,4.545-4.903l1.471,1.41
		c-4.491,5.644-9.309,11.101-14.381,16.374C368.571,491.118,276.942,510.113,197.303,483.094z M75.083,157.459L197.3,184.677
		v170.649L75.076,382.545L178.385,270l-60.165-65.545c-15.84,39.031-18.512,82.096-8.102,122.455l-41.062,44.73
		c-33.959-67.248-32.027-148.168,6.191-213.998L75.083,157.459L75.083,157.459z M197.303,444.534
		c-12.042-7.383-23.482-16.159-34.05-26.407c-11.55-11.201-21.418-23.484-29.598-36.539l-52.15,11.618
		c8.942,13.68,19.53,26.605,31.763,38.475c24.696,23.94,53.488,41.044,84.033,51.415L197.303,444.534L197.303,444.534z"/>
</g>
</svg>
