<?xml version="1.0" encoding="utf-8"?>
<!-- Generator: Adobe Illustrator 16.0.0, SVG Export Plug-In . SVG Version: 6.00 Build 0)  -->
<!DOCTYPE svg PUBLIC "-//W3C//DTD SVG 1.1//EN" "http://www.w3.org/Graphics/SVG/1.1/DTD/svg11.dtd">
<svg version="1.1" id="Layer_1" xmlns="http://www.w3.org/2000/svg" xmlns:xlink="http://www.w3.org/1999/xlink" x="0px" y="0px"
	 width="540px" height="540px" viewBox="0 0 540 540" enable-background="new 0 0 540 540" xml:space="preserve">
<g>
	<g>
		<g>
			<path fill="#272D7E" d="M468.764,132.42l-19.443,62.534l-310.814-4.104l19.552-62.862L468.764,132.42"/>
		</g>
		<g>
			<path fill="#272D7E" d="M495,233.974l-24.251,77.983L45,305.46l24.064-77.382L495,233.974"/>
		</g>
		<g>
			<path fill="#272D7E" d="M401.779,349.261l-19.528,62.797l-311.338-4.496l18.674-68.254l311.332,4.521"/>
		</g>
	</g>
	<g>
		<g>
			<path fill="#6977B9" d="M399.646,48.764l67.254,77.524l-76.998-1.072l-32.157-35.573l33.009-6.276l0.979-0.187l0.224-0.977
				L399.646,48.764"/>
		</g>
		<g>
			<path fill="#6977B9" d="M477.648,228.042l-234.166-3.408l-88.084-27.376l234.276,3.444L477.648,228.042"/>
		</g>
		<g>
			<path fill="#6977B9" d="M384.139,342.578l-233.92-3.07L61.99,312.077l234.977,3.393L384.139,342.578"/>
		</g>
		<g>
			<path fill="#6977B9" d="M149.949,414.957l32.145,35.515l-33.041,6.364l-0.987,0.183l-0.22,0.979l-7.637,33.238L73.01,413.808
				L149.949,414.957"/>
		</g>
	</g>
</g>
</svg>
