<?xml version="1.0" encoding="utf-8"?>
<!-- Generator: Adobe Illustrator 15.0.0, SVG Export Plug-In . SVG Version: 6.00 Build 0)  -->
<!DOCTYPE svg PUBLIC "-//W3C//DTD SVG 1.1//EN" "http://www.w3.org/Graphics/SVG/1.1/DTD/svg11.dtd">
<svg version="1.1" id="Layer_1" xmlns="http://www.w3.org/2000/svg" xmlns:xlink="http://www.w3.org/1999/xlink" x="0px" y="0px"
	 width="293.316px" height="299.667px" viewBox="0 0 293.316 299.667" enable-background="new 0 0 293.316 299.667"
	 xml:space="preserve">
<g>
	<g>
		<path fill="#2F3FB2" d="M142.079,20.331c18.562-6.052,37.489-8.042,55.791-6.46c-23.333-4.885-48.23-3.958-72.521,3.965
			c-53.411,17.407-89.341,63.665-96.2,115.88h17.114C53.921,82.529,89.531,37.471,142.079,20.331z M149.173,28.467
			C99.992,44.5,66.304,86.084,57.972,133.717h16.466c9.034-46.625,42.399-87.087,90.761-102.852
			c17.765-5.793,35.884-7.706,53.409-6.195C196.259,19.989,172.435,20.886,149.173,28.467z M118.971,9.868
			c19.354-6.311,39.074-8.384,58.139-6.745c-24.312-5.089-50.268-4.124-75.587,4.131C43.93,26.035,5.84,76.992,0.636,133.716h17.736
			C24.485,78.043,62.255,28.357,118.971,9.868z"/>
	</g>
	<g>
		<path fill="#5B75F4" d="M258.505,215.142c-4.035,19.102-11.771,36.494-22.299,51.563c15.896-17.772,27.539-39.793,32.834-64.793
			c11.617-54.96-10.475-109.212-52.273-141.255l-8.547,14.819C248.716,107.701,269.942,161.074,258.505,215.142z M247.911,217.22
			c10.711-50.607-8.465-100.58-45.563-131.603l-8.217,14.254c35.859,31.142,54.211,80.266,43.695,130.039
			c-3.873,18.285-11.283,34.916-21.338,49.345C231.708,262.242,242.844,241.144,247.911,217.22z M279.116,200.371
			c-4.203,19.906-12.262,38.011-23.221,53.718c16.578-18.521,28.691-41.47,34.209-67.521
			c12.531-59.267-12.541-117.736-59.07-150.607l-8.867,15.357C267.311,84.447,291.466,142.007,279.116,200.371z"/>
	</g>
	<g>
		<path fill="#151D6D" d="M34.508,220.342c-14.529-13.05-25.716-28.44-33.505-45.082c7.44,22.658,20.683,43.744,39.7,60.832
			c41.783,37.535,99.808,45.534,148.467,25.356l-8.558-14.819C132.446,265.597,75.624,257.289,34.508,220.342z M38.007,210.133
			c38.478,34.571,91.337,42.959,136.74,26.36l-8.216-14.258c-44.897,15.486-96.632,6.816-134.468-27.182
			C18.155,182.564,7.461,167.828,0,151.904C7.129,173.59,19.812,193.779,38.007,210.133z M37.003,245.592
			c-15.145-13.595-26.801-29.631-34.914-46.978c7.744,23.607,21.557,45.588,41.36,63.394
			C88.513,302.496,151.684,310,203.428,286.146l-8.865-15.357C143.276,293.324,81.361,285.462,37.003,245.592z"/>
	</g>
</g>
</svg>
