<?xml version="1.0" encoding="utf-8"?>
<!-- Generator: Adobe Illustrator 16.0.0, SVG Export Plug-In . SVG Version: 6.00 Build 0)  -->
<!DOCTYPE svg PUBLIC "-//W3C//DTD SVG 1.1//EN" "http://www.w3.org/Graphics/SVG/1.1/DTD/svg11.dtd">
<svg version="1.1" id="Layer_1" xmlns="http://www.w3.org/2000/svg" xmlns:xlink="http://www.w3.org/1999/xlink" x="0px" y="0px"
	 width="540px" height="540px" viewBox="0 0 540 540" enable-background="new 0 0 540 540" xml:space="preserve">
<g>
	<g>
		<polygon opacity="0.9" fill="#FCE97C" enable-background="new    " points="209.89,297.315 165.605,331.905 165.605,443.995 
			209.89,443.995 222.825,443.995 222.825,287.211 		"/>
		<g>
			<polygon opacity="0.9" fill="#E5B423" enable-background="new    " points="337.185,267.689 337.185,443.995 374.392,443.995 
				374.392,296.76 			"/>
		</g>
		<g opacity="0.9">
			<polygon opacity="0.9" fill="#FCE97C" enable-background="new    " points="306.436,123.039 238.995,70.356 238.995,140.34 
				306.436,193.019 			"/>
		</g>
		<polygon opacity="0.9" fill="#FCD22E" enable-background="new    " points="216.478,132.226 216.478,281.899 230.776,270.735 
			230.776,443.995 240.034,443.995 240.034,301.019 321.387,364.567 321.387,443.995 328.947,443.995 328.947,220.082 		"/>
		<polygon fill="#CAA12B" points="249.119,437.954 312.299,437.954 312.299,368.535 249.119,319.19 		"/>
	</g>
	<path fill="#CAA12B" d="M495,469.644c-51.75-23.499-133.274-38.66-224.999-38.66c-91.729,0-173.25,15.162-225.001,38.66
		c61.95-10.152,140.079-16.213,225.001-16.213C354.922,453.431,433.053,459.487,495,469.644z"/>
</g>
</svg>
