<?xml version="1.0" encoding="utf-8"?>
<!-- Generator: Adobe Illustrator 16.0.0, SVG Export Plug-In . SVG Version: 6.00 Build 0)  -->
<!DOCTYPE svg PUBLIC "-//W3C//DTD SVG 1.1//EN" "http://www.w3.org/Graphics/SVG/1.1/DTD/svg11.dtd">
<svg version="1.1" id="Layer_1" xmlns="http://www.w3.org/2000/svg" xmlns:xlink="http://www.w3.org/1999/xlink" x="0px" y="0px"
	 width="540px" height="540px" viewBox="0 0 540 540" enable-background="new 0 0 540 540" xml:space="preserve">
<g>
	<path fill="#D773B2" d="M311.604,387.434c8.128,27.125,31.343,41.523,42.64,51.804c12.625,10.126,18.856,15.945,17.704,18.334
		c-1.043,2.238-11.275-1.107-27.017-10.19c-14.551-9.563-39.628-23.667-49.139-56.247c-3.477-16.27-1.171-34.563,11.813-48.262
		c13.257-12.858,29.507-15.348,42.46-20.115c13.379-4.107,24.115-11.041,30.024-21.533c5.984-9.898,1.548-22.083-2.015-33.935
		c-3.823-11.8-5.014-24.982-0.044-35.052c4.182-10.559,15.238-15.277,22.795-13.601c15.521,3.113,19.542,12.984,19.936,12.088
		c-0.175,0.867-5.8-8.321-20.137-9.567c-16.21-2.265-25.927,22.429-14.878,43.558c3.929,10.399,11.744,25.592,4.298,41.375
		c-6.497,14.443-21.124,24.465-35.212,29.507c-13.794,5.53-28.245,9.394-36.079,18.103
		C311.031,361.585,309.014,376.137,311.604,387.434z"/>
	<path fill="#E73D72" d="M289.952,163.747c26.95,8.738,47.624,19.348,58.249,30.929c10.835,11.402,11.876,20.064,9.39,21.67
		c-2.938,2.014-9.101-4.25-20.992-11.15c-12.025-6.971-30.494-14.102-53.35-21.471c-48.201-13.116-95.828-46.307-124.865-76.806
		c-29.609-31.844-35.894-62.486-36.272-61.911c0.289-0.469,11.955,28.153,43.554,54.33
		C197.656,124.88,243.305,151.123,289.952,163.747z"/>
	<path fill="#E73D72" d="M276.263,194.061c24.069,12.77,40.71,28.247,46.422,42.35c5.768,14.103,2.507,22.011,0.453,22.044
		c-2.881,0.346-4.25-8.051-11.964-18.173c-7.88-10.121-22.926-21.471-42.688-31.938c-41.174-19.22-86.135-48.274-115.026-75.384
		c-14.662-13.652-25.288-27.613-30.111-38.815c-4.9-11.259-3.769-18.628-4.109-18.52c0.323-0.109,0.323,7.312,6.373,17.367
		c5.942,10.07,17.6,22.082,33.085,33.787C190.251,150.492,233.519,174.049,276.263,194.061z"/>
	<path fill="#EC4E8A" d="M199.494,222.473c4.129,3.279,8.938,6.398,8.091,12.534c-0.664,5.028-4.752,6.753-7.415,10.359
		c-2.144,2.881-2.81,5.132-2.327,8.16c1.086,6.398,7.698,14.121,14.108,20.373c3.552,3.551,13.115,8.92,14.017,14.18
		c0.791,4.677-4.34,8.463-5.639,12.533c-1.551,4.894,2,11.711,6.514,16.606c19.311,20.083,38.364,25.473,37.898,25.494
		c0.323-0.306-19.164-0.345-44.021-19.242c-8.965-6.796-16.881-20.896-9.547-31.578c-10.477-8.206-24.944-20.935-29.736-34.961
		c-4.738-13.885,1.905-20.912,5.493-22.372c-8.422-3.781-17.218-14.732-22.875-21.817c-3.567-4.483-7.021-8.97-9.567-15.055
		c-1.172-3.062-2.361-6.688-1.713-11.439c0.883-6.431,8.161-10.141,14.12-10.539c-7.403,0.507-14.795-12.932-18.048-17.974
		c-16.301-25.197-22.374-42.043-22.914-41.896c0.322-0.432,10.824,15.059,29.689,36.35c4.772,5.208,10.628,10.104,17.146,14.86
		c3.55,2.573,6.84,4.033,9.373,7.871c4.828,7.316,1.51,9.349-5.368,10.899c-11.026,2.502-6.706,9.35-0.039,15.979
		C183.246,208.888,191.173,215.877,199.494,222.473z"/>
	<path fill="#E73D72" d="M307.929,137.665c15.995,15.097,30.943,30.801,38.439,44.653c7.801,13.742,11.417,29.252,11.594,29.091
		c0,0-8.065-13.851-18.554-23.779c-10.264-10.231-26.675-21.381-43.645-37.394c-17.078-15.6-29.059-37.232-28.639-53.836
		c-0.126-16.339,5.674-24.551,5.255-24.585c0.315-0.109-0.884,9.852,3.366,23.163C279.704,108.502,291.824,122.585,307.929,137.665z
		"/>
	<path fill="#E6AECD" d="M379.869,192.999c-5.097,0.829-15.055,10.661-19.741,5.079c-6.56-7.818,14.37-15.524,18.696-16.391
		c9.679-1.512,18.049,6.052,21.734,11.724c4.203,6.018,6.886,11.871,9.575,16.789c5.008,10.032,10.388,16.05,10.388,16.05
		c0.093,0.071-7.47-3.748-15.309-12.482c-6.322-7.042-14.245-21.035-24.779-20.822C380.249,192.946,380.068,192.965,379.869,192.999
		z"/>
	<path fill="#E6AECD" d="M256.833,449.321c-3.335,15.479-2.327,23.349-6.447,24.538c-3.422,1.389-9.353-11.047-5.46-27.219
		c8.178-32.621,37.971-56.67,37.032-57.026C282.746,389.751,263.003,422.178,256.833,449.321z"/>
	<path fill="#E6AECD" d="M286.64,467.371c1.172,17.452,2.199,26.171-1.799,27.527c-3.396,1.311-9.461-10.229-10.373-26.837
		c-3.138-34.631,18.854-69.716,18.986-68.882"/>
	<path fill="#E6AECD" d="M325.906,466.547c6.019,12.03,9.618,17.472,6.797,20.713c-2.219,2.882-11.871-3.049-17.747-15.385
		c-10.693-25.021-11.577-55.456-12.881-55.456C303.05,415.6,316.503,444.857,325.906,466.547z"/>
	<path fill="#E6AECD" d="M330.41,409.444c-10.211-10.474-12.944-17.363-11.115-18.875c2.057-1.697,8.581,4.739,16.879,13.143
		c15.975,17.961,42.223,32.079,42.474,31.851C379.005,436.024,348.174,428.926,330.41,409.444z"/>
</g>
</svg>
