<?xml version="1.0" encoding="utf-8"?>
<!-- Generator: Adobe Illustrator 16.0.0, SVG Export Plug-In . SVG Version: 6.00 Build 0)  -->
<!DOCTYPE svg PUBLIC "-//W3C//DTD SVG 1.1//EN" "http://www.w3.org/Graphics/SVG/1.1/DTD/svg11.dtd">
<svg version="1.1" id="Layer_1" xmlns="http://www.w3.org/2000/svg" xmlns:xlink="http://www.w3.org/1999/xlink" x="0px" y="0px"
	 width="540px" height="540px" viewBox="0 0 540 540" enable-background="new 0 0 540 540" xml:space="preserve">
<g>
	<path fill="#F2772E" d="M295.568,143.377c-7.011,23.555-46.936,64.067-69.676,87.518c-49.934,51.481-101.206,137.416-64.26,210.782
		c8.521,16.924,43.415,33.393,60.034,40.312c8.829-43.271,28.448-69.873,45.727-82.997c17.526-13.296,38.432-9.092,73.84-14.458
		c35.414-5.374,26.562-32.645,22.022-38.429c-4.538-5.775-2.488-8.676,3.71-12.802c6.213-4.136,5.365-10.744,0.42-18.188
		c18.188-9.51,3.713-16.524,2.896-23.971c-0.821-7.43,6.19-12.81,17.342-18.589c11.18-5.79,5.374-19.424,0-25.203
		c-5.358-5.795-24.368-23.143-36.354-36.369c-11.975-13.228-12.394-19.011-13.213-23.962c-0.834-4.961,4.948-13.322-2.766-31.504
		c-6.451-15.242-21.301-33.677-37.644-49.729C298.323,123.147,299.209,131.152,295.568,143.377z"/>
	<path fill="#F2772E" d="M394.01,163.679c0,0,94.883,58.275,88.141,136.269c-6.745,77.995-75.447,136.211-50.19,92.394
		C457.213,348.524,465.653,253.494,394.01,163.679z"/>
	<path fill="#F2772E" d="M423.657,305.488c0,0,37.918,38.87,14.342,90.264c-23.586,51.397-107.926,74.557-77.677,56.046
		C390.576,433.283,439.543,358.2,423.657,305.488z"/>
	<path fill="#F2772E" d="M144.914,163.679c0,0-94.888,58.275-88.142,136.269c6.739,77.995,75.445,136.211,50.194,92.394
		C81.702,348.524,73.264,253.494,144.914,163.679z"/>
	<path fill="#F2772E" d="M115.258,305.488c0,0-37.904,38.87-14.331,90.264c23.58,51.397,107.922,74.557,77.668,56.046
		C148.345,433.283,99.377,358.2,115.258,305.488z"/>
	<path fill="#F2772E" d="M258.111,196.865c-31.899,34.332-81.43,124.429-52.55,184.934c-24.553-37.318-32.65-103.771-8.744-132.649
		C220.734,220.27,283.21,169.84,258.111,196.865z"/>
	<path fill="#CC5229" d="M270,45C145.738,45,45.002,145.735,45.002,269.999C45.002,394.261,145.738,495,270,495
		c124.271,0,224.998-100.739,224.998-225.001C494.998,145.735,394.271,45,270,45z M270,472.966
		c-112.091,0-202.969-90.872-202.969-202.967c0-112.094,90.878-202.967,202.969-202.967c112.096,0,202.969,90.873,202.969,202.967
		C472.969,382.094,382.096,472.966,270,472.966z"/>
</g>
</svg>
