<?xml version="1.0" encoding="utf-8"?>
<!-- Generator: Adobe Illustrator 15.0.0, SVG Export Plug-In . SVG Version: 6.00 Build 0)  -->
<!DOCTYPE svg PUBLIC "-//W3C//DTD SVG 1.1//EN" "http://www.w3.org/Graphics/SVG/1.1/DTD/svg11.dtd">
<svg version="1.1" id="Layer_1" xmlns="http://www.w3.org/2000/svg" xmlns:xlink="http://www.w3.org/1999/xlink" x="0px" y="0px"
	 width="294.317px" height="302.262px" viewBox="0 0 294.317 302.262" enable-background="new 0 0 294.317 302.262"
	 xml:space="preserve">
<g>
	<g>
		<path fill="#FF1733" d="M143.081,22.925c18.563-6.052,37.489-8.042,55.79-6.46c-23.332-4.885-48.23-3.958-72.521,3.965
			C72.939,37.836,37.009,84.094,30.15,136.311h17.114C54.922,85.124,90.533,40.065,143.081,22.925z M150.173,31.062
			c-49.18,16.034-82.869,57.617-91.201,105.25h16.466c9.034-46.625,42.399-87.087,90.762-102.852
			c17.764-5.793,35.883-7.706,53.41-6.195C197.259,22.583,173.438,23.48,150.173,31.062z M119.972,12.462
			c19.354-6.311,39.074-8.384,58.14-6.745c-24.312-5.089-50.269-4.124-75.588,4.131C44.931,28.629,6.841,79.586,1.637,136.311
			h17.737C25.487,80.637,63.256,30.952,119.972,12.462z"/>
	</g>
	<g>
		<path fill="#FF6E86" d="M259.506,217.738c-4.035,19.102-11.771,36.494-22.299,51.562c15.896-17.772,27.539-39.793,32.834-64.792
			c11.617-54.963-10.473-109.213-52.274-141.256L209.22,78.07C249.716,110.295,270.946,163.669,259.506,217.738z M248.912,219.816
			c10.711-50.607-8.465-100.58-45.562-131.604l-8.217,14.254c35.859,31.142,54.211,80.267,43.695,130.04
			c-3.873,18.285-11.283,34.915-21.338,49.344C232.709,264.837,243.845,243.74,248.912,219.816z M280.117,202.965
			c-4.203,19.907-12.261,38.011-23.22,53.718c16.578-18.521,28.691-41.47,34.209-67.52c12.531-59.268-12.541-117.736-59.071-150.608
			l-8.867,15.357C268.314,87.042,292.466,144.602,280.117,202.965z"/>
	</g>
	<g>
		<path fill="#D30010" d="M35.508,222.937c-14.529-13.05-25.716-28.44-33.505-45.082c7.441,22.658,20.684,43.744,39.701,60.832
			c41.783,37.536,99.807,45.534,148.467,25.357l-8.557-14.82C133.448,268.193,76.625,259.884,35.508,222.937z M39.007,212.728
			c38.478,34.572,91.337,42.959,136.74,26.36l-8.215-14.257c-44.898,15.486-96.633,6.816-134.469-27.182
			C19.156,185.159,8.462,170.424,1,154.499C8.13,176.185,20.814,196.375,39.007,212.728z M38.004,248.187
			c-15.144-13.595-26.8-29.631-34.914-46.978c7.744,23.608,21.557,45.589,41.361,63.394
			c45.063,40.489,108.236,47.993,159.979,24.137l-8.865-15.357C144.278,295.92,82.363,288.059,38.004,248.187z"/>
	</g>
</g>
</svg>
