<?xml version="1.0" encoding="utf-8"?>
<!-- Generator: Adobe Illustrator 15.0.0, SVG Export Plug-In . SVG Version: 6.00 Build 0)  -->
<!DOCTYPE svg PUBLIC "-//W3C//DTD SVG 1.1//EN" "http://www.w3.org/Graphics/SVG/1.1/DTD/svg11.dtd">
<svg version="1.1" id="Layer_1" xmlns="http://www.w3.org/2000/svg" xmlns:xlink="http://www.w3.org/1999/xlink" x="0px" y="0px"
	 width="293.316px" height="298.768px" viewBox="0 0 293.316 298.768" enable-background="new 0 0 293.316 298.768"
	 xml:space="preserve">
<g>
	<g>
		<path fill="#0D77BF" d="M142.08,19.881c18.561-6.052,37.488-8.042,55.79-6.46c-23.332-4.885-48.23-3.958-72.521,3.965
			c-53.411,17.406-89.341,63.664-96.2,115.88h17.114C53.921,82.079,89.531,37.02,142.08,19.881z M149.173,28.016
			c-49.18,16.034-82.869,57.617-91.201,105.25h16.466c9.034-46.625,42.399-87.087,90.761-102.852
			c17.765-5.793,35.884-7.706,53.409-6.195C196.258,19.539,172.435,20.435,149.173,28.016z M118.971,9.418
			c19.354-6.312,39.074-8.384,58.139-6.745c-24.312-5.089-50.268-4.124-75.587,4.131C43.93,25.585,5.84,76.542,0.636,133.265h17.737
			C24.485,77.593,62.255,27.907,118.971,9.418z"/>
	</g>
	<g>
		<path fill="#43BCFF" d="M258.505,214.692c-4.035,19.103-11.771,36.494-22.299,51.563c15.896-17.772,27.539-39.793,32.834-64.792
			c11.617-54.961-10.475-109.212-52.273-141.255l-8.547,14.818C248.715,107.251,269.944,160.624,258.505,214.692z M247.911,216.77
			c10.711-50.606-8.465-100.58-45.563-131.603l-8.217,14.254c35.859,31.142,54.211,80.266,43.695,130.04
			c-3.873,18.285-11.283,34.915-21.338,49.344C231.708,261.792,242.844,240.694,247.911,216.77z M279.116,199.92
			c-4.203,19.907-12.262,38.011-23.221,53.718c16.578-18.521,28.691-41.47,34.209-67.52c12.531-59.268-12.541-117.736-59.07-150.608
			l-8.867,15.357C267.311,83.998,291.465,141.556,279.116,199.92z"/>
	</g>
	<g>
		<path fill="#034A84" d="M34.507,219.892c-14.529-13.05-25.716-28.439-33.505-45.082c7.44,22.658,20.684,43.744,39.7,60.832
			c41.783,37.535,99.808,45.534,148.467,25.357l-8.558-14.82C132.446,265.147,75.624,256.839,34.507,219.892z M38.007,209.683
			c38.478,34.572,91.337,42.959,136.74,26.36l-8.216-14.257c-44.897,15.485-96.632,6.815-134.468-27.183
			C18.155,182.114,7.461,167.378,0,151.453C7.129,173.14,19.812,193.329,38.007,209.683z M37.003,245.142
			c-15.145-13.595-26.801-29.631-34.914-46.978c7.744,23.607,21.557,45.589,41.36,63.394
			c45.063,40.488,108.236,47.992,159.979,24.138l-8.865-15.357C143.276,292.874,81.361,285.013,37.003,245.142z"/>
	</g>
</g>
</svg>
