<?xml version="1.0" encoding="utf-8"?>
<!-- Generator: Adobe Illustrator 16.0.0, SVG Export Plug-In . SVG Version: 6.00 Build 0)  -->
<!DOCTYPE svg PUBLIC "-//W3C//DTD SVG 1.1//EN" "http://www.w3.org/Graphics/SVG/1.1/DTD/svg11.dtd">
<svg version="1.1" id="Layer_1" xmlns="http://www.w3.org/2000/svg" xmlns:xlink="http://www.w3.org/1999/xlink" x="0px" y="0px"
	 width="540px" height="540px" viewBox="0 0 540 540" enable-background="new 0 0 540 540" xml:space="preserve">
<g>
	<path fill="#CCCCCC" d="M270,421.259c47.434,0,98.441-1.89,140.903-6.454c32.732-3.521,65.309-9.299,71.424-17.318
		c0.653-0.856,0.985-1.724,0.985-2.592c0-0.866-0.332-1.731-0.985-2.589c-5.902-7.743-36.431-13.394-67.974-16.94
		c-44.261,20.912-95.826,29.783-144.354,29.783c-48.528,0-100.096-8.871-144.358-29.783c-31.542,3.547-62.071,9.194-67.973,16.94
		c-0.652,0.856-0.982,1.723-0.982,2.589c0,0.868,0.331,1.734,0.982,2.592c6.116,8.021,38.687,13.799,71.426,17.318
		C171.558,419.369,222.566,421.259,270,421.259z"/>
	<path fill="#EF5E8B" d="M270,130.429c47.434,0,98.441,9.012,140.903,30.753c32.732,16.767,65.309,44.32,71.424,82.573
		c0.653,4.082,0.985,8.212,0.985,12.345c0,4.131-0.332,8.263-0.985,12.341c-6.112,38.252-38.681,65.808-71.421,82.573
		c-42.463,21.747-93.473,30.759-140.906,30.759c-47.436,0-98.445-9.012-140.906-30.759c-32.739-16.766-65.307-44.32-71.425-82.573
		c-0.652-4.08-0.982-8.21-0.982-12.341c0-4.133,0.331-8.264,0.982-12.347c6.116-38.251,38.687-65.808,71.426-82.571
		C171.558,139.44,222.566,130.429,270,130.429z"/>
	<path fill="#C13668" d="M270,126.177c40.544,0,83.691,6.582,121.884,22.071c6.948,2.86,13.735,6.022,20.322,9.488
		c14.569,7.669,28.873,17.359,41.112,29.075c14.636,14.421,25.7,31.987,29.009,52.69c0.653,4.083,0.985,8.213,0.985,12.345
		c0,4.134-0.332,8.264-0.985,12.345c-6.112,38.25-38.681,65.808-71.421,82.57c-42.463,21.744-93.473,30.754-140.906,30.754v-4.373
		c106.178,0,192.289-49.294,192.289-110.085c0-60.789-86.109-110.085-192.289-110.085V126.177L270,126.177z M270,343.444
		l97.736-100.502c33.66,7.351,51.031,33.46,42.332,64.398c16.265-12.807,25.69-27.992,25.69-44.284
		c0-29.968-31.885-56.224-79.623-70.762L270,280.865V343.444z M270,377.516c-47.436,0-98.445-9.01-140.906-30.754
		c-32.739-16.763-65.307-44.318-71.425-82.572c-0.652-4.081-0.982-8.209-0.982-12.343c0-4.132,0.331-8.264,0.982-12.346
		c3.31-20.677,14.349-38.229,28.959-52.64c12.248-11.738,26.571-21.444,41.16-29.125c6.567-3.458,13.341-6.611,20.265-9.468
		c38.211-15.505,81.381-22.092,121.942-22.092v26.795c-106.18,0-192.29,49.294-192.29,110.084
		c0,60.79,86.112,110.086,192.292,110.086v4.373L270,377.516L270,377.516z M270,280.865l-86.139-88.574
		c-47.741,14.539-79.625,40.795-79.625,70.763c0,16.289,9.431,31.477,25.695,44.284c-8.699-30.936,8.671-57.046,42.332-64.398
		L270,343.444V280.865z"/>
	
		<linearGradient id="SVGID_1_" gradientUnits="userSpaceOnUse" x1="-129.6401" y1="243.4956" x2="-129.6402" y2="505.1052" gradientTransform="matrix(1 0 0 -1 399.6401 493.0547)">
		<stop  offset="0" style="stop-color:#231F20"/>
		<stop  offset="0.0469" style="stop-color:#282425"/>
		<stop  offset="0.467" style="stop-color:#4D4C4E"/>
		<stop  offset="0.7991" style="stop-color:#646567"/>
		<stop  offset="1" style="stop-color:#6D6E70"/>
	</linearGradient>
	<path fill="url(#SVGID_1_)" d="M270,118.741c49.23,0,102.126,9.454,146.23,32.037c36.224,18.547,70.886,48.919,77.64,91.127
		c0.748,4.694,1.13,9.442,1.13,14.194c0,4.751-0.382,9.496-1.13,14.188c-6.747,42.207-41.415,72.582-77.64,91.133
		c-44.104,22.582-97,32.034-146.23,32.034v-27.271c109.182,0,197.726-49.299,197.726-110.085
		c0-60.79-88.544-110.085-197.726-110.085V118.741L270,118.741z M270,336.486l100.5-100.504
		c34.615,7.353,52.474,33.46,43.527,64.401c16.727-12.813,26.425-27.996,26.425-44.284c0-29.969-32.791-56.225-81.879-70.763
		L270,273.91V336.486z M270,393.455c-49.235,0-102.129-9.455-146.232-32.034c-36.223-18.55-70.889-48.926-77.639-91.133
		C45.379,265.596,45,260.851,45,256.1c0-4.754,0.379-9.5,1.129-14.194c6.75-42.21,41.416-72.58,77.642-91.127
		c44.102-22.585,96.996-32.037,146.229-32.037v27.273c-109.183,0-197.728,49.295-197.728,110.085
		c0,60.787,88.545,110.085,197.728,110.085V393.455L270,393.455z M270,273.91l-88.575-88.573
		c-49.088,14.538-81.878,40.794-81.878,70.763c0,16.289,9.698,31.473,26.422,44.284c-8.944-30.941,8.917-57.049,43.527-64.401
		L270,336.486V273.91z"/>
</g>
</svg>
