<?xml version="1.0" encoding="utf-8"?>
<!-- Generator: Adobe Illustrator 16.0.0, SVG Export Plug-In . SVG Version: 6.00 Build 0)  -->
<!DOCTYPE svg PUBLIC "-//W3C//DTD SVG 1.1//EN" "http://www.w3.org/Graphics/SVG/1.1/DTD/svg11.dtd">
<svg version="1.1" id="Layer_1" xmlns="http://www.w3.org/2000/svg" xmlns:xlink="http://www.w3.org/1999/xlink" x="0px" y="0px"
	 width="540px" height="540px" viewBox="0 0 540 540" enable-background="new 0 0 540 540" xml:space="preserve">
<g>
	<polygon fill="#94FCCD" points="479.754,225.67 317.03,103.636 145.845,229.91 132.278,229.91 132.278,219.749 314.494,80.75 
		488.225,210.423 	"/>
	<path fill="#6DCCD0" d="M495,215.508v16.952c0,0-61.854,106.774-337.312,112.721l34.758-27.12
		C192.452,318.059,443.313,320.602,495,215.508z"/>
	<path fill="#6DCCD0" d="M494.899,251.951v19.163c0,0-71.023,120.736-387.215,127.445l39.872-30.662
		C147.556,367.898,435.563,370.761,494.899,251.951z"/>
	<path fill="#6DCCD0" d="M494.549,287.525v22.461c0,0-82.473,141.412-449.549,149.264l46.295-35.924
		C91.295,423.326,425.641,426.693,494.549,287.525z"/>
	<g>
		<rect x="297.953" y="146.71" fill="#00FFD4" width="16.951" height="16.952"/>
		<rect x="321.551" y="146.71" fill="#00FFD4" width="16.932" height="16.952"/>
		<rect x="297.953" y="168.492" fill="#00FFD4" width="16.951" height="16.935"/>
		<rect x="321.551" y="168.492" fill="#00FFD4" width="16.932" height="16.935"/>
	</g>
</g>
</svg>
