<?xml version="1.0" encoding="utf-8"?>
<!-- Generator: Adobe Illustrator 16.0.0, SVG Export Plug-In . SVG Version: 6.00 Build 0)  -->
<!DOCTYPE svg PUBLIC "-//W3C//DTD SVG 1.1//EN" "http://www.w3.org/Graphics/SVG/1.1/DTD/svg11.dtd">
<svg version="1.1" id="Layer_1" xmlns="http://www.w3.org/2000/svg" xmlns:xlink="http://www.w3.org/1999/xlink" x="0px" y="0px"
	 width="540px" height="540px" viewBox="0 0 540 540" enable-background="new 0 0 540 540" xml:space="preserve">
<g>
	<path fill="#F6762E" d="M417.014,216.163c0,0,0.493,0.713,1.426,2.051c0.914,1.349,2.335,3.263,3.961,5.844
		c0.821,1.284,1.768,2.694,2.734,4.261c0.951,1.579,1.976,3.287,3.072,5.112c1.041,1.86,2.15,3.842,3.319,5.928
		c1.144,2.104,2.261,4.363,3.476,6.703c1.136,2.373,2.325,4.853,3.501,7.447c1.097,2.624,2.36,5.299,3.416,8.145
		c2.302,5.625,4.298,11.73,6.234,18.123c1.799,6.426,3.423,13.169,4.628,20.147c1.147,6.983,1.983,14.177,2.295,21.457
		c0.26,7.276,0.06,14.621-0.645,21.867c-0.798,7.237-2.1,14.351-3.85,21.174c-1.893,6.78-4.072,13.308-6.759,19.278
		c-0.608,1.524-1.342,2.958-2.043,4.392c-0.71,1.426-1.388,2.849-2.099,4.22c-1.55,2.67-2.931,5.348-4.508,7.759
		c-3.056,4.882-6.18,9.173-9.122,12.837c-1.502,1.801-2.896,3.518-4.23,5.052c-1.388,1.486-2.663,2.853-3.814,4.086
		c-1.14,1.257-2.216,2.312-3.175,3.201c-0.954,0.904-1.76,1.674-2.416,2.3c-1.313,1.247-2.017,1.911-2.017,1.911l-18.441-23.192
		c0,0,0.62-0.451,1.788-1.299c0.588-0.424,1.312-0.948,2.165-1.561c0.866-0.6,1.834-1.32,2.859-2.194
		c1.05-0.852,2.213-1.799,3.475-2.824c1.202-1.096,2.502-2.285,3.893-3.553c2.731-2.591,5.68-5.668,8.663-9.247
		c1.543-1.761,2.908-3.763,4.478-5.75c0.706-1.047,1.426-2.113,2.155-3.191c0.729-1.086,1.501-2.174,2.152-3.352
		c2.869-4.582,5.388-9.743,7.772-15.234c2.241-5.553,4.183-11.495,5.736-17.707c1.457-6.235,2.519-12.719,3.171-19.302
		c0.599-6.59,0.723-13.262,0.532-19.859c-0.243-6.602-0.917-13.109-1.798-19.404c-1.019-6.26-2.134-12.344-3.618-18.021
		c-0.646-2.868-1.514-5.59-2.235-8.269c-0.795-2.652-1.626-5.201-2.417-7.654c-0.873-2.422-1.664-4.77-2.505-6.969
		c-0.867-2.191-1.69-4.271-2.467-6.225c-0.835-1.932-1.615-3.741-2.341-5.413c-0.74-1.664-1.481-3.163-2.12-4.538
		c-1.258-2.757-2.417-4.854-3.145-6.31C417.409,216.937,417.014,216.163,417.014,216.163z"/>
	<path fill="#F6762E" d="M390.436,245.631c0,0,0.481,0.724,1.383,2.079c0.887,1.367,2.268,3.311,3.842,5.926
		c0.794,1.3,1.712,2.728,2.648,4.314c0.915,1.6,1.908,3.326,2.969,5.173c1.005,1.881,2.069,3.883,3.197,5.996
		c1.101,2.126,2.171,4.408,3.338,6.772c1.089,2.397,2.226,4.899,3.349,7.516c1.042,2.648,2.251,5.348,3.248,8.213
		c2.187,5.674,4.059,11.819,5.865,18.249c1.664,6.46,3.155,13.236,4.212,20.237c1.006,7.006,1.694,14.216,1.857,21.499
		c0.11,7.283-0.24,14.621-1.088,21.854c-0.95,7.217-2.393,14.303-4.278,21.094c-2.031,6.735-4.342,13.22-7.152,19.134
		c-0.637,1.507-1.402,2.932-2.131,4.345c-0.735,1.413-1.444,2.822-2.183,4.179c-1.602,2.64-3.038,5.286-4.662,7.66
		c-3.154,4.822-6.369,9.051-9.383,12.652c-1.543,1.771-2.969,3.456-4.336,4.967c-1.421,1.458-2.722,2.797-3.901,4.007
		c-1.165,1.231-2.26,2.265-3.236,3.134c-0.969,0.885-1.792,1.639-2.461,2.248c-1.34,1.217-2.059,1.872-2.059,1.872l-17.966-23.563
		c0,0,0.631-0.44,1.818-1.265c0.597-0.41,1.33-0.919,2.192-1.514c0.879-0.584,1.865-1.284,2.904-2.137
		c1.067-0.832,2.247-1.752,3.532-2.756c1.226-1.071,2.547-2.23,3.962-3.471c2.783-2.534,5.795-5.551,8.852-9.068
		c1.577-1.727,2.987-3.701,4.595-5.66c0.727-1.028,1.469-2.079,2.221-3.146c0.748-1.074,1.542-2.144,2.221-3.309
		c2.961-4.523,5.583-9.633,8.076-15.072c2.357-5.504,4.418-11.404,6.102-17.589c1.582-6.199,2.774-12.663,3.561-19.234
		c0.732-6.574,0.994-13.242,0.938-19.846c-0.11-6.603-0.649-13.118-1.402-19.43c-0.893-6.283-1.883-12.39-3.25-18.095
		c-0.588-2.882-1.4-5.618-2.065-8.314c-0.745-2.665-1.519-5.232-2.262-7.702c-0.824-2.439-1.566-4.802-2.358-7.016
		c-0.827-2.21-1.606-4.306-2.34-6.272c-0.794-1.95-1.542-3.775-2.232-5.462c-0.706-1.679-1.414-3.192-2.024-4.578
		c-1.2-2.783-2.32-4.904-3.015-6.373C390.817,246.412,390.436,245.631,390.436,245.631z"/>
	<path fill="#F6762E" d="M455.829,196.615c0,0,0.349,0.711,1.029,2.09c0.67,1.382,1.713,3.419,2.972,6.106
		c1.306,2.666,2.584,6.137,4.279,10.176c0.887,2.021,1.548,4.247,2.395,6.609c0.755,2.382,1.746,4.882,2.43,7.607
		c0.746,2.726,1.535,5.598,2.359,8.61c0.648,3.063,1.325,6.27,2.032,9.61c0.683,3.357,1.123,6.893,1.684,10.565
		c0.313,1.834,0.455,3.713,0.636,5.629c0.177,1.917,0.358,3.871,0.543,5.852c0.369,3.973,0.36,8.087,0.523,12.342
		c0.006,4.244-0.141,8.623-0.276,13.131c-0.611,8.977-1.617,18.458-3.614,28.209c-0.503,2.435-0.91,4.932-1.539,7.396
		c-0.647,2.462-1.303,4.947-1.96,7.458c-0.346,1.252-0.64,2.532-1.028,3.78c-0.404,1.25-0.807,2.503-1.213,3.763
		c-0.823,2.523-1.652,5.069-2.488,7.636c-0.975,2.521-1.96,5.06-2.951,7.622c-0.511,1.276-1.021,2.559-1.536,3.849
		c-0.577,1.259-1.157,2.523-1.739,3.792c-0.586,1.271-1.171,2.546-1.759,3.827l-0.89,1.922l-0.443,0.966l-0.223,0.484
		c-0.108,0.207,0.088-0.124-0.273,0.528l-0.116,0.224c-1.234,2.367-2.479,4.758-3.732,7.162l-0.941,1.807l-1.123,1.929
		c-0.764,1.293-1.529,2.591-2.296,3.888c-0.783,1.296-1.563,2.594-2.352,3.9c-0.816,1.232-1.636,2.471-2.459,3.707
		c-3.217,5.01-6.839,9.826-10.516,14.701c-7.503,9.645-16.169,18.735-25.647,27.271c-9.474,8.546-19.959,16.329-31.221,23.198
		c-2.849,1.657-5.654,3.421-8.582,4.986c-2.941,1.537-5.859,3.151-8.859,4.626c-3.021,1.426-6.064,2.831-9.138,4.189
		c-3.117,1.252-6.244,2.51-9.377,3.77c-12.653,4.718-25.856,8.43-39.406,10.616c-13.538,2.229-27.365,3.174-41.174,2.756
		c-27.605-1.003-55.087-7.604-79.585-19.341c-1.53-0.729-3.084-1.409-4.589-2.183l-4.479-2.375l-4.461-2.38l-0.678-0.378
		l-0.247-0.146l-0.494-0.301l-0.989-0.593l-1.977-1.194l-3.927-2.413l-0.982-0.604l-1.081-0.732l-2.162-1.468
		c-2.831-1.971-5.859-3.893-8.4-5.934c-10.626-7.939-20.429-16.729-28.956-26.342c-17.203-19.121-29.803-40.79-38.168-62.417
		c-8.188-21.735-12.317-43.363-13.146-63.277c-0.506-9.953-0.122-19.488,0.684-28.455c0.505-4.485,0.946-8.836,1.709-13.026
		c0.357-2.095,0.636-4.163,1.048-6.184c0.438-2.011,0.871-3.992,1.298-5.941c3.513-15.557,8.396-28.518,13.157-38.729
		c0.592-1.28,1.13-2.534,1.718-3.727c0.612-1.184,1.2-2.333,1.775-3.447c1.174-2.215,2.223-4.303,3.315-6.188
		c2.25-3.738,4.046-6.949,5.688-9.447c1.639-2.501,2.952-4.375,3.812-5.648c0.867-1.267,1.313-1.921,1.313-1.921
		s-1.119,2.962-3.217,8.515c-1.063,2.755-2.125,6.256-3.497,10.279c-0.659,2.024-1.207,4.26-1.893,6.591
		c-0.34,1.165-0.69,2.366-1.049,3.604c-0.342,1.242-0.621,2.544-0.948,3.867c-2.623,10.552-5.057,23.5-6.018,38.356
		c-0.967,14.833-0.638,31.578,2.457,49.281c0.185,1.104,0.37,2.215,0.556,3.332c0.229,1.108,0.458,2.223,0.688,3.344
		c0.489,2.233,0.889,4.5,1.45,6.754c0.581,2.245,1.165,4.511,1.759,6.8c0.594,2.285,1.378,4.535,2.062,6.831
		c2.923,9.117,6.427,18.352,10.888,27.398c8.899,18.084,21.052,35.607,36.381,50.844c7.701,7.57,16.155,14.582,25.301,20.799
		c2.274,1.684,4.497,2.89,6.733,4.342l1.674,1.052l0.839,0.53l1,0.556l4.026,2.239l2.008,1.136l1.006,0.57l0.5,0.282l0.254,0.145
		c-0.729-0.409-0.069-0.047-0.168-0.109l3.762,1.87l3.766,1.88c1.261,0.613,2.569,1.133,3.854,1.702
		c20.582,9.012,43.092,14.346,65.889,15.002c22.789,0.902,45.743-2.798,67.135-10.101c2.652-0.988,5.299-1.973,7.938-2.954
		c2.597-1.095,5.191-2.19,7.773-3.285c2.569-1.128,5.075-2.387,7.614-3.564c2.525-1.204,4.941-2.604,7.414-3.884
		c9.748-5.396,18.896-11.609,27.45-18.336c8.543-6.75,16.337-14.171,23.512-21.91c3.479-3.959,6.954-7.879,10.076-12.013
		c0.797-1.018,1.595-2.03,2.387-3.044c0.722-1.011,1.438-2.018,2.153-3.025c0.729-1,1.451-1.999,2.176-2.993l1.092-1.499l1.107-1.71
		c1.472-2.278,2.936-4.537,4.389-6.781c1.205-2.075,2.406-4.137,3.595-6.182c0.621-1.071,1.243-2.138,1.858-3.199
		c0.558-1.091,1.114-2.18,1.666-3.266c1.122-2.168,2.234-4.32,3.335-6.454c4.04-8.704,7.688-17.316,10.364-25.89
		c5.662-17.069,8.646-33.563,9.815-48.383c1.185-14.824,0.857-28.008-0.28-38.815c-0.146-2.729-0.631-5.251-0.912-7.67
		c-0.341-2.4-0.499-4.719-0.93-6.779c-0.782-4.159-1.284-7.768-1.998-10.658c-0.695-2.886-1.16-5.124-1.5-6.623
		C455.999,197.388,455.829,196.615,455.829,196.615z"/>
	<g>
		<path fill="#F59823" d="M346.035,211.34c0,0-41.766-34.255-48.011,21.256c-6.253,55.508-4.977,133.684-73.085,160.79
			c0,0,51.944-41.017,16.086-111.303c-18.853-36.952-54.499-99.355-5.712-129.28c44.384-27.226,95.482,13.964,110.047,56.215
			C345.621,209.78,345.893,210.544,346.035,211.34z"/>
		<path fill="#CA502B" d="M326.693,213.778c0,0-8.66,3.427-2.053,20.131c6.609,16.705,21.608,57.841-17.994,56.949
			c1.618-8.772,1.967-15.004,2.625-23.91c0.554-7.482,0.758-17.417,0.963-24.855c0.229-8.193,2.879-24.853,11.904-28.426
			C323.605,213.086,324.716,212.922,326.693,213.778z"/>
		<path fill="#F59823" d="M346.035,211.34c0,0,2.28-48.213-53.904-84.011c-56.184-35.798-138.825-25.945-170.967,23.482
			c0,0,75.565-74.112,167.149,3.541l1.048,18.375C289.364,172.726,336.899,199.239,346.035,211.34z"/>
		<path fill="#CA502B" d="M339.944,160.936c0,0,56.665-46.43-14.671-95.243c-71.336-48.812-17.545,2.439-24.242,14.592
			c-6.696,12.154-20.125-23.051-60.022-25.274c-39.899-2.222-7.463,8.955-0.438,24.183c7.025,15.229-5.334-5.894-38.491-8.781
			c-33.157-2.889-9.777,4.368-6.274,14.488c3.505,10.12-5.626-4.108-31.923-1.876c-26.296,2.233-2.017,7.968-10.578,18.358
			c-8.561,10.391-23.83,7.364-16.08,24.34c0,0,44.486-44.927,112.455-27.53C314.461,114.774,339.944,160.936,339.944,160.936z"/>
	</g>
	<path fill="#F6762E" d="M304.297,318.321c0,0,0.161,1.277,0.463,3.669c0.252,2.393,0.568,5.96,0.581,10.5
		c0.048,4.549-0.232,10.103-1.16,16.444c-0.973,6.324-2.559,13.455-5.221,20.989c-1.351,3.755-2.903,7.64-4.791,11.544
		c-1.907,3.89-4.055,7.848-6.52,11.782c-5.013,7.795-11.161,15.596-18.676,22.581c-7.437,7.072-16.169,13.339-25.758,18.465
		l-3.635,1.866l-0.114,0.06c-0.091,0.04,0.044-0.015-0.235,0.108l-0.206,0.114l-0.418,0.234l-0.833,0.461
		c-0.569,0.314-1.076,0.615-1.705,0.921c-2.604,1.278-5.1,2.46-7.672,3.527c-5.145,2.167-10.54,3.878-16.063,5.212
		c-11.06,2.559-22.689,3.343-33.946,2.07c-11.267-1.194-22.12-4.333-31.848-8.816c-4.859-2.26-9.479-4.782-13.738-7.631
		c-4.283-2.807-8.252-5.848-11.859-9.065c-3.645-3.174-6.929-6.528-9.879-9.931c-2.99-3.369-5.569-6.87-7.91-10.279
		c-2.343-3.409-4.306-6.853-6.071-10.142c-1.703-3.332-3.183-6.538-4.407-9.606c-2.428-6.148-3.975-11.657-4.902-16.241
		c-0.954-4.575-1.357-8.208-1.55-10.683c-0.102-1.237-0.131-2.192-0.151-2.834c-0.024-0.641-0.034-0.972-0.034-0.972
		s0.707,1.111,2.036,3.194c1.317,2.065,3.247,5.065,5.771,8.727c2.546,3.649,5.677,7.968,9.518,12.578
		c1.926,2.302,3.98,4.707,6.259,7.111c2.212,2.454,4.705,4.859,7.291,7.314c2.59,2.457,5.425,4.835,8.353,7.228
		c2.968,2.359,6.127,4.635,9.417,6.845c1.647,1.105,3.367,2.144,5.103,3.175c1.721,1.053,3.503,2.049,5.317,3.015
		c3.662,1.868,7.423,3.68,11.352,5.233c3.952,1.485,7.979,2.933,12.161,4.013c4.188,1.028,8.44,2.016,12.808,2.561
		c8.711,1.17,17.735,1.307,26.78,0.218c4.541-0.444,9.056-1.322,13.574-2.342c2.271-0.496,4.525-1.123,6.628-1.713l3.467-1.065
		l3.222-1.311c8.493-3.678,16.506-8.265,23.597-13.693c3.536-2.72,6.915-5.562,10.034-8.568c3.114-3.011,5.989-6.153,8.65-9.347
		c2.66-3.2,5.059-6.482,7.255-9.761c2.156-3.303,4.12-6.593,5.864-9.845c3.424-6.537,6.038-12.869,7.927-18.654
		c1.937-5.784,3.14-11.014,3.975-15.366c0.431-2.176,0.709-4.142,0.984-5.851c0.212-1.711,0.426-3.172,0.553-4.371
		C304.17,319.602,304.297,318.321,304.297,318.321z"/>
</g>
</svg>
