<?xml version="1.0" encoding="utf-8"?>
<!-- Generator: Adobe Illustrator 16.0.0, SVG Export Plug-In . SVG Version: 6.00 Build 0)  -->
<!DOCTYPE svg PUBLIC "-//W3C//DTD SVG 1.1//EN" "http://www.w3.org/Graphics/SVG/1.1/DTD/svg11.dtd">
<svg version="1.1" id="Layer_1" xmlns="http://www.w3.org/2000/svg" xmlns:xlink="http://www.w3.org/1999/xlink" x="0px" y="0px"
	 width="540px" height="540px" viewBox="0 0 540 540" enable-background="new 0 0 540 540" xml:space="preserve">
<path fill="#FA6D72" d="M270.055,270.165l-0.002-0.273c-0.056-0.002-0.052-0.078-0.107-0.051L270.055,270.165z"/>
<polygon fill="#FA6D72" points="269.834,270.138 270.166,270.153 270.062,269.847 "/>
<polygon fill="#FA6D72" points="269.904,269.955 269.928,270.045 270.096,269.961 "/>
<polygon fill="#FA6D72" points="269.912,270.04 269.968,270.052 270.088,269.948 "/>
<polygon fill="#FA6D72" points="270.166,269.86 269.834,269.988 270.105,270.14 "/>
<line fill="none" x1="269.806" y1="270.08" x2="270.194" y2="269.92"/>
<g>
	<polygon fill="#FA6D72" points="278.687,276.129 278.645,275.909 278.125,276.389 	"/>
	<line fill="none" x1="278.318" y1="259.057" x2="279.306" y2="258.452"/>
	<polygon fill="#FA6D72" points="278.781,274.421 279.074,274.886 279.199,274.576 	"/>
	<line fill="none" x1="279.943" y1="278.476" x2="278.976" y2="277.255"/>
	<line fill="none" x1="279.487" y1="282.411" x2="279.007" y2="282.31"/>
	<line fill="none" x1="280.309" y1="282.493" x2="280.089" y2="283.173"/>
	<polygon fill="#FA6D72" points="314.416,284.257 314.377,284.144 313.741,284.423 	"/>
	<g>
		<path fill="#FA6D72" d="M353.335,120.578c0.063,0.113-0.08,0.107-0.106,0.176l0.612-0.077L353.335,120.578z"/>
		<line fill="none" x1="362.287" y1="96.13" x2="362.678" y2="96.849"/>
		<path fill="#FA6D72" d="M333.831,136.731l3.283,1.388l0.082,0.255c0.196,0.101,0.411,0.021,0.632,0.041l0.992,0.421l1.334-1.045
			c0.274-0.183,0.518-0.371,0.762-0.599l3.306-2.598l0.432-1.199c0.25-0.654,0.577-1.358,0.84-2.028l0.126,0.417l0.561-0.433
			l-0.037-0.553l0.396,0.18l0.841-2.143l-0.529,0.147l0.482-1.407l0.562,0.283l-0.025-0.429l0.591,0.487
			c-0.812-0.572,0.23-1.401,0.179-1.67l0.09,0.124c0.59-0.581-0.425-0.036-0.244-0.514l1.243-0.1l1.156-2.7l0.156-2.177l0.623-0.354
			c0.484,0.382,1.411,0.022,1.285,0.9c-0.369-0.481,0.126-0.483,0.29-0.688l-0.616,0.059c-0.731,0.103,0.415-1.096-0.523-0.884
			l1.182-2.574l0.646,0.436l0.238-2.089l-0.959-0.211l-0.035-0.567l1.49-0.208c0.638,0.483-0.566,1.073,0.287,1.093l-0.509,1.86
			c0.375,0.866,0.273-0.433,0.83-0.043l0.229-1.807l-0.556-0.374c-0.332-1.014,0.84-0.727,0.954-0.88l0.017,0.429l0.303-1.237
			c0.891,0.205-0.231,0.854,0.177,1.274l0.761-0.127l-0.028-1.222l0.261,0.224l0.025-0.592l-0.938,0.236
			c-0.68-0.618,0.066-0.448,0.181-1.209l-0.534,0.139l-0.189-0.967l1.024-0.186l-0.33,0.445c0.18,0.902,1.065,0.098,1.195,0.716
			l-0.046-1.227l-0.688,0.03c-0.819-1.438,1.154-0.212,1.319-1.197c-0.856-0.144-0.606-1.644-1.755-1.363l0.063-0.797l0.929,0.408
			l0.139-0.328l0.438,0.748l1.46-0.748l-0.481-0.658l0.671-0.182c-0.416,0.389-0.76-0.293-0.776-0.663l0.967-0.542l0.277,0.647
			l0.241-0.502l-0.942-0.892l0.448-0.557l0.126,0.612l0.952-0.551l-0.353-0.331l0.438,0.093l-0.077-0.773l0.296,0.063
			c-0.07-0.338-0.554-0.927,0.137-1.043l-0.638,0.68l-0.306-0.768c0.711,0.31,0.362-0.681,0.518-1.002l0.719-0.279l-0.417-0.319
			c0.973,0.23,0.098-0.713,0.474-1.019l0.836,0.182l-1.201-0.981c0.434-0.637,0.847,0.483,1.39,0.439l-0.064-1.16l-0.703-0.454
			l0.647-0.159l-0.787-0.488l0.229-1.256l-0.516-0.957l-0.994-0.657c0.006-0.072,0.038-0.125,0.044-0.184
			c0.082,0.162,0.178,0.482,0.583,0.37l0.017-0.38c0.908-0.292,0.984,1.461,1.752,1.161l-0.152-0.48l0.827,0.299l-0.024-1.11
			l-0.277,0.214l-0.258-1.447l0.875,0.252l-0.127-0.643l0.248,0.124c0.541-1.714,1.057-3.901,0.309-5.592l1.28-1.519l-0.483-0.305
			l0.637-0.315l-0.077-1.705l0.443-0.063l-0.276-0.698l0.468-0.229l-0.372-0.111c-0.104-0.482-0.126-1.111,0.514-0.97l-0.414-0.178
			l-0.01-2.605l-0.697,0.352l-0.291-0.531l0.678,0.045c0.788-1.109,0.003-2.729,0.086-4.152l-0.416-0.309l0.062-2.997l-1.114-0.476
			c-0.582-0.496,0.738-0.35,1.037-0.926l-0.355-0.921l0.096-0.01l-0.297-1.169l0.064,0.063l0.269-1.092l-0.748-0.985l0.177-0.122
			l-0.416,0.087l0.19-0.727l0.476,0.232c0.238-0.78-0.396-0.127-0.641-0.42c-3.106-2.688-1.153-0.962-1.971-1.822
			c0.988,0.462-1.393-1.353,2.217,1.538c2.202,1.49-2.366-2.142-2.011-1.88l-0.51,0.368l-0.884-0.434l-0.737,0.368l0.685,0.551
			l-0.665-0.06l-0.354,0.27l-0.419-0.621l-1.037,0.358l-0.345-1.146l-0.618,0.45l-0.331-0.372l-1.997,0.787l-0.129-0.391
			l-0.365,0.229c-0.687-1.281-2.487-0.448-3.659-1.089l-0.819,0.401c0.104-0.709-0.688,0.091-0.992-0.36l0.124,0.714
			c-0.72-0.456-1.275,0.992-1.691,0.125l0.375-0.608c-0.549-1.274-4.678,3.488-3.464,2.312l0.808,0.698l-1.15,0.771l-0.175,0.787
			l-0.168-0.409l-0.166,1.594l-1.236,1.658c0.484,0.589-0.623,0.911,0.17,1.269l-0.279,0.002l0.526,1.015l-0.483-0.294l-0.803,0.734
			l0.251,0.503l0.067,0.415l0.058,0.867l-0.549-0.207l-0.303,1.004c-0.054,0.023-0.101,0.069-0.124,0.24l-0.414,0.478l-0.387-0.253
			l0.323,1.117c-0.796,0.903-1.047,2.846-0.999,3.38l-0.083-0.254l-0.111,0.776l-0.592,0.651l0.377,0.071
			c-0.953,0.592-0.301,2.044-1.105,2.881l-0.253-0.556l0.077,2.545l-0.383-0.409l-0.021,1.275c0.376-0.012,0.5,0.545,0.313,0.828
			l-0.1-0.026l-0.158,1.148l-0.314-0.285l-0.976,1.107l0.321,0.44l-0.525,0.331l0.769,1.489l-0.04,0.106l-0.715-0.304l0.325,1.322
			l-0.834,2.252l-0.735-0.521l-0.948,2.146c0.84-0.162,0.297,0.758,0.663,1.114l-0.087,0.206l-0.809,0.375l-0.738,2.405
			l-0.128-0.077l-0.273,2.558l-0.05,0.126l-0.298-0.25l0.065,0.841l-0.075,0.191l-0.161-0.197l-0.387,1.686l-0.004,0.021
			l-0.271-0.33l-0.066,1.195l-0.179,0.501l-0.335-0.281l-0.019,1.195l-0.021,0.045l-0.433,0.186l-0.044,1.114l-0.148,0.396
			l-0.607,0.309l-2.261,7.376l-0.385,1.043c-0.646,0.058-0.19-0.751-0.716-0.64l-0.127,1.422l-0.104-0.004l-0.413,0.915l0.155,0.032
			c0.246,0.543-1.067,0.618-0.408,1.116l-0.535,0.152l-0.086,1.247l-0.09-0.1c-0.529,0.555,0.208,1.637-0.395,1.699l0.143,1.024
			l-0.159,0.46l-0.398-0.171c-0.458,1.508-0.995,3.542-1.365,4.886l-0.563,1.512l10.256,4.334
			C332.773,136.371,333.286,136.505,333.831,136.731z M345.07,131.933l-0.953-0.113L345.07,131.933z"/>
		<line fill="none" x1="344.116" y1="131.824" x2="345.07" y2="131.933"/>
		<polygon fill="#FA6D72" points="352.46,121.196 352.219,121.322 352.405,121.639 		"/>
		<line fill="none" x1="353.681" y1="118.422" x2="353.716" y2="119.698"/>
		<line fill="none" x1="356.198" y1="116.361" x2="355.958" y2="116.067"/>
		<line fill="none" x1="355.939" y1="115.269" x2="355.436" y2="115.604"/>
		<line fill="none" x1="359.117" y1="109.154" x2="358.829" y2="109.744"/>
		<polygon fill="#FA6D72" points="359.991,106.754 359.733,106.461 359.618,106.712 		"/>
		<polygon fill="#FA6D72" points="334.012,97.433 333.983,97.522 334.561,97.659 		"/>
		<polygon fill="#FA6D72" points="209.343,434.618 209.343,434.63 209.726,435.335 		"/>
		<polygon fill="#FA6D72" points="207.558,401.489 207.589,401.489 207.738,401.372 		"/>
		<polygon fill="#FA6D72" points="202.363,400.708 202.385,400.812 202.55,400.716 		"/>
		<polygon fill="#FA6D72" points="202.027,400.698 202.363,400.708 202.243,400.407 		"/>
		<path fill="#FA6D72" d="M200.398,459.066c0.045,0.117-0.079,0.104-0.117,0.179l0.62-0.076L200.398,459.066z"/>
		<path fill="#FA6D72" d="M213.336,419.489l-0.003-2.604l-0.719,0.358l-0.292-0.537l0.67,0.05c0.804-1.099,0.001-2.722,0.088-4.147
			l-0.396-0.308l0.025-2.999l-1.081-0.484c-0.58-0.482,0.736-0.33,1.018-0.925l-0.353-0.923l0.089,0.007l-0.278-1.185l0.029,0.048
			l0.264-1.069l-0.719-0.986l0.192-0.123l-0.409,0.082l0.18-0.703l0.482,0.216c0.255-0.772-0.386-0.114-0.639-0.413
			c-3.127-2.654-1.174-0.952-1.975-1.807c1,0.439-1.41-1.348,2.218,1.508c2.223,1.492-2.367-2.11-2.03-1.857l-0.487,0.378
			l-0.885-0.433l-0.759,0.365l0.705,0.545l-0.688-0.064l-0.358,0.278l-0.397-0.64l-1.026,0.364l-0.34-1.157l-0.624,0.453
			l-0.33-0.367l-1.985,0.789l-0.145-0.392l-0.387,0.229c-0.688-1.275-2.467-0.449-3.677-1.106l-0.804,0.411
			c0.126-0.708-0.689,0.09-1.002-0.366l0.139,0.72c-0.702-0.459-1.25,0.991-1.675,0.125l0.375-0.611
			c-0.562-1.271-4.659,3.521-3.465,2.32l0.81,0.7l-1.147,0.781l-0.153,0.772l-0.164-0.391l-0.188,1.596l-1.24,1.664
			c0.498,0.572-0.612,0.899,0.186,1.25l-0.279,0.019l0.523,1.001l-0.486-0.29l-0.817,0.741l0.271,0.506l0.036,0.412l0.062,0.865
			l-0.544-0.209l-0.307,1.012c-0.032,0.021-0.1,0.063-0.12,0.229l-0.398,0.479l-0.383-0.239l0.302,1.103
			c-0.778,0.892-1.047,2.848-0.989,3.371l-0.074-0.257l-0.11,0.789l-0.61,0.652l0.389,0.067c-0.971,0.59-0.297,2.039-1.128,2.875
			l-0.243-0.555l0.088,2.55l-0.391-0.394l-0.026,1.25c0.398-0.016,0.521,0.555,0.332,0.84l-0.094-0.032l-0.179,1.162l-0.303-0.304
			l-0.978,1.115l0.314,0.44l-0.524,0.332l0.748,1.479l-0.03,0.111l-0.721-0.306l0.336,1.323l-0.845,2.248l-0.734-0.521l-0.942,2.146
			c0.824-0.161,0.281,0.752,0.644,1.109l-0.074,0.205l-0.822,0.383l-0.723,2.402l-0.126-0.075l-0.296,2.558l-0.049,0.127
			l-0.288-0.268l0.075,0.859l-0.073,0.189l-0.179-0.221l-0.384,1.71l-0.001,0.003l-0.272-0.322l-0.048,1.195l-0.198,0.501
			l-0.317-0.278l-0.027,1.194l-0.021,0.026l-0.434,0.201l-0.046,1.103l-0.144,0.396l-0.605,0.307l-2.259,7.385l-0.389,1.044
			c-0.649,0.063-0.169-0.75-0.717-0.639l-0.124,1.422l-0.097,0.003l-0.418,0.913l0.16,0.024c0.228,0.545-1.083,0.634-0.427,1.106
			l-0.546,0.17l-0.081,1.236l-0.091-0.101c-0.532,0.564,0.217,1.641-0.398,1.705l0.158,1.021l-0.175,0.456l-0.397-0.178
			c-0.439,1.477-0.96,3.438-1.318,4.802l-0.605,1.604l10.268,4.33c0.562,0.313,1.057,0.438,1.616,0.672l3.282,1.381l0.087,0.256
			c0.193,0.104,0.41,0.007,0.627,0.055l0.993,0.406l1.349-1.049c0.255-0.186,0.49-0.362,0.732-0.582l3.306-2.604l0.439-1.213
			c0.241-0.653,0.564-1.354,0.84-2.016l0.112,0.42l0.57-0.435l-0.057-0.554l0.401,0.174l0.839-2.13l-0.521,0.162l0.502-1.402
			l0.538,0.281l0.005-0.438l0.58,0.508c-0.809-0.584,0.229-1.416,0.178-1.674l0.089,0.112c0.591-0.581-0.438-0.028-0.241-0.521
			l1.248-0.09l1.146-2.699l0.15-2.172l0.634-0.361c0.484,0.385,1.384,0.027,1.288,0.911c-0.375-0.483,0.116-0.483,0.28-0.688
			l-0.609,0.071c-0.738,0.091,0.42-1.103-0.525-0.885l1.182-2.578l0.623,0.435l0.267-2.08l-0.949-0.222l-0.04-0.567l1.495-0.205
			c0.638,0.49-0.568,1.066,0.283,1.095l-0.5,1.856c0.37,0.871,0.271-0.432,0.818-0.051l0.232-1.807l-0.559-0.366
			c-0.335-1.017,0.836-0.726,0.948-0.882l0.017,0.426l0.304-1.236c0.873,0.207-0.234,0.869,0.186,1.263l0.742-0.117l-0.03-1.226
			l0.261,0.227l0.026-0.594l-0.941,0.234c-0.67-0.617,0.064-0.449,0.188-1.203l-0.545,0.133l-0.176-0.979l1.02-0.183l-0.34,0.443
			c0.172,0.916,1.07,0.105,1.189,0.725l-0.026-1.233l-0.702,0.027c-0.837-1.447,1.167-0.224,1.325-1.196
			c-0.857-0.141-0.604-1.652-1.751-1.363l0.063-0.804l0.924,0.412l0.147-0.322l0.423,0.748l1.487-0.75l-0.483-0.661l0.671-0.181
			c-0.408,0.39-0.755-0.306-0.775-0.673l0.968-0.535l0.273,0.648l0.241-0.496l-0.938-0.894l0.443-0.558l0.135,0.607l0.948-0.535
			l-0.352-0.338l0.438,0.086l-0.074-0.771l0.297,0.065c-0.083-0.344-0.563-0.92,0.136-1.045l-0.644,0.67l-0.299-0.764
			c0.713,0.305,0.355-0.688,0.519-1.004l0.723-0.277l-0.432-0.305c0.987,0.223,0.126-0.718,0.482-1.035l0.831,0.198l-1.201-0.997
			c0.433-0.63,0.833,0.479,1.381,0.448l-0.063-1.164l-0.723-0.448l0.669-0.165l-0.798-0.489l0.244-1.246l-0.515-0.949l-1.001-0.668
			c0.004-0.064,0.037-0.127,0.059-0.2c0.075,0.177,0.17,0.496,0.566,0.379l0.021-0.382c0.906-0.278,0.981,1.451,1.748,1.154
			l-0.172-0.483l0.824,0.313l-0.006-1.107l-0.273,0.214l-0.273-1.455l0.873,0.263l-0.133-0.639l0.261,0.122
			c0.528-1.701,1.063-3.894,0.314-5.589l1.266-1.526l-0.495-0.291l0.659-0.319l-0.103-1.701l0.441-0.076l-0.275-0.691l0.468-0.23
			l-0.355-0.12c-0.108-0.474-0.141-1.093,0.495-0.979L213.336,419.489z M191.175,470.312l0.956,0.122L191.175,470.312z"/>
		<path fill="#FA6D72" d="M184.745,425.167l-0.001-0.282c-0.025,0.012-0.025-0.076-0.087-0.048L184.745,425.167z"/>
		<line fill="none" x1="192.137" y1="470.423" x2="191.175" y2="470.312"/>
		<polygon fill="#FA6D72" points="199.471,460.13 199.522,459.687 199.283,459.812 		"/>
		<line fill="none" x1="200.736" y1="456.913" x2="200.782" y2="458.196"/>
		<line fill="none" x1="203.271" y1="454.852" x2="203.005" y2="454.56"/>
		<line fill="none" x1="202.998" y1="453.755" x2="202.496" y2="454.093"/>
		<line fill="none" x1="206.175" y1="447.646" x2="205.869" y2="448.235"/>
		<polygon fill="#FA6D72" points="207.048,445.245 206.781,444.954 206.69,445.202 		"/>
		<polygon fill="#FA6D72" points="195.973,400.151 196.247,400.301 196.31,400.028 		"/>
		<line fill="none" x1="183.956" y1="423.301" x2="184.361" y2="423.141"/>
		<polygon fill="#FA6D72" points="181.041,436.028 181.603,436.174 181.06,435.944 		"/>
		<path fill="#FA6D72" d="M381.74,174.229l2.468,2.589l-0.026,0.277c0.146,0.172,0.379,0.179,0.547,0.298l0.739,0.78l1.645-0.403
			c0.313-0.077,0.609-0.133,0.949-0.243l4.074-1.031l0.862-0.925c0.488-0.506,1.063-1.012,1.591-1.503l-0.068,0.429l0.686-0.178
			l0.179-0.521l0.297,0.32l1.646-1.604l-0.566-0.081l1.043-1.094l0.373,0.482l0.179-0.394l0.346,0.689
			c-0.534-0.857,0.752-1.197,0.816-1.465l0.023,0.147c0.774-0.288-0.367-0.208,0.012-0.568l1.159,0.429l2.164-2.011l0.992-1.93
			l0.732-0.083l0.793,1.36l0.581-0.52l-0.612-0.201c-0.72-0.208,0.821-0.83-0.12-1.016l2.123-1.861l0.392,0.646l1.078-1.819
			l-0.79-0.581l0.198-0.531l1.441,0.412c0.385,0.72-0.946,0.755-0.178,1.112c0.175,0.674-0.741,1.588-1.196,1.506
			c-0.024,0.938,0.401-0.292,0.75,0.286l0.935-1.565l-0.355-0.567c0.112-1.055,1.056-0.309,1.217-0.433l-0.149,0.407l0.796-1.009
			c0.713,0.56-0.582,0.684-0.35,1.229l0.723,0.193l0.484-1.138l0.143,0.313l0.234-0.535l-0.941-0.156
			c-0.357-0.842,0.244-0.395,0.68-1.024l-0.54-0.095l0.21-0.971l1.012,0.258l-0.483,0.268c-0.198,0.891,0.949,0.52,0.801,1.127
			l0.484-1.128c-0.286,0.596-0.39-0.209-0.669-0.255c-0.179-1.661,1.146,0.266,1.699-0.565c-0.737-0.482,0.121-1.75-1.05-1.948
			l0.392-0.701l0.658,0.735l0.278-0.228l0.094,0.869l1.654-0.11l-0.19-0.797l0.688,0.1c-0.543,0.198-0.573-0.576-0.44-0.903
			l1.108-0.105l-0.025,0.692l0.433-0.354l-0.511-1.214l0.641-0.313l-0.135,0.611l1.095-0.127l-0.174-0.448l0.365,0.261l0.233-0.727
			l0.243,0.171c0.078-0.335-0.127-1.063,0.563-0.899l-0.887,0.365l0.054-0.823c0.526,0.556,0.602-0.48,0.886-0.713l0.771,0.028
			l-0.269-0.443c0.814,0.585,0.383-0.621,0.852-0.74l0.673,0.501l-0.7-1.392c0.65-0.407,0.587,0.778,1.097,0.96l0.408-1.087
			l-0.46-0.688l0.647,0.11l-0.494-0.762l0.702-1.042l-0.078-1.101l-0.643-1.004c0.032-0.058,0.085-0.098,0.132-0.15
			c-0.009,0.184-0.06,0.511,0.371,0.582l0.145-0.35c0.976,0.104,0.33,1.736,1.146,1.771l0.063-0.5l0.622,0.597l0.444-1l-0.368,0.054
			l0.355-1.415l0.721,0.59l0.124-0.652l0.198,0.223c1.176-1.338,2.533-3.14,2.533-4.993l1.765-0.882l-0.33-0.472l0.731-0.026
			l0.595-1.594l0.437,0.113l0.029-0.742l0.521-0.03l-0.28-0.258l0.845-0.681l-0.294-0.329l1.044-2.389l-0.789,0.054l-0.053-0.613
			l0.601,0.317c1.162-0.704,1.095-2.492,1.744-3.767l-0.253-0.453l1.267-2.714l-0.814-0.876c-0.327-0.688,0.806-0.03,1.305-0.438
			l0.058-0.991l0.08,0.043l0.199-1.192l0.026,0.064l0.688-0.894l-0.268-1.176l0.228-0.038l-0.412-0.089l0.449-0.582l0.35,0.407
			c0.541-0.619-0.304-0.275-0.418-0.64c0.177-0.086-1.845-3.547-1.063-2.468c0.722,0.817-0.735-1.813,1.4,2.293
			c1.422,2.257-1.299-2.906-1.077-2.542l-0.622,0.148l-0.619-0.747l-0.84,0.024l0.412,0.783l-0.604-0.325l-0.429,0.112l-0.132-0.756
			l-1.06-0.077l0.139-1.195l-0.749,0.169l-0.145-0.472c-0.84-0.725-1.598,0.68-2.15-0.079l0.038-0.424l-0.464,0.054
			c-0.076-1.438-2.072-1.411-2.889-2.471l-0.916,0.05l-0.775-0.744l-0.128,0.718c-0.476-0.699-1.584,0.399-1.603-0.569l0.566-0.416
			c0.023-1.38-5.688,1.24-4.114,0.677l0.462,0.971l-1.361,0.25l-0.473,0.634l0.011-0.425l-0.793,1.381l-1.802,1.019
			c0.229,0.744-0.942,0.59-0.362,1.224l-0.246-0.098l0.062,1.132l-0.328-0.463l-1.042,0.355l0.021,0.57l-0.107,0.385l-0.304,0.815
			l-0.427-0.398l-0.683,0.808c-0.051,0.002-0.113,0.016-0.216,0.15l-0.573,0.271l-0.245-0.382l-0.149,1.14l-2.265,2.696l0.024-0.279
			l-0.402,0.67l-0.822,0.351l0.319,0.213l-2.163,2.197l-0.009-0.603l-0.957,2.362l-0.18-0.53l-0.605,1.303l0.032,0.724l-0.076-0.063
			l-0.617,0.993l-0.176-0.378l-1.348,0.604l0.115,0.535l-0.618,0.095l0.085,1.656l-0.076,0.087l-0.521-0.561l-0.243,1.336
			l-1.675,1.728l-0.458-0.759l-1.733,1.569c0.842,0.189-0.051,0.803,0.146,1.286l-0.229,0.242c-0.316,0.178-0.54-0.165-0.832-0.073
			l-1.627,1.911l-0.072-0.125l-1.322,2.229l-0.1,0.093l-0.146-0.354c-0.483,0.245-0.279,0.486-0.206,0.719l-0.23,0.236l-0.076-0.279
			l-1.042,1.411l-0.104-0.396l-0.521,1.057l-0.394,0.39l-0.178-0.386l-0.504,1.067l-0.049,0.049l-0.479,0.002l-0.511,1.016
			l-0.269,0.274l-0.688,0.043l-5.229,6.047l-0.581,0.589l-0.4-0.873c0.472,0.413-0.201,0.479-0.683,1.247l-0.096-0.034l-0.731,0.661
			l0.116,0.103c-0.01,0.586-1.242,0.13-0.835,0.846l-0.546-0.07l-0.58,1.109l-0.045-0.127l-1.052,1.387l-0.299,0.999l-0.319,0.352
			l-0.303-0.33c-1.064,1.237-2.424,2.95-3.305,4.046l-1.046,1.068l7.615,8.081C380.918,173.478,381.321,173.785,381.74,174.229z
			 M393.977,174.398l-0.841-0.489L393.977,174.398z"/>
		<polygon fill="#FA6D72" points="424.181,148.595 424.178,148.607 424.241,149.401 		"/>
		<polygon fill="#FA6D72" points="431.494,114.741 431.491,114.843 431.652,114.813 		"/>
		<polygon fill="#FA6D72" points="406.111,167.338 405.968,167.454 406.543,167.634 		"/>
		<polygon fill="#FA6D72" points="431.203,114.603 431.494,114.741 431.518,114.428 		"/>
		<polygon fill="#FA6D72" points="405.52,129.974 405.555,129.866 405.549,129.616 		"/>
		<line fill="none" x1="393.138" y1="173.909" x2="393.977" y2="174.398"/>
		<polygon fill="#FA6D72" points="405.079,167.565 404.786,167.576 404.852,167.948 		"/>
		<line fill="none" x1="407.294" y1="165.508" x2="406.815" y2="166.697"/>
		<line fill="none" x1="410.46" y1="164.651" x2="410.334" y2="164.272"/>
		<line fill="none" x1="410.644" y1="163.536" x2="410.035" y2="163.64"/>
		<line fill="none" x1="416.022" y1="159.23" x2="415.502" y2="159.639"/>
		<polygon fill="#FA6D72" points="417.803,157.39 417.668,157.023 417.473,157.199 		"/>
		<polygon fill="#FA6D72" points="426.238,111.682 425.895,111.649 426.064,111.902 		"/>
		<line fill="none" x1="405.56" y1="127.937" x2="405.963" y2="127.94"/>
		<polygon fill="#FA6D72" points="397.804,138.342 397.744,138.422 398.192,138.764 		"/>
		<polygon fill="#FA6D72" points="129.011,378.044 129.062,377.948 129.041,377.686 		"/>
		<polygon fill="#FA6D72" points="154.692,362.645 154.989,362.782 155.016,362.472 		"/>
		<polygon fill="#FA6D72" points="147.701,396.622 147.701,396.632 147.75,397.424 		"/>
		<polygon fill="#FA6D72" points="129.635,415.384 129.499,415.493 130.062,415.663 		"/>
		<polygon fill="#FA6D72" points="154.989,362.782 154.983,362.891 155.142,362.854 		"/>
		<path fill="#FA6D72" d="M161.409,365.973c0.735,0.817-0.778-1.806,1.45,2.274c0.406,0.484-0.689-1.652-1.154-2.519l-0.586,0.142
			l-0.613-0.742l-0.838,0.025l0.392,0.782l-0.565-0.317l-0.447,0.099l-0.126-0.739l-1.085-0.076l0.146-1.197l-0.736,0.164
			l-0.15-0.471c-0.835-0.732-1.589,0.678-2.137-0.082l0.03-0.421l-0.462,0.056c-0.1-1.441-2.067-1.41-2.873-2.487l-0.938,0.042
			l-0.776-0.738l-0.138,0.716c-0.474-0.694-1.557,0.398-1.597-0.569l0.584-0.423c0.014-1.389-5.69,1.311-4.104,0.708l0.446,0.979
			l-1.349,0.253l-0.483,0.637v-0.432l-0.796,1.396l-1.795,1.021c0.227,0.729-0.938,0.586-0.344,1.211l-0.269-0.097l0.064,1.138
			l-0.33-0.479l-1.042,0.364l0.042,0.565l-0.127,0.4l-0.299,0.817l-0.428-0.421l-0.681,0.814c-0.045,0.01-0.115,0.025-0.198,0.166
			l-0.576,0.271l-0.232-0.385l-0.178,1.146l-2.252,2.685l0.014-0.28l-0.408,0.675l-0.84,0.346l0.344,0.228l-2.173,2.198
			l-0.009-0.616l-0.98,2.366l-0.173-0.53l-0.581,1.327l0.022,0.707l-0.077-0.055l-0.617,0.992l-0.179-0.396l-1.326,0.621
			l0.132,0.533l-0.637,0.086l0.087,1.657l-0.084,0.079l-0.513-0.559l-0.225,1.328l-1.7,1.739l-0.452-0.774l-1.734,1.58
			c0.823,0.188-0.021,0.81,0.168,1.287l-0.265,0.236c-0.321,0.168-0.527-0.166-0.818-0.076l-1.616,1.908l-0.093-0.124l-1.29,2.204
			l-0.094,0.113l-0.179-0.352c-0.453,0.25-0.273,0.475-0.188,0.711l-0.229,0.25l-0.066-0.261l-1.018,1.39l-0.032,0.023l-0.111-0.41
			l-0.533,1.066l-0.393,0.386l-0.163-0.386l-0.515,1.07l-0.032,0.056l-0.479,0.002l-0.475,0.979l-0.298,0.315l-0.689,0.034
			l-5.225,6.018l-0.595,0.621l-0.39-0.871c0.439,0.413-0.227,0.479-0.698,1.246l-0.078-0.04l-0.748,0.669l0.126,0.102
			c-0.014,0.592-1.248,0.113-0.828,0.841l-0.565-0.078l-0.564,1.11l-0.062-0.125l-1.061,1.385l-0.271,1.02l-0.331,0.342
			l-0.296-0.332c-1.026,1.195-2.337,2.824-3.232,3.928l-1.136,1.176l7.666,8.081c0.373,0.515,0.786,0.83,1.194,1.271l2.465,2.582
			l-0.025,0.274c0.147,0.167,0.376,0.177,0.542,0.288l0.751,0.788l1.653-0.422c0.298-0.064,0.604-0.128,0.923-0.231l4.097-1.039
			l0.874-0.916c0.48-0.511,1.045-1.019,1.574-1.521l-0.051,0.433l0.67-0.176l0.183-0.529l0.302,0.332l1.644-1.604l-0.547-0.104
			l1.023-1.094l0.388,0.484l0.155-0.394l0.353,0.691c-0.533-0.858,0.76-1.202,0.818-1.478l0.025,0.146
			c0.782-0.282-0.371-0.199,0.005-0.562l1.162,0.42l2.164-2.011l0.991-1.95l0.727-0.068l0.795,1.355l0.587-0.525l-0.619-0.188
			c-0.719-0.221,0.82-0.841-0.118-1.029l2.123-1.875l0.398,0.658l1.062-1.806l-0.777-0.582l0.195-0.545l1.451,0.419
			c0.396,0.714-0.958,0.76-0.186,1.107c0.178,0.68-0.74,1.598-1.196,1.504c-0.008,0.94,0.405-0.28,0.762,0.291l0.93-1.563
			l-0.354-0.565c0.107-1.051,1.052-0.328,1.209-0.433l-0.149,0.399l0.792-0.997c0.719,0.534-0.582,0.683-0.349,1.226l0.732,0.198
			l0.458-1.147l0.161,0.321l0.238-0.532l-0.94-0.166c-0.359-0.847,0.231-0.394,0.654-1.035l-0.535-0.086l0.221-0.963l1.011,0.246
			l-0.483,0.27c-0.214,0.891,0.941,0.521,0.79,1.136l0.476-1.146c-0.278,0.61-0.375-0.189-0.652-0.234
			c-0.188-1.658,1.138,0.257,1.694-0.573c-0.735-0.483,0.118-1.755-1.058-1.948l0.394-0.711l0.666,0.738l0.264-0.232l0.086,0.86
			l1.677-0.081l-0.176-0.801l0.676,0.095c-0.544,0.208-0.577-0.582-0.433-0.897l1.104-0.123l-0.026,0.697l0.435-0.347l-0.5-1.194
			l0.631-0.332l-0.135,0.608l1.112-0.116l-0.202-0.451l0.383,0.279l0.231-0.738l0.245,0.17c0.074-0.338-0.129-1.062,0.557-0.89
			l-0.88,0.364l0.032-0.841c0.544,0.573,0.613-0.476,0.882-0.706l0.789,0.046l-0.269-0.458c0.794,0.585,0.385-0.62,0.849-0.738
			l0.675,0.501l-0.694-1.399c0.661-0.394,0.565,0.783,1.091,0.97c-0.188-0.688,0.793-0.401,0.412-1.087l-0.477-0.69l0.656,0.103
			l-0.523-0.754l0.723-1.043l-0.076-1.088l-0.649-0.994c0.032-0.063,0.08-0.119,0.114-0.16c0.025,0.181-0.024,0.511,0.385,0.572
			l0.171-0.354c0.954,0.116,0.311,1.741,1.105,1.776l0.067-0.502l0.625,0.603l0.449-1.002l-0.353,0.067l0.341-1.436l0.703,0.598
			l0.135-0.643l0.184,0.215c1.19-1.343,2.553-3.133,2.533-4.995l1.782-0.883l-0.323-0.468l0.702-0.025l0.619-1.587l0.423,0.105
			l0.043-0.742l0.522-0.026l-0.289-0.255l0.853-0.685l-0.302-0.332l1.042-2.368l-0.801,0.024l-0.044-0.608l0.604,0.319
			c1.163-0.688,1.11-2.486,1.75-3.75l-0.236-0.463l1.263-2.723l-0.814-0.865c-0.331-0.688,0.806-0.026,1.313-0.438l0.036-0.985
			l0.077,0.028l0.229-1.19l0.013,0.064l0.688-0.885l-0.275-1.19l0.224-0.026l-0.417-0.1l0.463-0.57l0.361,0.396
			c0.534-0.604-0.317-0.271-0.433-0.644C160.669,364.732,161.809,367.073,161.409,365.973z M116.669,421.958l0.83,0.486
			L116.669,421.958z"/>
		<polygon fill="#FA6D72" points="159.443,365.589 159.488,365.614 159.663,365.573 		"/>
		<path fill="#FA6D72" d="M161.705,365.731l0.029,0.003C161.401,365.133,161.501,365.338,161.705,365.731z"/>
		<line fill="none" x1="116.669" y1="421.958" x2="117.498" y2="422.45"/>
		<polygon fill="#FA6D72" points="128.384,415.993 128.603,415.598 128.317,415.62 		"/>
		<line fill="none" x1="130.829" y1="413.55" x2="130.359" y2="414.726"/>
		<line fill="none" x1="133.983" y1="412.7" x2="133.84" y2="412.304"/>
		<line fill="none" x1="134.172" y1="411.575" x2="133.57" y2="411.675"/>
		<line fill="none" x1="139.545" y1="407.267" x2="139.027" y2="407.677"/>
		<polygon fill="#FA6D72" points="141.306,405.427 141.181,405.045 141.016,405.233 		"/>
		<polygon fill="#FA6D72" points="149.38,359.685 149.563,359.948 149.726,359.722 		"/>
		<line fill="none" x1="129.034" y1="375.995" x2="129.457" y2="376.001"/>
		<polygon fill="#FA6D72" points="121.677,386.823 121.293,386.407 121.227,386.491 		"/>
		<path fill="#FA6D72" d="M434.489,204.373l-0.023-0.382c-0.511,0.04-0.426,0.331-0.465,0.572l-0.286,0.128l0.024-0.273
			l-1.537,0.866l0.07-0.414l-0.929,0.758l-0.498,0.198l0.021-0.415l-0.911,0.781l-0.055,0.022l-0.433-0.188l-0.86,0.713l-0.385,0.15
			l-0.636-0.246l-7.214,3.407l-0.801,0.33c-0.521-0.438,0.447-0.627-0.016-0.967c0.261,0.581-0.372,0.352-1.123,0.88l-0.054-0.076
			l-0.94,0.308l0.061,0.146c-0.244,0.543-1.191-0.38-1.105,0.428l-0.48-0.28l-0.952,0.789l0.005-0.131
			c-0.776-0.03-1.077,1.252-1.551,0.833l-0.647,0.811l-0.443,0.184l-0.144-0.415c-1.382,0.667-3.203,1.609-4.438,2.265l-1.573,0.632
			l3.732,10.518c0.127,0.614,0.396,1.076,0.592,1.652l1.188,3.34l-0.128,0.232c0.063,0.22,0.267,0.301,0.383,0.48l0.372,1.021
			l1.706,0.28c0.292,0.064,0.594,0.127,0.897,0.146l4.163,0.693l1.199-0.492c0.646-0.273,1.396-0.489,2.063-0.755l-0.227,0.379
			l0.671,0.113l0.375-0.4l0.152,0.414l2.143-0.806l-0.46-0.29l1.371-0.591l0.16,0.604l0.303-0.299l0.03,0.774
			c-0.119-0.996,1.188-0.789,1.35-1.003l-0.026,0.149c0.82,0.042-0.27-0.341,0.212-0.529l0.905,0.865l2.777-0.968l1.702-1.374
			c0.586-0.188,0.229,0.749,0.698,0.227c0.029,0.625,0.912,1.051,0.188,1.57l0.737-0.246l-0.486-0.436
			c-0.582-0.479,1.085-0.429,0.313-0.97l2.7-0.855l0.107,0.763l1.688-1.246l-0.472-0.84l0.395-0.4
			c0.267,0.43,0.475,1.167,1.154,0.951c0.077,0.802-1.175,0.314-0.636,0.942l-1.691,0.894c-0.383,0.857,0.506-0.08,0.585,0.586
			l1.481-1.069l-0.08-0.658c0.515-0.918,1.078,0.134,1.288,0.106l-0.306,0.303l1.103-0.608c0.452,0.806-0.789,0.393-0.792,0.993
			l0.576,0.473c0.841-0.208-0.011-0.774,0.899-0.849v0.348l0.441-0.382l-0.802-0.533l1.042-0.67l-0.482-0.303l0.584-0.788
			l0.829,0.625l-0.535,0.063l0.262,1.357l0.889-0.854c-0.494,0.436-0.258-0.334-0.48-0.484c0.484-1.603,0.94,0.701,1.771,0.15
			c-0.472-0.726,0.802-1.551-0.178-2.2l0.636-0.493l0.324,0.942l0.332-0.106l-0.276,0.824l1.551,0.585l0.178-0.802l0.594,0.375
			l-0.056-1.014l1.052,0.34l-0.287,0.633l0.535-0.15l0.005-1.306l0.729-0.031l-0.383,0.493c0.607-0.353,0.466,0.789,1.059,0.333
			v-0.483l0.242,0.393l0.506-0.584l0.143,0.258l0.874-0.594l-0.941-0.018c-0.482-0.391,0.293-0.636,0.378-0.743
			c0.256,0.73,0.749-0.197,1.079-0.309l0.695,0.35l-0.034-0.5c0.481,0.847,0.576-0.416,1.058-0.348l0.416,0.728l-0.079-1.554
			c0.764-0.109,0.226,0.944,0.602,1.314l0.818-0.83l-0.136-0.825l0.563,0.376l-0.17-0.895l1.081-0.678l-0.28,0.751
			c0.872-0.391-0.044-1.252,0.639-1.781l-0.186-1.181c0.051-0.04,0.116-0.064,0.18-0.087c-0.066,0.16-0.256,0.436,0.109,0.673
			l0.281-0.255l0.323,2.076l0.256-0.438l0.331,0.8l0.816-0.738l-0.345-0.077l0.884-1.169l0.41,0.81l0.392-0.535l0.076,0.286
			c1.627-0.762,3.596-1.858,4.34-3.552l1.987-0.08l-0.13-0.567l0.687,0.269l1.196-1.209l0.349,0.282l0.337-0.674l0.473,0.188
			l-0.145-0.331c0.273-0.428,0.711-0.861,1.043-0.3l-0.134-0.43l1.933-1.753l-0.767-0.284l0.21-0.575l0.425,0.536l3.123-2.746
			l-0.063-0.512l2.269-1.981l-0.39-1.128c-0.036-0.755,0.737,0.315,1.361,0.128l0.446-0.879l0.063,0.068l0.676-0.999l-0.005,0.069
			l0.985-0.539l0.232-1.191l0.221,0.065l-0.332-0.246l0.637-0.333l0.175,0.499c0.737-0.354-0.188-0.382-0.128-0.769
			c-0.194-4.096-0.106-1.501-0.023-2.667c0.352,1.041,0.021-1.959,0.392,2.665c0.197,0.638,0.038-1.792-0.024-2.772l-0.595-0.094
			l-0.265-0.94l-0.785-0.317l0.071,0.877l-0.433-0.535l-0.438-0.079l0.191-0.731l-0.942-0.515c0.354-0.313,0.951-0.413,0.621-1.029
			l-0.768-0.147l0.052-0.491c-0.479-1-1.712-0.018-1.91-0.944l0.182-0.363l-0.413-0.134c0.479-1.352-1.349-2.133-1.663-3.437
			c-0.487,0.487-0.502-0.303-0.847-0.33c0.6-0.401-0.539-0.453-0.42-0.994l-0.438,0.599c-0.143-0.84-1.568-0.271-1.201-1.159
			l0.688-0.154c0.569-1.261-5.737-1.043-4.047-0.967l0.026,1.069l-1.35-0.326l-0.688,0.397l0.178-0.382l-1.295,0.941l-2.061,0.211
			c-0.114,0.75-1.091,0.153-0.827,0.97l-0.181-0.189l-0.395,1.063l-0.116-0.568c-0.205-0.684-0.892,0.205-1.095-0.089l-0.197,0.535
			l-0.278,0.304l-0.61,0.64l-0.213-0.547l-0.951,0.454c-0.036-0.014-0.089-0.021-0.236,0.075l-0.63,0.021l-0.076-0.456l-0.63,0.979
			l-3.131,1.552l0.116-0.233l-0.629,0.451l-0.92-0.017l0.209,0.33l-2.867,1.14l0.238-0.579l-1.837,1.779l0.024-0.556l-1.044,0.977
			l-0.285,0.655l-0.044-0.098l-0.939,0.637l-0.021-0.43l-1.46,0.025l-0.104,0.538l-0.614-0.177l-0.577,1.554l-0.127,0.039
			l-0.238-0.714l-0.724,1.123l-2.262,0.896l-0.104-0.878l-2.238,0.738c0.704,0.521-0.337,0.729-0.361,1.24l-0.324,0.125
			c-0.378,0.025-0.424-0.378-0.721-0.39l-2.267,1.08l-0.024-0.146l-2.112,1.523L434.489,204.373z M421.064,232.211l0.556,0.764
			L421.064,232.211z"/>
		<line fill="none" x1="421.064" y1="232.211" x2="421.62" y2="232.975"/>
		<path fill="#FA6D72" d="M99.493,341.949l0.02-0.482l0.235,0.393l0.499-0.586l0.165,0.269l0.873-0.595l-0.942-0.025
			c-0.484-0.383,0.278-0.627,0.378-0.737c0.24,0.73,0.732-0.188,1.083-0.302l0.698,0.354l-0.074-0.525
			c0.503,0.86,0.603-0.41,1.084-0.33l0.413,0.737l-0.074-1.553c0.76-0.104,0.214,0.942,0.622,1.319l0.805-0.84l-0.154-0.821
			l0.565,0.37l-0.171-0.901l1.085-0.68l-0.271,0.761c0.853-0.382-0.073-1.248,0.644-1.784l-0.222-1.181
			c0.083-0.024,0.126-0.059,0.193-0.086c-0.061,0.179-0.256,0.448,0.113,0.687l0.294-0.263l0.309,2.068l0.256-0.435l0.331,0.804
			l0.818-0.737l-0.341-0.096l0.886-1.155l0.401,0.818l0.389-0.535l0.083,0.278c1.615-0.749,3.589-1.851,4.333-3.54l1.987-0.076
			l-0.129-0.564l0.681,0.265l1.195-1.201l0.355,0.276l0.325-0.656l0.494,0.18l-0.16-0.331c0.278-0.402,0.713-0.851,1.047-0.282
			l-0.154-0.438l1.928-1.749l-0.741-0.277l0.196-0.584l0.44,0.533l3.101-2.742l-0.062-0.508l2.271-1.978l-0.396-1.135
			c-0.03-0.755,0.743,0.314,1.358,0.132l0.447-0.89l0.059,0.075l0.672-1.01l-0.003,0.077l0.985-0.541l0.236-1.193l0.221,0.069
			l-0.371-0.262l0.68-0.333l0.153,0.508c0.724-0.353-0.179-0.384-0.145-0.771c0.201,0.01-0.216-3.979,0.047-2.674
			c0.318,1.029,0.077-1.959,0.349,2.651c0.383,2.648-0.015-3.173,0.055-2.74l-0.635-0.127l-0.256-0.939l-0.791-0.319l0.062,0.891
			l-0.402-0.535l-0.436-0.072l0.187-0.738l-0.953-0.495c0.359-0.326,0.963-0.437,0.625-1.043l-0.764-0.146l0.054-0.485
			c-0.461-0.992-1.711-0.022-1.931-0.941l0.205-0.357l-0.421-0.132c0.483-1.359-1.349-2.118-1.653-3.439
			c-0.498,0.496-0.498-0.282-0.853-0.322c0.596-0.396-0.535-0.462-0.421-0.991l-0.419,0.59c-0.152-0.839-1.603-0.272-1.229-1.16
			l0.685-0.144c0.571-1.251-5.718-1.146-4.022-1.043l0.031,1.097l-1.356-0.342l-0.681,0.405l0.171-0.382l-1.282,0.938l-2.073,0.215
			c-0.076,0.766-1.092,0.146-0.808,0.966l-0.193-0.188l-0.39,1.041l-0.116-0.558c-0.186-0.697-0.89,0.205-1.1-0.101l-0.18,0.532
			l-0.279,0.319l-0.609,0.632l-0.217-0.534l-0.96,0.438c-0.05-0.018-0.095-0.01-0.238,0.077l-0.632,0.019l-0.075-0.442l-0.612,0.969
			l-3.147,1.553l0.131-0.229l-0.646,0.434l-0.898-0.005l0.205,0.322l-2.867,1.133l0.242-0.562l-1.824,1.772l0.022-0.554
			l-1.076,0.962l-0.267,0.65l-0.043-0.076l-0.96,0.653v-0.434l-1.478,0.03l-0.1,0.534l-0.591-0.164l-0.583,1.558l-0.128,0.05
			l-0.237-0.728l-0.756,1.126l-2.24,0.89l-0.104-0.873l-2.198,0.737c0.655,0.518-0.378,0.728-0.397,1.232l-0.321,0.127
			c-0.368,0.025-0.427-0.371-0.711-0.396l-2.265,1.094l-0.021-0.139l-2.127,1.513l-0.101,0.041l0.002-0.385
			c-0.557,0.04-0.433,0.336-0.483,0.586l-0.305,0.103l0.061-0.239l-1.534,0.846l0.064-0.41l-0.914,0.74l-0.513,0.229l-0.016-0.436
			l-0.888,0.794l-0.05,0.004l-0.434-0.178l-0.895,0.73l-0.326,0.145l-0.651-0.246l-7.088,3.357l-0.934,0.374
			c-0.482-0.436,0.451-0.639,0.011-0.959c0.245,0.571-0.395,0.344-1.139,0.865l-0.077-0.063l-0.942,0.295l0.073,0.146
			c-0.24,0.538-1.195-0.39-1.106,0.438l-0.458-0.28l-0.977,0.779l0.004-0.134c-0.77-0.023-1.072,1.246-1.553,0.842l-0.633,0.806
			l-0.459,0.178l-0.142-0.425c-1.493,0.711-3.478,1.768-4.717,2.383l-1.331,0.522l3.729,10.487c0.118,0.604,0.365,1.056,0.584,1.615
			l1.184,3.375l-0.122,0.248c0.062,0.229,0.282,0.331,0.403,0.521l0.354,1.006l1.645,0.278c0.315,0.056,0.607,0.114,0.953,0.152
			l4.146,0.677l1.188-0.472c0.661-0.268,1.403-0.483,2.061-0.749l-0.218,0.384l0.674,0.107l0.396-0.395l0.126,0.403l2.141-0.812
			l-0.458-0.304l1.377-0.584l0.168,0.605l0.293-0.298l0.033,0.778c-0.138-0.999,1.196-0.799,1.36-1.014l-0.032,0.153
			c0.817,0.035-0.255-0.342,0.216-0.527l0.904,0.856l2.783-0.979l1.694-1.353c0.582-0.2,0.223,0.736,0.697,0.229
			c0.055,0.61,0.918,1.04,0.186,1.562l0.751-0.255l-0.483-0.434c-0.582-0.481,1.067-0.436,0.287-0.964l2.704-0.863l0.104,0.749
			l1.692-1.24l-0.484-0.838l0.414-0.409c0.265,0.439,0.473,1.176,1.153,0.961c0.062,0.803-1.178,0.313-0.618,0.939l-1.725,0.896
			c-0.378,0.848,0.511-0.099,0.61,0.571l1.475-1.05l-0.08-0.67c0.514-0.926,1.083,0.141,1.27,0.104l-0.314,0.299l1.147-0.6
			c0.421,0.805-0.817,0.387-0.833,0.989l0.582,0.471c0.857-0.198-0.02-0.772,0.9-0.84l0.002,0.34l0.468-0.368l-0.815-0.539
			l1.026-0.688l-0.464-0.301l0.596-0.788l0.794,0.628l-0.556,0.051l0.291,1.369l0.891-0.858c-0.509,0.446-0.26-0.32-0.503-0.482
			c0.511-1.604,0.942,0.706,1.791,0.157c-0.489-0.738,0.805-1.552-0.191-2.203l0.636-0.495l0.321,0.948l0.353-0.107l-0.273,0.84
			l1.553,0.575l0.155-0.799l0.584,0.378l-0.02-1.026l1.043,0.342l-0.295,0.637l0.546-0.136l0.007-1.322l0.721-0.021l-0.364,0.491
			L99.493,341.949z M68.021,347.677l0.554,0.763L68.021,347.677z"/>
		<polygon fill="#FA6D72" points="126.954,308.986 126.904,309.08 127.089,309.142 		"/>
		<polygon fill="#FA6D72" points="129.892,313.355 129.924,313.376 130.095,313.413 		"/>
		<polygon fill="#FA6D72" points="126.745,308.746 126.954,308.986 127.107,308.703 		"/>
		<polygon fill="#FA6D72" points="97.052,312.453 97.122,312.37 97.24,312.132 		"/>
		<polygon fill="#FA6D72" points="82.514,346.865 82.352,346.928 82.792,347.313 		"/>
		<line fill="none" x1="68.021" y1="347.677" x2="68.574" y2="348.439"/>
		<polygon fill="#FA6D72" points="81.124,346.928 81.483,346.662 81.204,346.561 		"/>
		<line fill="none" x1="84.343" y1="345.673" x2="83.424" y2="346.561"/>
		<line fill="none" x1="87.603" y1="345.759" x2="87.552" y2="346.159"/>
		<line fill="none" x1="87.612" y1="345.08" x2="88.192" y2="345.212"/>
		<line fill="none" x1="94.845" y1="343.453" x2="94.196" y2="343.618"/>
		<polygon fill="#FA6D72" points="97.204,342.467 97.239,342.082 96.998,342.181 		"/>
		<polygon fill="#FA6D72" points="123.15,304.212 123.408,304.08 123.071,303.896 		"/>
		<line fill="none" x1="97.897" y1="310.603" x2="98.27" y2="310.779"/>
		<polygon fill="#FA6D72" points="86.791,317.541 86.609,316.988 86.514,317.037 		"/>
		<path fill="#FA6D72" d="M494.996,292.144l-0.522-0.351l0.134-0.973l-0.605-0.595l-0.286,0.84l-0.162-0.658l-0.37-0.253
			l0.463-0.588l-0.662-0.854l0.991-0.69l-0.638-0.434l0.229-0.433c-0.024-1.106-1.553-0.723-1.363-1.649l0.322-0.248l-0.331-0.294
			c0.999-1.049-0.358-2.492-0.127-3.813c-0.631,0.26-0.324-0.473-0.638-0.639c0.711-0.123-0.308-0.637,0.025-1.071l-0.638,0.36
			c0.195-0.813-1.352-0.878-0.646-1.553l0.704,0.148c1.039-0.921-4.779-3.346-3.291-2.563l-0.405,0.99l-1.089-0.841l-0.808,0.091
			l0.306-0.28l-1.54,0.331l-1.975-0.637l-1.146,0.562l-0.091-0.25l-0.789,0.817l0.12-0.578c0.096-0.695-0.873-0.153-0.951-0.515
			l-0.397,0.399l-0.384,0.171l-0.8,0.331l0.026-0.577l-1.055,0.036c-0.051-0.027-0.091-0.06-0.271-0.036l-0.578-0.238l0.128-0.432
			l-0.969,0.636c-1.089-0.446-3.025-0.075-3.509,0.15l0.217-0.155l-0.784,0.157l-0.805-0.39l0.063,0.395
			c-0.864-0.706-2.042,0.373-3.099-0.128l0.461-0.41l-2.4,0.876l0.273-0.483l-1.207,0.396c0.127,0.348-0.378,0.647-0.688,0.538
			l-0.021-0.101l-1.124,0.229l0.178-0.382c-0.108-0.729-1.255-0.495-1.356-0.582l-0.324,0.443l-0.47-0.382l-1.169,1.188
			l-0.122-0.003l0.058-0.766l-1.144,0.73l-2.412-0.075l0.251-0.854l-2.341-0.217c0.434,0.741-0.585,0.524-0.822,0.966h-0.231
			l-0.607-0.647l-2.521,0.069l0.032-0.128l-2.52,0.535l-0.129-0.007l0.146-0.366c-0.501-0.185-0.529,0.145-0.647,0.339l-0.33-0.012
			l0.128-0.213l-1.721,0.172h-0.02l0.216-0.354l-1.132,0.318l-0.544-0.022l0.158-0.379l-1.191,0.346v0.01l-0.319-0.354l-1.073,0.303
			l-0.395-0.017l-0.52-0.484l-7.805,0.225l-1.016-0.03c-0.28-0.604,0.651-0.399,0.382-0.873c0.008,0.609-0.485,0.143-1.397,0.331
			l-0.031-0.092l-0.969-0.11l-0.011,0.169c-0.439,0.383-0.94-0.835-1.195-0.045l-0.318-0.456l-1.194,0.332l0.059-0.14
			c-0.691-0.323-1.484,0.729-1.744,0.162l-0.916,0.477l-0.488-0.019l0.037-0.432c-1.639,0.036-3.841,0.184-5.226,0.26l-1.478-0.04
			l-0.814,11.072c-0.136,0.635-0.079,1.146-0.143,1.761l-0.239,3.536l-0.229,0.169c-0.04,0.229,0.127,0.427,0.176,0.637
			l-0.093,1.068l1.399,0.916c0.273,0.184,0.503,0.354,0.813,0.516l3.522,2.315l1.28,0.037c0.688,0.024,1.458,0.11,2.164,0.146
			l-0.354,0.246l0.585,0.389l0.522-0.226l-0.043,0.432l2.3,0.13l-0.313-0.476l1.5,0.025l-0.096,0.612l0.397-0.146l-0.278,0.721
			c0.288-0.959,1.397-0.237,1.625-0.384l-0.078,0.126c0.74,0.383-0.105-0.42,0.394-0.384l0.501,1.146l2.927,0.23l2.113-0.56
			l0.55,0.483c-0.22,0.59,0.416,1.328-0.481,1.506c0.337-0.503,0.511-0.037,0.756,0.027l-0.262-0.538
			c-0.317-0.681,1.194,0.048,0.688-0.785l2.816,0.313l-0.203,0.729l2.033-0.438l-0.094-0.97l0.533-0.208l0.668,1.336
			c-0.262,0.78-1.205-0.184-0.939,0.625l-1.923,0.133c-0.706,0.611,0.482,0.115,0.313,0.761l1.766-0.36l0.179-0.661
			c0.842-0.633,0.952,0.573,1.146,0.618l-0.397,0.147l1.257-0.088c0.086,0.9-0.883,0.041-1.146,0.569l0.35,0.673
			c0.86,0.146,0.312-0.721,1.169-0.43l-0.124,0.33l0.545-0.17l-0.505-0.809c0.382-0.841,0.432-0.084,1.188-0.21l-0.271-0.472
			l0.854-0.481l0.484,0.9l-0.533-0.178c-0.788,0.453,0.258,1.038-0.29,1.353l1.148-0.425l-0.26-0.652
			c1.115-1.246,0.574,1.034,1.573,0.878c-0.164-0.876,1.362-1.101,0.732-2.093l0.79-0.21l-0.1,0.998l0.345,0.038l-0.578,0.653
			l1.196,1.149l0.475-0.651l0.371,0.565l0.385-0.941l0.821,0.736l-0.527,0.465l0.546,0.076l0.548-1.194l0.672,0.267l-0.535,0.313
			l0.814,0.725l0.221-0.437l0.045,0.451l0.698-0.329l0.041,0.298c0.301-0.17,0.701-0.799,1.025-0.19l-0.842-0.394
			c-0.29-0.547,0.535-0.453,0.637-0.532c-0.05,0.773,0.764,0.128,1.123,0.155l0.494,0.607l0.162-0.501
			c0.103,0.99,0.699-0.127,1.105,0.127l0.097,0.843l0.548-1.451l0.021,1.447l1.068-0.433l0.21-0.818l0.369,0.579l0.195-0.896
			l1.29-0.185l-0.565,0.585c0.933-0.017,0.441-1.169,1.298-1.382l0.305-1.149c0.063,0.002,0.127-0.006,0.201,0
			c-0.128,0.127-0.419,0.31-0.18,0.656l0.384-0.092c0.547,0.758-1.085,1.381-0.559,2.011l0.404-0.302l-0.025,0.87l1.044-0.343
			l-0.278-0.218l1.274-0.693l0.062,0.911l0.56-0.342l-0.037,0.278c1.776-0.036,4.02-0.231,5.38-1.5l1.857,0.718l0.118-0.549
			l0.495,0.509l1.589-0.633l0.217,0.396l0.571-0.466l0.382,0.354l-0.018-0.372c0.421-0.269,0.997-0.483,1.079,0.157l0.033-0.458
			l2.475-0.816l-0.577-0.564l0.428-0.442l0.147,0.651c1.329,0.381,2.605-0.859,3.974-1.248l0.161-0.48l2.854-0.907l0.095-1.193
			c0.297-0.695,0.565,0.588,1.216,0.682l0.771-0.637l0.023,0.083l1.018-0.641l-0.047,0.063l1.122-0.103l0.706-0.985l0.179,0.141
			l-0.228-0.358l0.731-0.052l-0.073,0.524c0.83-0.023,0.005-0.423,0.184-0.759c1.547-3.798,0.54-1.403,1.107-2.428
			c-0.111,1.079,0.832-1.776-0.736,2.576C493.145,297.239,495.106,291.741,494.996,292.144z M423.062,296.796l0.212,0.941
			L423.062,296.796z"/>
		<line fill="none" x1="423.062" y1="296.796" x2="423.272" y2="297.73"/>
		<path fill="#FA6D72" d="M57.31,262.177l-0.312-0.473l1.499,0.023l-0.092,0.611l0.396-0.153l-0.278,0.732
			c0.289-0.96,1.396-0.253,1.639-0.388l-0.081,0.132c0.742,0.381-0.104-0.429,0.41-0.401l0.484,1.148l2.922,0.234l2.113-0.553
			l0.547,0.481c-0.213,0.583,0.421,1.34-0.455,1.502c0.348-0.499,0.503-0.024,0.756,0.042l-0.26-0.554
			c-0.327-0.672,1.177,0.049,0.681-0.776l2.805,0.31l-0.205,0.734l2.049-0.45l-0.081-0.949l0.513-0.229l0.673,1.336
			c-0.252,0.789-1.191-0.178-0.941,0.626l-1.925,0.127c-0.688,0.63,0.48,0.12,0.313,0.764l1.778-0.36l0.169-0.646
			c0.863-0.646,0.948,0.565,1.144,0.604l-0.397,0.153l1.266-0.088c0.088,0.907-0.866,0.036-1.146,0.566l0.363,0.68
			c0.843,0.147,0.28-0.717,1.152-0.419l-0.123,0.325l0.559-0.174l-0.522-0.81c0.384-0.836,0.447-0.087,1.206-0.207l-0.296-0.459
			l0.858-0.488l0.484,0.902l-0.519-0.18c-0.787,0.455,0.255,1.053-0.307,1.357l1.163-0.423l-0.256-0.655
			c1.102-1.246,0.558,1.021,1.572,0.863c-0.168-0.858,1.354-1.094,0.71-2.073l0.78-0.21l-0.087,1.005l0.343,0.031l-0.565,0.642
			l1.189,1.173l0.472-0.676l0.401,0.583l0.354-0.94l0.836,0.749l-0.52,0.453l0.544,0.075l0.55-1.175l0.669,0.24l-0.547,0.322
			l0.824,0.725l0.207-0.448l0.063,0.461l0.689-0.326l0.054,0.302c0.29-0.18,0.693-0.814,1.031-0.209l-0.847-0.383
			c-0.292-0.554,0.521-0.462,0.623-0.536c-0.046,0.781,0.781,0.127,1.126,0.169l0.49,0.612l0.168-0.505
			c0.119,0.979,0.715-0.137,1.113,0.127l0.094,0.84l0.546-1.45l0.021,1.451l1.104-0.434l0.192-0.816l0.355,0.566l0.21-0.895
			l1.268-0.188l-0.562,0.59c0.941-0.021,0.438-1.188,1.301-1.39l0.305-1.165c0.062,0.002,0.136,0,0.198,0.003
			c-0.132,0.134-0.404,0.309-0.174,0.66l0.371-0.105c0.553,0.761-1.088,1.384-0.54,2.017l0.393-0.299l-0.005,0.863l1.022-0.339
			l-0.277-0.214l1.292-0.699l0.039,0.904l0.57-0.335l-0.043,0.279c1.797-0.034,4.04-0.234,5.398-1.495l1.852,0.722l0.122-0.567
			l0.513,0.523l1.568-0.636l0.234,0.39l0.566-0.462l0.38,0.354l-0.032-0.382c0.422-0.26,1.02-0.496,1.081,0.171l0.036-0.449
			l2.476-0.841l-0.56-0.554l0.413-0.456l0.16,0.672c1.31,0.371,2.591-0.873,3.96-1.262l0.177-0.483l2.844-0.904l0.106-1.186
			c0.284-0.701,0.557,0.585,1.202,0.661l0.751-0.629l0.041,0.087l1.019-0.643l-0.031,0.05l1.107-0.104l0.687-0.987l0.184,0.142
			l-0.221-0.365l0.738-0.038l-0.07,0.519c0.823-0.025-0.018-0.42,0.188-0.748c1.509-3.819,0.531-1.405,1.095-2.442
			c-0.106,1.084,0.784-1.789-0.724,2.59c-0.092,0.651,0.741-1.619,1.095-2.532l-0.521-0.362l0.146-0.953l-0.604-0.596l-0.283,0.836
			l-0.165-0.661l-0.366-0.254l0.447-0.591l-0.639-0.84l0.955-0.699l-0.626-0.451l0.27-0.415c-0.035-1.109-1.579-0.72-1.387-1.639
			l0.329-0.252l-0.337-0.296c0.99-1.053-0.367-2.483-0.121-3.819c-0.659,0.255-0.349-0.476-0.671-0.646
			c0.734-0.106-0.302-0.628,0.028-1.056l-0.627,0.362c0.207-0.829-1.338-0.889-0.646-1.553l0.702,0.147
			c1.014-0.941-4.842-3.289-3.313-2.542l-0.408,1.001l-1.095-0.84l-0.794,0.085l0.315-0.288l-1.558,0.344l-1.962-0.634l-1.146,0.547
			l-0.111-0.252l-0.79,0.813l0.121-0.562c0.092-0.706-0.877-0.16-0.957-0.52l-0.406,0.396l-0.381,0.169l-0.8,0.337l0.022-0.587
			l-1.055,0.043c-0.026-0.032-0.094-0.067-0.267-0.043l-0.574-0.243l0.127-0.425l-0.978,0.637c-1.082-0.438-3.022-0.077-3.5,0.152
			l0.215-0.167l-0.774,0.146l-0.805-0.367l0.065,0.385c-0.867-0.713-2.032,0.376-3.078-0.127l0.44-0.418l-2.386,0.89l0.257-0.496
			l-1.207,0.394c0.141,0.346-0.377,0.651-0.688,0.542l-0.016-0.097l-1.127,0.226l0.173-0.384c-0.111-0.713-1.235-0.494-1.358-0.571
			l-0.302,0.451l-0.484-0.395l-1.147,1.193l-0.146-0.007l0.064-0.769l-1.132,0.735l-2.411-0.077l0.254-0.854l-2.34-0.225
			c0.429,0.746-0.614,0.519-0.842,0.982l-0.249-0.012l-0.603-0.649l-2.521,0.077l0.051-0.137l-2.539,0.53l-0.124-0.005l0.135-0.354
			c-0.492-0.186-0.526,0.146-0.661,0.332l-0.313,0.008l0.131-0.233l-1.696,0.18l-0.025-0.004l0.202-0.354l-1.135,0.324l-0.549-0.018
			l0.175-0.396l-1.164,0.365h-0.018l-0.332-0.349l-1.084,0.31l-0.39-0.02l-0.502-0.484l-7.888,0.223l-0.94-0.044
			c-0.289-0.601,0.661-0.398,0.381-0.871c0.007,0.623-0.494,0.162-1.387,0.331l-0.023-0.085l-0.996-0.112l-0.007,0.172
			c-0.438,0.392-0.942-0.838-1.192-0.052l-0.315-0.441l-1.19,0.331l0.046-0.128c-0.688-0.332-1.473,0.72-1.738,0.148l-0.914,0.48
			l-0.486-0.022l0.049-0.429c-1.56,0.044-3.634,0.176-5.041,0.264l-1.654-0.041l-0.806,11.124c-0.133,0.617-0.095,1.122-0.133,1.729
			l-0.276,3.539l-0.208,0.177c-0.041,0.226,0.126,0.413,0.167,0.621l-0.077,1.061l1.425,0.941c0.264,0.188,0.507,0.357,0.804,0.519
			l3.496,2.308l1.302,0.044c0.69,0.024,1.458,0.104,2.166,0.142l-0.354,0.245l0.595,0.389l0.514-0.218l-0.049,0.412L57.31,262.177z
			 M53.443,260.049l0.213,0.935L53.443,260.049z"/>
		<path fill="#FA6D72" d="M67.048,265.169c-0.082,0.086-0.126-0.026-0.187-0.045l0.275,0.557L67.048,265.169z"/>
		<polygon fill="#FA6D72" points="122.957,248.387 122.893,248.452 123.01,248.557 		"/>
		<polygon fill="#FA6D72" points="122.877,248.071 122.957,248.387 123.212,248.195 		"/>
		<polygon fill="#FA6D72" points="123.907,253.572 123.907,253.602 124.048,253.698 		"/>
		<path fill="#FA6D72" d="M94.158,239.524l0.275-0.088c-0.021-0.041,0.063-0.077,0.021-0.118L94.158,239.524z"/>
		<path fill="#FA6D72" d="M125.335,255.342l0.017,0.005C125.566,254.705,125.494,254.912,125.335,255.342z"/>
		<line fill="none" x1="53.443" y1="260.049" x2="53.656" y2="260.979"/>
		<polygon fill="#FA6D72" points="65.76,264.654 66.176,264.561 65.991,264.36 		"/>
		<line fill="none" x1="69.205" y1="264.821" x2="68.008" y2="265.264"/>
		<line fill="none" x1="72.173" y1="266.217" x2="71.972" y2="266.554"/>
		<line fill="none" x1="72.922" y1="265.945" x2="72.433" y2="265.59"/>
		<line fill="none" x1="79.717" y1="267.012" x2="79.077" y2="266.911"/>
		<polygon fill="#FA6D72" points="82.284,267.079 82.452,266.731 82.202,266.719 		"/>
		<polygon fill="#FA6D72" points="121.69,242.439 121.453,242.155 121.407,242.467 		"/>
		<line fill="none" x1="95.679" y1="238.17" x2="95.986" y2="238.492"/>
		<polygon fill="#FA6D72" points="82.733,240.048 82.792,239.47 82.681,239.474 		"/>
		<path fill="#FA6D72" d="M409.248,366.903c-0.129,0.035-0.127-0.094-0.188-0.144l0.026,0.637L409.248,366.903z"/>
		<polygon fill="#FA6D72" points="432.768,378.034 432.751,378.021 432.024,378.329 		"/>
		<path fill="#FA6D72" d="M467.709,368.484c0.502-0.675-0.88-1.351,0.023-1.682l0.583,0.401c1.311-0.434-3.008-4.996-1.961-3.67
			l-0.774,0.746l-0.668-1.229l-0.761-0.227l0.415-0.148l-1.582-0.313l-1.533-1.369c-0.637,0.438-0.856-0.7-1.26,0.05l-0.003-0.28
			l-1.044,0.434l0.33-0.463l-0.68-0.878l-0.524,0.229l-0.411,0.003l-0.863-0.023l0.267-0.522l-0.997-0.386
			c0.002-0.053-0.056-0.101-0.213-0.138l-0.438-0.46l0.28-0.355l-1.126,0.205c-0.829-0.86-2.742-1.294-3.289-1.275l0.28-0.065
			l-0.775-0.179l-0.585-0.681l-0.109,0.39c-0.487-1.005-2.008-0.483-2.774-1.354l0.583-0.207l-2.538-0.162l0.438-0.346l-1.269-0.129
			c-0.024,0.382-0.6,0.451-0.846,0.225l0.032-0.087l-1.115-0.248l0.29-0.299l-0.994-1.067l-0.482,0.284l-0.279-0.553l-1.553,0.618
			l-0.107-0.053l0.355-0.685l-1.339,0.213l-2.171-1.044l0.577-0.675l-2.025-1.137c0.076,0.842-0.765,0.229-1.15,0.565l-0.222-0.105
			l-0.296-0.853l-2.343-0.941l0.104-0.123l-2.548-0.535l-0.112-0.045l0.282-0.273c-0.376-0.377-0.541-0.089-0.738,0.054l-0.28-0.141
			l0.221-0.146l-1.654-0.541h-0.016l0.348-0.239l-1.186-0.159l-0.479-0.229l0.31-0.293l-1.203-0.142l-0.025-0.025l-0.161-0.44
			l-1.104-0.161l-0.359-0.169l-0.261-0.641l-7.292-2.979l-0.853-0.414l0.689-0.638l-1.407-0.258l0.004-0.093l-0.859-0.491
			l-0.069,0.141c-0.556,0.19-0.527-1.143-1.045-0.521l-0.127-0.536l-1.234-0.179l0.11-0.092c-0.489-0.579-1.654,0.055-1.66-0.574
			l-1.026,0.069l-0.448-0.205l0.203-0.391c-1.449-0.598-3.436-1.315-4.777-1.807l-1.419-0.688l-5.246,9.823
			c-0.369,0.51-0.53,0.993-0.815,1.531l-1.68,3.139l-0.271,0.072c-0.125,0.196-0.054,0.433-0.093,0.637l-0.516,0.939l0.926,1.429
			c0.146,0.272,0.298,0.536,0.535,0.821l2.268,3.525l1.146,0.545c0.635,0.313,1.308,0.692,1.953,1.02l-0.415,0.078l0.361,0.586
			l0.56,0.023l-0.212,0.373l2.041,1.035l-0.086-0.549l1.359,0.625l-0.334,0.531l0.434,0.025l-0.546,0.534
			c0.653-0.774,1.374,0.339,1.654,0.302l-0.128,0.088l0.533-0.199l-0.026,1.248l2.574,1.398l2.161,0.344l0.308,0.658
			c-0.428,0.45-0.162,1.371-1.024,1.195c0.503-0.318,0.483,0.141,0.658,0.326l-0.012-0.602c-0.032-0.74,1.074,0.512,0.92-0.435
			l2.461,1.41l-0.486,0.588l2.075,0.422l0.286-0.916l0.565,0.019l0.078,1.5l-1.108,0.176l-1.825-0.652
			c-0.89,0.29,0.406,0.297-0.023,0.821l1.789,0.382l0.433-0.525c1.04-0.232,0.632,0.902,0.791,1.031l-0.432-0.041l1.199,0.438
			c-0.288,0.865-0.84-0.33-1.284,0.063l0.053,0.759l1.235,0.076l-0.248,0.239l0.586,0.076l-0.146-0.945
			c0.678-0.634,0.438,0.101,1.196,0.294l-0.094-0.542l0.969-0.082l0.103,1.013l-0.411-0.379c-0.919,0.096-0.206,1.068-0.818,1.118
			l1.23,0.097l0.026-0.688c1.502-0.714,0.113,1.15,1.089,1.424c0.208-0.859,1.686-0.466,1.501-1.611l0.79,0.125l-0.49,0.89
			l0.306,0.167l-0.791,0.365l0.625,1.547l0.701-0.43l0.111,0.687c-0.346-0.45,0.384-0.729,0.727-0.71l0.463,1.006l-0.681,0.223
			l0.48,0.281l0.987-0.854l0.498,0.501l-0.605,0.063l0.438,0.997l0.364-0.327l-0.128,0.45l0.79-0.019l-0.111,0.281
			c0.342-0.037,0.987-0.47,1.036,0.241l-0.621-0.716l0.809-0.23c-0.377,0.683,0.637,0.434,0.942,0.601l0.205,0.749l0.361-0.391
			c-0.313,0.941,0.688,0.151,0.952,0.561l-0.256,0.802l1.099-1.093c0.579,0.48-0.553,0.787-0.563,1.338l1.148,0.027l0.519-0.663
			l0.114,0.677l0.542-0.744l1.222,0.338l1.019-0.434l0.736-0.936c0.043,0.023,0.106,0.045,0.18,0.074
			c-0.167,0.075-0.486,0.127-0.431,0.545l0.389,0.051c0.205,0.929-1.552,0.845-1.323,1.633l0.513-0.112l-0.381,0.782l1.093,0.107
			l-0.177-0.317l1.449-0.127l-0.32,0.858l0.647-0.091l-0.145,0.259c1.64,0.678,3.79,1.4,5.543,0.801l1.409,1.414l0.33-0.461
			l0.255,0.668l1.702,0.065l0.025,0.433l0.737-0.188l0.202,0.483l0.126-0.338l0.938,0.586l0.19-0.407l2.608,0.237l-0.281-0.741
			l0.577-0.265l-0.122,0.662c1.04,0.883,2.722,0.256,4.132,0.461l0.349-0.381l2.98,0.323l0.558-1.045
			c0.539-0.536,0.28,0.752,0.839,1.086l0.938-0.261l-0.005,0.089l1.204-0.177l-0.067,0.043l1.062,0.352l1.044-0.632l0.086,0.205
			l-0.038-0.423l0.688,0.25l-0.265,0.465c0.751,0.306,0.146-0.389,0.473-0.62c0.125,0.136,2.781-2.849,2.005-1.779
			c-0.544,0.942,1.483-1.272-1.728,2.068c-1.696,2.062,2.325-2.156,2.063-1.83l-0.34-0.546l0.522-0.83l-0.315-0.785l-0.587,0.635
			l0.084-0.678l-0.208-0.367l0.671-0.353l-0.27-1.054l1.176-0.23l-0.403-0.675l0.405-0.291c0.397-1.028-1.156-1.278-0.605-2.054
			l0.396-0.101l-0.182-0.407c1.321-0.563,0.66-2.418,1.4-3.535l-0.332-0.854c0.696,0.178-0.021-0.696,0.446-0.959L467.709,368.484z
			 M398.645,357.663l0.188-0.941L398.645,357.663z"/>
		<line fill="none" x1="398.645" y1="357.663" x2="398.837" y2="356.727"/>
		<polygon fill="#FA6D72" points="408.566,365.731 408.245,365.894 408.688,365.991 		"/>
		<line fill="none" x1="411.339" y1="367.444" x2="410.054" y2="367.374"/>
		<line fill="none" x1="413.468" y1="369.917" x2="413.165" y2="370.145"/>
		<line fill="none" x1="414.265" y1="369.968" x2="413.988" y2="369.452"/>
		<line fill="none" x1="420.064" y1="373.702" x2="419.533" y2="373.339"/>
		<polygon fill="#FA6D72" points="422.461,374.43 422.387,374.784 422.7,374.54 		"/>
		<path fill="#FA6D72" d="M143.133,198.709l0.015,0.012C143.612,198.224,143.448,198.373,143.133,198.709z"/>
		<polygon fill="#FA6D72" points="109.37,195.309 109.351,195.302 108.635,195.616 		"/>
		<path fill="#FA6D72" d="M85.853,184.177c-0.132,0.045-0.107-0.079-0.185-0.138l0.024,0.635L85.853,184.177z"/>
		<polygon fill="#FA6D72" points="143.778,191.392 143.698,191.413 143.753,191.572 		"/>
		<polygon fill="#FA6D72" points="142.529,196.499 142.529,196.521 142.636,196.689 		"/>
		<path fill="#FA6D72" d="M121.011,171.652l0.279,0.028c0.004-0.042,0.102-0.042,0.069-0.104L121.011,171.652z"/>
		<polygon fill="#FA6D72" points="143.809,191.064 143.778,191.392 144.089,191.313 		"/>
		<path fill="#FA6D72" d="M70.415,170.315l2.3,3.534l1.142,0.543c0.618,0.311,1.299,0.688,1.929,1.012l-0.415,0.092l0.369,0.585
			l0.571,0.022l-0.224,0.365l2.037,1.043l-0.091-0.546l1.357,0.633l-0.331,0.521l0.425,0.021l-0.542,0.543
			c0.657-0.759,1.392,0.339,1.653,0.311l-0.127,0.088l0.528-0.195l-0.023,1.25l2.59,1.391l2.164,0.341l0.308,0.662
			c-0.433,0.458-0.154,1.38-1.031,1.195c0.502-0.309,0.501,0.153,0.666,0.326l-0.006-0.593c-0.021-0.744,1.064,0.517,0.937-0.433
			l2.447,1.404l-0.485,0.591l2.067,0.43l0.311-0.926l0.547,0.016l0.077,1.512l-1.107,0.166l-1.818-0.646
			c-0.882,0.291,0.396,0.311-0.021,0.818l1.778,0.386l0.433-0.518c1.016-0.239,0.626,0.897,0.792,1.025l-0.438-0.03l1.194,0.433
			c-0.289,0.866-0.84-0.32-1.277,0.052l0.047,0.767l1.226,0.078l-0.234,0.223l0.577,0.081l-0.166-0.956
			c0.707-0.628,0.472,0.103,1.2,0.296l-0.084-0.536l0.984-0.097l0.078,1.033l-0.414-0.383c-0.898,0.092-0.18,1.053-0.816,1.119
			l1.243,0.093l0.017-0.693c1.509-0.705,0.106,1.162,1.094,1.417c0.211-0.851,1.688-0.462,1.499-1.604l0.792,0.122l-0.484,0.886
			l0.312,0.159l-0.789,0.372l0.612,1.539l0.705-0.42l0.131,0.688c-0.379-0.458,0.357-0.736,0.705-0.71l0.463,0.999l-0.651,0.212
			l0.463,0.303l0.984-0.877l0.512,0.508l-0.633,0.062l0.464,0.995l0.375-0.317l-0.125,0.444l0.758-0.017l-0.075,0.287
			c0.349-0.034,0.965-0.458,1.033,0.237l-0.638-0.696l0.797-0.241c-0.357,0.684,0.657,0.434,0.946,0.608l0.228,0.752l0.345-0.387
			c-0.309,0.935,0.708,0.151,0.97,0.563l-0.251,0.798l1.089-1.107c0.58,0.494-0.552,0.793-0.56,1.345l1.166,0.033l0.5-0.658
			l0.114,0.666l0.547-0.738l1.216,0.338l1.026-0.425l0.731-0.94c0.064,0.026,0.123,0.046,0.187,0.078
			c-0.179,0.063-0.489,0.112-0.433,0.533l0.411,0.038c0.193,0.941-1.562,0.85-1.328,1.631l0.485-0.104l-0.367,0.789l1.085,0.1
			l-0.161-0.305l1.453-0.132l-0.316,0.859l0.633-0.084l-0.133,0.246c1.644,0.688,3.788,1.405,5.543,0.804l1.391,1.408l0.332-0.477
			l0.274,0.682l1.683,0.071l0.046,0.435l0.697-0.201l0.196,0.484l0.161-0.349l0.904,0.586l0.223-0.405l2.607,0.238l-0.304-0.749
			l0.544-0.229l-0.086,0.674c1.016,0.868,2.7,0.232,4.104,0.439l0.365-0.38l2.977,0.33l0.577-1.055
			c0.539-0.524,0.271,0.762,0.825,1.095l0.95-0.265l-0.019,0.09l1.202-0.173l-0.066,0.035l1.073,0.359l1.038-0.621l0.104,0.201
			l-0.047-0.434l0.699,0.25l-0.285,0.469c0.758,0.305,0.178-0.394,0.482-0.615c2.908-2.898,1.07-1.081,1.98-1.808
			c-0.539,0.954,1.442-1.302-1.69,2.083c-0.336,0.572,1.339-1.169,2.011-1.871l-0.327-0.519l0.525-0.84l-0.316-0.787l-0.596,0.64
			l0.11-0.688l-0.222-0.355l0.658-0.355l-0.268-1.051l1.169-0.232l-0.38-0.656l0.384-0.299c0.423-1.021-1.156-1.282-0.599-2.057
			l0.426-0.101l-0.203-0.4c1.317-0.565,0.667-2.432,1.419-3.542l-0.332-0.855c0.688,0.178-0.029-0.69,0.45-0.957l-0.729,0.072
			c0.532-0.666-0.878-1.362,0.037-1.682l0.565,0.407c1.325-0.432-3.072-4.963-1.99-3.646l-0.788,0.737l-0.654-1.213l-0.748-0.233
			l0.399-0.133l-1.563-0.315l-1.553-1.372c-0.633,0.444-0.854-0.701-1.261,0.048l0.016-0.279l-1.043,0.433l0.335-0.465l-0.688-0.875
			l-0.532,0.216l-0.392,0.018l-0.879-0.026l0.239-0.525l-0.955-0.386c-0.018-0.045-0.063-0.098-0.23-0.144l-0.439-0.454l0.281-0.355
			l-1.129,0.194c-0.813-0.851-2.748-1.288-3.271-1.262l0.273-0.064l-0.788-0.178l-0.584-0.675l-0.104,0.376
			c-0.515-0.999-1.998-0.466-2.768-1.352l0.575-0.193l-2.545-0.15l0.439-0.356l-1.27-0.128c-0.018,0.381-0.601,0.456-0.848,0.229
			l0.036-0.084l-1.14-0.254l0.31-0.293l-1.026-1.074l-0.448,0.286l-0.287-0.56l-1.545,0.623l-0.104-0.054l0.354-0.685l-1.335,0.219
			l-2.174-1.043l0.583-0.673l-2.052-1.143c0.092,0.845-0.783,0.215-1.171,0.539l-0.197-0.095l-0.297-0.847l-2.324-0.948l0.103-0.104
			l-2.568-0.548l-0.089-0.043l0.279-0.273c-0.396-0.374-0.549-0.091-0.762,0.058l-0.278-0.146l0.228-0.149l-1.657-0.542h-0.021
			l0.354-0.23l-1.176-0.168l-0.492-0.229l0.294-0.299l-1.17-0.128l-0.044-0.024l-0.142-0.448l-1.127-0.166l-0.34-0.167l-0.273-0.643
			l-7.279-2.979l-0.85-0.411l0.688-0.646l-1.41-0.246l0.006-0.102l-0.858-0.49l-0.069,0.143c-0.563,0.179-0.525-1.142-1.068-0.523
			l-0.116-0.538l-1.226-0.189l0.112-0.088c-0.496-0.585-1.653,0.055-1.662-0.566l-1.043,0.067l-0.433-0.189l0.204-0.394
			c-1.472-0.604-3.438-1.313-4.778-1.804l-1.324-0.636l-0.107-0.058l-5.212,9.827c-0.387,0.523-0.543,1.01-0.822,1.552l-1.67,3.131
			l-0.269,0.078c-0.12,0.191-0.05,0.415-0.09,0.629l-0.517,0.942l0.935,1.424C70.049,169.78,70.207,170.033,70.415,170.315z
			 M75.448,174.008l-0.168,0.941L75.448,174.008z"/>
		<line fill="none" x1="75.28" y1="174.945" x2="75.448" y2="174.008"/>
		<polygon fill="#FA6D72" points="85.191,183.013 84.856,183.178 85.288,183.272 		"/>
		<line fill="none" x1="87.955" y1="184.721" x2="86.667" y2="184.646"/>
		<line fill="none" x1="90.092" y1="187.191" x2="89.764" y2="187.428"/>
		<line fill="none" x1="90.894" y1="187.257" x2="90.6" y2="186.731"/>
		<line fill="none" x1="96.678" y1="190.973" x2="96.141" y2="190.632"/>
		<polygon fill="#FA6D72" points="99.011,192.072 99.306,191.817 99.09,191.701 		"/>
		<polygon fill="#FA6D72" points="144.739,185.348 145.02,185.432 144.939,185.082 		"/>
		<line fill="none" x1="122.958" y1="171.029" x2="123.085" y2="171.436"/>
		<polygon fill="#FA6D72" points="110.535,166.973 110.347,167.519 110.618,167.01 		"/>
		<path fill="#FA6D72" d="M411.503,435.215l-0.992,0.373l-0.134-1.396l-0.59-0.525l0.425,0.039l-1.301-0.914l-0.852-1.883
			c-0.758,0.145-0.5-0.984-1.194-0.465l0.127-0.24l-1.14-0.047l0.484-0.281l-0.265-1.063l-0.56-0.015l-0.383-0.154l-0.803-0.382
			l0.438-0.378l-0.72-0.743c0.002-0.055-0.013-0.109-0.15-0.229l-0.217-0.586l0.407-0.225l-1.127-0.27l-2.476-2.485l0.271,0.043
			l-0.638-0.465l-0.273-0.858l-0.243,0.313l-2.001-2.366l0.627,0.058l-2.264-1.168l0.534-0.142l-1.276-0.696l-0.687-0.053
			l0.073-0.072l-0.936-0.687l0.396-0.147l-0.515-1.4l-0.534,0.078l-0.043-0.633l-1.643-0.055l-0.076-0.1l0.582-0.465l-1.295-0.344
			l-1.551-1.832l0.79-0.383l-1.413-1.861c-0.279,0.806-0.8-0.099-1.283,0.043l-0.264-0.279c-0.104-0.332,0.229-0.536,0.161-0.809
			l-1.754-1.795l0.147-0.078l-2.134-1.513l-0.063-0.081l0.354-0.137c-0.185-0.482-0.438-0.297-0.677-0.257l-0.23-0.237l0.272-0.051
			l-1.298-1.161l-0.021-0.011l0.411-0.076l-1.001-0.615l-0.361-0.427l0.422-0.126l-1.048-0.613l-0.024-0.025l0.046-0.476
			l-0.951-0.592l-0.279-0.302l0.03-0.688l-5.465-5.642l-0.637-0.736c0.255-0.63,0.737,0.21,0.915-0.303
			c-0.468,0.399-0.468-0.28-1.194-0.813l0.032-0.094l-0.581-0.788l-0.122,0.125c-0.595-0.077-0.018-1.246-0.771-0.896l0.124-0.545
			l-1.06-0.666l0.124-0.041l-1.276-1.182l-0.959-0.348l-0.33-0.383l0.335-0.275c-1.067-1.096-2.56-2.52-3.571-3.484l-1.1-1.289
			l-8.758,6.914c-0.546,0.323-0.892,0.692-1.352,1.057l-2.82,2.213l-0.273-0.047c-0.178,0.127-0.185,0.361-0.33,0.519l-0.835,0.667
			l0.28,1.688c0.015,0.313,0.044,0.621,0.126,0.938l0.688,4.131l0.857,0.984c0.446,0.538,0.914,1.15,1.38,1.714l-0.428-0.096
			l0.113,0.688l0.503,0.233l-0.355,0.252l1.456,1.788l0.146-0.537l0.993,1.116l-0.535,0.337l0.397,0.203l-0.738,0.262
			c0.902-0.432,1.136,0.876,1.394,0.951l-0.142,0.027c0.213,0.803,0.243-0.347,0.567,0.039l-0.526,1.146l1.81,2.313l1.843,1.174
			l0.002,0.726l-1.411,0.685l0.445,0.623l0.264-0.584c0.27-0.699,0.753,0.891,1.029-0.025l1.662,2.271l-0.687,0.34l1.706,1.201
			l0.649-0.705l0.53,0.242l-0.536,1.399c-0.75,0.333-0.685-1.013-1.104-0.282c-0.685,0.127-1.521-0.875-1.396-1.327
			c-0.932-0.098,0.253,0.44-0.355,0.737l1.458,1.074l0.61-0.305c1.045,0.191,0.229,1.082,0.318,1.246l-0.382-0.187l0.941,0.876
			c-0.61,0.688-0.636-0.637-1.217-0.46l-0.25,0.713l1.097,0.573l-0.333,0.104l0.531,0.316l0.229-0.926
			c0.885-0.302,0.37,0.266,0.964,0.738l0.128-0.533l0.94,0.307l-0.324,0.982l-0.229-0.519c-0.852-0.279-0.59,0.897-1.195,0.696
			c0.155,0.789,0.802,0.043,1.094,0.574c-0.584-0.328,0.224-0.354,0.29-0.627c1.67-0.027-0.38,1.104,0.424,1.731
			c0.548-0.69,1.738,0.272,2.036-0.861l0.672,0.433l-0.798,0.612l0.216,0.28l-0.871,0.021l-0.056,1.657l0.815-0.106l-0.174,0.675
			l0.959-0.353l-0.025,1.096l-0.687-0.077l0.331,0.478l1.247-0.41l0.255,0.684l-0.593-0.198l0.021,1.104l0.469-0.147l-0.291,0.332
			l0.703,0.315l-0.194,0.236c0.348,0.108,1.068-0.041,0.84,0.627l-0.278-0.892l0.839,0.121c-0.617,0.466,0.413,0.646,0.623,0.928
			l-0.109,0.789l0.471-0.231c-0.655,0.74,0.577,0.432,0.687,0.904l-0.57,0.637l1.438-0.57c0.35,0.682-0.813,0.494-1.052,0.986
			l1.065,0.522l0.721-0.407l-0.179,0.657l0.809-0.438l0.991,0.791l1.093,0.024l1.065-0.562c0.058,0.041,0.095,0.095,0.145,0.145
			c-0.199-0.025-0.521-0.102-0.606,0.316l0.314,0.193c-0.18,0.941-1.734,0.164-1.858,0.953l0.517,0.12l-0.688,0.554l0.973,0.537
			l-0.039-0.348l1.404,0.48l-0.646,0.641l0.628,0.18l-0.229,0.171c1.216,1.3,2.892,2.823,4.732,2.972l0.729,1.857l0.484-0.286
			l-0.026,0.732l1.531,0.737l-0.152,0.429l0.742,0.104l-0.024,0.506l0.271-0.266l0.63,0.903l0.347-0.28l2.271,1.258l0.029-0.787
			l0.616-0.002l-0.368,0.569c0.586,1.224,2.384,1.33,3.604,2.075l0.479-0.198l2.587,1.5l0.941-0.726
			c0.69-0.271-0.044,0.802,0.309,1.322l0.981,0.146l-0.077,0.086l1.163,0.314l-0.063,0.013l0.817,0.756l1.201-0.157l0.022,0.233
			l0.134-0.407l0.523,0.502l-0.433,0.323l0.688-0.367c3.808-1.502,1.399-0.586,2.509-0.888c-0.854,0.654,1.873-0.611-2.374,1.229
			c-0.521,0.396,1.705-0.532,2.609-0.899l-0.083-0.613l0.799-0.557l0.048-0.84l-0.818,0.354l0.384-0.579l-0.067-0.433l0.764-0.063
			l0.162-1.069l1.184,0.262l-0.114-0.771l0.488-0.098c0.802-0.771-0.536-1.641,0.271-2.12l0.433,0.078l-0.014-0.466
			c1.422,0.023,1.567-1.944,2.722-2.668l0.033-0.902l0.802-0.706l-0.691-0.213c0.736-0.42-0.248-1.597,0.711-1.527l0.37,0.604
			C413.248,439.499,411.073,433.581,411.503,435.215z M352.014,402.577l0.528-0.789L352.014,402.577z"/>
		<polygon fill="#FA6D72" points="395.154,418.026 395.221,418.069 395.512,418.081 		"/>
		<polygon fill="#FA6D72" points="408.2,444.958 408.036,445.256 408.348,445.307 		"/>
		<polygon fill="#FA6D72" points="408.036,445.256 407.94,445.239 407.94,445.401 		"/>
		<polygon fill="#FA6D72" points="357.952,415.284 357.819,415.147 357.607,415.687 		"/>
		<path fill="#FA6D72" d="M404.488,451.679v0.025C405.121,451.424,404.91,451.508,404.488,451.679z"/>
		<polygon fill="#FA6D72" points="404.836,449.419 404.825,449.452 404.842,449.636 		"/>
		<polygon fill="#FA6D72" points="374.983,434.973 374.983,434.96 374.173,434.952 		"/>
		<line fill="none" x1="352.014" y1="402.577" x2="352.537" y2="401.784"/>
		<polygon fill="#FA6D72" points="357.452,413.981 357.812,414.245 357.812,413.954 		"/>
		<line fill="none" x1="359.653" y1="416.648" x2="358.523" y2="416.063"/>
		<line fill="none" x1="360.61" y1="419.776" x2="360.234" y2="419.862"/>
		<line fill="none" x1="361.318" y1="420.153" x2="361.269" y2="419.556"/>
		<line fill="none" x1="365.119" y1="425.883" x2="364.758" y2="425.339"/>
		<polygon fill="#FA6D72" points="366.797,427.821 367.168,427.723 367.017,427.517 		"/>
		<polygon fill="#FA6D72" points="411.549,440.288 411.606,439.931 411.333,440.1 		"/>
		<line fill="none" x1="397.173" y1="418.218" x2="397.123" y2="418.646"/>
		<polygon fill="#FA6D72" points="387.512,409.575 387.433,409.493 387.058,409.931 		"/>
		<polygon fill="#FA6D72" points="182.631,151.801 182.601,151.841 182.645,152.014 		"/>
		<polygon fill="#FA6D72" points="172.952,120.385 173.058,120.434 173.31,120.453 		"/>
		<polygon fill="#FA6D72" points="185.831,147.625 185.736,147.613 185.731,147.776 		"/>
		<polygon fill="#FA6D72" points="135.712,117.637 135.604,117.512 135.397,118.042 		"/>
		<polygon fill="#FA6D72" points="186.003,147.341 185.831,147.625 186.144,147.683 		"/>
		<line fill="none" x1="151.963" y1="137.304" x2="152.76" y2="137.325"/>
		<path fill="#FA6D72" d="M127.178,98.756l0.682,4.133l0.842,0.958c0.461,0.547,0.913,1.163,1.36,1.721l-0.423-0.097l0.096,0.688
			l0.512,0.231l-0.358,0.254l1.476,1.785l0.13-0.547l1.005,1.114l-0.547,0.333l0.402,0.209l-0.738,0.277
			c0.918-0.435,1.133,0.866,1.41,0.953l-0.179,0.024c0.231,0.797,0.248-0.367,0.58,0.028l-0.518,1.146l1.8,2.313l1.837,1.188
			l0.024,0.723l-1.427,0.691l0.463,0.632l0.245-0.604c0.282-0.706,0.768,0.891,1.043-0.025l1.652,2.275l-0.681,0.352l1.714,1.218
			l0.643-0.73l0.528,0.246l-0.539,1.402c-0.759,0.327-0.672-1.021-1.094-0.291c-0.684,0.136-1.542-0.868-1.398-1.318
			c-0.94-0.104,0.238,0.434-0.345,0.743l1.468,1.066l0.6-0.305c1.043,0.195,0.203,1.069,0.305,1.255l-0.383-0.208l0.924,0.878
			c-0.607,0.678-0.619-0.633-1.175-0.46l-0.268,0.708l1.078,0.569l-0.303,0.125l0.489,0.314l0.258-0.933
			c0.866-0.287,0.352,0.259,0.961,0.746l0.132-0.53l0.935,0.307l-0.327,0.971l-0.23-0.508c-0.868-0.28-0.606,0.894-1.205,0.695
			c0.168,0.773,0.795,0.046,1.093,0.569c-0.554-0.325,0.233-0.36,0.313-0.617c1.667-0.027-0.364,1.114,0.432,1.736
			c0.529-0.69,1.722,0.269,2.021-0.877l0.679,0.442l-0.812,0.606l0.223,0.289l-0.862,0.011l-0.069,1.654l0.81-0.1l-0.149,0.68
			l0.94-0.354l0.021,1.101l-0.689-0.077l0.316,0.461l1.248-0.396l0.256,0.666l-0.595-0.189l0.022,1.097l0.462-0.135l-0.299,0.337
			l0.716,0.298l-0.196,0.229c0.321,0.109,1.07-0.029,0.852,0.64l-0.295-0.896l0.815,0.113c-0.604,0.467,0.433,0.637,0.64,0.93
			l-0.111,0.779l0.484-0.229c-0.658,0.738,0.583,0.438,0.651,0.918l-0.561,0.626l1.45-0.57c0.336,0.689-0.839,0.506-1.06,1.004
			l1.048,0.5l0.737-0.395l-0.186,0.655l0.823-0.456l0.978,0.809l1.102,0.021l1.045-0.576c0.05,0.051,0.092,0.104,0.136,0.158
			c-0.189-0.01-0.497-0.096-0.594,0.322l0.322,0.195c-0.198,0.941-1.757,0.146-1.866,0.95l0.503,0.104l-0.657,0.563l0.952,0.555
			l-0.021-0.36l1.372,0.463l-0.638,0.668l0.639,0.187l-0.245,0.164c1.244,1.29,2.913,2.819,4.759,2.978l0.715,1.852l0.5-0.281
			l-0.062,0.714l1.531,0.747l-0.127,0.432l0.723,0.088l-0.008,0.521l0.277-0.257l0.611,0.906l0.339-0.281l2.313,1.27l0.008-0.793
			l0.626,0.003l-0.382,0.566c0.599,1.227,2.39,1.331,3.596,2.075l0.474-0.201l2.6,1.501l0.928-0.73
			c0.738-0.263-0.047,0.797,0.341,1.336l0.964,0.143l-0.045,0.084l1.188,0.315l-0.079,0.006l0.833,0.771l1.187-0.166l0.025,0.235
			l0.115-0.421l0.535,0.506l-0.422,0.326l0.688-0.368c3.824-1.455,1.398-0.563,2.52-0.849c-0.861,0.646,1.867-0.599-2.395,1.196
			c-2.367,1.238,3-1.043,2.619-0.857l-0.106-0.637l0.812-0.546l0.053-0.843l-0.818,0.35l0.374-0.567l-0.065-0.437l0.745-0.063
			l0.2-1.064l1.177,0.258l-0.113-0.77l0.49-0.104c0.799-0.768-0.536-1.632,0.275-2.12l0.417,0.077l-0.022-0.458
			c1.432,0.024,1.59-1.942,2.741-2.672l0.032-0.902l0.801-0.699l-0.701-0.228c0.741-0.413-0.25-1.579,0.709-1.518l0.371,0.597
			c1.38,0.136-0.79-5.784-0.332-4.146l-1.027,0.372l-0.117-1.383l-0.596-0.522l0.428,0.014l-1.306-0.909l-0.867-1.889
			c-0.745,0.15-0.494-0.992-1.183-0.47l0.108-0.258l-1.112-0.019l0.497-0.294l-0.275-1.058l-0.576-0.024l-0.375-0.156l-0.789-0.373
			l0.439-0.38l-0.737-0.758c0.002-0.057-0.009-0.101-0.146-0.203l-0.215-0.6l0.4-0.202l-1.122-0.276l-2.479-2.493l0.277,0.054
			l-0.643-0.471l-0.28-0.848l-0.229,0.308l-1.988-2.366l0.594,0.037l-2.264-1.164l0.538-0.14l-1.246-0.706l-0.723-0.043l0.063-0.077
			l-0.933-0.693l0.396-0.133l-0.491-1.393l-0.56,0.073l-0.026-0.624l-1.652-0.051l-0.093-0.1l0.604-0.469l-1.311-0.348l-1.545-1.826
			l0.788-0.39l-1.423-1.866c-0.253,0.807-0.798-0.102-1.276,0.043l-0.227-0.273c-0.14-0.331,0.21-0.535,0.146-0.806l-1.754-1.802
			l0.128-0.077l-2.101-1.484l-0.089-0.103l0.383-0.127c-0.219-0.497-0.479-0.304-0.718-0.269l-0.209-0.241l0.252-0.052l-1.291-1.154
			l-0.017-0.004l0.41-0.074l-0.995-0.618l-0.363-0.421l0.396-0.146l-1.047-0.613l-0.012-0.021l0.03-0.472l-0.942-0.6l-0.273-0.299
			l0.026-0.717l-5.441-5.625l-0.645-0.749c0.242-0.622,0.735,0.209,0.906-0.315c-0.473,0.405-0.465-0.272-1.196-0.802l0.059-0.082
			l-0.604-0.801l-0.11,0.115c-0.585-0.067-0.018-1.248-0.771-0.903l0.115-0.542l-1.044-0.665l0.112-0.038l-1.276-1.187l-0.963-0.346
			l-0.33-0.387l0.342-0.271c-1.112-1.178-2.723-2.68-3.708-3.662l-0.978-1.139l-8.727,6.893c-0.535,0.329-0.891,0.704-1.349,1.074
			l-2.805,2.214l-0.255-0.038c-0.197,0.128-0.224,0.373-0.354,0.532l-0.848,0.682l0.265,1.627
			C127.061,98.103,127.096,98.413,127.178,98.756z M130.325,104.145l-0.552,0.782L130.325,104.145z"/>
		<line fill="none" x1="129.774" y1="104.924" x2="130.325" y2="104.145"/>
		<polygon fill="#FA6D72" points="135.225,116.334 135.593,116.591 135.594,116.309 		"/>
		<line fill="none" x1="137.431" y1="118.988" x2="136.292" y2="118.412"/>
		<line fill="none" x1="138.397" y1="122.122" x2="137.992" y2="122.205"/>
		<line fill="none" x1="139.103" y1="122.496" x2="139.031" y2="121.907"/>
		<line fill="none" x1="142.909" y1="128.239" x2="142.545" y2="127.685"/>
		<polygon fill="#FA6D72" points="144.582,130.175 144.962,130.071 144.801,129.871 		"/>
		<polygon fill="#FA6D72" points="189.348,142.665 189.412,142.314 189.135,142.473 		"/>
		<line fill="none" x1="174.923" y1="121.017" x2="174.99" y2="120.6"/>
		<polygon fill="#FA6D72" points="165.246,111.875 164.869,112.302 165.306,111.94 		"/>
		<path fill="#FA6D72" d="M331.403,478.672l0.449-1.317l-0.33-0.709l0.375,0.208l-0.816-1.36l-0.042-2.071
			c-0.745-0.165-0.05-1.101-0.89-0.904l0.218-0.172l-1.023-0.496l0.554-0.063c0.707-0.141-0.125-0.89,0.2-1.09l-0.506-0.238
			l-0.289-0.301l-0.587-0.658l0.58-0.174l-0.383-0.994c0.023-0.049,0.023-0.104-0.05-0.236l0.073-0.637l0.44-0.023l-0.921-0.704
			c0.068-1.186-0.911-2.897-1.279-3.284l0.239,0.159l-0.392-0.687l0.077-0.895l-0.332,0.178l-0.874-2.955l0.536,0.279l-1.604-1.986
			l0.542,0.094l-0.859-1.146l-0.637-0.336l0.098-0.024l-0.588-1.003l0.418,0.021c0.645-0.321,0.076-1.338,0.109-1.467l-0.513-0.149
			l0.219-0.588l-1.498-0.716l-0.045-0.126l0.738-0.184l-1.028-0.84l-0.706-2.314l0.892-0.027l-0.564-2.296
			c-0.563,0.649-0.683-0.381-1.179-0.467l-0.104-0.342c0.02-0.357,0.41-0.39,0.458-0.669l-0.89-2.362l0.168-0.005l-1.337-2.24
			l-0.025-0.117l0.38,0.024c0.024-0.535-0.291-0.458-0.526-0.517l-0.105-0.297l0.274,0.064l-0.737-1.604l0.4,0.1l-0.646-0.971
			l-0.179-0.539l0.431,0.027l-0.691-0.976l-0.024-0.033l0.252-0.413l-0.653-0.941l-0.108-0.361l0.31-0.631l-2.716-7.408
			l-0.291-0.893c0.485-0.473,0.606,0.496,0.97,0.082c-0.587,0.188-0.325-0.426-0.771-1.215l0.072-0.063l-0.22-0.979l-0.162,0.067
			c-0.488-0.298,0.508-1.147-0.33-1.138l0.33-0.457l-0.688-1.039l0.135,0.02c0.095-0.754-1.16-1.179-0.705-1.604l-0.738-0.713
			l-0.143-0.477l0.433-0.095c-0.549-1.517-1.399-3.544-1.928-4.841l-0.432-1.44l-10.771,2.772c-0.637,0.074-1.116,0.279-1.691,0.435
			l-3.453,0.892l-0.232-0.143c-0.226,0.045-0.323,0.24-0.513,0.339l-1.058,0.271l-0.415,1.629c-0.108,0.306-0.192,0.615-0.258,0.938
			l-1.084,4.059l0.393,1.238c0.196,0.672,0.371,1.424,0.561,2.125l-0.345-0.271l-0.186,0.67l0.38,0.422l-0.417,0.098l0.604,2.202
			l0.34-0.432l0.448,1.427l-0.625,0.098l0.282,0.342l-0.789-0.033c1.019-0.051,0.688,1.245,0.901,1.427l-0.157-0.034
			c-0.111,0.813,0.374-0.23,0.514,0.258l-0.934,0.828l0.721,2.855l1.179,1.813c0.152,0.603-0.718,0.162-0.256,0.676
			c-0.635-0.02-1.146,0.813-1.602,0.043l0.188,0.754l0.464-0.451c0.534-0.521,0.345,1.146,0.958,0.393l0.605,2.77l-0.751,0.045
			l1.052,1.794l0.899-0.39l0.354,0.431l-1.046,1.069c-0.825-0.015-0.203-1.196-0.887-0.707l-0.738-1.779
			c-0.81-0.453,0.036,0.498-0.625,0.538l0.91,1.565l0.674-0.031c0.855,0.592-0.243,1.068-0.221,1.279l-0.275-0.345l0.499,1.195
			c-0.845,0.353-0.306-0.841-0.904-0.904l-0.525,0.549c0.14,0.858,0.77,0.046,0.778,0.97l-0.357-0.029l0.341,0.484l0.602-0.756
			l0.585,1.084l0.349-0.436l0.731,0.666l-0.691,0.756l-0.003-0.564l-1.401,0.159l0.788,0.956c-0.39-0.531,0.354-0.229,0.521-0.438
			c1.554,0.637-0.772,0.863-0.287,1.763c0.758-0.433,1.469,0.94,2.203,0.01l0.433,0.685l-0.991,0.229l0.078,0.352l-0.789-0.319
			l-0.723,1.481l0.782,0.229l-0.426,0.565l1.023,0.056l-0.444,1.008l-0.604-0.348l0.078,0.534l1.319,0.144l-0.026,0.716
			l-0.471-0.415l-0.436,1.028l0.481,0.038l-0.396,0.217l0.535,0.546l-0.28,0.139l0.513,0.922l0.104-0.942
			c0.438-0.45,0.605,0.349,0.688,0.44c-0.734,0.184,0.137,0.757,0.228,1.102l-0.4,0.663l0.501-0.024
			c-0.885,0.428,0.372,0.639,0.233,1.101l-0.756,0.354l1.552,0.073c0.036,0.754-0.941,0.11-1.368,0.481l0.75,0.889l0.841-0.072
			l-0.42,0.536l0.916-0.089l0.579,1.146l-0.729-0.352c0.306,0.887,1.238,0.045,1.705,0.789l1.201-0.081
			c0.025,0.056,0.038,0.128,0.076,0.19c-0.173-0.075-0.431-0.289-0.687,0.058l0.229,0.304c-0.576,0.788-1.675-0.564-2.107,0.133
			l0.433,0.285l-0.841,0.26l0.669,0.883l0.11-0.331l1.078,0.993l-0.842,0.33l0.482,0.432l-0.288,0.061
			c0.627,1.687,1.531,3.741,3.165,4.639l-0.112,1.982l0.576-0.062l-0.325,0.637l1.097,1.293l-0.298,0.329l0.624,0.393l-0.229,0.465
			l0.35-0.127c0.396,0.306,0.797,0.789,0.22,1.082l0.429-0.119l1.582,2.078l0.345-0.717l0.558,0.25l-0.564,0.375l2.439,3.342
			l0.522,0.006l1.757,2.434l1.164-0.298c0.773,0.053-0.363,0.723-0.231,1.354l0.835,0.528l-0.076,0.048l0.94,0.759l-0.083-0.021
			l0.46,1.026l1.158,0.345l-0.073,0.213l0.28-0.315l0.268,0.683l-0.498,0.119c0.28,0.752,0.384-0.152,0.775-0.064
			c4.09,0.178,1.488,0.032,2.652,0.229c-1.068,0.253,1.944,0.179-2.669,0.151c-0.654,0.142,1.773,0.205,2.748,0.229l0.167-0.593
			l0.948-0.181l0.378-0.752l-0.891-0.021l0.579-0.355l0.128-0.436l0.711,0.263l0.584-0.909c0.28,0.395,0.337,1.013,0.964,0.709
			l0.233-0.737l0.472,0.098c1.051-0.383,0.179-1.714,1.112-1.827l0.354,0.23l0.176-0.411c1.294,0.607,2.238-1.149,3.572-1.346
			c-0.453-0.524,0.325-0.469,0.407-0.816c0.332,0.636,0.494-0.492,1.027-0.314l-0.549-0.482c0.821-0.077,0.409-1.561,1.262-1.114
			l0.076,0.688c1.199,0.687,1.653-5.598,1.396-3.922L331.403,478.672z M291.125,424.829l0.811-0.483L291.125,424.829z"/>
		<polygon fill="#FA6D72" points="324.445,456.398 324.504,456.485 324.736,456.604 		"/>
		<path fill="#FA6D72" d="M319.384,490.964l-0.024,0.023C320.058,490.976,319.839,490.985,319.384,490.964z"/>
		<polygon fill="#FA6D72" points="291.468,438.864 291.415,438.689 290.987,439.1 		"/>
		<polygon fill="#FA6D72" points="320.615,489.039 320.566,489.068 320.522,489.237 		"/>
		<polygon fill="#FA6D72" points="325.202,486.508 325.135,486.452 325.054,486.608 		"/>
		<polygon fill="#FA6D72" points="325.491,486.316 325.202,486.508 325.486,486.689 		"/>
		<line fill="none" x1="291.125" y1="424.829" x2="291.936" y2="424.341"/>
		<polygon fill="#FA6D72" points="291.544,437.47 291.761,437.857 291.88,437.603 		"/>
		<line fill="none" x1="292.471" y1="440.794" x2="291.68" y2="439.801"/>
		<line fill="none" x1="292.091" y1="444.046" x2="291.714" y2="443.976"/>
		<line fill="none" x1="292.769" y1="444.101" x2="292.58" y2="444.675"/>
		<line fill="none" x1="293.758" y1="451.474" x2="293.653" y2="450.813"/>
		<polygon fill="#FA6D72" points="294.499,453.903 294.893,453.979 294.851,453.719 		"/>
		<polygon fill="#FA6D72" points="330.442,483.397 330.635,483.095 330.324,483.145 		"/>
		<line fill="none" x1="325.995" y1="457.774" x2="326.213" y2="457.407"/>
		<polygon fill="#FA6D72" points="320.813,445.493 320.304,445.722 320.859,445.591 		"/>
		<path fill="#FA6D72" d="M207.865,63.564l-0.352-0.262l-0.165,0.67l0.375,0.42l-0.43,0.09l0.619,2.214l0.331-0.433l0.461,1.422
			l-0.621,0.103l0.271,0.324l-0.767-0.024c1.008-0.037,0.688,1.254,0.894,1.435l-0.147-0.035c-0.128,0.814,0.354-0.234,0.492,0.264
			l-0.934,0.836l0.723,2.842l1.195,1.819c0.148,0.585-0.753,0.152-0.28,0.667c-0.611-0.014-1.134,0.815-1.57,0.044l0.175,0.763
			l0.473-0.457c0.526-0.534,0.321,1.124,0.941,0.395l0.611,2.754l-0.76,0.043l1.072,1.812l0.873-0.403l0.376,0.433l-1.06,1.071
			c-0.805,0.007-0.2-1.195-0.887-0.703l-0.735-1.78c-0.818-0.469,0.048,0.504-0.637,0.535l0.93,1.568l0.663-0.027
			c0.877,0.602-0.229,1.072-0.229,1.265l-0.273-0.332l0.5,1.181c-0.835,0.369-0.332-0.836-0.889-0.893l-0.531,0.535
			c0.122,0.859,0.766,0.055,0.743,0.974l-0.34-0.026l0.322,0.486l0.637-0.75l0.564,1.086l0.349-0.431l0.734,0.648l-0.691,0.763
			l-0.009-0.566l-1.373,0.158l0.765,0.964c-0.383-0.528,0.356-0.229,0.52-0.455c1.568,0.655-0.76,0.885-0.308,1.761
			c0.777-0.422,1.472,0.939,2.21,0.02l0.432,0.684l-0.954,0.228l0.08,0.347l-0.804-0.34l-0.728,1.499l0.792,0.232l-0.414,0.555
			l1.008,0.046l-0.453,1.015l-0.597-0.354l0.104,0.558l1.301,0.132l-0.027,0.713l-0.474-0.402l-0.424,1.014l0.477,0.054
			l-0.401,0.192l0.532,0.563l-0.276,0.128l0.521,0.917l0.103-0.929c0.441-0.46,0.615,0.345,0.707,0.434
			c-0.748,0.188,0.127,0.755,0.199,1.109l-0.42,0.655h0.536c-0.895,0.41,0.354,0.623,0.234,1.094l-0.775,0.354l1.573,0.066
			c0.026,0.761-0.982,0.12-1.381,0.487l0.756,0.879l0.821-0.073l-0.417,0.541l0.903-0.102l0.597,1.146l-0.742-0.349
			c0.331,0.888,1.257,0.055,1.734,0.795l1.197-0.088c0.013,0.068,0.041,0.13,0.036,0.185c-0.148-0.076-0.414-0.29-0.656,0.051
			l0.232,0.325c-0.569,0.781-1.676-0.569-2.101,0.124l0.414,0.301l-0.829,0.248l0.652,0.879l0.107-0.338l1.095,1l-0.861,0.33
			l0.503,0.427l-0.28,0.062c0.603,1.679,1.512,3.746,3.146,4.642l-0.095,1.977l0.583-0.054l-0.322,0.646l1.082,1.284l-0.296,0.328
			l0.633,0.401l-0.225,0.46l0.353-0.127c0.395,0.309,0.804,0.788,0.188,1.071l0.448-0.113l1.583,2.079l0.351-0.723l0.557,0.252
			l-0.566,0.371l2.441,3.345l0.502,0.015l1.789,2.417l1.145-0.292c0.775,0.054-0.358,0.729-0.243,1.361l0.843,0.528l-0.08,0.043
			l0.941,0.765l-0.08-0.007l0.466,1.026l1.15,0.339l-0.074,0.216l0.272-0.329l0.271,0.674l-0.523,0.115
			c0.282,0.767,0.384-0.152,0.764-0.063c4.12,0.185,1.526,0.049,2.679,0.229c-1.061,0.25,1.957,0.188-2.666,0.161
			c-0.672,0.135,1.77,0.195,2.732,0.225l0.168-0.596l0.967-0.178l0.379-0.748l-0.895-0.014l0.582-0.376l0.126-0.423l0.72,0.249
			l0.566-0.898c0.29,0.382,0.354,0.996,0.983,0.702l0.228-0.739l0.482,0.109c1.041-0.383,0.18-1.725,1.118-1.846l0.353,0.241
			l0.157-0.429c1.314,0.606,2.239-1.146,3.572-1.336c-0.451-0.532,0.37-0.469,0.415-0.818c0.334,0.627,0.489-0.486,1.026-0.321
			l-0.563-0.479c0.853-0.077,0.413-1.56,1.256-1.114l0.1,0.698c1.217,0.688,1.585-5.615,1.354-3.934l-1.07-0.072l0.45-1.316
			l-0.334-0.713l0.356,0.203l-0.808-1.369l-0.045-2.065c-0.734-0.154-0.05-1.103-0.876-0.899l0.213-0.171l-1.037-0.483l0.568-0.075
			c0.694-0.135-0.119-0.896,0.187-1.091l-0.51-0.242l-0.284-0.292l-0.554-0.663l0.542-0.169l-0.371-0.992
			c0.023-0.042,0.032-0.097-0.056-0.246l0.061-0.638l0.44-0.024l-0.92-0.706c0.076-1.167-0.891-2.879-1.265-3.278l0.229,0.164
			l-0.381-0.676l0.081-0.895l-0.338,0.179l-0.869-2.964l0.54,0.282l-1.604-1.978l0.545,0.085l-0.861-1.153l-0.637-0.331l0.081-0.031
			l-0.563-1.012l0.404,0.03c0.647-0.329,0.074-1.335,0.126-1.466l-0.534-0.147l0.218-0.599l-1.487-0.714l-0.051-0.129l0.748-0.187
			l-1.042-0.833l-0.703-2.318l0.897-0.026l-0.55-2.29c-0.566,0.638-0.683-0.397-1.185-0.483l-0.107-0.344
			c0.015-0.347,0.408-0.383,0.452-0.667l-0.862-2.357l0.141-0.016l-1.33-2.224l-0.024-0.125l0.381,0.024
			c0.021-0.529-0.279-0.456-0.534-0.501l-0.093-0.325l0.266,0.072l-0.722-1.604l0.406,0.103l-0.676-0.977l-0.146-0.531l0.406,0.028
			l-0.698-0.966l-0.014-0.049l0.229-0.404l-0.649-0.941l-0.113-0.366l0.312-0.635l-2.707-7.345l-0.292-0.962
			c0.482-0.457,0.596,0.504,0.959,0.085c-0.59,0.192-0.313-0.412-0.754-1.211l0.067-0.053l-0.212-0.981l-0.145,0.067
			c-0.519-0.305,0.476-1.152-0.345-1.142l0.336-0.441l-0.717-1.044l0.141,0.011c0.096-0.754-1.162-1.176-0.687-1.6l-0.74-0.726
			l-0.143-0.463l0.433-0.105c-0.538-1.417-1.299-3.285-1.84-4.579l-0.5-1.665l-10.844,2.777c-0.623,0.075-1.067,0.28-1.633,0.417
			l-3.499,0.889l-0.229-0.134c-0.203,0.045-0.321,0.24-0.497,0.322l-1.037,0.287l-0.432,1.646c-0.104,0.312-0.198,0.59-0.238,0.941
			l-1.068,4.05l0.383,1.246C207.497,62.112,207.691,62.87,207.865,63.564z M208.675,62.359l-0.816,0.493L208.675,62.359z"/>
		<path fill="#FA6D72" d="M236.098,128.979v0.015C236.787,128.99,236.571,128.99,236.098,128.979z"/>
		<polygon fill="#FA6D72" points="241.942,124.511 241.861,124.467 241.792,124.629 		"/>
		<polygon fill="#FA6D72" points="242.201,124.315 241.942,124.511 242.199,124.688 		"/>
		<polygon fill="#FA6D72" points="237.309,127.059 237.296,127.063 237.262,127.25 		"/>
		<polygon fill="#FA6D72" points="241.145,94.392 241.206,94.473 241.44,94.592 		"/>
		<line fill="none" x1="210.468" y1="89.488" x2="210.354" y2="88.833"/>
		<polygon fill="#FA6D72" points="211.237,91.934 211.628,91.993 211.541,91.746 		"/>
		<polygon fill="#FA6D72" points="247.154,121.397 247.357,121.095 247.039,121.144 		"/>
		<line fill="none" x1="242.698" y1="95.768" x2="242.901" y2="95.401"/>
		<path fill="#FA6D72" d="M369.758,210.029c0.162,0.108,0.326,0.203,0.482,0.315C370.902,209.804,370.456,209.854,369.758,210.029z"
			/>
		<path fill="#FA6D72" d="M222.767,145.113c-1.257-0.782-0.179-3.637-2.18-3.13c-0.616,3.104,3.611,5.734,6.888,5.696
			c0.261,0.217,0.298,0.382,0.45,0.583c-0.662-1.146-0.991-2.275-0.681-3.446C225.749,144.711,223.541,142.442,222.767,145.113z"/>
		<path fill="#FA6D72" d="M228.345,148.932c-0.15-0.23-0.297-0.451-0.432-0.684"/>
		<path fill="#FA6D72" d="M350.654,315.116c0.092-0.449,0.199-0.863,0.152-1.398"/>
		<path fill="#FA6D72" d="M139.46,292.562c0.392-0.274,1.014-0.197,1.54-0.283C140.603,291.569,140.119,291.433,139.46,292.562z"/>
		<path fill="#FA6D72" d="M166.821,184.716c-0.291,0.198-0.562,0.632-0.803,1.586"/>
		<path fill="#FA6D72" d="M228.702,142.581c-0.867,0.779-1.254,1.507-1.462,2.227C227.972,144.853,228.564,144.429,228.702,142.581z
			"/>
		<path fill="#FA6D72" d="M295.071,158.371c-0.236,0.317-0.5,0.355-0.749,0.591"/>
		<path fill="#FA6D72" d="M227.414,342.323c-0.164,0.086-0.28,0.332-0.44,0.474c0.444,0.205,0.818,0.382,1.327,0.623
			L227.414,342.323z"/>
		<path fill="#E84243" d="M342.155,367.592c8.932,5.369,13.995-6.743,22.642-8.226c-3.715-3.589,1.619-3.484,1.554-5.987
			c3.252,4.307,2.561-3.653,6.385-2.727l-4.545-2.986c5.672-1.095-0.714-10.988,5.962-8.764c2.984-0.926,2.319,3.181,2.199,4.636
			c7.1,1.003,2.841-10.466,9.542-9.29c-1.556-1.482-4.997-2.614-4.787-6.295c3.464-0.637,8.554-3.818,9.058-3.039
			c0.121-2.553-1.146-3.809,1.65-5.156c1.146,0.792,0.83,1.854,1.014,2.846c2.927-3.036,2.673-6.769,1.752-10.806
			c4.395-0.684,4.805-8.11,7.913-12.219c-4.568-3.454,2.897-7.449-3.483-8.514l1.976-0.57c-1.681-1.906-5.671-3.448-5.797-5.447
			l4.154,0.766c5.627,0.638,0.901-6.122,3.454-6.808c-3.456,2.062-0.15-2.49-3.404-2.417l-1.568-2.361
			c-1.462-3.761-2.111-0.21-3.165-4.844c-0.767-2.529,4.747-1.833,4.295-0.74c1.721-2.731-0.179-4.758-1.779-6.842
			c-0.022-0.117-0.021-0.205-0.078-0.342c0.195-0.704-0.017-1.6-0.243-2.543c0.145-0.152,0.079-0.35-0.13-0.585
			c-0.176-0.815-0.221-1.614,0.249-2.278l3.369-0.331c-0.369-1.807-5.316-5.162-6.581-4.453c0.039-6.765-6.845-15.593-10.132-17.878
			c1.096,0.438,2.123,0.048,0.669-0.223c-1.736-1.813-5.454-2.566-3.747-3.771c-2.31-1.026,0.891-2.825-0.68-5.732
			c0.572-0.438-3.022,1.441-2.158,1.945c1.261-7.786-10.148-8.039-11.667-15.206c-0.331,0.943,2.361-0.039,3.725-0.385
			c-4.382-2.891-8.783-5.425-15.002-5.217l3.696-1.779c-2.674-2.261-6.34-4.275-9.44-2.887c0.774,2.697,1.248-1.314,2.338-0.156
			c-0.063,3.82-5.223,3.383-6.333,1.387l0.377-0.607c-2.512-2.141-3.669-0.753-6.61-2.188c-0.687-2.521,2.015,0.036,2.481-2.057
			c2.239-4.808-5.241-6.644-5.521-7.494c-1.283,0.626-2.737,0.845-3.231,2.201c-2.965,0.017,0.258-3.359-1.516-4.022
			c-3.849,2.058-7.142,3.54-10.639,6.433c1.96-0.542-0.615-4.941,2.548-6.416c-5.761-0.508-10.25,4.916-13.623,7.628
			c-1.296-1.146-6.101,0.048-7.58-0.032c-0.587-2.91,1.291,0.439,1.789-1.691l-2.236-3.736c3.362,0.188-0.231-5.069,1.768-6.748
			c-2.984,0.645-9.797,0.78-14.42,0.271c3.691,5.56-5.429,3.8-4.166,9.045c-4.438,1.714-3.33-3.873-5.499-4.716l-13.32,6.428
			l-0.255-1.107c-3.125,3.469-10.147,5.343-11.374,11.48l-0.737-2.981c-5.065,0.495,2.899,6.304-3.368,5.928l-0.421-2.795
			c-1.451,3.12-7.449,2.064-6.491,7.688c-1.209-0.827-1.063-1.765-1.308-2.67c-1.232,3.391-3.971,6.154-2.771,10.536
			c-1.671-0.679-2.618-1.909-2.777-3.721c-3.704,1.501,1.583,5.648-1.502,7.13c-0.642,0.623-3.403,0.75-3.188,0.205
			c1.169,2.629-1.298,6.494-1.354,8.394c-1.744-0.548-2.86,0.188-5.482,0.905c-7.872,14.17-16.049,33.576-6.807,49.16
			c-4.404,4.069-4.516-3.231-7.642-0.779c4.544-0.959,2.212,2.832,5.383,7.711l-0.549,0.463c1.625,1.838-0.628,4.429,1.505,6.247
			l1.017-0.688c2.998,0.978-0.997,7.809,4.514,5.472l-1.043,3.538c5.879-1.711,2.029,4.19,7.539,3.258l-0.915,0.453
			c2.036,4.962,10.038,1.396,8.928,5.979c3.587,0.81,7.958,1.046,10.305-2.381c-0.005,1.653-1.525,3.751-2.62,4.811
			c12.622,1.337,27.733,11.974,37.141,0.482l0.21,2.553c4.998-6.166,15.803-0.483,15.932-10.891l-0.861-4.248
			c1.839,0.396,3.372,2.673,5.087,2.992c-0.693-2.803,4.362-4.07,2.031-6.996l2.241,2.332c2.168-2.197-1.229-7.518,1.042-8.523
			l1.185,1.234c12.572-9.602,4.014-38.221-9.814-42.354c-3.384-1.499,2.855-4.374,1.379-5.277
			c-11.087-10.528-32.956-5.764-28.51,12.866c-1.729,9.878,8.638,16.335,8.66,16.308c0.177-2.66,0.823-4.826,1.675-6.709
			c0.141,0.789,0.235,1.414,0.393,2.335c4.003,4.433,8.135,13.507,7.126,14.397c1.698,1.327,0.307-1.345-9.109,2.357
			c0.12,0.225-2.498,0.554-5.146,0.854c-4.586-2.037-9.228-3.538-14.477-4.203c0.467,1.741-1.714,3.486-3.208,3.765l0.31-1.285
			l-3.161,2.146c-1.898-0.27,0.723-3.447,2.328-3.479c-5.814-3.826-11.623-5.388-11.196-9.447c-4.176,1.313-0.655-1.563-5.434-0.631
			l2.037-0.315c-4.604-1.842-2.825-4.408,3.16-7.315c10.171-19.872,15.124-40.561,38.676-46.479
			c18.269-7.889,38.115-5.929,57.604,15.378c8.524-1.487,9.079,5.495,17.16,6.467l-2.031,0.877
			c4.559,1.387,2.662,6.396,2.166,11.632c2.316-1.043,1.552,1.576,5.012-0.885c4.104,0.378-3.865,5.518-1.045,7.139
			c-1.302,0.585,2.335-0.938,1.243,0.053c6.581,4.715-2.5-0.138-4.271,8.474c4.122,9.276,8.046,20.887,1.501,29.688
			c0.116-0.637,3.411,0.339,2.938,1.348c-6.74-1.843-0.013,4.015-3.332,4.638l-1.484-2.503c-4.164,2.824-3.58,8.406-8.71,10.448
			c-0.854,5.281-8.731,5.296-8.78,9.818c-1.298-2.54-2.942-0.063-4.549-0.392c2.416,8.539-8.95,3.762-9.606,10.516l-0.667-1.258
			c-11.963,8.829-23.79,12.667-36.595,19.413c-7.659,2.433-16.667-3.116-23.993-0.229c-1.465,1.043-0.401,2.854-1.647,3.563
			c-2.027-0.213,0.179-2.52-0.548-3.481c-4.287,3.708-8.576-2.132-13.068-2.463c-0.877,1.26-2.226,1.103-2.335,3.108
			c-3.197-6.86-12.732-2.566-15.769-9.244c-1.801,7.009-4.986,1.839-7.471,1.729c-0.795-0.989,0.274-2.511,1.351-3.398
			c-3.994-1.814-6.262-2.913-8.71-8.116c-2.275-1.061-5.557,1.353-6.907-1.637c2.26-4.77-4.116-4.86-4.779-8.295
			c-2.732,3.332-7.799,2.208-8.271-1.429l5.316-2.779c-9.103-5.553-10.602-21.13-21.49-28.409l2.891-2.035
			c-2.378-0.04-0.789-21.094-4.933-30.49c2.278-2.977,4.11-7.74,4.505-10.817c-2.561-4.91-1.271-6.035-5.118-10.123
			c0.181-1.664,3.131-1.834,4.462-2.059c2.685-4.85,7.86-8.013,5.131-13.645l2.759,1.09c-0.79-4.606-1.381-12.339,4.057-14.381
			c-1.396-2.417,0.815-6.87-3.298-7.159c0.731-1.955,4.739,2.031,3.484-1.45l2.24,4.046c6.94-7.779,12-15.104,19.566-22.925
			c5.298,2.715,8.065-6.175,15.109-5.812c2.117-4.06,9.067-2.891,9.695-9.4l1.116,2.722c4.685-1.148,10.893-3.175,17.461-2.806
			c3.746,0.079,2.921-4.3,5.633-6.277l0.652,2.875c2.926-2.188,3.192-6.823,4.077-9.931c2.841,1.664,2.901-0.454,5.699,1.194
			c-2.34,1.926-4.08,5.369-5.13,9.526c3.966,0.792,7.257-7.283,10.145-2.761c3.495,0.906,6.06-0.469,6.158-4.408
			c-0.671,1.311,2.29,2.165,0.484,4.029c2.38-0.278,3.899-0.702,5.346-2.164c-0.452-0.106-1.034-0.454-1.514-0.353
			c1.195-2.981,3.757-2.817,3.222-7.277c-1.339,1.146-1.398,1.856-3.097,1.508c0.628-3.11,5.188-3.983,6.25-1.204
			c1.208,3.18-3.029,5.163-1.042,7.061l7.579-7.659c-1.654,2.533-4.179,0.391-3.376-2.688l-2.969,1.865l0.229-3.213
			c-4.934,1.177-8.436-2.238-13.424,0.715l2.037,3.181c-2.967,0.323-5.537,4.911-8.482,1.247c1.205-1.263,0.129-2.853-0.045-4.654
			c-0.645,0.637-1.298,1.922-2.161,1.542l0.895-5.666c-0.688,7.424-7.838,3.674-9.091,5.015l0.298-1.071
			c-4.783-1.769,1.194,2.966-1.758,3.441c-2.674-0.567-1.85-5.835-4.61-7.798c-4.684,1.235-11.476,6.653-17.592,4.038
			c-3.792,2.199-7.629,5.502-10.247,8.979c-3.467,1.166-1.876-5.6-4.451-1.746c-0.296-2.01-1.582-3.695-2.619-5.297
			c0.443,2.24-6.819,2.713-1.981,5.992c-5.455,1.271-11.574,3.313-15.896,7.671c1.462-1.334,0.167-4.698-2.207-5.278
			c-0.672,4.527-3.589,8.658-8.297,10.662c2.212,2.793,3.538,1.946,5.211,5.066c-0.283,0.799-0.13,2.862-1.179,3.398
			c-2.83-2.515-6.21-7.192-9.745-4.27c-2.871-5.36,6.358-4.59,1.168-7.787c-1.427-5.269,6.144-10.091,9.277-8.737
			c0.959-6.578-3.179,1.298-5.176-3.269c-3.076,2.672-3.477,5.236-7.605,9.914c1.521,2.01,3.249,0.992,2.483,4.381
			c-0.529,7.424-7.31,1.507-8.559,2.299l1.109-2.788c-3.894,1.115-2.521,4.497-5.479,6.825c-5.582-4.064,3.988-4.657,2.264-8.635
			l-5.433-1.614c-5.106,3.771,2.55,5.058-3.284,8.147l-1.233-2.225l-1.458,4.081c1.882,1.764,5.113,3.543,6.912,0.807
			c3.272,5.984-1.218,2.891-3.495,7.719c1.834,3.64,1.069-1.922,3.904,0.408c2.825,1.816,0.857,4.484-0.134,6.75
			c-2.415,3.076-4.422-0.841-7.409-1.024c0.008-0.968,1.597-3.819,3.056-2.226c0.215-6.464-7.457-2.944-7.237-7.479
			c-4.356,2.008-0.771,4.541-1.095,6.997c1.138-0.738,2.648,2.632,4.269,2.68c4.252,11.127-9.035-0.911-10.811,6.127
			c6.034,2.214,3.772,12.053,12.033,11.435c0.318,1.84,0.827,4.081-0.441,5.061c-3.17-3.426-4.275,0.866-6.659-3.571l-1.095,1.99
			l-3.033-5.451c-3.863,0.909-8.596,3.72-11.17,4.234c0.15,3.962,4.337,0.689,3.493,4.76c-1.522-2.17-4.324-0.622-4.723,1.139
			c2.683-2.755,5.753,2.26,6.129,4.656c-0.948,3.223-5.671,4.534-6.488,3.741l-2.499-4.464c2.215,3.556-1.945,0.552-1.454,3.572
			c2.054,1.493,5.123,4.185,7.843,5.879c0.388,2.342-3.112,2.938-2.805,3.828l-1.522-4.052c-0.391,4.684-6.725-0.895-6.49,4.249
			l2.927,2.037c-0.788,0.764-2.415,0.881-3.387-0.314c2.197,1.298,0.727,3.825,1.567,5.121l-2.229-0.147
			c1.138,2.25,5.69,5.523,1.034,7.059c5.575-0.858,0.383-2.318,3.249-5.106c4.197-1.178,3.196,3.896,3.697,4.712
			c-5.672-1.246-1.221,4.73-1.571,6.9l-4.667,2.708l3.69,1.361c-7.501-0.012,1.082,4.694-1.53,6.976
			c-2.111-1.501-5.084-1.596-6.4,0.176c5.877-1.988,6.322,4.517,10.258,3.972c-1.938,4.313-7.026-1.448-10.896-0.382
			c4.264,2.486-2.774,5.001,2.746,6.719c1.697-3.215,3.521,0.646,5.96,1.354c-0.416,4.043-2.44-0.737-4.416,2.105
			c0.779,1.748,5.064,3.973,6.625,1.39c-1.167,2.359,4.146,4.926,0.755,7.563c-3.446,1.146-1.621-4.895-4.083-3.354
			c-0.31,5.639,8.573,2.707,9.766,7.694c1.857-2.215,7.987-0.349,10.067,1.829c-1.465,5.419-2.084-2.224-6.489,0.02l0.694,2.151
			c-6.035,3.496-10.021-6.111-14.914-2.916l2.063,2.394c-1.296-0.346-3.276-0.586-4.917-0.282c1.358,2.49,1.358,13.569,2.633,13.163
			c3.588-0.535-1.916-2.217,0.886-2.673c2.227,3.114,7.966,1.648,7.674,6.46c-3.229-1.123-4.083,2.782-6.313,2.727
			c-0.484,2.563,4.11-1.133,3.572,2.451l-2.078,0.595c4.034,10.455,11.979,22.599,24.504,25.032
			c-1.858,3.467,0.008,6.465,1.493,12.464c-0.569-2.707,2.742-2.388,4.036-1.694l-1.359,4.683c0.47,4.069,6.233,4.723,9.969,5.168
			l-1.485,2.723c0.294,3.984,3.876,0.434,5.317,0.502l-0.568,3.453l2.216-1.819c3.267,0.737,5.596,3.792,2.417,7.18
			c1.51,0.026,2.987,0.003,2.626-1.919c0.713,3.797,7.416,8.987,12.906,10.411c-1.656-2.214-0.634-3.401,0.742-5.963
			c3.228-3.74,0.49,1.438,3.833-0.034c-0.915,1.579,0.244,4.354-2.721,4.29c3.12,9.238,14.85,9.358,23.162,13.11
			c2.002-0.103,1.696-1.072,2.901-2.036c4.24,6.513,12.554,2.368,18.229,5.685c-1.1-2.335,1.478-7.537,4.631-7.697
			c3.751-3.961,0.967,5.721,4.229,8.244c1.781-1.861,4.872-2.305,6.198-2.029l-0.124,0.699c2.044-2.199,5.109-3.166,7.546-1.75
			l-0.355,0.322c1.908,0.114,4.438,2.395,6.44,1.774c0.43-3.914,5.657-2.244,6.257-5.787l0.665,1.45l-0.412-3.203l4.248,1.27
			l-1.486,3.797c4.71,1.521,0.896-3.031,2.639-5.285c2.203-3.08,2.771,0.092,4.463,1.039c-0.79,1.909-2.248-0.153-2.785,0.619
			c-1.037,2.977,1.91,0.538,2.411,2.32c0.635-0.073-0.037-3.97,2.169-3.826c1.88-0.146,5.722-2.331,6.235,1.194
			c0.991-2.234,2.889-2.399,3.534-4.248c-1.651-0.183-4.524-0.286-5.479-2.356c1.165-0.795,3.364-2.44,4.249-1.082l-0.747,1.131
			c0.747-1.131,4.807-1.2,1.832-3.719l4.147,3.484c0.644-3.059,2.978-3.956,4.875-5.479c1.612,3.229,1.552,7.711,5.882,6.569
			l1.768-4.896c1.556-1.215,2.366-0.737,3.088,1.309c6.97-1.398,1.171-11.932,7.103-11.744c0.336,4.792,2.071,4.198,4.711,3.988
			c-0.279-0.66-0.851-1.963-0.097-2.591c-1.601-1.326,0.367,3.241-2.669,1.708C338.948,369.467,341.673,368.862,342.155,367.592z"/>
	</g>
</g>
</svg>
