<?xml version="1.0" encoding="utf-8"?>
<!-- Generator: Adobe Illustrator 16.0.0, SVG Export Plug-In . SVG Version: 6.00 Build 0)  -->
<!DOCTYPE svg PUBLIC "-//W3C//DTD SVG 1.1//EN" "http://www.w3.org/Graphics/SVG/1.1/DTD/svg11.dtd">
<svg version="1.1" id="Layer_1" xmlns="http://www.w3.org/2000/svg" xmlns:xlink="http://www.w3.org/1999/xlink" x="0px" y="0px"
	 width="540px" height="540px" viewBox="0 0 540 540" enable-background="new 0 0 540 540" xml:space="preserve">
<g>
	<path fill="#CE772A" d="M224.474,429.753c0.329-0.926,0.714-1.795,1.189-2.631c0.196-0.431,0.459-0.882,0.723-1.263l0.714-1.123
		c0.923-1.465,1.793-2.937,2.618-4.438c1.583-2.947,3.006-6.084,3.378-9.092c0.197-1.502,0.074-2.931-0.37-4.195
		c-0.488-1.264-1.347-2.465-2.405-3.588c-0.301-0.295-0.573-0.56-0.863-0.854l-0.938-0.865c-0.706-0.631-1.385-1.324-2.029-2.082
		c-1.274-1.466-2.417-3.158-3.179-5.074c-0.789-1.9-1.214-4-1.133-6.073c0.026-2.062,0.494-4.107,1.197-5.947
		c0.723-1.836,1.722-3.569,2.818-5.133c0.532-0.763,1.116-1.498,1.729-2.19c-0.655-0.504-1.278-1.084-1.884-1.664
		c-1.295-1.305-2.485-2.736-3.427-4.396c-0.929-1.67-1.647-3.592-1.905-5.561c-0.264-2.031-0.027-4.059,0.53-5.939
		c0.564-1.874,1.477-3.592,2.502-5.088c1.171-1.698,2.125-2.719,3.061-4.006c1.831-2.476,3.452-5.182,3.597-7.463
		c0.07-1.122-0.22-2.251-0.811-3.495c-0.563-1.214-1.401-2.532-2.317-3.832c-1.833-2.63-3.813-5.369-5.609-8.209
		c-1.729-2.839-3.555-5.34-5.364-8.473c-0.849-1.578-1.719-3.372-2.004-5.621c-0.079-1.103-0.022-2.268,0.236-3.329
		c0.264-1.084,0.688-2.071,1.171-2.967c0.956-1.725,2.147-3.135,3.341-4.438c1.213-1.301,2.464-2.443,3.753-3.61
		c1.572-1.373,3.193-2.68,4.826-3.961c-51.952-75.409-186.391-79.844-186.391-79.844c46.233,34.522,25.712,103.294,44.465,154.015
		c38.909,115.377,136.661,74.632,136.661,74.632c0.21-0.176,0.371-0.391,0.56-0.604C222.584,437.443,223.047,433.46,224.474,429.753
		z"/>
	<path fill="#F8901F" d="M224.474,429.753c0.329-0.926,0.714-1.795,1.189-2.631c0.196-0.431,0.459-0.882,0.723-1.263l0.714-1.123
		c0.923-1.465,1.793-2.937,2.618-4.438c1.583-2.947,3.006-6.084,3.378-9.092c0.197-1.502,0.074-2.931-0.37-4.195
		c-0.488-1.264-1.347-2.465-2.405-3.588c-0.301-0.295-0.573-0.56-0.863-0.854l-0.938-0.865c-0.706-0.631-1.385-1.324-2.029-2.082
		c-1.274-1.466-2.417-3.158-3.179-5.074c-0.789-1.9-1.214-4-1.133-6.073c0.026-2.062,0.494-4.107,1.197-5.947
		c0.723-1.836,1.722-3.569,2.818-5.133c0.532-0.763,1.116-1.498,1.729-2.19c-0.655-0.504-1.278-1.084-1.884-1.664
		c-1.295-1.305-2.485-2.736-3.427-4.396c-0.929-1.67-1.647-3.592-1.905-5.561c-0.264-2.031-0.027-4.059,0.53-5.939
		c0.564-1.874,1.477-3.592,2.502-5.088c1.171-1.698,2.125-2.719,3.061-4.006c1.831-2.476,3.452-5.182,3.597-7.463
		c0.07-1.122-0.22-2.251-0.811-3.495c-0.563-1.214-1.401-2.532-2.317-3.832c-1.833-2.63-3.813-5.369-5.609-8.209
		c-1.729-2.839-3.555-5.34-5.364-8.473c-0.849-1.578-1.719-3.372-2.004-5.621c-0.079-1.103-0.022-2.268,0.236-3.329
		c0.264-1.084,0.688-2.071,1.171-2.967c0.956-1.725,2.147-3.135,3.341-4.438c1.213-1.301,2.464-2.443,3.753-3.61
		c2.555-2.207,5.18-4.29,7.833-6.301c2.643-1.973,5.341-3.927,8.006-5.813c2.624-1.923,5.209-3.904,7.699-5.927
		c5.035-4.092,9.776-8.435,14.124-13.187c4.364-4.725,8.278-9.814,11.629-15.301c6.699-10.959,10.921-23.295,13.964-35.956
		c1.489-6.356,2.741-12.733,3.882-19.198c1.177-6.47,2.269-12.918,3.367-19.419c1.145-6.572,2.802-13.057,5.219-19.269
		c2.441-6.233,5.54-12.177,9.361-17.605c1.16-1.648,2.427-3.227,3.71-4.784c-5.305-21.031-5.794-42.366,3.045-64.352
		c0,0-160.901,105.483-160.364,234.215c0.171,42.604,11.236,104.908,69.307,141.127C222.35,440.214,222.565,434.751,224.474,429.753
		z"/>
	<g>
		<g>
			<g>
				<path fill="#CD7629" d="M329.551,118.956c-2.844,1.626-5.599,3.532-8.172,5.638c-5.144,4.16-9.669,9.083-13.514,14.523
					c-3.82,5.433-6.92,11.376-9.361,17.604c-2.409,6.212-4.076,12.697-5.218,19.269c-1.104,6.5-2.19,12.955-3.365,19.419
					c-1.146,6.463-2.391,12.842-3.882,19.198c-3.039,12.661-7.266,24.998-13.966,35.957c-3.354,5.487-7.265,10.576-11.63,15.301
					c-4.348,4.746-9.089,9.094-14.125,13.185c-2.484,2.03-5.067,4.006-7.698,5.929c-2.661,1.883-5.364,3.838-8.006,5.811
					c-2.65,2.013-5.277,4.096-7.833,6.303c-1.289,1.165-2.539,2.311-3.753,3.608c-1.189,1.306-2.384,2.716-3.339,4.438
					c-0.479,0.896-0.907,1.885-1.17,2.969c-0.257,1.063-0.319,2.229-0.238,3.329c0.281,2.25,1.154,4.042,2.005,5.622
					c1.808,3.134,3.635,5.631,5.363,8.472c1.796,2.839,3.783,5.579,5.608,8.209c0.914,1.299,1.752,2.619,2.32,3.833
					c0.59,1.244,0.88,2.373,0.811,3.495c-0.147,2.278-1.767,4.988-3.598,7.461c-0.936,1.291-1.896,2.31-3.061,4.005
					c-1.02,1.497-1.938,3.221-2.501,5.092c-0.559,1.883-0.796,3.911-0.532,5.938c0.265,1.971,0.981,3.898,1.906,5.563
					c0.938,1.664,2.131,3.092,3.425,4.396c0.607,0.574,1.229,1.158,1.886,1.665c-0.614,0.692-1.198,1.434-1.729,2.188
					c-1.097,1.563-2.096,3.299-2.821,5.133c-0.704,1.847-1.171,3.894-1.195,5.947c-0.081,2.073,0.344,4.174,1.133,6.073
					c0.76,1.918,1.9,3.608,3.178,5.075c0.645,0.757,1.326,1.447,2.029,2.083l0.938,0.862c0.291,0.297,0.56,0.561,0.866,0.855
					c1.059,1.119,1.916,2.323,2.404,3.584c0.446,1.27,0.569,2.696,0.369,4.199c-0.369,3.013-1.793,6.148-3.377,9.091
					c-0.822,1.503-1.691,2.976-2.619,4.438l-0.714,1.123c-0.263,0.381-0.531,0.832-0.726,1.261
					c-0.472,0.841-0.863,1.708-1.187,2.633c-2.729,7.151-2.072,15.263,1.434,21.877c1.739,3.372,4.146,6.289,6.975,8.638
					c2.835,2.411,6.063,4.254,9.402,5.653c6.749,2.771,13.942,3.825,21.03,4.06c14.24,0.396,28.271-2.207,41.808-5.959
					c-6.845,1.535-13.804,2.695-20.756,3.477c-6.975,0.781-13.989,1.104-20.938,0.6c-6.92-0.515-13.841-1.855-20.042-4.676
					c-3.104-1.418-6.024-3.195-8.504-5.402c-2.52-2.242-4.572-4.886-6.001-7.877c-2.912-5.891-3.243-13.024-0.845-19.037
					c0.318-0.742,0.649-1.436,1.047-2.123c0.195-0.357,0.383-0.647,0.625-1.013l0.719-1.086c0.977-1.504,1.938-3.021,2.839-4.623
					c1.761-3.145,3.441-6.517,4.092-10.5c0.301-1.977,0.22-4.168-0.496-6.213c-0.704-2.077-1.955-3.778-3.26-5.212
					c-0.338-0.35-0.683-0.71-1.01-1.032l-1.011-0.938c-0.596-0.549-1.123-1.104-1.637-1.723c-1.01-1.16-1.821-2.481-2.347-3.824
					c-1.117-2.724-0.956-5.725,0.215-8.547c0.569-1.435,1.357-2.797,2.292-4.08c0.467-0.612,0.977-1.264,1.519-1.869
					c0.505-0.575,1.123-1.197,1.622-1.649l2.489-2.188l-2.861-1.756c-0.511-0.311-1.166-0.762-1.724-1.261
					c-0.552-0.426-1.104-0.914-1.6-1.438c-1.042-1.049-1.912-2.17-2.582-3.391c-1.35-2.383-1.637-4.978-0.854-7.517
					c0.408-1.267,1.042-2.519,1.858-3.693c0.698-1.06,1.968-2.442,2.961-3.812c1.021-1.387,2.029-2.854,2.894-4.499
					c0.84-1.655,1.59-3.534,1.735-5.708c0.161-2.166-0.403-4.328-1.238-6.045c-0.806-1.697-1.767-3.212-2.746-4.599
					c-1.883-2.752-3.773-5.363-5.469-8.081c-1.712-2.802-3.69-5.614-5.156-8.219c-0.729-1.288-1.237-2.521-1.343-3.573
					c-0.134-1.042,0.114-2.031,0.749-3.207c1.25-2.281,3.568-4.549,5.922-6.627c2.346-2.102,4.902-4.118,7.495-6.087
					c2.604-1.955,5.219-3.893,7.882-5.832c2.691-1.953,5.349-3.982,7.914-6.104c10.348-8.404,19.69-18.427,26.55-30.051
					c3.446-5.775,6.272-11.918,8.517-18.222c2.25-6.319,3.946-12.767,5.363-19.253c2.824-12.966,4.529-26.028,6.377-39.048
					c1.848-12.788,5.905-25.411,12.948-36.354c3.526-5.465,7.791-10.448,12.696-14.758c4.924-4.295,10.357-8.097,16.479-10.524
					C335.399,115.835,332.423,117.308,329.551,118.956z"/>
			</g>
			<g>
				<path fill="#CD7629" d="M411.685,108.578c-0.956,20.627,4.278,40.986,14.742,57.721c2.609,4.183,5.579,8.149,8.834,11.828
					c3.198,3.715,6.68,7.211,10.402,10.399c3.716,3.243,7.731,6.104,11.828,8.837c4.396,2.933,8.827,6.181,12.874,9.713
					c8.263,7.011,15.323,15.65,20.487,25.449c5.104,9.813,7.802,20.922,7.919,31.859c0.018,5.47-0.547,10.888-1.524,16.154
					c-1.091,5.289-2.661,10.399-4.53,15.356c-3.875,9.855-9.058,19.042-15.324,27.338c4.016-9.563,7.683-19.168,9.961-29.015
					c1.16-4.896,2.029-9.841,2.459-14.771c0.472-4.92,0.546-9.83,0.073-14.661c-0.473-4.816-1.268-9.562-2.68-14.148
					c-1.374-4.602-3.371-8.951-5.609-13.169c-4.573-8.462-11.087-15.758-18.318-22.33c-3.677-3.302-7.51-6.234-11.665-9.11
					c-4.414-3.06-8.596-6.486-12.525-10.181c-3.952-3.699-7.634-7.683-10.925-11.956c-3.256-4.311-6.17-8.88-8.698-13.658
					C409.581,151.142,406.616,128.731,411.685,108.578z"/>
			</g>
		</g>
	</g>
	<g>
		<g>
			<g>
				<path fill="#FAA32F" d="M309.223,208.25c0,0,38.414-15.308,62.671-10.813c24.273,4.494,37.058,22.227,37.058,22.227
					s-9.438-16.208-35.042-27.027C348.294,181.819,286.995,201.635,309.223,208.25L309.223,208.25z"/>
			</g>
			<g>
				<path fill="#FAA32F" d="M344.487,268.833c-5.047,1.031-10.141,1.61-15.283,1.832c-9.491,0.413-19.093-0.236-28.897-0.871
					c-0.054-0.854-0.107-1.74-0.091-2.625c-0.018-1.917,0.06-3.913,0.252-5.868c0.296-4.005,0.854-8.043,1.326-12.193
					c-2.319,3.496-4.039,7.318-5.486,11.285c-0.94,2.771-1.734,5.627-2.139,8.713c-2.604,0.123-5.504-0.29-8.692-1.61
					c2.717,2.405,5.578,3.751,8.515,4.473c0,0.472-0.036,0.904-0.021,1.396l0.021,0.251c-4.197,2.496-10.146,4.15-17.532,1.091
					c4.815,4.344,10.18,5.434,15.687,5.09c-4.835,3.297-11.521,6.593-20.488,8.708c13.429,0.431,26.392-3.568,37.011-9.477
					c-3.656,4.082-9.379,8.805-18.186,12.462c11.232-1.306,21.369-6.266,29.427-12.611c1.123,0,2.232-0.031,3.351-0.074
					c-2.318,3.354-5.771,6.818-10.953,9.498c8.601-0.784,15.699-4.924,21.025-10.582c1.486-0.269,2.974-0.573,4.419-0.977
					c-1.23,1.717-2.933,3.403-5.381,5.036c5.454-1.573,9.286-4.192,11.974-7.263c0.611-0.236,1.229-0.451,1.809-0.747
					c5.165-2.336,9.911-5.686,13.4-9.976C354.545,266.123,349.566,267.771,344.487,268.833z"/>
			</g>
		</g>
	</g>
</g>
</svg>
