<?xml version="1.0" encoding="utf-8"?>
<!-- Generator: Adobe Illustrator 16.0.0, SVG Export Plug-In . SVG Version: 6.00 Build 0)  -->
<!DOCTYPE svg PUBLIC "-//W3C//DTD SVG 1.1//EN" "http://www.w3.org/Graphics/SVG/1.1/DTD/svg11.dtd">
<svg version="1.1" id="Layer_1" xmlns="http://www.w3.org/2000/svg" xmlns:xlink="http://www.w3.org/1999/xlink" x="0px" y="0px"
	 width="540px" height="540px" viewBox="0 0 540 540" enable-background="new 0 0 540 540" xml:space="preserve">
<g>
	<path fill="#FED944" d="M221.566,435.606c-0.949,0.771-1.886,1.733-2.722,2.967c-0.635,0.967-1.222,2.05-1.708,3.235
		c-0.509,1.135-0.797,2.628-1.036,3.68l-0.041,0.701l-0.021,0.354l-0.011,0.173c-0.015-0.024,0.019,0.309-0.032-0.008l-0.12,1.099
		c-0.049,0.734-0.07,1.494-0.004,2.238c0.09,1.518,0.323,3.086,0.912,4.613c1.071,3.096,3.33,6.147,6.739,8.692
		c0.081,0.059,0.171,0.117,0.256,0.175l-0.82-27.143C222.479,436.139,222.016,435.884,221.566,435.606z"/>
	<path fill="#FED944" d="M203.362,460.341c-3.33-4.238-5.528-9.093-6.648-13.292c-0.566-2.616-0.773-4.692-0.879-6.991
		c-0.074-2.24,0.082-4.439,0.443-6.566c1.288-8.52,6.392-16.543,12.853-22.174c4.144-3.611,8.468-5.897,12.847-7.249l-0.943-31.38
		l-2.616-0.891l-1.841-0.611l-1.885-0.746l-3.416-1.353c-2.362-1.137-5.001-2.236-7.194-3.548l-3.423-1.92l-3.277-2.134
		c-8.586-5.847-15.991-13.409-20.851-22.158c-2.439-4.352-4.535-8.912-5.855-13.653c-0.797-2.35-1.195-4.753-1.74-7.164
		c-0.326-2.412-0.777-4.851-0.877-7.285c-0.761-9.779,0.504-19.657,3.315-29.223c2.762-9.592,7.058-18.871,12.585-27.622
		c5.47-8.782,12.035-17.109,19.528-24.812c3.735-3.857,7.716-7.551,11.835-11.128c0.346-0.305,0.687-0.597,1.034-0.897
		L212.63,93.923l-77.497-10.902l7.653,387.114L224.716,495l-0.632-20.98c-2.512-0.765-4.924-1.723-7.177-2.866
		C211.369,468.446,206.729,464.626,203.362,460.341z"/>
	<path fill="#FED944" d="M213.409,305.721c-0.553-6.792,0.609-14.832,4.915-23.041l-0.839-27.86
		c-3.486,3.588-6.782,7.271-9.807,11.082c-10.954,13.876-18.907,29.399-20.368,45.323c-0.274,1.992-0.177,3.957-0.258,5.945
		c0.152,1.953,0.13,3.957,0.482,5.887c0.47,3.91,1.476,7.748,3,11.42c1.452,3.711,3.565,7.181,5.998,10.475
		c2.39,3.333,5.441,6.3,8.773,9.012c3.31,2.772,7.187,5.013,10.947,7.02l3.309,1.523l1.181,0.538l-1.224-40.61
		C216.447,318.348,214.031,312.646,213.409,305.721z"/>
	<path fill="#F49329" d="M270.926,345.774c-3.102-15.052-6.276-30.637-9.186-46.711c-1.385-7.457-2.692-15.024-3.927-22.68
		c-0.122,0.039-0.254,0.073-0.375,0.118c-8.836,2.927-15.867,7.599-20.951,12.977c-5.04,5.402-8.199,11.379-9.66,16.872
		c-0.362,1.295-0.624,2.547-0.814,3.778l0.122,9.439c0.083,0.423,0.167,0.837,0.271,1.234c0.969,3.964,2.899,6.863,4.449,8.668
		c0.763,0.891,1.495,1.567,1.997,1.999c0.486,0.436,0.734,0.659,0.734,0.659s-0.342-0.099-1.019-0.299
		c-0.336-0.098-0.757-0.221-1.263-0.371c-0.487-0.204-1.059-0.446-1.704-0.729c-0.966-0.439-2.112-1.04-3.337-1.837l0.477,36.446
		l2.47,0.81c4.417,1.41,8.936,2.572,13.525,3.302c4.573,0.81,9.2,1.241,13.792,1.364c6.541,0.196,13.013-0.38,19.201-1.608
		c-0.086-0.426-0.16-0.83-0.24-1.256C273.992,360.693,272.475,353.301,270.926,345.774z"/>
	<path fill="#F49329" d="M247.335,190.968c-1.351-15.649-2.377-31.546-2.806-47.691c-0.547-18.371-0.417-36.987,2.322-56.101
		c0.759-4.783,1.728-9.595,3.245-14.498c1.226-3.694,2.53-7.439,4.993-11.297l-32.261,4.2l1.891,144.871
		c0.782-0.659,1.564-1.318,2.347-1.988C233.825,202.667,240.682,196.842,247.335,190.968z"/>
	<path fill="#F49329" d="M234.492,402.394c11.966,0.188,21.472,8.615,21.472,18.604c0,9.986-9.706,18.08-21.671,18.08
		c-2.306,0-4.518-0.307-6.599-0.871l0.348,26.609l28.53,2.649c4.485-1.372,8.775-3.538,12.554-6.436
		c4.617-3.632,8.404-8.347,10.711-13.76c0.627-1.362,1.041-2.699,1.502-4.076l0.566-2.286c0.164-0.604,0.266-1.456,0.4-2.18
		c0.52-3.011,0.789-6.115,0.908-9.283c0.258-6.325-0.203-12.872-0.885-19.576c-0.715-6.697-1.619-13.561-2.875-20.545
		c-0.674-3.9-1.396-7.858-2.148-11.854c-6.905,1.018-13.969,1.473-21.064,1.284c-9.858-0.248-19.793-1.729-29.381-4.349l0.372,28.46
		C229.655,402.497,232.083,402.357,234.492,402.394z"/>
	<path fill="#F49329" d="M285.074,275.532c-4.801-1.278-9.525-1.895-14.129-1.646c-1.159,0.004-2.283,0.182-3.424,0.277
		c-0.055,0.008-0.102,0.017-0.16,0.021c1.024,8.063,2.083,16.03,3.167,23.891c3.422,24.365,7.244,47.682,10.822,69.803
		c8.014-2.18,15.383-5.486,21.58-9.689v-73.786C297.295,280.282,291.143,277.251,285.074,275.532z"/>
	<path fill="#ED1E79" d="M272.637,64.568c0.119-0.011,0.238-0.032,0.176-0.022C272.867,64.497,272.775,64.518,272.637,64.568z"/>
	<path fill="#F49329" d="M284.699,388.741c2.082,14.086,4.061,27.656,3.867,40.809c-0.041,3.282-0.227,6.542-0.688,9.766
		c-0.139,0.834-0.186,1.55-0.389,2.472l-0.475,2.299c-0.451,1.619-0.902,3.286-1.535,4.792c-2.354,6.188-6.447,11.718-11.588,16.209
		c-1.523,1.279-3.143,2.451-4.83,3.532l33.873,3.144V370.59c-6.408,2.592-13.193,4.567-20.182,5.93
		C283.408,380.637,284.064,384.716,284.699,388.741z"/>
	<path fill="#F49329" d="M298.668,64.927c1.557,1.873,2.953,3.792,4.26,5.731V55.154l-12.793,1.667
		c0.721,0.531,1.408,1.071,2.07,1.62C294.682,60.494,296.781,62.681,298.668,64.927z"/>
	<path fill="#F49329" d="M275.057,65.42c-0.664-0.364-1.242-0.56-1.684-0.694c-0.219-0.06-0.404-0.111-0.539-0.119
		c0.104-0.011-0.385-0.024,0.195-0.04l-0.408,0.012c-0.32,0.122-0.998,0.494-1.752,1.289c-2.282,2.321-4.292,6.329-5.77,10.344
		c-1.504,4.083-2.628,8.43-3.561,12.826c-1.863,8.816-2.877,17.886-3.477,26.939c-0.617,9.064-0.872,18.138-0.9,27.176
		c0.036,12.683,0.521,25.274,1.249,37.745c4.236-3.99,8.317-8.007,12.104-12.072c6.221-6.826,11.48-13.787,14.863-21.223
		c1.75-3.711,3.012-7.594,4.008-11.634c0.461-1.995,0.84-4.192,1.182-6.122l0.484-3.518l0.342-3.151
		c0.803-8.665,0.996-17.448-0.141-25.986c-1.176-8.488-3.645-16.968-8.219-23.931C280.787,69.866,277.785,66.783,275.057,65.42z"/>
	<path fill="#F49329" d="M245.997,257.382c1.563-0.75,3.204-1.379,4.842-2.081l2.628-0.937c0.354-0.124,0.666-0.242,0.992-0.359
		c-1.271-9.111-2.445-18.333-3.531-27.672c-0.507,0.414-1.011,0.831-1.521,1.243c-4.035,3.168-8.058,6.326-12.076,9.485
		c-3.777,2.912-7.375,5.957-10.845,9.072c-0.438,0.396-0.859,0.808-1.293,1.206l0.327,25.007
		C230.662,266.656,237.567,261.408,245.997,257.382z"/>
	<path fill="#F49329" d="M261.196,217.875c1.028,11.351,2.183,22.56,3.439,33.6c1.075-0.187,2.166-0.346,3.273-0.454
		c4.095-0.541,8.345-0.602,12.634-0.438c4.277,0.25,8.578,0.88,12.793,1.864c3.279,0.759,6.48,1.737,9.596,2.908v-81.422
		c-2.283,3.419-4.738,6.701-7.256,9.845C285.205,196.648,273.41,207.581,261.196,217.875z"/>
	<path fill="#EB302F" d="M329.514,50.501l-10.77,213.014c6.355,4.282,11.986,9.456,16.598,15.311
		c2.592,3.182,4.748,6.653,6.641,10.264c1.93,3.595,3.396,7.429,4.465,11.386c1.131,3.945,1.752,8.053,1.82,12.235
		c0.1,2.082-0.033,4.201-0.26,6.307l-0.486,3.465l-0.631,2.607c-0.162,0.776-0.512,1.953-0.84,3.033
		c-0.346,1.066-0.627,2.238-1.051,3.196c-0.775,1.998-1.605,3.974-2.637,5.897c-1.996,3.853-4.42,7.562-7.352,10.973
		c-5.756,6.87-13.16,12.682-21.428,17.325l-3.844,76.01l74.012,2.014L404.867,45L329.514,50.501z"/>
	<path fill="#EB302F" d="M324.609,320.367l-0.021-0.263l-0.045-0.528l-0.084-1.047c-0.18-1.392-0.291-2.772-0.637-4.135
		c-0.57-2.725-1.477-5.382-2.623-7.948c-1.178-2.643-2.617-5.178-4.248-7.585l-2.475,49.028c6.535-7.825,9.926-16.789,10.092-24.906
		l0.084-2.658C324.668,320.138,324.588,320.751,324.609,320.367z"/>
</g>
</svg>
