<?xml version="1.0" encoding="utf-8"?>
<!-- Generator: Adobe Illustrator 16.0.0, SVG Export Plug-In . SVG Version: 6.00 Build 0)  -->
<!DOCTYPE svg PUBLIC "-//W3C//DTD SVG 1.1//EN" "http://www.w3.org/Graphics/SVG/1.1/DTD/svg11.dtd">
<svg version="1.1" id="Layer_1" xmlns="http://www.w3.org/2000/svg" xmlns:xlink="http://www.w3.org/1999/xlink" x="0px" y="0px"
	 width="540px" height="540px" viewBox="0 0 540 540" enable-background="new 0 0 540 540" xml:space="preserve">
<g>
	<path fill="#B30B47" d="M379.498,45c-21.848,38.348,31.735,57.724,57.854,115.004c10.585,23.208,16.485,49.005,16.485,76.168
		c0,61.229-29.975,115.465-76.023,148.877c-15.729-70.718-31.478-142.143-47.198-211.921C319.356,123.148,332.777,56.838,379.498,45
		z"/>
	<path fill="#001B49" d="M162.185,385.052c-46.057-33.412-76.022-87.648-76.022-148.88c0-89.812,64.458-164.599,149.613-180.646
		L162.185,385.052z"/>
	<path d="M270.302,139.581H269.1L239.079,294.47h61.237L270.302,139.581L270.302,139.581z M323.486,412.082
		c-16.921,5.147-34.878,7.929-53.488,7.929c-18.611,0-36.556-2.781-53.488-7.922l11.766-59.986h83.447L323.486,412.082z"/>
	<path fill="#CCCBCB" d="M269.997,464.089c72.217,0,130.783,6.924,130.783,15.456c0,8.537-58.566,15.455-130.783,15.455
		c-72.216,0-130.782-6.921-130.782-15.455C139.215,471.013,197.781,464.089,269.997,464.089z"/>
</g>
</svg>
