<?xml version="1.0" encoding="utf-8"?>
<!-- Generator: Adobe Illustrator 16.0.0, SVG Export Plug-In . SVG Version: 6.00 Build 0)  -->
<!DOCTYPE svg PUBLIC "-//W3C//DTD SVG 1.1//EN" "http://www.w3.org/Graphics/SVG/1.1/DTD/svg11.dtd">
<svg version="1.1" id="Layer_1" xmlns="http://www.w3.org/2000/svg" xmlns:xlink="http://www.w3.org/1999/xlink" x="0px" y="0px"
	 width="540px" height="540px" viewBox="0 0 540 540" enable-background="new 0 0 540 540" xml:space="preserve">
<g>
	<g>
		<path fill="#EF5733" d="M494.996,337.743c-0.277,4.657-22.078,17.694-46.554,11.289c-16.613-4.351-32.639-11.103-40.27-14.515
			c13.136-1.804,46.45-5.695,58.346-2.343c0,0-19.522-8.646-59.936-2.621c7.549-6.663,27.986-22.761,48.062-21.582
			C479.896,309.453,495.27,333.088,494.996,337.743z"/>
		<g>
			<path fill="#EF5733" d="M451.056,226.36c-4.854-6.375-48.418-4.027-77.129,28.583c-19.492,22.137-35.846,47.128-43.436,59.319
				c20.447-10.041,71.631-36.465,85.355-52.644c0,0-19.52,31.054-82.859,61.237c17.134,2.248,61.696,5.565,89.16-15.371
				C456.688,281.141,455.914,232.734,451.056,226.36z"/>
			<path fill="#F05C5A" d="M418.024,423.713c-4.867,4.058-38.025-5.405-54.42-35.574c-11.135-20.478-19.343-42.603-23.051-53.333
				c13.981,11.326,48.793,40.679,56.526,55.556c0,0-9.587-27.355-53.09-61.739c13.592,1.276,48.513,6.549,65.999,27.501
				C431.981,382.495,422.884,419.659,418.024,423.713z"/>
		</g>
	</g>
	<g>
		<path fill="#EF5733" d="M45.004,337.743c0.27,4.657,22.078,17.694,46.552,11.289c16.607-4.351,32.632-11.103,40.265-14.515
			c-13.137-1.804-46.452-5.695-58.339-2.343c0,0,19.518-8.646,59.929-2.621c-7.542-6.663-27.984-22.761-48.06-21.582
			C60.096,309.453,44.727,333.088,45.004,337.743z"/>
		<g>
			<path fill="#EF5733" d="M93.429,226.36c4.859-6.374,48.424-4.031,77.135,28.583c19.497,22.137,35.844,47.126,43.435,59.322
				c-20.445-10.047-71.63-36.471-85.354-52.65c0,0,19.514,31.057,82.861,61.24c-17.135,2.242-61.698,5.573-89.158-15.368
				C87.792,281.141,88.567,232.734,93.429,226.36z"/>
			<path fill="#F05C5A" d="M126.466,423.713c4.866,4.058,38.024-5.405,54.418-35.574c11.13-20.478,19.343-42.605,23.046-53.333
				c-13.981,11.326-48.787,40.679-56.52,55.553c0,0,9.585-27.353,53.091-61.736c-13.602,1.276-48.519,6.546-65.999,27.508
				C112.506,382.495,121.605,419.659,126.466,423.713z"/>
		</g>
	</g>
	<g>
		<path fill="#D2292D" d="M214.222,230.301c7.75-19.941-19.695-51.205-44.346-82.435c-10.322-13.077-19.443-23.989-25.811-31.93
			l-2.631,2.249c0,0,11.764,16.979,24.601,33.197c13.122,16.581,29.434,38.629,25.194,41.583
			c-4.23,2.953-16.471-16.146-32.368-37.426c-12.48-16.7-25.528-32.124-25.528-32.124l-2.542,1.771c0,0,11.437,15.549,23.399,32.554
			c14.634,20.789,30.179,40.43,25.947,43.376c-4.238,2.954-17.763-18.122-31.994-37.481c-12.511-17.028-25.599-33.126-25.599-33.126
			l-2.213,1.335c0,0,12.032,17.256,24.102,34.592c13.597,19.527,29.012,38.928,24.638,41.978
			c-4.379,3.05-17.417-18.16-31.852-37.585c-12.504-16.824-25.348-32.459-25.348-32.459l-2.153,1.711
			c0,0,10.754,15.243,23.618,34.504c20.065,30.043,40.622,68.343,61.421,69.094c3.264,3.64,36.354,40.907,72.316,99.459
			c33.848,55.102,41.127,92.938,64.734,76.934c0,0.006,0.007,0.009,0.007,0.014c0.058-0.041,0.109-0.087,0.174-0.128
			c0.058-0.042,0.117-0.076,0.174-0.118c0-0.006,0-0.009-0.006-0.012c23.188-16.597-9.787-36.527-49.756-87.372
			C240.403,279.04,216.945,235.453,214.222,230.301z"/>
		<path fill="#D2292D" d="M433.14,167.826c7.149-31.074-2.661-43.727-6.834-47.526c0-0.006,0.019-0.023,0.019-0.023
			s-0.304-0.299-0.929-0.743c-0.51-0.396-0.82-0.582-0.82-0.582s-0.012,0.021-0.018,0.021c-4.709-2.926-19.243-8.688-47.604,6.255
			c-34.946,18.41-64.934,49.734-45.473,97.481c0,0-27.077,47.505-76.934,105.931c-44.54,52.193-80.336,71.916-56.467,90.498
			c0,0.005,0,0.014-0.006,0.014c0.058,0.047,0.122,0.085,0.187,0.131c0.065,0.048,0.111,0.099,0.177,0.146
			c0-0.003,0.004-0.009,0.011-0.013c24.334,17.966,33.66-21.827,71.888-78.806c42.79-63.772,81.222-102.678,81.222-102.678
			C402.785,243.776,424.281,206.319,433.14,167.826z"/>
	</g>
</g>
</svg>
