<?xml version="1.0" encoding="utf-8"?>
<!-- Generator: Adobe Illustrator 16.0.0, SVG Export Plug-In . SVG Version: 6.00 Build 0)  -->
<!DOCTYPE svg PUBLIC "-//W3C//DTD SVG 1.1//EN" "http://www.w3.org/Graphics/SVG/1.1/DTD/svg11.dtd">
<svg version="1.1" id="Layer_1" xmlns="http://www.w3.org/2000/svg" xmlns:xlink="http://www.w3.org/1999/xlink" x="0px" y="0px"
	 width="540px" height="540px" viewBox="0 0 540 540" enable-background="new 0 0 540 540" xml:space="preserve">
<path fill="#B9DD84" d="M270.041,264.882c-0.063,0.071-0.104-0.021-0.152-0.034l0.226,0.452L270.041,264.882z"/>
<line fill="none" x1="269.913" y1="264.694" x2="270.087" y2="265.452"/>
<polygon fill="#B9DD84" points="269.83,265.192 270.17,265.118 270.02,264.954 "/>
<g>
	<path fill="#B9DD84" d="M436.169,287.984l-0.002-0.334c-0.066-0.002-0.06-0.095-0.128-0.061L436.169,287.984z"/>
	<line fill="none" x1="435.201" y1="285.699" x2="435.673" y2="285.5"/>
	<polygon fill="#B9DD84" points="278.686,276.119 278.649,275.899 278.124,276.381 	"/>
	<line fill="none" x1="278.323" y1="259.045" x2="279.309" y2="258.443"/>
	<polygon fill="#B9DD84" points="278.782,274.408 279.076,274.873 279.198,274.563 	"/>
	<line fill="none" x1="279.945" y1="278.467" x2="278.978" y2="277.25"/>
	<line fill="none" x1="279.489" y1="282.398" x2="279.012" y2="282.297"/>
	<line fill="none" x1="280.311" y1="282.481" x2="280.09" y2="283.156"/>
	<polygon fill="#B9DD84" points="314.418,284.246 314.381,284.129 313.743,284.412 	"/>
	<path fill="#B9DD84" d="M353.336,120.564c0.063,0.112-0.08,0.106-0.108,0.176l0.614-0.077L353.336,120.564z"/>
	<line fill="none" x1="362.289" y1="96.12" x2="362.68" y2="96.842"/>
	<path fill="#B9DD84" d="M333.833,136.72l3.282,1.39l0.082,0.257c0.197,0.097,0.41,0.018,0.633,0.038l0.992,0.422l1.334-1.046
		c0.276-0.184,0.52-0.372,0.76-0.6l3.307-2.598l0.434-1.196c0.251-0.657,0.576-1.361,0.84-2.031l0.128,0.418l0.561-0.432
		l-0.037-0.554l0.396,0.179l0.84-2.144l-0.525,0.146l0.482-1.405l0.562,0.282l-0.025-0.43l0.592,0.49
		c-0.811-0.574,0.229-1.399,0.179-1.669l0.091,0.125c0.588-0.583-0.426-0.041-0.246-0.515l1.244-0.099l1.156-2.701l0.155-2.18
		l0.625-0.354c0.483,0.382,1.409,0.024,1.285,0.903c-0.369-0.484,0.124-0.488,0.289-0.691l-0.617,0.059
		c-0.731,0.103,0.417-1.095-0.523-0.882l1.182-2.574l0.646,0.437l0.238-2.09l-0.956-0.208l-0.038-0.571l1.49-0.209
		c0.637,0.484-0.565,1.075,0.286,1.095l-0.508,1.86c0.375,0.864,0.274-0.432,0.829-0.043l0.229-1.808l-0.563-0.371
		c-0.331-1.015,0.84-0.729,0.953-0.883l0.019,0.43l0.303-1.239c0.891,0.208-0.234,0.855,0.174,1.275l0.761-0.126l-0.027-1.221
		l0.26,0.223l0.025-0.591l-0.938,0.239c-0.681-0.618,0.067-0.447,0.182-1.207l-0.533,0.136l-0.192-0.968l1.024-0.185l-0.33,0.445
		c0.183,0.903,1.066,0.099,1.195,0.719l-0.045-1.229l-0.688,0.029c-0.823-1.439,1.153-0.215,1.319-1.195
		c-0.856-0.146-0.606-1.646-1.756-1.365l0.063-0.796l0.929,0.409l0.138-0.324l0.438,0.746l1.462-0.746l-0.48-0.661l0.672-0.182
		c-0.417,0.389-0.762-0.293-0.777-0.663l0.968-0.538l0.276,0.643l0.24-0.501l-0.941-0.89l0.448-0.559l0.127,0.613l0.949-0.55
		l-0.354-0.33l0.438,0.089l-0.075-0.771l0.293,0.062c-0.07-0.339-0.552-0.928,0.135-1.044l-0.636,0.68l-0.305-0.766
		c0.71,0.308,0.363-0.682,0.519-1.001l0.719-0.28l-0.417-0.318c0.973,0.229,0.097-0.714,0.472-1.02l0.838,0.18l-1.2-0.98
		c0.434-0.636,0.845,0.485,1.386,0.438l-0.062-1.158l-0.704-0.454l0.648-0.161l-0.787-0.487l0.229-1.255l-0.516-0.959l-0.997-0.658
		c0.009-0.07,0.041-0.124,0.046-0.183c0.082,0.163,0.179,0.483,0.584,0.371l0.016-0.383c0.909-0.291,0.984,1.463,1.751,1.16
		l-0.151-0.479l0.828,0.298l-0.025-1.111l-0.279,0.217l-0.256-1.449l0.875,0.25l-0.131-0.636l0.251,0.118
		c0.539-1.712,1.056-3.899,0.308-5.59l1.28-1.519l-0.483-0.305l0.637-0.317l-0.078-1.704l0.446-0.066l-0.276-0.694l0.466-0.231
		l-0.37-0.11c-0.103-0.484-0.124-1.11,0.514-0.971l-0.413-0.179l-0.013-2.608l-0.695,0.352l-0.293-0.53l0.679,0.044
		c0.788-1.106,0.003-2.729,0.085-4.153l-0.414-0.309l0.06-2.998l-1.111-0.472c-0.583-0.497,0.737-0.351,1.034-0.93l-0.355-0.919
		l0.096-0.012l-0.299-1.169l0.067,0.063l0.267-1.093l-0.746-0.982l0.177-0.123l-0.416,0.087l0.191-0.724l0.476,0.229
		c0.237-0.783-0.397-0.126-0.64-0.421c-3.108-2.687-1.157-0.962-1.974-1.82c0.987,0.46-1.391-1.354,2.218,1.536
		c2.204,1.493-2.368-2.141-2.012-1.88l-0.505,0.371l-0.88-0.433l-0.738,0.367l0.687,0.552l-0.667-0.062l-0.354,0.271l-0.419-0.624
		l-1.044,0.359l-0.346-1.145l-0.618,0.445l-0.331-0.37l-1.996,0.79l-0.128-0.395l-0.366,0.229c-0.688-1.281-2.486-0.446-3.657-1.09
		l-0.822,0.4c0.106-0.71-0.69,0.09-0.992-0.361l0.126,0.714c-0.72-0.454-1.273,0.992-1.691,0.125l0.376-0.608
		c-0.549-1.274-4.678,3.489-3.465,2.313l0.809,0.697l-1.149,0.773l-0.178,0.785l-0.171-0.408l-0.162,1.594l-1.234,1.657
		c0.481,0.589-0.625,0.911,0.169,1.269l-0.28,0.002l0.527,1.015l-0.484-0.294l-0.8,0.736l0.249,0.502l0.069,0.416l0.057,0.866
		l-0.552-0.207l-0.303,1.002c-0.054,0.024-0.102,0.072-0.122,0.241l-0.412,0.479l-0.389-0.253l0.323,1.115
		c-0.797,0.903-1.048,2.846-1,3.381l-0.085-0.255l-0.108,0.778l-0.595,0.65l0.38,0.072c-0.951,0.592-0.3,2.047-1.104,2.879
		l-0.253-0.555l0.078,2.545l-0.383-0.409l-0.021,1.275c0.376-0.012,0.499,0.545,0.313,0.828l-0.101-0.025l-0.158,1.148l-0.314-0.286
		l-0.989,1.104l0.322,0.438l-0.528,0.331l0.771,1.487l-0.04,0.107l-0.716-0.303l0.327,1.319l-0.836,2.253l-0.734-0.52l-0.948,2.145
		c0.841-0.16,0.296,0.759,0.663,1.116l-0.087,0.207l-0.808,0.375l-0.743,2.403l-0.126-0.073l-0.273,2.558l-0.05,0.125l-0.3-0.25
		l0.068,0.842l-0.078,0.191l-0.162-0.197l-0.385,1.685l-0.004,0.021l-0.271-0.328l-0.065,1.195l-0.179,0.5l-0.332-0.279
		l-0.021,1.195l-0.021,0.044l-0.435,0.186l-0.044,1.114l-0.146,0.395l-0.607,0.309l-2.263,7.378l-0.383,1.042
		c-0.647,0.057-0.191-0.751-0.718-0.641l-0.127,1.422l-0.105-0.003l-0.414,0.915l0.156,0.032c0.243,0.542-1.068,0.619-0.409,1.115
		l-0.535,0.152l-0.085,1.248l-0.092-0.101c-0.527,0.555,0.208,1.637-0.395,1.7l0.142,1.026l-0.157,0.46l-0.4-0.174
		c-0.458,1.507-0.995,3.542-1.365,4.885l-0.564,1.513l10.257,4.334C332.773,136.359,333.288,136.492,333.833,136.72z
		 M345.072,131.92l-0.954-0.112L345.072,131.92z"/>
	<line fill="none" x1="344.117" y1="131.812" x2="345.072" y2="131.92"/>
	<polygon fill="#B9DD84" points="352.461,121.183 352.221,121.312 352.406,121.63 	"/>
	<line fill="none" x1="353.682" y1="118.411" x2="353.719" y2="119.691"/>
	<line fill="none" x1="356.199" y1="116.347" x2="355.96" y2="116.055"/>
	<line fill="none" x1="355.941" y1="115.262" x2="355.437" y2="115.592"/>
	<line fill="none" x1="359.119" y1="109.142" x2="358.83" y2="109.732"/>
	<polygon fill="#B9DD84" points="359.992,106.74 359.735,106.452 359.621,106.7 	"/>
	<polygon fill="#B9DD84" points="334.016,97.42 333.985,97.509 334.562,97.649 	"/>
	<polygon fill="#B9DD84" points="209.347,434.6 209.346,434.615 209.727,435.322 	"/>
	<polygon fill="#B9DD84" points="207.561,401.469 207.59,401.473 207.738,401.365 	"/>
	<polygon fill="#B9DD84" points="202.363,400.699 202.385,400.801 202.552,400.705 	"/>
	<polygon fill="#B9DD84" points="202.027,400.684 202.363,400.699 202.245,400.398 	"/>
	<path fill="#B9DD84" d="M200.4,459.055c0.045,0.113-0.083,0.105-0.118,0.178l0.622-0.076L200.4,459.055z"/>
	<path fill="#B9DD84" d="M213.337,419.482l-0.004-2.611l-0.719,0.363l-0.291-0.543l0.667,0.051c0.805-1.098,0.002-2.719,0.088-4.148
		l-0.395-0.309l0.026-2.998l-1.082-0.482c-0.582-0.482,0.736-0.33,1.019-0.924l-0.354-0.918l0.092,0.002l-0.278-1.182l0.029,0.049
		l0.265-1.07l-0.719-0.986l0.191-0.123l-0.408,0.084l0.181-0.705l0.479,0.217c0.255-0.773-0.385-0.117-0.638-0.416
		c-3.127-2.652-1.171-0.953-1.975-1.807c1,0.443-1.414-1.346,2.221,1.512c2.221,1.484-2.369-2.113-2.031-1.859l-0.49,0.379
		l-0.881-0.434l-0.757,0.371l0.704,0.539l-0.688-0.061l-0.358,0.273l-0.398-0.637l-1.026,0.363l-0.336-1.16l-0.625,0.453
		l-0.326-0.361l-1.987,0.787l-0.144-0.396l-0.391,0.23c-0.687-1.275-2.468-0.445-3.673-1.104l-0.807,0.412
		c0.128-0.709-0.688,0.088-0.999-0.367l0.137,0.719c-0.701-0.459-1.25,0.992-1.673,0.127l0.376-0.613
		c-0.563-1.27-4.664,3.523-3.464,2.32l0.808,0.699l-1.148,0.779l-0.154,0.777l-0.161-0.391l-0.189,1.594l-1.237,1.666
		c0.499,0.57-0.613,0.9,0.182,1.25l-0.278,0.018l0.521,1l-0.486-0.289l-0.814,0.742l0.267,0.5l0.036,0.416l0.063,0.867l-0.546-0.213
		l-0.308,1.012c-0.031,0.025-0.098,0.068-0.118,0.23l-0.396,0.479l-0.385-0.242l0.303,1.104c-0.776,0.893-1.047,2.85-0.987,3.371
		l-0.074-0.254l-0.109,0.787l-0.61,0.656l0.39,0.061c-0.972,0.594-0.298,2.041-1.128,2.877l-0.243-0.553l0.088,2.547l-0.391-0.395
		l-0.024,1.25c0.395-0.02,0.519,0.557,0.331,0.842l-0.093-0.031l-0.177,1.158l-0.303-0.303l-0.977,1.115l0.313,0.441l-0.528,0.334
		l0.75,1.479l-0.029,0.107l-0.723-0.307l0.339,1.324l-0.847,2.248l-0.732-0.521l-0.941,2.146c0.824-0.16,0.282,0.75,0.643,1.109
		l-0.071,0.207l-0.82,0.383l-0.729,2.408l-0.125-0.076l-0.297,2.555l-0.046,0.129l-0.289-0.268l0.075,0.854l-0.074,0.189
		l-0.178-0.219l-0.387,1.711v0.006l-0.271-0.324l-0.047,1.195l-0.199,0.504l-0.317-0.279l-0.03,1.199l-0.02,0.025l-0.433,0.203
		l-0.045,1.102l-0.146,0.4l-0.606,0.303l-2.265,7.383l-0.389,1.043c-0.648,0.063-0.168-0.752-0.713-0.637l-0.127,1.42l-0.096,0.002
		l-0.417,0.914l0.159,0.025c0.228,0.547-1.083,0.633-0.427,1.105l-0.545,0.17l-0.081,1.238l-0.091-0.1
		c-0.536,0.563,0.217,1.635-0.398,1.703l0.158,1.021l-0.175,0.455l-0.397-0.178c-0.439,1.479-0.96,3.438-1.318,4.801l-0.606,1.604
		l10.27,4.334c0.56,0.313,1.054,0.438,1.614,0.668l3.282,1.379l0.087,0.256c0.193,0.105,0.409,0.014,0.628,0.057l0.992,0.414
		l1.351-1.053c0.254-0.184,0.488-0.361,0.729-0.584l3.306-2.605l0.442-1.211c0.241-0.65,0.564-1.352,0.84-2.014l0.111,0.424
		l0.57-0.438l-0.057-0.555l0.399,0.176l0.84-2.135l-0.518,0.16l0.501-1.398l0.535,0.281l0.011-0.436l0.575,0.508
		c-0.807-0.584,0.229-1.416,0.178-1.674l0.085,0.119c0.59-0.578-0.438-0.027-0.245-0.52l1.248-0.092l1.149-2.699l0.146-2.168
		l0.636-0.365c0.484,0.387,1.385,0.027,1.288,0.914c-0.372-0.482,0.115-0.486,0.28-0.688l-0.609,0.068
		c-0.738,0.088,0.42-1.102-0.525-0.887l1.185-2.578l0.62,0.436l0.266-2.078l-0.951-0.223l-0.037-0.564l1.495-0.209
		c0.637,0.49-0.569,1.068,0.281,1.092l-0.5,1.857c0.37,0.877,0.271-0.428,0.819-0.047l0.229-1.807l-0.558-0.367
		c-0.334-1.016,0.838-0.721,0.951-0.885l0.016,0.432l0.303-1.234c0.873,0.207-0.231,0.865,0.188,1.256l0.744-0.119l-0.032-1.227
		l0.261,0.229l0.026-0.588l-0.942,0.229c-0.668-0.617,0.064-0.449,0.188-1.201l-0.545,0.131l-0.175-0.979l1.019-0.182l-0.338,0.441
		c0.168,0.916,1.071,0.104,1.187,0.723l-0.025-1.232l-0.701,0.033c-0.838-1.453,1.167-0.227,1.325-1.197
		c-0.857-0.141-0.606-1.652-1.75-1.363l0.063-0.797l0.925,0.41l0.148-0.324l0.422,0.746l1.483-0.752l-0.479-0.656l0.668-0.184
		c-0.407,0.389-0.754-0.307-0.774-0.672l0.97-0.539l0.271,0.654l0.246-0.5l-0.938-0.891l0.441-0.561l0.136,0.604l0.95-0.533
		l-0.353-0.34l0.438,0.088l-0.073-0.775l0.296,0.07c-0.083-0.342-0.563-0.922,0.136-1.045l-0.644,0.674l-0.298-0.764
		c0.715,0.301,0.356-0.689,0.52-1.008l0.719-0.277l-0.431-0.305c0.985,0.217,0.125-0.719,0.483-1.041l0.833,0.197l-1.204-0.994
		c0.432-0.631,0.83,0.48,1.381,0.447l-0.063-1.16l-0.724-0.449l0.669-0.168l-0.798-0.488l0.244-1.246l-0.515-0.947l-1-0.664
		c0.003-0.07,0.037-0.129,0.055-0.201c0.077,0.174,0.175,0.49,0.568,0.379l0.02-0.381c0.909-0.281,0.984,1.451,1.751,1.148
		l-0.172-0.482l0.822,0.309l-0.006-1.105l-0.273,0.213l-0.272-1.451l0.871,0.266l-0.13-0.643l0.26,0.123
		c0.527-1.703,1.063-3.895,0.313-5.59l1.266-1.525l-0.494-0.295l0.656-0.316l-0.1-1.703l0.44-0.072l-0.274-0.695l0.468-0.23
		l-0.355-0.123c-0.109-0.467-0.142-1.086,0.495-0.975L213.337,419.482z M191.178,470.299l0.953,0.119L191.178,470.299z"/>
	<path fill="#B9DD84" d="M184.745,425.156l-0.002-0.283c-0.025,0.01-0.024-0.076-0.088-0.049L184.745,425.156z"/>
	<line fill="none" x1="192.139" y1="470.41" x2="191.178" y2="470.299"/>
	<polygon fill="#B9DD84" points="199.474,460.119 199.524,459.676 199.284,459.799 	"/>
	<line fill="none" x1="200.735" y1="456.9" x2="200.781" y2="458.184"/>
	<line fill="none" x1="203.268" y1="454.842" x2="203.006" y2="454.543"/>
	<line fill="none" x1="203" y1="453.744" x2="202.497" y2="454.082"/>
	<line fill="none" x1="206.175" y1="447.633" x2="205.869" y2="448.223"/>
	<polygon fill="#B9DD84" points="207.051,445.23 206.779,444.941 206.688,445.188 	"/>
	<polygon fill="#B9DD84" points="195.974,400.143 196.246,400.293 196.31,400.016 	"/>
	<line fill="none" x1="183.958" y1="423.293" x2="184.363" y2="423.129"/>
	<polygon fill="#B9DD84" points="181.04,436.018 181.6,436.16 181.06,435.926 	"/>
	<path fill="#B9DD84" d="M381.742,174.218l2.467,2.587l-0.026,0.279c0.146,0.172,0.379,0.179,0.546,0.296l0.738,0.783l1.646-0.404
		c0.312-0.076,0.61-0.132,0.948-0.243l4.073-1.03l0.864-0.926c0.487-0.503,1.063-1.011,1.592-1.505l-0.071,0.428l0.688-0.178
		l0.178-0.519l0.299,0.317l1.646-1.604l-0.565-0.08l1.042-1.095l0.375,0.483l0.179-0.395l0.349,0.689
		c-0.536-0.857,0.75-1.198,0.814-1.466l0.021,0.147c0.776-0.288-0.366-0.208,0.013-0.569l1.158,0.428l2.166-2.011l0.992-1.93
		l0.732-0.081l0.794,1.362l0.58-0.523l-0.611-0.2c-0.721-0.208,0.821-0.83-0.121-1.014l2.123-1.862l0.395,0.646l1.075-1.821
		l-0.79-0.58l0.198-0.532l1.441,0.413c0.386,0.718-0.947,0.753-0.18,1.111c0.176,0.676-0.74,1.59-1.194,1.507
		c-0.025,0.938,0.401-0.292,0.75,0.286l0.935-1.567l-0.354-0.567c0.108-1.057,1.054-0.309,1.214-0.433l-0.149,0.405l0.796-1.009
		c0.713,0.559-0.582,0.687-0.349,1.23l0.722,0.19l0.484-1.136l0.142,0.313l0.233-0.536l-0.94-0.157
		c-0.359-0.841,0.243-0.394,0.68-1.025l-0.541-0.093l0.21-0.972l1.011,0.258l-0.483,0.268c-0.197,0.891,0.95,0.522,0.8,1.127
		l0.482-1.127c-0.286,0.594-0.39-0.21-0.668-0.258c-0.179-1.659,1.146,0.268,1.695-0.565c-0.733-0.482,0.123-1.752-1.048-1.95
		l0.392-0.699l0.657,0.736l0.279-0.229l0.092,0.868l1.653-0.11l-0.19-0.799l0.688,0.103c-0.544,0.198-0.575-0.579-0.441-0.905
		l1.109-0.104l-0.025,0.69l0.433-0.352l-0.511-1.214l0.64-0.313l-0.133,0.611l1.095-0.125l-0.176-0.451l0.365,0.262l0.235-0.726
		l0.24,0.172c0.08-0.335-0.127-1.063,0.563-0.9l-0.886,0.367l0.054-0.826c0.526,0.556,0.604-0.48,0.886-0.713l0.771,0.028
		l-0.27-0.443c0.816,0.586,0.382-0.62,0.853-0.738l0.672,0.5l-0.699-1.392c0.649-0.407,0.586,0.777,1.098,0.957l0.407-1.087
		l-0.46-0.688l0.648,0.109l-0.494-0.761l0.702-1.042l-0.077-1.1l-0.644-1.003c0.032-0.06,0.085-0.098,0.132-0.148
		c-0.009,0.18-0.059,0.507,0.372,0.579l0.144-0.35c0.976,0.104,0.332,1.736,1.146,1.769l0.063-0.501l0.62,0.597l0.443-1
		l-0.363,0.055l0.355-1.415l0.717,0.589l0.125-0.651l0.197,0.224c1.177-1.337,2.533-3.14,2.533-4.994l1.769-0.884l-0.332-0.471
		l0.73-0.025l0.596-1.596l0.436,0.116l0.029-0.742l0.52-0.032l-0.278-0.259l0.845-0.68l-0.292-0.331l1.042-2.388l-0.791,0.055
		l-0.054-0.615l0.604,0.317c1.162-0.703,1.096-2.493,1.743-3.764l-0.253-0.455l1.266-2.713l-0.815-0.876
		c-0.324-0.688,0.809-0.03,1.308-0.438l0.058-0.992l0.079,0.043l0.201-1.191l0.024,0.067l0.688-0.896l-0.268-1.176l0.229-0.037
		l-0.414-0.088l0.452-0.583l0.348,0.407c0.54-0.617-0.303-0.272-0.419-0.637c0.178-0.086-1.845-3.547-1.063-2.469
		c0.724,0.816-0.738-1.813,1.399,2.294c1.422,2.258-1.299-2.908-1.077-2.542l-0.621,0.146l-0.62-0.745l-0.841,0.027l0.411,0.781
		l-0.604-0.323l-0.428,0.112l-0.133-0.755l-1.06-0.076l0.139-1.196l-0.749,0.17l-0.143-0.473c-0.841-0.727-1.6,0.681-2.152-0.077
		l0.036-0.427l-0.463,0.055c-0.076-1.438-2.07-1.409-2.887-2.471l-0.916,0.049l-0.776-0.742l-0.127,0.715
		c-0.476-0.698-1.585,0.401-1.603-0.566l0.565-0.417c0.024-1.38-5.688,1.239-4.114,0.677l0.463,0.971l-1.361,0.25l-0.473,0.636
		l0.011-0.429l-0.792,1.387l-1.805,1.019c0.229,0.744-0.941,0.591-0.36,1.224l-0.246-0.095l0.063,1.132l-0.329-0.462l-1.043,0.355
		l0.022,0.568l-0.106,0.388l-0.305,0.815l-0.429-0.401l-0.682,0.809c-0.05,0.002-0.11,0.014-0.213,0.151l-0.573,0.27l-0.245-0.383
		l-0.155,1.146l-2.266,2.695l0.025-0.28l-0.402,0.673l-0.824,0.348l0.32,0.216l-2.162,2.198l-0.009-0.604l-0.957,2.364l-0.179-0.532
		l-0.606,1.306l0.033,0.724l-0.078-0.063l-0.616,0.992l-0.175-0.382l-1.349,0.605l0.118,0.535l-0.622,0.093l0.089,1.656
		l-0.077,0.088l-0.52-0.562l-0.244,1.336l-1.674,1.728l-0.458-0.759l-1.734,1.57c0.843,0.189-0.051,0.802,0.149,1.286l-0.229,0.243
		c-0.316,0.179-0.541-0.165-0.834-0.074l-1.626,1.911l-0.074-0.123l-1.319,2.229l-0.1,0.094l-0.146-0.354
		c-0.483,0.245-0.278,0.486-0.209,0.719l-0.228,0.234l-0.077-0.277l-1.039,1.41l-0.105-0.397l-0.521,1.057l-0.393,0.39l-0.18-0.385
		l-0.505,1.067l-0.047,0.049l-0.479,0.002l-0.513,1.016l-0.267,0.274l-0.688,0.044l-5.229,6.046l-0.581,0.587l-0.402-0.872
		c0.474,0.413-0.199,0.478-0.681,1.248l-0.096-0.033l-0.731,0.657l0.116,0.104c-0.01,0.585-1.245,0.13-0.835,0.846l-0.546-0.069
		l-0.582,1.11l-0.042-0.121l-1.052,1.389l-0.299,0.996l-0.319,0.354l-0.303-0.331c-1.064,1.236-2.425,2.951-3.305,4.046
		l-1.046,1.069l7.615,8.077C380.918,173.465,381.321,173.774,381.742,174.218z M393.979,174.388l-0.84-0.488L393.979,174.388z"/>
	<polygon fill="#B9DD84" points="424.183,148.583 424.18,148.599 424.244,149.391 	"/>
	<polygon fill="#B9DD84" points="431.494,114.729 431.494,114.832 431.652,114.805 	"/>
	<polygon fill="#B9DD84" points="406.113,167.327 405.971,167.441 406.545,167.623 	"/>
	<polygon fill="#B9DD84" points="431.205,114.592 431.494,114.729 431.521,114.414 	"/>
	<polygon fill="#B9DD84" points="405.523,129.965 405.557,129.854 405.551,129.605 	"/>
	<line fill="none" x1="393.14" y1="173.896" x2="393.979" y2="174.388"/>
	<polygon fill="#B9DD84" points="405.08,167.554 404.788,167.563 404.855,167.938 	"/>
	<line fill="none" x1="407.297" y1="165.495" x2="406.815" y2="166.685"/>
	<line fill="none" x1="410.462" y1="164.635" x2="410.336" y2="164.263"/>
	<line fill="none" x1="410.646" y1="163.523" x2="410.038" y2="163.626"/>
	<line fill="none" x1="416.025" y1="159.219" x2="415.504" y2="159.63"/>
	<polygon fill="#B9DD84" points="417.804,157.378 417.67,157.01 417.476,157.191 	"/>
	<polygon fill="#B9DD84" points="426.24,111.669 425.895,111.637 426.066,111.89 	"/>
	<line fill="none" x1="405.564" y1="127.927" x2="405.965" y2="127.931"/>
	<polygon fill="#B9DD84" points="397.805,138.327 397.746,138.414 398.195,138.75 	"/>
	<polygon fill="#B9DD84" points="129.012,378.031 129.064,377.934 129.044,377.67 	"/>
	<polygon fill="#B9DD84" points="154.696,362.635 154.988,362.768 155.018,362.461 	"/>
	<polygon fill="#B9DD84" points="147.701,396.609 147.701,396.619 147.748,397.408 	"/>
	<polygon fill="#B9DD84" points="129.632,415.367 129.502,415.479 130.064,415.65 	"/>
	<polygon fill="#B9DD84" points="154.988,362.768 154.981,362.881 155.141,362.844 	"/>
	<path fill="#B9DD84" d="M161.413,365.959c0.732,0.82-0.779-1.803,1.448,2.277c0.405,0.482-0.688-1.654-1.153-2.52l-0.585,0.141
		l-0.614-0.742l-0.837,0.025l0.392,0.777l-0.567-0.314l-0.447,0.098l-0.125-0.74l-1.086-0.076l0.146-1.197l-0.734,0.164
		l-0.151-0.471c-0.833-0.734-1.587,0.678-2.136-0.082l0.028-0.42l-0.458,0.055c-0.102-1.445-2.067-1.408-2.875-2.486l-0.936,0.041
		l-0.777-0.738l-0.137,0.721c-0.476-0.695-1.559,0.396-1.598-0.57l0.585-0.419c0.012-1.387-5.69,1.312-4.108,0.71l0.449,0.975
		l-1.35,0.254l-0.482,0.635l-0.002-0.43l-0.797,1.396l-1.793,1.02c0.224,0.736-0.938,0.586-0.346,1.207l-0.268-0.094l0.064,1.143
		l-0.331-0.48l-1.043,0.359l0.041,0.57l-0.127,0.396l-0.298,0.816l-0.429-0.422l-0.68,0.818c-0.046,0.01-0.115,0.025-0.199,0.166
		l-0.575,0.277l-0.235-0.389l-0.174,1.146l-2.254,2.684l0.017-0.279l-0.41,0.676l-0.839,0.346l0.344,0.227l-2.174,2.201
		l-0.008-0.619l-0.98,2.369l-0.174-0.529l-0.58,1.326l0.021,0.707l-0.077-0.055l-0.616,0.992l-0.179-0.395l-1.327,0.615l0.133,0.535
		l-0.637,0.084l0.088,1.66l-0.087,0.08l-0.512-0.557l-0.225,1.326l-1.7,1.738l-0.452-0.773l-1.735,1.58
		c0.824,0.184-0.021,0.811,0.169,1.283l-0.265,0.24c-0.323,0.166-0.528-0.168-0.818-0.076l-1.619,1.908l-0.089-0.125l-1.289,2.207
		l-0.094,0.109l-0.179-0.348c-0.453,0.248-0.273,0.467-0.188,0.709l-0.229,0.25l-0.068-0.262l-1.019,1.391l-0.03,0.02l-0.112-0.41
		l-0.535,1.066l-0.388,0.387l-0.166-0.387l-0.515,1.072l-0.03,0.057l-0.48,0.004l-0.475,0.979l-0.298,0.314l-0.688,0.035
		l-5.225,6.016l-0.598,0.623l-0.387-0.873c0.438,0.412-0.229,0.479-0.697,1.246l-0.078-0.037l-0.748,0.666l0.125,0.102
		c-0.012,0.592-1.248,0.111-0.827,0.84l-0.565-0.076l-0.566,1.111l-0.062-0.127l-1.061,1.387l-0.271,1.02l-0.329,0.34l-0.297-0.328
		c-1.026,1.195-2.339,2.824-3.234,3.926l-1.138,1.174l7.667,8.084c0.373,0.514,0.785,0.826,1.192,1.27l2.467,2.58l-0.024,0.277
		c0.146,0.166,0.372,0.172,0.542,0.287l0.752,0.789l1.653-0.42c0.3-0.063,0.604-0.129,0.924-0.23l4.097-1.043l0.873-0.914
		c0.479-0.512,1.045-1.02,1.574-1.521l-0.049,0.432l0.668-0.174l0.183-0.525l0.303,0.328l1.646-1.604l-0.551-0.104l1.024-1.094
		l0.388,0.494l0.155-0.396l0.354,0.693c-0.534-0.857,0.761-1.207,0.819-1.477l0.025,0.143c0.782-0.285-0.371-0.197,0.005-0.561
		l1.163,0.42l2.164-2.008l0.993-1.951l0.729-0.068l0.791,1.354l0.589-0.525l-0.621-0.188c-0.72-0.221,0.821-0.842-0.119-1.025
		l2.124-1.877l0.398,0.658l1.063-1.809l-0.779-0.582l0.195-0.543l1.452,0.414c0.395,0.713-0.959,0.764-0.188,1.111
		c0.178,0.676-0.741,1.594-1.196,1.504c-0.008,0.941,0.405-0.281,0.761,0.287l0.931-1.561l-0.353-0.564
		c0.108-1.051,1.051-0.328,1.21-0.434l-0.15,0.4l0.791-1.002c0.719,0.537-0.581,0.689-0.35,1.232l0.733,0.193l0.46-1.145l0.16,0.318
		l0.24-0.531l-0.941-0.17c-0.359-0.842,0.235-0.389,0.655-1.033l-0.536-0.088l0.222-0.959l1.013,0.242l-0.483,0.275
		c-0.211,0.891,0.941,0.521,0.79,1.133l0.475-1.145c-0.277,0.605-0.373-0.189-0.654-0.234c-0.187-1.66,1.141,0.256,1.695-0.576
		c-0.735-0.482,0.119-1.758-1.057-1.951l0.392-0.709l0.669,0.738l0.26-0.23l0.086,0.859l1.677-0.082l-0.174-0.801l0.675,0.098
		c-0.544,0.205-0.575-0.584-0.433-0.904l1.104-0.115l-0.026,0.697l0.436-0.35l-0.502-1.197l0.633-0.328l-0.135,0.607l1.108-0.117
		l-0.2-0.447l0.385,0.277l0.229-0.738l0.244,0.17c0.073-0.34-0.129-1.061,0.558-0.893l-0.879,0.367l0.03-0.84
		c0.544,0.572,0.613-0.48,0.884-0.709l0.789,0.047l-0.265-0.457c0.793,0.586,0.385-0.621,0.849-0.74l0.672,0.502l-0.695-1.4
		c0.661-0.395,0.567,0.781,1.094,0.971c-0.19-0.688,0.791-0.4,0.41-1.09l-0.479-0.688l0.658,0.104l-0.523-0.758l0.72-1.045
		l-0.075-1.086l-0.65-1c0.035-0.059,0.082-0.115,0.112-0.158c0.026,0.182-0.021,0.512,0.389,0.576l0.169-0.355
		c0.956,0.119,0.309,1.742,1.107,1.771l0.067-0.496l0.623,0.598l0.447-0.996l-0.351,0.066l0.342-1.432l0.703,0.592l0.132-0.641
		l0.184,0.215c1.19-1.34,2.555-3.135,2.536-4.994l1.784-0.883l-0.327-0.475l0.704-0.023l0.619-1.584l0.423,0.104l0.044-0.74
		l0.523-0.025l-0.291-0.256l0.852-0.688l-0.302-0.328l1.042-2.371l-0.8,0.025l-0.044-0.607l0.604,0.316
		c1.163-0.688,1.111-2.484,1.746-3.752l-0.234-0.461l1.262-2.723l-0.814-0.865c-0.331-0.688,0.807-0.023,1.313-0.441l0.041-0.982
		l0.076,0.025l0.229-1.188l0.011,0.064l0.688-0.883l-0.275-1.189l0.226-0.029l-0.421-0.1l0.465-0.57l0.364,0.396
		c0.531-0.605-0.321-0.273-0.434-0.646C160.67,364.727,161.811,367.063,161.413,365.959z M116.671,421.941l0.829,0.49
		L116.671,421.941z"/>
	<polygon fill="#B9DD84" points="159.444,365.576 159.488,365.598 159.663,365.559 	"/>
	<path fill="#B9DD84" d="M161.705,365.719l0.03,0.002C161.4,365.121,161.505,365.332,161.705,365.719z"/>
	<line fill="none" x1="116.671" y1="421.941" x2="117.498" y2="422.436"/>
	<polygon fill="#B9DD84" points="128.385,415.975 128.602,415.582 128.318,415.609 	"/>
	<line fill="none" x1="130.83" y1="413.531" x2="130.359" y2="414.709"/>
	<line fill="none" x1="133.983" y1="412.688" x2="133.84" y2="412.291"/>
	<line fill="none" x1="134.172" y1="411.559" x2="133.569" y2="411.66"/>
	<line fill="none" x1="139.546" y1="407.256" x2="139.026" y2="407.664"/>
	<polygon fill="#B9DD84" points="141.31,405.414 141.18,405.031 141.016,405.221 	"/>
	<polygon fill="#B9DD84" points="149.38,359.672 149.562,359.938 149.726,359.705 	"/>
	<line fill="none" x1="129.035" y1="375.979" x2="129.457" y2="375.988"/>
	<polygon fill="#B9DD84" points="121.677,386.811 121.295,386.393 121.227,386.475 	"/>
	<path fill="#B9DD84" d="M434.49,204.365l-0.022-0.383c-0.511,0.038-0.427,0.331-0.465,0.57l-0.286,0.13l0.024-0.271l-1.537,0.864
		l0.07-0.414l-0.93,0.76l-0.496,0.197l0.021-0.417l-0.911,0.783l-0.055,0.023l-0.434-0.19l-0.86,0.713l-0.384,0.149l-0.636-0.244
		l-7.214,3.407l-0.801,0.328c-0.521-0.439,0.448-0.626-0.016-0.961c0.262,0.575-0.373,0.349-1.125,0.877l-0.052-0.078l-0.941,0.31
		l0.063,0.144c-0.244,0.543-1.189-0.379-1.105,0.428l-0.481-0.28l-0.952,0.79l0.006-0.131c-0.776-0.032-1.077,1.252-1.552,0.832
		l-0.647,0.811l-0.442,0.182l-0.144-0.413c-1.382,0.667-3.203,1.605-4.438,2.264l-1.574,0.632l3.734,10.516
		c0.126,0.618,0.396,1.079,0.59,1.653l1.188,3.338l-0.128,0.235c0.063,0.221,0.267,0.298,0.383,0.479l0.371,1.022l1.706,0.279
		c0.292,0.064,0.592,0.127,0.896,0.146l4.164,0.696l1.197-0.495c0.646-0.271,1.396-0.487,2.064-0.754l-0.228,0.379l0.671,0.113
		l0.375-0.401l0.151,0.413l2.145-0.806l-0.462-0.29l1.372-0.589l0.161,0.604l0.303-0.302l0.029,0.774
		c-0.116-0.996,1.188-0.79,1.352-1.003l-0.026,0.148c0.819,0.042-0.267-0.339,0.212-0.527l0.905,0.864l2.779-0.97l1.7-1.374
		c0.588-0.188,0.229,0.745,0.7,0.229c0.028,0.624,0.912,1.049,0.188,1.565l0.737-0.245l-0.486-0.434
		c-0.583-0.479,1.088-0.427,0.313-0.968l2.701-0.859l0.108,0.763l1.688-1.245l-0.473-0.839l0.392-0.399
		c0.27,0.428,0.479,1.167,1.155,0.952c0.078,0.802-1.175,0.313-0.636,0.94l-1.692,0.894c-0.381,0.857,0.506-0.082,0.586,0.584
		l1.481-1.067l-0.081-0.658c0.517-0.921,1.079,0.135,1.289,0.105l-0.305,0.303l1.101-0.608c0.453,0.805-0.787,0.395-0.792,0.994
		l0.575,0.475c0.841-0.208-0.01-0.774,0.9-0.848v0.345l0.442-0.382l-0.801-0.532l1.043-0.67l-0.482-0.304l0.585-0.787l0.829,0.625
		l-0.536,0.062l0.264,1.359l0.889-0.854c-0.492,0.436-0.258-0.333-0.479-0.483c0.484-1.604,0.941,0.697,1.77,0.149
		c-0.471-0.726,0.803-1.552-0.178-2.2l0.636-0.492l0.326,0.941l0.33-0.105l-0.275,0.824l1.552,0.585l0.18-0.802l0.592,0.371
		l-0.058-1.009l1.055,0.337l-0.29,0.637l0.535-0.15l0.005-1.31l0.73-0.032l-0.382,0.497c0.608-0.354,0.465,0.79,1.059,0.335v-0.483
		l0.241,0.394l0.506-0.585l0.145,0.259l0.872-0.593l-0.941-0.018c-0.483-0.391,0.292-0.635,0.378-0.742
		c0.255,0.729,0.747-0.198,1.077-0.31l0.696,0.352l-0.035-0.501c0.481,0.846,0.575-0.415,1.06-0.35l0.414,0.728l-0.078-1.55
		c0.764-0.111,0.229,0.942,0.601,1.313l0.818-0.833l-0.136-0.824l0.566,0.377l-0.175-0.896l1.082-0.674l-0.28,0.748
		c0.872-0.391-0.044-1.25,0.64-1.782l-0.187-1.18c0.051-0.04,0.116-0.066,0.179-0.086c-0.064,0.161-0.255,0.434,0.111,0.671
		l0.281-0.253l0.322,2.072l0.256-0.437l0.331,0.8l0.817-0.738l-0.345-0.075l0.886-1.172l0.41,0.808l0.388-0.534l0.076,0.288
		c1.627-0.761,3.598-1.858,4.341-3.552l1.988-0.083l-0.128-0.566l0.688,0.266l1.195-1.206l0.348,0.281l0.337-0.674l0.472,0.19
		l-0.143-0.334c0.271-0.426,0.709-0.861,1.042-0.302l-0.135-0.427l1.933-1.757l-0.766-0.279l0.21-0.58l0.426,0.538l3.123-2.747
		l-0.064-0.51l2.268-1.982l-0.388-1.127c-0.035-0.756,0.738,0.316,1.363,0.126l0.442-0.879l0.064,0.068l0.674-0.999l-0.002,0.069
		l0.985-0.538l0.231-1.191l0.221,0.064l-0.333-0.242l0.637-0.335l0.175,0.5c0.737-0.354-0.187-0.383-0.127-0.77
		c-0.193-4.097-0.105-1.502-0.022-2.669c0.352,1.041,0.021-1.958,0.395,2.666c0.195,0.637,0.036-1.792-0.026-2.773l-0.597-0.093
		l-0.264-0.941l-0.785-0.315l0.072,0.875l-0.433-0.535l-0.444-0.088l0.188-0.73l-0.942-0.517c0.355-0.313,0.951-0.412,0.623-1.028
		l-0.771-0.146l0.053-0.492c-0.48-0.998-1.712-0.017-1.91-0.942l0.181-0.362l-0.413-0.136c0.48-1.348-1.348-2.13-1.661-3.435
		c-0.485,0.484-0.502-0.304-0.847-0.336c0.6-0.398-0.54-0.449-0.42-0.993l-0.437,0.6c-0.146-0.841-1.571-0.273-1.201-1.162
		l0.686-0.155c0.57-1.257-5.735-1.042-4.047-0.966l0.026,1.071l-1.35-0.327l-0.688,0.396l0.181-0.384l-1.294,0.942l-2.062,0.212
		c-0.114,0.75-1.091,0.153-0.827,0.966l-0.183-0.188l-0.392,1.062l-0.119-0.565c-0.205-0.682-0.891,0.207-1.095-0.09l-0.196,0.536
		l-0.278,0.305l-0.611,0.64l-0.212-0.546l-0.949,0.452c-0.037-0.016-0.09-0.019-0.237,0.074l-0.629,0.023l-0.077-0.456l-0.626,0.979
		l-3.13,1.552l0.114-0.232l-0.627,0.447l-0.921-0.014l0.21,0.33l-2.869,1.137l0.242-0.575l-1.839,1.778l0.024-0.556l-1.045,0.977
		l-0.283,0.656l-0.044-0.099l-0.941,0.637l-0.019-0.428l-1.461,0.025l-0.104,0.538l-0.612-0.172l-0.577,1.552l-0.127,0.038
		l-0.238-0.713l-0.726,1.121l-2.26,0.896l-0.104-0.876l-2.236,0.738c0.701,0.518-0.341,0.728-0.364,1.238l-0.322,0.126
		c-0.379,0.024-0.424-0.38-0.723-0.392l-2.268,1.08l-0.024-0.147l-2.112,1.523L434.49,204.365z M421.066,232.202l0.556,0.763
		L421.066,232.202z"/>
	<line fill="none" x1="421.066" y1="232.202" x2="421.621" y2="232.963"/>
	<path fill="#B9DD84" d="M99.493,341.933l0.021-0.481l0.234,0.391l0.501-0.586l0.162,0.267l0.873-0.597l-0.941-0.021
		c-0.487-0.386,0.274-0.631,0.375-0.738c0.241,0.733,0.735-0.185,1.084-0.299l0.696,0.354l-0.074-0.527
		c0.506,0.864,0.603-0.406,1.083-0.33l0.413,0.737l-0.072-1.554c0.76-0.106,0.213,0.943,0.623,1.316l0.803-0.836l-0.153-0.818
		l0.565,0.365l-0.171-0.902l1.085-0.678l-0.271,0.762c0.852-0.383-0.073-1.248,0.644-1.782l-0.222-1.185
		c0.085-0.024,0.128-0.058,0.195-0.084c-0.063,0.178-0.255,0.449,0.112,0.682l0.293-0.258l0.312,2.07l0.255-0.438l0.331,0.808
		l0.816-0.736l-0.345-0.094l0.89-1.162l0.404,0.819l0.385-0.534l0.084,0.277c1.617-0.744,3.588-1.848,4.333-3.537l1.987-0.076
		l-0.127-0.566l0.68,0.266l1.195-1.197l0.356,0.273l0.323-0.658l0.495,0.178l-0.161-0.33c0.279-0.404,0.712-0.85,1.048-0.281
		l-0.155-0.437l1.927-1.752l-0.742-0.278l0.197-0.586l0.44,0.535l3.104-2.74l-0.062-0.508l2.269-1.979l-0.396-1.137
		c-0.031-0.752,0.743,0.317,1.357,0.131L129,320.57l0.056,0.07l0.674-1.006l-0.003,0.078l0.985-0.545l0.237-1.188l0.221,0.064
		l-0.374-0.26l0.682-0.334l0.151,0.508c0.725-0.353-0.179-0.383-0.143-0.772c0.201,0.013-0.217-3.979,0.045-2.67
		c0.32,1.028,0.078-1.959,0.351,2.649c0.379,2.646-0.017-3.17,0.054-2.739l-0.634-0.124l-0.258-0.941l-0.79-0.316l0.062,0.89
		l-0.403-0.535l-0.438-0.073l0.188-0.738l-0.954-0.496c0.36-0.324,0.965-0.436,0.628-1.043l-0.763-0.145l0.052-0.488
		c-0.464-0.992-1.712-0.021-1.932-0.938l0.207-0.36l-0.422-0.134c0.482-1.354-1.349-2.116-1.653-3.438
		c-0.497,0.496-0.497-0.28-0.853-0.322c0.597-0.393-0.534-0.46-0.421-0.993l-0.416,0.591c-0.152-0.84-1.604-0.271-1.231-1.16
		l0.686-0.144c0.573-1.253-5.718-1.147-4.021-1.042l0.03,1.094l-1.356-0.339l-0.681,0.406l0.172-0.382l-1.28,0.938l-2.075,0.213
		c-0.078,0.764-1.091,0.147-0.809,0.965l-0.192-0.188l-0.389,1.043l-0.117-0.559c-0.185-0.696-0.89,0.205-1.099-0.101l-0.18,0.529
		l-0.278,0.323l-0.609,0.629l-0.218-0.533l-0.959,0.438c-0.049-0.012-0.098-0.004-0.24,0.078l-0.631,0.02l-0.076-0.446l-0.611,0.97
		l-3.149,1.555l0.132-0.23l-0.649,0.438l-0.898-0.008l0.21,0.324l-2.87,1.131l0.243-0.563l-1.825,1.776l0.023-0.556l-1.078,0.961
		l-0.268,0.653l-0.043-0.076l-0.959,0.646v-0.428l-1.478,0.023l-0.103,0.537l-0.588-0.168l-0.584,1.555l-0.126,0.048l-0.24-0.726
		l-0.755,1.123l-2.239,0.896l-0.105-0.874l-2.198,0.739c0.655,0.517-0.379,0.728-0.396,1.229l-0.321,0.129
		c-0.368,0.024-0.425-0.373-0.71-0.395l-2.267,1.085l-0.021-0.132l-2.13,1.509l-0.099,0.046l0.001-0.386
		c-0.554,0.037-0.433,0.335-0.48,0.584l-0.307,0.104l0.062-0.238l-1.535,0.845l0.063-0.407l-0.913,0.739l-0.513,0.229l-0.017-0.438
		l-0.887,0.792l-0.05,0.009l-0.433-0.179l-0.896,0.728l-0.325,0.144l-0.652-0.245l-7.087,3.355l-0.934,0.373
		c-0.483-0.434,0.451-0.635,0.011-0.955c0.242,0.572-0.395,0.342-1.14,0.865l-0.075-0.065l-0.944,0.293l0.075,0.147
		c-0.244,0.541-1.196-0.394-1.107,0.441l-0.457-0.282l-0.978,0.78l0.006-0.133c-0.771-0.024-1.073,1.246-1.553,0.842l-0.632,0.807
		l-0.46,0.178l-0.144-0.422c-1.49,0.711-3.475,1.764-4.714,2.381l-1.33,0.525l3.733,10.49c0.116,0.604,0.363,1.053,0.582,1.613
		l1.183,3.377l-0.119,0.248c0.061,0.229,0.28,0.33,0.403,0.52l0.353,1.008l1.645,0.278c0.313,0.058,0.605,0.112,0.952,0.151
		l4.146,0.679l1.189-0.474c0.66-0.265,1.4-0.481,2.061-0.744l-0.217,0.384l0.674,0.106l0.396-0.394l0.125,0.401l2.141-0.807
		l-0.457-0.304l1.379-0.585l0.168,0.604l0.297-0.295l0.026,0.777c-0.135-0.996,1.198-0.796,1.362-1.014l-0.034,0.152
		c0.817,0.037-0.255-0.338,0.217-0.525l0.904,0.855l2.784-0.977l1.692-1.354c0.582-0.199,0.224,0.738,0.698,0.23
		c0.054,0.609,0.917,1.04,0.188,1.559l0.748-0.255l-0.483-0.432c-0.58-0.483,1.068-0.438,0.291-0.964l2.7-0.864l0.106,0.749
		l1.691-1.241l-0.484-0.84l0.416-0.41c0.264,0.437,0.471,1.177,1.149,0.96c0.068,0.801-1.177,0.313-0.618,0.942l-1.725,0.891
		c-0.377,0.849,0.513-0.096,0.611,0.574l1.475-1.047l-0.079-0.671c0.514-0.928,1.083,0.139,1.271,0.105l-0.317,0.297l1.15-0.602
		c0.42,0.807-0.818,0.387-0.832,0.994l0.58,0.47c0.857-0.2-0.02-0.772,0.899-0.845l0.005,0.344l0.466-0.365l-0.815-0.543
		l1.025-0.683l-0.463-0.302l0.595-0.791l0.795,0.634l-0.554,0.05l0.289,1.369l0.891-0.857c-0.508,0.443-0.256-0.326-0.502-0.484
		c0.512-1.604,0.942,0.707,1.792,0.156c-0.49-0.738,0.805-1.551-0.193-2.199l0.637-0.496l0.322,0.949l0.351-0.107l-0.271,0.84
		l1.552,0.578l0.156-0.797l0.586,0.377l-0.023-1.025l1.043,0.34l-0.297,0.635l0.545-0.133l0.009-1.32l0.72-0.025l-0.363,0.495
		L99.493,341.933z M68.021,347.666l0.55,0.765L68.021,347.666z"/>
	<polygon fill="#B9DD84" points="126.955,308.975 126.905,309.066 127.087,309.129 	"/>
	<polygon fill="#B9DD84" points="129.89,313.342 129.923,313.365 130.094,313.397 	"/>
	<polygon fill="#B9DD84" points="126.747,308.734 126.955,308.975 127.11,308.695 	"/>
	<polygon fill="#B9DD84" points="97.053,312.441 97.122,312.363 97.241,312.115 	"/>
	<polygon fill="#B9DD84" points="82.513,346.853 82.354,346.916 82.791,347.301 	"/>
	<line fill="none" x1="68.021" y1="347.666" x2="68.572" y2="348.43"/>
	<polygon fill="#B9DD84" points="81.125,346.916 81.483,346.654 81.206,346.554 	"/>
	<line fill="none" x1="84.343" y1="345.658" x2="83.425" y2="346.554"/>
	<line fill="none" x1="87.598" y1="345.748" x2="87.552" y2="346.152"/>
	<line fill="none" x1="87.612" y1="345.068" x2="88.191" y2="345.201"/>
	<line fill="none" x1="94.848" y1="343.441" x2="94.194" y2="343.607"/>
	<polygon fill="#B9DD84" points="97.204,342.455 97.24,342.074 96.997,342.168 	"/>
	<polygon fill="#B9DD84" points="123.151,304.199 123.408,304.07 123.071,303.881 	"/>
	<line fill="none" x1="97.899" y1="310.584" x2="98.27" y2="310.767"/>
	<polygon fill="#B9DD84" points="86.79,317.529 86.608,316.976 86.514,317.025 	"/>
	<path fill="#B9DD84" d="M494.998,292.133l-0.521-0.352l0.134-0.974l-0.605-0.597l-0.287,0.842l-0.161-0.659l-0.37-0.255
		l0.463-0.586l-0.662-0.854l0.991-0.693l-0.638-0.432l0.229-0.434c-0.024-1.109-1.553-0.727-1.364-1.65l0.323-0.25l-0.331-0.295
		c0.998-1.049-0.359-2.492-0.127-3.813c-0.632,0.261-0.325-0.475-0.638-0.635c0.71-0.125-0.309-0.637,0.025-1.072l-0.638,0.361
		c0.196-0.815-1.352-0.885-0.648-1.554l0.706,0.147c1.039-0.918-4.78-3.348-3.291-2.559l-0.405,0.986l-1.089-0.84l-0.809,0.087
		l0.306-0.28l-1.539,0.33l-1.975-0.634l-1.146,0.562l-0.09-0.254l-0.79,0.818l0.121-0.575c0.095-0.698-0.873-0.155-0.953-0.519
		l-0.397,0.4l-0.384,0.172l-0.8,0.33l0.026-0.576l-1.053,0.037c-0.051-0.029-0.092-0.056-0.271-0.037l-0.579-0.242l0.128-0.432
		l-0.969,0.635c-1.089-0.447-3.025-0.074-3.509,0.15l0.217-0.156l-0.784,0.16l-0.804-0.387l0.063,0.389
		c-0.865-0.707-2.04,0.377-3.099-0.129l0.46-0.41l-2.398,0.877l0.273-0.484l-1.207,0.396c0.126,0.348-0.379,0.649-0.688,0.543
		l-0.022-0.099l-1.124,0.228l0.178-0.383c-0.108-0.73-1.253-0.498-1.354-0.582l-0.326,0.438l-0.468-0.383l-1.169,1.187l-0.124-0.002
		l0.058-0.765l-1.144,0.73l-2.411-0.078l0.251-0.85l-2.34-0.221c0.433,0.74-0.586,0.527-0.823,0.968h-0.231l-0.607-0.649
		l-2.52,0.069l0.032-0.127l-2.521,0.534l-0.129-0.01l0.147-0.363c-0.501-0.188-0.53,0.145-0.648,0.344l-0.33-0.012l0.128-0.215
		l-1.72,0.174h-0.02l0.214-0.355l-1.13,0.318l-0.544-0.021l0.157-0.381l-1.189,0.346v0.01l-0.316-0.354l-1.076,0.304l-0.395-0.02
		l-0.519-0.482l-7.804,0.228l-1.018-0.03c-0.28-0.605,0.651-0.4,0.382-0.875c0.007,0.61-0.483,0.145-1.398,0.33l-0.028-0.088
		l-0.969-0.113l-0.012,0.172c-0.441,0.383-0.942-0.838-1.196-0.045l-0.318-0.455l-1.195,0.33l0.059-0.134
		c-0.692-0.33-1.484,0.728-1.746,0.16l-0.916,0.478l-0.485-0.017l0.037-0.435c-1.643,0.037-3.842,0.188-5.226,0.26l-1.478-0.034
		l-0.814,11.069c-0.138,0.636-0.079,1.146-0.144,1.763l-0.238,3.536l-0.229,0.168c-0.038,0.23,0.128,0.434,0.176,0.636l-0.096,1.069
		l1.4,0.916c0.272,0.186,0.502,0.355,0.813,0.515l3.522,2.315l1.28,0.037c0.688,0.025,1.459,0.108,2.164,0.146l-0.354,0.243
		l0.585,0.392l0.52-0.226l-0.04,0.431l2.3,0.127l-0.313-0.473l1.501,0.025l-0.096,0.613l0.397-0.148l-0.278,0.721
		c0.287-0.958,1.398-0.238,1.625-0.383l-0.078,0.128c0.738,0.382-0.104-0.422,0.394-0.39l0.501,1.152l2.927,0.229l2.112-0.557
		l0.55,0.479c-0.221,0.59,0.417,1.327-0.481,1.506c0.336-0.499,0.51-0.034,0.757,0.028l-0.264-0.539
		c-0.317-0.68,1.194,0.051,0.688-0.784l2.816,0.312l-0.203,0.733l2.032-0.442l-0.094-0.969l0.534-0.207l0.669,1.335
		c-0.264,0.785-1.206-0.179-0.94,0.63l-1.924,0.129c-0.706,0.612,0.481,0.119,0.313,0.76l1.766-0.359l0.181-0.658
		c0.839-0.636,0.949,0.572,1.145,0.618l-0.397,0.146l1.259-0.088c0.084,0.901-0.884,0.043-1.146,0.574l0.35,0.674
		c0.858,0.146,0.31-0.722,1.167-0.433l-0.122,0.329l0.543-0.172l-0.504-0.807c0.382-0.844,0.432-0.084,1.188-0.213l-0.271-0.47
		l0.854-0.483l0.484,0.898l-0.534-0.172c-0.788,0.449,0.258,1.035-0.29,1.355l1.148-0.43l-0.261-0.65
		c1.115-1.246,0.575,1.033,1.573,0.879c-0.163-0.877,1.363-1.104,0.733-2.092l0.79-0.211l-0.099,0.998l0.345,0.035l-0.579,0.65
		l1.195,1.146l0.472-0.65l0.372,0.57l0.387-0.941l0.818,0.738l-0.524,0.467l0.547,0.072l0.548-1.188l0.671,0.26l-0.534,0.313
		l0.814,0.729l0.22-0.438l0.044,0.445l0.7-0.324l0.038,0.299c0.303-0.168,0.704-0.805,1.027-0.195l-0.841-0.395
		c-0.289-0.543,0.534-0.453,0.637-0.526c-0.05,0.769,0.764,0.128,1.125,0.155l0.493,0.605l0.161-0.504
		c0.103,0.994,0.699-0.125,1.107,0.13l0.095,0.841l0.548-1.451l0.021,1.447l1.068-0.434l0.208-0.818l0.372,0.577l0.193-0.899
		l1.29-0.185l-0.565,0.586c0.934-0.021,0.441-1.169,1.299-1.383l0.306-1.149c0.062,0,0.126-0.006,0.199,0
		c-0.128,0.127-0.419,0.309-0.181,0.655l0.383-0.091c0.547,0.756-1.086,1.381-0.559,2.006l0.405-0.297l-0.025,0.873l1.044-0.346
		l-0.278-0.215l1.274-0.699l0.061,0.91l0.559-0.342l-0.035,0.285c1.776-0.041,4.02-0.24,5.379-1.5l1.857,0.717l0.119-0.551
		l0.494,0.508l1.591-0.633l0.216,0.395l0.572-0.465l0.382,0.354l-0.017-0.371c0.42-0.271,0.996-0.483,1.079,0.157l0.034-0.461
		l2.472-0.817l-0.576-0.562l0.428-0.444l0.146,0.649c1.33,0.383,2.606-0.858,3.975-1.246l0.163-0.48l2.854-0.904l0.094-1.197
		c0.296-0.692,0.566,0.593,1.216,0.685l0.77-0.636l0.026,0.086l1.016-0.645l-0.043,0.069l1.121-0.104l0.704-0.992l0.18,0.145
		l-0.228-0.357l0.732-0.053l-0.075,0.522c0.83-0.017,0.006-0.42,0.186-0.757c1.544-3.797,0.539-1.398,1.108-2.424
		c-0.114,1.08,0.833-1.777-0.737,2.57C493.148,297.227,495.105,291.729,494.998,292.133z M423.064,296.789l0.212,0.938
		L423.064,296.789z"/>
	<line fill="none" x1="423.064" y1="296.789" x2="423.275" y2="297.715"/>
	<path fill="#B9DD84" d="M57.312,262.165l-0.311-0.474l1.5,0.025l-0.094,0.614l0.395-0.153l-0.278,0.729
		c0.291-0.96,1.396-0.253,1.64-0.39l-0.079,0.132c0.739,0.383-0.104-0.426,0.409-0.398l0.483,1.15l2.924,0.231l2.111-0.553
		l0.548,0.481c-0.213,0.583,0.42,1.339-0.456,1.502c0.351-0.496,0.506-0.024,0.759,0.043l-0.264-0.553
		c-0.326-0.675,1.18,0.048,0.684-0.78l2.803,0.311l-0.203,0.738l2.048-0.451l-0.081-0.951l0.514-0.23l0.671,1.336
		c-0.251,0.788-1.189-0.179-0.94,0.626l-1.926,0.13c-0.688,0.625,0.482,0.113,0.313,0.763l1.779-0.364l0.168-0.645
		c0.862-0.646,0.951,0.564,1.146,0.605l-0.398,0.151l1.266-0.089c0.088,0.909-0.865,0.037-1.146,0.564l0.364,0.684
		c0.844,0.146,0.28-0.717,1.151-0.421l-0.122,0.328l0.559-0.179l-0.523-0.809c0.384-0.836,0.447-0.084,1.207-0.208l-0.297-0.46
		l0.857-0.485l0.484,0.898l-0.521-0.179c-0.785,0.456,0.255,1.051-0.306,1.357l1.163-0.428l-0.257-0.65
		c1.104-1.247,0.559,1.021,1.572,0.863c-0.165-0.86,1.355-1.095,0.712-2.073l0.781-0.211l-0.087,1.003l0.342,0.033l-0.565,0.642
		l1.19,1.174l0.471-0.68l0.402,0.584l0.354-0.942l0.833,0.752l-0.52,0.451l0.546,0.076l0.55-1.177l0.668,0.241l-0.547,0.319
		l0.823,0.729l0.205-0.446l0.064,0.459l0.688-0.325l0.053,0.301c0.291-0.181,0.695-0.813,1.033-0.212l-0.846-0.384
		c-0.293-0.555,0.521-0.463,0.622-0.539c-0.046,0.784,0.778,0.126,1.126,0.169l0.49,0.614l0.168-0.506
		c0.118,0.982,0.716-0.135,1.113,0.128l0.095,0.839l0.544-1.45l0.022,1.452l1.106-0.433l0.189-0.816l0.356,0.567l0.21-0.896
		l1.267-0.184l-0.561,0.587c0.941-0.02,0.438-1.188,1.3-1.39l0.306-1.166c0.06,0.004,0.136,0,0.199,0.004
		c-0.133,0.136-0.405,0.312-0.178,0.66l0.374-0.105c0.555,0.76-1.089,1.386-0.539,2.017l0.394-0.298l-0.006,0.862l1.022-0.342
		l-0.278-0.212l1.294-0.7l0.037,0.905l0.569-0.335l-0.043,0.279c1.799-0.034,4.041-0.233,5.399-1.492l1.852,0.722l0.122-0.567
		l0.513,0.522l1.569-0.637l0.232,0.386l0.566-0.461l0.383,0.354l-0.035-0.383c0.423-0.265,1.019-0.497,1.082,0.167l0.033-0.447
		l2.479-0.841l-0.558-0.552l0.41-0.453l0.16,0.67c1.312,0.371,2.593-0.873,3.961-1.262l0.175-0.484l2.845-0.904l0.106-1.187
		c0.286-0.7,0.558,0.585,1.202,0.661l0.754-0.63l0.038,0.086l1.019-0.643l-0.03,0.05l1.108-0.102l0.687-0.987l0.185,0.14
		l-0.223-0.366l0.741-0.036l-0.071,0.519c0.823-0.025-0.019-0.421,0.188-0.748c1.51-3.821,0.531-1.405,1.095-2.441
		c-0.106,1.084,0.781-1.79-0.728,2.588c-0.088,0.652,0.743-1.619,1.096-2.532l-0.519-0.363l0.144-0.953l-0.603-0.595l-0.284,0.839
		l-0.165-0.661l-0.365-0.252l0.45-0.592l-0.643-0.837l0.956-0.701l-0.627-0.449l0.271-0.416c-0.037-1.108-1.58-0.719-1.387-1.64
		l0.325-0.25l-0.334-0.299c0.99-1.048-0.369-2.48-0.121-3.816c-0.661,0.255-0.351-0.474-0.671-0.646
		c0.732-0.106-0.302-0.627,0.028-1.054l-0.627,0.363c0.205-0.83-1.336-0.891-0.646-1.553l0.7,0.148
		c1.015-0.94-4.842-3.289-3.313-2.542l-0.409,1.002l-1.095-0.841l-0.793,0.086l0.314-0.289l-1.56,0.343l-1.96-0.632l-1.146,0.546
		l-0.112-0.25l-0.789,0.813l0.118-0.563c0.093-0.705-0.877-0.161-0.957-0.521l-0.404,0.396l-0.382,0.168l-0.802,0.337l0.022-0.587
		l-1.054,0.042c-0.026-0.032-0.094-0.067-0.267-0.042l-0.575-0.243l0.128-0.426l-0.977,0.637c-1.085-0.44-3.026-0.078-3.5,0.15
		l0.212-0.166l-0.774,0.146l-0.802-0.369l0.063,0.385c-0.866-0.713-2.03,0.375-3.079-0.126l0.438-0.418l-2.385,0.89l0.257-0.495
		l-1.206,0.393c0.142,0.342-0.378,0.649-0.688,0.542l-0.017-0.098l-1.124,0.228l0.172-0.384c-0.112-0.713-1.236-0.494-1.36-0.574
		l-0.3,0.452l-0.483-0.394l-1.15,1.193l-0.144-0.007l0.064-0.77l-1.133,0.737l-2.41-0.079l0.255-0.854l-2.343-0.227
		c0.433,0.747-0.613,0.521-0.842,0.982l-0.247-0.011l-0.604-0.65l-2.521,0.077l0.051-0.141l-2.537,0.533l-0.125-0.005l0.138-0.354
		c-0.494-0.186-0.531,0.146-0.663,0.332l-0.31,0.007l0.127-0.23l-1.693,0.179l-0.026-0.002l0.2-0.356l-1.133,0.326l-0.549-0.018
		l0.177-0.395l-1.163,0.366l-0.02-0.002l-0.333-0.347l-1.081,0.309l-0.395-0.018l-0.501-0.484l-7.888,0.221l-0.939-0.037
		c-0.291-0.601,0.66-0.397,0.381-0.872c0.007,0.623-0.495,0.165-1.387,0.33l-0.025-0.084l-0.993-0.11l-0.006,0.17
		c-0.441,0.394-0.942-0.836-1.196-0.053l-0.314-0.44l-1.188,0.332l0.045-0.13c-0.689-0.33-1.474,0.719-1.741,0.148l-0.912,0.483
		l-0.486-0.025l0.05-0.427c-1.563,0.044-3.634,0.177-5.041,0.263l-1.654-0.04l-0.803,11.125c-0.134,0.615-0.095,1.121-0.134,1.729
		l-0.275,3.539l-0.21,0.176c-0.038,0.223,0.128,0.41,0.171,0.619l-0.078,1.063l1.425,0.941c0.265,0.186,0.508,0.358,0.804,0.519
		l3.497,2.31l1.301,0.044c0.692,0.021,1.46,0.103,2.166,0.139l-0.353,0.243l0.597,0.39l0.513-0.216l-0.05,0.411L57.312,262.165z
		 M53.444,260.04l0.213,0.933L53.444,260.04z"/>
	<polygon fill="#B9DD84" points="122.959,248.375 122.893,248.442 123.01,248.545 	"/>
	<polygon fill="#B9DD84" points="122.878,248.062 122.959,248.375 123.213,248.186 	"/>
	<polygon fill="#B9DD84" points="123.907,253.563 123.907,253.588 124.049,253.686 	"/>
	<path fill="#B9DD84" d="M94.159,239.515l0.278-0.091c-0.022-0.038,0.062-0.076,0.019-0.118L94.159,239.515z"/>
	<path fill="#B9DD84" d="M125.335,255.328l0.013,0.007C125.564,254.693,125.494,254.904,125.335,255.328z"/>
	<line fill="none" x1="69.205" y1="264.812" x2="68.007" y2="265.249"/>
	<line fill="none" x1="72.174" y1="266.204" x2="71.972" y2="266.543"/>
	<line fill="none" x1="72.922" y1="265.935" x2="72.432" y2="265.578"/>
	<line fill="none" x1="79.717" y1="267" x2="79.078" y2="266.9"/>
	<polygon fill="#B9DD84" points="82.283,267.068 82.454,266.717 82.201,266.71 	"/>
	<polygon fill="#B9DD84" points="121.691,242.43 121.454,242.139 121.409,242.453 	"/>
	<line fill="none" x1="95.68" y1="238.161" x2="95.987" y2="238.478"/>
	<polygon fill="#B9DD84" points="82.734,240.036 82.79,239.457 82.682,239.463 	"/>
	<path fill="#B9DD84" d="M409.25,366.887c-0.129,0.037-0.128-0.09-0.188-0.141l0.026,0.637L409.25,366.887z"/>
	<polygon fill="#B9DD84" points="432.768,378.02 432.753,378.01 432.027,378.314 	"/>
	<path fill="#B9DD84" d="M467.711,368.471c0.502-0.678-0.879-1.352,0.024-1.682l0.579,0.398c1.313-0.432-3.005-4.996-1.959-3.67
		l-0.773,0.75l-0.669-1.229l-0.762-0.229l0.416-0.148l-1.582-0.314l-1.533-1.369c-0.637,0.439-0.855-0.697-1.26,0.049l-0.002-0.279
		l-1.044,0.432l0.33-0.467l-0.681-0.879l-0.526,0.23l-0.41,0.004l-0.862-0.025l0.266-0.521l-0.997-0.388
		c0.004-0.054-0.055-0.103-0.215-0.134l-0.437-0.461l0.281-0.354l-1.126,0.205c-0.829-0.86-2.743-1.3-3.29-1.276l0.28-0.068
		l-0.777-0.178l-0.584-0.676l-0.109,0.383c-0.487-1.002-2.009-0.478-2.775-1.349l0.583-0.205l-2.538-0.167l0.438-0.341l-1.27-0.134
		c-0.022,0.38-0.599,0.449-0.845,0.221l0.031-0.081l-1.114-0.248l0.29-0.299l-0.993-1.067l-0.484,0.285l-0.278-0.554l-1.554,0.618
		l-0.106-0.053l0.354-0.688l-1.337,0.22l-2.172-1.044l0.576-0.678l-2.025-1.144c0.076,0.846-0.764,0.232-1.151,0.572l-0.22-0.109
		l-0.296-0.85l-2.343-0.939l0.104-0.123l-2.549-0.534l-0.111-0.046l0.283-0.271c-0.376-0.375-0.543-0.093-0.738,0.051l-0.28-0.14
		l0.218-0.144l-1.652-0.543h-0.015l0.347-0.237l-1.186-0.159l-0.479-0.229l0.311-0.297l-1.206-0.135l-0.023-0.025l-0.161-0.443
		l-1.105-0.16l-0.357-0.172l-0.261-0.643l-7.296-2.978l-0.849-0.409l0.688-0.644l-1.407-0.257l0.006-0.094l-0.861-0.492
		l-0.071,0.145c-0.555,0.186-0.523-1.146-1.044-0.521l-0.126-0.534l-1.237-0.185l0.112-0.09c-0.487-0.578-1.653,0.051-1.659-0.574
		l-1.026,0.068l-0.447-0.207l0.202-0.389c-1.45-0.596-3.435-1.313-4.777-1.807l-1.42-0.688l-5.245,9.826
		c-0.37,0.511-0.53,0.994-0.815,1.531l-1.679,3.139l-0.273,0.07c-0.125,0.199-0.053,0.433-0.093,0.638l-0.517,0.938l0.928,1.43
		c0.145,0.273,0.297,0.535,0.536,0.822l2.269,3.522l1.146,0.549c0.637,0.313,1.311,0.69,1.954,1.019l-0.416,0.076l0.363,0.588
		l0.558,0.022l-0.214,0.371l2.043,1.034l-0.085-0.547l1.358,0.627l-0.331,0.533l0.432,0.023l-0.546,0.537
		c0.653-0.771,1.373,0.34,1.654,0.301l-0.128,0.092l0.532-0.203l-0.026,1.248l2.575,1.4l2.159,0.342l0.308,0.658
		c-0.428,0.447-0.163,1.367-1.024,1.195c0.502-0.32,0.483,0.141,0.656,0.328l-0.01-0.598c-0.032-0.744,1.073,0.512,0.919-0.438
		l2.463,1.412l-0.489,0.586l2.076,0.426l0.288-0.916l0.565,0.014l0.077,1.502l-1.109,0.178l-1.823-0.656
		c-0.89,0.295,0.405,0.301-0.025,0.824l1.785,0.387l0.432-0.523c1.041-0.232,0.633,0.898,0.793,1.029l-0.434-0.039l1.201,0.438
		c-0.29,0.867-0.84-0.332-1.285,0.063l0.054,0.758l1.233,0.076l-0.248,0.242l0.586,0.078l-0.145-0.945
		c0.675-0.635,0.436,0.102,1.194,0.295l-0.094-0.543l0.97-0.088l0.103,1.016l-0.414-0.377c-0.918,0.1-0.205,1.068-0.816,1.119
		l1.23,0.098l0.026-0.691c1.502-0.711,0.113,1.154,1.09,1.428c0.208-0.861,1.685-0.467,1.501-1.613l0.789,0.127l-0.488,0.885
		l0.306,0.174l-0.792,0.365l0.625,1.545l0.7-0.43l0.112,0.688c-0.347-0.451,0.382-0.729,0.725-0.709l0.465,1.004l-0.682,0.219
		l0.479,0.283l0.987-0.854l0.496,0.5l-0.604,0.064l0.438,0.996l0.363-0.324l-0.127,0.445l0.788-0.016l-0.109,0.281
		c0.341-0.039,0.986-0.467,1.034,0.238l-0.621-0.717l0.812-0.227c-0.377,0.678,0.637,0.432,0.941,0.602l0.205,0.74l0.362-0.383
		c-0.314,0.939,0.688,0.152,0.952,0.561l-0.255,0.793l1.1-1.094c0.575,0.482-0.554,0.789-0.563,1.338l1.147,0.031l0.518-0.662
		l0.117,0.674l0.539-0.746l1.222,0.342l1.019-0.432l0.737-0.939c0.044,0.025,0.104,0.045,0.179,0.078
		c-0.169,0.076-0.483,0.121-0.432,0.543l0.391,0.047c0.205,0.936-1.554,0.846-1.324,1.637l0.513-0.113l-0.382,0.785l1.095,0.107
		l-0.179-0.32l1.45-0.127l-0.32,0.857l0.646-0.088l-0.145,0.258c1.64,0.674,3.791,1.398,5.543,0.799l1.407,1.414l0.332-0.461
		l0.255,0.668l1.702,0.066l0.026,0.432l0.735-0.184l0.203,0.482l0.126-0.334l0.938,0.588l0.19-0.408l2.609,0.234l-0.284-0.74
		l0.578-0.264l-0.123,0.662c1.042,0.883,2.724,0.256,4.134,0.461l0.348-0.381l2.98,0.324l0.56-1.043
		c0.54-0.537,0.279,0.75,0.837,1.086l0.941-0.26l-0.008,0.086l1.203-0.178l-0.067,0.049l1.063,0.348l1.044-0.635l0.087,0.207
		l-0.04-0.422l0.69,0.248l-0.266,0.467c0.75,0.305,0.146-0.393,0.473-0.623c0.126,0.139,2.779-2.848,2.003-1.779
		c-0.543,0.945,1.485-1.273-1.726,2.07c-1.695,2.063,2.326-2.162,2.063-1.828l-0.343-0.549l0.524-0.828l-0.316-0.789l-0.586,0.639
		l0.085-0.682l-0.21-0.369l0.673-0.354l-0.272-1.047l1.176-0.232l-0.399-0.674l0.404-0.293c0.396-1.025-1.157-1.277-0.604-2.053
		l0.394-0.1l-0.181-0.408c1.322-0.563,0.661-2.418,1.399-3.537l-0.33-0.854c0.693,0.18-0.025-0.689,0.443-0.953L467.711,368.471z
		 M398.648,357.652l0.188-0.941L398.648,357.652z"/>
	<line fill="none" x1="398.648" y1="357.652" x2="398.839" y2="356.715"/>
	<polygon fill="#B9DD84" points="408.569,365.719 408.247,365.883 408.69,365.979 	"/>
	<line fill="none" x1="411.338" y1="367.428" x2="410.056" y2="367.367"/>
	<line fill="none" x1="413.47" y1="369.912" x2="413.166" y2="370.129"/>
	<line fill="none" x1="414.268" y1="369.961" x2="413.989" y2="369.441"/>
	<line fill="none" x1="420.067" y1="373.684" x2="419.534" y2="373.328"/>
	<polygon fill="#B9DD84" points="422.464,374.42 422.386,374.77 422.701,374.529 	"/>
	<path fill="#B9DD84" d="M143.136,198.697l0.016,0.01C143.613,198.216,143.451,198.365,143.136,198.697z"/>
	<polygon fill="#B9DD84" points="109.371,195.296 109.354,195.291 108.638,195.605 	"/>
	<path fill="#B9DD84" d="M85.852,184.168c-0.131,0.044-0.106-0.083-0.185-0.141l0.024,0.634L85.852,184.168z"/>
	<polygon fill="#B9DD84" points="143.778,191.382 143.702,191.4 143.756,191.557 	"/>
	<polygon fill="#B9DD84" points="142.531,196.485 142.531,196.51 142.635,196.679 	"/>
	<path fill="#B9DD84" d="M121.01,171.642l0.279,0.029c0.001-0.041,0.099-0.041,0.071-0.104L121.01,171.642z"/>
	<polygon fill="#B9DD84" points="143.81,191.049 143.778,191.382 144.089,191.3 	"/>
	<path fill="#B9DD84" d="M70.418,170.304l2.299,3.537l1.139,0.542c0.618,0.309,1.299,0.688,1.93,1.012l-0.415,0.094l0.37,0.584
		l0.573,0.021l-0.227,0.367l2.037,1.042l-0.092-0.547l1.357,0.634l-0.332,0.523l0.427,0.018l-0.544,0.544
		c0.655-0.76,1.395,0.339,1.653,0.31l-0.127,0.089l0.529-0.196l-0.025,1.25l2.591,1.393l2.159,0.336l0.313,0.663
		c-0.434,0.458-0.153,1.379-1.031,1.196c0.502-0.308,0.5,0.154,0.667,0.328l-0.007-0.595c-0.021-0.743,1.064,0.516,0.938-0.437
		l2.448,1.409l-0.486,0.59l2.067,0.431l0.309-0.927l0.548,0.017l0.077,1.509l-1.109,0.168l-1.813-0.647
		c-0.885,0.293,0.396,0.312-0.023,0.819l1.78,0.388l0.433-0.52c1.015-0.239,0.625,0.898,0.79,1.027l-0.438-0.032l1.197,0.432
		c-0.291,0.867-0.84-0.317-1.278,0.054l0.046,0.769l1.229,0.08l-0.235,0.22l0.579,0.081l-0.166-0.957
		c0.706-0.627,0.472,0.103,1.199,0.296l-0.088-0.537l0.986-0.095l0.078,1.032l-0.414-0.384c-0.897,0.094-0.18,1.054-0.816,1.119
		l1.243,0.094l0.017-0.692c1.509-0.706,0.106,1.159,1.093,1.415c0.214-0.85,1.688-0.463,1.502-1.605l0.79,0.121l-0.482,0.891
		l0.309,0.158l-0.79,0.371l0.615,1.538l0.704-0.418l0.133,0.69c-0.379-0.46,0.356-0.738,0.706-0.712l0.46,1l-0.651,0.21l0.463,0.303
		l0.987-0.875l0.509,0.508l-0.632,0.061l0.461,0.996l0.378-0.317l-0.128,0.443l0.762-0.015l-0.076,0.288
		c0.347-0.035,0.966-0.459,1.033,0.237l-0.638-0.697l0.795-0.24c-0.355,0.682,0.657,0.434,0.948,0.605l0.229,0.755l0.346-0.388
		c-0.31,0.938,0.706,0.152,0.968,0.563l-0.253,0.797l1.088-1.106c0.583,0.494-0.55,0.794-0.557,1.348l1.163,0.031l0.503-0.661
		l0.112,0.668l0.548-0.737l1.216,0.341l1.027-0.427l0.732-0.939c0.063,0.024,0.122,0.045,0.186,0.078
		c-0.177,0.062-0.49,0.111-0.433,0.532l0.409,0.037c0.194,0.942-1.562,0.851-1.327,1.634l0.483-0.108l-0.365,0.79l1.083,0.1
		l-0.16-0.306l1.454-0.13l-0.319,0.858l0.638-0.08l-0.132,0.242c1.643,0.688,3.789,1.41,5.542,0.805l1.391,1.408l0.333-0.475
		l0.272,0.677l1.685,0.071l0.046,0.437l0.694-0.198l0.197,0.482l0.161-0.347l0.904,0.588l0.224-0.405l2.607,0.237l-0.304-0.748
		l0.542-0.229l-0.083,0.674c1.014,0.869,2.699,0.229,4.102,0.44l0.364-0.38l2.979,0.331l0.578-1.055
		c0.538-0.522,0.271,0.76,0.826,1.094l0.948-0.262l-0.019,0.089l1.205-0.17l-0.067,0.032l1.072,0.357l1.038-0.621l0.104,0.201
		l-0.048-0.428l0.7,0.247l-0.285,0.47c0.759,0.305,0.178-0.395,0.482-0.617c2.908-2.896,1.069-1.083,1.98-1.807
		c-0.537,0.953,1.443-1.301-1.69,2.083c-0.335,0.573,1.339-1.169,2.011-1.873l-0.328-0.519l0.526-0.841l-0.317-0.787l-0.596,0.643
		l0.111-0.688l-0.223-0.354l0.657-0.358l-0.267-1.052l1.17-0.233l-0.379-0.655l0.383-0.299c0.424-1.021-1.156-1.28-0.601-2.056
		l0.429-0.102l-0.204-0.402c1.318-0.563,0.668-2.431,1.422-3.542l-0.332-0.854c0.688,0.18-0.025-0.693,0.452-0.957l-0.728,0.072
		c0.528-0.667-0.879-1.361,0.036-1.683l0.564,0.408c1.326-0.434-3.074-4.962-1.988-3.646l-0.79,0.737l-0.656-1.211l-0.747-0.236
		l0.398-0.13l-1.561-0.315l-1.553-1.372c-0.633,0.44-0.855-0.703-1.26,0.048l0.015-0.285l-1.044,0.433l0.335-0.47l-0.688-0.873
		l-0.532,0.217l-0.394,0.018l-0.876-0.026l0.238-0.525l-0.955-0.386c-0.017-0.043-0.066-0.097-0.23-0.14l-0.438-0.457l0.279-0.354
		l-1.128,0.195c-0.813-0.853-2.747-1.292-3.271-1.264l0.272-0.064l-0.787-0.178l-0.584-0.674l-0.104,0.377
		c-0.516-0.998-1.999-0.469-2.766-1.351l0.573-0.195l-2.545-0.151l0.438-0.356l-1.269-0.128c-0.02,0.382-0.601,0.456-0.847,0.229
		l0.041-0.088l-1.142-0.253l0.31-0.292l-1.025-1.077l-0.45,0.287l-0.282-0.562l-1.549,0.623l-0.105-0.054l0.355-0.683l-1.333,0.217
		l-2.175-1.043l0.584-0.671l-2.052-1.143c0.089,0.841-0.784,0.215-1.169,0.538l-0.198-0.096l-0.298-0.846l-2.323-0.947l0.101-0.104
		l-2.566-0.548l-0.09-0.041l0.279-0.276c-0.394-0.374-0.545-0.091-0.76,0.057l-0.278-0.145l0.228-0.149l-1.657-0.542h-0.021
		l0.359-0.23l-1.182-0.168l-0.489-0.229l0.293-0.296l-1.176-0.127l-0.043-0.025l-0.14-0.449l-1.127-0.168l-0.341-0.166l-0.272-0.638
		l-7.279-2.982l-0.852-0.41l0.688-0.646l-1.406-0.246l0.005-0.1l-0.859-0.49l-0.069,0.145c-0.563,0.179-0.527-1.145-1.067-0.526
		l-0.117-0.536l-1.228-0.188l0.113-0.086c-0.494-0.583-1.653,0.056-1.66-0.566l-1.043,0.07l-0.434-0.191l0.203-0.393
		c-1.469-0.604-3.437-1.315-4.774-1.804l-1.326-0.637l-0.107-0.056l-5.213,9.825c-0.383,0.525-0.541,1.01-0.822,1.553l-1.67,3.129
		l-0.268,0.079c-0.118,0.188-0.049,0.413-0.09,0.629l-0.517,0.941l0.938,1.424C70.049,169.77,70.209,170.023,70.418,170.304z
		 M75.448,173.994l-0.168,0.94L75.448,173.994z"/>
	<line fill="none" x1="75.28" y1="174.934" x2="75.448" y2="173.994"/>
	<polygon fill="#B9DD84" points="85.191,183.002 84.855,183.163 85.29,183.26 	"/>
	<line fill="none" x1="87.954" y1="184.71" x2="86.668" y2="184.633"/>
	<line fill="none" x1="90.091" y1="187.178" x2="89.762" y2="187.419"/>
	<line fill="none" x1="90.893" y1="187.245" x2="90.598" y2="186.719"/>
	<line fill="none" x1="96.68" y1="190.962" x2="96.139" y2="190.62"/>
	<polygon fill="#B9DD84" points="99.012,192.059 99.305,191.805 99.091,191.693 	"/>
	<polygon fill="#B9DD84" points="144.74,185.338 145.022,185.421 144.939,185.07 	"/>
	<line fill="none" x1="122.96" y1="171.017" x2="123.088" y2="171.425"/>
	<polygon fill="#B9DD84" points="110.536,166.964 110.344,167.509 110.62,166.998 	"/>
	<path fill="#B9DD84" d="M411.505,435.205l-0.992,0.369l-0.134-1.391l-0.589-0.523l0.423,0.035l-1.3-0.912l-0.852-1.883
		c-0.758,0.141-0.5-0.984-1.195-0.469l0.128-0.232l-1.14-0.049l0.484-0.277l-0.266-1.066l-0.559-0.012l-0.383-0.156l-0.802-0.383
		l0.438-0.379l-0.722-0.744c0.002-0.055-0.013-0.111-0.15-0.225l-0.217-0.586l0.407-0.227l-1.127-0.27l-2.476-2.484l0.271,0.045
		l-0.636-0.465l-0.273-0.859l-0.243,0.313l-2.004-2.367l0.63,0.057l-2.264-1.166l0.534-0.143l-1.275-0.701l-0.688-0.049l0.075-0.068
		l-0.937-0.689l0.396-0.148l-0.514-1.398l-0.536,0.078l-0.04-0.629l-1.644-0.057l-0.076-0.1l0.583-0.467l-1.297-0.342l-1.552-1.83
		l0.792-0.385l-1.414-1.863c-0.279,0.809-0.802-0.096-1.28,0.043l-0.266-0.279c-0.105-0.33,0.229-0.535,0.162-0.811l-1.757-1.793
		l0.148-0.076l-2.134-1.514l-0.063-0.082l0.354-0.135c-0.185-0.48-0.438-0.297-0.678-0.258l-0.23-0.238l0.274-0.049l-1.297-1.16
		l-0.017-0.008l0.409-0.076l-1.012-0.615l-0.36-0.43l0.42-0.125l-1.047-0.617l-0.024-0.023l0.045-0.475l-0.951-0.588l-0.275-0.301
		l0.027-0.689l-5.465-5.641l-0.639-0.74c0.257-0.629,0.738,0.213,0.916-0.303c-0.469,0.404-0.469-0.281-1.193-0.813l0.029-0.094
		l-0.579-0.789l-0.121,0.127c-0.597-0.078-0.018-1.248-0.77-0.898l0.12-0.545l-1.061-0.666l0.128-0.037l-1.278-1.188l-0.956-0.348
		l-0.331-0.383l0.337-0.271c-1.067-1.102-2.562-2.521-3.567-3.49l-1.104-1.283l-8.758,6.914c-0.547,0.318-0.892,0.695-1.351,1.061
		l-2.821,2.211l-0.271-0.047c-0.18,0.129-0.187,0.359-0.332,0.516l-0.831,0.666l0.279,1.689c0.014,0.313,0.044,0.623,0.127,0.936
		l0.684,4.135l0.858,0.984c0.447,0.535,0.913,1.148,1.379,1.715l-0.432-0.098l0.112,0.689l0.505,0.229l-0.355,0.252l1.455,1.789
		l0.144-0.535l0.994,1.115l-0.534,0.33l0.396,0.203l-0.738,0.27c0.899-0.436,1.134,0.875,1.394,0.945l-0.145,0.027
		c0.214,0.807,0.246-0.344,0.569,0.041l-0.526,1.146l1.811,2.314l1.842,1.172l0.002,0.725l-1.411,0.688l0.445,0.629l0.264-0.596
		c0.268-0.697,0.752,0.893,1.027-0.02l1.664,2.268l-0.688,0.342l1.705,1.201l0.65-0.709l0.527,0.244l-0.535,1.4
		c-0.752,0.332-0.684-1.012-1.104-0.281c-0.684,0.127-1.521-0.877-1.397-1.33c-0.929-0.094,0.254,0.438-0.354,0.738l1.456,1.07
		l0.61-0.305c1.049,0.193,0.229,1.082,0.318,1.248l-0.383-0.186l0.941,0.877c-0.61,0.68-0.637-0.639-1.218-0.463l-0.248,0.711
		l1.096,0.572l-0.331,0.105l0.528,0.314l0.229-0.926c0.885-0.301,0.372,0.266,0.964,0.744l0.127-0.533l0.941,0.303l-0.326,0.988
		l-0.229-0.521c-0.851-0.279-0.591,0.895-1.194,0.695c0.154,0.787,0.803,0.043,1.094,0.572c-0.585-0.328,0.222-0.35,0.291-0.627
		c1.669-0.023-0.38,1.107,0.422,1.732c0.549-0.688,1.738,0.277,2.037-0.861l0.671,0.436l-0.798,0.613l0.216,0.279l-0.872,0.023
		l-0.055,1.656l0.814-0.107l-0.174,0.68l0.96-0.355l-0.024,1.094l-0.687-0.076l0.33,0.475l1.247-0.406l0.255,0.68l-0.594-0.199
		l0.022,1.105l0.469-0.146l-0.291,0.334l0.701,0.313l-0.193,0.238c0.346,0.109,1.068-0.043,0.84,0.625l-0.279-0.891l0.841,0.115
		c-0.619,0.463,0.412,0.646,0.624,0.93l-0.111,0.787l0.47-0.234c-0.653,0.742,0.58,0.434,0.688,0.906l-0.568,0.637l1.435-0.57
		c0.351,0.686-0.813,0.494-1.051,0.99l1.066,0.523l0.72-0.408l-0.178,0.658l0.809-0.443l0.993,0.787l1.092,0.025l1.066-0.563
		c0.058,0.043,0.095,0.1,0.144,0.148c-0.197-0.025-0.521-0.104-0.606,0.318l0.315,0.191c-0.179,0.939-1.733,0.164-1.857,0.951
		l0.516,0.117l-0.688,0.559l0.971,0.537l-0.039-0.348l1.406,0.475l-0.647,0.646l0.631,0.182l-0.229,0.17
		c1.217,1.293,2.892,2.818,4.731,2.971l0.73,1.855l0.484-0.285l-0.026,0.736l1.531,0.738l-0.152,0.426l0.741,0.109l-0.023,0.508
		l0.271-0.27l0.63,0.902l0.346-0.275l2.273,1.256l0.023-0.789h0.619l-0.371,0.566c0.586,1.225,2.386,1.336,3.605,2.078l0.481-0.199
		l2.584,1.5l0.942-0.727c0.691-0.27-0.045,0.803,0.308,1.322l0.982,0.146l-0.078,0.088l1.163,0.313l-0.054,0.018l0.817,0.756
		l1.2-0.156l0.023,0.232l0.132-0.402l0.526,0.496l-0.433,0.324l0.687-0.367c3.807-1.502,1.4-0.584,2.51-0.885
		c-0.856,0.654,1.874-0.611-2.374,1.23c-0.521,0.395,1.704-0.533,2.605-0.902l-0.081-0.609l0.799-0.557l0.047-0.842l-0.818,0.354
		l0.386-0.576l-0.067-0.432l0.764-0.064l0.162-1.072l1.182,0.264l-0.113-0.771l0.487-0.098c0.804-0.771-0.536-1.643,0.273-2.119
		l0.433,0.076l-0.014-0.463c1.423,0.025,1.567-1.941,2.721-2.664l0.036-0.906l0.804-0.707l-0.693-0.211
		c0.736-0.422-0.252-1.6,0.711-1.527l0.366,0.605C413.251,439.482,411.075,433.57,411.505,435.205z M352.015,402.563l0.528-0.787
		L352.015,402.563z"/>
	<polygon fill="#B9DD84" points="395.156,418.008 395.223,418.059 395.512,418.064 	"/>
	<polygon fill="#B9DD84" points="408.202,444.941 408.036,445.242 408.35,445.291 	"/>
	<polygon fill="#B9DD84" points="408.036,445.242 407.942,445.225 407.941,445.387 	"/>
	<polygon fill="#B9DD84" points="357.955,415.268 357.821,415.135 357.609,415.668 	"/>
	<path fill="#B9DD84" d="M404.49,451.668v0.021C405.123,451.408,404.913,451.494,404.49,451.668z"/>
	<polygon fill="#B9DD84" points="404.838,449.402 404.826,449.441 404.844,449.623 	"/>
	<polygon fill="#B9DD84" points="374.986,434.957 374.986,434.947 374.176,434.939 	"/>
	<line fill="none" x1="352.015" y1="402.563" x2="352.54" y2="401.773"/>
	<polygon fill="#B9DD84" points="357.455,413.969 357.812,414.236 357.812,413.938 	"/>
	<line fill="none" x1="359.655" y1="416.633" x2="358.525" y2="416.051"/>
	<line fill="none" x1="360.612" y1="419.76" x2="360.236" y2="419.844"/>
	<line fill="none" x1="361.319" y1="420.145" x2="361.268" y2="419.543"/>
	<line fill="none" x1="365.121" y1="425.871" x2="364.761" y2="425.332"/>
	<polygon fill="#B9DD84" points="366.799,427.809 367.171,427.711 367.02,427.506 	"/>
	<polygon fill="#B9DD84" points="411.549,440.279 411.608,439.92 411.335,440.088 	"/>
	<line fill="none" x1="397.176" y1="418.211" x2="397.126" y2="418.633"/>
	<polygon fill="#B9DD84" points="387.514,409.561 387.433,409.477 387.059,409.918 	"/>
	<polygon fill="#B9DD84" points="182.635,151.789 182.6,151.829 182.645,152.006 	"/>
	<polygon fill="#B9DD84" points="172.953,120.37 173.062,120.421 173.314,120.441 	"/>
	<polygon fill="#B9DD84" points="185.835,147.614 185.738,147.602 185.733,147.764 	"/>
	<polygon fill="#B9DD84" points="135.715,117.623 135.605,117.503 135.397,118.029 	"/>
	<polygon fill="#B9DD84" points="186.004,147.328 185.835,147.614 186.146,147.674 	"/>
	<line fill="none" x1="151.964" y1="137.294" x2="152.763" y2="137.31"/>
	<path fill="#B9DD84" d="M127.179,98.742l0.683,4.134l0.841,0.959c0.463,0.547,0.913,1.162,1.36,1.718l-0.422-0.095l0.094,0.688
		l0.512,0.23l-0.356,0.255l1.473,1.786l0.134-0.549l1.004,1.115l-0.547,0.332l0.402,0.209l-0.738,0.278
		c0.918-0.434,1.132,0.866,1.408,0.954l-0.175,0.026c0.229,0.793,0.245-0.371,0.579,0.024l-0.519,1.146l1.799,2.311l1.839,1.188
		l0.025,0.726l-1.429,0.688l0.463,0.636l0.245-0.607c0.282-0.706,0.769,0.891,1.043-0.025l1.652,2.273l-0.683,0.354l1.713,1.216
		l0.643-0.729l0.531,0.245l-0.543,1.401c-0.758,0.328-0.671-1.021-1.094-0.291c-0.687,0.135-1.544-0.869-1.399-1.318
		c-0.94-0.104,0.239,0.434-0.347,0.742l1.471,1.066l0.597-0.307c1.042,0.197,0.202,1.069,0.306,1.254l-0.383-0.208l0.926,0.881
		c-0.607,0.675-0.621-0.635-1.176-0.46l-0.271,0.708l1.081,0.569l-0.303,0.122l0.488,0.313l0.256-0.934
		c0.867-0.286,0.353,0.258,0.961,0.748l0.136-0.532l0.932,0.309l-0.322,0.968l-0.23-0.508c-0.869-0.278-0.606,0.894-1.207,0.696
		c0.172,0.775,0.798,0.045,1.096,0.57c-0.556-0.326,0.231-0.359,0.31-0.619c1.67-0.025-0.361,1.114,0.432,1.738
		c0.527-0.688,1.721,0.268,2.019-0.878l0.68,0.444l-0.813,0.605l0.225,0.287l-0.862,0.01l-0.068,1.655l0.809-0.1l-0.149,0.684
		l0.941-0.354l0.022,1.103l-0.69-0.078l0.315,0.462l1.248-0.396l0.255,0.666l-0.595-0.188l0.018,1.097l0.464-0.136l-0.296,0.337
		l0.715,0.298l-0.197,0.229c0.319,0.107,1.07-0.029,0.852,0.641l-0.296-0.898l0.816,0.113c-0.604,0.47,0.433,0.638,0.637,0.933
		l-0.109,0.779l0.483-0.23c-0.66,0.738,0.58,0.439,0.649,0.919l-0.562,0.628l1.452-0.571c0.336,0.688-0.841,0.503-1.062,1.002
		l1.051,0.501l0.737-0.396l-0.185,0.656l0.823-0.456l0.977,0.809l1.104,0.021l1.043-0.576c0.049,0.052,0.092,0.105,0.135,0.157
		c-0.19-0.009-0.498-0.092-0.592,0.325l0.317,0.194c-0.192,0.94-1.755,0.146-1.862,0.949l0.503,0.104l-0.658,0.563l0.953,0.553
		l-0.019-0.36l1.369,0.464l-0.638,0.668l0.64,0.186l-0.246,0.165c1.245,1.293,2.914,2.819,4.761,2.978l0.714,1.85l0.501-0.28
		l-0.063,0.711l1.533,0.748l-0.126,0.433l0.724,0.088l-0.007,0.521l0.279-0.258l0.61,0.904l0.338-0.281l2.315,1.271l0.006-0.793
		l0.626,0.002l-0.382,0.564c0.595,1.229,2.392,1.335,3.595,2.078l0.475-0.2l2.6,1.501l0.926-0.732
		c0.737-0.263-0.045,0.795,0.343,1.337l0.964,0.143l-0.045,0.08l1.188,0.317l-0.082,0.007l0.836,0.771l1.186-0.167l0.025,0.236
		l0.112-0.421l0.531,0.505l-0.42,0.323l0.688-0.366c3.826-1.454,1.398-0.563,2.52-0.85c-0.861,0.648,1.868-0.598-2.394,1.197
		c-2.368,1.238,3-1.045,2.613-0.856l-0.103-0.637l0.809-0.547l0.055-0.842l-0.817,0.352l0.372-0.566l-0.063-0.439l0.744-0.063
		l0.201-1.064l1.177,0.259l-0.112-0.77l0.488-0.104c0.801-0.769-0.533-1.633,0.278-2.122l0.417,0.079l-0.023-0.458
		c1.433,0.025,1.59-1.943,2.736-2.674l0.038-0.904l0.802-0.695l-0.703-0.228c0.743-0.414-0.25-1.579,0.711-1.518l0.367,0.598
		c1.381,0.138-0.787-5.785-0.329-4.146l-1.027,0.371l-0.118-1.382l-0.593-0.525l0.426,0.017l-1.31-0.91l-0.868-1.887
		c-0.743,0.15-0.492-0.992-1.181-0.471l0.107-0.259l-1.115-0.018l0.501-0.296l-0.273-1.057l-0.579-0.024L182.95,131l-0.79-0.372
		l0.438-0.381l-0.735-0.756c0.002-0.056-0.014-0.104-0.147-0.203l-0.213-0.599l0.397-0.204l-1.123-0.276l-2.478-2.49l0.276,0.053
		l-0.646-0.474l-0.278-0.846l-0.231,0.307l-1.988-2.365l0.598,0.037l-2.266-1.163l0.538-0.142l-1.248-0.702l-0.728-0.045
		l0.069-0.076l-0.937-0.694l0.398-0.132l-0.495-1.395l-0.558,0.075l-0.021-0.624l-1.654-0.051l-0.088-0.1l0.606-0.467l-1.314-0.35
		l-1.546-1.826l0.79-0.387l-1.423-1.866c-0.253,0.805-0.8-0.104-1.277,0.042l-0.224-0.272c-0.142-0.33,0.211-0.534,0.142-0.806
		l-1.748-1.804l0.126-0.075l-2.099-1.485l-0.09-0.103l0.383-0.127c-0.217-0.499-0.479-0.306-0.716-0.27l-0.21-0.241l0.255-0.052
		l-1.297-1.155l-0.017-0.007l0.407-0.072l-0.994-0.617l-0.361-0.422l0.396-0.144l-1.048-0.614l-0.016-0.021l0.033-0.472l-0.942-0.6
		l-0.273-0.298l0.031-0.718l-5.444-5.625l-0.646-0.748c0.245-0.62,0.733,0.209,0.908-0.315c-0.477,0.406-0.465-0.273-1.196-0.804
		l0.058-0.081l-0.603-0.8l-0.11,0.121c-0.583-0.067-0.015-1.249-0.771-0.903l0.115-0.543l-1.042-0.666l0.111-0.036l-1.277-1.189
		l-0.963-0.342l-0.328-0.389l0.341-0.271c-1.11-1.181-2.724-2.681-3.706-3.663l-0.98-1.14l-8.727,6.895
		c-0.536,0.327-0.896,0.705-1.354,1.074l-2.802,2.213l-0.254-0.033c-0.197,0.126-0.224,0.37-0.355,0.53l-0.845,0.679l0.262,1.629
		C127.063,98.091,127.096,98.404,127.179,98.742z M130.327,104.13l-0.554,0.784L130.327,104.13z"/>
	<line fill="none" x1="129.772" y1="104.913" x2="130.327" y2="104.13"/>
	<polygon fill="#B9DD84" points="135.226,116.324 135.592,116.583 135.594,116.295 	"/>
	<line fill="none" x1="137.433" y1="118.98" x2="136.293" y2="118.402"/>
	<line fill="none" x1="138.396" y1="122.109" x2="137.996" y2="122.192"/>
	<line fill="none" x1="139.102" y1="122.489" x2="139.031" y2="121.891"/>
	<line fill="none" x1="142.911" y1="128.228" x2="142.546" y2="127.676"/>
	<polygon fill="#B9DD84" points="144.584,130.164 144.964,130.06 144.801,129.862 	"/>
	<polygon fill="#B9DD84" points="189.352,142.651 189.413,142.3 189.136,142.462 	"/>
	<line fill="none" x1="174.921" y1="121.008" x2="174.993" y2="120.588"/>
	<polygon fill="#B9DD84" points="165.25,111.862 164.872,112.291 165.304,111.928 	"/>
	<path fill="#B9DD84" d="M331.404,478.66l0.447-1.32l-0.329-0.705l0.375,0.207l-0.815-1.359l-0.043-2.066
		c-0.744-0.17-0.05-1.104-0.89-0.906l0.217-0.176l-1.024-0.494l0.556-0.064c0.704-0.137-0.129-0.889,0.198-1.09l-0.505-0.238
		l-0.287-0.301l-0.587-0.654l0.581-0.178l-0.388-0.994c0.024-0.051,0.024-0.104-0.05-0.242l0.075-0.635l0.441-0.025l-0.922-0.699
		c0.069-1.188-0.91-2.896-1.28-3.283l0.242,0.16l-0.395-0.688l0.076-0.893l-0.331,0.18l-0.875-2.957l0.536,0.281l-1.604-1.986
		l0.543,0.09l-0.858-1.148l-0.637-0.334l0.096-0.023l-0.586-1.004l0.417,0.02c0.644-0.322,0.076-1.336,0.111-1.463l-0.515-0.148
		l0.219-0.588l-1.497-0.715l-0.045-0.129l0.737-0.18l-1.028-0.842l-0.705-2.314l0.891-0.027l-0.563-2.293
		c-0.565,0.648-0.685-0.381-1.182-0.471l-0.104-0.34c0.021-0.357,0.412-0.385,0.458-0.666l-0.89-2.361l0.17-0.01l-1.34-2.24
		l-0.023-0.115l0.378,0.025c0.022-0.535-0.292-0.459-0.523-0.518l-0.106-0.297l0.271,0.064l-0.737-1.605l0.4,0.102l-0.645-0.969
		l-0.178-0.535l0.434,0.029l-0.694-0.977l-0.024-0.031l0.253-0.418l-0.653-0.939l-0.11-0.361l0.312-0.631l-2.716-7.41l-0.29-0.895
		c0.482-0.471,0.604,0.502,0.969,0.082c-0.586,0.191-0.327-0.42-0.771-1.213l0.074-0.063l-0.218-0.975l-0.163,0.061
		c-0.486-0.295,0.508-1.146-0.33-1.129l0.33-0.461l-0.688-1.039l0.135,0.023c0.094-0.758-1.16-1.18-0.704-1.605l-0.738-0.713
		l-0.144-0.477l0.433-0.098c-0.551-1.514-1.398-3.541-1.927-4.836l-0.432-1.443l-10.77,2.771c-0.637,0.078-1.116,0.281-1.689,0.438
		l-3.454,0.893l-0.233-0.143c-0.225,0.043-0.322,0.238-0.516,0.334l-1.055,0.271l-0.415,1.631c-0.109,0.305-0.192,0.617-0.261,0.939
		l-1.081,4.061l0.393,1.236c0.194,0.672,0.372,1.424,0.562,2.125l-0.345-0.275l-0.187,0.672l0.382,0.424l-0.418,0.1l0.604,2.199
		l0.34-0.432l0.448,1.428l-0.626,0.098l0.281,0.336l-0.788-0.027c1.02-0.049,0.688,1.248,0.9,1.43l-0.157-0.039
		c-0.111,0.818,0.374-0.23,0.514,0.264l-0.933,0.824l0.719,2.855l1.18,1.813c0.153,0.6-0.719,0.166-0.255,0.676
		c-0.636-0.02-1.146,0.816-1.602,0.043l0.186,0.752l0.464-0.449c0.536-0.523,0.345,1.146,0.958,0.393l0.605,2.77l-0.75,0.045
		l1.054,1.797l0.901-0.391l0.352,0.428l-1.048,1.068c-0.823-0.012-0.203-1.197-0.884-0.707l-0.741-1.781
		c-0.81-0.453,0.038,0.5-0.622,0.539l0.911,1.57l0.673-0.037c0.855,0.598-0.246,1.068-0.221,1.281l-0.277-0.344l0.499,1.195
		c-0.844,0.355-0.306-0.84-0.903-0.898l-0.524,0.545c0.14,0.857,0.768,0.045,0.776,0.969l-0.356-0.027l0.341,0.484l0.603-0.754
		l0.584,1.084l0.35-0.436l0.732,0.666l-0.693,0.76l-0.002-0.566l-1.401,0.158l0.788,0.959c-0.389-0.533,0.353-0.23,0.522-0.441
		c1.552,0.635-0.774,0.863-0.29,1.762c0.758-0.432,1.469,0.941,2.203,0.012l0.433,0.682l-0.988,0.23l0.076,0.354l-0.788-0.324
		l-0.727,1.479l0.78,0.232l-0.424,0.561l1.023,0.061l-0.447,1.006l-0.603-0.348l0.08,0.537l1.319,0.141l-0.026,0.717l-0.47-0.416
		l-0.438,1.025l0.483,0.041l-0.4,0.215l0.533,0.551l-0.275,0.135l0.513,0.922l0.104-0.943c0.439-0.451,0.605,0.352,0.689,0.443
		c-0.735,0.182,0.134,0.756,0.227,1.1l-0.4,0.664l0.501-0.023c-0.884,0.428,0.369,0.637,0.234,1.102l-0.755,0.355l1.552,0.07
		c0.033,0.758-0.94,0.113-1.369,0.482l0.75,0.891l0.843-0.074l-0.423,0.535l0.916-0.088l0.58,1.146l-0.729-0.352
		c0.306,0.885,1.238,0.047,1.704,0.789l1.202-0.078c0.025,0.055,0.037,0.125,0.076,0.186c-0.171-0.074-0.428-0.285-0.688,0.063
		l0.229,0.305c-0.577,0.785-1.677-0.57-2.108,0.127l0.433,0.285l-0.84,0.26l0.668,0.885l0.11-0.332l1.079,0.994l-0.843,0.328
		l0.482,0.432l-0.29,0.063c0.629,1.689,1.533,3.74,3.167,4.645l-0.11,1.986l0.575-0.066l-0.325,0.639l1.098,1.293l-0.297,0.328
		l0.623,0.391l-0.229,0.467l0.351-0.127c0.396,0.307,0.795,0.789,0.216,1.082l0.429-0.117l1.581,2.076l0.347-0.719l0.558,0.252
		l-0.564,0.373l2.438,3.342l0.523,0.008l1.757,2.434l1.163-0.299c0.773,0.055-0.365,0.725-0.232,1.355l0.836,0.527l-0.077,0.047
		l0.941,0.762l-0.083-0.021l0.462,1.025l1.155,0.348l-0.075,0.211l0.28-0.314l0.271,0.682l-0.501,0.117
		c0.28,0.752,0.384-0.15,0.778-0.063c4.087,0.178,1.487,0.033,2.651,0.229c-1.069,0.254,1.943,0.18-2.672,0.152
		c-0.651,0.141,1.777,0.205,2.748,0.229l0.168-0.594l0.951-0.178l0.378-0.754l-0.891-0.021l0.579-0.354l0.128-0.436l0.711,0.264
		l0.584-0.91c0.28,0.395,0.335,1.012,0.963,0.709l0.233-0.736l0.473,0.098c1.051-0.383,0.179-1.715,1.114-1.826l0.353,0.229
		l0.176-0.41c1.294,0.607,2.239-1.148,3.573-1.346c-0.453-0.525,0.328-0.467,0.407-0.816c0.331,0.637,0.494-0.494,1.026-0.316
		l-0.546-0.482c0.82-0.076,0.41-1.561,1.26-1.113l0.076,0.688c1.199,0.688,1.653-5.596,1.396-3.922L331.404,478.66z M291.13,424.824
		l0.811-0.49L291.13,424.824z"/>
	<polygon fill="#B9DD84" points="324.446,456.383 324.507,456.473 324.737,456.59 	"/>
	<path fill="#B9DD84" d="M319.387,490.953l-0.023,0.02C320.058,490.967,319.84,490.973,319.387,490.953z"/>
	<polygon fill="#B9DD84" points="291.468,438.852 291.418,438.674 290.989,439.086 	"/>
	<polygon fill="#B9DD84" points="320.616,489.027 320.567,489.053 320.524,489.225 	"/>
	<polygon fill="#B9DD84" points="325.205,486.498 325.136,486.439 325.055,486.596 	"/>
	<polygon fill="#B9DD84" points="325.492,486.301 325.205,486.498 325.488,486.674 	"/>
	<line fill="none" x1="291.13" y1="424.824" x2="291.941" y2="424.328"/>
	<polygon fill="#B9DD84" points="291.546,437.457 291.759,437.844 291.885,437.59 	"/>
	<line fill="none" x1="292.47" y1="440.783" x2="291.684" y2="439.785"/>
	<line fill="none" x1="292.096" y1="444.035" x2="291.714" y2="443.959"/>
	<line fill="none" x1="292.773" y1="444.09" x2="292.58" y2="444.666"/>
	<line fill="none" x1="293.758" y1="451.461" x2="293.654" y2="450.797"/>
	<polygon fill="#B9DD84" points="294.501,453.887 294.898,453.967 294.853,453.707 	"/>
	<polygon fill="#B9DD84" points="330.444,483.383 330.634,483.082 330.325,483.131 	"/>
	<line fill="none" x1="325.997" y1="457.76" x2="326.214" y2="457.391"/>
	<polygon fill="#B9DD84" points="320.812,445.482 320.303,445.707 320.863,445.582 	"/>
	<path fill="#B9DD84" d="M207.868,63.554l-0.352-0.264l-0.164,0.671l0.376,0.421l-0.432,0.09l0.619,2.215l0.33-0.432l0.463,1.419
		l-0.62,0.104l0.271,0.323l-0.768-0.025c1.008-0.033,0.689,1.252,0.896,1.438l-0.148-0.038c-0.129,0.814,0.354-0.234,0.493,0.263
		l-0.935,0.836l0.723,2.842l1.196,1.82c0.147,0.586-0.756,0.151-0.28,0.666c-0.611-0.013-1.137,0.815-1.57,0.045l0.174,0.761
		l0.473-0.456c0.525-0.532,0.322,1.125,0.941,0.396l0.611,2.754l-0.759,0.042l1.072,1.812l0.871-0.403l0.375,0.434l-1.059,1.072
		c-0.804,0.009-0.2-1.195-0.889-0.702l-0.732-1.782c-0.815-0.47,0.05,0.504-0.637,0.536l0.93,1.566l0.666-0.028
		c0.875,0.602-0.23,1.072-0.229,1.266l-0.271-0.334l0.5,1.181c-0.837,0.371-0.332-0.838-0.89-0.894l-0.528,0.535
		c0.119,0.86,0.767,0.055,0.743,0.973l-0.338-0.025l0.319,0.487l0.636-0.75l0.564,1.085l0.348-0.43l0.733,0.649l-0.693,0.762
		l-0.01-0.565l-1.374,0.158l0.767,0.963c-0.384-0.528,0.354-0.229,0.519-0.453c1.568,0.654-0.76,0.886-0.308,1.759
		c0.777-0.42,1.47,0.938,2.211,0.021l0.43,0.684l-0.955,0.229l0.081,0.344l-0.807-0.336l-0.725,1.498l0.794,0.23l-0.418,0.559
		l1.009,0.047l-0.453,1.014l-0.596-0.353l0.104,0.557l1.301,0.134l-0.026,0.712l-0.475-0.402l-0.422,1.016l0.474,0.05l-0.398,0.194
		l0.532,0.563l-0.278,0.127l0.518,0.916l0.105-0.93c0.44-0.46,0.618,0.347,0.708,0.433c-0.746,0.188,0.129,0.756,0.201,1.11
		l-0.422,0.654h0.536c-0.897,0.41,0.354,0.623,0.231,1.095l-0.772,0.354l1.571,0.063c0.026,0.761-0.979,0.121-1.376,0.491
		l0.753,0.878l0.822-0.074l-0.416,0.539l0.902-0.102l0.597,1.149l-0.742-0.352c0.331,0.889,1.256,0.058,1.734,0.796l1.195-0.085
		c0.016,0.064,0.041,0.126,0.037,0.183c-0.149-0.075-0.412-0.29-0.657,0.051l0.235,0.328c-0.572,0.777-1.677-0.574-2.099,0.118
		l0.41,0.302l-0.829,0.25l0.654,0.88l0.107-0.337l1.095,0.998l-0.862,0.332l0.502,0.422l-0.279,0.063
		c0.604,1.679,1.515,3.746,3.146,4.642l-0.095,1.977l0.584-0.054l-0.326,0.646l1.083,1.282l-0.297,0.329l0.631,0.401l-0.223,0.46
		l0.354-0.126c0.392,0.309,0.801,0.79,0.186,1.071l0.446-0.111l1.584,2.08l0.351-0.725l0.557,0.25l-0.565,0.374l2.442,3.343
		l0.503,0.017l1.787,2.416l1.145-0.29c0.776,0.053-0.358,0.728-0.242,1.359l0.841,0.532l-0.077,0.041l0.941,0.763l-0.081-0.007
		l0.469,1.025l1.146,0.339l-0.07,0.217l0.27-0.329l0.271,0.676l-0.523,0.116c0.283,0.767,0.385-0.154,0.762-0.065
		c4.122,0.186,1.529,0.049,2.684,0.229c-1.063,0.249,1.954,0.187-2.669,0.16c-0.669,0.133,1.77,0.195,2.733,0.223l0.167-0.597
		l0.969-0.178l0.379-0.748l-0.896-0.014l0.582-0.375l0.126-0.425l0.723,0.248l0.568-0.896c0.287,0.382,0.352,0.994,0.982,0.7
		l0.224-0.738l0.483,0.107c1.038-0.384,0.179-1.725,1.116-1.845l0.354,0.24l0.156-0.427c1.315,0.605,2.239-1.146,3.573-1.334
		c-0.453-0.533,0.367-0.469,0.413-0.819c0.336,0.626,0.49-0.485,1.023-0.322l-0.562-0.48c0.854-0.077,0.412-1.559,1.257-1.114
		l0.102,0.699c1.215,0.687,1.583-5.615,1.354-3.935l-1.072-0.072l0.452-1.317l-0.333-0.713l0.355,0.203l-0.81-1.37l-0.043-2.064
		c-0.736-0.153-0.05-1.104-0.876-0.899l0.214-0.169l-1.039-0.484l0.57-0.074c0.694-0.137-0.12-0.896,0.185-1.094l-0.513-0.238
		l-0.281-0.292l-0.553-0.662l0.54-0.17l-0.373-0.991c0.025-0.04,0.036-0.097-0.055-0.245l0.06-0.636l0.444-0.026l-0.922-0.706
		c0.077-1.167-0.89-2.876-1.265-3.276l0.228,0.161l-0.379-0.675l0.083-0.896l-0.339,0.18l-0.868-2.967l0.54,0.281l-1.604-1.975
		l0.545,0.083l-0.861-1.152l-0.637-0.331l0.084-0.031l-0.563-1.011l0.403,0.029c0.646-0.328,0.073-1.333,0.125-1.467l-0.534-0.147
		l0.217-0.598l-1.486-0.715l-0.052-0.126l0.748-0.188l-1.042-0.83l-0.705-2.315l0.899-0.025l-0.551-2.291
		c-0.565,0.638-0.682-0.396-1.184-0.483l-0.106-0.345c0.013-0.343,0.408-0.381,0.45-0.666l-0.862-2.36l0.142-0.013l-1.33-2.226
		l-0.024-0.121l0.377,0.024c0.022-0.528-0.278-0.453-0.531-0.501l-0.093-0.325l0.264,0.072l-0.72-1.604l0.405,0.104l-0.674-0.977
		l-0.146-0.535l0.407,0.03l-0.701-0.966l-0.012-0.045l0.229-0.407l-0.649-0.942l-0.113-0.367l0.313-0.633l-2.707-7.347l-0.294-0.964
		c0.484-0.456,0.597,0.506,0.961,0.085c-0.592,0.195-0.314-0.41-0.754-1.209l0.067-0.052l-0.213-0.983l-0.144,0.068
		c-0.52-0.305,0.473-1.148-0.347-1.143l0.337-0.44l-0.715-1.042l0.139,0.011c0.095-0.755-1.162-1.177-0.687-1.6l-0.743-0.727
		l-0.142-0.465l0.433-0.105c-0.54-1.419-1.298-3.285-1.838-4.583l-0.5-1.663l-10.844,2.775c-0.622,0.075-1.069,0.279-1.633,0.419
		l-3.501,0.891l-0.229-0.137c-0.2,0.045-0.321,0.244-0.494,0.323l-1.038,0.285l-0.432,1.646c-0.105,0.313-0.198,0.591-0.241,0.942
		l-1.066,4.049l0.383,1.248C207.496,62.099,207.692,62.856,207.868,63.554z M208.676,62.346l-0.816,0.494L208.676,62.346z"/>
	<path fill="#B9DD84" d="M236.1,128.967l-0.005,0.015C236.788,128.979,236.573,128.979,236.1,128.967z"/>
	<polygon fill="#B9DD84" points="241.941,124.5 241.865,124.454 241.789,124.618 	"/>
	<polygon fill="#B9DD84" points="242.201,124.304 241.941,124.5 242.198,124.682 	"/>
	<polygon fill="#B9DD84" points="237.309,127.047 237.297,127.052 237.26,127.235 	"/>
	<polygon fill="#B9DD84" points="241.149,94.382 241.208,94.459 241.44,94.58 	"/>
	<line fill="none" x1="210.47" y1="89.474" x2="210.352" y2="88.82"/>
	<polygon fill="#B9DD84" points="211.239,91.919 211.63,91.981 211.544,91.735 	"/>
	<polygon fill="#B9DD84" points="247.156,121.384 247.361,121.083 247.038,121.128 	"/>
	<line fill="none" x1="242.699" y1="95.756" x2="242.903" y2="95.391"/>
	<path fill="#B9DD84" d="M369.76,210.021c0.16,0.107,0.326,0.2,0.483,0.313C370.904,209.792,370.46,209.842,369.76,210.021z"/>
	<path fill="#B9DD84" d="M222.763,145.101c-1.252-0.778-0.178-3.634-2.174-3.131c-0.619,3.102,3.609,5.734,6.884,5.694
		c0.264,0.219,0.302,0.383,0.451,0.584c-0.661-1.146-0.992-2.274-0.679-3.446C225.748,144.698,223.545,142.432,222.763,145.101z"/>
	<path fill="#B9DD84" d="M228.346,148.918c-0.149-0.228-0.298-0.45-0.429-0.68"/>
	<path fill="#B9DD84" d="M350.657,315.106c0.092-0.45,0.199-0.86,0.151-1.399"/>
	<path fill="#B9DD84" d="M139.459,292.551c0.395-0.276,1.016-0.199,1.544-0.284C140.604,291.554,140.12,291.42,139.459,292.551z"/>
	<path fill="#B9DD84" d="M166.82,184.705c-0.291,0.197-0.562,0.633-0.802,1.584"/>
	<path fill="#B9DD84" d="M228.704,142.571c-0.868,0.78-1.251,1.505-1.463,2.224C227.974,144.839,228.564,144.419,228.704,142.571z"
		/>
	<path fill="#B9DD84" d="M295.069,158.365c-0.232,0.314-0.496,0.353-0.745,0.588"/>
	<path fill="#B9DD84" d="M227.417,342.309c-0.165,0.084-0.284,0.332-0.443,0.473c0.448,0.209,0.818,0.385,1.326,0.623
		L227.417,342.309z"/>
	<path fill="#8BBA1A" d="M342.157,367.578c8.932,5.369,13.996-6.738,22.642-8.225c-3.714-3.588,1.619-3.486,1.554-5.986
		c3.254,4.305,2.562-3.654,6.386-2.727l-4.544-2.986c5.671-1.094-0.715-10.988,5.961-8.764c2.983-0.926,2.32,3.182,2.2,4.635
		c7.1,1.004,2.84-10.461,9.542-9.287c-1.557-1.484-4.999-2.621-4.788-6.301c3.464-0.637,8.555-3.818,9.057-3.041
		c0.123-2.553-1.146-3.809,1.652-5.154c1.146,0.795,0.832,1.852,1.014,2.846c2.927-3.039,2.673-6.768,1.754-10.803
		c4.391-0.685,4.801-8.115,7.913-12.221c-4.568-3.451,2.896-7.449-3.482-8.514l1.977-0.569c-1.681-1.907-5.673-3.448-5.794-5.448
		l4.15,0.766c5.627,0.639,0.903-6.121,3.453-6.809c-3.455,2.063-0.148-2.486-3.402-2.416l-1.569-2.369
		c-1.461-3.753-2.111-0.209-3.165-4.84c-0.768-2.526,4.748-1.833,4.297-0.738c1.719-2.729-0.181-4.758-1.779-6.844
		c-0.024-0.113-0.021-0.206-0.077-0.341c0.196-0.702-0.016-1.6-0.241-2.543c0.142-0.151,0.077-0.347-0.131-0.584
		c-0.176-0.816-0.22-1.616,0.25-2.282l3.368-0.329c-0.367-1.807-5.316-5.165-6.58-4.452c0.038-6.765-6.845-15.59-10.132-17.876
		c1.095,0.438,2.12,0.05,0.67-0.222c-1.737-1.813-5.454-2.568-3.749-3.771c-2.309-1.027,0.892-2.824-0.679-5.732
		c0.571-0.44-3.025,1.44-2.159,1.944c1.261-7.785-10.147-8.039-11.667-15.207c-0.329,0.945,2.361-0.037,3.724-0.386
		c-4.38-2.887-8.781-5.423-15.001-5.215l3.697-1.778c-2.674-2.264-6.34-4.276-9.44-2.888c0.775,2.697,1.247-1.317,2.338-0.157
		c-0.063,3.821-5.224,3.385-6.334,1.388l0.377-0.607c-2.511-2.143-3.669-0.751-6.608-2.188c-0.688-2.521,2.014,0.039,2.479-2.057
		c2.24-4.803-5.24-6.643-5.521-7.491c-1.283,0.625-2.739,0.843-3.233,2.198c-2.965,0.018,0.258-3.358-1.514-4.021
		c-3.851,2.057-7.144,3.54-10.641,6.432c1.959-0.538-0.616-4.94,2.549-6.415c-5.763-0.505-10.254,4.917-13.623,7.629
		c-1.297-1.146-6.1,0.05-7.578-0.034c-0.588-2.91,1.291,0.441,1.786-1.691l-2.236-3.737c3.365,0.192-0.229-5.069,1.77-6.746
		c-2.983,0.642-9.797,0.781-14.417,0.272c3.688,5.557-5.432,3.796-4.168,9.042c-4.439,1.714-3.331-3.872-5.498-4.714l-13.322,6.424
		l-0.256-1.104c-3.126,3.468-10.148,5.343-11.375,11.48l-0.74-2.981c-5.067,0.493,2.899,6.301-3.367,5.929l-0.423-2.796
		c-1.45,3.118-7.446,2.065-6.49,7.688c-1.21-0.831-1.063-1.767-1.308-2.673c-1.231,3.392-3.97,6.154-2.771,10.539
		c-1.672-0.678-2.619-1.908-2.779-3.721c-3.705,1.501,1.582,5.646-1.503,7.13c-0.642,0.625-3.403,0.751-3.188,0.205
		c1.167,2.631-1.3,6.493-1.357,8.394c-1.742-0.545-2.861,0.188-5.481,0.907c-7.871,14.173-16.049,33.576-6.807,49.157
		c-4.405,4.072-4.517-3.229-7.639-0.777c4.542-0.956,2.21,2.834,5.379,7.711l-0.549,0.463c1.624,1.838-0.626,4.428,1.506,6.245
		l1.019-0.688c2.999,0.977-0.998,7.809,4.514,5.477l-1.043,3.536c5.882-1.708,2.03,4.19,7.539,3.259l-0.914,0.453
		c2.035,4.963,10.039,1.396,8.926,5.98c3.587,0.812,7.959,1.047,10.304-2.381c-0.003,1.652-1.524,3.752-2.621,4.812
		c12.621,1.338,27.734,11.976,37.141,0.481l0.21,2.553c4.999-6.166,15.801-0.484,15.932-10.891l-0.86-4.25
		c1.835,0.395,3.369,2.674,5.085,2.993c-0.694-2.803,4.363-4.071,2.033-6.995l2.242,2.334c2.17-2.203-1.231-7.521,1.042-8.527
		l1.187,1.236c12.571-9.6,4.014-38.219-9.815-42.354c-3.386-1.498,2.854-4.373,1.378-5.277
		c-11.086-10.527-32.958-5.763-28.508,12.867c-1.729,9.876,8.636,16.335,8.659,16.308c0.176-2.662,0.823-4.828,1.675-6.71
		c0.142,0.791,0.232,1.41,0.394,2.335c4,4.434,8.132,13.51,7.125,14.395c1.698,1.33,0.307-1.344-9.108,2.365
		c0.119,0.222-2.5,0.551-5.148,0.851c-4.587-2.037-9.225-3.536-14.477-4.199c0.469,1.738-1.716,3.483-3.208,3.765l0.309-1.289
		l-3.161,2.149c-1.897-0.272,0.724-3.448,2.333-3.485c-5.819-3.824-11.627-5.383-11.196-9.44c-4.182,1.313-0.657-1.567-5.438-0.636
		l2.037-0.317c-4.605-1.839-2.827-4.403,3.159-7.313c10.172-19.872,15.125-40.561,38.679-46.479
		c18.268-7.889,38.114-5.924,57.604,15.38c8.523-1.489,9.078,5.492,17.161,6.467l-2.031,0.879c4.559,1.386,2.661,6.391,2.166,11.629
		c2.315-1.042,1.552,1.577,5.012-0.884c4.105,0.375-3.865,5.516-1.044,7.137c-1.301,0.584,2.336-0.938,1.244,0.052
		c6.579,4.717-2.501-0.138-4.272,8.472c4.122,9.28,8.046,20.891,1.502,29.689c0.117-0.637,3.412,0.342,2.938,1.349
		c-6.742-1.845-0.013,4.013-3.332,4.638l-1.485-2.506c-4.164,2.826-3.58,8.41-8.71,10.457c-0.852,5.275-8.733,5.293-8.781,9.818
		c-1.297-2.541-2.941-0.07-4.549-0.396c2.417,8.545-8.948,3.768-9.604,10.516l-0.667-1.254
		c-11.965,8.824-23.791,12.668-36.594,19.408c-7.659,2.435-16.667-3.111-23.998-0.229c-1.463,1.042-0.398,2.852-1.646,3.563
		c-2.026-0.209,0.179-2.52-0.546-3.482c-4.288,3.707-8.574-2.129-13.072-2.467c-0.875,1.265-2.226,1.105-2.334,3.109
		c-3.197-6.859-12.733-2.564-15.771-9.242c-1.797,7.008-4.986,1.84-7.466,1.729c-0.797-0.99,0.272-2.512,1.35-3.398
		c-3.995-1.813-6.263-2.912-8.709-8.117c-2.277-1.06-5.557,1.359-6.91-1.633c2.262-4.771-4.116-4.861-4.779-8.293
		c-2.73,3.328-7.799,2.202-8.27-1.429l5.316-2.78c-9.104-5.555-10.602-21.129-21.489-28.41l2.89-2.035
		c-2.379-0.043-0.79-21.093-4.934-30.489c2.279-2.978,4.112-7.738,4.504-10.818c-2.56-4.91-1.271-6.032-5.115-10.12
		c0.178-1.663,3.129-1.838,4.462-2.06c2.684-4.85,7.858-8.014,5.128-13.646l2.76,1.087c-0.79-4.605-1.381-12.337,4.056-14.375
		c-1.396-2.417,0.816-6.87-3.298-7.162c0.732-1.957,4.74,2.032,3.485-1.449l2.238,4.046c6.939-7.777,12.001-15.104,19.565-22.925
		c5.3,2.715,8.066-6.175,15.112-5.813c2.12-4.06,9.068-2.891,9.696-9.402l1.116,2.722c4.683-1.147,10.892-3.172,17.461-2.806
		c3.743,0.077,2.919-4.301,5.632-6.276l0.65,2.875c2.928-2.188,3.194-6.823,4.082-9.932c2.838,1.667,2.9-0.452,5.697,1.195
		c-2.339,1.925-4.081,5.369-5.13,9.525c3.967,0.793,7.256-7.28,10.146-2.761c3.494,0.905,6.06-0.469,6.159-4.405
		c-0.673,1.309,2.29,2.162,0.484,4.03c2.376-0.28,3.896-0.704,5.346-2.165c-0.453-0.107-1.038-0.456-1.515-0.354
		c1.193-2.979,3.757-2.816,3.221-7.277c-1.339,1.146-1.397,1.857-3.096,1.509c0.629-3.11,5.188-3.983,6.247-1.204
		c1.211,3.18-3.027,5.164-1.042,7.062l7.578-7.658c-1.654,2.531-4.182,0.389-3.378-2.69l-2.973,1.867l0.229-3.214
		c-4.937,1.18-8.435-2.24-13.421,0.716l2.036,3.181c-2.969,0.322-5.538,4.911-8.484,1.247c1.207-1.262,0.128-2.853-0.048-4.654
		c-0.643,0.636-1.299,1.923-2.156,1.541l0.894-5.665c-0.688,7.423-7.841,3.673-9.092,5.014l0.297-1.071
		c-4.783-1.768,1.197,2.968-1.756,3.44c-2.673-0.565-1.852-5.835-4.61-7.797c-4.684,1.233-11.476,6.649-17.598,4.036
		c-3.788,2.2-7.623,5.503-10.243,8.981c-3.466,1.162-1.875-5.602-4.448-1.75c-0.298-2.01-1.582-3.69-2.621-5.298
		c0.446,2.24-6.817,2.717-1.98,5.993c-5.457,1.271-11.576,3.313-15.895,7.671c1.462-1.337,0.166-4.7-2.206-5.28
		c-0.671,4.526-3.589,8.658-8.299,10.66c2.214,2.793,3.538,1.95,5.21,5.066c-0.284,0.802-0.132,2.86-1.178,3.397
		c-2.83-2.515-6.21-7.191-9.746-4.269c-2.866-5.357,6.361-4.588,1.172-7.787c-1.43-5.269,6.144-10.088,9.277-8.738
		c0.956-6.576-3.18,1.299-5.177-3.268c-3.077,2.671-3.477,5.237-7.607,9.914c1.523,2.01,3.25,0.991,2.485,4.382
		c-0.528,7.426-7.308,1.508-8.559,2.3l1.109-2.788c-3.895,1.115-2.521,4.499-5.479,6.825c-5.581-4.065,3.991-4.656,2.265-8.631
		l-5.434-1.618c-5.107,3.771,2.549,5.057-3.284,8.147l-1.231-2.223l-1.461,4.083c1.887,1.76,5.117,3.54,6.917,0.805
		c3.274,5.983-1.221,2.888-3.496,7.718c1.834,3.643,1.071-1.92,3.901,0.407c2.829,1.817,0.859,4.487-0.132,6.75
		c-2.413,3.076-4.421-0.843-7.409-1.021c0.007-0.969,1.595-3.822,3.055-2.229c0.217-6.466-7.454-2.944-7.235-7.479
		c-4.355,2.008-0.771,4.54-1.098,6.997c1.141-0.737,2.653,2.631,4.271,2.679c4.255,11.129-9.035-0.911-10.809,6.128
		c6.034,2.215,3.773,12.054,12.034,11.434c0.32,1.844,0.827,4.082-0.441,5.063c-3.171-3.426-4.273,0.866-6.66-3.572l-1.095,1.99
		l-3.031-5.452c-3.866,0.908-8.601,3.72-11.171,4.239c0.15,3.958,4.338,0.688,3.496,4.758c-1.523-2.166-4.325-0.622-4.726,1.141
		c2.686-2.757,5.756,2.258,6.129,4.654c-0.946,3.222-5.671,4.532-6.487,3.741l-2.499-4.462c2.214,3.557-1.944,0.551-1.455,3.571
		c2.056,1.492,5.123,4.185,7.842,5.879c0.389,2.343-3.11,2.938-2.804,3.827l-1.521-4.054c-0.394,4.684-6.726-0.892-6.491,4.25
		l2.925,2.037c-0.788,0.764-2.413,0.879-3.386-0.316c2.196,1.299,0.725,3.828,1.568,5.121l-2.23-0.148
		c1.139,2.252,5.694,5.524,1.036,7.062c5.577-0.858,0.381-2.321,3.249-5.106c4.197-1.179,3.197,3.894,3.698,4.71
		c-5.673-1.243-1.22,4.73-1.572,6.902l-4.666,2.706l3.69,1.362c-7.5-0.009,1.083,4.693-1.526,6.976
		c-2.114-1.503-5.087-1.598-6.402,0.172c5.878-1.988,6.319,4.52,10.257,3.974c-1.938,4.314-7.027-1.443-10.897-0.38
		c4.264,2.484-2.772,5.001,2.747,6.718c1.697-3.213,3.521,0.649,5.959,1.356c-0.417,4.041-2.443-0.738-4.415,2.104
		c0.779,1.748,5.064,3.97,6.625,1.386c-1.167,2.365,4.146,4.926,0.757,7.563c-3.447,1.146-1.621-4.892-4.084-3.354
		c-0.311,5.643,8.574,2.709,9.765,7.695c1.857-2.214,7.985-0.35,10.068,1.83c-1.467,5.422-2.085-2.227-6.489,0.021l0.694,2.151
		c-6.036,3.491-10.022-6.11-14.914-2.921l2.063,2.395c-1.298-0.342-3.278-0.584-4.919-0.279c1.359,2.488,1.361,13.566,2.636,13.164
		c3.587-0.534-1.92-2.217,0.882-2.672c2.227,3.113,7.97,1.646,7.676,6.459c-3.228-1.123-4.083,2.781-6.313,2.728
		c-0.487,2.563,4.109-1.14,3.567,2.452l-2.076,0.591c4.033,10.459,11.979,22.599,24.504,25.029
		c-1.858,3.471,0.009,6.47,1.493,12.464c-0.568-2.705,2.74-2.389,4.033-1.691l-1.355,4.684c0.469,4.07,6.232,4.723,9.969,5.168
		l-1.487,2.725c0.293,3.98,3.881,0.432,5.318,0.502l-0.568,3.453l2.217-1.82c3.269,0.736,5.595,3.791,2.417,7.178
		c1.51,0.027,2.99,0.006,2.628-1.92c0.71,3.801,7.414,8.99,12.904,10.414c-1.653-2.215-0.633-3.4,0.743-5.963
		c3.229-3.742,0.49,1.438,3.831-0.033c-0.914,1.578,0.246,4.352-2.717,4.289c3.118,9.236,14.848,9.354,23.161,13.113
		c2.003-0.104,1.695-1.074,2.899-2.041c4.241,6.516,12.555,2.365,18.231,5.688c-1.104-2.336,1.476-7.535,4.63-7.699
		c3.751-3.959,0.967,5.723,4.229,8.244c1.78-1.859,4.874-2.309,6.2-2.025l-0.127,0.693c2.048-2.201,5.11-3.17,7.546-1.752
		l-0.354,0.324c1.908,0.117,4.437,2.396,6.438,1.771c0.432-3.912,5.658-2.242,6.258-5.781l0.666,1.451l-0.413-3.201l4.25,1.268
		l-1.487,3.799c4.711,1.52,0.896-3.033,2.638-5.285c2.205-3.08,2.773,0.09,4.463,1.039c-0.789,1.91-2.248-0.156-2.785,0.615
		c-1.036,2.98,1.909,0.539,2.412,2.322c0.637-0.074-0.037-3.967,2.167-3.824c1.881-0.146,5.725-2.334,6.237,1.195
		c0.988-2.238,2.885-2.408,3.531-4.25c-1.649-0.182-4.525-0.283-5.479-2.355c1.167-0.793,3.367-2.439,4.25-1.084l-0.749,1.135
		c0.749-1.135,4.805-1.203,1.832-3.721l4.147,3.486c0.641-3.059,2.978-3.959,4.873-5.48c1.617,3.23,1.553,7.711,5.886,6.572
		l1.766-4.9c1.555-1.211,2.365-0.734,3.086,1.314c6.97-1.4,1.171-11.928,7.105-11.75c0.335,4.791,2.069,4.201,4.71,3.99
		c-0.28-0.66-0.85-1.959-0.099-2.588c-1.603-1.328,0.37,3.236-2.67,1.703C338.952,369.461,341.676,368.85,342.157,367.578z"/>
</g>
</svg>
