<?xml version="1.0" encoding="utf-8"?>
<!-- Generator: Adobe Illustrator 16.0.0, SVG Export Plug-In . SVG Version: 6.00 Build 0)  -->
<!DOCTYPE svg PUBLIC "-//W3C//DTD SVG 1.1//EN" "http://www.w3.org/Graphics/SVG/1.1/DTD/svg11.dtd">
<svg version="1.1" id="Layer_1" xmlns="http://www.w3.org/2000/svg" xmlns:xlink="http://www.w3.org/1999/xlink" x="0px" y="0px"
	 width="540px" height="540px" viewBox="0 0 540 540" enable-background="new 0 0 540 540" xml:space="preserve">
<g>
	<path fill="#D773B2" d="M353.332,120.563c0.064,0.116-0.08,0.108-0.104,0.176l0.606-0.076L353.332,120.563z"/>
	<line fill="none" x1="362.286" y1="96.116" x2="362.676" y2="96.838"/>
	<path fill="#D773B2" d="M333.828,136.72l3.286,1.391l0.079,0.256c0.199,0.095,0.407,0.016,0.632,0.036l0.991,0.424l1.335-1.047
		c0.271-0.185,0.52-0.373,0.76-0.6l3.31-2.598l0.424-1.195c0.256-0.66,0.584-1.364,0.848-2.031l0.12,0.416l0.56-0.432l-0.032-0.551
		l0.393,0.176l0.839-2.142l-0.527,0.147l0.488-1.407l0.56,0.284l-0.023-0.428l0.591,0.488c-0.815-0.571,0.225-1.399,0.177-1.671
		l0.08,0.128c0.592-0.58-0.416-0.04-0.24-0.516l1.247-0.1l1.151-2.698l0.16-2.178l0.623-0.355c0.488,0.38,1.407,0.02,1.286,0.903
		c-0.376-0.484,0.129-0.487,0.289-0.691l-0.616,0.056c-0.735,0.104,0.416-1.095-0.527-0.879l1.184-2.578l0.646,0.439l0.232-2.09
		l-0.951-0.208l-0.041-0.567l1.496-0.212c0.639,0.484-0.569,1.071,0.278,1.095l-0.504,1.859c0.376,0.863,0.272-0.432,0.832-0.04
		l0.224-1.811l-0.552-0.372c-0.326-1.015,0.841-0.728,0.951-0.879l0.024,0.427l0.304-1.235c0.887,0.204-0.241,0.851,0.168,1.271
		l0.769-0.128l-0.032-1.219l0.256,0.219l0.032-0.592l-0.944,0.24c-0.679-0.62,0.072-0.452,0.186-1.211l-0.535,0.137l-0.193-0.967
		l1.024-0.184l-0.328,0.448c0.175,0.899,1.063,0.1,1.198,0.715l-0.049-1.223l-0.687,0.028c-0.823-1.439,1.15-0.216,1.317-1.2
		c-0.854-0.144-0.606-1.642-1.75-1.362l0.057-0.799l0.928,0.412l0.145-0.328l0.438,0.748l1.455-0.748l-0.479-0.659l0.671-0.184
		c-0.416,0.392-0.76-0.292-0.775-0.659l0.968-0.54l0.271,0.644l0.247-0.5l-0.942-0.891l0.439-0.555l0.136,0.612l0.952-0.552
		l-0.354-0.332l0.433,0.088l-0.072-0.768l0.297,0.064c-0.08-0.344-0.561-0.931,0.128-1.047l-0.633,0.679l-0.312-0.767
		c0.711,0.308,0.367-0.679,0.52-1.003l0.721-0.28l-0.416-0.316c0.967,0.228,0.097-0.715,0.473-1.019l0.83,0.184l-1.19-0.983
		c0.432-0.636,0.839,0.483,1.383,0.439l-0.063-1.159l-0.703-0.456l0.654-0.16l-0.79-0.487l0.231-1.255l-0.521-0.96l-0.998-0.655
		c0.008-0.068,0.039-0.124,0.048-0.188c0.079,0.168,0.183,0.483,0.583,0.376l0.017-0.384c0.911-0.292,0.983,1.463,1.749,1.163
		l-0.15-0.479l0.823,0.295l-0.018-1.107l-0.279,0.212l-0.255-1.447l0.871,0.252l-0.129-0.64l0.249,0.12
		c0.544-1.715,1.063-3.901,0.312-5.592l1.271-1.519l-0.48-0.304l0.642-0.316l-0.08-1.707l0.438-0.064l-0.271-0.695l0.462-0.232
		l-0.366-0.112c-0.104-0.484-0.128-1.111,0.512-0.967l-0.417-0.18l-0.007-2.606l-0.696,0.352l-0.295-0.528l0.68,0.044
		c0.792-1.111,0.009-2.733,0.089-4.156l-0.417-0.308l0.056-2.998l-1.11-0.472c-0.583-0.5,0.735-0.352,1.04-0.927l-0.36-0.923
		l0.096-0.007l-0.303-1.171l0.063,0.063l0.272-1.091l-0.752-0.983l0.176-0.124l-0.416,0.088l0.192-0.719l0.479,0.232
		c0.239-0.783-0.398-0.128-0.64-0.42c-3.109-2.689-1.159-0.963-1.976-1.822c0.983,0.459-1.391-1.355,2.216,1.535
		c2.204,1.491-2.366-2.142-2.008-1.878l-0.504,0.368l-0.887-0.432l-0.735,0.364l0.688,0.551l-0.672-0.06l-0.353,0.272l-0.424-0.624
		l-1.031,0.36l-0.344-1.147l-0.616,0.451l-0.335-0.372l-1.998,0.788l-0.128-0.396l-0.358,0.235
		c-0.688-1.282-2.486-0.451-3.662-1.091l-0.823,0.399c0.104-0.707-0.687,0.092-0.991-0.359l0.12,0.711
		c-0.72-0.452-1.271,0.999-1.687,0.124l0.376-0.607c-0.544-1.275-4.678,3.489-3.471,2.31l0.809,0.703l-1.145,0.771l-0.176,0.783
		l-0.168-0.412L344,67.464l-1.23,1.659c0.479,0.592-0.622,0.911,0.168,1.271h-0.28l0.529,1.015l-0.48-0.295l-0.807,0.739l0.248,0.5
		l0.073,0.416l0.057,0.867l-0.552-0.204l-0.305,1c-0.047,0.024-0.096,0.072-0.119,0.244l-0.417,0.476l-0.384-0.252l0.32,1.115
		c-0.791,0.903-1.038,2.846-0.998,3.377l-0.081-0.252l-0.111,0.775l-0.593,0.652l0.377,0.072c-0.951,0.591-0.296,2.046-1.104,2.881
		l-0.248-0.555l0.071,2.545L337.76,85.1l-0.023,1.275c0.376-0.012,0.495,0.547,0.312,0.828l-0.096-0.024l-0.16,1.147l-0.32-0.284
		l-0.976,1.111l0.328,0.436l-0.526,0.331l0.769,1.487l-0.041,0.108l-0.72-0.303l0.328,1.319l-0.832,2.254l-0.734-0.52l-0.951,2.146
		c0.839-0.159,0.296,0.76,0.663,1.116l-0.088,0.208l-0.808,0.376l-0.744,2.402l-0.128-0.076l-0.271,2.562l-0.048,0.119l-0.296-0.251
		l0.063,0.847l-0.08,0.188l-0.16-0.195l-0.384,1.687v0.016l-0.271-0.324l-0.072,1.194l-0.176,0.5l-0.328-0.28l-0.023,1.196
		l-0.023,0.044l-0.433,0.184l-0.04,1.115l-0.15,0.396l-0.607,0.307l-2.263,7.378l-0.384,1.043c-0.647,0.056-0.192-0.751-0.711-0.64
		l-0.13,1.423l-0.103-0.004l-0.416,0.915l0.16,0.032c0.239,0.543-1.071,0.619-0.416,1.115l-0.528,0.151l-0.087,1.248l-0.097-0.1
		c-0.521,0.555,0.208,1.638-0.393,1.703l0.145,1.023l-0.16,0.463l-0.398-0.176c-0.465,1.507-0.99,3.542-1.366,4.885l-0.567,1.515
		l10.264,4.333C332.765,136.359,333.285,136.492,333.828,136.72z M345.068,131.918l-0.959-0.112L345.068,131.918z"/>
	<line fill="none" x1="344.109" y1="131.811" x2="345.068" y2="131.918"/>
	<polygon fill="#D773B2" points="352.453,121.184 352.213,121.308 352.397,121.627 	"/>
	<line fill="none" x1="353.676" y1="118.405" x2="353.716" y2="119.688"/>
	<line fill="none" x1="356.196" y1="116.348" x2="355.955" y2="116.056"/>
	<line fill="none" x1="355.93" y1="115.256" x2="355.436" y2="115.593"/>
	<line fill="none" x1="359.112" y1="109.142" x2="358.825" y2="109.732"/>
	<polygon fill="#D773B2" points="359.985,106.738 359.729,106.447 359.616,106.7 	"/>
	<polygon fill="#D773B2" points="334.011,97.418 333.981,97.511 334.554,97.646 	"/>
	<polygon fill="#D773B2" points="209.338,434.604 209.338,434.619 209.722,435.332 	"/>
	<polygon fill="#D773B2" points="207.551,401.479 207.583,401.479 207.732,401.367 	"/>
	<polygon fill="#D773B2" points="202.353,400.703 202.375,400.806 202.548,400.711 	"/>
	<polygon fill="#D773B2" points="202.021,400.688 202.353,400.703 202.24,400.399 	"/>
	<path fill="#D773B2" d="M200.394,459.064c0.044,0.111-0.085,0.104-0.124,0.178l0.624-0.082L200.394,459.064z"/>
	<path fill="#D773B2" d="M213.331,419.488l-0.004-2.605l-0.719,0.359l-0.292-0.545l0.671,0.049c0.804-1.103,0-2.718,0.088-4.148
		l-0.396-0.303l0.029-2.998l-1.088-0.488c-0.58-0.479,0.74-0.328,1.019-0.919l-0.352-0.919h0.088l-0.28-1.184l0.028,0.047
		l0.265-1.069l-0.72-0.984l0.192-0.127l-0.408,0.079l0.181-0.693l0.483,0.207c0.255-0.769-0.384-0.113-0.641-0.406
		c-3.125-2.662-1.17-0.952-1.974-1.809c1.003,0.44-1.411-1.351,2.222,1.512c2.223,1.486-2.369-2.11-2.033-1.862l-0.484,0.384
		l-0.887-0.432l-0.755,0.359l0.704,0.553l-0.688-0.064l-0.359,0.271l-0.396-0.64l-1.027,0.367l-0.34-1.16l-0.624,0.457l-0.328-0.368
		l-1.985,0.792l-0.145-0.394l-0.388,0.232c-0.688-1.279-2.47-0.449-3.673-1.111l-0.808,0.416c0.128-0.711-0.69,0.088-1.003-0.367
		l0.142,0.719c-0.704-0.463-1.251,0.992-1.672,0.129l0.372-0.617c-0.56-1.27-4.66,3.525-3.461,2.319l0.804,0.703l-1.144,0.774
		l-0.156,0.776l-0.163-0.384l-0.188,1.59l-1.239,1.671c0.496,0.568-0.614,0.896,0.185,1.247l-0.279,0.016l0.523,1l-0.488-0.287
		l-0.815,0.734l0.269,0.512l0.036,0.416l0.063,0.862l-0.544-0.216l-0.308,1.016c-0.032,0.023-0.097,0.063-0.12,0.231l-0.396,0.479
		l-0.383-0.24l0.303,1.104c-0.778,0.889-1.047,2.848-0.99,3.374l-0.075-0.256l-0.108,0.782l-0.612,0.656l0.389,0.063
		c-0.972,0.591-0.296,2.038-1.13,2.878l-0.24-0.552l0.083,2.551l-0.383-0.401l-0.028,1.256c0.396-0.017,0.515,0.553,0.332,0.84
		l-0.093-0.032l-0.18,1.159l-0.304-0.312l-0.979,1.119l0.314,0.438l-0.526,0.328l0.751,1.485l-0.032,0.113l-0.719-0.313l0.339,1.326
		l-0.848,2.247l-0.73-0.521l-0.943,2.15c0.827-0.168,0.283,0.743,0.644,1.104l-0.076,0.207l-0.82,0.375l-0.727,2.408l-0.128-0.072
		l-0.292,2.559l-0.049,0.12l-0.286-0.265l0.074,0.854l-0.074,0.191l-0.182-0.216l-0.383,1.711l0,0l-0.268-0.319l-0.049,1.198
		l-0.198,0.494l-0.32-0.278l-0.027,1.208l-0.021,0.023l-0.437,0.199l-0.044,1.104l-0.144,0.392l-0.604,0.312l-2.267,7.389
		l-0.387,1.039c-0.647,0.063-0.168-0.752-0.716-0.633l-0.123,1.414l-0.098,0.009l-0.419,0.911l0.159,0.025
		c0.229,0.543-1.083,0.631-0.427,1.109l-0.543,0.167l-0.084,1.231l-0.088-0.097c-0.536,0.562,0.22,1.64-0.396,1.703l0.16,1.022
		l-0.18,0.455l-0.396-0.184c-0.436,1.479-0.959,3.444-1.318,4.805l-0.604,1.605l10.269,4.333c0.56,0.312,1.052,0.433,1.614,0.672
		l3.282,1.384l0.083,0.246c0.196,0.112,0.412,0.018,0.636,0.064l0.991,0.408l1.351-1.057c0.252-0.175,0.488-0.359,0.729-0.574
		l3.306-2.606l0.444-1.214c0.239-0.656,0.563-1.352,0.839-2.016l0.112,0.414l0.571-0.432l-0.056-0.559l0.4,0.184l0.839-2.135
		l-0.521,0.16l0.5-1.398l0.536,0.279l0.004-0.432l0.579,0.504c-0.803-0.584,0.232-1.416,0.181-1.67l0.092,0.111
		c0.588-0.584-0.439-0.033-0.244-0.521l1.247-0.088l1.146-2.699l0.147-2.176l0.636-0.358c0.483,0.384,1.386,0.022,1.291,0.911
		c-0.376-0.487,0.116-0.487,0.279-0.688l-0.607,0.063c-0.738,0.097,0.42-1.104-0.526-0.879l1.184-2.582l0.624,0.438l0.268-2.085
		l-0.951-0.216l-0.04-0.568l1.499-0.208c0.639,0.487-0.572,1.064,0.283,1.097l-0.503,1.854c0.372,0.872,0.271-0.432,0.824-0.048
		l0.228-1.808l-0.561-0.367c-0.332-1.016,0.839-0.729,0.952-0.881l0.016,0.424l0.305-1.238c0.872,0.217-0.232,0.872,0.188,1.266
		l0.74-0.121l-0.032-1.223l0.263,0.225l0.028-0.594l-0.942,0.232c-0.668-0.615,0.064-0.448,0.188-1.199l-0.543,0.137l-0.175-0.982
		l1.019-0.186l-0.335,0.447c0.168,0.911,1.067,0.104,1.188,0.721l-0.028-1.23l-0.7,0.031c-0.839-1.455,1.167-0.231,1.327-1.199
		c-0.859-0.135-0.607-1.653-1.754-1.358l0.064-0.808l0.927,0.416l0.147-0.327l0.424,0.751l1.487-0.751l-0.483-0.663l0.668-0.178
		c-0.408,0.385-0.752-0.303-0.776-0.67l0.967-0.545l0.276,0.654l0.244-0.502l-0.939-0.889l0.444-0.561l0.136,0.607l0.943-0.535
		l-0.353-0.336l0.439,0.089l-0.076-0.776l0.296,0.074c-0.08-0.346-0.563-0.929,0.132-1.05l-0.64,0.673l-0.296-0.76
		c0.716,0.303,0.355-0.688,0.52-1.008l0.72-0.279l-0.433-0.305c0.988,0.227,0.125-0.719,0.479-1.03l0.835,0.192l-1.203-0.991
		c0.436-0.632,0.832,0.479,1.383,0.446l-0.064-1.168l-0.723-0.445l0.667-0.168l-0.795-0.479l0.239-1.256l-0.512-0.943l-0.998-0.672
		c0.004-0.063,0.035-0.127,0.052-0.199c0.08,0.177,0.175,0.494,0.571,0.383l0.017-0.383c0.911-0.28,0.987,1.453,1.754,1.15
		l-0.175-0.479l0.827,0.303l-0.009-1.102l-0.274,0.216l-0.272-1.455l0.871,0.265l-0.132-0.641l0.26,0.119
		c0.531-1.702,1.066-3.893,0.319-5.588l1.263-1.525l-0.492-0.297l0.656-0.313l-0.1-1.701l0.438-0.08l-0.274-0.695l0.467-0.225
		l-0.355-0.129c-0.107-0.472-0.145-1.086,0.495-0.975L213.331,419.488z M191.168,470.304l0.951,0.129L191.168,470.304z"/>
	<path fill="#D773B2" d="M184.738,425.164v-0.289c-0.028,0.019-0.028-0.069-0.091-0.047L184.738,425.164z"/>
	<line fill="none" x1="192.128" y1="470.416" x2="191.168" y2="470.304"/>
	<polygon fill="#D773B2" points="199.466,460.121 199.514,459.681 199.279,459.808 	"/>
	<line fill="none" x1="200.725" y1="456.908" x2="200.774" y2="458.185"/>
	<line fill="none" x1="203.263" y1="454.844" x2="202.999" y2="454.549"/>
	<line fill="none" x1="202.995" y1="453.748" x2="202.489" y2="454.084"/>
	<line fill="none" x1="206.169" y1="447.642" x2="205.862" y2="448.225"/>
	<polygon fill="#D773B2" points="207.039,445.236 206.773,444.947 206.681,445.195 	"/>
	<polygon fill="#D773B2" points="195.969,400.144 196.241,400.295 196.301,400.023 	"/>
	<line fill="none" x1="183.95" y1="423.299" x2="184.354" y2="423.133"/>
	<polygon fill="#D773B2" points="181.029,436.027 181.592,436.17 181.052,435.932 	"/>
	<path fill="#D773B2" d="M381.742,174.218l2.462,2.59l-0.023,0.28c0.145,0.168,0.376,0.18,0.544,0.292l0.743,0.783l1.64-0.403
		c0.312-0.076,0.613-0.132,0.95-0.24l4.077-1.031l0.863-0.927c0.486-0.504,1.063-1.011,1.59-1.502l-0.071,0.427l0.688-0.18
		l0.176-0.52l0.295,0.32l1.647-1.603l-0.568-0.08l1.048-1.095l0.376,0.483l0.176-0.392l0.344,0.692
		c-0.535-0.859,0.753-1.2,0.814-1.468l0.025,0.148c0.774-0.288-0.36-0.212,0.016-0.571l1.159,0.432l2.166-2.015l0.991-1.926
		l0.734-0.084l0.792,1.362l0.583-0.522l-0.614-0.196c-0.722-0.208,0.822-0.835-0.121-1.016l2.128-1.866l0.391,0.647l1.071-1.819
		l-0.784-0.58l0.193-0.536l1.445,0.412c0.385,0.719-0.951,0.755-0.177,1.115c0.177,0.675-0.742,1.586-1.198,1.503
		c-0.022,0.942,0.408-0.288,0.752,0.287l0.935-1.567l-0.352-0.567c0.104-1.051,1.048-0.307,1.214-0.432l-0.15,0.408l0.792-1.011
		c0.711,0.56-0.584,0.687-0.344,1.23l0.72,0.192l0.487-1.135l0.137,0.312l0.239-0.532l-0.943-0.159
		c-0.359-0.84,0.248-0.393,0.68-1.023l-0.544-0.096l0.216-0.968l1.009,0.256l-0.488,0.268c-0.191,0.891,0.95,0.523,0.808,1.131
		l0.487-1.131c-0.288,0.595-0.392-0.208-0.672-0.256c-0.175-1.658,1.144,0.268,1.703-0.567c-0.743-0.479,0.111-1.746-1.056-1.947
		l0.392-0.703l0.664,0.74l0.279-0.229l0.088,0.868l1.654-0.112l-0.19-0.799l0.687,0.104c-0.543,0.201-0.574-0.575-0.438-0.903
		l1.109-0.108l-0.03,0.692l0.438-0.352l-0.512-1.211l0.639-0.316l-0.135,0.612l1.094-0.124l-0.175-0.451l0.368,0.263l0.23-0.728
		l0.239,0.172c0.08-0.336-0.12-1.063,0.568-0.904l-0.889,0.368l0.057-0.824c0.526,0.556,0.607-0.479,0.88-0.715l0.773,0.032
		l-0.271-0.452c0.823,0.588,0.384-0.619,0.854-0.735l0.672,0.504l-0.694-1.396c0.646-0.408,0.582,0.779,1.095,0.96l0.407-1.087
		l-0.463-0.688l0.646,0.108l-0.486-0.763l0.703-1.04l-0.081-1.099l-0.647-1.003c0.033-0.06,0.089-0.097,0.137-0.148
		c-0.008,0.176-0.056,0.508,0.368,0.576l0.144-0.348c0.976,0.104,0.337,1.735,1.151,1.771l0.057-0.503l0.623,0.6l0.446-1.003
		l-0.367,0.056l0.359-1.415l0.711,0.587l0.129-0.651l0.191,0.224c1.176-1.338,2.534-3.142,2.534-4.992l1.774-0.883l-0.336-0.472
		l0.734-0.024l0.592-1.595l0.439,0.112l0.024-0.739l0.52-0.037l-0.28-0.255l0.849-0.679l-0.297-0.328l1.048-2.391l-0.792,0.056
		l-0.056-0.615l0.6,0.315c1.168-0.7,1.097-2.494,1.742-3.765l-0.247-0.452l1.264-2.713l-0.815-0.88
		c-0.328-0.687,0.815-0.028,1.303-0.439l0.063-0.991l0.073,0.044l0.208-1.191l0.022,0.068l0.688-0.895l-0.265-1.179l0.225-0.036
		l-0.416-0.088l0.456-0.583l0.343,0.408c0.537-0.62-0.304-0.271-0.415-0.64c0.177-0.084-1.847-3.549-1.063-2.47
		c0.721,0.819-0.735-1.811,1.399,2.294c1.414,2.258-1.296-2.906-1.08-2.542l-0.624,0.148l-0.614-0.744l-0.841,0.024l0.409,0.779
		l-0.601-0.319l-0.424,0.108l-0.137-0.755l-1.055-0.076l0.135-1.195l-0.742,0.168l-0.144-0.472c-0.841-0.723-1.607,0.679-2.158-0.08
		l0.04-0.423l-0.465,0.052c-0.079-1.439-2.069-1.407-2.894-2.471l-0.912,0.052l-0.774-0.747l-0.128,0.715
		c-0.48-0.704-1.582,0.4-1.6-0.572l0.562-0.416c0.031-1.379-5.685,1.239-4.109,0.675l0.464,0.971l-1.368,0.252l-0.471,0.635
		l0.017-0.428l-0.8,1.388l-1.799,1.015c0.231,0.748-0.943,0.592-0.359,1.228l-0.247-0.096l0.057,1.131l-0.32-0.464l-1.048,0.355
		l0.024,0.568l-0.104,0.39l-0.305,0.815l-0.432-0.399l-0.68,0.807c-0.048,0.004-0.111,0.016-0.216,0.152l-0.567,0.268l-0.247-0.379
		l-0.16,1.143l-2.263,2.698l0.022-0.28l-0.398,0.671l-0.822,0.348l0.318,0.216l-2.166,2.199l-0.009-0.607l-0.958,2.362l-0.186-0.527
		l-0.6,1.303l0.032,0.723l-0.081-0.064l-0.622,0.995l-0.168-0.379l-1.351,0.608l0.12,0.536l-0.616,0.092l0.08,1.658l-0.072,0.088
		l-0.52-0.559l-0.247,1.331l-1.671,1.731l-0.465-0.76l-1.733,1.571c0.847,0.188-0.048,0.803,0.15,1.287l-0.23,0.239
		c-0.313,0.18-0.535-0.164-0.832-0.071l-1.622,1.91l-0.072-0.124l-1.318,2.229l-0.104,0.097l-0.144-0.356
		c-0.487,0.244-0.28,0.484-0.208,0.719l-0.231,0.237l-0.081-0.28l-1.038,1.411l-0.104-0.396l-0.52,1.055l-0.394,0.392l-0.175-0.388
		l-0.512,1.071l-0.04,0.048h-0.487l-0.504,1.019l-0.272,0.272l-0.687,0.043l-5.236,6.048l-0.576,0.587l-0.397-0.872
		c0.472,0.413-0.208,0.476-0.688,1.247l-0.087-0.036l-0.734,0.659l0.11,0.104c-0.008,0.588-1.237,0.128-0.831,0.848l-0.553-0.072
		l-0.574,1.111l-0.048-0.128l-1.048,1.387l-0.295,0.995l-0.328,0.356l-0.296-0.333c-1.071,1.239-2.422,2.95-3.312,4.049
		l-1.039,1.067l7.611,8.078C380.919,173.467,381.32,173.773,381.742,174.218z M393.972,174.39l-0.84-0.492L393.972,174.39z"/>
	<polygon fill="#D773B2" points="424.18,148.583 424.18,148.598 424.236,149.389 	"/>
	<polygon fill="#D773B2" points="431.496,114.729 431.486,114.833 431.647,114.801 	"/>
	<polygon fill="#D773B2" points="406.106,167.328 405.971,167.443 406.538,167.624 	"/>
	<polygon fill="#D773B2" points="431.199,114.588 431.496,114.729 431.519,114.414 	"/>
	<polygon fill="#D773B2" points="405.523,129.96 405.555,129.856 405.547,129.602 	"/>
	<line fill="none" x1="393.132" y1="173.897" x2="393.972" y2="174.39"/>
	<polygon fill="#D773B2" points="405.075,167.552 404.788,167.563 404.852,167.938 	"/>
	<line fill="none" x1="407.29" y1="165.497" x2="406.809" y2="166.688"/>
	<line fill="none" x1="410.455" y1="164.642" x2="410.334" y2="164.262"/>
	<line fill="none" x1="410.639" y1="163.525" x2="410.032" y2="163.626"/>
	<line fill="none" x1="416.019" y1="159.222" x2="415.499" y2="159.629"/>
	<polygon fill="#D773B2" points="417.801,157.379 417.665,157.011 417.473,157.191 	"/>
	<polygon fill="#D773B2" points="426.234,111.667 425.891,111.64 426.067,111.892 	"/>
	<line fill="none" x1="405.563" y1="127.922" x2="405.963" y2="127.931"/>
	<polygon fill="#D773B2" points="397.801,138.326 397.739,138.41 398.185,138.75 	"/>
	<polygon fill="#D773B2" points="129.001,378.033 129.057,377.938 129.034,377.682 	"/>
	<polygon fill="#D773B2" points="154.686,362.637 154.978,362.773 155.009,362.459 	"/>
	<polygon fill="#D773B2" points="147.691,396.61 147.691,396.625 147.739,397.418 	"/>
	<polygon fill="#D773B2" points="129.624,415.371 129.493,415.492 130.052,415.66 	"/>
	<polygon fill="#D773B2" points="154.978,362.773 154.973,362.885 155.133,362.845 	"/>
	<path fill="#D773B2" d="M161.405,365.963c0.735,0.822-0.783-1.799,1.451,2.276c0.403,0.487-0.688-1.653-1.155-2.518l-0.587,0.143
		l-0.615-0.741l-0.839,0.023l0.391,0.791l-0.567-0.318l-0.443,0.096l-0.128-0.744l-1.087-0.08l0.144-1.191l-0.73,0.168l-0.155-0.471
		c-0.835-0.734-1.587,0.68-2.134-0.08l0.027-0.425l-0.459,0.058c-0.1-1.447-2.063-1.408-2.875-2.486l-0.938,0.041l-0.775-0.735
		l-0.136,0.711c-0.476-0.694-1.555,0.399-1.599-0.567l0.584-0.416c0.012-1.392-5.692,1.304-4.109,0.703l0.447,0.976l-1.347,0.255
		l-0.483,0.633l-0.005-0.432l-0.794,1.398l-1.795,1.022c0.228,0.733-0.939,0.584-0.345,1.207l-0.268-0.097l0.063,1.145l-0.332-0.488
		l-1.043,0.367l0.039,0.568l-0.128,0.398l-0.296,0.815l-0.427-0.425l-0.684,0.824c-0.043,0.008-0.116,0.023-0.196,0.168
		l-0.579,0.271l-0.232-0.385l-0.176,1.144l-2.255,2.687l0.018-0.28l-0.412,0.673l-0.84,0.352l0.344,0.224l-2.169,2.198l-0.013-0.614
		l-0.982,2.364l-0.171-0.525l-0.584,1.326l0.024,0.711l-0.077-0.063l-0.614,0.998l-0.177-0.398l-1.326,0.615l0.128,0.535
		l-0.637,0.088l0.089,1.654l-0.085,0.08l-0.511-0.551l-0.23,1.324l-1.699,1.735l-0.452-0.774l-1.734,1.582
		c0.824,0.186-0.023,0.808,0.167,1.287l-0.263,0.24c-0.324,0.168-0.528-0.168-0.82-0.08l-1.617,1.91l-0.088-0.128l-1.291,2.206
		l-0.093,0.112l-0.18-0.353c-0.452,0.256-0.276,0.471-0.188,0.711l-0.228,0.248l-0.064-0.248l-1.019,1.383l-0.028,0.024
		l-0.115-0.416l-0.532,1.071l-0.389,0.393l-0.168-0.393l-0.516,1.07l-0.028,0.057h-0.479l-0.477,0.977l-0.3,0.318l-0.688,0.031
		l-5.226,6.02l-0.595,0.625l-0.387-0.871c0.436,0.407-0.229,0.479-0.696,1.246l-0.08-0.041l-0.751,0.664l0.127,0.104
		c-0.011,0.592-1.247,0.112-0.831,0.84l-0.563-0.071l-0.567,1.11l-0.06-0.127l-1.061,1.382l-0.268,1.016l-0.332,0.344l-0.296-0.328
		c-1.027,1.201-2.338,2.822-3.233,3.927l-1.139,1.175l7.666,8.082c0.376,0.52,0.788,0.83,1.194,1.271l2.467,2.58l-0.024,0.281
		c0.148,0.158,0.371,0.168,0.535,0.279l0.752,0.79l1.654-0.422c0.296-0.065,0.604-0.13,0.923-0.233l4.097-1.037l0.871-0.912
		c0.484-0.512,1.047-1.023,1.574-1.526l-0.047,0.432l0.671-0.167l0.18-0.527l0.303,0.328l1.644-1.607l-0.548-0.096l1.026-1.097
		l0.385,0.487l0.155-0.393l0.353,0.688c-0.532-0.854,0.759-1.199,0.818-1.472l0.028,0.136c0.779-0.278-0.376-0.198,0.003-0.56
		l1.16,0.424l2.162-2.006l0.996-1.951l0.727-0.071l0.792,1.351l0.587-0.519l-0.62-0.192c-0.72-0.216,0.819-0.839-0.119-1.021
		l2.123-1.881l0.398,0.656l1.059-1.807l-0.778-0.584l0.194-0.544l1.452,0.425c0.396,0.71-0.956,0.76-0.188,1.104
		c0.18,0.68-0.735,1.6-1.195,1.502c-0.008,0.943,0.408-0.278,0.764,0.297l0.928-1.566l-0.353-0.568
		c0.112-1.045,1.051-0.319,1.211-0.432l-0.151,0.408l0.795-1c0.715,0.535-0.588,0.682-0.353,1.225l0.731,0.199l0.464-1.152
		l0.16,0.328l0.24-0.533l-0.943-0.17c-0.36-0.847,0.23-0.392,0.651-1.03l-0.532-0.087l0.22-0.969l1.011,0.256l-0.482,0.265
		c-0.212,0.896,0.942,0.521,0.791,1.135l0.476-1.144c-0.279,0.607-0.375-0.19-0.65-0.238c-0.188-1.656,1.139,0.264,1.693-0.577
		c-0.734-0.479,0.12-1.749-1.059-1.95l0.396-0.703l0.663,0.736l0.265-0.232l0.088,0.863l1.675-0.08l-0.175-0.807l0.675,0.104
		c-0.543,0.201-0.575-0.584-0.433-0.903l1.107-0.119l-0.028,0.694l0.437-0.353l-0.504-1.19l0.632-0.336l-0.128,0.607l1.106-0.111
		l-0.199-0.447l0.38,0.279l0.231-0.733l0.244,0.167c0.076-0.346-0.128-1.063,0.561-0.896l-0.884,0.368l0.032-0.848
		c0.543,0.575,0.616-0.472,0.88-0.704l0.791,0.049l-0.268-0.463c0.792,0.591,0.384-0.617,0.848-0.736l0.676,0.496l-0.695-1.391
		c0.663-0.4,0.571,0.775,1.091,0.966c-0.188-0.687,0.796-0.405,0.412-1.087l-0.476-0.695l0.659,0.104l-0.526-0.751l0.723-1.047
		l-0.08-1.088l-0.647-0.998c0.037-0.057,0.084-0.113,0.117-0.16c0.023,0.185-0.027,0.512,0.383,0.574l0.172-0.352
		c0.956,0.112,0.309,1.743,1.103,1.773l0.073-0.502l0.624,0.599l0.446-0.998l-0.348,0.071l0.34-1.432l0.7,0.592l0.136-0.64
		l0.181,0.216c1.194-1.343,2.554-3.134,2.533-4.996l1.787-0.888l-0.327-0.464l0.702-0.031l0.62-1.582l0.424,0.104l0.039-0.735
		l0.528-0.032l-0.288-0.248l0.848-0.688l-0.304-0.327l1.048-2.375l-0.8,0.022l-0.043-0.606l0.604,0.32
		c1.162-0.688,1.106-2.486,1.751-3.749l-0.236-0.465l1.264-2.726l-0.814-0.862c-0.333-0.688,0.803-0.024,1.31-0.439l0.041-0.982
		l0.076,0.023l0.228-1.191l0.013,0.071l0.688-0.887l-0.271-1.191l0.224-0.032l-0.42-0.095l0.464-0.567l0.363,0.391
		c0.536-0.6-0.32-0.271-0.433-0.639C160.661,364.73,161.799,367.065,161.405,365.963z M116.659,421.949l0.832,0.487L116.659,421.949
		z"/>
	<polygon fill="#D773B2" points="159.438,365.586 159.482,365.602 159.654,365.563 	"/>
	<path fill="#D773B2" d="M161.692,365.723h0.031C161.388,365.131,161.492,365.332,161.692,365.723z"/>
	<line fill="none" x1="116.659" y1="421.949" x2="117.488" y2="422.445"/>
	<polygon fill="#D773B2" points="128.374,415.987 128.593,415.588 128.306,415.619 	"/>
	<line fill="none" x1="130.821" y1="413.541" x2="130.349" y2="414.715"/>
	<line fill="none" x1="133.973" y1="412.693" x2="133.834" y2="412.302"/>
	<line fill="none" x1="134.162" y1="411.565" x2="133.558" y2="411.67"/>
	<line fill="none" x1="139.537" y1="407.266" x2="139.019" y2="407.672"/>
	<polygon fill="#D773B2" points="141.3,405.42 141.171,405.035 141.008,405.228 	"/>
	<polygon fill="#D773B2" points="149.369,359.68 149.553,359.943 149.717,359.711 	"/>
	<line fill="none" x1="129.022" y1="375.986" x2="129.449" y2="375.994"/>
	<polygon fill="#D773B2" points="121.667,386.818 121.284,386.402 121.22,386.482 	"/>
	<path fill="#D773B2" d="M434.485,204.366l-0.017-0.384c-0.512,0.036-0.432,0.332-0.471,0.572l-0.288,0.128l0.022-0.275
		l-1.533,0.867l0.071-0.416l-0.928,0.759l-0.496,0.2l0.018-0.416l-0.912,0.779l-0.057,0.024l-0.433-0.188l-0.855,0.711l-0.383,0.152
		l-0.64-0.248l-7.21,3.409l-0.8,0.328c-0.52-0.44,0.447-0.624-0.017-0.963c0.265,0.575-0.375,0.352-1.128,0.879l-0.056-0.08
		l-0.936,0.308l0.057,0.148c-0.24,0.54-1.184-0.379-1.104,0.424l-0.479-0.276l-0.951,0.788v-0.132
		c-0.775-0.028-1.072,1.25-1.552,0.835l-0.647,0.812l-0.439,0.179l-0.144-0.416c-1.383,0.672-3.206,1.611-4.437,2.267l-1.574,0.631
		l3.73,10.516c0.129,0.62,0.401,1.075,0.593,1.655l1.19,3.337l-0.127,0.232c0.057,0.22,0.256,0.3,0.375,0.48l0.368,1.019l1.71,0.28
		c0.288,0.064,0.591,0.128,0.896,0.148l4.164,0.695l1.198-0.495c0.647-0.272,1.399-0.492,2.063-0.755l-0.231,0.379l0.671,0.112
		l0.386-0.396l0.15,0.412l2.135-0.807l-0.457-0.288l1.368-0.592l0.168,0.604l0.295-0.3l0.033,0.771
		c-0.111-0.995,1.19-0.787,1.358-1.003l-0.033,0.151c0.825,0.04-0.264-0.339,0.217-0.527l0.903,0.863l2.781-0.967l1.694-1.375
		c0.593-0.188,0.232,0.748,0.704,0.229c0.03,0.624,0.911,1.051,0.184,1.567l0.735-0.245l-0.486-0.436
		c-0.577-0.479,1.095-0.427,0.318-0.967l2.702-0.86l0.104,0.764l1.687-1.247l-0.471-0.839l0.39-0.4
		c0.272,0.428,0.48,1.167,1.161,0.951c0.071,0.8-1.176,0.312-0.64,0.939l-1.695,0.892c-0.376,0.859,0.512-0.076,0.591,0.587
		l1.479-1.067l-0.08-0.66c0.512-0.923,1.078,0.136,1.286,0.101l-0.304,0.308l1.097-0.608c0.454,0.803-0.784,0.392-0.793,0.991
		l0.585,0.472c0.838-0.208-0.018-0.771,0.895-0.848v0.348l0.44-0.384l-0.8-0.531l1.047-0.672l-0.48-0.304l0.584-0.787l0.823,0.627
		l-0.535,0.061l0.264,1.362l0.89-0.859c-0.496,0.44-0.256-0.332-0.48-0.479c0.48-1.607,0.942,0.695,1.767,0.148
		c-0.472-0.728,0.808-1.55-0.177-2.203l0.642-0.492l0.319,0.943l0.335-0.108l-0.278,0.828l1.551,0.583l0.176-0.799l0.592,0.372
		l-0.057-1.011l1.055,0.336l-0.286,0.635l0.535-0.147l0.008-1.307l0.729-0.032l-0.385,0.496c0.616-0.356,0.472,0.788,1.063,0.332
		v-0.484l0.241,0.396l0.512-0.583l0.145,0.256l0.871-0.591l-0.943-0.02c-0.479-0.384,0.296-0.632,0.375-0.736
		c0.257,0.727,0.745-0.204,1.079-0.312l0.695,0.348l-0.031-0.5c0.479,0.848,0.575-0.416,1.056-0.348l0.416,0.728l-0.081-1.551
		c0.761-0.112,0.231,0.943,0.601,1.311l0.814-0.831l-0.127-0.828l0.56,0.379l-0.168-0.896l1.079-0.676l-0.279,0.751
		c0.871-0.392-0.04-1.25,0.64-1.782l-0.185-1.184c0.056-0.036,0.121-0.06,0.177-0.083c-0.063,0.164-0.256,0.436,0.112,0.675
		l0.286-0.255l0.32,2.074l0.256-0.436l0.337,0.799l0.813-0.739l-0.344-0.075l0.88-1.172l0.416,0.807l0.392-0.531l0.07,0.283
		c1.631-0.759,3.599-1.858,4.341-3.549l1.99-0.08l-0.127-0.567l0.688,0.264l1.191-1.203l0.351,0.28l0.336-0.676l0.474,0.192
		l-0.146-0.332c0.272-0.427,0.712-0.863,1.041-0.3l-0.137-0.428l1.935-1.759l-0.759-0.28l0.208-0.579l0.422,0.535l3.126-2.746
		l-0.07-0.508l2.276-1.982l-0.391-1.131c-0.041-0.755,0.734,0.316,1.359,0.128l0.445-0.88l0.064,0.072l0.672-0.999v0.068l0.983-0.54
		l0.229-1.187l0.224,0.063l-0.335-0.248l0.642-0.332l0.167,0.499c0.744-0.352-0.185-0.383-0.119-0.767
		c-0.201-4.097-0.112-1.503-0.025-2.67c0.346,1.04,0.018-1.958,0.394,2.666c0.199,0.636,0.039-1.791-0.024-2.773l-0.6-0.092
		l-0.265-0.943l-0.782-0.316l0.07,0.875l-0.432-0.536l-0.439-0.08l0.192-0.728l-0.944-0.516c0.361-0.312,0.961-0.416,0.625-1.032
		l-0.769-0.148l0.057-0.487c-0.479-1-1.719-0.02-1.911-0.943l0.177-0.363l-0.415-0.136c0.487-1.351-1.352-2.13-1.662-3.438
		c-0.48,0.488-0.496-0.304-0.841-0.332c0.601-0.404-0.543-0.451-0.423-0.995l-0.433,0.6c-0.151-0.84-1.574-0.272-1.208-1.159
		l0.688-0.157c0.568-1.259-5.738-1.043-4.044-0.963l0.023,1.067l-1.343-0.324l-0.688,0.396l0.177-0.38l-1.294,0.939l-2.056,0.212
		c-0.12,0.752-1.096,0.152-0.832,0.972l-0.175-0.192l-0.392,1.063l-0.121-0.567c-0.207-0.68-0.896,0.204-1.095-0.088l-0.2,0.532
		l-0.28,0.307l-0.607,0.636l-0.216-0.543l-0.951,0.452c-0.029-0.016-0.087-0.02-0.23,0.076l-0.632,0.02l-0.079-0.452l-0.623,0.975
		l-3.126,1.551l0.112-0.231l-0.634,0.451l-0.919-0.015l0.209,0.327l-2.87,1.143l0.247-0.579l-1.838,1.779l0.024-0.556l-1.048,0.979
		l-0.288,0.651l-0.039-0.096l-0.944,0.635l-0.022-0.423l-1.454,0.024l-0.104,0.535l-0.616-0.175l-0.583,1.554l-0.128,0.044
		l-0.238-0.715l-0.721,1.123l-2.262,0.896l-0.104-0.884l-2.239,0.74c0.704,0.523-0.335,0.731-0.358,1.239l-0.318,0.127
		c-0.385,0.024-0.433-0.384-0.729-0.392l-2.262,1.08l-0.032-0.148l-2.109,1.527L434.485,204.366z M421.063,232.2l0.56,0.764
		L421.063,232.2z"/>
	<line fill="none" x1="421.063" y1="232.2" x2="421.622" y2="232.963"/>
	<path fill="#D773B2" d="M99.486,341.941l0.023-0.486l0.231,0.392l0.5-0.584l0.164,0.263l0.871-0.591l-0.939-0.022
		c-0.482-0.385,0.276-0.634,0.379-0.736c0.24,0.729,0.732-0.191,1.083-0.303l0.696,0.352l-0.077-0.527
		c0.504,0.863,0.6-0.408,1.084-0.328l0.416,0.735l-0.076-1.552c0.759-0.104,0.211,0.943,0.623,1.32l0.8-0.84l-0.151-0.814
		l0.567,0.359l-0.168-0.903l1.083-0.673l-0.271,0.761c0.852-0.384-0.076-1.247,0.644-1.782l-0.224-1.184
		c0.084-0.023,0.125-0.057,0.192-0.088c-0.061,0.184-0.256,0.455,0.115,0.688l0.292-0.264l0.309,2.068l0.255-0.432l0.333,0.8
		l0.814-0.735l-0.343-0.096l0.892-1.16l0.403,0.824l0.383-0.535l0.084,0.279c1.615-0.751,3.59-1.854,4.336-3.542l1.987-0.079
		l-0.128-0.56l0.679,0.264l1.196-1.198l0.359,0.271l0.328-0.654l0.49,0.177l-0.159-0.337c0.279-0.399,0.708-0.848,1.048-0.278
		l-0.157-0.44l1.927-1.75l-0.739-0.281l0.195-0.573l0.44,0.526l3.101-2.741l-0.063-0.504l2.271-1.982l-0.396-1.135
		c-0.031-0.752,0.743,0.319,1.358,0.135l0.448-0.895l0.056,0.08l0.671-1.016v0.08l0.982-0.545l0.24-1.189l0.22,0.07l-0.372-0.264
		l0.68-0.336l0.151,0.512c0.729-0.352-0.179-0.383-0.144-0.774c0.199,0.017-0.217-3.974,0.048-2.67
		c0.319,1.03,0.076-1.958,0.348,2.653c0.384,2.646-0.016-3.174,0.052-2.741l-0.632-0.12l-0.255-0.941l-0.792-0.32l0.061,0.888
		l-0.398-0.536l-0.437-0.07l0.188-0.744l-0.956-0.496c0.36-0.318,0.967-0.432,0.628-1.039l-0.764-0.144l0.056-0.487
		c-0.467-0.991-1.711-0.023-1.934-0.943l0.208-0.359l-0.424-0.128c0.487-1.368-1.348-2.127-1.65-3.444
		c-0.496,0.504-0.496-0.28-0.853-0.319c0.597-0.4-0.534-0.464-0.423-0.992l-0.416,0.592c-0.154-0.839-1.605-0.278-1.233-1.167
		l0.688-0.136c0.571-1.256-5.724-1.151-4.021-1.047l0.027,1.095l-1.354-0.344l-0.688,0.408l0.177-0.385l-1.279,0.936l-2.074,0.216
		c-0.076,0.761-1.095,0.146-0.808,0.968l-0.196-0.191l-0.387,1.048l-0.116-0.56c-0.184-0.695-0.892,0.198-1.099-0.104l-0.177,0.536
		l-0.279,0.318l-0.611,0.633l-0.22-0.536l-0.955,0.448c-0.053-0.018-0.101-0.008-0.24,0.071l-0.635,0.017l-0.072-0.439l-0.612,0.967
		l-3.152,1.551l0.132-0.23l-0.645,0.439h-0.898l0.208,0.318l-2.87,1.137l0.244-0.567l-1.822,1.774l0.021-0.553l-1.075,0.959
		l-0.269,0.655l-0.044-0.079l-0.959,0.646v-0.433l-1.479,0.025l-0.101,0.544l-0.587-0.168l-0.583,1.551l-0.128,0.057l-0.235-0.729
		l-0.756,1.119l-2.241,0.896l-0.104-0.87l-2.198,0.734c0.651,0.52-0.379,0.729-0.396,1.23l-0.324,0.127
		c-0.368,0.023-0.424-0.366-0.708-0.392l-2.266,1.088l-0.025-0.137l-2.125,1.511l-0.1,0.04v-0.383
		c-0.552,0.039-0.433,0.335-0.48,0.591l-0.312,0.096l0.067-0.238l-1.539,0.848l0.064-0.408l-0.911,0.743l-0.512,0.224l-0.021-0.432
		l-0.887,0.792l-0.048,0.009l-0.433-0.185l-0.896,0.735l-0.324,0.136l-0.65-0.24l-7.091,3.356l-0.931,0.377
		c-0.484-0.439,0.447-0.642,0.008-0.959c0.244,0.566-0.392,0.344-1.139,0.863l-0.076-0.064l-0.943,0.296l0.072,0.144
		c-0.244,0.535-1.194-0.391-1.106,0.44l-0.456-0.281l-0.976,0.776l0.004-0.129c-0.774-0.022-1.074,1.246-1.555,0.841l-0.631,0.808
		l-0.464,0.176l-0.141-0.424c-1.49,0.711-3.474,1.768-4.712,2.383l-1.327,0.526l3.729,10.488c0.116,0.606,0.364,1.054,0.584,1.614
		l1.183,3.381l-0.119,0.248c0.06,0.231,0.279,0.328,0.403,0.519l0.349,1.009l1.649,0.279c0.313,0.057,0.604,0.111,0.947,0.152
		l4.148,0.672l1.188-0.473c0.66-0.265,1.403-0.479,2.063-0.743l-0.22,0.376l0.675,0.111l0.396-0.392l0.124,0.399l2.143-0.809
		l-0.456-0.304l1.375-0.583l0.172,0.599l0.292-0.297l0.032,0.776c-0.136-1,1.195-0.799,1.359-1.008l-0.032,0.152
		c0.819,0.032-0.256-0.344,0.216-0.527l0.907,0.854l2.782-0.975l1.694-1.353c0.583-0.199,0.221,0.735,0.699,0.225
		c0.053,0.615,0.916,1.039,0.185,1.566l0.748-0.257l-0.484-0.432c-0.58-0.479,1.071-0.438,0.292-0.966l2.702-0.864l0.107,0.752
		l1.691-1.239l-0.484-0.839l0.421-0.408c0.26,0.439,0.471,1.175,1.146,0.959c0.064,0.8-1.175,0.313-0.62,0.943l-1.723,0.896
		c-0.379,0.84,0.512-0.097,0.612,0.567l1.475-1.048l-0.08-0.671c0.512-0.919,1.087,0.145,1.271,0.104l-0.319,0.304l1.155-0.601
		c0.42,0.801-0.823,0.386-0.836,0.983l0.579,0.472c0.859-0.199-0.02-0.767,0.899-0.839l0.004,0.336l0.467-0.359l-0.814-0.544
		l1.026-0.688l-0.464-0.296l0.592-0.793l0.8,0.641l-0.557,0.049l0.288,1.357l0.888-0.846c-0.508,0.438-0.256-0.328-0.5-0.488
		c0.509-1.6,0.943,0.712,1.795,0.16c-0.491-0.735,0.8-1.551-0.196-2.198l0.64-0.504l0.324,0.959l0.348-0.112l-0.271,0.841
		l1.555,0.574l0.156-0.799l0.588,0.384l-0.024-1.031l1.043,0.344l-0.3,0.633l0.543-0.129l0.013-1.318l0.719-0.023l-0.364,0.496
		L99.486,341.941z M68.006,347.672l0.557,0.761L68.006,347.672z"/>
	<polygon fill="#D773B2" points="126.944,308.976 126.896,309.071 127.079,309.135 	"/>
	<polygon fill="#D773B2" points="129.881,313.347 129.916,313.373 130.084,313.403 	"/>
	<polygon fill="#D773B2" points="126.736,308.744 126.944,308.976 127.099,308.694 	"/>
	<polygon fill="#D773B2" points="97.043,312.444 97.112,312.364 97.231,312.117 	"/>
	<polygon fill="#D773B2" points="82.502,346.857 82.342,346.922 82.782,347.305 	"/>
	<line fill="none" x1="68.006" y1="347.672" x2="68.562" y2="348.433"/>
	<polygon fill="#D773B2" points="81.115,346.922 81.475,346.658 81.192,346.553 	"/>
	<line fill="none" x1="84.333" y1="345.666" x2="83.417" y2="346.553"/>
	<line fill="none" x1="87.59" y1="345.746" x2="87.542" y2="346.154"/>
	<line fill="none" x1="87.598" y1="345.076" x2="88.182" y2="345.203"/>
	<line fill="none" x1="94.836" y1="343.453" x2="94.186" y2="343.612"/>
	<polygon fill="#D773B2" points="97.198,342.461 97.227,342.078 96.991,342.172 	"/>
	<polygon fill="#D773B2" points="123.144,304.203 123.399,304.076 123.059,303.881 	"/>
	<line fill="none" x1="97.886" y1="310.588" x2="98.262" y2="310.773"/>
	<polygon fill="#D773B2" points="86.783,317.528 86.599,316.977 86.507,317.033 	"/>
	<path fill="#D773B2" d="M494.997,292.133l-0.521-0.353l0.127-0.968l-0.606-0.6l-0.279,0.84l-0.167-0.655l-0.369-0.256l0.465-0.584
		l-0.664-0.854l0.992-0.695l-0.641-0.432l0.23-0.433c-0.021-1.11-1.55-0.728-1.365-1.646l0.319-0.256l-0.328-0.289
		c0.999-1.047-0.353-2.494-0.129-3.813c-0.63,0.255-0.317-0.479-0.63-0.641c0.711-0.127-0.313-0.64,0.016-1.07l-0.633,0.359
		c0.2-0.815-1.351-0.879-0.646-1.552l0.703,0.146c1.04-0.92-4.78-3.342-3.293-2.56l-0.4,0.991l-1.087-0.847l-0.808,0.096l0.305-0.28
		l-1.544,0.328l-1.973-0.632l-1.145,0.56l-0.088-0.256l-0.793,0.815l0.121-0.575c0.096-0.695-0.872-0.152-0.951-0.512l-0.398,0.398
		l-0.386,0.168l-0.799,0.328l0.023-0.566l-1.046,0.031c-0.049-0.023-0.09-0.057-0.272-0.031l-0.576-0.248l0.128-0.432l-0.966,0.639
		c-1.097-0.447-3.03-0.071-3.51,0.152l0.216-0.16l-0.792,0.16l-0.8-0.385l0.064,0.393c-0.862-0.703-2.039,0.375-3.095-0.129
		l0.456-0.414l-2.398,0.879l0.271-0.487l-1.207,0.399c0.128,0.344-0.376,0.646-0.688,0.543l-0.017-0.097l-1.127,0.226l0.177-0.377
		c-0.104-0.734-1.248-0.504-1.353-0.582l-0.327,0.438l-0.471-0.384l-1.168,1.184h-0.127l0.063-0.76l-1.143,0.729l-2.407-0.08
		l0.249-0.849l-2.343-0.224c0.432,0.743-0.583,0.527-0.824,0.975h-0.231l-0.605-0.654l-2.521,0.072l0.033-0.129l-2.52,0.535
		l-0.126-0.008l0.144-0.359c-0.505-0.191-0.536,0.137-0.646,0.344l-0.328-0.017l0.128-0.216l-1.721,0.177h-0.015l0.216-0.36
		l-1.135,0.319l-0.552-0.016l0.159-0.384l-1.19,0.344v0.008l-0.312-0.352l-1.08,0.304l-0.393-0.017l-0.521-0.486l-7.802,0.23
		l-1.022-0.031c-0.279-0.607,0.656-0.399,0.384-0.871c0.008,0.606-0.479,0.144-1.398,0.328l-0.023-0.088l-0.975-0.121l-0.009,0.177
		c-0.44,0.384-0.943-0.841-1.199-0.048l-0.313-0.448l-1.199,0.328l0.057-0.128c-0.688-0.336-1.479,0.728-1.742,0.16l-0.92,0.472
		l-0.479-0.017l0.033-0.433c-1.639,0.04-3.846,0.192-5.22,0.265l-1.48-0.041l-0.813,11.072c-0.137,0.639-0.079,1.143-0.146,1.758
		l-0.239,3.541l-0.224,0.168c-0.048,0.232,0.127,0.433,0.168,0.641l-0.097,1.063l1.398,0.92c0.272,0.185,0.503,0.352,0.815,0.512
		l3.524,2.317l1.279,0.04c0.688,0.016,1.463,0.104,2.166,0.145l-0.359,0.24l0.592,0.392l0.521-0.224l-0.049,0.422l2.303,0.138
		l-0.312-0.472l1.503,0.016l-0.097,0.615l0.398-0.145l-0.279,0.721c0.287-0.961,1.398-0.232,1.623-0.385l-0.079,0.129
		c0.741,0.383-0.104-0.425,0.398-0.393l0.495,1.15l2.926,0.231l2.118-0.56l0.553,0.479c-0.226,0.592,0.414,1.335-0.487,1.512
		c0.336-0.504,0.512-0.033,0.76,0.023l-0.264-0.536c-0.32-0.68,1.198,0.048,0.687-0.782l2.813,0.311l-0.199,0.736l2.028-0.447
		l-0.087-0.969l0.536-0.207l0.663,1.336c-0.257,0.783-1.199-0.178-0.935,0.631l-1.928,0.128c-0.702,0.606,0.479,0.12,0.313,0.76
		l1.766-0.358l0.178-0.656c0.847-0.639,0.958,0.568,1.15,0.615l-0.399,0.145l1.256-0.089c0.087,0.903-0.881,0.041-1.145,0.567
		l0.353,0.681c0.862,0.144,0.313-0.728,1.168-0.433l-0.121,0.327l0.543-0.169l-0.503-0.813c0.375-0.84,0.432-0.072,1.184-0.209
		l-0.271-0.471l0.854-0.479l0.487,0.896l-0.535-0.168c-0.793,0.447,0.256,1.039-0.288,1.358l1.144-0.433l-0.256-0.655
		c1.119-1.246,0.575,1.04,1.573,0.888c-0.16-0.879,1.367-1.109,0.729-2.094l0.79-0.217l-0.097,1l0.346,0.039l-0.583,0.647
		l1.196,1.151l0.474-0.656l0.368,0.568l0.392-0.943l0.815,0.743l-0.528,0.464l0.551,0.08l0.545-1.191l0.672,0.264l-0.536,0.313
		l0.814,0.721l0.216-0.433l0.049,0.448l0.703-0.328l0.032,0.304c0.303-0.176,0.704-0.808,1.031-0.2l-0.84-0.392
		c-0.287-0.544,0.535-0.455,0.64-0.528c-0.056,0.77,0.76,0.129,1.119,0.152l0.496,0.605l0.16-0.502
		c0.104,0.99,0.702-0.127,1.109,0.129l0.089,0.838l0.55-1.445l0.025,1.445l1.07-0.432l0.208-0.822l0.368,0.584l0.191-0.903
		l1.294-0.177l-0.566,0.582c0.927-0.014,0.438-1.166,1.296-1.381l0.304-1.151c0.063,0,0.128,0,0.198,0
		c-0.127,0.128-0.414,0.313-0.175,0.655l0.383-0.088c0.544,0.76-1.086,1.383-0.56,2.006l0.407-0.295l-0.022,0.871l1.037-0.346
		l-0.271-0.215l1.271-0.695l0.058,0.91l0.56-0.343l-0.041,0.28c1.782-0.041,4.021-0.231,5.39-1.495l1.854,0.712l0.12-0.553
		l0.495,0.513l1.584-0.632l0.224,0.392l0.566-0.463l0.384,0.353l-0.016-0.369c0.416-0.271,0.991-0.486,1.079,0.16l0.032-0.463
		l2.47-0.815l-0.574-0.567l0.432-0.439l0.144,0.646c1.328,0.385,2.605-0.854,3.974-1.246l0.16-0.479l2.861-0.903l0.096-1.199
		c0.296-0.694,0.56,0.593,1.216,0.688l0.768-0.641l0.022,0.088l1.016-0.646l-0.049,0.072l1.128-0.104l0.703-0.991l0.176,0.146
		l-0.224-0.36l0.735-0.048l-0.071,0.521c0.823-0.017,0-0.424,0.176-0.76c1.551-3.798,0.544-1.398,1.11-2.423
		c-0.112,1.08,0.84-1.774-0.734,2.574C493.151,297.232,495.109,291.732,494.997,292.133z M423.062,296.793l0.217,0.936
		L423.062,296.793z"/>
	<line fill="none" x1="423.062" y1="296.793" x2="423.279" y2="297.721"/>
	<path fill="#D773B2" d="M57.302,262.165l-0.312-0.468l1.499,0.024l-0.092,0.611l0.396-0.156l-0.28,0.73
		c0.288-0.959,1.399-0.251,1.644-0.388l-0.084,0.132c0.744,0.379-0.104-0.427,0.412-0.404l0.483,1.155l2.927,0.228l2.113-0.551
		l0.543,0.483c-0.212,0.58,0.42,1.339-0.456,1.499c0.349-0.496,0.503-0.024,0.76,0.044l-0.265-0.552
		c-0.328-0.675,1.18,0.048,0.685-0.775l2.802,0.308l-0.2,0.735l2.047-0.452l-0.08-0.952l0.513-0.228l0.675,1.335
		c-0.252,0.792-1.191-0.176-0.943,0.627l-1.926,0.132c-0.688,0.624,0.483,0.112,0.315,0.763l1.774-0.363l0.172-0.647
		c0.863-0.647,0.947,0.563,1.144,0.607l-0.4,0.152l1.267-0.092c0.089,0.911-0.866,0.04-1.146,0.567l0.368,0.679
		c0.843,0.148,0.279-0.715,1.146-0.419l-0.124,0.332l0.561-0.18l-0.523-0.808c0.384-0.835,0.448-0.088,1.207-0.208l-0.296-0.459
		l0.855-0.484l0.483,0.896l-0.52-0.176c-0.784,0.456,0.255,1.052-0.305,1.359l1.163-0.428l-0.255-0.656
		c1.104-1.243,0.561,1.023,1.57,0.864c-0.168-0.859,1.351-1.091,0.716-2.066l0.779-0.212l-0.092,1.003l0.348,0.032l-0.568,0.64
		l1.191,1.175l0.476-0.676l0.399,0.584l0.352-0.943l0.835,0.751l-0.516,0.456l0.543,0.072l0.548-1.174l0.667,0.239l-0.543,0.32
		l0.823,0.727l0.204-0.443l0.067,0.459l0.688-0.328l0.052,0.3c0.284-0.18,0.691-0.815,1.035-0.208l-0.852-0.384
		c-0.292-0.555,0.523-0.463,0.624-0.539c-0.044,0.779,0.782,0.128,1.131,0.167l0.482,0.612l0.172-0.504
		c0.12,0.983,0.721-0.132,1.115,0.128l0.092,0.839l0.544-1.451l0.024,1.451l1.103-0.432l0.192-0.815l0.36,0.564l0.208-0.896
		l1.267-0.184l-0.56,0.587c0.938-0.02,0.436-1.187,1.299-1.391l0.304-1.163c0.064,0.004,0.136,0,0.2,0.004
		c-0.132,0.136-0.404,0.308-0.18,0.66l0.371-0.104c0.556,0.759-1.088,1.383-0.531,2.015l0.388-0.3l-0.008,0.863l1.022-0.34
		l-0.275-0.207l1.292-0.703l0.04,0.907l0.566-0.336l-0.04,0.28c1.8-0.032,4.041-0.232,5.4-1.491l1.854,0.719l0.115-0.563l0.517,0.52
		l1.57-0.639l0.231,0.392l0.568-0.464l0.384,0.355l-0.032-0.383c0.424-0.26,1.016-0.496,1.08,0.172l0.036-0.452l2.474-0.839
		l-0.56-0.556l0.412-0.448l0.16,0.667c1.311,0.368,2.594-0.871,3.961-1.263l0.18-0.483l2.846-0.903l0.103-1.189
		c0.282-0.7,0.559,0.583,1.198,0.66l0.751-0.628l0.04,0.088l1.021-0.644l-0.028,0.048l1.107-0.1l0.687-0.988l0.182,0.14
		l-0.221-0.368l0.74-0.036l-0.077,0.52c0.824-0.024-0.016-0.423,0.192-0.747c1.507-3.821,0.528-1.407,1.092-2.442
		c-0.108,1.083,0.787-1.791-0.724,2.589c-0.093,0.652,0.738-1.618,1.095-2.534l-0.521-0.364l0.141-0.951l-0.604-0.596l-0.279,0.835
		l-0.164-0.66l-0.368-0.256l0.447-0.591l-0.64-0.839l0.955-0.695l-0.627-0.452l0.271-0.416c-0.035-1.111-1.582-0.72-1.391-1.639
		l0.332-0.252l-0.332-0.296c0.987-1.055-0.372-2.486-0.125-3.821c-0.659,0.255-0.348-0.472-0.671-0.648
		c0.736-0.104-0.303-0.627,0.028-1.055l-0.631,0.363c0.208-0.831-1.339-0.891-0.645-1.555l0.7,0.152
		c1.015-0.943-4.844-3.289-3.313-2.546l-0.408,1.003l-1.096-0.839l-0.792,0.084l0.316-0.288l-1.559,0.344l-1.959-0.631l-1.146,0.547
		l-0.112-0.255l-0.791,0.815l0.124-0.56c0.093-0.707-0.879-0.164-0.955-0.523l-0.403,0.396l-0.384,0.167l-0.8,0.34l0.024-0.587
		L106.9,239.1c-0.028-0.028-0.093-0.065-0.269-0.041l-0.572-0.24l0.129-0.427l-0.979,0.635c-1.083-0.439-3.021-0.08-3.498,0.148
		l0.216-0.168l-0.779,0.148l-0.8-0.368l0.064,0.388c-0.867-0.715-2.03,0.372-3.078-0.128l0.438-0.419l-2.384,0.891l0.257-0.496
		l-1.207,0.396c0.139,0.344-0.376,0.647-0.688,0.54l-0.016-0.096l-1.123,0.228l0.172-0.388c-0.112-0.716-1.236-0.492-1.363-0.572
		l-0.3,0.452l-0.484-0.392l-1.15,1.191l-0.145-0.008l0.068-0.768l-1.135,0.736l-2.41-0.076l0.255-0.855l-2.342-0.228
		c0.432,0.747-0.616,0.523-0.844,0.987l-0.243-0.016l-0.604-0.648l-2.521,0.076l0.052-0.14l-2.539,0.531l-0.127-0.004l0.14-0.355
		c-0.496-0.18-0.532,0.147-0.668,0.332l-0.308,0.008l0.128-0.232l-1.694,0.18l-0.027-0.004l0.203-0.356l-1.135,0.324l-0.547-0.016
		l0.176-0.396l-1.159,0.368l-0.023-0.004l-0.332-0.344l-1.083,0.308l-0.392-0.02l-0.5-0.483l-7.891,0.22l-0.938-0.04
		c-0.288-0.6,0.658-0.392,0.38-0.871c0.008,0.624-0.492,0.168-1.383,0.332l-0.028-0.084l-0.995-0.108l-0.004,0.168
		c-0.44,0.396-0.943-0.835-1.199-0.052l-0.312-0.444l-1.191,0.332l0.044-0.132c-0.688-0.328-1.475,0.72-1.738,0.148l-0.916,0.483
		l-0.483-0.024l0.052-0.424c-1.563,0.04-3.641,0.172-5.044,0.26l-1.655-0.041l-0.799,11.128c-0.133,0.615-0.097,1.119-0.133,1.726
		l-0.279,3.537l-0.208,0.18c-0.04,0.224,0.128,0.412,0.168,0.62l-0.076,1.063l1.424,0.939c0.269,0.188,0.508,0.36,0.804,0.52
		l3.497,2.311l1.299,0.044c0.695,0.024,1.463,0.104,2.167,0.14l-0.352,0.244l0.596,0.392l0.512-0.22l-0.052,0.411L57.302,262.165z
		 M53.433,260.039l0.217,0.935L53.433,260.039z"/>
	<path fill="#D773B2" d="M67.038,265.158c-0.08,0.088-0.128-0.024-0.184-0.044l0.275,0.556L67.038,265.158z"/>
	<polygon fill="#D773B2" points="122.95,248.375 122.886,248.442 123.002,248.546 	"/>
	<polygon fill="#D773B2" points="122.867,248.063 122.95,248.375 123.206,248.187 	"/>
	<polygon fill="#D773B2" points="123.898,253.563 123.898,253.59 124.038,253.687 	"/>
	<path fill="#D773B2" d="M94.15,239.515l0.278-0.084c-0.023-0.044,0.061-0.08,0.021-0.12L94.15,239.515z"/>
	<path fill="#D773B2" d="M125.324,255.333l0.017,0.004C125.552,254.694,125.485,254.901,125.324,255.333z"/>
	<line fill="none" x1="53.433" y1="260.039" x2="53.646" y2="260.97"/>
	<polygon fill="#D773B2" points="65.751,264.646 66.163,264.551 65.98,264.351 	"/>
	<line fill="none" x1="69.198" y1="264.811" x2="67.997" y2="265.253"/>
	<line fill="none" x1="72.166" y1="266.208" x2="71.963" y2="266.544"/>
	<line fill="none" x1="72.913" y1="265.934" x2="72.426" y2="265.578"/>
	<line fill="none" x1="79.705" y1="267" x2="79.07" y2="266.9"/>
	<polygon fill="#D773B2" points="82.275,267.068 82.443,266.721 82.195,266.708 	"/>
	<polygon fill="#D773B2" points="121.684,242.432 121.44,242.145 121.396,242.457 	"/>
	<line fill="none" x1="95.672" y1="238.16" x2="95.98" y2="238.482"/>
	<polygon fill="#D773B2" points="82.722,240.038 82.779,239.458 82.67,239.461 	"/>
	<path fill="#D773B2" d="M409.247,366.889c-0.135,0.041-0.127-0.087-0.19-0.135l0.03,0.64L409.247,366.889z"/>
	<polygon fill="#D773B2" points="432.765,378.025 432.75,378.009 432.022,378.32 	"/>
	<path fill="#D773B2" d="M467.705,368.48c0.504-0.68-0.878-1.352,0.024-1.688l0.582,0.399c1.313-0.432-3.005-4.987-1.958-3.669
		l-0.773,0.751l-0.673-1.229l-0.76-0.225l0.415-0.152l-1.582-0.312l-1.534-1.367c-0.632,0.438-0.854-0.702-1.256,0.048v-0.279
		l-1.047,0.433l0.335-0.465l-0.688-0.878l-0.526,0.23h-0.409l-0.862-0.023l0.266-0.521l-0.992-0.382
		c0-0.057-0.056-0.104-0.215-0.146l-0.439-0.454l0.279-0.36l-1.127,0.207c-0.824-0.863-2.743-1.295-3.287-1.277l0.28-0.063
		l-0.774-0.177l-0.585-0.68l-0.11,0.385c-0.495-1-2.006-0.479-2.781-1.353l0.584-0.207l-2.534-0.159l0.433-0.345l-1.272-0.129
		c-0.015,0.384-0.599,0.449-0.838,0.224l0.031-0.086l-1.119-0.248l0.296-0.296l-1-1.071l-0.479,0.287l-0.279-0.551l-1.55,0.614
		l-0.112-0.047l0.358-0.688l-1.335,0.217l-2.175-1.049l0.575-0.671l-2.029-1.144c0.08,0.848-0.759,0.232-1.15,0.568l-0.217-0.104
		l-0.295-0.854l-2.343-0.944l0.104-0.118l-2.551-0.536l-0.111-0.041l0.279-0.271c-0.375-0.377-0.543-0.096-0.734,0.049l-0.279-0.137
		l0.216-0.144l-1.654-0.552h-0.017l0.352-0.232l-1.184-0.158l-0.479-0.233l0.312-0.294l-1.206-0.139l-0.023-0.021l-0.159-0.448
		l-1.111-0.159l-0.36-0.168l-0.254-0.646l-7.291-2.975l-0.855-0.416l0.695-0.64l-1.414-0.257l0.008-0.096l-0.863-0.486l-0.063,0.143
		c-0.562,0.186-0.527-1.149-1.048-0.525l-0.127-0.536l-1.232-0.177l0.112-0.096c-0.495-0.574-1.653,0.057-1.662-0.566l-1.03,0.063
		l-0.449-0.207l0.209-0.385c-1.456-0.6-3.438-1.318-4.779-1.807l-1.415-0.695l-5.253,9.825c-0.366,0.511-0.526,0.999-0.815,1.534
		l-1.679,3.142l-0.271,0.072c-0.119,0.19-0.056,0.432-0.095,0.639l-0.512,0.937l0.926,1.432c0.146,0.271,0.297,0.527,0.537,0.814
		l2.263,3.523l1.149,0.553c0.633,0.312,1.303,0.688,1.951,1.016l-0.415,0.08l0.357,0.584l0.562,0.023l-0.208,0.367l2.039,1.039
		l-0.08-0.551l1.357,0.631l-0.335,0.527l0.433,0.023l-0.544,0.544c0.646-0.776,1.373,0.335,1.652,0.304l-0.127,0.088l0.528-0.2
		l-0.025,1.247l2.575,1.4l2.158,0.344l0.312,0.654c-0.432,0.455-0.168,1.375-1.03,1.198c0.504-0.319,0.486,0.146,0.664,0.328
		l-0.01-0.601c-0.039-0.742,1.071,0.512,0.92-0.438l2.461,1.407l-0.494,0.6l2.077,0.414l0.288-0.91l0.567,0.008l0.08,1.504
		l-1.111,0.184l-1.823-0.655c-0.895,0.288,0.4,0.295-0.03,0.823l1.791,0.376l0.432-0.521c1.038-0.239,0.632,0.896,0.791,1.031
		l-0.432-0.04l1.198,0.433c-0.286,0.871-0.84-0.328-1.278,0.063l0.049,0.759l1.238,0.071l-0.248,0.24l0.583,0.08l-0.144-0.943
		c0.671-0.639,0.433,0.097,1.191,0.295l-0.089-0.543l0.968-0.079l0.104,1.006l-0.415-0.375c-0.92,0.098-0.209,1.071-0.822,1.119
		l1.237,0.098l0.023-0.688c1.504-0.712,0.111,1.149,1.087,1.422c0.209-0.854,1.688-0.463,1.504-1.614l0.791,0.129l-0.486,0.887
		l0.303,0.177l-0.79,0.358l0.622,1.552l0.704-0.433l0.11,0.688c-0.351-0.456,0.376-0.735,0.722-0.712l0.463,1.008l-0.68,0.217
		l0.479,0.286l0.992-0.854l0.495,0.495l-0.607,0.072l0.44,0.989l0.357-0.328l-0.12,0.449l0.784-0.019l-0.104,0.281
		c0.336-0.039,0.982-0.464,1.03,0.248l-0.624-0.72l0.808-0.231c-0.366,0.688,0.641,0.439,0.944,0.6l0.207,0.752l0.358-0.385
		c-0.312,0.937,0.688,0.145,0.952,0.553l-0.256,0.798l1.103-1.094c0.576,0.487-0.552,0.791-0.559,1.343l1.142,0.032l0.521-0.673
		l0.119,0.673l0.535-0.743l1.224,0.344l1.015-0.432l0.736-0.936c0.048,0.021,0.104,0.039,0.183,0.071
		c-0.168,0.079-0.486,0.127-0.432,0.542l0.384,0.049c0.208,0.936-1.55,0.84-1.318,1.639l0.513-0.111l-0.386,0.775l1.098,0.111
		l-0.177-0.318l1.454-0.129l-0.327,0.854l0.646-0.087l-0.143,0.264c1.639,0.672,3.789,1.397,5.539,0.79l1.414,1.425l0.327-0.473
		l0.257,0.68l1.701,0.055l0.025,0.44l0.734-0.19l0.207,0.486l0.12-0.334l0.937,0.582l0.191-0.406l2.613,0.229l-0.288-0.733
		l0.583-0.265l-0.127,0.663c1.046,0.879,2.726,0.256,4.133,0.456l0.353-0.376l2.981,0.32l0.559-1.041
		c0.536-0.543,0.28,0.744,0.833,1.088l0.943-0.264v0.088l1.196-0.185l-0.069,0.058l1.062,0.344l1.049-0.633l0.078,0.207l-0.03-0.424
		l0.688,0.25l-0.263,0.471c0.741,0.304,0.143-0.393,0.471-0.625c0.129,0.138,2.782-2.853,2.006-1.781
		c-0.552,0.943,1.488-1.271-1.727,2.07c-1.701,2.063,2.325-2.157,2.063-1.83l-0.345-0.553l0.521-0.822l-0.313-0.791l-0.584,0.639
		l0.081-0.679l-0.208-0.376l0.671-0.353l-0.272-1.047l1.178-0.231l-0.4-0.672l0.407-0.295c0.399-1.023-1.158-1.271-0.606-2.047
		l0.392-0.104l-0.176-0.407c1.318-0.562,0.654-2.414,1.398-3.534l-0.335-0.854c0.694,0.176-0.025-0.695,0.447-0.959L467.705,368.48z
		 M398.648,357.658l0.186-0.943L398.648,357.658z"/>
	<line fill="none" x1="398.648" y1="357.658" x2="398.841" y2="356.713"/>
	<polygon fill="#D773B2" points="408.561,365.723 408.249,365.891 408.689,365.986 	"/>
	<line fill="none" x1="411.335" y1="367.433" x2="410.055" y2="367.369"/>
	<line fill="none" x1="413.46" y1="369.912" x2="413.165" y2="370.134"/>
	<line fill="none" x1="414.26" y1="369.967" x2="413.99" y2="369.447"/>
	<line fill="none" x1="420.063" y1="373.692" x2="419.529" y2="373.332"/>
	<polygon fill="#D773B2" points="422.462,374.42 422.381,374.771 422.694,374.531 	"/>
	<path fill="#D773B2" d="M143.126,198.699l0.016,0.011C143.607,198.214,143.443,198.362,143.126,198.699z"/>
	<polygon fill="#D773B2" points="109.362,195.297 109.345,195.29 108.626,195.604 	"/>
	<path fill="#D773B2" d="M85.844,184.166c-0.132,0.044-0.107-0.08-0.184-0.136l0.023,0.632L85.844,184.166z"/>
	<polygon fill="#D773B2" points="143.77,191.379 143.69,191.4 143.746,191.561 	"/>
	<polygon fill="#D773B2" points="142.519,196.487 142.519,196.509 142.626,196.68 	"/>
	<path fill="#D773B2" d="M121.004,171.644l0.276,0.024c0-0.04,0.1-0.04,0.072-0.1L121.004,171.644z"/>
	<polygon fill="#D773B2" points="143.802,191.053 143.77,191.379 144.078,191.304 	"/>
	<path fill="#D773B2" d="M70.405,170.306l2.302,3.537l1.139,0.539c0.62,0.312,1.3,0.688,1.931,1.012l-0.416,0.091l0.372,0.587
		l0.571,0.021l-0.228,0.363l2.039,1.044l-0.092-0.544l1.358,0.631l-0.332,0.523l0.429,0.02l-0.544,0.543
		c0.66-0.755,1.396,0.336,1.655,0.312l-0.128,0.088l0.527-0.195l-0.024,1.247l2.594,1.394l2.162,0.336l0.309,0.663
		c-0.433,0.459-0.156,1.383-1.031,1.199c0.504-0.313,0.5,0.151,0.668,0.324l-0.008-0.591c-0.021-0.748,1.066,0.512,0.938-0.436
		l2.446,1.407l-0.484,0.588l2.066,0.432l0.313-0.923l0.544,0.016l0.075,1.511l-1.107,0.164l-1.815-0.644
		c-0.883,0.289,0.393,0.308-0.023,0.815l1.782,0.388l0.433-0.516c1.015-0.239,0.627,0.896,0.788,1.023l-0.437-0.032l1.195,0.432
		c-0.292,0.867-0.839-0.32-1.279,0.056l0.047,0.764l1.229,0.08l-0.236,0.22l0.579,0.084l-0.167-0.96
		c0.707-0.627,0.477,0.104,1.199,0.296l-0.084-0.536l0.983-0.095l0.08,1.035l-0.416-0.383c-0.898,0.087-0.18,1.051-0.814,1.119
		l1.239,0.092l0.02-0.691c1.507-0.707,0.108,1.16,1.095,1.415c0.208-0.851,1.688-0.464,1.499-1.606l0.791,0.124l-0.482,0.887
		l0.308,0.156l-0.791,0.372l0.615,1.539l0.708-0.42l0.132,0.692c-0.384-0.46,0.356-0.74,0.704-0.716l0.459,1.003l-0.647,0.212
		l0.459,0.304l0.987-0.879l0.507,0.508l-0.631,0.063l0.464,0.996l0.375-0.32l-0.128,0.444l0.765-0.016l-0.076,0.287
		c0.343-0.036,0.963-0.459,1.03,0.236l-0.636-0.695l0.796-0.239c-0.355,0.679,0.659,0.427,0.943,0.607l0.232,0.752l0.344-0.388
		c-0.313,0.939,0.704,0.152,0.967,0.563l-0.252,0.799l1.088-1.111c0.583,0.496-0.552,0.795-0.556,1.351l1.163,0.028l0.503-0.66
		l0.111,0.667l0.548-0.735l1.215,0.339l1.026-0.427l0.731-0.94c0.063,0.024,0.124,0.048,0.188,0.077
		c-0.18,0.063-0.491,0.112-0.432,0.531l0.408,0.041c0.191,0.943-1.561,0.851-1.327,1.634l0.484-0.108l-0.364,0.788l1.083,0.104
		l-0.16-0.308l1.451-0.128l-0.32,0.859l0.636-0.08l-0.132,0.244c1.644,0.688,3.789,1.407,5.543,0.804l1.387,1.407l0.336-0.476
		l0.271,0.68l1.684,0.072l0.048,0.436l0.694-0.199l0.2,0.484l0.16-0.348l0.903,0.583l0.223-0.407l2.606,0.24l-0.305-0.748
		l0.543-0.228l-0.084,0.671c1.016,0.867,2.702,0.232,4.104,0.439l0.363-0.379l2.979,0.332l0.575-1.055
		c0.536-0.523,0.268,0.759,0.824,1.096l0.95-0.265l-0.02,0.088l1.203-0.172l-0.064,0.032l1.072,0.36l1.035-0.62l0.104,0.196
		l-0.048-0.428l0.7,0.252l-0.284,0.467c0.759,0.305,0.179-0.396,0.483-0.615c2.905-2.897,1.071-1.083,1.982-1.807
		c-0.54,0.955,1.439-1.302-1.69,2.083c-0.339,0.571,1.339-1.171,2.011-1.87l-0.328-0.52l0.524-0.839l-0.315-0.788l-0.596,0.64
		l0.11-0.687l-0.224-0.356l0.659-0.356l-0.269-1.051l1.172-0.231l-0.385-0.655l0.389-0.304c0.419-1.019-1.159-1.279-0.604-2.054
		l0.432-0.1l-0.207-0.4c1.313-0.563,0.667-2.43,1.422-3.544l-0.332-0.852c0.688,0.176-0.027-0.695,0.452-0.959l-0.728,0.068
		c0.531-0.664-0.884-1.359,0.031-1.679l0.563,0.404c1.327-0.432-3.069-4.964-1.985-3.645l-0.788,0.74l-0.655-1.212l-0.747-0.235
		l0.399-0.127l-1.567-0.32l-1.55-1.372c-0.635,0.444-0.855-0.704-1.259,0.049l0.012-0.28l-1.039,0.432l0.328-0.464l-0.688-0.879
		l-0.534,0.219l-0.388,0.017l-0.88-0.024l0.24-0.528l-0.955-0.384c-0.012-0.044-0.063-0.1-0.232-0.144l-0.439-0.456l0.285-0.356
		l-1.131,0.196c-0.815-0.847-2.75-1.287-3.273-1.263l0.276-0.063l-0.788-0.176l-0.588-0.676l-0.104,0.376
		c-0.512-0.996-2.002-0.464-2.765-1.347l0.575-0.196l-2.546-0.151l0.439-0.356l-1.271-0.127c-0.021,0.384-0.604,0.456-0.844,0.231
		l0.032-0.088l-1.14-0.251l0.308-0.292l-1.022-1.076l-0.452,0.284l-0.288-0.56l-1.547,0.623l-0.104-0.055l0.355-0.68l-1.335,0.216
		L113.065,169l0.579-0.671l-2.051-1.144c0.093,0.844-0.782,0.212-1.171,0.536l-0.194-0.092l-0.301-0.848l-2.321-0.947l0.104-0.104
		l-2.57-0.547l-0.088-0.04l0.279-0.276c-0.396-0.375-0.547-0.092-0.759,0.057l-0.28-0.145l0.229-0.151l-1.655-0.544h-0.024
		l0.359-0.228l-1.179-0.171l-0.496-0.229l0.296-0.295l-1.171-0.132l-0.044-0.024l-0.14-0.451l-1.127-0.164L99,162.223l-0.276-0.64
		l-7.277-2.981l-0.853-0.412l0.688-0.647l-1.407-0.244l0.004-0.1l-0.858-0.496l-0.067,0.137c-0.563,0.18-0.527-1.143-1.067-0.524
		l-0.115-0.535l-1.229-0.188l0.113-0.083c-0.496-0.588-1.655,0.056-1.663-0.568l-1.043,0.068l-0.437-0.192l0.204-0.392
		c-1.467-0.604-3.433-1.315-4.775-1.802l-1.327-0.636l-0.104-0.056l-5.212,9.825c-0.388,0.527-0.543,1.015-0.823,1.554l-1.667,3.13
		l-0.271,0.076c-0.12,0.191-0.048,0.416-0.088,0.631l-0.521,0.943l0.939,1.422C70.036,169.77,70.197,170.021,70.405,170.306z
		 M75.437,173.998l-0.164,0.939L75.437,173.998z"/>
	<line fill="none" x1="75.273" y1="174.937" x2="75.437" y2="173.998"/>
	<polygon fill="#D773B2" points="85.18,183.002 84.845,183.167 85.281,183.263 	"/>
	<line fill="none" x1="87.943" y1="184.708" x2="86.659" y2="184.638"/>
	<line fill="none" x1="90.08" y1="187.18" x2="89.752" y2="187.419"/>
	<line fill="none" x1="90.884" y1="187.244" x2="90.588" y2="186.721"/>
	<line fill="none" x1="96.667" y1="190.96" x2="96.132" y2="190.621"/>
	<polygon fill="#D773B2" points="99.001,192.06 99.293,191.809 99.081,191.691 	"/>
	<polygon fill="#D773B2" points="144.734,185.337 145.013,185.42 144.933,185.074 	"/>
	<line fill="none" x1="122.95" y1="171.016" x2="123.074" y2="171.423"/>
	<polygon fill="#D773B2" points="110.529,166.962 110.336,167.506 110.609,167 	"/>
	<path fill="#D773B2" d="M411.502,435.211l-0.991,0.367l-0.137-1.391l-0.583-0.527l0.424,0.039l-1.304-0.91l-0.855-1.887
		c-0.751,0.143-0.495-0.982-1.189-0.465l0.129-0.238l-1.145-0.048l0.488-0.28l-0.272-1.063l-0.553-0.008l-0.383-0.16l-0.8-0.383
		l0.432-0.377l-0.719-0.743c0.007-0.058-0.008-0.112-0.146-0.224l-0.224-0.592l0.408-0.216l-1.127-0.272l-2.472-2.484l0.271,0.04
		l-0.639-0.465l-0.271-0.854l-0.24,0.311l-2.006-2.364l0.631,0.058l-2.27-1.168l0.535-0.146l-1.279-0.695l-0.688-0.047l0.071-0.073
		l-0.928-0.688l0.393-0.15l-0.52-1.392l-0.529,0.071l-0.048-0.631l-1.638-0.057l-0.08-0.096l0.584-0.465l-1.295-0.344l-1.551-1.83
		l0.791-0.384l-1.416-1.862c-0.278,0.807-0.798-0.097-1.277,0.039l-0.264-0.278c-0.104-0.328,0.23-0.536,0.159-0.808l-1.76-1.791
		l0.152-0.08l-2.134-1.511l-0.057-0.088l0.352-0.128c-0.191-0.486-0.439-0.297-0.688-0.264l-0.224-0.233l0.272-0.047l-1.296-1.167
		l-0.022-0.008l0.406-0.072l-1.006-0.615l-0.359-0.433l0.423-0.127l-1.039-0.616l-0.023-0.023l0.041-0.479l-0.951-0.593
		l-0.273-0.296l0.025-0.694l-5.468-5.636l-0.633-0.743c0.257-0.634,0.735,0.208,0.911-0.306c-0.464,0.4-0.464-0.277-1.189-0.808
		l0.032-0.095l-0.585-0.791l-0.119,0.127c-0.593-0.079-0.018-1.247-0.77-0.902l0.121-0.544l-1.063-0.663l0.135-0.039l-1.278-1.185
		l-0.959-0.345l-0.328-0.383l0.336-0.272c-1.071-1.103-2.565-2.524-3.572-3.483l-1.104-1.287l-8.753,6.914
		c-0.552,0.319-0.896,0.688-1.351,1.055l-2.822,2.215l-0.279-0.048c-0.177,0.129-0.177,0.36-0.328,0.521l-0.831,0.662l0.278,1.688
		c0.018,0.313,0.041,0.625,0.129,0.943l0.68,4.125l0.863,0.991c0.447,0.534,0.911,1.144,1.375,1.71l-0.432-0.097l0.12,0.688
		l0.503,0.231l-0.359,0.257l1.454,1.782l0.145-0.536l0.999,1.12l-0.534,0.335l0.398,0.2l-0.744,0.264
		c0.904-0.432,1.137,0.88,1.399,0.949l-0.145,0.033c0.216,0.809,0.248-0.353,0.567,0.041l-0.527,1.144l1.808,2.317l1.847,1.174
		l0.008,0.729l-1.415,0.68l0.439,0.633l0.265-0.592c0.271-0.695,0.751,0.887,1.03-0.023l1.663,2.27l-0.688,0.336l1.711,1.199
		l0.646-0.703l0.527,0.238l-0.535,1.398c-0.752,0.336-0.68-1.006-1.104-0.278c-0.688,0.127-1.519-0.871-1.397-1.328
		c-0.929-0.095,0.256,0.44-0.353,0.735l1.454,1.08l0.616-0.305c1.039,0.192,0.224,1.078,0.312,1.247l-0.384-0.19l0.943,0.877
		c-0.607,0.688-0.633-0.639-1.215-0.461l-0.248,0.711l1.095,0.574l-0.336,0.104l0.536,0.318l0.224-0.926
		c0.887-0.304,0.376,0.265,0.968,0.743l0.127-0.536l0.943,0.305l-0.327,0.992l-0.232-0.528c-0.847-0.279-0.582,0.896-1.19,0.694
		c0.152,0.793,0.808,0.049,1.096,0.576c-0.592-0.328,0.225-0.352,0.288-0.625c1.671-0.021-0.376,1.104,0.424,1.729
		c0.552-0.688,1.734,0.278,2.037-0.856l0.672,0.432l-0.799,0.617l0.216,0.278l-0.87,0.017l-0.057,1.662l0.814-0.104l-0.177,0.67
		l0.96-0.352l-0.017,1.097l-0.696-0.08l0.336,0.479l1.248-0.416l0.256,0.688l-0.593-0.198l0.018,1.103l0.471-0.144l-0.286,0.328
		l0.703,0.317l-0.201,0.232c0.346,0.112,1.072-0.039,0.841,0.631l-0.271-0.895l0.832,0.127c-0.615,0.465,0.416,0.641,0.631,0.92
		l-0.111,0.792l0.463-0.231c-0.646,0.742,0.585,0.433,0.688,0.902l-0.568,0.641l1.439-0.576c0.344,0.688-0.815,0.496-1.056,0.992
		l1.069,0.527l0.722-0.408l-0.186,0.655l0.816-0.438l0.99,0.791l1.088,0.023l1.07-0.56c0.057,0.038,0.096,0.087,0.136,0.143
		c-0.191-0.03-0.52-0.104-0.6,0.312l0.313,0.193c-0.177,0.942-1.734,0.168-1.854,0.959l0.512,0.111l-0.688,0.561l0.976,0.535
		l-0.039-0.345l1.406,0.479l-0.646,0.64l0.623,0.176l-0.224,0.177c1.215,1.295,2.886,2.822,4.732,2.975l0.727,1.854l0.488-0.287
		l-0.033,0.734l1.536,0.736l-0.16,0.424l0.743,0.104l-0.022,0.512l0.271-0.265l0.631,0.904l0.344-0.28l2.277,1.256l0.025-0.785
		l0.614-0.008l-0.367,0.576c0.584,1.223,2.382,1.326,3.613,2.071l0.471-0.192l2.592,1.494l0.941-0.719
		c0.688-0.28-0.049,0.8,0.306,1.318l0.981,0.15l-0.081,0.08l1.169,0.313l-0.063,0.018l0.814,0.759l1.206-0.159l0.025,0.231
		l0.128-0.409l0.526,0.505l-0.438,0.32l0.687-0.36c3.807-1.504,1.398-0.591,2.512-0.887c-0.855,0.646,1.869-0.617-2.374,1.229
		c-0.521,0.394,1.701-0.535,2.604-0.901l-0.08-0.616l0.8-0.552l0.048-0.847l-0.815,0.353l0.376-0.577l-0.063-0.432l0.767-0.063
		l0.161-1.071l1.183,0.265l-0.11-0.774l0.486-0.096c0.801-0.768-0.534-1.639,0.271-2.118l0.432,0.078l-0.016-0.47
		c1.423,0.029,1.565-1.936,2.718-2.663l0.04-0.902l0.799-0.712l-0.694-0.208c0.742-0.415-0.247-1.601,0.72-1.526l0.359,0.607
		C413.245,439.488,411.072,433.572,411.502,435.211z M352.013,402.565l0.528-0.784L352.013,402.565z"/>
	<polygon fill="#D773B2" points="395.148,418.018 395.219,418.064 395.506,418.074 	"/>
	<polygon fill="#D773B2" points="408.202,444.947 408.034,445.244 408.345,445.299 	"/>
	<polygon fill="#D773B2" points="408.034,445.244 407.937,445.236 407.937,445.396 	"/>
	<polygon fill="#D773B2" points="357.953,415.275 357.817,415.139 357.601,415.674 	"/>
	<path fill="#D773B2" d="M404.483,451.67v0.023C405.116,451.416,404.908,451.502,404.483,451.67z"/>
	<polygon fill="#D773B2" points="404.836,449.41 404.819,449.449 404.844,449.633 	"/>
	<polygon fill="#D773B2" points="374.981,434.963 374.981,434.957 374.172,434.949 	"/>
	<line fill="none" x1="352.013" y1="402.565" x2="352.533" y2="401.773"/>
	<polygon fill="#D773B2" points="357.45,413.973 357.808,414.244 357.808,413.949 	"/>
	<line fill="none" x1="359.648" y1="416.643" x2="358.521" y2="416.049"/>
	<line fill="none" x1="360.608" y1="419.768" x2="360.232" y2="419.847"/>
	<line fill="none" x1="361.319" y1="420.144" x2="361.262" y2="419.553"/>
	<line fill="none" x1="365.115" y1="425.875" x2="364.755" y2="425.332"/>
	<polygon fill="#D773B2" points="366.794,427.817 367.168,427.722 367.018,427.514 	"/>
	<polygon fill="#D773B2" points="411.55,440.287 411.607,439.928 411.327,440.096 	"/>
	<line fill="none" x1="397.17" y1="418.209" x2="397.122" y2="418.641"/>
	<polygon fill="#D773B2" points="387.513,409.567 387.434,409.488 387.05,409.92 	"/>
	<polygon fill="#D773B2" points="182.627,151.791 182.595,151.828 182.64,152.003 	"/>
	<polygon fill="#D773B2" points="172.939,120.373 173.05,120.42 173.302,120.439 	"/>
	<polygon fill="#D773B2" points="185.825,147.614 185.73,147.599 185.725,147.767 	"/>
	<polygon fill="#D773B2" points="135.704,117.623 135.593,117.499 135.384,118.03 	"/>
	<polygon fill="#D773B2" points="185.997,147.328 185.825,147.614 186.14,147.675 	"/>
	<line fill="none" x1="151.955" y1="137.291" x2="152.755" y2="137.312"/>
	<path fill="#D773B2" d="M127.171,98.742l0.685,4.132l0.839,0.96c0.464,0.547,0.912,1.163,1.354,1.723l-0.424-0.1l0.097,0.691
		l0.512,0.229l-0.355,0.255l1.471,1.783l0.133-0.547l1.003,1.119l-0.543,0.332l0.398,0.208l-0.74,0.276
		c0.92-0.432,1.128,0.867,1.407,0.955l-0.18,0.028c0.23,0.792,0.248-0.372,0.583,0.024l-0.52,1.147l1.804,2.31l1.838,1.187
		l0.023,0.723l-1.431,0.692l0.463,0.635l0.244-0.607c0.284-0.708,0.767,0.887,1.043-0.028l1.655,2.278l-0.681,0.352l1.707,1.215
		l0.647-0.727l0.527,0.244l-0.536,1.403c-0.759,0.328-0.675-1.021-1.096-0.292c-0.683,0.136-1.542-0.867-1.397-1.319
		c-0.944-0.104,0.235,0.436-0.349,0.744l1.472,1.066l0.595-0.303c1.043,0.195,0.204,1.067,0.304,1.255l-0.379-0.208l0.928,0.878
		c-0.612,0.676-0.624-0.635-1.18-0.459l-0.268,0.708l1.079,0.571l-0.305,0.12l0.491,0.316l0.256-0.932
		c0.867-0.292,0.353,0.256,0.964,0.748l0.131-0.532l0.932,0.304l-0.324,0.971l-0.231-0.507c-0.867-0.28-0.604,0.896-1.202,0.695
		c0.167,0.776,0.795,0.048,1.09,0.572c-0.551-0.328,0.232-0.36,0.313-0.62c1.67-0.024-0.36,1.115,0.432,1.739
		c0.531-0.692,1.722,0.268,2.018-0.88l0.68,0.448l-0.812,0.603l0.225,0.288l-0.859,0.012l-0.073,1.655l0.809-0.1l-0.147,0.68
		l0.939-0.356l0.02,1.099l-0.687-0.071l0.314,0.459l1.247-0.399l0.256,0.667l-0.591-0.191l0.02,1.099l0.464-0.136l-0.301,0.34
		l0.716,0.296l-0.195,0.228c0.323,0.108,1.071-0.028,0.851,0.644l-0.296-0.899l0.819,0.112c-0.604,0.468,0.432,0.639,0.635,0.931
		l-0.108,0.78l0.479-0.228c-0.659,0.736,0.584,0.436,0.651,0.919l-0.56,0.627l1.451-0.571c0.336,0.688-0.843,0.503-1.059,1.003
		l1.043,0.496l0.738-0.392l-0.184,0.656l0.824-0.456l0.975,0.808l1.104,0.02l1.043-0.576c0.052,0.052,0.091,0.104,0.136,0.16
		c-0.188-0.012-0.5-0.096-0.592,0.324l0.319,0.192c-0.195,0.939-1.759,0.148-1.862,0.952l0.5,0.103l-0.656,0.564l0.952,0.552
		l-0.017-0.363l1.367,0.463l-0.64,0.668l0.644,0.188l-0.248,0.164c1.247,1.287,2.914,2.817,4.761,2.978l0.712,1.846l0.503-0.279
		l-0.064,0.715l1.531,0.748l-0.125,0.432l0.724,0.083l-0.008,0.528l0.276-0.26l0.606,0.907l0.345-0.284l2.313,1.271l0.008-0.791
		h0.627l-0.384,0.567c0.601,1.223,2.39,1.331,3.598,2.075l0.472-0.204l2.602,1.503l0.928-0.731c0.735-0.264-0.044,0.795,0.34,1.339
		l0.964,0.139l-0.044,0.084l1.187,0.316l-0.076,0.003l0.832,0.772l1.191-0.164l0.021,0.235l0.116-0.419l0.535,0.503l-0.419,0.324
		l0.688-0.363c3.823-1.459,1.398-0.564,2.518-0.852c-0.863,0.647,1.866-0.6-2.396,1.195c-2.369,1.243,2.998-1.043,2.614-0.852
		l-0.1-0.639l0.808-0.548l0.057-0.844l-0.819,0.353l0.372-0.564l-0.064-0.443l0.744-0.06l0.199-1.067l1.18,0.26l-0.116-0.768
		l0.492-0.104c0.798-0.768-0.536-1.635,0.275-2.126l0.42,0.083l-0.029-0.459c1.437,0.024,1.596-1.943,2.743-2.674l0.036-0.903
		l0.799-0.699l-0.699-0.228c0.739-0.412-0.252-1.579,0.711-1.515l0.368,0.596c1.379,0.14-0.791-5.788-0.332-4.146l-1.032,0.368
		l-0.111-1.379l-0.597-0.523l0.429,0.012l-1.308-0.908l-0.871-1.891c-0.743,0.153-0.491-0.991-1.176-0.467l0.108-0.259l-1.119-0.016
		l0.499-0.296l-0.275-1.055l-0.574-0.028l-0.375-0.156l-0.792-0.367l0.439-0.384l-0.74-0.76c0.004-0.052-0.012-0.099-0.147-0.199
		l-0.212-0.599l0.396-0.201l-1.12-0.276l-2.48-2.489l0.283,0.052l-0.647-0.472l-0.275-0.848l-0.231,0.308l-1.99-2.366l0.601,0.036
		l-2.268-1.163l0.54-0.144l-1.247-0.703l-0.723-0.044l0.067-0.076l-0.939-0.695l0.399-0.136l-0.491-1.391l-0.561,0.075l-0.021-0.623
		l-1.655-0.052l-0.087-0.1l0.603-0.468l-1.314-0.348l-1.542-1.826l0.792-0.388l-1.427-1.871c-0.252,0.807-0.801-0.1-1.275,0.044
		l-0.229-0.272c-0.14-0.332,0.213-0.536,0.142-0.807l-1.747-1.803l0.124-0.076l-2.095-1.483l-0.096-0.104l0.385-0.128
		c-0.221-0.499-0.48-0.303-0.717-0.267l-0.212-0.244l0.256-0.052l-1.295-1.155l-0.016-0.004l0.412-0.072l-0.995-0.616l-0.364-0.424
		l0.399-0.14l-1.047-0.619l-0.017-0.016l0.034-0.476l-0.944-0.604l-0.271-0.299l0.028-0.715l-5.443-5.624l-0.644-0.751
		c0.239-0.62,0.73,0.208,0.902-0.313c-0.475,0.404-0.463-0.275-1.194-0.803l0.056-0.084l-0.604-0.804l-0.107,0.124
		c-0.583-0.067-0.017-1.25-0.771-0.907l0.116-0.543l-1.043-0.664l0.112-0.036l-1.277-1.187l-0.967-0.348l-0.324-0.383l0.34-0.268
		c-1.11-1.183-2.723-2.682-3.709-3.665l-0.979-1.139l-8.729,6.894c-0.535,0.328-0.891,0.704-1.347,1.076l-2.806,2.214l-0.252-0.036
		c-0.2,0.124-0.229,0.368-0.355,0.528l-0.848,0.679l0.263,1.626C127.055,98.089,127.087,98.401,127.171,98.742z M130.317,104.128
		l-0.552,0.784L130.317,104.128z"/>
	<line fill="none" x1="129.765" y1="104.913" x2="130.317" y2="104.128"/>
	<polygon fill="#D773B2" points="135.216,116.319 135.584,116.58 135.584,116.295 	"/>
	<line fill="none" x1="137.423" y1="118.978" x2="136.288" y2="118.401"/>
	<line fill="none" x1="138.386" y1="122.106" x2="137.983" y2="122.194"/>
	<line fill="none" x1="139.094" y1="122.486" x2="139.023" y2="121.892"/>
	<line fill="none" x1="142.903" y1="128.227" x2="142.539" y2="127.673"/>
	<polygon fill="#D773B2" points="144.577,130.161 144.953,130.057 144.792,129.856 	"/>
	<polygon fill="#D773B2" points="189.342,142.654 189.406,142.298 189.126,142.462 	"/>
	<line fill="none" x1="174.913" y1="121.003" x2="174.982" y2="120.587"/>
	<polygon fill="#D773B2" points="165.241,111.862 164.862,112.291 165.296,111.927 	"/>
	<path fill="#D773B2" d="M331.399,478.666l0.446-1.32l-0.326-0.703l0.375,0.208l-0.815-1.358l-0.04-2.078
		c-0.751-0.16-0.057-1.104-0.887-0.903l0.216-0.167l-1.023-0.495l0.553-0.063c0.702-0.145-0.128-0.89,0.199-1.098l-0.504-0.23
		l-0.289-0.305l-0.582-0.654l0.575-0.176l-0.384-0.99c0.024-0.058,0.024-0.104-0.048-0.241l0.072-0.64l0.438-0.023l-0.919-0.703
		c0.063-1.184-0.912-2.895-1.279-3.286l0.239,0.16l-0.392-0.687l0.071-0.896l-0.327,0.184l-0.88-2.957l0.544,0.279l-1.606-1.982
		l0.544,0.088l-0.863-1.143l-0.632-0.345l0.097-0.017l-0.584-1.008l0.416,0.019c0.639-0.32,0.071-1.337,0.104-1.464l-0.504-0.151
		l0.216-0.585l-1.504-0.71l-0.038-0.128l0.735-0.186l-1.031-0.838l-0.704-2.318l0.888-0.024l-0.56-2.293
		c-0.561,0.647-0.688-0.384-1.186-0.473l-0.103-0.343c0.024-0.354,0.408-0.385,0.456-0.664l-0.888-2.366h0.168l-1.335-2.247
		l-0.024-0.111l0.375,0.024c0.025-0.535-0.287-0.456-0.519-0.513l-0.112-0.304l0.28,0.063l-0.743-1.607l0.398,0.105l-0.64-0.969
		l-0.176-0.535l0.432,0.024l-0.695-0.968l-0.023-0.04l0.248-0.407l-0.647-0.943l-0.11-0.369l0.312-0.621l-2.718-7.41l-0.296-0.896
		c0.486-0.472,0.606,0.496,0.976,0.082c-0.584,0.189-0.328-0.425-0.774-1.217l0.078-0.063l-0.224-0.977l-0.16,0.063
		c-0.486-0.295,0.513-1.143-0.327-1.127l0.327-0.463l-0.688-1.039l0.137,0.024c0.088-0.76-1.168-1.184-0.712-1.608l-0.735-0.711
		l-0.137-0.479l0.432-0.087c-0.551-1.52-1.397-3.549-1.926-4.844l-0.432-1.448l-10.775,2.782c-0.632,0.072-1.11,0.271-1.688,0.433
		l-3.452,0.896l-0.24-0.145c-0.216,0.049-0.319,0.24-0.512,0.336l-1.056,0.271l-0.416,1.631c-0.104,0.305-0.19,0.615-0.256,0.935
		l-1.087,4.062l0.393,1.238c0.208,0.674,0.376,1.424,0.566,2.127l-0.344-0.279l-0.191,0.673l0.385,0.424l-0.416,0.104l0.6,2.197
		l0.344-0.433l0.447,1.424l-0.623,0.104l0.279,0.336l-0.791-0.033c1.022-0.048,0.688,1.247,0.902,1.434l-0.159-0.033
		c-0.104,0.814,0.376-0.231,0.512,0.256l-0.927,0.83l0.719,2.854l1.175,1.813c0.152,0.592-0.719,0.16-0.255,0.673
		c-0.632-0.017-1.144,0.815-1.599,0.04l0.19,0.76l0.464-0.457c0.534-0.52,0.345,1.15,0.959,0.393l0.601,2.773l-0.743,0.039
		l1.047,1.8l0.903-0.384l0.352,0.423l-1.047,1.071c-0.823-0.016-0.208-1.199-0.888-0.711l-0.735-1.783
		c-0.808-0.446,0.032,0.504-0.623,0.544l0.911,1.565l0.671-0.03c0.855,0.592-0.247,1.063-0.224,1.278l-0.271-0.344l0.495,1.191
		c-0.847,0.352-0.312-0.842-0.903-0.904l-0.526,0.551c0.136,0.855,0.768,0.041,0.774,0.969l-0.352-0.023l0.336,0.48l0.6-0.752
		l0.583,1.086l0.353-0.438l0.728,0.663l-0.688,0.76v-0.56l-1.406,0.151l0.791,0.959c-0.392-0.537,0.353-0.23,0.521-0.439
		c1.551,0.641-0.775,0.863-0.288,1.76c0.76-0.432,1.472,0.943,2.207,0.016l0.432,0.68l-0.991,0.232l0.08,0.342l-0.793-0.318
		l-0.719,1.479l0.784,0.24l-0.425,0.559l1.022,0.057l-0.448,1.008l-0.605-0.344l0.08,0.536l1.317,0.143l-0.022,0.712l-0.473-0.414
		l-0.432,1.03l0.479,0.04l-0.399,0.215l0.535,0.543l-0.279,0.146l0.512,0.919l0.104-0.942c0.438-0.457,0.606,0.343,0.688,0.439
		c-0.734,0.184,0.137,0.752,0.231,1.103l-0.407,0.664l0.504-0.023c-0.88,0.425,0.375,0.641,0.231,1.095l-0.751,0.36l1.551,0.07
		c0.031,0.752-0.943,0.112-1.367,0.487l0.751,0.881l0.84-0.063l-0.416,0.535l0.911-0.096l0.576,1.15l-0.728-0.354
		c0.303,0.889,1.237,0.049,1.71,0.793l1.198-0.08c0.024,0.055,0.04,0.129,0.072,0.185c-0.168-0.073-0.432-0.28-0.688,0.063
		l0.23,0.296c-0.575,0.791-1.679-0.561-2.109,0.137l0.432,0.279l-0.839,0.264l0.672,0.888l0.111-0.336l1.077,1l-0.838,0.328
		l0.479,0.432l-0.289,0.063c0.633,1.686,1.536,3.74,3.167,4.637l-0.112,1.98l0.567-0.063l-0.319,0.642l1.095,1.286l-0.296,0.335
		l0.624,0.393l-0.224,0.465l0.344-0.129c0.398,0.304,0.799,0.791,0.216,1.088l0.433-0.129l1.582,2.078l0.344-0.711l0.56,0.248
		l-0.567,0.375l2.438,3.342l0.527,0.009l1.751,2.43l1.167-0.296c0.775,0.048-0.36,0.72-0.232,1.358l0.84,0.52l-0.079,0.049
		l0.941,0.761l-0.087-0.017l0.464,1.022l1.158,0.343l-0.072,0.217l0.28-0.319l0.265,0.688l-0.495,0.111
		c0.278,0.752,0.383-0.152,0.774-0.063c4.092,0.184,1.486,0.039,2.654,0.231c-1.071,0.256,1.941,0.175-2.671,0.151
		c-0.655,0.144,1.774,0.208,2.75,0.23l0.168-0.592l0.951-0.184l0.376-0.751l-0.896-0.017l0.584-0.359l0.12-0.438l0.71,0.264
		l0.585-0.903c0.278,0.392,0.336,1.007,0.967,0.703l0.231-0.735l0.472,0.096c1.057-0.375,0.186-1.71,1.111-1.822l0.358,0.233
		l0.178-0.416c1.295,0.605,2.237-1.151,3.572-1.344c-0.455-0.528,0.327-0.464,0.407-0.815c0.328,0.641,0.487-0.495,1.023-0.313
		l-0.544-0.487c0.814-0.079,0.408-1.56,1.263-1.109l0.072,0.687c1.199,0.688,1.654-5.594,1.398-3.924L331.399,478.666z
		 M291.118,424.828l0.814-0.488L291.118,424.828z"/>
	<polygon fill="#D773B2" points="324.436,456.388 324.499,456.483 324.732,456.595 	"/>
	<path fill="#D773B2" d="M319.383,490.959l-0.032,0.024C320.054,490.976,319.83,490.984,319.383,490.959z"/>
	<polygon fill="#D773B2" points="291.461,438.857 291.413,438.682 290.983,439.096 	"/>
	<polygon fill="#D773B2" points="320.615,489.033 320.558,489.057 320.519,489.232 	"/>
	<polygon fill="#D773B2" points="325.195,486.508 325.13,486.443 325.051,486.604 	"/>
	<polygon fill="#D773B2" points="325.484,486.307 325.195,486.508 325.484,486.683 	"/>
	<line fill="none" x1="291.118" y1="424.828" x2="291.933" y2="424.332"/>
	<polygon fill="#D773B2" points="291.541,437.465 291.757,437.849 291.876,437.593 	"/>
	<line fill="none" x1="292.468" y1="440.791" x2="291.677" y2="439.791"/>
	<line fill="none" x1="292.084" y1="444.037" x2="291.709" y2="443.963"/>
	<line fill="none" x1="292.764" y1="444.093" x2="292.58" y2="444.666"/>
	<line fill="none" x1="293.755" y1="451.471" x2="293.645" y2="450.808"/>
	<polygon fill="#D773B2" points="294.491,453.894 294.882,453.972 294.842,453.707 	"/>
	<polygon fill="#D773B2" points="330.44,483.389 330.63,483.086 330.32,483.143 	"/>
	<line fill="none" x1="325.994" y1="457.77" x2="326.21" y2="457.402"/>
	<polygon fill="#D773B2" points="320.806,445.492 320.302,445.715 320.855,445.586 	"/>
	<path fill="#D773B2" d="M207.86,63.548l-0.353-0.26l-0.168,0.671l0.38,0.416l-0.432,0.092l0.62,2.214l0.332-0.432l0.46,1.423
		l-0.62,0.104l0.271,0.319l-0.767-0.028c1.007-0.032,0.688,1.255,0.891,1.439l-0.144-0.04c-0.128,0.815,0.352-0.236,0.488,0.264
		l-0.933,0.835l0.72,2.842l1.194,1.823c0.148,0.583-0.755,0.152-0.278,0.663c-0.612-0.012-1.136,0.815-1.571,0.043l0.179,0.764
		l0.473-0.456c0.526-0.532,0.319,1.123,0.942,0.395l0.607,2.754l-0.755,0.044l1.074,1.811l0.871-0.404l0.372,0.432l-1.056,1.075
		c-0.803,0.004-0.2-1.199-0.891-0.703l-0.731-1.783c-0.819-0.468,0.048,0.503-0.64,0.536l0.932,1.571l0.663-0.033
		c0.875,0.604-0.229,1.076-0.229,1.268l-0.271-0.332l0.496,1.179c-0.836,0.372-0.328-0.835-0.889-0.896l-0.53,0.536
		c0.123,0.859,0.767,0.056,0.743,0.975l-0.341-0.028l0.324,0.487l0.636-0.751l0.561,1.087l0.352-0.432l0.731,0.647l-0.692,0.763
		l-0.008-0.567l-1.375,0.16l0.767,0.963c-0.384-0.527,0.356-0.231,0.521-0.456c1.566,0.656-0.76,0.883-0.308,1.763
		c0.774-0.424,1.471,0.939,2.21,0.016l0.432,0.688l-0.955,0.224l0.08,0.348l-0.803-0.34l-0.729,1.5l0.792,0.231l-0.416,0.56
		l1.007,0.044l-0.451,1.015l-0.596-0.353l0.101,0.555l1.303,0.136l-0.028,0.711l-0.471-0.403l-0.428,1.015l0.476,0.052l-0.396,0.191
		l0.531,0.563l-0.279,0.128l0.516,0.919l0.104-0.931c0.443-0.46,0.624,0.348,0.711,0.436c-0.743,0.184,0.128,0.751,0.199,1.107
		l-0.42,0.655h0.536c-0.896,0.411,0.355,0.624,0.232,1.095l-0.772,0.352l1.57,0.064c0.028,0.759-0.979,0.12-1.375,0.492l0.751,0.879
		l0.819-0.076l-0.416,0.544l0.898-0.104l0.601,1.151l-0.743-0.352c0.332,0.887,1.259,0.056,1.733,0.795l1.199-0.088
		c0.012,0.068,0.036,0.128,0.036,0.184c-0.152-0.076-0.416-0.288-0.66,0.048l0.236,0.328c-0.572,0.779-1.679-0.572-2.099,0.12
		l0.408,0.304l-0.828,0.248l0.655,0.879l0.108-0.34l1.092,0.999l-0.863,0.332l0.503,0.424l-0.279,0.064
		c0.604,1.679,1.511,3.745,3.146,4.64l-0.095,1.975l0.583-0.052l-0.324,0.648l1.083,1.283l-0.3,0.328l0.636,0.399l-0.224,0.459
		l0.352-0.127c0.396,0.311,0.804,0.792,0.188,1.075l0.443-0.116l1.587,2.083l0.348-0.723l0.556,0.252l-0.568,0.372l2.446,3.341
		l0.5,0.016l1.791,2.414l1.144-0.292c0.774,0.052-0.355,0.728-0.244,1.363l0.843,0.531l-0.08,0.041l0.943,0.763l-0.08-0.008
		l0.464,1.027l1.149,0.339l-0.075,0.216l0.271-0.327l0.272,0.675l-0.523,0.111c0.28,0.768,0.383-0.151,0.763-0.063
		c4.121,0.188,1.531,0.052,2.683,0.231c-1.063,0.252,1.959,0.188-2.669,0.16c-0.667,0.136,1.767,0.197,2.733,0.225l0.168-0.596
		l0.968-0.18l0.38-0.748l-0.893-0.015l0.58-0.376l0.127-0.42l0.725,0.248l0.563-0.896c0.292,0.38,0.353,0.992,0.983,0.7l0.228-0.739
		l0.484,0.108c1.043-0.38,0.18-1.723,1.116-1.843l0.354,0.24l0.156-0.427c1.314,0.607,2.238-1.147,3.578-1.335
		c-0.452-0.536,0.367-0.467,0.411-0.819c0.332,0.626,0.487-0.488,1.022-0.321l-0.56-0.479c0.852-0.076,0.412-1.559,1.255-1.116
		l0.1,0.7c1.211,0.688,1.586-5.612,1.355-3.933l-1.071-0.072l0.452-1.319l-0.335-0.711l0.354,0.204l-0.808-1.371l-0.044-2.066
		c-0.735-0.152-0.048-1.103-0.879-0.899l0.216-0.172l-1.039-0.484l0.571-0.072c0.695-0.136-0.116-0.898,0.184-1.091l-0.507-0.24
		l-0.288-0.295l-0.548-0.664l0.54-0.168l-0.372-0.991c0.02-0.044,0.032-0.096-0.056-0.248l0.06-0.636l0.44-0.028l-0.924-0.704
		c0.08-1.167-0.888-2.882-1.259-3.277l0.229,0.16l-0.38-0.675l0.075-0.892l-0.332,0.176l-0.87-2.965l0.534,0.284l-1.603-1.975
		l0.544,0.084l-0.859-1.155l-0.636-0.332l0.08-0.032l-0.563-1.011l0.402,0.032c0.647-0.328,0.076-1.335,0.128-1.467l-0.535-0.146
		l0.221-0.6l-1.491-0.716l-0.052-0.128l0.748-0.188l-1.04-0.832l-0.707-2.314l0.898-0.024l-0.552-2.291
		c-0.567,0.636-0.684-0.399-1.183-0.483l-0.108-0.344c0.012-0.348,0.408-0.384,0.448-0.667l-0.864-2.358l0.145-0.012l-1.323-2.222
		l-0.028-0.12l0.38,0.02c0.024-0.528-0.279-0.452-0.536-0.5l-0.092-0.324l0.269,0.072l-0.724-1.606l0.408,0.104L234.196,75
		l-0.145-0.532l0.407,0.028l-0.699-0.967l-0.012-0.044l0.228-0.408l-0.65-0.943l-0.111-0.364l0.312-0.631l-2.706-7.346l-0.296-0.963
		c0.483-0.456,0.6,0.503,0.963,0.088c-0.596,0.192-0.315-0.412-0.755-1.211l0.067-0.056l-0.216-0.979l-0.14,0.064
		c-0.524-0.304,0.472-1.147-0.349-1.139l0.335-0.439l-0.715-1.047l0.142,0.012c0.095-0.756-1.164-1.175-0.688-1.599l-0.74-0.724
		l-0.144-0.464l0.432-0.104c-0.535-1.419-1.295-3.285-1.839-4.581l-0.5-1.662l-10.843,2.774c-0.624,0.076-1.071,0.279-1.634,0.419
		l-3.502,0.891l-0.228-0.14c-0.201,0.048-0.32,0.244-0.496,0.324l-1.035,0.288l-0.432,1.646c-0.108,0.308-0.2,0.588-0.24,0.939
		l-1.066,4.053l0.38,1.247C207.488,62.099,207.688,62.857,207.86,63.548z M208.666,62.347l-0.815,0.495L208.666,62.347z"/>
	<path fill="#D773B2" d="M236.089,128.965v0.016C236.781,128.978,236.566,128.978,236.089,128.965z"/>
	<polygon fill="#D773B2" points="241.932,124.5 241.857,124.453 241.785,124.612 	"/>
	<polygon fill="#D773B2" points="242.193,124.306 241.932,124.5 242.193,124.677 	"/>
	<polygon fill="#D773B2" points="237.304,127.046 237.292,127.051 237.252,127.234 	"/>
	<polygon fill="#D773B2" points="241.137,94.38 241.201,94.46 241.433,94.577 	"/>
	<line fill="none" x1="210.461" y1="89.473" x2="210.341" y2="88.821"/>
	<polygon fill="#D773B2" points="211.233,91.918 211.62,91.982 211.536,91.734 	"/>
	<polygon fill="#D773B2" points="247.145,121.384 247.353,121.08 247.032,121.126 	"/>
	<line fill="none" x1="242.697" y1="95.755" x2="242.896" y2="95.389"/>
	<path fill="#D773B2" d="M369.751,210.018c0.16,0.112,0.328,0.205,0.488,0.316C370.895,209.793,370.455,209.846,369.751,210.018z"/>
	<path fill="#D773B2" d="M222.755,145.102c-1.251-0.78-0.176-3.634-2.174-3.13c-0.62,3.102,3.609,5.735,6.89,5.7
		c0.261,0.216,0.296,0.379,0.448,0.579c-0.664-1.147-0.991-2.274-0.683-3.445C225.746,144.697,223.535,142.432,222.755,145.102z"/>
	<path fill="#D773B2" d="M228.339,148.917c-0.147-0.228-0.295-0.448-0.432-0.68"/>
	<path fill="#D773B2" d="M350.656,315.106c0.088-0.446,0.2-0.862,0.15-1.397"/>
	<path fill="#D773B2" d="M139.449,292.557c0.392-0.28,1.015-0.2,1.547-0.288C140.597,291.557,140.11,291.42,139.449,292.557z"/>
	<path fill="#D773B2" d="M166.817,184.706c-0.292,0.196-0.563,0.636-0.804,1.587"/>
	<path fill="#D773B2" d="M228.696,142.57c-0.864,0.78-1.255,1.507-1.463,2.227C227.967,144.84,228.555,144.417,228.696,142.57z"/>
	<path fill="#D773B2" d="M295.068,158.361c-0.24,0.316-0.504,0.356-0.753,0.588"/>
	<path fill="#D773B2" d="M227.408,342.317c-0.168,0.078-0.279,0.327-0.439,0.472c0.447,0.207,0.819,0.383,1.327,0.623
		L227.408,342.317z"/>
	<path fill="#AA408A" d="M342.151,367.584c8.937,5.363,14.005-6.737,22.646-8.226c-3.717-3.589,1.623-3.485,1.551-5.987
		c3.253,4.301,2.558-3.652,6.387-2.726l-4.547-2.989c5.676-1.097-0.713-10.99,5.962-8.762c2.982-0.927,2.317,3.182,2.198,4.636
		c7.105,1,2.839-10.463,9.545-9.288c-1.559-1.486-4.995-2.621-4.787-6.299c3.461-0.641,8.553-3.82,9.056-3.046
		c0.121-2.55-1.145-3.805,1.655-5.147c1.143,0.791,0.822,1.848,1.008,2.846c2.934-3.045,2.678-6.77,1.758-10.807
		c4.388-0.681,4.797-8.113,7.914-12.224c-4.572-3.444,2.894-7.45-3.485-8.513l1.976-0.567c-1.672-1.911-5.668-3.444-5.797-5.452
		l4.156,0.769c5.628,0.64,0.904-6.123,3.454-6.804c-3.454,2.063-0.152-2.494-3.405-2.422l-1.565-2.365
		c-1.463-3.757-2.11-0.209-3.166-4.84c-0.768-2.526,4.748-1.831,4.301-0.74c1.711-2.729-0.184-4.76-1.783-6.842
		c-0.022-0.112-0.022-0.204-0.079-0.34c0.199-0.704-0.017-1.599-0.239-2.546c0.145-0.152,0.079-0.344-0.128-0.583
		c-0.177-0.815-0.225-1.619,0.247-2.278l3.365-0.332c-0.367-1.806-5.315-5.164-6.578-4.452c0.039-6.767-6.843-15.592-10.129-17.878
		c1.097,0.439,2.119,0.048,0.672-0.224c-1.741-1.811-5.46-2.566-3.748-3.77c-2.312-1.027,0.887-2.826-0.682-5.735
		c0.568-0.439-3.028,1.443-2.166,1.946c1.265-7.786-10.143-8.037-11.662-15.208c-0.326,0.944,2.357-0.04,3.727-0.383
		c-4.381-2.891-8.778-5.424-15.005-5.217l3.701-1.778c-2.679-2.262-6.341-4.276-9.44-2.89c0.774,2.698,1.247-1.314,2.335-0.156
		c-0.064,3.822-5.221,3.386-6.332,1.388l0.376-0.608c-2.51-2.143-3.669-0.755-6.61-2.187c-0.688-2.522,2.015,0.037,2.479-2.058
		c2.238-4.804-5.243-6.643-5.523-7.49c-1.278,0.62-2.741,0.844-3.229,2.195c-2.966,0.02,0.256-3.358-1.52-4.018
		c-3.845,2.055-7.139,3.538-10.64,6.428c1.958-0.54-0.615-4.941,2.55-6.416c-5.764-0.503-10.256,4.92-13.622,7.63
		c-1.302-1.144-6.099,0.047-7.577-0.032c-0.584-2.909,1.287,0.44,1.782-1.694l-2.229-3.733c3.356,0.192-0.231-5.068,1.768-6.751
		c-2.981,0.644-9.801,0.784-14.421,0.276c3.692,5.556-5.428,3.797-4.165,9.045c-4.437,1.71-3.334-3.877-5.5-4.717l-13.325,6.427
		l-0.251-1.111c-3.125,3.473-10.147,5.344-11.375,11.483l-0.738-2.982c-5.064,0.497,2.901,6.303-3.365,5.928l-0.424-2.794
		c-1.451,3.118-7.446,2.063-6.491,7.686c-1.207-0.827-1.063-1.767-1.303-2.669c-1.235,3.389-3.974,6.154-2.773,10.535
		c-1.671-0.68-2.618-1.911-2.774-3.721c-3.704,1.502,1.579,5.647-1.503,7.13c-0.639,0.624-3.404,0.748-3.188,0.204
		c1.167,2.63-1.299,6.495-1.355,8.394c-1.743-0.548-2.856,0.188-5.479,0.908c-7.874,14.172-16.051,33.577-6.812,49.156
		c-4.399,4.068-4.512-3.229-7.638-0.774c4.544-0.959,2.214,2.83,5.38,7.706l-0.543,0.464c1.623,1.838-0.627,4.429,1.502,6.251
		l1.02-0.695c2.998,0.982-0.995,7.811,4.509,5.477l-1.043,3.541c5.879-1.711,2.03,4.188,7.538,3.262l-0.912,0.447
		c2.035,4.964,10.036,1.398,8.929,5.979c3.589,0.814,7.958,1.056,10.304-2.375c-0.004,1.647-1.522,3.75-2.621,4.806
		c12.617,1.343,27.729,11.975,37.135,0.487l0.216,2.549c4.996-6.164,15.796-0.487,15.932-10.887l-0.862-4.253
		c1.839,0.399,3.373,2.671,5.084,2.99c-0.696-2.798,4.363-4.069,2.029-6.995l2.246,2.334c2.165-2.197-1.229-7.521,1.039-8.529
		l1.184,1.239c12.574-9.601,4.014-38.218-9.815-42.354c-3.381-1.499,2.854-4.373,1.383-5.275
		c-11.087-10.532-32.958-5.764-28.51,12.865c-1.73,9.876,8.638,16.331,8.661,16.308c0.176-2.662,0.823-4.824,1.671-6.711
		c0.144,0.791,0.231,1.411,0.392,2.334c4.005,4.44,8.139,13.514,7.131,14.4c1.694,1.326,0.305-1.344-9.104,2.357
		c0.112,0.225-2.502,0.553-5.147,0.849c-4.593-2.038-9.236-3.533-14.479-4.197c0.467,1.743-1.715,3.485-3.21,3.767l0.308-1.287
		l-3.161,2.149c-1.895-0.28,0.724-3.453,2.333-3.485c-5.818-3.828-11.627-5.388-11.198-9.439c-4.178,1.303-0.655-1.566-5.437-0.641
		l2.039-0.319c-4.604-1.838-2.826-4.404,3.157-7.314c10.176-19.868,15.128-40.56,38.689-46.475
		c18.267-7.89,38.105-5.928,57.604,15.376c8.521-1.487,9.073,5.495,17.161,6.466l-2.037,0.879c4.563,1.388,2.662,6.396,2.166,11.631
		c2.317-1.043,1.55,1.579,5.011-0.883c4.109,0.376-3.859,5.516-1.038,7.138c-1.303,0.583,2.334-0.939,1.239,0.052
		c6.579,4.712-2.502-0.14-4.27,8.473c4.116,9.277,8.042,20.883,1.495,29.693c0.12-0.641,3.413,0.335,2.94,1.343
		c-6.746-1.839-0.016,4.013-3.332,4.646l-1.487-2.512c-4.165,2.83-3.581,8.418-8.713,10.456c-0.849,5.284-8.729,5.3-8.777,9.815
		c-1.303-2.533-2.941-0.063-4.548-0.391c2.413,8.545-8.953,3.764-9.607,10.52l-0.664-1.256
		c-11.967,8.826-23.797,12.662-36.604,19.408c-7.658,2.438-16.663-3.117-23.994-0.23c-1.463,1.046-0.399,2.854-1.65,3.564
		c-2.022-0.216,0.184-2.52-0.543-3.478c-4.289,3.709-8.573-2.135-13.07-2.462c-0.875,1.255-2.226,1.102-2.334,3.102
		c-3.197-6.857-12.734-2.558-15.771-9.24c-1.796,7.011-4.984,1.839-7.467,1.727c-0.795-0.982,0.276-2.51,1.352-3.396
		c-3.993-1.813-6.264-2.91-8.709-8.121c-2.278-1.055-5.556,1.358-6.91-1.633c2.262-4.771-4.117-4.858-4.78-8.295
		c-2.733,3.34-7.798,2.205-8.27-1.424l5.315-2.781c-9.104-5.557-10.604-21.127-21.49-28.41l2.886-2.039
		c-2.374-0.039-0.788-21.09-4.934-30.487c2.283-2.974,4.113-7.738,4.506-10.815c-2.559-4.913-1.271-6.036-5.116-10.125
		c0.179-1.663,3.129-1.834,4.46-2.058c2.686-4.852,7.86-8.014,5.131-13.645l2.762,1.086c-0.791-4.604-1.383-12.337,4.054-14.376
		c-1.398-2.417,0.814-6.871-3.298-7.159c0.731-1.958,4.741,2.031,3.485-1.45l2.238,4.044c6.942-7.777,11.999-15.107,19.563-22.925
		c5.3,2.713,8.07-6.176,15.112-5.812c2.123-4.061,9.069-2.89,9.696-9.401l1.114,2.723c4.685-1.151,10.896-3.173,17.463-2.81
		c3.744,0.08,2.921-4.3,5.631-6.275l0.655,2.873c2.926-2.186,3.189-6.822,4.08-9.928c2.834,1.667,2.898-0.456,5.696,1.195
		c-2.343,1.926-4.085,5.368-5.128,9.524c3.969,0.792,7.254-7.278,10.146-2.758c3.493,0.908,6.061-0.467,6.155-4.409
		c-0.673,1.312,2.294,2.163,0.487,4.029c2.374-0.276,3.894-0.704,5.349-2.167c-0.456-0.104-1.04-0.451-1.52-0.352
		c1.199-2.981,3.758-2.818,3.222-7.278c-1.335,1.147-1.398,1.859-3.102,1.511c0.632-3.11,5.188-3.985,6.251-1.203
		c1.215,3.177-3.03,5.159-1.039,7.059l7.578-7.659c-1.654,2.531-4.182,0.388-3.383-2.689l-2.965,1.87l0.231-3.217
		c-4.933,1.184-8.435-2.238-13.422,0.716l2.039,3.185c-2.975,0.32-5.54,4.909-8.489,1.243c1.207-1.258,0.136-2.849-0.048-4.652
		c-0.641,0.636-1.295,1.923-2.158,1.539l0.895-5.663c-0.688,7.426-7.838,3.673-9.089,5.016l0.301-1.071
		c-4.784-1.771,1.194,2.969-1.759,3.441c-2.673-0.567-1.851-5.836-4.607-7.798c-4.685,1.234-11.476,6.655-17.595,4.037
		c-3.793,2.198-7.626,5.503-10.247,8.98c-3.466,1.167-1.875-5.6-4.449-1.747c-0.3-2.01-1.583-3.692-2.622-5.295
		c0.448,2.237-6.818,2.714-1.979,5.991c-5.459,1.271-11.574,3.313-15.896,7.67c1.459-1.335,0.164-4.696-2.21-5.276
		c-0.671,4.524-3.589,8.657-8.297,10.66c2.214,2.793,3.537,1.95,5.211,5.067c-0.28,0.8-0.127,2.862-1.179,3.397
		c-2.826-2.51-6.212-7.19-9.744-4.269c-2.87-5.359,6.358-4.588,1.172-7.786c-1.432-5.269,6.143-10.088,9.275-8.737
		c0.959-6.579-3.182,1.295-5.176-3.269c-3.077,2.674-3.477,5.24-7.605,9.912c1.519,2.01,3.245,0.995,2.481,4.38
		c-0.531,7.426-7.306,1.51-8.557,2.302l1.105-2.79c-3.892,1.115-2.518,4.497-5.479,6.823c-5.58-4.065,3.988-4.656,2.266-8.629
		l-5.432-1.614c-5.108,3.768,2.549,5.056-3.282,8.145l-1.229-2.226l-1.463,4.085c1.887,1.762,5.119,3.541,6.918,0.803
		c3.273,5.987-1.219,2.89-3.497,7.722c1.835,3.638,1.071-1.923,3.901,0.408c2.829,1.814,0.858,4.484-0.132,6.751
		c-2.415,3.074-4.421-0.843-7.406-1.023c0.007-0.971,1.596-3.825,3.054-2.226c0.22-6.463-7.455-2.946-7.235-7.482
		c-4.354,2.01-0.775,4.541-1.095,6.999c1.135-0.74,2.649,2.629,4.269,2.678c4.252,11.127-9.038-0.912-10.812,6.127
		c6.03,2.218,3.776,12.054,12.034,11.435c0.319,1.843,0.823,4.081-0.443,5.064c-3.169-3.429-4.273,0.863-6.659-3.573l-1.095,1.99
		l-3.034-5.452c-3.861,0.907-8.597,3.721-11.167,4.237c0.146,3.961,4.336,0.688,3.493,4.756c-1.523-2.166-4.325-0.619-4.726,1.144
		c2.683-2.762,5.756,2.258,6.128,4.656c-0.946,3.217-5.671,4.528-6.486,3.742l-2.499-4.465c2.214,3.557-1.946,0.551-1.455,3.573
		c2.055,1.49,5.124,4.18,7.846,5.879c0.384,2.343-3.113,2.938-2.806,3.83l-1.522-4.057c-0.396,4.684-6.727-0.891-6.486,4.249
		l2.926,2.038c-0.787,0.764-2.418,0.88-3.39-0.315c2.198,1.299,0.728,3.825,1.571,5.116l-2.23-0.145
		c1.139,2.25,5.695,5.524,1.035,7.063c5.576-0.863,0.385-2.322,3.25-5.112c4.201-1.175,3.198,3.897,3.697,4.716
		c-5.675-1.247-1.223,4.729-1.571,6.898l-4.664,2.706l3.688,1.363c-7.498-0.008,1.083,4.696-1.526,6.975
		c-2.113-1.499-5.088-1.595-6.402,0.176c5.879-1.986,6.322,4.517,10.26,3.973c-1.938,4.313-7.03-1.447-10.899-0.384
		c4.266,2.486-2.772,5.004,2.746,6.723c1.699-3.213,3.525,0.647,5.959,1.354c-0.419,4.041-2.44-0.739-4.413,2.106
		c0.78,1.75,5.064,3.973,6.624,1.392c-1.167,2.356,4.145,4.924,0.755,7.562c-3.444,1.145-1.618-4.892-4.08-3.357
		c-0.313,5.645,8.572,2.711,9.76,7.699c1.857-2.215,7.989-0.345,10.071,1.83c-1.467,5.42-2.086-2.223-6.49,0.017l0.695,2.149
		c-6.034,3.502-10.023-6.106-14.916-2.91l2.063,2.392c-1.295-0.345-3.273-0.584-4.913-0.28c1.355,2.486,1.359,13.565,2.634,13.157
		c3.589-0.535-1.918-2.214,0.888-2.67c2.222,3.118,7.962,1.647,7.674,6.459c-3.229-1.127-4.085,2.782-6.315,2.728
		c-0.482,2.564,4.109-1.137,3.569,2.453l-2.078,0.592c4.037,10.455,11.982,22.599,24.505,25.027
		c-1.859,3.471,0.011,6.469,1.498,12.471c-0.567-2.709,2.738-2.391,4.033-1.693l-1.359,4.683c0.473,4.07,6.235,4.718,9.974,5.165
		l-1.487,2.727c0.292,3.98,3.876,0.433,5.314,0.504l-0.566,3.451l2.218-1.82c3.271,0.734,5.596,3.789,2.418,7.178
		c1.511,0.023,2.99,0.009,2.63-1.918c0.708,3.797,7.41,8.984,12.902,10.416c-1.655-2.223-0.635-3.405,0.74-5.973
		c3.229-3.74,0.491,1.447,3.836-0.03c-0.915,1.582,0.239,4.356-2.726,4.292c3.121,9.232,14.853,9.354,23.161,13.109
		c2.01-0.097,1.703-1.07,2.902-2.03c4.245,6.507,12.558,2.366,18.232,5.684c-1.103-2.342,1.479-7.538,4.633-7.696
		c3.748-3.965,0.967,5.715,4.229,8.24c1.782-1.861,4.872-2.312,6.199-2.031l-0.128,0.697c2.05-2.199,5.11-3.166,7.542-1.752
		l-0.353,0.328c1.91,0.12,4.438,2.391,6.442,1.768c0.432-3.91,5.66-2.238,6.251-5.779l0.672,1.455l-0.416-3.207l4.253,1.271
		l-1.486,3.797c4.708,1.52,0.896-3.037,2.639-5.291c2.206-3.08,2.766,0.096,4.46,1.037c-0.791,1.911-2.246-0.15-2.781,0.616
		c-1.039,2.981,1.91,0.544,2.406,2.326c0.639-0.071-0.032-3.966,2.174-3.829c1.879-0.145,5.724-2.326,6.235,1.198
		c0.982-2.237,2.886-2.396,3.532-4.252c-1.654-0.177-4.523-0.28-5.482-2.357c1.166-0.793,3.365-2.438,4.252-1.079l-0.744,1.135
		c0.744-1.135,4.805-1.207,1.831-3.725l4.149,3.485c0.639-3.054,2.974-3.958,4.876-5.479c1.613,3.23,1.551,7.707,5.884,6.572
		l1.757-4.901c1.56-1.214,2.367-0.733,3.095,1.313c6.971-1.399,1.175-11.927,7.106-11.744c0.328,4.789,2.063,4.197,4.708,3.99
		c-0.279-0.664-0.855-1.968-0.104-2.591c-1.599-1.326,0.376,3.237-2.662,1.703C338.945,369.463,341.669,368.856,342.151,367.584z"/>
</g>
</svg>
