<?xml version="1.0" encoding="utf-8"?>
<!-- Generator: Adobe Illustrator 15.0.0, SVG Export Plug-In . SVG Version: 6.00 Build 0)  -->
<!DOCTYPE svg PUBLIC "-//W3C//DTD SVG 1.1//EN" "http://www.w3.org/Graphics/SVG/1.1/DTD/svg11.dtd">
<svg version="1.1" id="Layer_1" xmlns="http://www.w3.org/2000/svg" xmlns:xlink="http://www.w3.org/1999/xlink" x="0px" y="0px"
	 width="296.457px" height="287.531px" viewBox="0 0 296.457 287.531" enable-background="new 0 0 296.457 287.531"
	 xml:space="preserve">
<g>
	<path fill="#223F93" d="M250.452,236.71c-34.933,42.321-93.171,61.749-148.864,44.604C27.901,258.619-13.46,180.457,9.234,106.762
		c2.565-8.307,5.827-16.215,9.714-23.655c-5.422,53.648,17.828,101.568,59.076,114.273c42.592,13.117,75.363-13.563,101.144-43.088
		c13.431-15.377,35.286-22.795,55.887-15.902C284.117,154.802,276.039,205.694,250.452,236.71z"/>
	<path fill="#718CC7" d="M48.685,242.865C96.244,257.516,150.291,221,173.76,160.318c-24.92,26.973-56.071,49.277-95.735,37.063
		c-41.248-12.705-64.498-60.625-59.076-114.273c-3.887,7.439-7.147,15.348-9.714,23.655c-14.425,46.841-2.971,95.486,26.221,130.553
		C39.633,239.574,44.046,241.443,48.685,242.865z"/>
	<path fill="#223F93" d="M49.026,51.82C83.951,9.499,142.188-9.929,197.877,7.218c73.694,22.695,115.057,100.858,92.36,174.552
		c-2.559,8.306-5.818,16.215-9.715,23.653c5.422-53.648-17.82-101.576-59.076-114.273c-42.592-13.117-75.354,13.565-101.143,43.089
		c-13.43,15.376-35.287,22.794-55.887,15.902C15.353,133.727,23.432,82.837,49.026,51.82z"/>
	<path fill="#718CC7" d="M250.792,45.667c-47.563-14.652-101.61,21.864-125.08,82.547c24.92-26.973,56.063-49.278,95.734-37.063
		c41.256,12.698,64.498,60.625,59.076,114.274c3.896-7.439,7.156-15.35,9.715-23.654c14.424-46.842,2.971-95.495-26.22-130.554
		C259.84,48.956,255.427,47.088,250.792,45.667z"/>
</g>
</svg>
