<?xml version="1.0" encoding="utf-8"?>
<!-- Generator: Adobe Illustrator 16.0.0, SVG Export Plug-In . SVG Version: 6.00 Build 0)  -->
<!DOCTYPE svg PUBLIC "-//W3C//DTD SVG 1.1//EN" "http://www.w3.org/Graphics/SVG/1.1/DTD/svg11.dtd">
<svg version="1.1" id="Layer_1" xmlns="http://www.w3.org/2000/svg" xmlns:xlink="http://www.w3.org/1999/xlink" x="0px" y="0px"
	 width="540px" height="540px" viewBox="0 0 540 540" enable-background="new 0 0 540 540" xml:space="preserve">
<g>
	<path fill="#1177B8" d="M417.014,216.163c0,0,0.493,0.713,1.426,2.051c0.913,1.35,2.335,3.264,3.961,5.845
		c0.822,1.285,1.768,2.693,2.734,4.261c0.95,1.578,1.975,3.287,3.072,5.112c1.041,1.86,2.149,3.842,3.319,5.928
		c1.144,2.104,2.26,4.363,3.476,6.703c1.135,2.373,2.325,4.853,3.501,7.447c1.097,2.624,2.359,5.299,3.416,8.145
		c2.302,5.625,4.297,11.73,6.234,18.123c1.799,6.426,3.423,13.169,4.628,20.147c1.147,6.983,1.983,14.178,2.295,21.457
		c0.26,7.276,0.06,14.621-0.645,21.867c-0.798,7.237-2.1,14.351-3.85,21.174c-1.893,6.78-4.072,13.308-6.759,19.278
		c-0.608,1.524-1.342,2.958-2.044,4.392c-0.709,1.426-1.387,2.849-2.098,4.22c-1.55,2.67-2.931,5.348-4.507,7.759
		c-3.057,4.883-6.181,9.173-9.124,12.837c-1.502,1.801-2.895,3.517-4.23,5.052c-1.387,1.486-2.662,2.853-3.813,4.086
		c-1.14,1.257-2.216,2.312-3.175,3.2c-0.954,0.904-1.76,1.674-2.416,2.301c-1.313,1.247-2.017,1.911-2.017,1.911l-18.441-23.191
		c0,0,0.621-0.452,1.788-1.3c0.589-0.424,1.311-0.948,2.165-1.561c0.866-0.601,1.834-1.32,2.86-2.194
		c1.049-0.852,2.212-1.799,3.474-2.824c1.202-1.096,2.502-2.285,3.893-3.553c2.731-2.591,5.68-5.668,8.663-9.247
		c1.543-1.761,2.908-3.763,4.478-5.75c0.706-1.046,1.426-2.114,2.155-3.191c0.729-1.085,1.501-2.175,2.153-3.352
		c2.869-4.582,5.387-9.743,7.771-15.234c2.241-5.553,4.183-11.496,5.737-17.707c1.457-6.235,2.518-12.719,3.169-19.302
		c0.6-6.59,0.724-13.263,0.532-19.859c-0.242-6.602-0.916-13.109-1.798-19.404c-1.018-6.261-2.134-12.344-3.617-18.021
		c-0.647-2.868-1.514-5.591-2.235-8.268c-0.795-2.652-1.626-5.202-2.417-7.654c-0.874-2.422-1.665-4.77-2.505-6.969
		c-0.867-2.192-1.69-4.271-2.466-6.225c-0.836-1.932-1.616-3.741-2.342-5.413c-0.74-1.664-1.481-3.163-2.12-4.538
		c-1.258-2.757-2.417-4.854-3.145-6.31C417.409,216.938,417.014,216.163,417.014,216.163z"/>
	<path fill="#1177B8" d="M390.436,245.631c0,0,0.481,0.724,1.384,2.079c0.886,1.368,2.267,3.311,3.841,5.926
		c0.795,1.3,1.712,2.728,2.648,4.313c0.915,1.6,1.908,3.326,2.969,5.173c1.005,1.881,2.069,3.883,3.197,5.996
		c1.101,2.126,2.17,4.407,3.339,6.771c1.088,2.397,2.225,4.899,3.347,7.516c1.043,2.648,2.251,5.348,3.249,8.213
		c2.187,5.674,4.059,11.819,5.865,18.249c1.664,6.46,3.155,13.236,4.212,20.238c1.006,7.005,1.694,14.215,1.857,21.499
		c0.11,7.281-0.24,14.62-1.088,21.854c-0.951,7.217-2.393,14.302-4.277,21.094c-2.032,6.735-4.344,13.219-7.153,19.133
		c-0.637,1.508-1.402,2.933-2.131,4.346c-0.735,1.413-1.444,2.822-2.183,4.179c-1.602,2.64-3.038,5.286-4.662,7.66
		c-3.153,4.822-6.369,9.05-9.383,12.651c-1.543,1.771-2.969,3.458-4.336,4.968c-1.421,1.458-2.722,2.797-3.902,4.007
		c-1.164,1.231-2.259,2.265-3.234,3.134c-0.97,0.885-1.793,1.639-2.462,2.247c-1.34,1.218-2.059,1.873-2.059,1.873l-17.966-23.563
		c0,0,0.631-0.44,1.818-1.265c0.597-0.41,1.33-0.92,2.192-1.515c0.879-0.583,1.865-1.282,2.904-2.136
		c1.067-0.832,2.248-1.752,3.532-2.756c1.225-1.071,2.547-2.23,3.962-3.471c2.783-2.535,5.795-5.551,8.851-9.068
		c1.577-1.727,2.988-3.7,4.596-5.66c0.727-1.028,1.469-2.078,2.221-3.146c0.747-1.073,1.541-2.144,2.222-3.309
		c2.959-4.523,5.582-9.633,8.075-15.072c2.357-5.505,4.418-11.404,6.101-17.589c1.583-6.198,2.775-12.663,3.562-19.234
		c0.732-6.574,0.994-13.243,0.938-19.846c-0.11-6.603-0.649-13.118-1.402-19.429c-0.893-6.284-1.883-12.391-3.25-18.096
		c-0.588-2.882-1.401-5.618-2.065-8.314c-0.744-2.665-1.518-5.233-2.262-7.702c-0.824-2.439-1.566-4.803-2.358-7.016
		c-0.827-2.21-1.606-4.305-2.34-6.272c-0.794-1.95-1.542-3.775-2.232-5.462c-0.706-1.679-1.414-3.192-2.024-4.578
		c-1.2-2.783-2.32-4.904-3.015-6.373C390.816,246.413,390.436,245.631,390.436,245.631z"/>
	<path fill="#1177B8" d="M455.828,196.615c0,0,0.35,0.711,1.03,2.09c0.67,1.382,1.712,3.419,2.972,6.107
		c1.306,2.666,2.584,6.137,4.279,10.176c0.887,2.021,1.547,4.247,2.395,6.609c0.755,2.382,1.746,4.883,2.43,7.607
		c0.747,2.726,1.535,5.599,2.359,8.61c0.649,3.063,1.325,6.27,2.032,9.61c0.683,3.357,1.123,6.893,1.684,10.565
		c0.313,1.834,0.456,3.714,0.636,5.629c0.177,1.917,0.358,3.871,0.543,5.852c0.37,3.973,0.359,8.087,0.524,12.342
		c0.005,4.244-0.142,8.624-0.277,13.131c-0.611,8.977-1.617,18.458-3.614,28.209c-0.503,2.435-0.91,4.932-1.539,7.396
		c-0.647,2.463-1.303,4.947-1.96,7.458c-0.346,1.252-0.64,2.532-1.029,3.779c-0.403,1.25-0.806,2.505-1.213,3.764
		c-0.821,2.523-1.651,5.069-2.487,7.636c-0.975,2.521-1.96,5.06-2.951,7.621c-0.511,1.278-1.021,2.56-1.536,3.85
		c-0.578,1.259-1.157,2.523-1.739,3.792c-0.585,1.271-1.171,2.545-1.759,3.826l-0.889,1.923l-0.444,0.966l-0.223,0.484
		c-0.108,0.207,0.088-0.124-0.273,0.528l-0.116,0.224c-1.235,2.366-2.479,4.759-3.733,7.162l-0.94,1.806l-1.123,1.929
		c-0.764,1.294-1.529,2.592-2.297,3.889c-0.782,1.297-1.563,2.594-2.351,3.9c-0.816,1.231-1.636,2.471-2.459,3.707
		c-3.217,5.009-6.839,9.826-10.516,14.701c-7.503,9.645-16.169,18.735-25.647,27.271c-9.474,8.546-19.959,16.329-31.221,23.198
		c-2.849,1.657-5.655,3.421-8.582,4.986c-2.941,1.537-5.86,3.151-8.86,4.626c-3.02,1.426-6.063,2.831-9.137,4.189
		c-3.118,1.252-6.244,2.51-9.377,3.77c-12.653,4.718-25.856,8.429-39.405,10.616c-13.54,2.229-27.366,3.174-41.175,2.756
		c-27.606-1.003-55.087-7.604-79.585-19.341c-1.531-0.729-3.084-1.409-4.589-2.184l-4.479-2.374l-4.461-2.38l-0.677-0.378
		l-0.247-0.146l-0.495-0.301l-0.989-0.593l-1.977-1.194l-3.927-2.414l-0.982-0.604l-1.081-0.732l-2.162-1.468
		c-2.831-1.971-5.859-3.893-8.4-5.934c-10.625-7.94-20.428-16.728-28.955-26.342c-17.204-19.121-29.803-40.79-38.168-62.417
		c-8.188-21.734-12.318-43.363-13.147-63.277c-0.505-9.953-0.121-19.488,0.685-28.455c0.504-4.484,0.946-8.837,1.708-13.026
		c0.357-2.095,0.636-4.163,1.047-6.184c0.439-2.012,0.872-3.993,1.298-5.941c3.513-15.558,8.396-28.518,13.157-38.729
		c0.592-1.279,1.13-2.534,1.718-3.727c0.612-1.183,1.2-2.333,1.775-3.447c1.174-2.215,2.222-4.303,3.315-6.188
		c2.251-3.738,4.046-6.949,5.688-9.447c1.639-2.501,2.952-4.375,3.813-5.648c0.866-1.267,1.312-1.921,1.312-1.921
		s-1.119,2.962-3.217,8.515c-1.063,2.755-2.125,6.256-3.497,10.279c-0.66,2.024-1.207,4.26-1.893,6.591
		c-0.34,1.165-0.69,2.366-1.049,3.604c-0.341,1.242-0.621,2.544-0.948,3.867c-2.623,10.551-5.057,23.5-6.018,38.355
		c-0.967,14.833-0.637,31.578,2.458,49.28c0.184,1.105,0.37,2.217,0.556,3.333c0.229,1.108,0.458,2.223,0.687,3.344
		c0.489,2.233,0.889,4.5,1.451,6.754c0.581,2.245,1.165,4.511,1.759,6.801c0.593,2.285,1.377,4.534,2.062,6.83
		c2.923,9.117,6.426,18.352,10.888,27.398c8.898,18.084,21.051,35.607,36.381,50.844c7.701,7.569,16.154,14.582,25.3,20.799
		c2.274,1.684,4.497,2.89,6.733,4.342l1.674,1.051l0.838,0.531l1,0.556l4.027,2.239l2.007,1.135l1.006,0.57l0.5,0.283l0.253,0.145
		c-0.728-0.409-0.069-0.047-0.168-0.109l3.762,1.87l3.766,1.88c1.261,0.612,2.57,1.133,3.854,1.702
		c20.582,9.012,43.091,14.346,65.889,15.002c22.79,0.902,45.745-2.798,67.135-10.101c2.652-0.988,5.299-1.974,7.938-2.954
		c2.596-1.095,5.19-2.19,7.773-3.285c2.569-1.128,5.075-2.388,7.614-3.564c2.525-1.204,4.941-2.604,7.414-3.884
		c9.748-5.396,18.896-11.609,27.45-18.335c8.543-6.751,16.337-14.172,23.512-21.911c3.48-3.959,6.955-7.879,10.076-12.013
		c0.797-1.019,1.595-2.03,2.388-3.044c0.721-1.01,1.438-2.017,2.152-3.025c0.729-1,1.451-1.999,2.176-2.993l1.092-1.5l1.107-1.709
		c1.472-2.278,2.936-4.537,4.389-6.782c1.205-2.074,2.407-4.136,3.595-6.181c0.621-1.071,1.242-2.138,1.858-3.199
		c0.558-1.092,1.114-2.18,1.666-3.266c1.122-2.169,2.233-4.321,3.335-6.454c4.04-8.704,7.688-17.316,10.364-25.89
		c5.662-17.069,8.645-33.563,9.815-48.383c1.185-14.825,0.857-28.008-0.28-38.815c-0.146-2.729-0.631-5.25-0.912-7.67
		c-0.341-2.4-0.499-4.719-0.93-6.779c-0.782-4.159-1.284-7.768-1.997-10.658c-0.696-2.886-1.161-5.124-1.501-6.623
		C455.999,197.388,455.828,196.615,455.828,196.615z"/>
	<g>
		<path fill="#074E8C" d="M346.035,211.34c0,0-41.766-34.255-48.011,21.255c-6.252,55.51-4.977,133.684-73.085,160.791
			c0,0,51.945-41.018,16.085-111.304c-18.853-36.953-54.499-99.355-5.712-129.28c44.385-27.225,95.483,13.964,110.049,56.215
			C345.621,209.78,345.893,210.544,346.035,211.34z"/>
		<path fill="#493D96" d="M326.694,213.778c0,0-8.661,3.427-2.054,20.131c6.61,16.705,21.608,57.842-17.994,56.948
			c1.617-8.771,1.968-15.003,2.624-23.908c0.555-7.482,0.759-17.417,0.964-24.855c0.229-8.193,2.878-24.852,11.904-28.426
			C323.605,213.086,324.716,212.922,326.694,213.778z"/>
		<path fill="#074E8C" d="M346.035,211.34c0,0,2.28-48.213-53.904-84.011c-56.184-35.798-138.826-25.945-170.967,23.482
			c0,0,75.565-74.111,167.15,3.541l1.048,18.375C289.364,172.726,336.899,199.239,346.035,211.34z"/>
		<path fill="#493D96" d="M339.944,160.936c0,0,56.666-46.43-14.671-95.243c-71.336-48.812-17.545,2.439-24.242,14.592
			c-6.696,12.154-20.125-23.051-60.023-25.273c-39.899-2.223-7.463,8.955-0.438,24.183c7.025,15.229-5.334-5.894-38.491-8.782
			c-33.157-2.889-9.778,4.368-6.274,14.488c3.504,10.12-5.627-4.108-31.923-1.876c-26.296,2.233-2.017,7.968-10.578,18.358
			c-8.561,10.391-23.83,7.364-16.081,24.34c0,0,44.487-44.927,112.456-27.53C314.461,114.774,339.944,160.936,339.944,160.936z"/>
	</g>
	<path fill="#1177B8" d="M304.297,318.321c0,0,0.161,1.277,0.463,3.669c0.252,2.393,0.568,5.96,0.581,10.501
		c0.048,4.547-0.232,10.102-1.16,16.444c-0.973,6.323-2.559,13.454-5.221,20.988c-1.35,3.754-2.903,7.64-4.791,11.544
		c-1.907,3.89-4.054,7.847-6.52,11.782c-5.013,7.795-11.161,15.596-18.676,22.58c-7.437,7.072-16.169,13.341-25.758,18.465
		l-3.635,1.866l-0.115,0.061c-0.091,0.04,0.044-0.015-0.235,0.108l-0.206,0.114l-0.418,0.234l-0.832,0.462
		c-0.571,0.313-1.078,0.615-1.707,0.92c-2.604,1.278-5.099,2.46-7.671,3.527c-5.145,2.167-10.54,3.878-16.062,5.212
		c-11.06,2.559-22.69,3.343-33.947,2.07c-11.267-1.194-22.12-4.334-31.848-8.815c-4.858-2.262-9.479-4.783-13.738-7.632
		c-4.283-2.807-8.252-5.848-11.859-9.066c-3.644-3.172-6.929-6.527-9.879-9.93c-2.99-3.37-5.569-6.871-7.91-10.28
		c-2.342-3.408-4.306-6.852-6.071-10.142c-1.703-3.331-3.183-6.537-4.408-9.605c-2.428-6.148-3.975-11.657-4.902-16.24
		c-0.954-4.576-1.358-8.21-1.55-10.684c-0.101-1.237-0.131-2.193-0.152-2.834c-0.024-0.642-0.033-0.972-0.033-0.972
		s0.707,1.111,2.035,3.194c1.317,2.065,3.248,5.065,5.772,8.727c2.546,3.649,5.676,7.967,9.518,12.579
		c1.925,2.301,3.98,4.706,6.258,7.11c2.211,2.453,4.705,4.858,7.291,7.314c2.59,2.457,5.424,4.835,8.353,7.228
		c2.967,2.358,6.127,4.635,9.417,6.845c1.647,1.105,3.367,2.144,5.102,3.174c1.721,1.054,3.503,2.05,5.318,3.016
		c3.662,1.868,7.423,3.68,11.352,5.233c3.952,1.485,7.979,2.933,12.161,4.013c4.188,1.027,8.44,2.016,12.808,2.561
		c8.71,1.17,17.735,1.307,26.78,0.218c4.541-0.444,9.055-1.321,13.575-2.343c2.27-0.495,4.524-1.122,6.627-1.712l3.467-1.064
		l3.221-1.312c8.494-3.678,16.506-8.265,23.596-13.693c3.537-2.721,6.916-5.562,10.035-8.569c3.115-3.01,5.99-6.151,8.651-9.346
		c2.66-3.2,5.06-6.483,7.256-9.762c2.154-3.302,4.119-6.591,5.862-9.844c3.425-6.537,6.038-12.869,7.928-18.655
		c1.937-5.784,3.14-11.013,3.975-15.365c0.431-2.176,0.709-4.141,0.985-5.852c0.211-1.711,0.425-3.171,0.552-4.371
		C304.17,319.601,304.297,318.321,304.297,318.321z"/>
</g>
</svg>
