<?xml version="1.0" encoding="utf-8"?>
<!-- Generator: Adobe Illustrator 16.0.0, SVG Export Plug-In . SVG Version: 6.00 Build 0)  -->
<!DOCTYPE svg PUBLIC "-//W3C//DTD SVG 1.1//EN" "http://www.w3.org/Graphics/SVG/1.1/DTD/svg11.dtd">
<svg version="1.1" id="Layer_1" xmlns="http://www.w3.org/2000/svg" xmlns:xlink="http://www.w3.org/1999/xlink" x="0px" y="0px"
	 width="540px" height="540px" viewBox="0 0 540 540" enable-background="new 0 0 540 540" xml:space="preserve">
<g>
	<path fill="#61AFC3" d="M159.823,413.462c0,0-9.189,0.691-22.056-3.399c-6.396-2.048-13.585-5.325-21.07-10.566
		c-3.72-2.592-7.532-5.703-11.34-9.436c-3.779-3.706-7.575-8.031-11.329-13.048c-3.741-5.045-7.426-10.825-11.019-17.08
		c-3.563-6.276-7.016-13.054-10.239-20.115c-3.231-7.031-6.229-14.386-8.937-21.709c-2.712-7.348-5.139-14.675-7.223-21.73
		c-2.07-7.032-3.855-13.771-5.351-19.89c-1.474-6.146-2.673-11.649-3.574-16.289c-1.82-9.265-2.686-14.979-2.686-14.979
		s3.165,1.51,8.585,4.152c5.411,2.66,13.324,6.513,22.66,11.225c4.695,2.34,9.901,4.969,15.424,7.76
		c5.519,2.771,11.329,5.735,17.252,8.787c5.925,3.068,11.902,6.2,17.717,9.337c5.756,3.167,11.324,6.274,16.351,9.3
		c5.038,3.045,9.776,6.229,14.195,9.604c4.423,3.355,8.501,6.873,12.226,10.516c3.711,3.641,7.063,7.374,10.014,11.176
		c2.925,3.813,5.456,7.679,7.575,11.604c4.243,7.844,6.741,15.79,7.601,23.59c0.829,7.803,0.025,15.479-2.359,22.9
		c0,0,1.432-8.25-11.964-21.685c-3.362-3.377-7.612-7.156-12.936-11.251c-5.338-4.086-11.712-8.483-19.295-13.167
		c-3.792-2.326-7.838-4.709-12.104-7.135c-4.292-2.451-8.831-4.926-13.591-7.44c-4.801-2.519-9.782-5.044-14.966-7.582
		c-5.201-2.523-10.558-5.085-16.211-7.635c0,0,1.286,6.067,3.925,15.244c1.322,4.563,3.007,9.895,5.102,15.603
		c2.057,5.678,4.527,11.749,7.407,17.809c2.833,6.063,6.089,12.131,9.727,17.858c3.604,5.765,7.584,11.225,11.938,16.148
		c4.356,4.923,9.063,9.324,14.147,12.979C148.493,408.564,153.977,411.485,159.823,413.462z"/>
	<path fill="#ADD1E2" d="M343.531,378.507c0,0-2.725-9.992,0.789-24.925c0.873-3.728,2.137-7.824,3.961-12.174
		c1.807-4.378,4.146-8.969,7.189-13.726c3.021-4.701,6.697-9.58,11.141-14.433c4.449-4.847,9.629-9.676,15.676-14.342
		c6.029-4.659,12.613-9.204,19.469-13.525c6.803-4.307,13.834-8.448,20.762-12.267c6.896-3.843,13.631-7.402,19.963-10.598
		c6.332-3.212,12.275-6.092,17.594-8.605c5.324-2.523,10.191-4.725,14.459-6.598c4.27-1.881,7.98-3.473,10.98-4.712
		c5.979-2.482,9.486-3.763,9.486-3.763s-0.926,5.191-2.652,13.602c-0.873,4.192-1.973,9.221-3.301,14.793
		c-1.357,5.598-2.918,11.724-4.715,18.169c-1.777,6.438-3.826,13.15-6.059,19.852c-2.264,6.729-4.688,13.434-7.227,19.901
		c-2.531,6.468-5.199,12.646-7.814,18.357c-2.658,5.71-5.277,10.941-7.801,15.46c-2.521,4.467-5.152,8.654-7.859,12.46
		c-2.713,3.829-5.52,7.3-8.395,10.464c-5.756,6.303-11.832,11.346-18.16,15.143c-6.311,3.861-12.936,6.521-19.773,7.974
		c-6.824,1.453-13.953,1.708-21.225,0.762c0,0,8.189,0.238,21.451-10.896c3.303-2.775,6.908-6.369,10.773-10.96
		c3.852-4.618,7.965-10.271,12.281-17.217c2.135-3.477,4.322-7.325,6.549-11.528c2.213-4.235,4.453-8.852,6.723-13.919
		c2.258-5.046,4.488-10.559,6.709-16.524c2.209-6.025,4.379-12.512,6.535-19.495c0,0-4.807,1.324-12.566,4.183
		c-3.875,1.446-8.598,3.274-13.867,5.486c-5.291,2.265-11.178,4.898-17.375,7.97c-6.18,3.071-12.73,6.567-19.238,10.484
		c-6.5,3.9-12.951,8.201-18.9,12.935c-5.932,4.684-11.348,9.726-15.752,15.099C348.932,366.777,345.537,372.489,343.531,378.507z"/>
	<path fill="#0093AE" d="M232.174,370.685c0,0-3.072-1.453-7.504-4.492c-4.459-3.019-10.297-7.651-15.975-14.006
		c-2.83-3.187-5.582-6.842-8.105-11.03c-2.536-4.16-4.772-8.842-6.566-14.028c-1.81-5.184-3.13-10.962-3.748-17.324
		c-0.602-6.376-0.499-13.347,0.564-20.979c1.032-7.657,2.948-15.98,5.55-24.804c1.306-4.399,2.799-8.921,4.411-13.525
		c1.641-4.576,3.426-9.251,5.328-13.964c1.897-4.702,3.924-9.413,6.041-14.125c2.126-4.709,4.324-9.385,6.61-14.025
		c2.274-4.628,4.592-9.177,6.923-13.596c2.355-4.445,4.683-8.736,7.04-12.912c4.656-8.297,9.211-15.948,13.426-22.726
		c4.174-6.778,8.016-12.687,11.215-17.473c6.418-9.583,10.495-15.182,10.495-15.182s3.397,5.257,8.866,14.144
		c2.752,4.428,6.041,9.865,9.691,16.052c3.635,6.169,7.67,13.123,11.826,20.601c4.162,7.479,8.502,15.472,12.75,23.695
		c2.127,4.104,4.246,8.253,6.268,12.411c2.068,4.144,4.063,8.296,5.99,12.416c3.859,8.213,7.395,16.247,10.463,23.757
		c3.059,7.508,5.646,14.513,7.58,20.706c1.941,6.204,3.342,12.145,4.221,17.811c0.891,5.658,1.262,11.058,1.125,16.188
		c-0.096,5.132-0.67,10.015-1.697,14.626c-1.023,4.591-2.48,8.939-4.377,13.055c-1.877,4.091-4.145,7.946-6.867,11.575
		c-2.68,3.62-5.754,6.977-9.219,10.062c-3.461,3.111-7.309,5.988-11.494,8.584c-4.211,2.62-8.807,4.977-13.727,7.06
		c0,0,2.502-1.31,5.264-4.87c2.773-3.549,5.793-9.273,6.887-18.174c0.557-4.423,0.568-9.869-0.229-16.381
		c-0.783-6.534-2.451-14.216-5.313-23.253c-1.43-4.523-3.189-9.419-5.293-14.726c-2.125-5.305-4.604-11.01-7.533-17.137
		c-2.887-6.137-6.223-12.7-9.996-19.705c-3.813-7.017-8.076-14.422-12.794-22.268c0,0-4.995,6.142-11.854,16.175
		c-3.433,5.006-7.316,10.933-11.239,17.506c-3.896,6.534-7.823,13.692-11.386,21.105c-3.558,7.421-6.708,15.029-9.125,22.592
		c-2.438,7.565-4.125,15.025-4.781,22.212c-0.665,7.187-0.332,14.056,1.31,20.494C224.802,359.245,227.705,365.237,232.174,370.685z
		"/>
</g>
</svg>
