<?xml version="1.0" encoding="utf-8"?>
<!-- Generator: Adobe Illustrator 16.0.0, SVG Export Plug-In . SVG Version: 6.00 Build 0)  -->
<!DOCTYPE svg PUBLIC "-//W3C//DTD SVG 1.1//EN" "http://www.w3.org/Graphics/SVG/1.1/DTD/svg11.dtd">
<svg version="1.1" id="Layer_1" xmlns="http://www.w3.org/2000/svg" xmlns:xlink="http://www.w3.org/1999/xlink" x="0px" y="0px"
	 width="540px" height="540px" viewBox="0 0 540 540" enable-background="new 0 0 540 540" xml:space="preserve">
<g>
	<circle fill="#084C8B" cx="109.026" cy="358.005" r="16.239"/>
	<path fill="#9FE0E7" d="M494.332,314.758c-142.961-68.467-156.4,40.504-214.787,100.219
		C257.045,298.018,432.365,150.851,206.123,45c36.958,53.326,35.703,109.988,25.339,164.1
		c-22.528-51.353-70.229-88.353-185.794-90.312c152.928,92.522,55.683,248.307,201.76,320.111c-0.032,0.015-0.063,0.029-0.095,0.046
		c0.109,0.021,0.215,0.036,0.323,0.06c0.02,0.011,0.036,0.017,0.049,0.028c-0.145,0.021-0.284,0.054-0.437,0.079
		c16.851,9.306,31.567,14.501,44.784,16.696c2.203,0.637,4.383,1.283,6.656,1.896c-0.271-0.363-0.514-0.735-0.777-1.103
		c73.008,7.507,99.5-78.325,192.396-57.229c-33.008-30.78-59.59-42.597-82.637-43.319
		C427.805,335.285,453.024,318.092,494.332,314.758z"/>
	<path fill="#084C8B" d="M320.619,494.397c-2.027,3.383-55.374-7.176-109.452-39.653c-54.078-32.488-88.409-74.604-86.382-77.979
		c2.027-3.379,43.83,33.123,97.91,65.601C276.774,474.847,322.651,491.019,320.619,494.397z"/>
</g>
</svg>
