<?xml version="1.0" encoding="utf-8"?>
<!-- Generator: Adobe Illustrator 16.0.0, SVG Export Plug-In . SVG Version: 6.00 Build 0)  -->
<!DOCTYPE svg PUBLIC "-//W3C//DTD SVG 1.1//EN" "http://www.w3.org/Graphics/SVG/1.1/DTD/svg11.dtd">
<svg version="1.1" id="Layer_1" xmlns="http://www.w3.org/2000/svg" xmlns:xlink="http://www.w3.org/1999/xlink" x="0px" y="0px"
	 width="540px" height="540px" viewBox="0 0 540 540" enable-background="new 0 0 540 540" xml:space="preserve">
<g>
	<path fill="#0600FE" d="M159.824,413.457c0,0-9.188,0.692-22.056-3.401c-6.396-2.046-13.584-5.325-21.071-10.563
		c-3.717-2.593-7.532-5.702-11.34-9.437c-3.777-3.708-7.575-8.03-11.326-13.048c-3.742-5.044-7.43-10.824-11.021-17.079
		c-3.563-6.273-7.016-13.053-10.238-20.119c-3.232-7.028-6.23-14.382-8.938-21.708c-2.71-7.348-5.138-14.675-7.222-21.727
		c-2.071-7.036-3.855-13.774-5.352-19.893c-1.474-6.145-2.673-11.647-3.574-16.288c-1.819-9.263-2.687-14.979-2.687-14.979
		s3.167,1.514,8.587,4.153c5.41,2.663,13.325,6.514,22.657,11.225c4.696,2.342,9.902,4.97,15.425,7.762
		c5.52,2.771,11.33,5.733,17.252,8.785c5.925,3.067,11.905,6.201,17.719,9.34c5.754,3.164,11.322,6.274,16.35,9.301
		c5.038,3.04,9.776,6.228,14.194,9.603c4.423,3.354,8.501,6.874,12.226,10.512c3.711,3.644,7.063,7.376,10.014,11.181
		c2.925,3.809,5.458,7.676,7.575,11.6c4.247,7.845,6.742,15.79,7.601,23.59c0.831,7.8,0.026,15.48-2.358,22.901
		c0,0,1.431-8.25-11.964-21.684c-3.361-3.377-7.61-7.156-12.934-11.25c-5.339-4.09-11.713-8.485-19.296-13.172
		c-3.792-2.324-7.837-4.706-12.104-7.13c-4.294-2.451-8.833-4.924-13.592-7.442c-4.802-2.521-9.783-5.044-14.965-7.582
		c-5.201-2.524-10.558-5.085-16.21-7.637c0,0,1.284,6.067,3.924,15.245c1.322,4.564,3.007,9.895,5.104,15.604
		c2.056,5.675,4.526,11.745,7.407,17.806c2.832,6.064,6.089,12.13,9.726,17.86c3.604,5.761,7.584,11.225,11.938,16.146
		c4.356,4.923,9.063,9.324,14.147,12.978C148.492,408.561,153.978,411.483,159.824,413.457z"/>
	<path fill="#6668F3" d="M343.531,378.502c0,0-2.725-9.994,0.791-24.923c0.873-3.73,2.133-7.825,3.961-12.175
		c1.805-4.378,4.145-8.971,7.188-13.727c3.021-4.701,6.697-9.581,11.139-14.43c4.451-4.851,9.633-9.677,15.678-14.345
		c6.029-4.657,12.613-9.204,19.467-13.526c6.803-4.304,13.836-8.449,20.762-12.268c6.895-3.837,13.631-7.4,19.963-10.595
		c6.332-3.211,12.277-6.09,17.594-8.605c5.326-2.522,10.189-4.723,14.461-6.596c4.268-1.883,7.979-3.473,10.979-4.711
		c5.979-2.483,9.488-3.763,9.488-3.763s-0.928,5.191-2.652,13.601c-0.873,4.192-1.973,9.222-3.301,14.794
		c-1.357,5.598-2.918,11.725-4.713,18.167c-1.779,6.437-3.826,13.15-6.061,19.853c-2.266,6.727-4.688,13.433-7.227,19.901
		c-2.533,6.47-5.199,12.646-7.814,18.355c-2.656,5.715-5.275,10.942-7.801,15.465c-2.523,4.464-5.152,8.651-7.857,12.457
		c-2.717,3.826-5.523,7.299-8.396,10.464c-5.756,6.304-11.832,11.348-18.16,15.145c-6.313,3.856-12.936,6.516-19.773,7.969
		c-6.824,1.456-13.953,1.713-21.225,0.764c0,0,8.189,0.239,21.451-10.896c3.305-2.775,6.908-6.371,10.773-10.961
		c3.852-4.618,7.963-10.271,12.281-17.219c2.135-3.474,4.32-7.325,6.547-11.526c2.213-4.237,4.455-8.848,6.725-13.918
		c2.254-5.046,4.486-10.559,6.703-16.524c2.211-6.023,4.385-12.511,6.539-19.493c0,0-4.807,1.323-12.566,4.183
		c-3.875,1.442-8.596,3.274-13.865,5.482c-5.291,2.269-11.18,4.898-17.375,7.976c-6.184,3.068-12.734,6.563-19.24,10.479
		c-6.502,3.9-12.951,8.201-18.898,12.935c-5.934,4.685-11.35,9.726-15.754,15.099C348.932,366.781,345.537,372.488,343.531,378.502z
		"/>
	<path fill="#332EC4" d="M232.175,370.683c0,0-3.074-1.451-7.506-4.49c-4.459-3.017-10.295-7.651-15.974-14.007
		c-2.832-3.185-5.581-6.842-8.106-11.028c-2.536-4.158-4.772-8.844-6.564-14.025c-1.811-5.187-3.132-10.967-3.748-17.328
		c-0.603-6.376-0.5-13.345,0.562-20.978c1.035-7.658,2.949-15.981,5.55-24.804c1.305-4.399,2.798-8.921,4.411-13.525
		c1.641-4.576,3.425-9.251,5.328-13.962c1.898-4.702,3.925-9.413,6.042-14.126c2.125-4.708,4.324-9.382,6.61-14.025
		c2.274-4.629,4.591-9.179,6.922-13.599c2.356-4.445,4.683-8.735,7.038-12.908c4.657-8.297,9.212-15.948,13.427-22.727
		c4.174-6.776,8.018-12.686,11.217-17.471c6.417-9.582,10.494-15.18,10.494-15.18s3.397,5.256,8.866,14.141
		c2.752,4.43,6.041,9.866,9.693,16.052c3.633,6.171,7.668,13.125,11.824,20.601c4.164,7.481,8.502,15.473,12.75,23.696
		c2.127,4.104,4.244,8.252,6.268,12.411c2.068,4.143,4.063,8.296,5.99,12.416c3.859,8.213,7.395,16.247,10.463,23.755
		c3.059,7.51,5.646,14.516,7.58,20.708c1.939,6.203,3.34,12.143,4.221,17.81c0.891,5.658,1.262,11.056,1.125,16.188
		c-0.098,5.132-0.668,10.014-1.697,14.625c-1.023,4.591-2.479,8.939-4.373,13.056c-1.881,4.091-4.146,7.946-6.869,11.579
		c-2.68,3.615-5.756,6.973-9.219,10.057c-3.461,3.112-7.309,5.991-11.496,8.585c-4.209,2.618-8.803,4.978-13.723,7.061
		c0,0,2.5-1.311,5.262-4.871c2.775-3.545,5.795-9.275,6.887-18.173c0.557-4.425,0.568-9.87-0.229-16.38
		c-0.781-6.535-2.451-14.217-5.313-23.257c-1.432-4.521-3.189-9.417-5.293-14.724c-2.123-5.305-4.604-11.012-7.535-17.137
		c-2.885-6.138-6.221-12.702-9.996-19.708c-3.811-7.016-8.074-14.419-12.794-22.264c0,0-4.993,6.142-11.852,16.173
		c-3.433,5.007-7.317,10.936-11.237,17.507c-3.896,6.532-7.825,13.69-11.387,21.104c-3.557,7.421-6.706,15.031-9.125,22.592
		c-2.438,7.567-4.126,15.026-4.781,22.213c-0.666,7.187-0.333,14.055,1.31,20.491C224.802,359.246,227.704,365.236,232.175,370.683z
		"/>
</g>
</svg>
