<?xml version="1.0" encoding="utf-8"?>
<!-- Generator: Adobe Illustrator 15.0.0, SVG Export Plug-In . SVG Version: 6.00 Build 0)  -->
<!DOCTYPE svg PUBLIC "-//W3C//DTD SVG 1.1//EN" "http://www.w3.org/Graphics/SVG/1.1/DTD/svg11.dtd">
<svg version="1.1" id="Layer_1" xmlns="http://www.w3.org/2000/svg" xmlns:xlink="http://www.w3.org/1999/xlink" x="0px" y="0px"
	 width="295.316px" height="302.203px" viewBox="0 0 295.316 302.203" enable-background="new 0 0 295.316 302.203"
	 xml:space="preserve">
<g>
	<g>
		<path fill="#B21F3B" d="M144.08,22.925c18.562-6.052,37.489-8.042,55.79-6.46c-23.332-4.885-48.23-3.958-72.521,3.965
			c-53.412,17.406-89.341,63.664-96.2,115.88h17.114C55.921,85.124,91.532,40.065,144.08,22.925z M151.173,31.062
			c-49.18,16.034-82.869,57.617-91.201,105.25h16.465c9.035-46.625,42.4-87.087,90.763-102.852
			c17.764-5.793,35.883-7.706,53.409-6.195C198.259,22.583,174.436,23.48,151.173,31.062z M120.971,12.462
			c19.354-6.311,39.074-8.384,58.14-6.745c-24.312-5.089-50.269-4.124-75.588,4.131C45.93,28.629,7.84,79.586,2.636,136.311h17.737
			C26.486,80.637,64.255,30.952,120.971,12.462z"/>
	</g>
	<g>
		<path fill="#FC7AA5" d="M260.505,217.738c-4.035,19.102-11.771,36.494-22.299,51.562c15.896-17.772,27.539-39.793,32.834-64.792
			c11.617-54.962-10.474-109.213-52.273-141.256L210.22,78.07C250.716,110.295,271.944,163.669,260.505,217.738z M249.911,219.816
			c10.711-50.607-8.466-100.58-45.562-131.604l-8.217,14.254c35.859,31.142,54.211,80.267,43.695,130.04
			c-3.873,18.285-11.283,34.915-21.339,49.344C233.708,264.837,244.844,243.74,249.911,219.816z M281.116,202.965
			c-4.203,19.907-12.261,38.011-23.22,53.718c16.578-18.521,28.691-41.47,34.209-67.52c12.531-59.268-12.541-117.736-59.071-150.608
			l-8.867,15.357C269.313,87.042,293.466,144.602,281.116,202.965z"/>
	</g>
	<g>
		<path fill="#F42F63" d="M36.508,222.937c-14.53-13.05-25.716-28.44-33.505-45.082c7.441,22.658,20.683,43.744,39.701,60.832
			c41.783,37.536,99.807,45.534,148.467,25.357l-8.557-14.82C134.447,268.193,77.624,259.884,36.508,222.937z M40.007,212.728
			c38.478,34.572,91.337,42.959,136.74,26.36l-8.215-14.257c-44.898,15.486-96.633,6.816-134.469-27.182
			C20.156,185.159,9.462,170.424,2,154.499C9.129,176.185,21.812,196.375,40.007,212.728z M156.545,284.561
			c-41.129,5.428-84.273-6.471-117.542-36.374c-15.144-13.595-26.8-29.631-34.914-46.978c7.744,23.608,21.556,45.589,41.361,63.394
			c45.063,40.489,108.235,47.993,159.979,24.137l-8.865-15.357C183.741,279.018,170.255,282.75,156.545,284.561"/>
	</g>
</g>
</svg>
