<?xml version="1.0" encoding="utf-8"?>
<!-- Generator: Adobe Illustrator 16.0.0, SVG Export Plug-In . SVG Version: 6.00 Build 0)  -->
<!DOCTYPE svg PUBLIC "-//W3C//DTD SVG 1.1//EN" "http://www.w3.org/Graphics/SVG/1.1/DTD/svg11.dtd">
<svg version="1.1" id="Layer_1" xmlns="http://www.w3.org/2000/svg" xmlns:xlink="http://www.w3.org/1999/xlink" x="0px" y="0px"
	 width="540px" height="540px" viewBox="0 0 540 540" enable-background="new 0 0 540 540" xml:space="preserve">
<g>
	<polygon fill="#47BC93" points="479.753,225.67 317.028,103.638 145.843,229.913 132.278,229.913 132.278,219.75 314.49,80.753 
		488.223,210.425 	"/>
	<path fill="#036667" d="M495,215.509v16.952c0,0-61.855,106.772-337.313,112.718l34.758-27.118
		C192.451,318.059,443.309,320.604,495,215.509z"/>
	<path fill="#036667" d="M494.898,251.951v19.163c0,0-71.026,120.739-387.215,127.444l39.872-30.66
		C147.554,367.9,435.561,370.766,494.898,251.951z"/>
	<path fill="#036667" d="M494.546,287.524v22.461c0,0-82.472,141.415-449.546,149.261l46.293-35.922
		C91.293,423.326,425.639,426.693,494.546,287.524z"/>
	<g>
		<rect x="297.952" y="146.709" fill="#3D959D" width="16.951" height="16.952"/>
		<rect x="321.549" y="146.709" fill="#3D959D" width="16.935" height="16.952"/>
		<rect x="297.952" y="168.494" fill="#3D959D" width="16.951" height="16.934"/>
		<rect x="321.549" y="168.494" fill="#3D959D" width="16.935" height="16.934"/>
	</g>
</g>
</svg>
