<?xml version="1.0" encoding="utf-8"?>
<!-- Generator: Adobe Illustrator 16.0.0, SVG Export Plug-In . SVG Version: 6.00 Build 0)  -->
<!DOCTYPE svg PUBLIC "-//W3C//DTD SVG 1.1//EN" "http://www.w3.org/Graphics/SVG/1.1/DTD/svg11.dtd">
<svg version="1.1" id="Layer_1" xmlns="http://www.w3.org/2000/svg" xmlns:xlink="http://www.w3.org/1999/xlink" x="0px" y="0px"
	 width="540px" height="540px" viewBox="0 0 540 540" enable-background="new 0 0 540 540" xml:space="preserve">
<g>
	<g>
		<g>
			<g>
				<path fill="#FFD500" d="M178.518,107.225c-12.99,4.004-26.139-1.241-26.139-1.241s7.912-11.739,20.899-15.743
					c12.988-4.005,26.141,1.242,26.141,1.242S191.504,103.222,178.518,107.225z"/>
				<path fill="#FFD500" d="M154.32,73.563c-7.932,11.034-7.15,25.168-7.15,25.168s13.652-3.76,21.582-14.795
					c7.936-11.036,7.15-25.169,7.15-25.169S162.256,62.526,154.32,73.563z"/>
			</g>
			<g>
				<path fill="#FFD500" d="M135.216,138.562c-12.25,5.887-26.031,2.65-26.031,2.65s6.082-12.782,18.332-18.669
					c12.253-5.885,26.034-2.647,26.034-2.647S147.467,132.677,135.216,138.562z"/>
				<path fill="#FFD500" d="M106.296,108.861c-6.213,12.089-3.342,25.95-3.342,25.95s12.938-5.742,19.151-17.832
					c6.211-12.09,3.337-25.95,3.337-25.95S112.505,96.771,106.296,108.861z"/>
			</g>
			<g>
				<path fill="#FFD500" d="M105.514,180.445C95.704,189.857,81.6,191.07,81.6,191.07s1.805-14.041,11.609-23.451
					c9.813-9.406,23.915-10.622,23.915-10.622S115.322,171.042,105.514,180.445z"/>
				<path fill="#FFD500" d="M68.781,161.229c-2.133,13.424,4.912,25.702,4.912,25.702s10.505-9.488,12.639-22.907
					c2.137-13.425-4.905-25.702-4.905-25.702S70.918,147.808,68.781,161.229z"/>
			</g>
			<g>
				<path fill="#FFD500" d="M87.067,235.809c-7.17,11.547-20.53,16.22-20.53,16.22s-1.741-14.049,5.428-25.596
					c7.176-11.544,20.536-16.219,20.536-16.219S94.235,224.267,87.067,235.809z"/>
				<path fill="#FFD500" d="M46.718,226.298c1.261,13.533,11.128,23.683,11.128,23.683s7.825-11.795,6.57-25.327
					c-1.262-13.533-11.131-23.682-11.131-23.682S45.456,212.767,46.718,226.298z"/>
			</g>
			<g>
				<path fill="#FFD500" d="M89.669,290.809c-2.721,13.319-13.633,22.338-13.633,22.338s-6.5-12.573-3.78-25.895
					c2.721-13.314,13.63-22.335,13.63-22.335S92.386,277.495,89.669,290.809z"/>
				<path fill="#FFD500" d="M48.52,295.885c5.879,12.256,18.654,18.352,18.654,18.352s3.25-13.775-2.622-26.031
					c-5.879-12.258-18.654-18.354-18.654-18.354S42.647,283.626,48.52,295.885z"/>
			</g>
			<g>
				<path fill="#FFD500" d="M108.885,350.371c0.765,13.57-7.492,25.072-7.492,25.072s-9.493-10.502-10.254-24.072
					c-0.76-13.569,7.491-25.066,7.491-25.066S108.12,336.811,108.885,350.371z"/>
				<path fill="#FFD500" d="M70.391,365.766c8.805,10.354,22.708,12.993,22.708,12.993s-0.366-14.147-9.167-24.505
					c-8.803-10.354-22.714-12.99-22.714-12.99S61.586,355.411,70.391,365.766z"/>
			</g>
			<g>
				<path fill="#FFD500" d="M146.451,389.799c6.519,11.922,4.006,25.859,4.006,25.859s-13.086-5.41-19.603-17.334
					s-4.006-25.858-4.006-25.858S139.931,377.878,146.451,389.799z"/>
				<path fill="#FFD500" d="M118.302,420.232c12.399,5.563,26.091,1.975,26.091,1.975s-6.411-12.617-18.805-18.186
					c-12.402-5.568-26.093-1.979-26.093-1.979S105.901,414.662,118.302,420.232z"/>
			</g>
			<g>
				<path fill="#FFD500" d="M195.077,416.109c10.476,8.667,13.29,22.534,13.29,22.534s-14.154-0.179-24.623-8.847
					c-10.471-8.667-13.288-22.541-13.288-22.541S184.612,407.442,195.077,416.109z"/>
				<path fill="#FFD500" d="M180.191,454.801c13.578,0.585,24.97-7.816,24.97-7.816s-10.625-9.354-24.204-9.938
					c-13.578-0.587-24.97,7.819-24.97,7.819S166.61,454.214,180.191,454.801z"/>
			</g>
			<path fill="#FFD500" d="M213.315,70.787c-11.627,7.04-25.656,5.143-25.656,5.143s4.825-13.31,16.45-20.347
				c11.628-7.038,25.656-5.14,25.656-5.14S224.942,63.751,213.315,70.787z"/>
		</g>
		<g>
			<g>
				<path fill="#FFD500" d="M361.485,107.225c12.984,4.004,26.139-1.241,26.139-1.241s-7.912-11.739-20.902-15.743
					c-12.988-4.005-26.134,1.242-26.134,1.242S348.496,103.222,361.485,107.225z"/>
				<path fill="#FFD500" d="M385.682,73.563c7.936,11.034,7.15,25.168,7.15,25.168s-13.646-3.76-21.581-14.795
					c-7.934-11.036-7.15-25.169-7.15-25.169S377.749,62.526,385.682,73.563z"/>
			</g>
			<g>
				<path fill="#FFD500" d="M404.784,138.562c12.248,5.887,26.034,2.65,26.034,2.65s-6.089-12.782-18.336-18.669
					c-12.249-5.885-26.035-2.647-26.035-2.647S392.536,132.677,404.784,138.562z"/>
				<path fill="#FFD500" d="M433.711,108.861c6.205,12.089,3.337,25.95,3.337,25.95s-12.94-5.742-19.147-17.832
					c-6.215-12.09-3.345-25.95-3.345-25.95S427.498,96.771,433.711,108.861z"/>
			</g>
			<g>
				<path fill="#FFD500" d="M434.49,180.445c9.808,9.412,23.914,10.625,23.914,10.625s-1.803-14.041-11.61-23.451
					c-9.807-9.406-23.913-10.622-23.913-10.622S424.681,171.042,434.49,180.445z"/>
				<path fill="#FFD500" d="M471.218,161.229c2.14,13.424-4.906,25.702-4.906,25.702s-10.508-9.488-12.645-22.907
					c-2.136-13.425,4.91-25.702,4.91-25.702S469.086,147.808,471.218,161.229z"/>
			</g>
			<g>
				<path fill="#FFD500" d="M452.936,235.809c7.17,11.547,20.536,16.22,20.536,16.22s1.738-14.049-5.436-25.596
					c-7.171-11.544-20.532-16.219-20.532-16.219S445.769,224.267,452.936,235.809z"/>
				<path fill="#FFD500" d="M493.286,226.298c-1.26,13.533-11.13,23.683-11.13,23.683s-7.824-11.795-6.566-25.327
					c1.258-13.533,11.128-23.682,11.128-23.682S494.545,212.767,493.286,226.298z"/>
			</g>
			<g>
				<path fill="#FFD500" d="M450.335,290.809c2.719,13.319,13.632,22.338,13.632,22.338s6.5-12.573,3.784-25.895
					c-2.725-13.314-13.636-22.335-13.636-22.335S447.614,277.495,450.335,290.809z"/>
				<path fill="#FFD500" d="M491.48,295.885c-5.873,12.256-18.646,18.352-18.646,18.352s-3.25-13.775,2.619-26.031
					c5.873-12.258,18.649-18.354,18.649-18.354S497.356,283.626,491.48,295.885z"/>
			</g>
			<g>
				<path fill="#FFD500" d="M431.116,350.371c-0.763,13.57,7.493,25.072,7.493,25.072s9.49-10.502,10.253-24.072
					c0.764-13.569-7.493-25.066-7.493-25.066S431.882,336.811,431.116,350.371z"/>
				<path fill="#FFD500" d="M469.612,365.766c-8.803,10.354-22.711,12.993-22.711,12.993s0.369-14.147,9.171-24.505
					c8.807-10.354,22.711-12.99,22.711-12.99S478.419,355.411,469.612,365.766z"/>
			</g>
			<g>
				<path fill="#FFD500" d="M393.555,389.799c-6.522,11.922-4.006,25.859-4.006,25.859s13.086-5.41,19.604-17.334
					c6.514-11.924,4.001-25.858,4.001-25.858S400.07,377.878,393.555,389.799z"/>
				<path fill="#FFD500" d="M421.702,420.232c-12.4,5.563-26.093,1.975-26.093,1.975s6.415-12.617,18.813-18.186
					c12.398-5.568,26.09-1.979,26.09-1.979S434.1,414.662,421.702,420.232z"/>
			</g>
			<g>
				<path fill="#FFD500" d="M344.923,416.109c-10.468,8.667-13.286,22.534-13.286,22.534s14.152-0.179,24.622-8.847
					c10.461-8.667,13.282-22.541,13.282-22.541S355.391,407.442,344.923,416.109z"/>
				<path fill="#FFD500" d="M359.811,454.801c-13.578,0.585-24.973-7.816-24.973-7.816s10.629-9.354,24.204-9.938
					c13.58-0.587,24.971,7.819,24.971,7.819S373.395,454.214,359.811,454.801z"/>
			</g>
			<path fill="#FFD500" d="M326.691,70.787c11.628,7.04,25.656,5.143,25.656,5.143s-4.827-13.31-16.454-20.347
				c-11.631-7.038-25.657-5.14-25.657-5.14S315.061,63.751,326.691,70.787z"/>
		</g>
	</g>
	<g>
		<path fill="#FF4800" d="M241.466,412.343v-4.187h30.185v4.187h-0.872c-2.536,0-4.185,0.463-4.94,1.395
			c-0.752,0.932-1.132,2.555-1.132,4.864v49.618c0,3.662,0.305,6.56,0.904,8.673c0.605,2.111,1.928,3.91,3.96,5.396
			c2.042,1.483,4.149,2.224,5.93,2.224c3.095,0,5.738-0.788,7.938-2.377c2.202-1.58,3.631-3.515,4.28-5.792
			c0.658-2.27,0.984-5.45,0.984-9.521v-46.632c0-5.232-2.529-7.846-7.584-7.846v-4.187h18.935v4.187
			c-1.082,0-2.211,0.307-3.396,0.925c-1.179,0.614-1.997,1.471-2.45,2.561c-0.454,1.098-0.677,2.621-0.677,4.582v46.522
			c0,3.67-0.235,6.673-0.702,8.993c-0.464,2.329-1.564,4.568-3.296,6.713c-1.74,2.153-4.152,3.883-7.245,5.191
			c-3.093,1.308-6.526,1.96-10.293,1.96c-3.952,0-9.27-0.647-12.405-1.941c-3.132-1.292-5.526-2.93-7.185-4.899
			c-1.66-1.979-2.786-4.124-3.378-6.453c-0.592-2.324-0.886-5.081-0.886-8.275v-49.618c0-2.413-0.415-4.058-1.248-4.941
			C246.066,412.78,244.258,412.343,241.466,412.343z"/>
	</g>
	<g>
		<g>
			<path fill="#333333" d="M397.161,251.163l-79.732-10.937v-41.024h-15.122v-65.786c0-15.651-15.122-28.475-28.869-29.778V79.601
				h-5.5v24.037c-16.497,1.303-26.12,14.125-26.12,29.778v65.786h-15.122v41.024l-79.733,10.937V349.6l12.373,0.758v-83.813
				l12.373-1.708v86.459l12.373,0.758v-88.241l13.747-1.709V353l9.623,0.752v-92.674l15.122-1.708v95.324l3.007,3.979h16.238
				V218.451h24.745v140.221h10.999V218.451h27.495v140.221h10.76l8.486-3.979V259.37l12.372,1.708v92.674L347.673,353v-90.896
				l12.372,1.709v88.242l12.372-0.759v-86.459l15.121,1.708v83.813l9.623-0.758V251.163z"/>
		</g>
		<circle fill="#FFD500" cx="270.702" cy="142.098" r="14.899"/>
	</g>
</g>
</svg>
