<?xml version="1.0" encoding="utf-8"?>
<!-- Generator: Adobe Illustrator 16.0.0, SVG Export Plug-In . SVG Version: 6.00 Build 0)  -->
<!DOCTYPE svg PUBLIC "-//W3C//DTD SVG 1.1//EN" "http://www.w3.org/Graphics/SVG/1.1/DTD/svg11.dtd">
<svg version="1.1" id="Layer_1" xmlns="http://www.w3.org/2000/svg" xmlns:xlink="http://www.w3.org/1999/xlink" x="0px" y="0px"
	 width="540px" height="540px" viewBox="0 0 540 540" enable-background="new 0 0 540 540" xml:space="preserve">
<g>
	<path fill="#3A9945" d="M224.471,429.754c0.327-0.924,0.714-1.793,1.189-2.627c0.196-0.431,0.459-0.885,0.723-1.266l0.714-1.123
		c0.924-1.464,1.793-2.936,2.618-4.438c1.583-2.947,3.005-6.082,3.379-9.093c0.197-1.5,0.073-2.929-0.37-4.196
		c-0.49-1.264-1.349-2.465-2.406-3.586c-0.301-0.295-0.573-0.561-0.863-0.854l-0.938-0.865c-0.706-0.632-1.385-1.324-2.029-2.084
		c-1.274-1.464-2.417-3.156-3.179-5.074c-0.791-1.901-1.214-3.998-1.133-6.074c0.025-2.062,0.494-4.106,1.196-5.947
		c0.723-1.836,1.723-3.569,2.818-5.133c0.533-0.76,1.116-1.495,1.729-2.188c-0.655-0.504-1.277-1.084-1.883-1.665
		c-1.295-1.304-2.485-2.736-3.427-4.396c-0.929-1.669-1.648-3.591-1.906-5.561c-0.265-2.03-0.026-4.06,0.531-5.94
		c0.564-1.874,1.478-3.592,2.503-5.088c1.171-1.698,2.125-2.717,3.06-4.006c1.832-2.475,3.452-5.181,3.598-7.46
		c0.069-1.123-0.22-2.252-0.811-3.495c-0.563-1.214-1.402-2.533-2.317-3.833c-1.833-2.631-3.812-5.369-5.609-8.21
		c-1.73-2.839-3.556-5.338-5.364-8.473c-0.848-1.577-1.717-3.371-2.003-5.621c-0.08-1.102-0.022-2.267,0.236-3.329
		c0.265-1.084,0.688-2.072,1.171-2.967c0.956-1.724,2.146-3.134,3.34-4.439c1.215-1.299,2.464-2.441,3.753-3.608
		c1.573-1.372,3.193-2.682,4.825-3.96c-51.95-75.411-186.392-79.844-186.392-79.844c46.234,34.521,25.712,103.295,44.465,154.017
		c38.912,115.38,136.667,74.637,136.667,74.637c0.209-0.178,0.37-0.393,0.559-0.606
		C222.582,437.447,223.044,433.465,224.471,429.754z"/>
	<path fill="#82C552" d="M224.471,429.754c0.327-0.924,0.714-1.793,1.189-2.627c0.196-0.431,0.459-0.885,0.723-1.266l0.714-1.123
		c0.924-1.464,1.793-2.936,2.618-4.438c1.583-2.947,3.005-6.082,3.379-9.093c0.197-1.5,0.073-2.929-0.37-4.196
		c-0.49-1.264-1.349-2.465-2.406-3.586c-0.301-0.295-0.573-0.561-0.863-0.854l-0.938-0.865c-0.706-0.632-1.385-1.324-2.029-2.084
		c-1.274-1.464-2.417-3.156-3.179-5.074c-0.791-1.901-1.214-3.998-1.133-6.074c0.025-2.062,0.494-4.106,1.196-5.947
		c0.723-1.836,1.723-3.569,2.818-5.133c0.533-0.76,1.116-1.495,1.729-2.188c-0.655-0.504-1.277-1.084-1.883-1.665
		c-1.295-1.304-2.485-2.736-3.427-4.396c-0.929-1.669-1.648-3.591-1.906-5.561c-0.265-2.03-0.026-4.06,0.531-5.94
		c0.564-1.874,1.478-3.592,2.503-5.088c1.171-1.698,2.125-2.717,3.06-4.006c1.832-2.475,3.452-5.181,3.598-7.46
		c0.069-1.123-0.22-2.252-0.811-3.495c-0.563-1.214-1.402-2.533-2.317-3.833c-1.833-2.631-3.812-5.369-5.609-8.21
		c-1.73-2.839-3.556-5.338-5.364-8.473c-0.848-1.577-1.717-3.371-2.003-5.621c-0.08-1.102-0.022-2.267,0.236-3.329
		c0.265-1.084,0.688-2.072,1.171-2.967c0.956-1.724,2.146-3.134,3.34-4.439c1.215-1.299,2.464-2.441,3.753-3.608
		c2.555-2.207,5.181-4.29,7.833-6.301c2.644-1.972,5.341-3.926,8.007-5.813c2.624-1.922,5.209-3.904,7.699-5.928
		c5.036-4.091,9.777-8.435,14.125-13.186c4.364-4.725,8.278-9.814,11.631-15.302c6.701-10.96,10.919-23.296,13.965-35.957
		c1.487-6.356,2.738-12.732,3.879-19.199c1.179-6.468,2.271-12.918,3.367-19.419c1.146-6.572,2.802-13.058,5.219-19.27
		c2.441-6.233,5.54-12.176,9.36-17.605c1.159-1.648,2.429-3.227,3.71-4.784c-5.304-21.031-5.793-42.367,3.047-64.352
		c0,0-160.905,105.486-160.367,234.221c0.17,42.604,11.235,104.909,69.309,141.128C222.346,440.219,222.56,434.754,224.471,429.754z
		"/>
	<g>
		<g>
			<g>
				<path fill="#138B43" d="M329.551,118.952c-2.845,1.627-5.6,3.533-8.171,5.638c-5.145,4.162-9.671,9.085-13.515,14.524
					c-3.822,5.433-6.92,11.377-9.36,17.605c-2.41,6.211-4.077,12.697-5.219,19.269c-1.104,6.502-2.189,12.955-3.366,19.42
					c-1.145,6.462-2.391,12.843-3.881,19.199c-3.039,12.661-7.266,24.999-13.965,35.957c-3.354,5.487-7.266,10.576-11.631,15.302
					c-4.347,4.745-9.091,9.096-14.125,13.185c-2.484,2.03-5.068,4.006-7.7,5.929c-2.661,1.884-5.364,3.838-8.006,5.812
					c-2.651,2.013-5.277,4.097-7.834,6.304c-1.287,1.165-2.537,2.31-3.752,3.608c-1.189,1.307-2.385,2.716-3.341,4.438
					c-0.478,0.896-0.907,1.884-1.17,2.969c-0.257,1.062-0.318,2.228-0.238,3.329c0.28,2.25,1.154,4.042,2.004,5.621
					c1.81,3.135,3.637,5.633,5.364,8.474c1.796,2.838,3.783,5.578,5.609,8.208c0.914,1.299,1.752,2.619,2.318,3.833
					c0.59,1.244,0.884,2.373,0.811,3.494c-0.146,2.28-1.766,4.988-3.598,7.463c-0.935,1.287-1.896,2.31-3.061,4.003
					c-1.02,1.498-1.938,3.221-2.5,5.09c-0.559,1.883-0.797,3.912-0.533,5.938c0.265,1.971,0.981,3.897,1.906,5.563
					c0.938,1.663,2.133,3.091,3.427,4.396c0.607,0.573,1.23,1.157,1.885,1.663c-0.613,0.692-1.198,1.434-1.729,2.189
					c-1.098,1.563-2.097,3.299-2.821,5.133c-0.705,1.846-1.171,3.895-1.195,5.946c-0.081,2.073,0.343,4.172,1.133,6.073
					c0.761,1.918,1.9,3.609,3.177,5.074c0.646,0.757,1.327,1.449,2.03,2.084l0.938,0.863c0.29,0.297,0.56,0.56,0.866,0.854
					c1.06,1.121,1.916,2.323,2.403,3.586c0.447,1.269,0.568,2.694,0.369,4.198c-0.369,3.013-1.793,6.146-3.377,9.09
					c-0.822,1.504-1.691,2.975-2.619,4.441l-0.713,1.121c-0.265,0.381-0.532,0.832-0.726,1.262
					c-0.472,0.838-0.864,1.707-1.188,2.631c-2.729,7.15-2.072,15.265,1.435,21.879c1.74,3.372,4.145,6.287,6.975,8.639
					c2.834,2.412,6.063,4.254,9.403,5.654c6.749,2.77,13.942,3.822,21.032,4.057c14.24,0.399,28.272-2.207,41.809-5.957
					c-6.846,1.533-13.805,2.694-20.757,3.475c-6.976,0.783-13.99,1.104-20.939,0.601c-6.92-0.516-13.843-1.856-20.042-4.676
					c-3.104-1.418-6.026-3.194-8.503-5.401c-2.521-2.244-4.574-4.886-6.002-7.877c-2.912-5.893-3.244-13.027-0.845-19.042
					c0.319-0.739,0.649-1.434,1.047-2.12c0.195-0.358,0.383-0.648,0.625-1.015l0.718-1.087c0.978-1.502,1.938-3.021,2.84-4.62
					c1.76-3.146,3.44-6.519,4.09-10.502c0.301-1.978,0.22-4.169-0.496-6.212c-0.704-2.078-1.955-3.782-3.26-5.213
					c-0.337-0.35-0.682-0.711-1.009-1.031l-1.012-0.938c-0.596-0.549-1.123-1.106-1.638-1.724c-1.011-1.159-1.82-2.481-2.346-3.823
					c-1.117-2.725-0.957-5.727,0.214-8.548c0.57-1.435,1.357-2.797,2.293-4.082c0.466-0.612,0.976-1.263,1.519-1.868
					c0.503-0.576,1.123-1.197,1.622-1.648l2.49-2.188l-2.861-1.756c-0.511-0.312-1.166-0.763-1.724-1.262
					c-0.553-0.425-1.104-0.915-1.6-1.439c-1.042-1.049-1.912-2.172-2.582-3.391c-1.35-2.384-1.637-4.979-0.854-7.518
					c0.409-1.268,1.042-2.519,1.858-3.694c0.697-1.06,1.969-2.442,2.962-3.813c1.02-1.386,2.029-2.852,2.894-4.498
					c0.84-1.655,1.59-3.533,1.735-5.709c0.161-2.165-0.403-4.327-1.238-6.045c-0.804-1.697-1.767-3.211-2.746-4.597
					c-1.883-2.753-3.774-5.364-5.47-8.082c-1.711-2.802-3.69-5.614-5.156-8.219c-0.729-1.288-1.237-2.521-1.342-3.574
					c-0.134-1.041,0.113-2.03,0.749-3.207c1.251-2.28,3.569-4.548,5.922-6.626c2.346-2.104,4.903-4.118,7.496-6.088
					c2.604-1.955,5.218-3.894,7.882-5.832c2.692-1.953,5.349-3.983,7.914-6.104c10.348-8.402,19.69-18.426,26.551-30.051
					c3.445-5.775,6.271-11.918,8.517-18.223c2.25-6.319,3.945-12.768,5.363-19.254c2.823-12.966,4.528-26.029,6.377-39.049
					c1.846-12.789,5.904-25.412,12.948-36.354c3.526-5.466,7.79-10.448,12.696-14.76c4.925-4.296,10.355-8.098,16.479-10.524
					C335.397,115.832,332.422,117.303,329.551,118.952z"/>
			</g>
			<g>
				<path fill="#138B43" d="M411.687,108.573c-0.956,20.627,4.278,40.987,14.743,57.723c2.608,4.183,5.579,8.15,8.832,11.828
					c3.2,3.716,6.681,7.211,10.404,10.399c3.717,3.243,7.731,6.106,11.828,8.838c4.396,2.932,8.827,6.181,12.872,9.712
					c8.264,7.012,15.326,15.65,20.488,25.449c5.105,9.814,7.804,20.923,7.92,31.86c0.02,5.47-0.546,10.888-1.524,16.154
					c-1.091,5.289-2.659,10.398-4.531,15.355c-3.873,9.857-9.057,19.043-15.324,27.341c4.017-9.563,7.684-19.169,9.961-29.017
					c1.16-4.896,2.029-9.838,2.459-14.769c0.472-4.921,0.547-9.832,0.074-14.662c-0.472-4.817-1.268-9.563-2.679-14.149
					c-1.375-4.601-3.372-8.951-5.611-13.168c-4.573-8.462-11.087-15.759-18.319-22.331c-3.677-3.302-7.508-6.233-11.663-9.111
					c-4.416-3.058-8.596-6.485-12.525-10.18c-3.954-3.699-7.636-7.683-10.927-11.957c-3.254-4.311-6.169-8.88-8.697-13.658
					C409.581,151.139,406.619,128.727,411.687,108.573z"/>
			</g>
		</g>
	</g>
	<g>
		<g>
			<g>
				<path fill="#6ABE45" d="M309.223,208.249c0,0,38.413-15.308,62.672-10.814c24.275,4.494,37.06,22.228,37.06,22.228
					s-9.441-16.208-35.045-27.029C348.295,181.816,286.995,201.634,309.223,208.249L309.223,208.249z"/>
			</g>
			<g>
				<path fill="#6ABE45" d="M344.486,268.833c-5.044,1.032-10.14,1.611-15.281,1.833c-9.493,0.412-19.095-0.237-28.899-0.872
					c-0.055-0.852-0.107-1.74-0.092-2.624c-0.018-1.919,0.063-3.914,0.252-5.869c0.296-4.005,0.854-8.043,1.326-12.193
					c-2.318,3.496-4.04,7.317-5.486,11.285c-0.94,2.77-1.735,5.627-2.14,8.713c-2.604,0.123-5.505-0.289-8.692-1.611
					c2.717,2.406,5.578,3.753,8.516,4.475c0,0.475-0.037,0.907-0.021,1.396l0.021,0.252c-4.198,2.496-10.146,4.149-17.534,1.09
					c4.818,4.345,10.182,5.433,15.688,5.09c-4.835,3.296-11.521,6.592-20.487,8.709c13.429,0.431,26.392-3.566,37.011-9.477
					c-3.655,4.082-9.379,8.805-18.186,12.461c11.232-1.305,21.371-6.267,29.429-12.61c1.122,0,2.231-0.031,3.35-0.074
					c-2.316,3.355-5.771,6.818-10.953,9.497c8.602-0.785,15.699-4.921,21.025-10.581c1.489-0.269,2.975-0.573,4.421-0.977
					c-1.231,1.719-2.932,3.404-5.382,5.037c5.454-1.575,9.287-4.193,11.973-7.265c0.612-0.236,1.23-0.451,1.81-0.747
					c5.165-2.337,9.911-5.685,13.401-9.975C354.543,266.12,349.567,267.771,344.486,268.833z"/>
			</g>
		</g>
	</g>
</g>
</svg>
