<?xml version="1.0" encoding="utf-8"?>
<!-- Generator: Adobe Illustrator 16.0.0, SVG Export Plug-In . SVG Version: 6.00 Build 0)  -->
<!DOCTYPE svg PUBLIC "-//W3C//DTD SVG 1.1//EN" "http://www.w3.org/Graphics/SVG/1.1/DTD/svg11.dtd">
<svg version="1.1" id="Layer_1" xmlns="http://www.w3.org/2000/svg" xmlns:xlink="http://www.w3.org/1999/xlink" x="0px" y="0px"
	 width="540px" height="540px" viewBox="0 0 540 540" enable-background="new 0 0 540 540" xml:space="preserve">
<g>
	<path fill="#602E90" d="M391.02,335.96c0-87.834-71.203-159.04-159.037-159.04c-87.84-0.001-159.042,71.205-159.042,159.04
		S144.143,495,231.983,495C319.817,495,391.02,423.795,391.02,335.96z"/>
	<g>
		<path fill="#FFFFFF" d="M96.673,457.877c0,0-52.088-101.911,85.75-183.789C320.265,192.218,447.587,109.854,399.039,45
			c0,0,94.934,73.422-6.536,169.881C291.037,311.344,74.899,317.97,96.673,457.877z"/>
		<path fill="#FFFFFF" d="M98.812,460.844c0,0-12.806-95.153,119.073-121.511c131.883-26.361,255.577-56.035,235.244-120.888
			c0,0,54.645,84.556-52.524,132.592C293.438,399.08,120.578,344.074,98.812,460.844z"/>
		<path fill="#FFFFFF" d="M103.113,460.791c0,0,12.747-69.246,110.677-57.568c97.925,11.672,190.901,19.175,191.501-30.657
			c0,0,18.823,71.386-66.815,80.452C252.837,462.08,144.885,384.365,103.113,460.791z"/>
	</g>
	<g>
		<path fill="#9B69B1" d="M96.673,472.614c0,0-52.088-101.911,85.75-183.787c137.841-81.871,265.162-164.236,216.615-229.091
			c0,0,94.934,73.423-6.536,169.882C291.037,326.08,74.899,332.706,96.673,472.614z"/>
		<path fill="#9B69B1" d="M98.812,475.578c0,0-12.806-95.151,119.073-121.51c131.883-26.363,255.577-56.037,235.244-120.887
			c0,0,54.645,84.555-52.524,132.59C293.438,413.816,120.578,358.814,98.812,475.578z"/>
		<path fill="#9B69B1" d="M103.113,475.527c0,0,12.747-69.244,110.677-57.563c97.925,11.666,190.901,19.172,191.501-30.66
			c0,0,18.823,71.381-66.815,80.449C252.837,476.816,144.885,399.104,103.113,475.527z"/>
	</g>
</g>
</svg>
