<?xml version="1.0" encoding="utf-8"?>
<!-- Generator: Adobe Illustrator 16.0.0, SVG Export Plug-In . SVG Version: 6.00 Build 0)  -->
<!DOCTYPE svg PUBLIC "-//W3C//DTD SVG 1.1//EN" "http://www.w3.org/Graphics/SVG/1.1/DTD/svg11.dtd">
<svg version="1.1" id="Layer_1" xmlns="http://www.w3.org/2000/svg" xmlns:xlink="http://www.w3.org/1999/xlink" x="0px" y="0px"
	 width="540px" height="540px" viewBox="0 0 540 540" enable-background="new 0 0 540 540" xml:space="preserve">
<g>
	<g>
		<g>
			<path fill="#148F43" d="M468.764,132.422l-19.445,62.535l-310.815-4.104l19.552-62.863L468.764,132.422"/>
		</g>
		<g>
			<path fill="#148F43" d="M495,233.975l-24.25,77.983L45,305.461l24.064-77.382L495,233.975"/>
		</g>
		<g>
			<path fill="#148F43" d="M401.778,349.262l-19.527,62.797l-311.34-4.496l18.674-68.253l311.334,4.52"/>
		</g>
	</g>
	<g>
		<g>
			<path fill="#83C450" d="M399.645,48.764l67.254,77.525l-76.998-1.073l-32.156-35.572l33.01-6.277l0.979-0.187l0.225-0.976
				L399.645,48.764"/>
		</g>
		<g>
			<path fill="#83C450" d="M477.647,228.043l-234.165-3.407l-88.086-27.376l234.28,3.443L477.647,228.043"/>
		</g>
		<g>
			<path fill="#83C450" d="M384.139,342.579l-233.92-3.07L61.99,312.078l234.977,3.393L384.139,342.579"/>
		</g>
		<g>
			<path fill="#83C450" d="M149.948,414.959l32.146,35.514l-33.041,6.364l-0.986,0.183l-0.22,0.979l-7.639,33.237L73.01,413.805
				L149.948,414.959"/>
		</g>
	</g>
</g>
</svg>
