<?xml version="1.0" encoding="utf-8"?>
<!-- Generator: Adobe Illustrator 16.0.0, SVG Export Plug-In . SVG Version: 6.00 Build 0)  -->
<!DOCTYPE svg PUBLIC "-//W3C//DTD SVG 1.1//EN" "http://www.w3.org/Graphics/SVG/1.1/DTD/svg11.dtd">
<svg version="1.1" id="Layer_1" xmlns="http://www.w3.org/2000/svg" xmlns:xlink="http://www.w3.org/1999/xlink" x="0px" y="0px"
	 width="540px" height="540px" viewBox="0 0 540 540" enable-background="new 0 0 540 540" xml:space="preserve">
<g>
	<path fill="#D9E021" d="M221.565,435.604c-0.949,0.771-1.886,1.733-2.724,2.967c-0.635,0.966-1.222,2.049-1.708,3.235
		c-0.51,1.133-0.797,2.629-1.036,3.68l-0.042,0.701l-0.021,0.354l-0.011,0.173c-0.015-0.024,0.018,0.308-0.031-0.008l-0.122,1.098
		c-0.048,0.734-0.07,1.495-0.003,2.238c0.09,1.519,0.323,3.087,0.914,4.616c1.07,3.096,3.328,6.146,6.738,8.691
		c0.081,0.06,0.169,0.116,0.254,0.173l-0.818-27.141C222.478,436.136,222.015,435.879,221.565,435.604z"/>
	<path fill="#D9E021" d="M203.361,460.339c-3.332-4.237-5.527-9.092-6.648-13.293c-0.566-2.614-0.773-4.693-0.878-6.992
		c-0.074-2.239,0.082-4.439,0.442-6.565c1.288-8.52,6.394-16.543,12.853-22.174c4.144-3.611,8.468-5.896,12.847-7.251l-0.943-31.38
		l-2.614-0.891l-1.841-0.611l-1.885-0.744l-3.416-1.353c-2.362-1.135-5.001-2.238-7.194-3.546l-3.425-1.92l-3.277-2.134
		c-8.586-5.846-15.99-13.407-20.85-22.157c-2.438-4.354-4.535-8.912-5.855-13.655c-0.797-2.35-1.195-4.752-1.74-7.16
		c-0.324-2.413-0.777-4.852-0.875-7.286c-0.763-9.778,0.502-19.656,3.313-29.223c2.762-9.592,7.058-18.87,12.587-27.621
		c5.469-8.782,12.035-17.108,19.525-24.812c3.737-3.856,7.716-7.551,11.835-11.128c0.346-0.305,0.688-0.596,1.034-0.897
		l-3.725-123.62l-77.497-10.901l7.654,387.111L224.715,495l-0.632-20.982c-2.512-0.762-4.924-1.723-7.177-2.866
		C211.368,468.443,206.728,464.62,203.361,460.339z"/>
	<path fill="#D9E021" d="M213.408,305.719c-0.553-6.792,0.61-14.832,4.915-23.041l-0.839-27.86
		c-3.486,3.588-6.783,7.271-9.806,11.082c-10.954,13.876-18.907,29.397-20.368,45.322c-0.274,1.992-0.177,3.956-0.258,5.945
		c0.152,1.953,0.13,3.956,0.482,5.886c0.47,3.911,1.475,7.748,3,11.421c1.451,3.708,3.563,7.183,5.998,10.477
		c2.392,3.332,5.441,6.297,8.772,9.009c3.31,2.772,7.187,5.015,10.947,7.02l3.309,1.524l1.181,0.539l-1.224-40.611
		C216.446,318.346,214.03,312.645,213.408,305.719z"/>
	<path fill="#ED1E79" d="M270.925,345.772c-3.103-15.052-6.274-30.637-9.185-46.711c-1.387-7.457-2.692-15.024-3.927-22.68
		c-0.124,0.041-0.254,0.074-0.375,0.12c-8.838,2.925-15.868,7.599-20.95,12.979c-5.04,5.402-8.199,11.376-9.66,16.87
		c-0.362,1.292-0.625,2.548-0.813,3.778l0.122,9.439c0.083,0.42,0.167,0.835,0.271,1.231c0.966,3.966,2.899,6.865,4.449,8.67
		c0.763,0.889,1.495,1.568,1.995,1.998c0.487,0.437,0.734,0.659,0.734,0.659s-0.341-0.1-1.019-0.3
		c-0.336-0.097-0.757-0.22-1.263-0.37c-0.486-0.206-1.057-0.448-1.704-0.729c-0.966-0.438-2.112-1.039-3.337-1.836l0.477,36.446
		l2.471,0.808c4.417,1.412,8.936,2.574,13.525,3.303c4.572,0.808,9.199,1.241,13.792,1.362c6.541,0.198,13.012-0.38,19.2-1.61
		c-0.085-0.424-0.16-0.829-0.239-1.254C273.991,360.692,272.473,353.297,270.925,345.772z"/>
	<path fill="#ED1E79" d="M247.334,190.967c-1.351-15.649-2.377-31.546-2.808-47.691c-0.547-18.371-0.416-36.986,2.323-56.1
		c0.759-4.783,1.728-9.597,3.244-14.498c1.228-3.694,2.53-7.44,4.995-11.297l-32.263,4.2l1.891,144.87
		c0.782-0.658,1.564-1.318,2.347-1.988C233.824,202.665,240.681,196.84,247.334,190.967z"/>
	<path fill="#ED1E79" d="M234.491,402.391c11.966,0.188,21.47,8.615,21.47,18.602s-9.706,18.081-21.671,18.081
		c-2.304,0-4.518-0.308-6.599-0.87l0.348,26.608l28.53,2.651c4.483-1.372,8.774-3.538,12.552-6.436
		c4.619-3.632,8.403-8.349,10.714-13.762c0.628-1.36,1.037-2.696,1.502-4.075l0.563-2.284c0.163-0.606,0.266-1.458,0.4-2.182
		c0.52-3.009,0.789-6.114,0.908-9.281c0.258-6.325-0.203-12.872-0.881-19.576c-0.718-6.697-1.623-13.561-2.879-20.545
		c-0.674-3.9-1.397-7.858-2.146-11.854c-6.905,1.017-13.969,1.472-21.064,1.283c-9.857-0.248-19.792-1.728-29.38-4.348l0.372,28.459
		C229.654,402.494,232.082,402.354,234.491,402.391z"/>
	<path fill="#ED1E79" d="M285.072,275.53c-4.8-1.278-9.527-1.895-14.129-1.646c-1.158,0.004-2.282,0.182-3.423,0.279
		c-0.055,0.008-0.102,0.015-0.16,0.019c1.024,8.063,2.083,16.032,3.167,23.891c3.422,24.364,7.242,47.683,10.821,69.802
		c8.013-2.178,15.383-5.484,21.581-9.689V284.4C297.293,280.28,291.141,277.249,285.072,275.53z"/>
	<path fill="#ED1E79" d="M272.635,64.568c0.119-0.011,0.238-0.032,0.174-0.022C272.866,64.497,272.774,64.518,272.635,64.568z"/>
	<path fill="#ED1E79" d="M284.697,388.74c2.082,14.086,4.062,27.654,3.865,40.808c-0.039,3.283-0.226,6.542-0.687,9.767
		c-0.138,0.833-0.186,1.549-0.39,2.471l-0.474,2.299c-0.45,1.619-0.901,3.287-1.533,4.792c-2.354,6.188-6.45,11.718-11.589,16.209
		c-1.524,1.28-3.145,2.451-4.833,3.532l33.872,3.144V370.587c-6.408,2.593-13.192,4.566-20.182,5.933
		C283.406,380.634,284.063,384.713,284.697,388.74z"/>
	<path fill="#ED1E79" d="M298.666,64.927c1.558,1.873,2.952,3.792,4.26,5.731V55.154l-12.792,1.666
		c0.72,0.532,1.408,1.072,2.069,1.621C294.68,60.494,296.78,62.68,298.666,64.927z"/>
	<path fill="#ED1E79" d="M275.055,65.42c-0.663-0.365-1.241-0.56-1.684-0.694c-0.219-0.06-0.404-0.111-0.538-0.118
		c0.103-0.011-0.386-0.024,0.194-0.04l-0.407,0.012c-0.319,0.122-0.999,0.494-1.752,1.289c-2.282,2.321-4.292,6.329-5.77,10.343
		c-1.505,4.083-2.63,8.431-3.561,12.826c-1.864,8.815-2.877,17.886-3.475,26.938c-0.617,9.064-0.872,18.138-0.9,27.176
		c0.036,12.683,0.523,25.274,1.249,37.745c4.236-3.99,8.317-8.007,12.104-12.072c6.218-6.826,11.48-13.787,14.862-21.223
		c1.748-3.711,3.015-7.594,4.01-11.634c0.459-1.995,0.837-4.193,1.183-6.122l0.48-3.518l0.342-3.15
		c0.803-8.665,0.995-17.448-0.142-25.986c-1.175-8.488-3.645-16.968-8.218-23.93C280.787,69.866,277.783,66.783,275.055,65.42z"/>
	<path fill="#ED1E79" d="M245.996,257.381c1.563-0.75,3.204-1.38,4.842-2.081l2.628-0.937c0.355-0.124,0.667-0.242,0.995-0.359
		c-1.271-9.112-2.446-18.333-3.531-27.672c-0.508,0.414-1.012,0.831-1.521,1.243c-4.035,3.168-8.058,6.326-12.076,9.485
		c-3.777,2.912-7.375,5.957-10.843,9.072c-0.44,0.396-0.859,0.808-1.293,1.206l0.327,25.006
		C230.66,266.654,237.566,261.406,245.996,257.381z"/>
	<path fill="#ED1E79" d="M261.195,217.874c1.028,11.35,2.183,22.56,3.439,33.6c1.075-0.186,2.166-0.346,3.274-0.454
		c4.095-0.541,8.344-0.601,12.633-0.438c4.277,0.25,8.579,0.88,12.791,1.863c3.281,0.759,6.483,1.737,9.598,2.908v-81.421
		c-2.284,3.419-4.739,6.701-7.256,9.845C285.204,196.646,273.409,207.58,261.195,217.874z"/>
	<path fill="#00A99D" d="M329.512,50.501l-10.771,213.012c6.356,4.282,11.988,9.456,16.599,15.311
		c2.593,3.182,4.752,6.654,6.643,10.264c1.928,3.595,3.395,7.429,4.466,11.384c1.129,3.943,1.749,8.053,1.817,12.235
		c0.099,2.082-0.033,4.2-0.257,6.305l-0.485,3.465l-0.635,2.607c-0.158,0.776-0.511,1.953-0.838,3.033
		c-0.345,1.066-0.628,2.238-1.05,3.196c-0.778,1.997-1.604,3.974-2.637,5.897c-1.997,3.852-4.421,7.559-7.355,10.973
		c-5.754,6.872-13.158,12.682-21.423,17.324l-3.845,76.008l74.008,2.02L404.867,45L329.512,50.501z"/>
	<path fill="#00A99D" d="M324.607,320.365l-0.021-0.263l-0.044-0.529l-0.085-1.046c-0.18-1.392-0.292-2.771-0.637-4.135
		c-0.567-2.725-1.477-5.382-2.622-7.947c-1.175-2.644-2.616-5.177-4.245-7.586l-2.479,49.03c6.534-7.825,9.926-16.789,10.095-24.908
		l0.081-2.659C324.667,320.136,324.586,320.749,324.607,320.365z"/>
</g>
</svg>
