<?xml version="1.0" encoding="utf-8"?>
<!-- Generator: Adobe Illustrator 16.0.0, SVG Export Plug-In . SVG Version: 6.00 Build 0)  -->
<!DOCTYPE svg PUBLIC "-//W3C//DTD SVG 1.1//EN" "http://www.w3.org/Graphics/SVG/1.1/DTD/svg11.dtd">
<svg version="1.1" id="Layer_1" xmlns="http://www.w3.org/2000/svg" xmlns:xlink="http://www.w3.org/1999/xlink" x="0px" y="0px"
	 width="540px" height="540px" viewBox="0 0 540 540" enable-background="new 0 0 540 540" xml:space="preserve">
<path fill="#CB2027" d="M461.217,269.917l-11.471,11.296c13.758,13.973,23.604,31.223,28.621,50.092
	c-20.973,24.439-51.564,38.516-83.184,39.229c-1.934-6.389-4.369-12.654-7.281-18.689c-11.016-22.867-28.518-41.533-49.635-54.238
	c24.41-2.348,48.145-11.559,67.889-27.309c38.322-30.569,56.047-81.225,45.158-129.052l-4.367-5.468
	c-21.07-10.124-44.531-14.321-67.859-12.129l1.504,16.028c19.115-1.792,38.324,1.308,55.826,8.978
	c6.15,32.233-2.354,65.557-22.305,90.907c-5.148-1.888-10.445-3.467-15.818-4.695c-26.123-5.956-53.09-3.345-77.182,6.488
	c16.475-21.75,25.959-48.121,25.961-76.357c0-49.021-28.543-95.557-72.719-115.756h-6.996
	c-23.835,10.876-43.301,29.348-56.291,52.437l14.032,7.456c10.724-19.062,26.489-34.377,45.752-44.498
	c29.287,15.427,50.143,43.206,57.344,74.957c-5.98,3.374-11.717,7.233-17.115,11.539c-19.217,15.333-33.252,35.719-41.097,58.264
	c-7.875-22.398-21.867-42.641-40.984-57.887c-38.332-30.564-91.664-36.577-135.862-15.323l-4.364,5.469
	c-5.13,22.552-4.076,46.128,3.048,68.183l15.319-4.949c-5.832-18.053-7.016-37.271-3.473-55.827
	c29.444-12.898,63.041-12.323,91.804,0.69c-0.55,4.907-0.839,9.911-0.839,14.807c0,28.789,9.856,55.795,26.932,77.908
	c-24.763-10.753-52.777-13.777-79.874-7.594c-47.792,10.909-85.744,48.852-96.69,96.667l1.558,6.82
	c14.111,17.664,32.728,31.359,53.834,39.6l5.854-14.996c-17.25-6.734-32.599-17.633-44.609-31.633
	c8.456-31.727,30.599-58.072,59.597-72.246c3.965,4.132,8.226,8.027,12.725,11.615c19.226,15.329,42.22,24.459,65.943,27.094
	c-20.982,12.707-38.369,31.307-49.325,54.068c-21.269,44.166-15.265,97.492,15.295,135.863l6.306,3.035
	c24.554-0.021,48.483-7.025,69.214-20.258l-8.664-13.572c-17.034,10.877-36.544,16.941-56.646,17.658
	c-18.82-25.426-25.813-57.678-20.042-88.184c6.562-0.473,13.123-1.445,19.582-2.922c24.366-5.563,46.163-18.164,63.14-35.506
	c-2.641,23.625,1.182,47.967,11.805,70.023c21.273,44.16,66.714,72.717,115.765,72.748l6.307-3.037
	c14.65-18.408,23.979-40.498,26.975-63.883l-15.963-2.047c-2.457,19.164-9.775,37.336-21.221,52.797
	c-32.52-1.174-62.887-16.623-83.16-41.348c3.215-4.865,6.119-9.969,8.656-15.242c10.893-22.615,14.611-47.631,11.566-71.814
	c17.219,18.285,39.689,31.564,64.9,37.318c9.359,2.135,18.82,3.172,28.23,3.172c38.627-0.002,76.211-17.506,100.824-48.328
	l1.555-6.82C489.67,308.252,477.992,286.951,461.217,269.917z M394.719,250.56c2.494,0.571,4.961,1.251,7.412,1.986
	c-1.936,1.785-3.938,3.508-6.012,5.163c-28.91,23.058-67.576,30.137-102.475,19.736C320.582,252.799,358.582,242.318,394.719,250.56
	z M321.129,163.712c3.082-2.459,6.289-4.754,9.6-6.872c0.162,2.427,0.248,4.865,0.248,7.315c0,38.361-19.994,74.221-51.879,94.706
	C276.842,222.653,292.328,186.695,321.129,163.712z M210.917,158.267c2.754,1.816,5.447,3.751,8.054,5.828
	c28.454,22.691,43.931,58.04,42.145,93.794c-31.009-20.631-50.372-55.938-50.372-93.694
	C210.742,162.211,210.812,160.236,210.917,158.267z M137.64,252.603c2.513-0.765,5.059-1.447,7.64-2.036
	c36.296-8.283,74.472,2.313,101.432,27.186c-34.96,10.51-73.735,3.461-102.71-19.646
	C141.809,256.356,139.698,254.505,137.64,252.603z M172.045,367.787c-3.809,0.871-7.659,1.535-11.521,2.008
	c1.32-3.709,2.837-7.367,4.566-10.957c16.63-34.545,50.171-58.162,87.761-62.803C239.998,331.723,209.478,359.24,172.045,367.787z
	 M273.422,411.002c-1.281,2.664-2.688,5.266-4.174,7.82c-1.485-2.541-2.885-5.141-4.174-7.813
	c-16.222-33.682-14.304-73.463,4.169-105.357C287.717,337.541,289.643,377.314,273.422,411.002z M287.227,296.238
	c36.936,5.098,69.768,28.537,86.172,62.594c1.688,3.502,3.195,7.092,4.514,10.736c-3.32-0.441-6.635-1.023-9.936-1.775
	C330.614,359.266,300.131,331.838,287.227,296.238z"/>
</svg>
