<?xml version="1.0" encoding="utf-8"?>
<!-- Generator: Adobe Illustrator 16.0.0, SVG Export Plug-In . SVG Version: 6.00 Build 0)  -->
<!DOCTYPE svg PUBLIC "-//W3C//DTD SVG 1.1//EN" "http://www.w3.org/Graphics/SVG/1.1/DTD/svg11.dtd">
<svg version="1.1" id="Layer_1" xmlns="http://www.w3.org/2000/svg" xmlns:xlink="http://www.w3.org/1999/xlink" x="0px" y="0px"
	 width="540px" height="540px" viewBox="0 0 540 540" enable-background="new 0 0 540 540" xml:space="preserve">
<g>
	
		<radialGradient id="SVGID_1_" cx="80.5635" cy="3386.7539" r="116.1477" gradientTransform="matrix(1.5017 0 0 0.0781 158.3325 166.8293)" gradientUnits="userSpaceOnUse">
		<stop  offset="0" style="stop-color:#575756"/>
		<stop  offset="0.9951" style="stop-color:#FFFFFF;stop-opacity:0"/>
	</radialGradient>
	<ellipse fill="url(#SVGID_1_)" cx="279.315" cy="431.32" rx="183.42" ry="9.766"/>
	<circle fill="#4F4F4F" cx="331.748" cy="268.068" r="163.252"/>
	<path fill="#3C3C3B" d="M495,268.068c0,90.163-73.09,163.254-163.252,163.254c-37.448,0-71.951-12.607-99.497-33.813
		c0,0,129.794-23.966,174.613-107.348c44.819-83.377,9.478-161.747,9.478-161.747C463.498,157.04,495,208.875,495,268.068z"/>
	<g>
		<path fill="#A6569D" d="M226.47,247.506c12.377-32.378,48.657-48.594,81.038-36.217c14.334,5.478,25.492,15.648,32.41,28.085
			c33.82-30.518,46.33-68.576,46.33-68.576l-17.776-6.793c-2.585-0.988-5.476,0.307-6.466,2.889l-4.474,11.694l-142.199-54.357
			c-13.435-5.135-28.486,1.593-33.622,15.026L132.72,267.425c0,0,38.373,14.074,90.439,12.598
			C221.42,269.433,222.361,258.255,226.47,247.506z M240.498,192.363c-1.367,3.575-5.387,5.372-8.96,4.005l-31.487-12.036
			c-3.574-1.367-5.37-5.386-4.005-8.959l7.917-20.714c1.367-3.574,5.385-5.37,8.961-4.005l31.486,12.037
			c3.574,1.367,5.37,5.385,4.003,8.959L240.498,192.363z"/>
		<path fill="#FFFFFF" d="M408.315,194.412l3.273-8.564c1.971-5.16-0.622-10.959-5.778-12.931l-35.551-13.589
			c-5.161-1.972-10.962,0.62-12.935,5.779l-2.68,7.016l-137.522-52.567c-15.992-6.113-33.975,1.924-40.086,17.916l-48.992,128.169
			c-6.114,15.992,1.923,33.974,17.914,40.086l182.429,69.734c15.991,6.112,33.975-1.923,40.086-17.917l48.991-128.167
			C422.252,216.851,418.394,202.782,408.315,194.412z M363.797,355.753c-5.136,13.436-20.189,20.166-33.626,15.03l-182.425-69.737
			c-13.434-5.134-20.16-20.185-15.026-33.621l48.992-128.168c5.136-13.434,20.186-20.16,33.622-15.026l142.199,54.357l4.474-11.694
			c0.987-2.584,3.881-3.877,6.466-2.889l17.776,6.793l17.775,6.795c2.585,0.987,3.874,3.882,2.891,6.465l-4.646,12.148
			c10.362,6.461,15.047,19.546,10.523,31.38L363.797,355.753z"/>
		<path fill="#882790" d="M402.265,196.207l4.646-12.148c0.983-2.583-0.306-5.478-2.891-6.465l-17.775-6.795
			c0,0-12.507,38.058-46.33,68.576c8.711,15.656,10.702,34.905,3.804,52.952c-12.374,32.381-48.656,48.593-81.035,36.217
			c-21.629-8.269-36.029-27.205-39.527-48.522c-52.066,1.474-90.439-12.597-90.439-12.597c-5.134,13.435,1.592,28.487,15.026,33.622
			l182.425,69.736c13.434,5.136,28.49-1.594,33.624-15.03l48.992-128.166C417.312,215.753,412.63,202.669,402.265,196.207z"/>
		<path fill="#FFFFFF" d="M226.47,247.506c-4.109,10.75-5.05,21.927-3.311,32.518c3.499,21.314,17.898,40.251,39.527,48.521
			c32.379,12.376,68.661-3.838,81.035-36.216c6.898-18.047,4.907-37.296-3.804-52.952c-6.918-12.437-18.076-22.606-32.41-28.084
			C275.127,198.912,238.847,215.127,226.47,247.506z M336.551,289.585c-10.859,28.417-42.705,42.647-71.12,31.785
			c-18.678-7.139-31.224-23.341-34.548-41.677c-1.733-9.563-0.961-19.705,2.763-29.445c10.86-28.417,42.705-42.648,71.12-31.785
			c13.108,5.01,23.186,14.488,29.19,26.032C340.962,257.976,342.401,274.276,336.551,289.585z"/>
		<path fill="#3C3C3B" d="M233.643,250.248c-3.723,9.741-4.497,19.882-2.763,29.445c3.323,18.336,15.87,34.538,34.548,41.677
			c28.418,10.862,60.259-3.368,71.12-31.785c5.851-15.309,4.412-31.609-2.596-45.09c-6.003-11.544-16.081-21.022-29.189-26.032
			C276.348,207.6,244.505,221.831,233.643,250.248z M321.057,255.785c5.939,2.271,8.918,8.929,6.647,14.871
			c-2.272,5.943-8.931,8.917-14.87,6.646c-5.942-2.272-8.918-8.929-6.646-14.872C308.458,256.489,315.116,253.513,321.057,255.785z"
			/>
		<path fill="#3C3C3B" d="M242.623,167.365l-31.487-12.036c-0.994-0.38-2.112,0.12-2.494,1.114l-7.917,20.716
			c-0.38,0.995,0.12,2.113,1.114,2.495l31.488,12.037c0.996,0.38,2.112-0.12,2.493-1.116l7.918-20.714
			C244.118,168.866,243.618,167.748,242.623,167.365z"/>
		<path fill="#FFFFFF" d="M244.411,162.689l-31.486-12.037c-3.576-1.364-7.594,0.431-8.961,4.005l-7.917,20.714
			c-1.365,3.573,0.431,7.593,4.005,8.959l31.487,12.036c3.574,1.367,7.594-0.43,8.96-4.005l7.917-20.714
			C249.781,168.074,247.985,164.056,244.411,162.689z M235.82,190.574c-0.381,0.996-1.498,1.496-2.493,1.116l-31.488-12.037
			c-0.994-0.38-1.494-1.5-1.114-2.495l7.917-20.716c0.38-0.994,1.5-1.494,2.494-1.114l31.487,12.036
			c0.996,0.381,1.496,1.5,1.114,2.495L235.82,190.574z"/>
		<circle fill="#FFFFFF" cx="316.944" cy="266.543" r="11.519"/>
	</g>
	<g>
		<path fill="#3C3C3B" d="M64.985,164.949c2.493-6.523,9.801-9.791,16.327-7.297l52.156,19.937c6.523,2.493,9.79,9.804,7.294,16.327
			l0,0c-2.493,6.523-9.802,9.79-16.327,7.295L72.28,181.276C65.757,178.781,62.491,171.472,64.985,164.949L64.985,164.949z"/>
		<g>
			<path fill="#3C3C3B" d="M45.16,232.035c-1.101-6.896,3.597-13.379,10.49-14.481l55.137-8.813
				c6.896-1.102,13.379,3.595,14.484,10.491l0,0c1.099,6.895-3.597,13.379-10.491,14.481l-55.137,8.813
				C52.745,243.627,46.26,238.931,45.16,232.035L45.16,232.035z"/>
			<path fill="#3C3C3B" d="M94.962,101.744c-5.419,4.403-6.247,12.365-1.844,17.787l35.199,43.344
				c4.403,5.419,12.365,6.246,17.788,1.844l0,0c5.419-4.403,6.247-12.365,1.845-17.787l-35.198-43.345
				C108.347,98.167,100.383,97.341,94.962,101.744L94.962,101.744z"/>
		</g>
	</g>
</g>
</svg>
