<?xml version="1.0" encoding="utf-8"?>
<!-- Generator: Adobe Illustrator 15.0.0, SVG Export Plug-In . SVG Version: 6.00 Build 0)  -->
<!DOCTYPE svg PUBLIC "-//W3C//DTD SVG 1.1//EN" "http://www.w3.org/Graphics/SVG/1.1/DTD/svg11.dtd">
<svg version="1.1" id="Layer_1" xmlns="http://www.w3.org/2000/svg" xmlns:xlink="http://www.w3.org/1999/xlink" x="0px" y="0px"
	 width="295.758px" height="299.667px" viewBox="0 0 295.758 299.667" enable-background="new 0 0 295.758 299.667"
	 xml:space="preserve">
<g>
	<g>
		<path fill="#DDD317" d="M143.301,20.331c18.562-6.052,37.488-8.042,55.789-6.46c-23.332-4.885-48.229-3.958-72.52,3.965
			C73.159,35.242,37.229,81.5,30.369,133.716h17.115C55.142,82.529,90.752,37.471,143.301,20.331z M150.394,28.467
			c-49.18,16.033-82.869,57.617-91.201,105.25h16.466c9.034-46.625,42.399-87.087,90.761-102.852
			c17.765-5.793,35.883-7.706,53.41-6.195C197.48,19.989,173.658,20.886,150.394,28.467z M120.193,9.868
			c19.354-6.311,39.074-8.384,58.139-6.745c-24.312-5.089-50.268-4.124-75.587,4.131C45.152,26.035,7.062,76.992,1.858,133.716
			h17.737C25.707,78.043,63.476,28.357,120.193,9.868z"/>
	</g>
	<g>
		<path fill="#FFF148" d="M259.725,215.142c-4.033,19.102-11.771,36.494-22.299,51.563c15.896-17.772,27.539-39.793,32.834-64.793
			c11.617-54.96-10.473-109.212-52.271-141.255l-8.547,14.819C249.936,107.701,271.166,161.074,259.725,215.142z M249.131,217.22
			c10.711-50.607-8.465-100.58-45.561-131.603l-8.217,14.254c35.857,31.142,54.211,80.266,43.693,130.039
			c-3.873,18.285-11.283,34.916-21.338,49.345C232.928,262.242,244.066,241.144,249.131,217.22z M280.336,200.371
			c-4.203,19.906-12.26,38.011-23.219,53.718c16.578-18.521,28.689-41.47,34.209-67.521
			c12.531-59.267-12.541-117.736-59.072-150.607l-8.867,15.357C268.535,84.447,292.686,142.007,280.336,200.371z"/>
	</g>
	<g>
		<path fill="#B7B30F" d="M35.729,220.342c-14.53-13.05-25.716-28.44-33.505-45.082c7.44,22.658,20.683,43.744,39.7,60.832
			c41.783,37.535,99.808,45.534,148.466,25.356l-8.557-14.819C133.667,265.597,76.845,257.289,35.729,220.342z M39.228,210.133
			c38.478,34.571,91.337,42.959,136.739,26.36l-8.215-14.258c-44.897,15.486-96.632,6.816-134.468-27.182
			c-13.909-12.49-24.602-27.227-32.063-43.15C8.35,173.59,21.034,193.779,39.228,210.133z M38.224,245.592
			c-15.145-13.595-26.801-29.631-34.914-46.978c7.744,23.607,21.556,45.588,41.36,63.394
			C89.733,302.496,152.906,310,204.648,286.146l-8.865-15.357C144.499,293.324,82.583,285.462,38.224,245.592z"/>
	</g>
</g>
</svg>
