<?xml version="1.0" encoding="utf-8"?>
<!-- Generator: Adobe Illustrator 16.0.0, SVG Export Plug-In . SVG Version: 6.00 Build 0)  -->
<!DOCTYPE svg PUBLIC "-//W3C//DTD SVG 1.1//EN" "http://www.w3.org/Graphics/SVG/1.1/DTD/svg11.dtd">
<svg version="1.1" id="Layer_1" xmlns="http://www.w3.org/2000/svg" xmlns:xlink="http://www.w3.org/1999/xlink" x="0px" y="0px"
	 width="540px" height="540px" viewBox="0 0 540 540" enable-background="new 0 0 540 540" xml:space="preserve">
<g>
	<path fill="#914574" d="M311.606,387.434c8.127,27.125,31.341,41.523,42.639,51.804c12.624,10.126,18.855,15.945,17.704,18.334
		c-1.042,2.238-11.275-1.107-27.016-10.19c-14.553-9.563-39.63-23.667-49.14-56.247c-3.475-16.27-1.171-34.563,11.813-48.262
		c13.255-12.858,29.507-15.348,42.459-20.115c13.379-4.107,24.114-11.041,30.023-21.533c5.984-9.898,1.55-22.083-2.014-33.935
		c-3.824-11.8-5.014-24.982-0.044-35.052c4.181-10.559,15.239-15.277,22.793-13.601c15.521,3.113,19.543,12.984,19.938,12.088
		c-0.177,0.867-5.802-8.321-20.136-9.567c-16.21-2.265-25.927,22.429-14.878,43.558c3.928,10.399,11.745,25.592,4.297,41.375
		c-6.496,14.443-21.125,24.465-35.212,29.507c-13.794,5.53-28.246,9.394-36.079,18.103
		C311.031,361.585,309.013,376.137,311.606,387.434z"/>
	<path fill="#783F68" d="M289.956,163.747c26.948,8.738,47.62,19.348,58.248,30.929c10.832,11.402,11.874,20.064,9.387,21.67
		c-2.938,2.014-9.099-4.25-20.992-11.15c-12.025-6.971-30.494-14.102-53.349-21.471c-48.202-13.116-95.829-46.307-124.866-76.806
		c-29.607-31.844-35.892-62.486-36.271-61.911c0.289-0.469,11.956,28.153,43.554,54.33
		C197.658,124.88,243.306,151.123,289.956,163.747z"/>
	<path fill="#783F68" d="M276.265,194.061c24.067,12.77,40.71,28.247,46.422,42.35c5.766,14.103,2.507,22.011,0.453,22.044
		c-2.881,0.346-4.25-8.051-11.964-18.173c-7.88-10.121-22.927-21.471-42.688-31.938c-41.175-19.22-86.133-48.274-115.027-75.384
		c-14.661-13.652-25.286-27.613-30.11-38.815c-4.901-11.259-3.769-18.628-4.11-18.52c0.323-0.109,0.323,7.312,6.374,17.367
		c5.941,10.07,17.6,22.082,33.085,33.787C190.252,150.492,233.522,174.049,276.265,194.061z"/>
	<path fill="#A5548C" d="M199.497,222.473c4.127,3.279,8.937,6.398,8.089,12.534c-0.663,5.028-4.751,6.753-7.414,10.359
		c-2.145,2.881-2.811,5.132-2.327,8.16c1.085,6.398,7.698,14.121,14.106,20.373c3.553,3.551,13.117,8.92,14.019,14.18
		c0.791,4.677-4.341,8.463-5.639,12.533c-1.551,4.894,2,11.711,6.512,16.606c19.311,20.083,38.365,25.473,37.899,25.494
		c0.323-0.306-19.162-0.345-44.02-19.242c-8.965-6.796-16.883-20.896-9.548-31.578c-10.478-8.206-24.944-20.935-29.735-34.961
		c-4.738-13.885,1.905-20.912,5.495-22.372c-8.425-3.781-17.219-14.732-22.876-21.817c-3.568-4.483-7.023-8.97-9.567-15.055
		c-1.172-3.062-2.361-6.688-1.713-11.439c0.883-6.431,8.162-10.141,14.121-10.539c-7.401,0.507-14.795-12.932-18.049-17.974
		c-16.304-25.197-22.374-42.043-22.914-41.896c0.322-0.432,10.824,15.059,29.688,36.35c4.775,5.208,10.629,10.104,17.146,14.86
		c3.549,2.573,6.84,4.033,9.373,7.871c4.828,7.316,1.51,9.349-5.368,10.899c-11.026,2.502-6.706,9.35-0.039,15.979
		C183.246,208.888,191.176,215.877,199.497,222.473z"/>
	<path fill="#783F68" d="M307.929,137.665c15.995,15.097,30.943,30.801,38.44,44.653c7.801,13.742,11.417,29.252,11.594,29.091
		c0,0-8.063-13.851-18.554-23.779c-10.264-10.231-26.675-21.381-43.644-37.394c-17.078-15.6-29.059-37.232-28.636-53.836
		c-0.127-16.339,5.672-24.551,5.253-24.585c0.316-0.109-0.884,9.852,3.367,23.163C279.702,108.502,291.823,122.585,307.929,137.665z
		"/>
	<path fill="#E5AECE" d="M379.871,192.999c-5.096,0.829-15.056,10.661-19.742,5.079c-6.558-7.818,14.371-15.524,18.695-16.391
		c9.679-1.512,18.052,6.052,21.737,11.724c4.201,6.018,6.887,11.871,9.573,16.789c5.01,10.032,10.389,16.05,10.389,16.05
		c0.094,0.071-7.47-3.748-15.309-12.482c-6.323-7.042-14.244-21.035-24.777-20.822C380.249,192.946,380.069,192.965,379.871,192.999
		z"/>
	<path fill="#E5AECE" d="M256.835,449.321c-3.335,15.479-2.326,23.349-6.449,24.538c-3.422,1.389-9.351-11.047-5.459-27.219
		c8.179-32.621,37.971-56.67,37.032-57.026C282.748,389.751,263.005,422.178,256.835,449.321z"/>
	<path fill="#E5AECE" d="M286.642,467.371c1.172,17.452,2.199,26.171-1.8,27.527c-3.396,1.311-9.462-10.229-10.373-26.837
		c-3.138-34.631,18.854-69.716,18.985-68.882"/>
	<path fill="#E5AECE" d="M325.906,466.547c6.018,12.03,9.618,17.472,6.797,20.713c-2.219,2.882-11.868-3.049-17.745-15.385
		c-10.694-25.021-11.577-55.456-12.883-55.456C303.054,415.6,316.505,444.857,325.906,466.547z"/>
	<path fill="#E5AECE" d="M330.412,409.444c-10.214-10.474-12.946-17.363-11.117-18.875c2.057-1.697,8.581,4.739,16.879,13.143
		c15.975,17.961,42.222,32.079,42.474,31.851C379.004,436.024,348.175,428.926,330.412,409.444z"/>
</g>
</svg>
