<?xml version="1.0" encoding="utf-8"?>
<!-- Generator: Adobe Illustrator 16.0.0, SVG Export Plug-In . SVG Version: 6.00 Build 0)  -->
<!DOCTYPE svg PUBLIC "-//W3C//DTD SVG 1.1//EN" "http://www.w3.org/Graphics/SVG/1.1/DTD/svg11.dtd">
<svg version="1.1" id="Layer_1" xmlns="http://www.w3.org/2000/svg" xmlns:xlink="http://www.w3.org/1999/xlink" x="0px" y="0px"
	 width="540px" height="540px" viewBox="0 0 540 540" enable-background="new 0 0 540 540" xml:space="preserve">
<g>
	<g>
		
			<radialGradient id="SVGID_1_" cx="286.72" cy="3382.8867" r="160.44" gradientTransform="matrix(1 0 0 0.1 -16.7197 85.6281)" gradientUnits="userSpaceOnUse">
			<stop  offset="0" style="stop-color:#000000;stop-opacity:0.4"/>
			<stop  offset="1" style="stop-color:#FFFFFF;stop-opacity:0"/>
		</radialGradient>
		<ellipse fill="url(#SVGID_1_)" cx="270" cy="423.917" rx="225" ry="29.162"/>
	</g>
	<g>
		<path fill="#D1DD33" d="M264.052,197.907l77.583,85.322l68.141,75.075h8.716c9.474,0,18.053-5.588,21.881-14.24
			c3.832-8.668,2.192-18.774-4.177-25.787L280.659,145.026c-4.709-5.167-11.477-8.019-18.418-7.818
			c-6.988,0.211-13.537,3.464-17.921,8.902L104.731,319.366c-5.779,7.174-6.928,17.027-2.948,25.337
			c3.978,8.312,12.376,13.599,21.586,13.599h10.179L264.052,197.907z"/>
		<polygon fill="#94A000" points="367.049,310.363 172.556,310.363 133.546,358.305 409.774,358.305 		"/>
		<polygon fill="#B31900" points="366.624,134.779 404.079,86.922 132.632,86.922 175.762,134.779 		"/>
		<path fill="#F0562F" d="M438.219,100.522c-3.976-8.311-12.369-13.6-21.581-13.6h-12.56l-37.454,47.857l-90.675,112.54
			l-85.596-94.138l24.739,27.455l-24.739-27.455l-14.743-18.403h0.149l-43.129-47.857h-11.12c-9.474,0-18.05,5.586-21.882,14.249
			c-3.831,8.666-2.195,18.771,4.177,25.779l155.536,173.251c4.708,5.174,11.479,8.018,18.422,7.818
			c6.986-0.203,13.529-3.461,17.92-8.9l139.584-173.252C441.056,118.688,442.198,108.833,438.219,100.522z"/>
		<polygon fill="#D1DD33" points="334.765,275.676 366.409,241.527 303.836,170.519 269.371,203.757 		"/>
	</g>
</g>
</svg>
