<?xml version="1.0" encoding="utf-8"?>
<!-- Generator: Adobe Illustrator 16.0.0, SVG Export Plug-In . SVG Version: 6.00 Build 0)  -->
<!DOCTYPE svg PUBLIC "-//W3C//DTD SVG 1.1//EN" "http://www.w3.org/Graphics/SVG/1.1/DTD/svg11.dtd">
<svg version="1.1" id="Layer_1" xmlns="http://www.w3.org/2000/svg" xmlns:xlink="http://www.w3.org/1999/xlink" x="0px" y="0px"
	 width="540px" height="540px" viewBox="0 0 540 540" enable-background="new 0 0 540 540" xml:space="preserve">
<g>
	<path fill="#E5535D" d="M159.824,413.459c0,0-9.188,0.693-22.055-3.4c-6.397-2.047-13.584-5.324-21.068-10.565
		c-3.718-2.59-7.534-5.702-11.342-9.435c-3.776-3.708-7.574-8.032-11.327-13.048c-3.742-5.046-7.43-10.826-11.021-17.082
		c-3.56-6.274-7.015-13.053-10.239-20.114c-3.231-7.029-6.229-14.383-8.937-21.71c-2.712-7.348-5.139-14.674-7.222-21.729
		c-2.07-7.033-3.856-13.771-5.351-19.889c-1.475-6.146-2.673-11.651-3.575-16.289c-1.819-9.265-2.688-14.981-2.688-14.981
		s3.165,1.512,8.587,4.153c5.41,2.661,13.325,6.512,22.657,11.224c4.696,2.34,9.902,4.97,15.423,7.762
		c5.52,2.771,11.331,5.733,17.252,8.785c5.925,3.067,11.903,6.201,17.719,9.339c5.754,3.165,11.32,6.275,16.35,9.301
		c5.038,3.042,9.775,6.229,14.194,9.604c4.423,3.354,8.501,6.874,12.225,10.512c3.712,3.644,7.063,7.375,10.015,11.18
		c2.925,3.81,5.458,7.677,7.575,11.6c4.247,7.847,6.742,15.791,7.601,23.591c0.831,7.803,0.024,15.48-2.358,22.901
		c0,0,1.431-8.25-11.965-21.687c-3.36-3.377-7.609-7.155-12.933-11.25c-5.339-4.087-11.713-8.482-19.296-13.168
		c-3.792-2.325-7.837-4.707-12.104-7.134c-4.294-2.452-8.834-4.926-13.592-7.439c-4.802-2.52-9.784-5.044-14.965-7.582
		c-5.201-2.525-10.558-5.086-16.212-7.638c0,0,1.286,6.066,3.924,15.245c1.321,4.564,3.007,9.896,5.104,15.604
		c2.056,5.678,4.526,11.748,7.405,17.807c2.834,6.063,6.089,12.132,9.727,17.86c3.604,5.761,7.584,11.224,11.938,16.147
		c4.354,4.922,9.063,9.325,14.147,12.979C148.492,408.563,153.98,411.486,159.824,413.459z"/>
	<path fill="#F9808C" d="M343.531,378.504c0,0-2.725-9.993,0.791-24.924c0.873-3.729,2.135-7.823,3.961-12.174
		c1.805-4.378,4.145-8.968,7.188-13.726c3.021-4.702,6.699-9.579,11.139-14.431c4.451-4.847,9.635-9.677,15.678-14.342
		c6.031-4.659,12.613-9.204,19.467-13.525c6.803-4.305,13.836-8.449,20.762-12.267c6.895-3.841,13.631-7.401,19.961-10.597
		c6.334-3.212,12.279-6.091,17.592-8.605c5.33-2.522,10.193-4.724,14.465-6.595c4.268-1.885,7.979-3.474,10.979-4.714
		c5.979-2.481,9.488-3.762,9.488-3.762s-0.93,5.19-2.652,13.603c-0.873,4.19-1.971,9.221-3.301,14.792
		c-1.357,5.597-2.918,11.726-4.713,18.169c-1.777,6.439-3.826,13.149-6.061,19.853c-2.264,6.729-4.688,13.431-7.227,19.902
		c-2.533,6.468-5.199,12.646-7.814,18.356c-2.656,5.71-5.275,10.942-7.801,15.46c-2.521,4.467-5.152,8.654-7.857,12.458
		c-2.713,3.828-5.521,7.302-8.396,10.466c-5.756,6.303-11.832,11.344-18.16,15.141c-6.309,3.86-12.934,6.52-19.771,7.974
		c-6.824,1.453-13.953,1.709-21.225,0.761c0,0,8.188,0.24,21.449-10.896c3.305-2.775,6.91-6.368,10.773-10.96
		c3.852-4.617,7.965-10.27,12.281-17.217c2.137-3.473,4.322-7.324,6.549-11.529c2.213-4.235,4.453-8.848,6.723-13.915
		c2.256-5.046,4.488-10.559,6.707-16.524c2.209-6.023,4.383-12.513,6.539-19.496c0,0-4.809,1.324-12.568,4.184
		c-3.877,1.449-8.598,3.274-13.865,5.487c-5.291,2.264-11.18,4.897-17.373,7.971c-6.184,3.07-12.732,6.565-19.24,10.484
		c-6.5,3.898-12.951,8.203-18.9,12.935c-5.934,4.685-11.348,9.727-15.752,15.099C348.932,366.78,345.537,372.491,343.531,378.504z"
		/>
	<path fill="#CC2B33" d="M232.175,370.686c0,0-3.071-1.454-7.504-4.492c-4.459-3.019-10.296-7.65-15.973-14.008
		c-2.833-3.185-5.581-6.842-8.106-11.028c-2.536-4.16-4.772-8.845-6.563-14.028c-1.812-5.187-3.133-10.963-3.748-17.327
		c-0.603-6.376-0.499-13.346,0.561-20.976c1.036-7.658,2.949-15.983,5.55-24.805c1.305-4.398,2.798-8.923,4.411-13.524
		c1.641-4.576,3.427-9.25,5.33-13.964c1.897-4.702,3.923-9.414,6.04-14.125c2.127-4.711,4.326-9.385,6.612-14.025
		c2.274-4.629,4.589-9.18,6.921-13.599c2.354-4.445,4.683-8.738,7.038-12.909c4.656-8.297,9.211-15.948,13.427-22.728
		c4.174-6.775,8.018-12.685,11.217-17.47c6.417-9.582,10.495-15.181,10.495-15.181s3.398,5.257,8.863,14.144
		c2.752,4.43,6.043,9.865,9.693,16.053c3.633,6.169,7.67,13.122,11.826,20.601c4.164,7.479,8.504,15.472,12.75,23.696
		c2.125,4.104,4.244,8.252,6.266,12.409c2.07,4.145,4.064,8.298,5.994,12.416c3.857,8.214,7.393,16.249,10.459,23.757
		c3.061,7.51,5.646,14.514,7.582,20.708c1.939,6.201,3.342,12.142,4.221,17.808c0.891,5.657,1.26,11.058,1.125,16.19
		c-0.098,5.132-0.668,10.013-1.697,14.625c-1.023,4.592-2.48,8.94-4.375,13.058c-1.879,4.088-4.145,7.943-6.867,11.576
		c-2.682,3.613-5.758,6.974-9.219,10.057c-3.463,3.112-7.309,5.991-11.496,8.588c-4.209,2.618-8.803,4.975-13.723,7.058
		c0,0,2.5-1.311,5.262-4.869c2.775-3.547,5.793-9.275,6.885-18.172c0.559-4.424,0.57-9.871-0.227-16.381
		c-0.781-6.537-2.451-14.219-5.314-23.255c-1.432-4.521-3.189-9.418-5.293-14.725c-2.123-5.304-4.602-11.01-7.535-17.138
		c-2.885-6.137-6.219-12.702-9.998-19.707c-3.809-7.017-8.074-14.419-12.792-22.268c0,0-4.995,6.144-11.853,16.176
		c-3.432,5.008-7.316,10.937-11.236,17.507c-3.897,6.534-7.825,13.691-11.389,21.105c-3.557,7.419-6.706,15.029-9.125,22.591
		c-2.44,7.566-4.126,15.024-4.781,22.214c-0.666,7.185-0.333,14.055,1.31,20.492C224.802,359.245,227.704,365.239,232.175,370.686z"
		/>
</g>
</svg>
