<?xml version="1.0" encoding="utf-8"?>
<!-- Generator: Adobe Illustrator 16.0.0, SVG Export Plug-In . SVG Version: 6.00 Build 0)  -->
<!DOCTYPE svg PUBLIC "-//W3C//DTD SVG 1.1//EN" "http://www.w3.org/Graphics/SVG/1.1/DTD/svg11.dtd">
<svg version="1.1" id="Layer_1" xmlns="http://www.w3.org/2000/svg" xmlns:xlink="http://www.w3.org/1999/xlink" x="0px" y="0px"
	 width="540px" height="540px" viewBox="0 0 540 540" enable-background="new 0 0 540 540" xml:space="preserve">
<g>
	<path fill="#A440BC" d="M328.28,212.406c-12.843-11.844-23.472-22.796-32.223-32.978V91.3
		c14.644,24.055,36.747,43.53,41.621,70.968v22.515C336.276,193.167,333.29,202.299,328.28,212.406L328.28,212.406z M296.06,342.485
		V214.469c24.65,24.708,45.706,49.504,31.364,83.429C320.993,313.108,309.176,327.655,296.06,342.485z M296.06,179.429
		C236.093,109.658,264.89,76.418,282.786,45c-0.657,18.258,5.166,32.981,13.273,46.3V179.429L296.06,179.429z M296.06,214.469
		c-20.385-20.434-43.228-40.813-50.541-66.241c-41.789,62.294,62.327,97.563-6.373,162.326
		c12.629-22.59-0.699-84.389-49.367-101.654c36.021,56.964-122.256,164.092,54.904,284.917
		c-31.918-66.374,14.785-109.959,51.375-151.332V214.469H296.06z"/>
	<path fill="#3273BF" d="M346.103,269.239c37.85,85.022-123.365,110.57-80.861,225.761c30.672-23.647,76.935-90.6,85.45-122.85
		c2.091,26.61-21.667,69.639-46.344,101.857C385.951,444.385,406.576,335.511,346.103,269.239z"/>
</g>
</svg>
