<?xml version="1.0" encoding="utf-8"?>
<!-- Generator: Adobe Illustrator 16.0.0, SVG Export Plug-In . SVG Version: 6.00 Build 0)  -->
<!DOCTYPE svg PUBLIC "-//W3C//DTD SVG 1.1//EN" "http://www.w3.org/Graphics/SVG/1.1/DTD/svg11.dtd">
<svg version="1.1" id="Layer_1" xmlns="http://www.w3.org/2000/svg" xmlns:xlink="http://www.w3.org/1999/xlink" x="0px" y="0px"
	 width="540px" height="540px" viewBox="0 0 540 540" enable-background="new 0 0 540 540" xml:space="preserve">
<g>
	<path fill="#0095DA" d="M311.604,387.435c8.129,27.124,31.344,41.521,42.641,51.803c12.623,10.126,18.855,15.946,17.703,18.334
		c-1.041,2.237-11.275-1.107-27.016-10.191c-14.551-9.563-39.629-23.665-49.139-56.248c-3.477-16.269-1.172-34.563,11.811-48.26
		c13.26-12.859,29.51-15.349,42.461-20.115c13.379-4.107,24.115-11.043,30.023-21.534c5.984-9.897,1.551-22.082-2.014-33.934
		c-3.824-11.8-5.014-24.982-0.043-35.052c4.18-10.558,15.238-15.277,22.793-13.6c15.521,3.113,19.543,12.984,19.936,12.088
		c-0.174,0.867-5.801-8.321-20.135-9.567c-16.211-2.266-25.926,22.428-14.881,43.558c3.93,10.398,11.748,25.592,4.301,41.375
		c-6.498,14.443-21.125,24.463-35.213,29.506c-13.795,5.529-28.244,9.395-36.08,18.102
		C311.031,361.585,309.012,376.136,311.604,387.435z"/>
	<path fill="#00427A" d="M289.953,163.748c26.949,8.738,47.623,19.348,58.248,30.929c10.834,11.402,11.877,20.065,9.389,21.67
		c-2.938,2.014-9.1-4.25-20.992-11.15c-12.025-6.971-30.492-14.102-53.35-21.471c-48.202-13.117-95.828-46.308-124.866-76.806
		c-29.607-31.844-35.892-62.486-36.271-61.912c0.289-0.469,11.956,28.153,43.554,54.33
		C197.657,124.879,243.305,151.123,289.953,163.748z"/>
	<path fill="#00427A" d="M276.264,194.062c24.068,12.77,40.709,28.248,46.422,42.351c5.766,14.102,2.506,22.011,0.453,22.044
		c-2.883,0.346-4.25-8.051-11.965-18.173c-7.879-10.121-22.926-21.471-42.686-31.938c-41.175-19.22-86.135-48.273-115.027-75.383
		c-14.662-13.652-25.288-27.613-30.111-38.815c-4.899-11.259-3.768-18.628-4.109-18.52c0.323-0.109,0.323,7.312,6.373,17.367
		c5.942,10.07,17.602,22.083,33.085,33.787C190.252,150.492,233.52,174.048,276.264,194.062z"/>
	<path fill="#0095DA" d="M199.495,222.474c4.13,3.279,8.938,6.398,8.091,12.534c-0.665,5.028-4.753,6.752-7.416,10.359
		c-2.143,2.88-2.811,5.132-2.326,8.16c1.085,6.398,7.696,14.121,14.106,20.373c3.551,3.551,13.116,8.919,14.018,14.179
		c0.79,4.677-4.342,8.464-5.641,12.534c-1.55,4.895,2.001,11.712,6.515,16.607c19.31,20.082,38.365,25.473,37.9,25.494
		c0.323-0.307-19.166-0.346-44.021-19.242c-8.966-6.797-16.88-20.896-9.549-31.579c-10.476-8.206-24.943-20.933-29.734-34.962
		c-4.74-13.885,1.903-20.912,5.493-22.372c-8.425-3.781-17.22-14.732-22.875-21.817c-3.568-4.483-7.023-8.97-9.568-15.055
		c-1.171-3.062-2.36-6.688-1.711-11.439c0.881-6.431,8.159-10.141,14.118-10.539c-7.402,0.507-14.794-12.932-18.048-17.974
		c-16.301-25.196-22.374-42.042-22.914-41.896c0.322-0.431,10.825,15.06,29.69,36.351c4.772,5.208,10.628,10.103,17.146,14.86
		c3.551,2.573,6.842,4.033,9.373,7.872c4.83,7.316,1.511,9.349-5.368,10.899c-11.025,2.502-6.706,9.35-0.039,15.979
		C183.247,208.889,191.176,215.877,199.495,222.474z"/>
	<path fill="#00427A" d="M307.928,137.665c15.996,15.097,30.943,30.801,38.439,44.654c7.801,13.742,11.42,29.252,11.596,29.091
		c0,0-8.064-13.851-18.553-23.779c-10.262-10.231-26.674-21.381-43.645-37.393c-17.076-15.6-29.058-37.232-28.636-53.836
		c-0.127-16.339,5.673-24.551,5.253-24.585c0.318-0.109-0.885,9.852,3.367,23.163C279.705,108.503,291.826,122.586,307.928,137.665z
		"/>
	<path fill="#71C5EF" d="M379.869,193c-5.096,0.829-15.055,10.661-19.74,5.08c-6.561-7.818,14.369-15.524,18.695-16.391
		c9.68-1.512,18.051,6.051,21.736,11.723c4.203,6.02,6.885,11.871,9.574,16.789c5.008,10.032,10.389,16.05,10.389,16.05
		c0.092,0.071-7.469-3.748-15.311-12.482c-6.32-7.042-14.242-21.035-24.777-20.822C380.25,192.946,380.071,192.965,379.869,193z"/>
	<path fill="#71C5EF" d="M256.836,449.321c-3.336,15.479-2.327,23.35-6.449,24.539c-3.422,1.388-9.352-11.047-5.46-27.219
		c8.18-32.622,37.97-56.672,37.033-57.027C282.746,389.751,263.005,422.178,256.836,449.321z"/>
	<path fill="#71C5EF" d="M286.641,467.371c1.174,17.453,2.199,26.172-1.799,27.528c-3.395,1.309-9.461-10.229-10.373-26.836
		c-3.137-34.632,18.854-69.717,18.984-68.883"/>
	<path fill="#71C5EF" d="M325.906,466.547c6.02,12.03,9.617,17.472,6.795,20.713c-2.217,2.881-11.869-3.05-17.744-15.386
		c-10.695-25.02-11.578-55.457-12.881-55.457C303.053,415.602,316.506,444.857,325.906,466.547z"/>
	<path fill="#71C5EF" d="M330.412,409.444c-10.213-10.473-12.945-17.361-11.117-18.875c2.057-1.695,8.582,4.739,16.879,13.143
		c15.975,17.961,42.223,32.079,42.475,31.851C379.002,436.024,348.174,428.927,330.412,409.444z"/>
</g>
</svg>
