<?xml version="1.0" encoding="utf-8"?>
<!-- Generator: Adobe Illustrator 16.0.0, SVG Export Plug-In . SVG Version: 6.00 Build 0)  -->
<!DOCTYPE svg PUBLIC "-//W3C//DTD SVG 1.1//EN" "http://www.w3.org/Graphics/SVG/1.1/DTD/svg11.dtd">
<svg version="1.1" id="Layer_1" xmlns="http://www.w3.org/2000/svg" xmlns:xlink="http://www.w3.org/1999/xlink" x="0px" y="0px"
	 width="540px" height="540px" viewBox="0 0 540 540" enable-background="new 0 0 540 540" xml:space="preserve">
<g>
	<polygon fill="#D01C89" points="74.322,54.229 83.378,72.596 103.631,75.541 88.98,89.833 92.433,110.01 74.322,100.483 
		56.197,110.01 59.653,89.833 45,75.541 65.25,72.596 	"/>
	<polygon fill="#D01C89" points="465.687,54.229 474.745,72.596 495,75.541 480.341,89.833 483.801,110.01 465.687,100.483 
		447.561,110.01 451.022,89.833 436.363,75.541 456.613,72.596 	"/>
	<g>
		<polygon fill="#F47930" points="262.876,127.33 485.272,127.33 381.046,368.253 166.488,350.163 		"/>
		<polygon fill="#E6E7E8" points="461.525,117.213 476.094,117.213 362.604,380.152 348.04,380.152 		"/>
		<polygon fill="#E6E7E8" points="431.482,117.213 446.049,117.213 332.566,380.152 318.005,380.152 		"/>
		<polygon fill="#E6E7E8" points="401.443,117.213 416.011,117.213 302.526,380.152 287.962,380.152 		"/>
		<polygon fill="#E6E7E8" points="371.404,117.213 385.973,117.213 272.488,380.152 257.925,380.152 		"/>
		<polygon fill="#E6E7E8" points="341.367,117.213 355.935,117.213 242.449,380.152 227.885,380.152 		"/>
		<polygon fill="#E6E7E8" points="311.332,117.213 325.896,117.213 212.41,380.152 197.838,380.152 		"/>
		<polygon fill="#E6E7E8" points="281.294,117.213 295.852,117.213 182.372,380.152 167.807,380.152 		"/>
	</g>
	<g>
		<polygon fill="#D01C89" points="285.635,127.33 63.241,127.33 167.468,368.253 374.795,331.987 		"/>
		<polygon fill="#E6E7E8" points="86.99,117.213 72.424,117.213 185.911,380.152 200.474,380.152 		"/>
		<polygon fill="#E6E7E8" points="117.028,117.213 102.458,117.213 215.946,380.152 230.512,380.152 		"/>
		<polygon fill="#E6E7E8" points="147.068,117.213 132.499,117.213 245.986,380.152 260.55,380.152 		"/>
		<polygon fill="#E6E7E8" points="177.106,117.213 162.54,117.213 276.025,380.152 290.589,380.152 		"/>
		<polygon fill="#E6E7E8" points="207.148,117.213 192.58,117.213 306.063,380.152 320.629,380.152 		"/>
		<polygon fill="#E6E7E8" points="237.182,117.213 222.622,117.213 336.102,380.152 350.67,380.152 		"/>
		<polygon fill="#E6E7E8" points="267.226,117.213 252.66,117.213 366.143,380.152 380.707,380.152 		"/>
	</g>
	<circle fill="#E6E7E8" cx="273.014" cy="368.254" r="117.518"/>
	<path fill="#2B2B7C" d="M179.553,408.285c-16.083-35.674-10.04-90.037,35.685-121.435c19.836-13.626,41.881-19.966,65.628-20.374
		c13.056-0.226,25.242,4.089,36.67,10.262c19.482,10.495,34.942,25.357,45.241,44.895c22.988,43.63,13.048,98.25-30.17,129.041
		c-5.774,4.117-11.879,8.061-18.351,10.884c-24.07,10.455-48.759,11.148-73.536,2.657c-23.563-8.054-41.995-22.796-55.076-44.045
		C183.315,416.392,181.574,412.251,179.553,408.285z M337.972,362.547c-3.653-6.604-8.302-11.057-13.067-15.479
		c-5.503-5.132-11.816-6.49-18.899-4.727c-8.475,2.128-16.888,4.455-25.333,6.706c-2.619,0.712-4.576,2.369-5.285,4.927
		c-2.162,7.711-4.307,15.438-6.043,23.256c-1.015,4.521,0.66,8.543,3.881,11.988c6.737,7.209,14.619,13.014,22.637,18.642
		c3.146,2.207,6.647,2.656,10.438,1.611c4.282-1.179,8.625-2.135,12.975-3.047c4.958-1.032,9.335-2.928,11.722-7.724
		c4.609-9.238,7.751-18.899,7.708-29.355C338.687,366.808,338.172,364.252,337.972,362.547z M256.269,288.497
		c0.039,0.148,0.088,0.307,0.119,0.449c-0.663,0.289-1.346,0.581-2.014,0.865c-3.439,1.465-5.665,3.756-6.083,7.726
		c-0.696,6.61-1.634,13.189-2.496,19.784c-1.167,8.939,2.575,15.426,10.146,19.857c4.258,2.496,8.708,4.678,13.021,7.104
		c2.585,1.444,5.333,2.117,8.195,1.523c4.512-0.938,8.972-2.103,13.443-3.214c6.595-1.657,13.127-3.59,19.779-4.915
		c2.334-0.452,3.441-1.255,3.866-3.392c0.321-1.589,0.846-3.152,0.969-4.757c0.378-5.166,0.449-10.367,0.946-15.512
		c0.643-6.656-2.12-11.529-7.561-14.926c-7.286-4.563-14.669-8.981-22.119-13.266c-3.242-1.873-6.824-3.255-10.696-2.33
		C269.254,285.064,262.768,286.81,256.269,288.497z M279.063,441.647c1.482-1.346,3.721-2.678,4.945-4.632
		c3.897-6.283,6.963-12.986,8.716-20.243c0.894-3.738-0.063-6.637-3.095-8.999c-6.317-4.927-12.672-9.839-18.851-14.93
		c-4.801-3.947-9.72-5.517-16.122-4.079c-5.526,1.233-11.42,0.87-17.146,1.184c-3.554,0.192-6.76,1.283-8.984,4.161
		c-5.567,7.234-10.058,15.124-12.684,23.905c-0.482,1.643-0.518,4.053,0.357,5.345c7.352,10.83,16.974,18.751,30.447,19.9
		c8.43,0.711,16.976,0.083,25.463-0.13C274.242,443.052,276.37,442.238,279.063,441.647z M219.071,288.239
		c-7.631,4.809-14.321,10.022-19.768,16.654c-9.377,11.425-15.137,24.465-17.219,39.135c-0.5,3.525,0.095,5.182,3.559,5.962
		c6.077,1.392,12.283,2.219,18.354,3.607c4.38,0.999,8.024-0.146,11.27-2.897c7.049-5.95,13.966-12.053,21.04-17.958
		c2.71-2.256,4.324-4.942,4.827-8.406c0.432-2.958,1.122-5.897,1.532-8.86c1.01-7.291,2.265-14.576,1.39-22.001
		c-0.175-1.617-0.767-2.571-2.375-2.836c-5.899-0.959-11.796-2.012-17.727-2.819C222.269,287.583,220.47,288.113,219.071,288.239z
		 M223.57,386.981c-2.51-4.801-4.653-8.885-6.791-12.991c-2.573-4.95-5.104-9.936-7.75-14.85c-0.377-0.688-1.228-1.38-1.978-1.565
		c-4.615-1.2-9.255-2.473-13.953-3.306c-11.052-1.972-16.317,1.865-17.103,13.012c-0.966,13.528,1.228,26.641,6.671,39.133
		c1.996,4.589,5.132,8.053,9.923,9.799c3.271,1.185,6.548,2.425,9.915,3.255c6.534,1.616,8.529,0.595,11.687-5.406
		c0.184-0.354,0.368-0.722,0.538-1.093c2.782-5.855,5.519-11.717,8.347-17.564C224.558,392.353,224.602,389.326,223.57,386.981z
		 M361.244,349.922c-0.036,0.012-0.397,0.028-0.634,0.191c-5.342,3.934-10.697,7.831-15.947,11.868
		c-0.64,0.496-1.009,1.685-1.064,2.569c-0.62,12.437-3.515,24.346-8.063,35.911c-0.44,1.121-0.44,2.841,0.126,3.862
		c2.839,5.25,6.575,9.812,11.19,13.613c0.553,0.45,1.576,0.886,2.132,0.676c5.708-2.157,11.262-4.32,14.068-10.622
		c4.521-10.158,6.586-20.824,7.699-31.766C371.798,365.994,369.789,356.871,361.244,349.922z M306.913,460.159
		c1.488-0.838,3.331-1.714,4.973-2.865c0.906-0.643,2.238-2.002,2.038-2.558c-0.381-1.095-1.566-2.233-2.69-2.64
		c-4.112-1.484-8.516-2.26-12.476-4.06c-7.037-3.199-14.197-3.518-21.605-2.117c-0.646,0.109-1.276,0.173-1.925,0.235
		c-10.059,1.072-20.141,2.555-30.223,0.724c-2.956-0.541-4.423,0.082-5.985,2.58c-4.06,6.458-4.094,6.851,2.624,10.612
		c1.343,0.76,2.712,1.586,4.173,1.948c5.412,1.337,10.811,3.01,16.308,3.61C277.32,467.286,292.192,465.521,306.913,460.159z
		 M343.617,302.427c0.132-0.126,0.274-0.241,0.416-0.349c-2.32-2.681-4.371-5.646-6.992-7.973
		c-12.624-11.192-27.36-18.413-43.715-22.253c-3.854-0.903-8.007-0.615-12.022-0.761c-2.063-0.069-2.515,1.135-2.209,3.04
		c0.589,3.799,3.241,5.793,6.212,7.606c5.871,3.598,11.801,7.102,17.563,10.855c11.347,7.407,23.107,13.737,36.717,15.931
		c4.79,0.774,5.949-0.469,4.405-5.206C343.892,303.016,343.742,302.721,343.617,302.427z M351.074,310.016
		c1.159,15.615,7.307,29.11,17.511,40.882C368.274,334.916,360.281,322.209,351.074,310.016z M317.87,454.386
		c17.33-6.251,28.273-19.495,37.771-34.367c-1.323,0.2-2.55,0.543-3.383,1.319c-3.709,3.449-7.683,6.719-10.877,10.63
		c-6.357,7.778-14.094,13.755-22.64,18.795C317.076,451.742,316.693,452.628,317.87,454.386z"/>
</g>
</svg>
