<?xml version="1.0" encoding="utf-8"?>
<!-- Generator: Adobe Illustrator 16.0.0, SVG Export Plug-In . SVG Version: 6.00 Build 0)  -->
<!DOCTYPE svg PUBLIC "-//W3C//DTD SVG 1.1//EN" "http://www.w3.org/Graphics/SVG/1.1/DTD/svg11.dtd">
<svg version="1.1" id="Layer_1" xmlns="http://www.w3.org/2000/svg" xmlns:xlink="http://www.w3.org/1999/xlink" x="0px" y="0px"
	 width="540px" height="540px" viewBox="0 0 540 540" enable-background="new 0 0 540 540" xml:space="preserve">
<g>
	
		<radialGradient id="SVGID_1_" cx="72.2026" cy="-474.6172" r="116.1461" gradientTransform="matrix(1.5017 0 0 -0.0781 170.887 394.2343)" gradientUnits="userSpaceOnUse">
		<stop  offset="0" style="stop-color:#575756"/>
		<stop  offset="0.9951" style="stop-color:#FFFFFF;stop-opacity:0"/>
	</radialGradient>
	<ellipse fill="url(#SVGID_1_)" cx="279.315" cy="431.32" rx="183.419" ry="9.765"/>
	<circle fill="#4F4F4F" cx="331.749" cy="268.069" r="163.252"/>
	<path fill="#3C3C3B" d="M495,268.068c0,90.162-73.089,163.253-163.251,163.253c-37.449,0-71.952-12.608-99.496-33.813
		c0,0,129.792-23.965,174.613-107.347c44.819-83.377,9.477-161.747,9.477-161.747C463.497,157.04,495,208.876,495,268.068z"/>
	<g>
		<path fill="#FFD749" d="M226.47,247.506c12.377-32.378,48.657-48.593,81.038-36.217c14.333,5.478,25.492,15.648,32.409,28.085
			c33.822-30.517,46.33-68.575,46.33-68.575l-17.775-6.793c-2.586-0.989-5.478,0.306-6.466,2.889l-4.473,11.694l-142.199-54.357
			c-13.435-5.135-28.486,1.593-33.622,15.026L132.72,267.425c0,0,38.374,14.074,90.439,12.598
			C221.42,269.433,222.361,258.255,226.47,247.506z M240.498,192.363c-1.367,3.574-5.387,5.372-8.96,4.005l-31.486-12.036
			c-3.574-1.367-5.371-5.387-4.005-8.959l7.918-20.714c1.367-3.574,5.385-5.37,8.959-4.005l31.486,12.037
			c3.574,1.367,5.371,5.385,4.004,8.958L240.498,192.363z"/>
		<path fill="#FFFFFF" d="M408.314,194.412l3.273-8.564c1.972-5.16-0.621-10.959-5.777-12.931l-35.552-13.589
			c-5.159-1.972-10.962,0.62-12.935,5.779l-2.679,7.016l-137.523-52.567c-15.991-6.113-33.975,1.924-40.087,17.916l-48.991,128.169
			c-6.114,15.992,1.923,33.974,17.914,40.086l182.428,69.733c15.992,6.112,33.975-1.922,40.087-17.916l48.992-128.167
			C422.251,216.852,418.393,202.783,408.314,194.412z M363.796,355.752c-5.134,13.437-20.189,20.165-33.622,15.029l-182.428-69.735
			c-13.434-5.135-20.16-20.185-15.026-33.621l48.992-128.167c5.136-13.434,20.187-20.161,33.622-15.026l142.199,54.357l4.473-11.694
			c0.986-2.584,3.88-3.877,6.466-2.889l17.775,6.793l17.775,6.795c2.584,0.987,3.874,3.882,2.889,6.465l-4.644,12.148
			c10.361,6.46,15.046,19.546,10.521,31.379L363.796,355.752z"/>
		<path fill="#FFCD1C" d="M402.266,196.208l4.645-12.148c0.985-2.583-0.305-5.478-2.889-6.465l-17.776-6.795
			c0,0-12.506,38.058-46.328,68.575c8.711,15.656,10.703,34.905,3.803,52.952c-12.376,32.379-48.654,48.593-81.035,36.217
			c-21.629-8.269-36.029-27.205-39.527-48.521c-52.066,1.475-90.439-12.598-90.439-12.598c-5.134,13.437,1.592,28.486,15.026,33.621
			l182.426,69.735c13.433,5.136,28.489-1.593,33.624-15.027l48.991-128.167C417.311,215.754,412.629,202.67,402.266,196.208z"/>
		<path fill="#FFFFFF" d="M226.47,247.506c-4.109,10.75-5.05,21.927-3.311,32.518c3.499,21.314,17.898,40.251,39.527,48.521
			c32.379,12.376,68.66-3.839,81.035-36.217c6.898-18.045,4.906-37.296-3.805-52.952c-6.917-12.437-18.076-22.607-32.409-28.085
			C275.127,198.913,238.847,215.127,226.47,247.506z M336.55,289.585c-10.86,28.417-42.704,42.649-71.121,31.785
			c-18.677-7.139-31.223-23.341-34.548-41.677c-1.733-9.563-0.96-19.705,2.763-29.445c10.861-28.417,42.706-42.648,71.121-31.785
			c13.109,5.009,23.186,14.488,29.189,26.032C340.961,257.976,342.401,274.276,336.55,289.585z"/>
		<path fill="#3C3C3B" d="M233.643,250.248c-3.723,9.742-4.497,19.882-2.763,29.445c3.323,18.336,15.871,34.538,34.548,41.677
			c28.418,10.864,60.26-3.368,71.123-31.785c5.851-15.309,4.411-31.609-2.597-45.09c-6.003-11.543-16.08-21.022-29.188-26.032
			C276.347,207.6,244.505,221.831,233.643,250.248z M321.057,255.785c5.94,2.271,8.918,8.929,6.647,14.871
			c-2.271,5.943-8.931,8.917-14.87,6.646c-5.942-2.272-8.918-8.929-6.646-14.872C308.458,256.489,315.115,253.513,321.057,255.785z"
			/>
		<path fill="#3C3C3B" d="M242.623,167.366l-31.487-12.036c-0.993-0.38-2.112,0.12-2.494,1.114l-7.918,20.716
			c-0.38,0.995,0.12,2.113,1.115,2.495l31.487,12.036c0.996,0.38,2.114-0.12,2.495-1.116l7.918-20.714
			C244.118,168.866,243.618,167.748,242.623,167.366z"/>
		<path fill="#FFFFFF" d="M244.411,162.69l-31.486-12.037c-3.574-1.364-7.593,0.431-8.959,4.005l-7.918,20.714
			c-1.364,3.573,0.431,7.593,4.005,8.959l31.486,12.036c3.574,1.367,7.594-0.431,8.96-4.005l7.917-20.715
			C249.781,168.075,247.985,164.057,244.411,162.69z M235.82,190.575c-0.381,0.996-1.499,1.496-2.495,1.116l-31.487-12.036
			c-0.995-0.38-1.495-1.5-1.115-2.495l7.918-20.716c0.38-0.994,1.5-1.494,2.494-1.114l31.487,12.036
			c0.996,0.38,1.496,1.5,1.114,2.495L235.82,190.575z"/>
		<circle fill="#FFFFFF" cx="316.944" cy="266.543" r="11.518"/>
	</g>
	<g>
		<path fill="#3C3C3B" d="M64.986,164.95c2.493-6.523,9.801-9.791,16.326-7.296l52.156,19.936c6.523,2.493,9.79,9.804,7.295,16.327
			l0,0c-2.493,6.524-9.803,9.79-16.326,7.295l-52.156-19.935C65.758,178.782,62.492,171.472,64.986,164.95L64.986,164.95z"/>
		<g>
			<path fill="#3C3C3B" d="M45.161,232.035c-1.103-6.896,3.595-13.38,10.49-14.482l55.136-8.812
				c6.896-1.102,13.379,3.595,14.482,10.49l0,0c1.101,6.895-3.595,13.379-10.491,14.481l-55.136,8.812
				C52.746,243.627,46.261,238.931,45.161,232.035L45.161,232.035z"/>
			<path fill="#3C3C3B" d="M94.963,101.745c-5.421,4.403-6.247,12.365-1.844,17.788l35.2,43.344
				c4.401,5.419,12.365,6.246,17.786,1.844l0,0c5.421-4.403,6.248-12.365,1.846-17.787l-35.2-43.345
				C108.348,98.168,100.384,97.342,94.963,101.745L94.963,101.745z"/>
		</g>
	</g>
</g>
</svg>
