<?xml version="1.0" encoding="utf-8"?>
<!-- Generator: Adobe Illustrator 16.0.0, SVG Export Plug-In . SVG Version: 6.00 Build 0)  -->
<!DOCTYPE svg PUBLIC "-//W3C//DTD SVG 1.1//EN" "http://www.w3.org/Graphics/SVG/1.1/DTD/svg11.dtd">
<svg version="1.1" id="Layer_1" xmlns="http://www.w3.org/2000/svg" xmlns:xlink="http://www.w3.org/1999/xlink" x="0px" y="0px"
	 width="540px" height="540px" viewBox="0 0 540 540" enable-background="new 0 0 540 540" xml:space="preserve">
<g>
	<path fill="#00A398" d="M295.563,423.074c8.154-56.492-24.78-95.139-66.324-129.641c-0.414-25.387-2.012-61.784-13.018-72.784
		c-9.893,1.838-35.046,17.487-48.464,24.989c-45.127-35.808-82.568-74.236-73.143-131.767
		c-35.062,44.757-40.221,99.433-26.464,150.712c-8.778,2.634-16.887,6.848-22.844,13.526c-3.07,3.434,17.378,13.341,35.214,21.17
		C120.027,387.68,213.028,455.009,295.563,423.074z"/>
	<path fill="#004943" d="M112.413,164.291C67.627,64.225,217.749,15.739,257.006,73.089c-33.351-17.092-63.65,3.654-77.116,22.245
		c18.721,18.723,37.893,55.107,31.885,76.376C201.623,154.926,131.934,93.686,112.413,164.291z"/>
	<path fill="#EF5662" d="M244.436,116.921c-8.157,56.492,24.775,95.136,66.321,129.644c0.411,25.389,2.018,61.78,13.021,72.785
		c9.889-1.839,35.048-17.486,48.46-24.992c45.13,35.805,82.567,74.239,73.146,131.771c35.061-44.757,40.216-99.438,26.463-150.719
		c8.774-2.636,16.886-6.845,22.848-13.522c3.063-3.438-17.382-13.342-35.216-21.175C419.968,152.318,326.969,84.988,244.436,116.921
		z"/>
	<path fill="#D82232" d="M427.582,375.703c44.786,100.072-105.336,148.559-144.593,91.207c33.354,17.09,63.655-3.656,77.116-22.247
		c-18.722-18.721-37.891-55.107-31.884-76.373C338.374,385.074,408.067,446.318,427.582,375.703z"/>
</g>
</svg>
